<?xml version="1.0" encoding="us-ascii" standalone="no"?>
<svg xmlns="http://www.w3.org/2000/svg" xmlns:xlink="http://www.w3.org/1999/xlink" contentStyleType="text/css"
     height="326px" preserveAspectRatio="none" style="width:851px;height:326px;background:#FFFFFF;" version="1.1"
     viewBox="0 0 851 326" width="851px" zoomAndPan="magnify">
    <defs/>
    <g>
        <rect fill="#FFFFFF" height="237.9599" style="stroke:#181818;stroke-width:1.0;" width="10" x="67" y="72.7739"/>
        <rect fill="#FFFFFF" height="197.2539" style="stroke:#181818;stroke-width:1.0;" width="10" x="287"
              y="104.4799"/>
        <rect fill="#FFFFFF" height="89.7739" style="stroke:#181818;stroke-width:1.0;" width="10" x="455.5"
              y="180.2539"/>
        <rect fill="#FFFFFF" height="16.3619" style="stroke:#181818;stroke-width:1.0;" width="10" x="750.5"
              y="221.9599"/>
        <line style="stroke:#181818;stroke-width:0.5;stroke-dasharray:5.0,5.0;" x1="72" x2="72" y1="39.0679"
              y2="319.7338"/>
        <line style="stroke:#181818;stroke-width:0.5;stroke-dasharray:5.0,5.0;" x1="291.5" x2="291.5" y1="39.0679"
              y2="319.7338"/>
        <line style="stroke:#181818;stroke-width:0.5;stroke-dasharray:5.0,5.0;" x1="460.5" x2="460.5" y1="144.5139"
              y2="319.7338"/>
        <line style="stroke:#181818;stroke-width:0.5;stroke-dasharray:5.0,5.0;" x1="755.5" x2="755.5" y1="220.2878"
              y2="319.7338"/>
        <rect fill="#005EC4" height="33.0679" rx="2.5" ry="2.5" style="stroke:#181818;stroke-width:0.5;" width="114"
              x="15" y="5"/>
        <text fill="#FFFFFF" font-family="sans-serif" font-size="14" lengthAdjust="spacing" textLength="100" x="22"
              y="26.9659">:LogicManager
        </text>
        <rect fill="#005EC4" height="33.0679" rx="2.5" ry="2.5" style="stroke:#181818;stroke-width:0.5;" width="121"
              x="231.5" y="5"/>
        <text fill="#FFFFFF" font-family="sans-serif" font-size="14" lengthAdjust="spacing" textLength="107" x="238.5"
              y="26.9659">:EduMateParser
        </text>
        <rect fill="#FFFFFF" height="237.9599" style="stroke:#181818;stroke-width:1.0;" width="10" x="67" y="72.7739"/>
        <rect fill="#FFFFFF" height="197.2539" style="stroke:#181818;stroke-width:1.0;" width="10" x="287"
              y="104.4799"/>
        <rect fill="#FFFFFF" height="89.7739" style="stroke:#181818;stroke-width:1.0;" width="10" x="455.5"
              y="180.2539"/>
        <rect fill="#FFFFFF" height="16.3619" style="stroke:#181818;stroke-width:1.0;" width="10" x="750.5"
              y="221.9599"/>
        <polygon fill="#181818" points="55,68.7739,65,72.7739,55,76.7739,59,72.7739"
                 style="stroke:#181818;stroke-width:1.0;"/>
        <line style="stroke:#181818;stroke-width:1.0;" x1="0" x2="61" y1="72.7739" y2="72.7739"/>
        <text fill="#000000" font-family="sans-serif" font-size="13" lengthAdjust="spacing" textLength="47" x="10"
              y="66.9649">execute
        </text>
        <polygon fill="#181818" points="275,100.4799,285,104.4799,275,108.4799,279,104.4799"
                 style="stroke:#181818;stroke-width:1.0;"/>
        <line style="stroke:#181818;stroke-width:1.0;" x1="77" x2="281" y1="104.4799" y2="104.4799"/>
        <text fill="#000000" font-family="sans-serif" font-size="13" lengthAdjust="spacing" textLength="191" x="86.5"
              y="98.6709">parseCommand(commandText)
        </text>
        <polygon fill="#181818" points="370.5,114.4799,380.5,118.4799,370.5,122.4799,374.5,118.4799"
                 style="stroke:#181818;stroke-width:1.0;"/>
        <line style="stroke:#181818;stroke-width:1.0;" x1="297" x2="376.5" y1="118.4799" y2="118.4799"/>
        <rect fill="#005EC4" height="33.0679" rx="2.5" ry="2.5" style="stroke:#181818;stroke-width:0.5;" width="156"
              x="382.5" y="112.4799"/>
        <text fill="#FFFFFF" font-family="sans-serif" font-size="14" lengthAdjust="spacing" textLength="142" x="389.5"
              y="134.4459">:EditCommandParser
        </text>
        <polygon fill="#181818" points="443.5,176.2539,453.5,180.2539,443.5,184.2539,447.5,180.2539"
                 style="stroke:#181818;stroke-width:1.0;"/>
        <line style="stroke:#181818;stroke-width:1.0;" x1="297" x2="449.5" y1="180.2539" y2="180.2539"/>
        <text fill="#000000" font-family="sans-serif" font-size="13" lengthAdjust="spacing" textLength="107" x="322.75"
              y="174.4449">parse(arguments)
        </text>
        <polygon fill="#181818" points="653.5,207.9599,663.5,211.9599,653.5,215.9599,657.5,211.9599"
                 style="stroke:#181818;stroke-width:1.0;"/>
        <line style="stroke:#181818;stroke-width:1.0;" x1="465.5" x2="659.5" y1="211.9599" y2="211.9599"/>
        <text fill="#000000" font-family="sans-serif" font-size="13" lengthAdjust="spacing" textLength="166" x="482.5"
              y="206.1509">index, editPersonDescriptor
        </text>
        <rect fill="#005EC4" height="33.0679" rx="2.5" ry="2.5" style="stroke:#181818;stroke-width:0.5;" width="180"
              x="665.5" y="188.2539"/>
        <text fill="#FFFFFF" font-family="sans-serif" font-size="14" lengthAdjust="spacing" textLength="166" x="672.5"
              y="210.2198">command:EditCommand
        </text>
        <polygon fill="#181818" points="476.5,234.3218,466.5,238.3218,476.5,242.3218,472.5,238.3218"
                 style="stroke:#181818;stroke-width:1.0;"/>
        <line style="stroke:#181818;stroke-width:1.0;stroke-dasharray:2.0,2.0;" x1="470.5" x2="754.5" y1="238.3218"
              y2="238.3218"/>
        <polygon fill="#181818" points="308,266.0278,298,270.0278,308,274.0278,304,270.0278"
                 style="stroke:#181818;stroke-width:1.0;"/>
        <line style="stroke:#181818;stroke-width:1.0;stroke-dasharray:2.0,2.0;" x1="302" x2="459.5" y1="270.0278"
              y2="270.0278"/>
        <text fill="#000000" font-family="sans-serif" font-size="13" lengthAdjust="spacing" textLength="61" x="348.25"
              y="264.2188">command
        </text>
        <polygon fill="#181818" points="88,297.7338,78,301.7338,88,305.7338,84,301.7338"
                 style="stroke:#181818;stroke-width:1.0;"/>
        <line style="stroke:#181818;stroke-width:1.0;stroke-dasharray:2.0,2.0;" x1="82" x2="291" y1="301.7338"
              y2="301.7338"/>
        <text fill="#000000" font-family="sans-serif" font-size="13" lengthAdjust="spacing" textLength="61" x="154"
              y="295.9248">command
        </text><!--SRC=[VO_1QiCm38RlVWgjfuxEwJs7NR8n1YaffRSTXkQ8O4WSOyiZU_lQjTdI7NeJqlT9lnwqKMFe2Qfgx_bdfCg6QHJYY8wrqXODmwPkvq6h0neSo6q0FOof0MttzjvyDbtRdVu9htqu85Di-cBWbxtBQsxcQKBJhnnITnoLyRLQf1j7VCZd4hS6MaW59e6AzNVCbmSYZoENGkvsDTYKeIpTbaDdMlXHA4V9Yyb4WgDpM_xfMtH3cCYmNraY8LVo2chJq_8455yualEpUI6ldBOykqY2B3kbp5v9A6KD9LI-_FlXUd81]-->
    </g>
</svg>
