<?xml version="1.0" encoding="us-ascii" standalone="no"?><svg xmlns="http://www.w3.org/2000/svg" xmlns:xlink="http://www.w3.org/1999/xlink" contentStyleType="text/css" height="327px" preserveAspectRatio="none" style="width:438px;height:327px;background:#FFFFFF;" version="1.1" viewBox="0 0 438 327" width="438px" zoomAndPan="magnify"><defs/><g><!--class Item--><g id="elem_Item"><rect codeLine="9" fill="#9D0012" height="41.2813" id="Item" rx="2.5" ry="2.5" style="stroke:#9D0012;stroke-width:1.0;" width="67" x="232" y="7"/><text fill="#FFFFFF" font-family="Arial" font-size="14" font-style="italic" lengthAdjust="spacing" textLength="61" x="235" y="24.6738">{abstract}</text><text fill="#FFFFFF" font-family="Arial" font-size="14" font-style="italic" lengthAdjust="spacing" textLength="27" x="252" y="40.3145">Item</text></g><!--class Name--><g id="elem_Name"><rect codeLine="10" fill="#9D0012" height="41.2813" id="Name" rx="2.5" ry="2.5" style="stroke:#9D0012;stroke-width:1.0;" width="67" x="121" y="280"/><text fill="#FFFFFF" font-family="Arial" font-size="14" font-style="italic" lengthAdjust="spacing" textLength="61" x="124" y="297.6738">{abstract}</text><text fill="#FFFFFF" font-family="Arial" font-size="14" font-style="italic" lengthAdjust="spacing" textLength="37" x="136" y="313.3145">Name</text></g><!--class Deadline--><g id="elem_Deadline"><rect codeLine="11" fill="#9D0012" height="41.2813" id="Deadline" rx="2.5" ry="2.5" style="stroke:#9D0012;stroke-width:1.0;" width="67" x="351" y="280"/><text fill="#FFFFFF" font-family="Arial" font-size="14" font-style="italic" lengthAdjust="spacing" textLength="61" x="354" y="297.6738">{abstract}</text><text fill="#FFFFFF" font-family="Arial" font-size="14" font-style="italic" lengthAdjust="spacing" textLength="56" x="356.5" y="313.3145">Deadline</text></g><!--class Status--><g id="elem_Status"><rect codeLine="12" fill="#9D0012" height="41.2813" id="Status" rx="2.5" ry="2.5" style="stroke:#9D0012;stroke-width:1.0;" width="67" x="231" y="280"/><text fill="#FFFFFF" font-family="Arial" font-size="14" font-style="italic" lengthAdjust="spacing" textLength="61" x="234" y="297.6738">{abstract}</text><text fill="#FFFFFF" font-family="Arial" font-size="14" font-style="italic" lengthAdjust="spacing" textLength="40" x="244.5" y="313.3145">Status</text></g><!--class Task--><g id="elem_Task"><rect codeLine="14" fill="#9D0012" height="25.6406" id="Task" rx="2.5" ry="2.5" style="stroke:#9D0012;stroke-width:1.0;" width="50" x="239.5" y="108"/><text fill="#FFFFFF" font-family="Arial" font-size="14" lengthAdjust="spacing" textLength="31" x="249" y="125.6738">Task</text></g><!--class TaskName--><g id="elem_TaskName"><rect codeLine="15" fill="#9D0012" height="25.6406" id="TaskName" rx="2.5" ry="2.5" style="stroke:#9D0012;stroke-width:1.0;" width="73" x="118" y="194"/><text fill="#FFFFFF" font-family="Arial" font-size="14" lengthAdjust="spacing" textLength="67" x="121" y="211.6738">TaskName</text></g><!--class TaskStatus--><g id="elem_TaskStatus"><rect codeLine="16" fill="#9D0012" height="25.6406" id="TaskStatus" rx="2.5" ry="2.5" style="stroke:#9D0012;stroke-width:1.0;" width="77" x="226" y="194"/><text fill="#FFFFFF" font-family="Arial" font-size="14" lengthAdjust="spacing" textLength="71" x="229" y="211.6738">TaskStatus</text></g><!--class TaskDeadline--><g id="elem_TaskDeadline"><rect codeLine="17" fill="#9D0012" height="25.6406" id="TaskDeadline" rx="2.5" ry="2.5" style="stroke:#9D0012;stroke-width:1.0;" width="93" x="338" y="194"/><text fill="#FFFFFF" font-family="Arial" font-size="14" lengthAdjust="spacing" textLength="87" x="341" y="211.6738">TaskDeadline</text></g><!--class TaskList--><g id="elem_TaskList"><rect codeLine="18" fill="#9D0012" height="25.6406" id="TaskList" rx="2.5" ry="2.5" style="stroke:#9D0012;stroke-width:1.0;" width="59" x="7" y="108"/><text fill="#FFFFFF" font-family="Arial" font-size="14" lengthAdjust="spacing" textLength="53" x="10" y="125.6738">TaskList</text></g><!--class ItemList--><g id="elem_ItemList"><rect fill="#9D0012" height="25.6406" id="ItemList" rx="2.5" ry="2.5" style="stroke:#9D0012;stroke-width:1.0;" width="54" x="9.5" y="14.5"/><text fill="#FFFFFF" font-family="Arial" font-size="14" lengthAdjust="spacing" textLength="48" x="12.5" y="32.1738">ItemList</text></g><!--class UniqueTaskList--><g id="elem_UniqueTaskList"><rect codeLine="19" fill="#9D0012" height="25.6406" id="UniqueTaskList" rx="2.5" ry="2.5" style="stroke:#9D0012;stroke-width:1.0;" width="103" x="101" y="108"/><text fill="#FFFFFF" font-family="Arial" font-size="14" lengthAdjust="spacing" textLength="97" x="104" y="125.6738">UniqueTaskList</text></g><!--class UniqueItemList--><g id="elem_UniqueItemList"><rect fill="#9D0012" height="25.6406" id="UniqueItemList" rx="2.5" ry="2.5" style="stroke:#9D0012;stroke-width:1.0;" width="98" x="98.5" y="14.5"/><text fill="#FFFFFF" font-family="Arial" font-size="14" lengthAdjust="spacing" textLength="92" x="101.5" y="32.1738">UniqueItemList</text></g><!--reverse link ItemList to TaskList--><g id="link_ItemList_TaskList"><path d="M36.5,62.19 C36.5,78.03 36.5,95.93 36.5,107.56 " fill="none" id="ItemList-backto-TaskList" style="stroke:#9D0012;stroke-width:1.1;"/><polygon fill="none" points="29.5,62.35,36.5,42.35,43.5,62.35,29.5,62.35" style="stroke:#9D0012;stroke-width:1.1;"/></g><!--reverse link UniqueItemList to UniqueTaskList--><g id="link_UniqueItemList_UniqueTaskList"><path d="M149.34,62.19 C150.21,78.03 151.18,95.93 151.82,107.56 " fill="none" id="UniqueItemList-backto-UniqueTaskList" style="stroke:#9D0012;stroke-width:1.1;"/><polygon fill="none" points="142.36,62.7,148.26,42.35,156.34,61.94,142.36,62.7" style="stroke:#9D0012;stroke-width:1.1;"/></g><!--link ItemList to UniqueItemList--><g id="link_ItemList_UniqueItemList"><path codeLine="21" d="M78.3,27.5 C80.16,27.5 82.02,27.5 83.88,27.5 " fill="none" id="ItemList-UniqueItemList" style="stroke:#9D0012;stroke-width:1.1;"/><polygon fill="#9D0012" points="65.33,27.5,71.33,31.5,77.33,27.5,71.33,23.5,65.33,27.5" style="stroke:#9D0012;stroke-width:1.1;"/><polygon fill="#9D0012" points="96.63,27.5,87.63,23.5,91.63,27.5,87.63,31.5,96.63,27.5" style="stroke:#9D0012;stroke-width:1.1;"/><line style="stroke:#9D0012;stroke-width:1.1;" x1="91.63" x2="83.63" y1="27.5" y2="27.5"/><text fill="#000000" font-family="sans-serif" font-size="13" lengthAdjust="spacing" textLength="7" x="79.4253" y="23.3787">1</text></g><!--link UniqueItemList to Item--><g id="link_UniqueItemList_Item"><path codeLine="22" d="M196.82,27.5 C206.36,27.5 215.89,27.5 225.43,27.5 " fill="none" id="UniqueItemList-to-Item" style="stroke:#9D0012;stroke-width:1.1;"/><polygon fill="#9D0012" points="230.18,27.5,221.18,23.5,225.18,27.5,221.18,31.5,230.18,27.5" style="stroke:#9D0012;stroke-width:1.1;"/></g><!--link TaskList to UniqueTaskList--><g id="link_TaskList_UniqueTaskList"><path codeLine="24" d="M80.88,121 C82.74,121 84.6,121 86.46,121 " fill="none" id="TaskList-UniqueTaskList" style="stroke:#9D0012;stroke-width:1.1;"/><polygon fill="#9D0012" points="67.92,121,73.92,125,79.92,121,73.92,117,67.92,121" style="stroke:#9D0012;stroke-width:1.1;"/><polygon fill="#9D0012" points="99.2,121,90.2,117,94.2,121,90.2,125,99.2,121" style="stroke:#9D0012;stroke-width:1.1;"/><line style="stroke:#9D0012;stroke-width:1.1;" x1="94.2" x2="86.2" y1="121" y2="121"/><text fill="#000000" font-family="sans-serif" font-size="13" lengthAdjust="spacing" textLength="7" x="82.0117" y="116.9298">1</text></g><!--link UniqueTaskList to Task--><g id="link_UniqueTaskList_Task"><path codeLine="25" d="M204.12,121 C213.67,121 223.21,121 232.76,121 " fill="none" id="UniqueTaskList-to-Task" style="stroke:#9D0012;stroke-width:1.1;"/><polygon fill="#9D0012" points="237.52,121,228.52,117,232.52,121,228.52,125,237.52,121" style="stroke:#9D0012;stroke-width:1.1;"/></g><!--link Task to TaskName--><g id="link_Task_TaskName"><path codeLine="26" d="M236.95,143.04 C220.18,155.84 198.84,172.14 182.07,184.95 " fill="none" id="Task-TaskName" style="stroke:#9D0012;stroke-width:1.1;"/><polygon fill="#9D0012" points="247.07,135.31,239.8741,135.778,237.5385,142.6004,244.7344,142.1324,247.07,135.31" style="stroke:#9D0012;stroke-width:1.1;"/><polygon fill="#9D0012" points="172,192.64,181.5808,190.3578,175.9741,189.6058,176.7261,183.9992,172,192.64" style="stroke:#9D0012;stroke-width:1.1;"/><line style="stroke:#9D0012;stroke-width:1.1;" x1="175.9741" x2="182.33" y1="189.6058" y2="184.745"/><text fill="#000000" font-family="sans-serif" font-size="13" lengthAdjust="spacing" textLength="7" x="168.52" y="182.6042">1</text></g><!--link Task to TaskDeadline--><g id="link_Task_TaskDeadline"><path codeLine="27" d="M293.92,142.59 C312.44,155.56 336.27,172.24 354.84,185.24 " fill="none" id="Task-TaskDeadline" style="stroke:#9D0012;stroke-width:1.1;"/><polygon fill="#9D0012" points="283.45,135.26,286.0728,141.9772,293.282,142.1398,290.6593,135.4225,283.45,135.26" style="stroke:#9D0012;stroke-width:1.1;"/><polygon fill="#9D0012" points="365.48,192.69,360.3992,184.2528,361.3833,189.8234,355.8127,190.8075,365.48,192.69" style="stroke:#9D0012;stroke-width:1.1;"/><line style="stroke:#9D0012;stroke-width:1.1;" x1="361.3833" x2="354.83" y1="189.8234" y2="185.23"/><text fill="#000000" font-family="sans-serif" font-size="13" lengthAdjust="spacing" textLength="7" x="351.873" y="182.6042">1</text></g><!--link Task to TaskStatus--><g id="link_Task_TaskStatus"><path codeLine="28" d="M264.5,148.58 C264.5,158.34 264.5,169.39 264.5,179.17 " fill="none" id="Task-TaskStatus" style="stroke:#9D0012;stroke-width:1.1;"/><polygon fill="#9D0012" points="264.5,135.91,260.5,141.91,264.5,147.91,268.5,141.91,264.5,135.91" style="stroke:#9D0012;stroke-width:1.1;"/><polygon fill="#9D0012" points="264.5,192.04,268.5,183.04,264.5,187.04,260.5,183.04,264.5,192.04" style="stroke:#9D0012;stroke-width:1.1;"/><line style="stroke:#9D0012;stroke-width:1.1;" x1="264.5" x2="264.5" y1="187.04" y2="179.04"/><text fill="#000000" font-family="sans-serif" font-size="13" lengthAdjust="spacing" textLength="7" x="251.4719" y="182.6042">1</text></g><!--reverse link Item to Task--><g id="link_Item_Task"><path codeLine="29" d="M265.05,69.83 C264.9,83.63 264.74,97.96 264.63,107.76 " fill="none" id="Item-backto-Task" style="stroke:#9D0012;stroke-width:1.1;"/><polygon fill="none" points="258.05,69.79,265.27,49.87,272.05,69.94,258.05,69.79" style="stroke:#9D0012;stroke-width:1.1;"/></g><!--link TaskName to Name--><g id="link_TaskName_Name"><path codeLine="31" d="M154.5,220.34 C154.5,230.15 154.5,244.46 154.5,258.23 " fill="none" id="TaskName-to-Name" style="stroke:#9D0012;stroke-width:1.1;"/><polygon fill="none" points="161.5,258.15,154.5,278.15,147.5,258.15,161.5,258.15" style="stroke:#9D0012;stroke-width:1.1;"/></g><!--link TaskDeadline to Deadline--><g id="link_TaskDeadline_Deadline"><path codeLine="32" d="M384.5,220.34 C384.5,230.15 384.5,244.46 384.5,258.23 " fill="none" id="TaskDeadline-to-Deadline" style="stroke:#9D0012;stroke-width:1.1;"/><polygon fill="none" points="391.5,258.15,384.5,278.15,377.5,258.15,391.5,258.15" style="stroke:#9D0012;stroke-width:1.1;"/></g><!--link TaskStatus to Status--><g id="link_TaskStatus_Status"><path codeLine="33" d="M264.5,220.34 C264.5,230.15 264.5,244.46 264.5,258.23 " fill="none" id="TaskStatus-to-Status" style="stroke:#9D0012;stroke-width:1.1;"/><polygon fill="none" points="271.5,258.15,264.5,278.15,257.5,258.15,271.5,258.15" style="stroke:#9D0012;stroke-width:1.1;"/></g><!--SRC=[VP3TIiGm48NlynHZBeKkz0K4xNgnqBMWwvqWisbmGzka9XDKr7VNDFtRBlGcJCxvvamcLqgBsfSI77tLSjFwfcQkKhf5YmsWjURZS5AYqj8vI3VfqinCRIpiY-rz_feLUV4u0qIDpjsXgDwiyRfSGmFHxlH9MaMeXOIKCJ8ja86Z8J8DbCfAGSfencwFZYmAWYmC0FwDlV3xedSa6mxe81Ihv0CsiYD3iKfk9PQrqf4UBgiTJuJaNSV7ah587T1Lix8RFLrxTXB6OPEKAqSWFqdgCYuPXDv_rkhTomigoYFBXWgkayJU04-1BvdpAmIi-r0sXb_q3WvRl29WtThX26sXYq_hNyhZrdCB-FoBEYVnF_DdXJH8adzjp1sIedoM6uEYqOV-0G00]--></g></svg>