<svg width="288" height="78" viewBox="0 0 288 78" fill="none" xmlns="http://www.w3.org/2000/svg">
<rect width="288" height="78" fill="white"/>
<path d="M125.871 41.6875V34H127.289V43H126.006L125.871 41.6875ZM121.746 39.9004V39.7773C121.746 39.2969 121.802 38.8594 121.916 38.4648C122.029 38.0664 122.193 37.7246 122.408 37.4395C122.623 37.1504 122.885 36.9297 123.193 36.7773C123.502 36.6211 123.849 36.543 124.236 36.543C124.619 36.543 124.955 36.6172 125.244 36.7656C125.533 36.9141 125.779 37.127 125.982 37.4043C126.185 37.6777 126.347 38.0059 126.469 38.3887C126.59 38.7676 126.676 39.1895 126.726 39.6543V40.0469C126.676 40.5 126.59 40.9141 126.469 41.2891C126.347 41.6641 126.185 41.9883 125.982 42.2617C125.779 42.5352 125.531 42.7461 125.238 42.8945C124.949 43.043 124.611 43.1172 124.224 43.1172C123.842 43.1172 123.496 43.0371 123.187 42.877C122.883 42.7168 122.623 42.4922 122.408 42.2031C122.193 41.9141 122.029 41.5742 121.916 41.1836C121.802 40.7891 121.746 40.3613 121.746 39.9004ZM123.158 39.7773V39.9004C123.158 40.1895 123.183 40.459 123.234 40.709C123.289 40.959 123.373 41.1797 123.486 41.3711C123.599 41.5586 123.746 41.707 123.926 41.8164C124.109 41.9219 124.328 41.9746 124.582 41.9746C124.902 41.9746 125.166 41.9043 125.373 41.7637C125.58 41.623 125.742 41.4336 125.859 41.1953C125.98 40.9531 126.062 40.6836 126.105 40.3867V39.3262C126.082 39.0957 126.033 38.8809 125.959 38.6816C125.888 38.4824 125.793 38.3086 125.672 38.1602C125.551 38.0078 125.4 37.8906 125.22 37.8086C125.045 37.7227 124.836 37.6797 124.594 37.6797C124.336 37.6797 124.117 37.7344 123.937 37.8438C123.758 37.9531 123.609 38.1035 123.492 38.2949C123.379 38.4863 123.295 38.709 123.24 38.9629C123.185 39.2168 123.158 39.4883 123.158 39.7773ZM131.92 43.1172C131.452 43.1172 131.028 43.041 130.649 42.8887C130.274 42.7324 129.954 42.5156 129.688 42.2383C129.426 41.9609 129.225 41.6348 129.084 41.2598C128.944 40.8848 128.873 40.4805 128.873 40.0469V39.8125C128.873 39.3164 128.946 38.8672 129.09 38.4648C129.235 38.0625 129.436 37.7188 129.694 37.4336C129.952 37.1445 130.256 36.9238 130.608 36.7715C130.959 36.6191 131.34 36.543 131.75 36.543C132.204 36.543 132.6 36.6191 132.94 36.7715C133.28 36.9238 133.561 37.1387 133.784 37.416C134.01 37.6895 134.178 38.0156 134.287 38.3945C134.401 38.7734 134.457 39.1914 134.457 39.6484V40.252H129.559V39.2383H133.063V39.127C133.055 38.873 133.004 38.6348 132.911 38.4121C132.821 38.1895 132.682 38.0098 132.495 37.873C132.307 37.7363 132.057 37.668 131.745 37.668C131.51 37.668 131.301 37.7188 131.118 37.8203C130.938 37.918 130.787 38.0605 130.666 38.248C130.545 38.4355 130.452 38.6621 130.385 38.9277C130.323 39.1895 130.291 39.4844 130.291 39.8125V40.0469C130.291 40.3242 130.329 40.582 130.403 40.8203C130.481 41.0547 130.594 41.2598 130.743 41.4355C130.891 41.6113 131.071 41.75 131.282 41.8516C131.493 41.9492 131.733 41.998 132.002 41.998C132.342 41.998 132.645 41.9297 132.911 41.793C133.176 41.6562 133.407 41.4629 133.602 41.2129L134.346 41.9336C134.209 42.1328 134.032 42.3242 133.813 42.5078C133.594 42.6875 133.327 42.834 133.01 42.9473C132.698 43.0605 132.334 43.1172 131.92 43.1172ZM137.431 34V43H136.013V34H137.431ZM142.132 43.1172C141.664 43.1172 141.24 43.041 140.861 42.8887C140.486 42.7324 140.166 42.5156 139.9 42.2383C139.638 41.9609 139.437 41.6348 139.297 41.2598C139.156 40.8848 139.086 40.4805 139.086 40.0469V39.8125C139.086 39.3164 139.158 38.8672 139.302 38.4648C139.447 38.0625 139.648 37.7188 139.906 37.4336C140.164 37.1445 140.468 36.9238 140.82 36.7715C141.172 36.6191 141.552 36.543 141.963 36.543C142.416 36.543 142.812 36.6191 143.152 36.7715C143.492 36.9238 143.773 37.1387 143.996 37.416C144.222 37.6895 144.39 38.0156 144.5 38.3945C144.613 38.7734 144.67 39.1914 144.67 39.6484V40.252H139.771V39.2383H143.275V39.127C143.267 38.873 143.216 38.6348 143.123 38.4121C143.033 38.1895 142.894 38.0098 142.707 37.873C142.519 37.7363 142.269 37.668 141.957 37.668C141.722 37.668 141.513 37.7188 141.33 37.8203C141.15 37.918 141 38.0605 140.879 38.248C140.757 38.4355 140.664 38.6621 140.597 38.9277C140.535 39.1895 140.504 39.4844 140.504 39.8125V40.0469C140.504 40.3242 140.541 40.582 140.615 40.8203C140.693 41.0547 140.806 41.2598 140.955 41.4355C141.103 41.6113 141.283 41.75 141.494 41.8516C141.705 41.9492 141.945 41.998 142.215 41.998C142.554 41.998 142.857 41.9297 143.123 41.793C143.388 41.6562 143.619 41.4629 143.814 41.2129L144.558 41.9336C144.422 42.1328 144.244 42.3242 144.025 42.5078C143.806 42.6875 143.539 42.834 143.222 42.9473C142.91 43.0605 142.547 43.1172 142.132 43.1172ZM149.037 36.6602V37.6914H145.463V36.6602H149.037ZM146.494 35.1074H147.907V41.248C147.907 41.4434 147.934 41.5938 147.989 41.6992C148.047 41.8008 148.127 41.8691 148.229 41.9043C148.33 41.9395 148.45 41.957 148.586 41.957C148.684 41.957 148.778 41.9512 148.868 41.9395C148.957 41.9277 149.03 41.916 149.084 41.9043L149.09 42.9824C148.973 43.0176 148.836 43.0488 148.68 43.0762C148.528 43.1035 148.352 43.1172 148.153 43.1172C147.828 43.1172 147.541 43.0605 147.291 42.9473C147.041 42.8301 146.846 42.6406 146.705 42.3789C146.565 42.1172 146.494 41.7695 146.494 41.3359V35.1074ZM153.282 43.1172C152.813 43.1172 152.39 43.041 152.011 42.8887C151.636 42.7324 151.315 42.5156 151.05 42.2383C150.788 41.9609 150.587 41.6348 150.446 41.2598C150.306 40.8848 150.235 40.4805 150.235 40.0469V39.8125C150.235 39.3164 150.308 38.8672 150.452 38.4648C150.597 38.0625 150.798 37.7188 151.056 37.4336C151.313 37.1445 151.618 36.9238 151.97 36.7715C152.321 36.6191 152.702 36.543 153.112 36.543C153.565 36.543 153.962 36.6191 154.302 36.7715C154.642 36.9238 154.923 37.1387 155.145 37.416C155.372 37.6895 155.54 38.0156 155.649 38.3945C155.763 38.7734 155.819 39.1914 155.819 39.6484V40.252H150.921V39.2383H154.425V39.127C154.417 38.873 154.366 38.6348 154.272 38.4121C154.183 38.1895 154.044 38.0098 153.856 37.873C153.669 37.7363 153.419 37.668 153.106 37.668C152.872 37.668 152.663 37.7188 152.479 37.8203C152.3 37.918 152.149 38.0605 152.028 38.248C151.907 38.4355 151.813 38.6621 151.747 38.9277C151.685 39.1895 151.653 39.4844 151.653 39.8125V40.0469C151.653 40.3242 151.69 40.582 151.765 40.8203C151.843 41.0547 151.956 41.2598 152.104 41.4355C152.253 41.6113 152.433 41.75 152.644 41.8516C152.854 41.9492 153.095 41.998 153.364 41.998C153.704 41.998 154.007 41.9297 154.272 41.793C154.538 41.6562 154.769 41.4629 154.964 41.2129L155.708 41.9336C155.571 42.1328 155.394 42.3242 155.175 42.5078C154.956 42.6875 154.688 42.834 154.372 42.9473C154.06 43.0605 153.696 43.1172 153.282 43.1172ZM164.403 34.4395V43H162.99V36.1152L160.899 36.8242V35.6582L164.233 34.4395H164.403Z" fill="black"/>
<path d="M190.28 34.4453H191.457C191.724 34.4453 191.949 34.486 192.133 34.5674C192.319 34.6488 192.46 34.7692 192.556 34.9287C192.653 35.0866 192.702 35.2811 192.702 35.5122C192.702 35.675 192.669 35.8239 192.602 35.959C192.537 36.0924 192.443 36.2064 192.319 36.3008C192.197 36.3936 192.05 36.4627 191.879 36.5083L191.748 36.5596H190.642L190.637 36.1763H191.472C191.641 36.1763 191.782 36.147 191.894 36.0884C192.006 36.0282 192.091 35.9476 192.148 35.8467C192.205 35.7458 192.233 35.6343 192.233 35.5122C192.233 35.3755 192.207 35.2559 192.153 35.1533C192.099 35.0508 192.014 34.9718 191.899 34.9165C191.785 34.8595 191.638 34.8311 191.457 34.8311H190.751V38H190.28V34.4453ZM192.358 38L191.494 36.3887L191.984 36.3862L192.861 37.9707V38H192.358ZM194.389 38.0488C194.205 38.0488 194.038 38.0179 193.889 37.9561C193.741 37.8926 193.613 37.8039 193.505 37.6899C193.4 37.576 193.318 37.4409 193.261 37.2847C193.204 37.1284 193.176 36.9575 193.176 36.772V36.6694C193.176 36.4546 193.208 36.2633 193.271 36.0957C193.334 35.9264 193.421 35.7832 193.53 35.666C193.639 35.5488 193.763 35.4601 193.901 35.3999C194.039 35.3397 194.182 35.3096 194.331 35.3096C194.519 35.3096 194.682 35.3421 194.819 35.4072C194.957 35.4723 195.07 35.5635 195.158 35.6807C195.246 35.7962 195.311 35.9329 195.354 36.0908C195.396 36.2471 195.417 36.418 195.417 36.6035V36.8062H193.444V36.4375H194.965V36.4033C194.959 36.2861 194.934 36.1722 194.892 36.0615C194.851 35.9508 194.786 35.8597 194.697 35.7881C194.607 35.7165 194.485 35.6807 194.331 35.6807C194.228 35.6807 194.134 35.7026 194.047 35.7466C193.961 35.7889 193.887 35.8524 193.825 35.937C193.763 36.0216 193.715 36.125 193.681 36.2471C193.647 36.3691 193.63 36.5099 193.63 36.6694V36.772C193.63 36.8973 193.647 37.0153 193.681 37.126C193.717 37.235 193.768 37.3311 193.835 37.4141C193.903 37.4971 193.986 37.5622 194.082 37.6094C194.179 37.6566 194.29 37.6802 194.414 37.6802C194.573 37.6802 194.708 37.6476 194.819 37.5825C194.93 37.5174 195.026 37.4303 195.109 37.3213L195.383 37.5386C195.326 37.6248 195.253 37.707 195.166 37.7852C195.078 37.8633 194.969 37.9268 194.841 37.9756C194.714 38.0244 194.563 38.0488 194.389 38.0488ZM197.001 37.6777C197.109 37.6777 197.208 37.6558 197.299 37.6118C197.39 37.5679 197.465 37.5076 197.524 37.4312C197.583 37.353 197.616 37.2643 197.624 37.165H198.054C198.046 37.3213 197.993 37.467 197.895 37.6021C197.799 37.7355 197.673 37.8438 197.517 37.9268C197.36 38.0081 197.189 38.0488 197.001 38.0488C196.803 38.0488 196.63 38.0138 196.481 37.9438C196.335 37.8739 196.213 37.7778 196.115 37.6558C196.019 37.5337 195.947 37.3937 195.898 37.2358C195.851 37.0763 195.827 36.9079 195.827 36.7305V36.6279C195.827 36.4505 195.851 36.2829 195.898 36.125C195.947 35.9655 196.019 35.8247 196.115 35.7026C196.213 35.5806 196.335 35.4845 196.481 35.4146C196.63 35.3446 196.803 35.3096 197.001 35.3096C197.208 35.3096 197.389 35.3519 197.543 35.4365C197.698 35.5195 197.819 35.6335 197.907 35.7783C197.997 35.9215 198.046 36.0843 198.054 36.2666H197.624C197.616 36.1576 197.585 36.0591 197.531 35.9712C197.479 35.8833 197.408 35.8133 197.316 35.7612C197.227 35.7075 197.122 35.6807 197.001 35.6807C196.863 35.6807 196.747 35.7083 196.652 35.7637C196.56 35.8174 196.486 35.8906 196.43 35.9834C196.376 36.0745 196.337 36.1763 196.313 36.2886C196.29 36.3993 196.279 36.5124 196.279 36.6279V36.7305C196.279 36.846 196.29 36.96 196.313 37.0723C196.336 37.1846 196.374 37.2863 196.428 37.3774C196.483 37.4686 196.557 37.5418 196.65 37.5972C196.744 37.6509 196.861 37.6777 197.001 37.6777ZM199.052 35.3584V38H198.598V35.3584H199.052ZM198.564 34.6577C198.564 34.5845 198.586 34.5226 198.63 34.4722C198.675 34.4217 198.742 34.3965 198.83 34.3965C198.916 34.3965 198.982 34.4217 199.028 34.4722C199.075 34.5226 199.099 34.5845 199.099 34.6577C199.099 34.7277 199.075 34.7879 199.028 34.8384C198.982 34.8872 198.916 34.9116 198.83 34.9116C198.742 34.9116 198.675 34.8872 198.63 34.8384C198.586 34.7879 198.564 34.7277 198.564 34.6577ZM200.229 35.8662V39.0156H199.775V35.3584H200.19L200.229 35.8662ZM202.009 36.6572V36.7085C202.009 36.9006 201.986 37.0788 201.94 37.2432C201.895 37.4059 201.828 37.5475 201.74 37.668C201.654 37.7884 201.547 37.882 201.42 37.9487C201.293 38.0155 201.148 38.0488 200.983 38.0488C200.816 38.0488 200.668 38.0212 200.539 37.9658C200.41 37.9105 200.301 37.8299 200.212 37.7241C200.122 37.6183 200.051 37.4914 199.997 37.3433C199.945 37.1951 199.909 37.0283 199.89 36.8428V36.5693C199.909 36.374 199.946 36.1991 200 36.0444C200.053 35.8898 200.124 35.758 200.212 35.6489C200.301 35.5382 200.41 35.4544 200.537 35.3975C200.664 35.3389 200.81 35.3096 200.976 35.3096C201.142 35.3096 201.289 35.3421 201.418 35.4072C201.547 35.4707 201.655 35.5618 201.743 35.6807C201.831 35.7995 201.896 35.9419 201.94 36.1079C201.986 36.2723 202.009 36.4554 202.009 36.6572ZM201.555 36.7085V36.6572C201.555 36.5254 201.541 36.4017 201.513 36.2861C201.486 36.1689 201.442 36.0664 201.384 35.9785C201.327 35.889 201.254 35.819 201.164 35.7686C201.075 35.7165 200.968 35.6904 200.844 35.6904C200.73 35.6904 200.631 35.71 200.546 35.749C200.463 35.7881 200.393 35.841 200.334 35.9077C200.275 35.9728 200.227 36.0477 200.19 36.1323C200.154 36.2153 200.127 36.3016 200.109 36.3911V37.0234C200.142 37.1374 200.188 37.2448 200.246 37.3457C200.305 37.445 200.383 37.5256 200.48 37.5874C200.578 37.6476 200.701 37.6777 200.849 37.6777C200.971 37.6777 201.076 37.6525 201.164 37.6021C201.254 37.55 201.327 37.4792 201.384 37.3896C201.442 37.3001 201.486 37.1976 201.513 37.082C201.541 36.9648 201.555 36.8403 201.555 36.7085ZM203.681 38.0488C203.497 38.0488 203.33 38.0179 203.181 37.9561C203.033 37.8926 202.905 37.8039 202.797 37.6899C202.692 37.576 202.61 37.4409 202.553 37.2847C202.496 37.1284 202.468 36.9575 202.468 36.772V36.6694C202.468 36.4546 202.5 36.2633 202.563 36.0957C202.626 35.9264 202.713 35.7832 202.822 35.666C202.931 35.5488 203.055 35.4601 203.193 35.3999C203.331 35.3397 203.474 35.3096 203.623 35.3096C203.811 35.3096 203.974 35.3421 204.111 35.4072C204.249 35.4723 204.362 35.5635 204.45 35.6807C204.538 35.7962 204.603 35.9329 204.646 36.0908C204.688 36.2471 204.709 36.418 204.709 36.6035V36.8062H202.736V36.4375H204.257V36.4033C204.251 36.2861 204.226 36.1722 204.184 36.0615C204.143 35.9508 204.078 35.8597 203.989 35.7881C203.899 35.7165 203.777 35.6807 203.623 35.6807C203.52 35.6807 203.426 35.7026 203.339 35.7466C203.253 35.7889 203.179 35.8524 203.117 35.937C203.055 36.0216 203.007 36.125 202.973 36.2471C202.939 36.3691 202.922 36.5099 202.922 36.6694V36.772C202.922 36.8973 202.939 37.0153 202.973 37.126C203.009 37.235 203.06 37.3311 203.127 37.4141C203.195 37.4971 203.278 37.5622 203.374 37.6094C203.471 37.6566 203.582 37.6802 203.706 37.6802C203.865 37.6802 204 37.6476 204.111 37.5825C204.222 37.5174 204.318 37.4303 204.401 37.3213L204.675 37.5386C204.618 37.6248 204.545 37.707 204.458 37.7852C204.37 37.8633 204.261 37.9268 204.133 37.9756C204.006 38.0244 203.855 38.0488 203.681 38.0488ZM190.266 41.9224V44H189.814V41.3584H190.241L190.266 41.9224ZM190.158 42.5791L189.97 42.5718C189.972 42.3911 189.999 42.2243 190.051 42.0713C190.103 41.9167 190.176 41.7824 190.271 41.6685C190.365 41.5545 190.477 41.4666 190.607 41.4048C190.739 41.3413 190.885 41.3096 191.044 41.3096C191.175 41.3096 191.292 41.3275 191.396 41.3633C191.5 41.3975 191.589 41.4528 191.662 41.5293C191.737 41.6058 191.794 41.7051 191.833 41.8271C191.872 41.9476 191.892 42.0949 191.892 42.269V44H191.438V42.2642C191.438 42.1258 191.417 42.0151 191.376 41.9321C191.336 41.8475 191.276 41.7865 191.198 41.749C191.12 41.71 191.024 41.6904 190.91 41.6904C190.798 41.6904 190.695 41.714 190.603 41.7612C190.511 41.8084 190.432 41.8735 190.366 41.9565C190.301 42.0396 190.249 42.1348 190.212 42.2422C190.176 42.348 190.158 42.4603 190.158 42.5791ZM194.194 43.3896V41.3584H194.648V44H194.216L194.194 43.3896ZM194.279 42.833L194.467 42.8281C194.467 43.0039 194.449 43.1667 194.411 43.3164C194.375 43.4645 194.317 43.5931 194.235 43.7021C194.154 43.8112 194.047 43.8966 193.916 43.9585C193.784 44.0187 193.623 44.0488 193.435 44.0488C193.306 44.0488 193.188 44.0301 193.081 43.9927C192.975 43.9552 192.884 43.8975 192.807 43.8193C192.731 43.7412 192.671 43.6395 192.629 43.5142C192.588 43.3888 192.568 43.2383 192.568 43.0625V41.3584H193.02V43.0674C193.02 43.1862 193.033 43.2847 193.059 43.3628C193.086 43.4393 193.123 43.5003 193.168 43.5459C193.216 43.5898 193.268 43.6208 193.325 43.6387C193.383 43.6566 193.444 43.6655 193.505 43.6655C193.697 43.6655 193.85 43.6289 193.962 43.5557C194.074 43.4808 194.155 43.3807 194.204 43.2554C194.254 43.1284 194.279 42.9876 194.279 42.833ZM195.786 41.8833V44H195.332V41.3584H195.761L195.786 41.8833ZM195.693 42.5791L195.483 42.5718C195.485 42.3911 195.508 42.2243 195.554 42.0713C195.599 41.9167 195.667 41.7824 195.756 41.6685C195.846 41.5545 195.957 41.4666 196.091 41.4048C196.224 41.3413 196.379 41.3096 196.555 41.3096C196.678 41.3096 196.792 41.3275 196.896 41.3633C197.001 41.3975 197.091 41.452 197.167 41.5269C197.244 41.6017 197.303 41.6978 197.346 41.8149C197.388 41.9321 197.409 42.0737 197.409 42.2397V44H196.958V42.2617C196.958 42.1234 196.934 42.0127 196.887 41.9297C196.841 41.8467 196.776 41.7865 196.691 41.749C196.607 41.71 196.507 41.6904 196.394 41.6904C196.26 41.6904 196.149 41.714 196.059 41.7612C195.97 41.8084 195.898 41.8735 195.844 41.9565C195.791 42.0396 195.751 42.1348 195.727 42.2422C195.704 42.348 195.693 42.4603 195.693 42.5791ZM197.404 42.3301L197.102 42.4229C197.103 42.278 197.127 42.1388 197.172 42.0054C197.22 41.8719 197.287 41.7531 197.375 41.6489C197.465 41.5448 197.574 41.4626 197.705 41.4023C197.835 41.3405 197.984 41.3096 198.151 41.3096C198.293 41.3096 198.418 41.3283 198.527 41.3657C198.638 41.4032 198.731 41.4609 198.806 41.5391C198.882 41.6156 198.94 41.714 198.979 41.8345C199.018 41.9549 199.038 42.0981 199.038 42.2642V44H198.583V42.2593C198.583 42.1112 198.56 41.9964 198.513 41.915C198.467 41.832 198.402 41.7743 198.317 41.7417C198.234 41.7075 198.135 41.6904 198.02 41.6904C197.92 41.6904 197.832 41.7075 197.756 41.7417C197.679 41.7759 197.615 41.8231 197.563 41.8833C197.511 41.9419 197.471 42.0094 197.443 42.0859C197.417 42.1624 197.404 42.2438 197.404 42.3301ZM199.719 40.25H200.173V43.4873L200.134 44H199.719V40.25ZM201.958 42.6572V42.7085C201.958 42.9006 201.935 43.0788 201.889 43.2432C201.844 43.4059 201.777 43.5475 201.689 43.668C201.601 43.7884 201.494 43.882 201.367 43.9487C201.24 44.0155 201.094 44.0488 200.93 44.0488C200.762 44.0488 200.615 44.0203 200.488 43.9634C200.362 43.9048 200.257 43.821 200.17 43.7119C200.084 43.6029 200.015 43.471 199.963 43.3164C199.912 43.1618 199.877 42.9876 199.858 42.7939V42.5693C199.877 42.374 199.912 42.1991 199.963 42.0444C200.015 41.8898 200.084 41.758 200.17 41.6489C200.257 41.5382 200.362 41.4544 200.488 41.3975C200.613 41.3389 200.759 41.3096 200.925 41.3096C201.091 41.3096 201.238 41.3421 201.367 41.4072C201.495 41.4707 201.603 41.5618 201.689 41.6807C201.777 41.7995 201.844 41.9419 201.889 42.1079C201.935 42.2723 201.958 42.4554 201.958 42.6572ZM201.503 42.7085V42.6572C201.503 42.5254 201.491 42.4017 201.467 42.2861C201.442 42.1689 201.403 42.0664 201.35 41.9785C201.296 41.889 201.225 41.819 201.137 41.7686C201.049 41.7165 200.941 41.6904 200.812 41.6904C200.699 41.6904 200.599 41.71 200.515 41.749C200.432 41.7881 200.361 41.841 200.302 41.9077C200.244 41.9728 200.196 42.0477 200.158 42.1323C200.122 42.2153 200.096 42.3016 200.078 42.3911V42.9795C200.104 43.0934 200.146 43.2033 200.205 43.3091C200.265 43.4132 200.345 43.4987 200.444 43.5654C200.545 43.6322 200.669 43.6655 200.817 43.6655C200.939 43.6655 201.044 43.6411 201.13 43.5923C201.218 43.5418 201.289 43.4727 201.342 43.3848C201.398 43.2969 201.438 43.1951 201.464 43.0796C201.49 42.964 201.503 42.8403 201.503 42.7085ZM203.625 44.0488C203.441 44.0488 203.274 44.0179 203.125 43.9561C202.976 43.8926 202.849 43.8039 202.741 43.6899C202.635 43.576 202.554 43.4409 202.497 43.2847C202.44 43.1284 202.412 42.9575 202.412 42.772V42.6694C202.412 42.4546 202.443 42.2633 202.507 42.0957C202.57 41.9264 202.657 41.7832 202.766 41.666C202.875 41.5488 202.998 41.4601 203.137 41.3999C203.275 41.3397 203.418 41.3096 203.566 41.3096C203.755 41.3096 203.918 41.3421 204.055 41.4072C204.193 41.4723 204.306 41.5635 204.394 41.6807C204.482 41.7962 204.547 41.9329 204.589 42.0908C204.632 42.2471 204.653 42.418 204.653 42.6035V42.8062H202.68V42.4375H204.201V42.4033C204.195 42.2861 204.17 42.1722 204.128 42.0615C204.087 41.9508 204.022 41.8597 203.933 41.7881C203.843 41.7165 203.721 41.6807 203.566 41.6807C203.464 41.6807 203.369 41.7026 203.283 41.7466C203.197 41.7889 203.123 41.8524 203.061 41.937C202.999 42.0216 202.951 42.125 202.917 42.2471C202.883 42.3691 202.866 42.5099 202.866 42.6694V42.772C202.866 42.8973 202.883 43.0153 202.917 43.126C202.953 43.235 203.004 43.3311 203.071 43.4141C203.139 43.4971 203.221 43.5622 203.317 43.6094C203.415 43.6566 203.526 43.6802 203.649 43.6802C203.809 43.6802 203.944 43.6476 204.055 43.5825C204.165 43.5174 204.262 43.4303 204.345 43.3213L204.619 43.5386C204.562 43.6248 204.489 43.707 204.401 43.7852C204.313 43.8633 204.205 43.9268 204.077 43.9756C203.95 44.0244 203.799 44.0488 203.625 44.0488ZM205.632 41.7734V44H205.18V41.3584H205.62L205.632 41.7734ZM206.457 41.3438L206.455 41.7637C206.417 41.7555 206.381 41.7507 206.347 41.749C206.315 41.7458 206.277 41.7441 206.235 41.7441C206.131 41.7441 206.039 41.7604 205.959 41.793C205.879 41.8255 205.812 41.8711 205.756 41.9297C205.701 41.9883 205.657 42.0583 205.625 42.1396C205.594 42.2194 205.573 42.3073 205.563 42.4033L205.437 42.4766C205.437 42.3171 205.452 42.1673 205.483 42.0273C205.515 41.8874 205.565 41.7637 205.632 41.6562C205.699 41.5472 205.783 41.4626 205.886 41.4023C205.99 41.3405 206.114 41.3096 206.257 41.3096C206.289 41.3096 206.327 41.3136 206.369 41.3218C206.411 41.3283 206.441 41.3356 206.457 41.3438Z" fill="black"/>
<rect x="158.25" y="32.25" width="8.5" height="14.5" stroke="#C0433A" stroke-width="0.5"/>
<rect x="158.25" y="32.25" width="8.5" height="14.5" stroke="#4298BD" stroke-width="0.5"/>
<rect x="158.25" y="32.25" width="8.5" height="14.5" stroke="#817033" stroke-width="0.5"/>
<path d="M76.9668 39.8696H77.4355C77.4111 40.0942 77.3468 40.2952 77.2427 40.4727C77.1385 40.6501 76.9912 40.7909 76.8008 40.895C76.6104 40.9976 76.3727 41.0488 76.0879 41.0488C75.8796 41.0488 75.6899 41.0098 75.519 40.9316C75.3498 40.8535 75.2041 40.7428 75.082 40.5996C74.96 40.4548 74.8656 40.2814 74.7988 40.0796C74.7337 39.8761 74.7012 39.6499 74.7012 39.4009V39.0469C74.7012 38.7979 74.7337 38.5724 74.7988 38.3706C74.8656 38.1672 74.9608 37.993 75.0845 37.8481C75.2098 37.7033 75.3604 37.5918 75.5361 37.5137C75.7119 37.4355 75.9097 37.3965 76.1294 37.3965C76.3979 37.3965 76.625 37.4469 76.8105 37.5479C76.9961 37.6488 77.1401 37.7887 77.2427 37.9678C77.3468 38.1452 77.4111 38.3511 77.4355 38.5854H76.9668C76.944 38.4194 76.9017 38.277 76.8398 38.1582C76.778 38.0378 76.6901 37.945 76.5762 37.8799C76.4622 37.8148 76.3133 37.7822 76.1294 37.7822C75.9715 37.7822 75.8324 37.8123 75.7119 37.8726C75.5931 37.9328 75.493 38.0182 75.4116 38.1289C75.3319 38.2396 75.2716 38.3722 75.231 38.5269C75.1903 38.6815 75.1699 38.8532 75.1699 39.042V39.4009C75.1699 39.575 75.1878 39.7386 75.2236 39.8916C75.2611 40.0446 75.3172 40.1789 75.3921 40.2944C75.467 40.41 75.5622 40.5011 75.6777 40.5679C75.7933 40.633 75.93 40.6655 76.0879 40.6655C76.2881 40.6655 76.4476 40.6338 76.5664 40.5703C76.6852 40.5068 76.7747 40.4157 76.835 40.2969C76.8968 40.1781 76.9408 40.0356 76.9668 39.8696ZM77.8896 39.7085V39.6523C77.8896 39.4619 77.9173 39.2853 77.9727 39.1226C78.028 38.9582 78.1077 38.8158 78.2119 38.6953C78.3161 38.5732 78.4422 38.4788 78.5903 38.4121C78.7384 38.3438 78.9045 38.3096 79.0884 38.3096C79.2739 38.3096 79.4408 38.3438 79.5889 38.4121C79.7386 38.4788 79.8656 38.5732 79.9697 38.6953C80.0755 38.8158 80.1561 38.9582 80.2114 39.1226C80.2668 39.2853 80.2944 39.4619 80.2944 39.6523V39.7085C80.2944 39.8989 80.2668 40.0755 80.2114 40.2383C80.1561 40.401 80.0755 40.5435 79.9697 40.6655C79.8656 40.786 79.7394 40.8804 79.5913 40.9487C79.4448 41.0155 79.2788 41.0488 79.0933 41.0488C78.9077 41.0488 78.7409 41.0155 78.5928 40.9487C78.4447 40.8804 78.3177 40.786 78.2119 40.6655C78.1077 40.5435 78.028 40.401 77.9727 40.2383C77.9173 40.0755 77.8896 39.8989 77.8896 39.7085ZM78.3413 39.6523V39.7085C78.3413 39.8403 78.3568 39.9648 78.3877 40.082C78.4186 40.1976 78.465 40.3001 78.5269 40.3896C78.5903 40.4792 78.6693 40.55 78.7637 40.6021C78.8581 40.6525 78.9679 40.6777 79.0933 40.6777C79.217 40.6777 79.3252 40.6525 79.418 40.6021C79.5124 40.55 79.5905 40.4792 79.6523 40.3896C79.7142 40.3001 79.7606 40.1976 79.7915 40.082C79.8241 39.9648 79.8403 39.8403 79.8403 39.7085V39.6523C79.8403 39.5221 79.8241 39.3993 79.7915 39.2837C79.7606 39.1665 79.7134 39.0632 79.6499 38.9736C79.5881 38.8825 79.5099 38.8109 79.4155 38.7588C79.3228 38.7067 79.2137 38.6807 79.0884 38.6807C78.9647 38.6807 78.8556 38.7067 78.7612 38.7588C78.6685 38.8109 78.5903 38.8825 78.5269 38.9736C78.465 39.0632 78.4186 39.1665 78.3877 39.2837C78.3568 39.3993 78.3413 39.5221 78.3413 39.6523ZM81.3101 38.8833V41H80.856V38.3584H81.2856L81.3101 38.8833ZM81.2173 39.5791L81.0073 39.5718C81.009 39.3911 81.0326 39.2243 81.0781 39.0713C81.1237 38.9167 81.1912 38.7824 81.2808 38.6685C81.3703 38.5545 81.4818 38.4666 81.6152 38.4048C81.7487 38.3413 81.9033 38.3096 82.0791 38.3096C82.2028 38.3096 82.3167 38.3275 82.4209 38.3633C82.5251 38.3975 82.6154 38.452 82.6919 38.5269C82.7684 38.6017 82.8278 38.6978 82.8701 38.8149C82.9124 38.9321 82.9336 39.0737 82.9336 39.2397V41H82.4819V39.2617C82.4819 39.1234 82.4583 39.0127 82.4111 38.9297C82.3656 38.8467 82.3005 38.7865 82.2158 38.749C82.1312 38.71 82.0319 38.6904 81.918 38.6904C81.7845 38.6904 81.673 38.714 81.5835 38.7612C81.494 38.8084 81.4224 38.8735 81.3687 38.9565C81.3149 39.0396 81.2759 39.1348 81.2515 39.2422C81.2287 39.348 81.2173 39.4603 81.2173 39.5791ZM82.9287 39.3301L82.626 39.4229C82.6276 39.278 82.6512 39.1388 82.6968 39.0054C82.744 38.8719 82.8115 38.7531 82.8994 38.6489C82.9889 38.5448 83.0988 38.4626 83.229 38.4023C83.3592 38.3405 83.5081 38.3096 83.6758 38.3096C83.8174 38.3096 83.9427 38.3283 84.0518 38.3657C84.1624 38.4032 84.2552 38.4609 84.3301 38.5391C84.4066 38.6156 84.4644 38.714 84.5034 38.8345C84.5425 38.9549 84.562 39.0981 84.562 39.2642V41H84.1079V39.2593C84.1079 39.1112 84.0843 38.9964 84.0371 38.915C83.9915 38.832 83.9264 38.7743 83.8418 38.7417C83.7588 38.7075 83.6595 38.6904 83.5439 38.6904C83.4447 38.6904 83.3568 38.7075 83.2803 38.7417C83.2038 38.7759 83.1395 38.8231 83.0874 38.8833C83.0353 38.9419 82.9954 39.0094 82.9678 39.0859C82.9417 39.1624 82.9287 39.2438 82.9287 39.3301ZM85.6948 38.8833V41H85.2407V38.3584H85.6704L85.6948 38.8833ZM85.6021 39.5791L85.3921 39.5718C85.3937 39.3911 85.4173 39.2243 85.4629 39.0713C85.5085 38.9167 85.576 38.7824 85.6655 38.6685C85.755 38.5545 85.8665 38.4666 86 38.4048C86.1335 38.3413 86.2881 38.3096 86.4639 38.3096C86.5876 38.3096 86.7015 38.3275 86.8057 38.3633C86.9098 38.3975 87.0002 38.452 87.0767 38.5269C87.1532 38.6017 87.2126 38.6978 87.2549 38.8149C87.2972 38.9321 87.3184 39.0737 87.3184 39.2397V41H86.8667V39.2617C86.8667 39.1234 86.8431 39.0127 86.7959 38.9297C86.7503 38.8467 86.6852 38.7865 86.6006 38.749C86.516 38.71 86.4167 38.6904 86.3027 38.6904C86.1693 38.6904 86.0578 38.714 85.9683 38.7612C85.8787 38.8084 85.8071 38.8735 85.7534 38.9565C85.6997 39.0396 85.6606 39.1348 85.6362 39.2422C85.6134 39.348 85.6021 39.4603 85.6021 39.5791ZM87.3135 39.3301L87.0107 39.4229C87.0124 39.278 87.036 39.1388 87.0815 39.0054C87.1287 38.8719 87.1963 38.7531 87.2842 38.6489C87.3737 38.5448 87.4836 38.4626 87.6138 38.4023C87.744 38.3405 87.8929 38.3096 88.0605 38.3096C88.2021 38.3096 88.3275 38.3283 88.4365 38.3657C88.5472 38.4032 88.64 38.4609 88.7148 38.5391C88.7913 38.6156 88.8491 38.714 88.8882 38.8345C88.9272 38.9549 88.9468 39.0981 88.9468 39.2642V41H88.4927V39.2593C88.4927 39.1112 88.4691 38.9964 88.4219 38.915C88.3763 38.832 88.3112 38.7743 88.2266 38.7417C88.1436 38.7075 88.0443 38.6904 87.9287 38.6904C87.8294 38.6904 87.7415 38.7075 87.665 38.7417C87.5885 38.7759 87.5243 38.8231 87.4722 38.8833C87.4201 38.9419 87.3802 39.0094 87.3525 39.0859C87.3265 39.1624 87.3135 39.2438 87.3135 39.3301ZM91.188 40.5483V39.1885C91.188 39.0843 91.1668 38.994 91.1245 38.9175C91.0838 38.8394 91.022 38.7791 90.939 38.7368C90.856 38.6945 90.7534 38.6733 90.6313 38.6733C90.5174 38.6733 90.4173 38.6929 90.3311 38.7319C90.2464 38.771 90.1797 38.8223 90.1309 38.8857C90.0837 38.9492 90.0601 39.0176 90.0601 39.0908H89.6084C89.6084 38.9964 89.6328 38.9028 89.6816 38.8101C89.7305 38.7173 89.8005 38.6335 89.8916 38.5586C89.9844 38.4821 90.0951 38.4219 90.2236 38.3779C90.3538 38.3324 90.4987 38.3096 90.6582 38.3096C90.8503 38.3096 91.0195 38.3421 91.166 38.4072C91.3141 38.4723 91.4297 38.5708 91.5127 38.7026C91.5973 38.8328 91.6396 38.9964 91.6396 39.1934V40.4238C91.6396 40.5117 91.647 40.6053 91.6616 40.7046C91.6779 40.8039 91.7015 40.8893 91.7324 40.9609V41H91.2612C91.2384 40.9479 91.2205 40.8787 91.2075 40.7925C91.1945 40.7046 91.188 40.6232 91.188 40.5483ZM91.2661 39.3984L91.271 39.7158H90.8145C90.6859 39.7158 90.5711 39.7264 90.4702 39.7476C90.3693 39.7671 90.2847 39.7972 90.2163 39.8379C90.1479 39.8786 90.0959 39.9299 90.0601 39.9917C90.0243 40.0519 90.0063 40.1227 90.0063 40.2041C90.0063 40.2871 90.0251 40.3628 90.0625 40.4312C90.0999 40.4995 90.1561 40.554 90.231 40.5947C90.3075 40.6338 90.401 40.6533 90.5117 40.6533C90.6501 40.6533 90.7721 40.624 90.8779 40.5654C90.9837 40.5068 91.0675 40.4352 91.1294 40.3506C91.1929 40.266 91.2271 40.1838 91.2319 40.104L91.4248 40.3213C91.4134 40.3896 91.3825 40.4653 91.332 40.5483C91.2816 40.6313 91.214 40.7111 91.1294 40.7876C91.0464 40.8625 90.9471 40.9251 90.8315 40.9756C90.7176 41.0244 90.589 41.0488 90.4458 41.0488C90.2668 41.0488 90.1097 41.0138 89.9746 40.9438C89.8411 40.8739 89.737 40.7803 89.6621 40.6631C89.5889 40.5443 89.5522 40.4116 89.5522 40.2651C89.5522 40.1235 89.5799 39.999 89.6353 39.8916C89.6906 39.7826 89.7703 39.6922 89.8745 39.6206C89.9787 39.5474 90.104 39.492 90.2505 39.4546C90.397 39.4172 90.5605 39.3984 90.7412 39.3984H91.2661ZM92.8018 38.9224V41H92.3501V38.3584H92.7773L92.8018 38.9224ZM92.6943 39.5791L92.5063 39.5718C92.508 39.3911 92.5348 39.2243 92.5869 39.0713C92.639 38.9167 92.7122 38.7824 92.8066 38.6685C92.901 38.5545 93.0133 38.4666 93.1436 38.4048C93.2754 38.3413 93.4211 38.3096 93.5806 38.3096C93.7108 38.3096 93.828 38.3275 93.9321 38.3633C94.0363 38.3975 94.125 38.4528 94.1982 38.5293C94.2731 38.6058 94.3301 38.7051 94.3691 38.8271C94.4082 38.9476 94.4277 39.0949 94.4277 39.269V41H93.9736V39.2642C93.9736 39.1258 93.9533 39.0151 93.9126 38.9321C93.8719 38.8475 93.8125 38.7865 93.7344 38.749C93.6562 38.71 93.5602 38.6904 93.4463 38.6904C93.334 38.6904 93.2314 38.714 93.1387 38.7612C93.0475 38.8084 92.9686 38.8735 92.9019 38.9565C92.8368 39.0396 92.7855 39.1348 92.748 39.2422C92.7122 39.348 92.6943 39.4603 92.6943 39.5791ZM96.7788 40.4873V37.25H97.2329V41H96.8179L96.7788 40.4873ZM95.0015 39.7085V39.6572C95.0015 39.4554 95.0259 39.2723 95.0747 39.1079C95.1252 38.9419 95.196 38.7995 95.2871 38.6807C95.3799 38.5618 95.4897 38.4707 95.6167 38.4072C95.7453 38.3421 95.8885 38.3096 96.0464 38.3096C96.2124 38.3096 96.3573 38.3389 96.481 38.3975C96.6063 38.4544 96.7121 38.5382 96.7983 38.6489C96.8862 38.758 96.9554 38.8898 97.0059 39.0444C97.0563 39.1991 97.0913 39.374 97.1108 39.5693V39.7939C97.0929 39.9876 97.0579 40.1618 97.0059 40.3164C96.9554 40.471 96.8862 40.6029 96.7983 40.7119C96.7121 40.821 96.6063 40.9048 96.481 40.9634C96.3556 41.0203 96.2091 41.0488 96.0415 41.0488C95.8869 41.0488 95.7453 41.0155 95.6167 40.9487C95.4897 40.882 95.3799 40.7884 95.2871 40.668C95.196 40.5475 95.1252 40.4059 95.0747 40.2432C95.0259 40.0788 95.0015 39.9006 95.0015 39.7085ZM95.4556 39.6572V39.7085C95.4556 39.8403 95.4686 39.964 95.4946 40.0796C95.5223 40.1951 95.5646 40.2969 95.6216 40.3848C95.6785 40.4727 95.751 40.5418 95.8389 40.5923C95.9268 40.6411 96.0317 40.6655 96.1538 40.6655C96.3035 40.6655 96.4264 40.6338 96.5225 40.5703C96.6201 40.5068 96.6982 40.423 96.7568 40.3188C96.8154 40.2147 96.861 40.1016 96.8936 39.9795V39.3911C96.874 39.3016 96.8455 39.2153 96.8081 39.1323C96.7723 39.0477 96.7251 38.9728 96.6665 38.9077C96.6095 38.841 96.5387 38.7881 96.4541 38.749C96.3711 38.71 96.2726 38.6904 96.1587 38.6904C96.035 38.6904 95.9284 38.7165 95.8389 38.7686C95.751 38.819 95.6785 38.889 95.6216 38.9785C95.5646 39.0664 95.5223 39.1689 95.4946 39.2861C95.4686 39.4017 95.4556 39.5254 95.4556 39.6572Z" fill="black"/>
<rect x="121.25" y="32.25" width="34.5" height="14.5" stroke="#C0433A" stroke-width="0.5"/>
<rect x="121.25" y="32.25" width="34.5" height="14.5" stroke="#4298BD" stroke-width="0.5"/>
<rect x="121.25" y="32.25" width="34.5" height="14.5" stroke="#D9BE56" stroke-width="0.5"/>
<path d="M101.364 40L103.864 41.4434V38.5566L101.364 40ZM121.364 39.75H103.614V40.25H121.364V39.75Z" fill="#D9BE56"/>
<path d="M187 40L184.5 38.5566V41.4434L187 40ZM167 40.25H184.75V39.75H167V40.25Z" fill="#817033"/>
</svg>
