<svg width="289" height="58" viewBox="0 0 289 58" fill="none" xmlns="http://www.w3.org/2000/svg">
<rect width="289" height="58" fill="white"/>
<path d="M126.871 31.6875V24H128.289V33H127.006L126.871 31.6875ZM122.746 29.9004V29.7773C122.746 29.2969 122.802 28.8594 122.916 28.4648C123.029 28.0664 123.193 27.7246 123.408 27.4395C123.623 27.1504 123.885 26.9297 124.193 26.7773C124.502 26.6211 124.849 26.543 125.236 26.543C125.619 26.543 125.955 26.6172 126.244 26.7656C126.533 26.9141 126.779 27.127 126.982 27.4043C127.185 27.6777 127.347 28.0059 127.469 28.3887C127.59 28.7676 127.676 29.1895 127.726 29.6543V30.0469C127.676 30.5 127.59 30.9141 127.469 31.2891C127.347 31.6641 127.185 31.9883 126.982 32.2617C126.779 32.5352 126.531 32.7461 126.238 32.8945C125.949 33.043 125.611 33.1172 125.224 33.1172C124.842 33.1172 124.496 33.0371 124.187 32.877C123.883 32.7168 123.623 32.4922 123.408 32.2031C123.193 31.9141 123.029 31.5742 122.916 31.1836C122.802 30.7891 122.746 30.3613 122.746 29.9004ZM124.158 29.7773V29.9004C124.158 30.1895 124.183 30.459 124.234 30.709C124.289 30.959 124.373 31.1797 124.486 31.3711C124.599 31.5586 124.746 31.707 124.926 31.8164C125.109 31.9219 125.328 31.9746 125.582 31.9746C125.902 31.9746 126.166 31.9043 126.373 31.7637C126.58 31.623 126.742 31.4336 126.859 31.1953C126.98 30.9531 127.062 30.6836 127.105 30.3867V29.3262C127.082 29.0957 127.033 28.8809 126.959 28.6816C126.888 28.4824 126.793 28.3086 126.672 28.1602C126.551 28.0078 126.4 27.8906 126.22 27.8086C126.045 27.7227 125.836 27.6797 125.594 27.6797C125.336 27.6797 125.117 27.7344 124.937 27.8438C124.758 27.9531 124.609 28.1035 124.492 28.2949C124.379 28.4863 124.295 28.709 124.24 28.9629C124.185 29.2168 124.158 29.4883 124.158 29.7773ZM132.92 33.1172C132.452 33.1172 132.028 33.041 131.649 32.8887C131.274 32.7324 130.954 32.5156 130.688 32.2383C130.426 31.9609 130.225 31.6348 130.084 31.2598C129.944 30.8848 129.873 30.4805 129.873 30.0469V29.8125C129.873 29.3164 129.946 28.8672 130.09 28.4648C130.235 28.0625 130.436 27.7188 130.694 27.4336C130.952 27.1445 131.256 26.9238 131.608 26.7715C131.959 26.6191 132.34 26.543 132.75 26.543C133.204 26.543 133.6 26.6191 133.94 26.7715C134.28 26.9238 134.561 27.1387 134.784 27.416C135.01 27.6895 135.178 28.0156 135.287 28.3945C135.401 28.7734 135.457 29.1914 135.457 29.6484V30.252H130.559V29.2383H134.063V29.127C134.055 28.873 134.004 28.6348 133.911 28.4121C133.821 28.1895 133.682 28.0098 133.495 27.873C133.307 27.7363 133.057 27.668 132.745 27.668C132.51 27.668 132.301 27.7188 132.118 27.8203C131.938 27.918 131.787 28.0605 131.666 28.248C131.545 28.4355 131.452 28.6621 131.385 28.9277C131.323 29.1895 131.291 29.4844 131.291 29.8125V30.0469C131.291 30.3242 131.329 30.582 131.403 30.8203C131.481 31.0547 131.594 31.2598 131.743 31.4355C131.891 31.6113 132.071 31.75 132.282 31.8516C132.493 31.9492 132.733 31.998 133.002 31.998C133.342 31.998 133.645 31.9297 133.911 31.793C134.176 31.6562 134.407 31.4629 134.602 31.2129L135.346 31.9336C135.209 32.1328 135.032 32.3242 134.813 32.5078C134.594 32.6875 134.327 32.834 134.01 32.9473C133.698 33.0605 133.334 33.1172 132.92 33.1172ZM138.431 24V33H137.013V24H138.431ZM143.132 33.1172C142.664 33.1172 142.24 33.041 141.861 32.8887C141.486 32.7324 141.166 32.5156 140.9 32.2383C140.638 31.9609 140.437 31.6348 140.297 31.2598C140.156 30.8848 140.086 30.4805 140.086 30.0469V29.8125C140.086 29.3164 140.158 28.8672 140.302 28.4648C140.447 28.0625 140.648 27.7188 140.906 27.4336C141.164 27.1445 141.468 26.9238 141.82 26.7715C142.172 26.6191 142.552 26.543 142.963 26.543C143.416 26.543 143.812 26.6191 144.152 26.7715C144.492 26.9238 144.773 27.1387 144.996 27.416C145.222 27.6895 145.39 28.0156 145.5 28.3945C145.613 28.7734 145.67 29.1914 145.67 29.6484V30.252H140.771V29.2383H144.275V29.127C144.267 28.873 144.216 28.6348 144.123 28.4121C144.033 28.1895 143.894 28.0098 143.707 27.873C143.519 27.7363 143.269 27.668 142.957 27.668C142.722 27.668 142.513 27.7188 142.33 27.8203C142.15 27.918 142 28.0605 141.879 28.248C141.757 28.4355 141.664 28.6621 141.597 28.9277C141.535 29.1895 141.504 29.4844 141.504 29.8125V30.0469C141.504 30.3242 141.541 30.582 141.615 30.8203C141.693 31.0547 141.806 31.2598 141.955 31.4355C142.103 31.6113 142.283 31.75 142.494 31.8516C142.705 31.9492 142.945 31.998 143.215 31.998C143.554 31.998 143.857 31.9297 144.123 31.793C144.388 31.6562 144.619 31.4629 144.814 31.2129L145.558 31.9336C145.422 32.1328 145.244 32.3242 145.025 32.5078C144.806 32.6875 144.539 32.834 144.222 32.9473C143.91 33.0605 143.547 33.1172 143.132 33.1172ZM150.037 26.6602V27.6914H146.463V26.6602H150.037ZM147.494 25.1074H148.907V31.248C148.907 31.4434 148.934 31.5938 148.989 31.6992C149.047 31.8008 149.127 31.8691 149.229 31.9043C149.33 31.9395 149.45 31.957 149.586 31.957C149.684 31.957 149.778 31.9512 149.868 31.9395C149.957 31.9277 150.03 31.916 150.084 31.9043L150.09 32.9824C149.973 33.0176 149.836 33.0488 149.68 33.0762C149.528 33.1035 149.352 33.1172 149.153 33.1172C148.828 33.1172 148.541 33.0605 148.291 32.9473C148.041 32.8301 147.846 32.6406 147.705 32.3789C147.565 32.1172 147.494 31.7695 147.494 31.3359V25.1074ZM154.282 33.1172C153.813 33.1172 153.39 33.041 153.011 32.8887C152.636 32.7324 152.315 32.5156 152.05 32.2383C151.788 31.9609 151.587 31.6348 151.446 31.2598C151.306 30.8848 151.235 30.4805 151.235 30.0469V29.8125C151.235 29.3164 151.308 28.8672 151.452 28.4648C151.597 28.0625 151.798 27.7188 152.056 27.4336C152.313 27.1445 152.618 26.9238 152.97 26.7715C153.321 26.6191 153.702 26.543 154.112 26.543C154.565 26.543 154.962 26.6191 155.302 26.7715C155.642 26.9238 155.923 27.1387 156.145 27.416C156.372 27.6895 156.54 28.0156 156.649 28.3945C156.763 28.7734 156.819 29.1914 156.819 29.6484V30.252H151.921V29.2383H155.425V29.127C155.417 28.873 155.366 28.6348 155.272 28.4121C155.183 28.1895 155.044 28.0098 154.856 27.873C154.669 27.7363 154.419 27.668 154.106 27.668C153.872 27.668 153.663 27.7188 153.479 27.8203C153.3 27.918 153.149 28.0605 153.028 28.248C152.907 28.4355 152.813 28.6621 152.747 28.9277C152.685 29.1895 152.653 29.4844 152.653 29.8125V30.0469C152.653 30.3242 152.69 30.582 152.765 30.8203C152.843 31.0547 152.956 31.2598 153.104 31.4355C153.253 31.6113 153.433 31.75 153.644 31.8516C153.854 31.9492 154.095 31.998 154.364 31.998C154.704 31.998 155.007 31.9297 155.272 31.793C155.538 31.6562 155.769 31.4629 155.964 31.2129L156.708 31.9336C156.571 32.1328 156.394 32.3242 156.175 32.5078C155.956 32.6875 155.688 32.834 155.372 32.9473C155.06 33.0605 154.696 33.1172 154.282 33.1172ZM165.403 24.4395V33H163.99V26.1152L161.899 26.8242V25.6582L165.233 24.4395H165.403Z" fill="black"/>
<path d="M191.28 24.4453H192.457C192.724 24.4453 192.949 24.486 193.133 24.5674C193.319 24.6488 193.46 24.7692 193.556 24.9287C193.653 25.0866 193.702 25.2811 193.702 25.5122C193.702 25.675 193.669 25.8239 193.602 25.959C193.537 26.0924 193.443 26.2064 193.319 26.3008C193.197 26.3936 193.05 26.4627 192.879 26.5083L192.748 26.5596H191.642L191.637 26.1763H192.472C192.641 26.1763 192.782 26.147 192.894 26.0884C193.006 26.0282 193.091 25.9476 193.148 25.8467C193.205 25.7458 193.233 25.6343 193.233 25.5122C193.233 25.3755 193.207 25.2559 193.153 25.1533C193.099 25.0508 193.014 24.9718 192.899 24.9165C192.785 24.8595 192.638 24.8311 192.457 24.8311H191.751V28H191.28V24.4453ZM193.358 28L192.494 26.3887L192.984 26.3862L193.861 27.9707V28H193.358ZM195.389 28.0488C195.205 28.0488 195.038 28.0179 194.889 27.9561C194.741 27.8926 194.613 27.8039 194.505 27.6899C194.4 27.576 194.318 27.4409 194.261 27.2847C194.204 27.1284 194.176 26.9575 194.176 26.772V26.6694C194.176 26.4546 194.208 26.2633 194.271 26.0957C194.334 25.9264 194.421 25.7832 194.53 25.666C194.639 25.5488 194.763 25.4601 194.901 25.3999C195.039 25.3397 195.182 25.3096 195.331 25.3096C195.519 25.3096 195.682 25.3421 195.819 25.4072C195.957 25.4723 196.07 25.5635 196.158 25.6807C196.246 25.7962 196.311 25.9329 196.354 26.0908C196.396 26.2471 196.417 26.418 196.417 26.6035V26.8062H194.444V26.4375H195.965V26.4033C195.959 26.2861 195.934 26.1722 195.892 26.0615C195.851 25.9508 195.786 25.8597 195.697 25.7881C195.607 25.7165 195.485 25.6807 195.331 25.6807C195.228 25.6807 195.134 25.7026 195.047 25.7466C194.961 25.7889 194.887 25.8524 194.825 25.937C194.763 26.0216 194.715 26.125 194.681 26.2471C194.647 26.3691 194.63 26.5099 194.63 26.6694V26.772C194.63 26.8973 194.647 27.0153 194.681 27.126C194.717 27.235 194.768 27.3311 194.835 27.4141C194.903 27.4971 194.986 27.5622 195.082 27.6094C195.179 27.6566 195.29 27.6802 195.414 27.6802C195.573 27.6802 195.708 27.6476 195.819 27.5825C195.93 27.5174 196.026 27.4303 196.109 27.3213L196.383 27.5386C196.326 27.6248 196.253 27.707 196.166 27.7852C196.078 27.8633 195.969 27.9268 195.841 27.9756C195.714 28.0244 195.563 28.0488 195.389 28.0488ZM198.001 27.6777C198.109 27.6777 198.208 27.6558 198.299 27.6118C198.39 27.5679 198.465 27.5076 198.524 27.4312C198.583 27.353 198.616 27.2643 198.624 27.165H199.054C199.046 27.3213 198.993 27.467 198.895 27.6021C198.799 27.7355 198.673 27.8438 198.517 27.9268C198.36 28.0081 198.189 28.0488 198.001 28.0488C197.803 28.0488 197.63 28.0138 197.481 27.9438C197.335 27.8739 197.213 27.7778 197.115 27.6558C197.019 27.5337 196.947 27.3937 196.898 27.2358C196.851 27.0763 196.827 26.9079 196.827 26.7305V26.6279C196.827 26.4505 196.851 26.2829 196.898 26.125C196.947 25.9655 197.019 25.8247 197.115 25.7026C197.213 25.5806 197.335 25.4845 197.481 25.4146C197.63 25.3446 197.803 25.3096 198.001 25.3096C198.208 25.3096 198.389 25.3519 198.543 25.4365C198.698 25.5195 198.819 25.6335 198.907 25.7783C198.997 25.9215 199.046 26.0843 199.054 26.2666H198.624C198.616 26.1576 198.585 26.0591 198.531 25.9712C198.479 25.8833 198.408 25.8133 198.316 25.7612C198.227 25.7075 198.122 25.6807 198.001 25.6807C197.863 25.6807 197.747 25.7083 197.652 25.7637C197.56 25.8174 197.486 25.8906 197.43 25.9834C197.376 26.0745 197.337 26.1763 197.313 26.2886C197.29 26.3993 197.279 26.5124 197.279 26.6279V26.7305C197.279 26.846 197.29 26.96 197.313 27.0723C197.336 27.1846 197.374 27.2863 197.428 27.3774C197.483 27.4686 197.557 27.5418 197.65 27.5972C197.744 27.6509 197.861 27.6777 198.001 27.6777ZM200.052 25.3584V28H199.598V25.3584H200.052ZM199.564 24.6577C199.564 24.5845 199.586 24.5226 199.63 24.4722C199.675 24.4217 199.742 24.3965 199.83 24.3965C199.916 24.3965 199.982 24.4217 200.028 24.4722C200.075 24.5226 200.099 24.5845 200.099 24.6577C200.099 24.7277 200.075 24.7879 200.028 24.8384C199.982 24.8872 199.916 24.9116 199.83 24.9116C199.742 24.9116 199.675 24.8872 199.63 24.8384C199.586 24.7879 199.564 24.7277 199.564 24.6577ZM201.229 25.8662V29.0156H200.775V25.3584H201.19L201.229 25.8662ZM203.009 26.6572V26.7085C203.009 26.9006 202.986 27.0788 202.94 27.2432C202.895 27.4059 202.828 27.5475 202.74 27.668C202.654 27.7884 202.547 27.882 202.42 27.9487C202.293 28.0155 202.148 28.0488 201.983 28.0488C201.816 28.0488 201.668 28.0212 201.539 27.9658C201.41 27.9105 201.301 27.8299 201.212 27.7241C201.122 27.6183 201.051 27.4914 200.997 27.3433C200.945 27.1951 200.909 27.0283 200.89 26.8428V26.5693C200.909 26.374 200.946 26.1991 201 26.0444C201.053 25.8898 201.124 25.758 201.212 25.6489C201.301 25.5382 201.41 25.4544 201.537 25.3975C201.664 25.3389 201.81 25.3096 201.976 25.3096C202.142 25.3096 202.289 25.3421 202.418 25.4072C202.547 25.4707 202.655 25.5618 202.743 25.6807C202.831 25.7995 202.896 25.9419 202.94 26.1079C202.986 26.2723 203.009 26.4554 203.009 26.6572ZM202.555 26.7085V26.6572C202.555 26.5254 202.541 26.4017 202.513 26.2861C202.486 26.1689 202.442 26.0664 202.384 25.9785C202.327 25.889 202.254 25.819 202.164 25.7686C202.075 25.7165 201.968 25.6904 201.844 25.6904C201.73 25.6904 201.631 25.71 201.546 25.749C201.463 25.7881 201.393 25.841 201.334 25.9077C201.275 25.9728 201.227 26.0477 201.19 26.1323C201.154 26.2153 201.127 26.3016 201.109 26.3911V27.0234C201.142 27.1374 201.188 27.2448 201.246 27.3457C201.305 27.445 201.383 27.5256 201.48 27.5874C201.578 27.6476 201.701 27.6777 201.849 27.6777C201.971 27.6777 202.076 27.6525 202.164 27.6021C202.254 27.55 202.327 27.4792 202.384 27.3896C202.442 27.3001 202.486 27.1976 202.513 27.082C202.541 26.9648 202.555 26.8403 202.555 26.7085ZM204.681 28.0488C204.497 28.0488 204.33 28.0179 204.181 27.9561C204.033 27.8926 203.905 27.8039 203.797 27.6899C203.692 27.576 203.61 27.4409 203.553 27.2847C203.496 27.1284 203.468 26.9575 203.468 26.772V26.6694C203.468 26.4546 203.5 26.2633 203.563 26.0957C203.626 25.9264 203.713 25.7832 203.822 25.666C203.931 25.5488 204.055 25.4601 204.193 25.3999C204.331 25.3397 204.474 25.3096 204.623 25.3096C204.811 25.3096 204.974 25.3421 205.111 25.4072C205.249 25.4723 205.362 25.5635 205.45 25.6807C205.538 25.7962 205.603 25.9329 205.646 26.0908C205.688 26.2471 205.709 26.418 205.709 26.6035V26.8062H203.736V26.4375H205.257V26.4033C205.251 26.2861 205.226 26.1722 205.184 26.0615C205.143 25.9508 205.078 25.8597 204.989 25.7881C204.899 25.7165 204.777 25.6807 204.623 25.6807C204.52 25.6807 204.426 25.7026 204.339 25.7466C204.253 25.7889 204.179 25.8524 204.117 25.937C204.055 26.0216 204.007 26.125 203.973 26.2471C203.939 26.3691 203.922 26.5099 203.922 26.6694V26.772C203.922 26.8973 203.939 27.0153 203.973 27.126C204.009 27.235 204.06 27.3311 204.127 27.4141C204.195 27.4971 204.278 27.5622 204.374 27.6094C204.471 27.6566 204.582 27.6802 204.706 27.6802C204.865 27.6802 205 27.6476 205.111 27.5825C205.222 27.5174 205.318 27.4303 205.401 27.3213L205.675 27.5386C205.618 27.6248 205.545 27.707 205.458 27.7852C205.37 27.8633 205.261 27.9268 205.133 27.9756C205.006 28.0244 204.855 28.0488 204.681 28.0488ZM191.266 31.9224V34H190.814V31.3584H191.241L191.266 31.9224ZM191.158 32.5791L190.97 32.5718C190.972 32.3911 190.999 32.2243 191.051 32.0713C191.103 31.9167 191.176 31.7824 191.271 31.6685C191.365 31.5545 191.477 31.4666 191.607 31.4048C191.739 31.3413 191.885 31.3096 192.044 31.3096C192.175 31.3096 192.292 31.3275 192.396 31.3633C192.5 31.3975 192.589 31.4528 192.662 31.5293C192.737 31.6058 192.794 31.7051 192.833 31.8271C192.872 31.9476 192.892 32.0949 192.892 32.269V34H192.438V32.2642C192.438 32.1258 192.417 32.0151 192.376 31.9321C192.336 31.8475 192.276 31.7865 192.198 31.749C192.12 31.71 192.024 31.6904 191.91 31.6904C191.798 31.6904 191.695 31.714 191.603 31.7612C191.511 31.8084 191.432 31.8735 191.366 31.9565C191.301 32.0396 191.249 32.1348 191.212 32.2422C191.176 32.348 191.158 32.4603 191.158 32.5791ZM195.194 33.3896V31.3584H195.648V34H195.216L195.194 33.3896ZM195.279 32.833L195.467 32.8281C195.467 33.0039 195.449 33.1667 195.411 33.3164C195.375 33.4645 195.317 33.5931 195.235 33.7021C195.154 33.8112 195.047 33.8966 194.916 33.9585C194.784 34.0187 194.623 34.0488 194.435 34.0488C194.306 34.0488 194.188 34.0301 194.081 33.9927C193.975 33.9552 193.884 33.8975 193.807 33.8193C193.731 33.7412 193.671 33.6395 193.629 33.5142C193.588 33.3888 193.568 33.2383 193.568 33.0625V31.3584H194.02V33.0674C194.02 33.1862 194.033 33.2847 194.059 33.3628C194.086 33.4393 194.123 33.5003 194.168 33.5459C194.216 33.5898 194.268 33.6208 194.325 33.6387C194.383 33.6566 194.444 33.6655 194.505 33.6655C194.697 33.6655 194.85 33.6289 194.962 33.5557C195.074 33.4808 195.155 33.3807 195.204 33.2554C195.254 33.1284 195.279 32.9876 195.279 32.833ZM196.786 31.8833V34H196.332V31.3584H196.761L196.786 31.8833ZM196.693 32.5791L196.483 32.5718C196.485 32.3911 196.508 32.2243 196.554 32.0713C196.599 31.9167 196.667 31.7824 196.756 31.6685C196.846 31.5545 196.957 31.4666 197.091 31.4048C197.224 31.3413 197.379 31.3096 197.555 31.3096C197.678 31.3096 197.792 31.3275 197.896 31.3633C198.001 31.3975 198.091 31.452 198.167 31.5269C198.244 31.6017 198.303 31.6978 198.346 31.8149C198.388 31.9321 198.409 32.0737 198.409 32.2397V34H197.958V32.2617C197.958 32.1234 197.934 32.0127 197.887 31.9297C197.841 31.8467 197.776 31.7865 197.691 31.749C197.607 31.71 197.507 31.6904 197.394 31.6904C197.26 31.6904 197.149 31.714 197.059 31.7612C196.97 31.8084 196.898 31.8735 196.844 31.9565C196.791 32.0396 196.751 32.1348 196.727 32.2422C196.704 32.348 196.693 32.4603 196.693 32.5791ZM198.404 32.3301L198.102 32.4229C198.103 32.278 198.127 32.1388 198.172 32.0054C198.22 31.8719 198.287 31.7531 198.375 31.6489C198.465 31.5448 198.574 31.4626 198.705 31.4023C198.835 31.3405 198.984 31.3096 199.151 31.3096C199.293 31.3096 199.418 31.3283 199.527 31.3657C199.638 31.4032 199.731 31.4609 199.806 31.5391C199.882 31.6156 199.94 31.714 199.979 31.8345C200.018 31.9549 200.038 32.0981 200.038 32.2642V34H199.583V32.2593C199.583 32.1112 199.56 31.9964 199.513 31.915C199.467 31.832 199.402 31.7743 199.317 31.7417C199.234 31.7075 199.135 31.6904 199.02 31.6904C198.92 31.6904 198.832 31.7075 198.756 31.7417C198.679 31.7759 198.615 31.8231 198.563 31.8833C198.511 31.9419 198.471 32.0094 198.443 32.0859C198.417 32.1624 198.404 32.2438 198.404 32.3301ZM200.719 30.25H201.173V33.4873L201.134 34H200.719V30.25ZM202.958 32.6572V32.7085C202.958 32.9006 202.935 33.0788 202.889 33.2432C202.844 33.4059 202.777 33.5475 202.689 33.668C202.601 33.7884 202.494 33.882 202.367 33.9487C202.24 34.0155 202.094 34.0488 201.93 34.0488C201.762 34.0488 201.615 34.0203 201.488 33.9634C201.362 33.9048 201.257 33.821 201.17 33.7119C201.084 33.6029 201.015 33.471 200.963 33.3164C200.912 33.1618 200.877 32.9876 200.858 32.7939V32.5693C200.877 32.374 200.912 32.1991 200.963 32.0444C201.015 31.8898 201.084 31.758 201.17 31.6489C201.257 31.5382 201.362 31.4544 201.488 31.3975C201.613 31.3389 201.759 31.3096 201.925 31.3096C202.091 31.3096 202.238 31.3421 202.367 31.4072C202.495 31.4707 202.603 31.5618 202.689 31.6807C202.777 31.7995 202.844 31.9419 202.889 32.1079C202.935 32.2723 202.958 32.4554 202.958 32.6572ZM202.503 32.7085V32.6572C202.503 32.5254 202.491 32.4017 202.467 32.2861C202.442 32.1689 202.403 32.0664 202.35 31.9785C202.296 31.889 202.225 31.819 202.137 31.7686C202.049 31.7165 201.941 31.6904 201.812 31.6904C201.699 31.6904 201.599 31.71 201.515 31.749C201.432 31.7881 201.361 31.841 201.302 31.9077C201.244 31.9728 201.196 32.0477 201.158 32.1323C201.122 32.2153 201.096 32.3016 201.078 32.3911V32.9795C201.104 33.0934 201.146 33.2033 201.205 33.3091C201.265 33.4132 201.345 33.4987 201.444 33.5654C201.545 33.6322 201.669 33.6655 201.817 33.6655C201.939 33.6655 202.044 33.6411 202.13 33.5923C202.218 33.5418 202.289 33.4727 202.342 33.3848C202.398 33.2969 202.438 33.1951 202.464 33.0796C202.49 32.964 202.503 32.8403 202.503 32.7085ZM204.625 34.0488C204.441 34.0488 204.274 34.0179 204.125 33.9561C203.976 33.8926 203.849 33.8039 203.741 33.6899C203.635 33.576 203.554 33.4409 203.497 33.2847C203.44 33.1284 203.412 32.9575 203.412 32.772V32.6694C203.412 32.4546 203.443 32.2633 203.507 32.0957C203.57 31.9264 203.657 31.7832 203.766 31.666C203.875 31.5488 203.998 31.4601 204.137 31.3999C204.275 31.3397 204.418 31.3096 204.566 31.3096C204.755 31.3096 204.918 31.3421 205.055 31.4072C205.193 31.4723 205.306 31.5635 205.394 31.6807C205.482 31.7962 205.547 31.9329 205.589 32.0908C205.632 32.2471 205.653 32.418 205.653 32.6035V32.8062H203.68V32.4375H205.201V32.4033C205.195 32.2861 205.17 32.1722 205.128 32.0615C205.087 31.9508 205.022 31.8597 204.933 31.7881C204.843 31.7165 204.721 31.6807 204.566 31.6807C204.464 31.6807 204.369 31.7026 204.283 31.7466C204.197 31.7889 204.123 31.8524 204.061 31.937C203.999 32.0216 203.951 32.125 203.917 32.2471C203.883 32.3691 203.866 32.5099 203.866 32.6694V32.772C203.866 32.8973 203.883 33.0153 203.917 33.126C203.953 33.235 204.004 33.3311 204.071 33.4141C204.139 33.4971 204.221 33.5622 204.317 33.6094C204.415 33.6566 204.526 33.6802 204.649 33.6802C204.809 33.6802 204.944 33.6476 205.055 33.5825C205.165 33.5174 205.262 33.4303 205.345 33.3213L205.619 33.5386C205.562 33.6248 205.489 33.707 205.401 33.7852C205.313 33.8633 205.205 33.9268 205.077 33.9756C204.95 34.0244 204.799 34.0488 204.625 34.0488ZM206.632 31.7734V34H206.18V31.3584H206.62L206.632 31.7734ZM207.457 31.3438L207.455 31.7637C207.417 31.7555 207.381 31.7507 207.347 31.749C207.315 31.7458 207.277 31.7441 207.235 31.7441C207.131 31.7441 207.039 31.7604 206.959 31.793C206.879 31.8255 206.812 31.8711 206.756 31.9297C206.701 31.9883 206.657 32.0583 206.625 32.1396C206.594 32.2194 206.573 32.3073 206.563 32.4033L206.437 32.4766C206.437 32.3171 206.452 32.1673 206.483 32.0273C206.515 31.8874 206.565 31.7637 206.632 31.6562C206.699 31.5472 206.783 31.4626 206.886 31.4023C206.99 31.3405 207.114 31.3096 207.257 31.3096C207.289 31.3096 207.327 31.3136 207.369 31.3218C207.411 31.3283 207.441 31.3356 207.457 31.3438Z" fill="black"/>
<rect x="159.25" y="22.25" width="8.5" height="14.5" stroke="#C0433A" stroke-width="0.5"/>
<rect x="159.25" y="22.25" width="8.5" height="14.5" stroke="#4298BD" stroke-width="0.5"/>
<rect x="159.25" y="22.25" width="8.5" height="14.5" stroke="#817033" stroke-width="0.5"/>
<path d="M77.9668 29.8696H78.4355C78.4111 30.0942 78.3468 30.2952 78.2427 30.4727C78.1385 30.6501 77.9912 30.7909 77.8008 30.895C77.6104 30.9976 77.3727 31.0488 77.0879 31.0488C76.8796 31.0488 76.6899 31.0098 76.519 30.9316C76.3498 30.8535 76.2041 30.7428 76.082 30.5996C75.96 30.4548 75.8656 30.2814 75.7988 30.0796C75.7337 29.8761 75.7012 29.6499 75.7012 29.4009V29.0469C75.7012 28.7979 75.7337 28.5724 75.7988 28.3706C75.8656 28.1672 75.9608 27.993 76.0845 27.8481C76.2098 27.7033 76.3604 27.5918 76.5361 27.5137C76.7119 27.4355 76.9097 27.3965 77.1294 27.3965C77.3979 27.3965 77.625 27.4469 77.8105 27.5479C77.9961 27.6488 78.1401 27.7887 78.2427 27.9678C78.3468 28.1452 78.4111 28.3511 78.4355 28.5854H77.9668C77.944 28.4194 77.9017 28.277 77.8398 28.1582C77.778 28.0378 77.6901 27.945 77.5762 27.8799C77.4622 27.8148 77.3133 27.7822 77.1294 27.7822C76.9715 27.7822 76.8324 27.8123 76.7119 27.8726C76.5931 27.9328 76.493 28.0182 76.4116 28.1289C76.3319 28.2396 76.2716 28.3722 76.231 28.5269C76.1903 28.6815 76.1699 28.8532 76.1699 29.042V29.4009C76.1699 29.575 76.1878 29.7386 76.2236 29.8916C76.2611 30.0446 76.3172 30.1789 76.3921 30.2944C76.467 30.41 76.5622 30.5011 76.6777 30.5679C76.7933 30.633 76.93 30.6655 77.0879 30.6655C77.2881 30.6655 77.4476 30.6338 77.5664 30.5703C77.6852 30.5068 77.7747 30.4157 77.835 30.2969C77.8968 30.1781 77.9408 30.0356 77.9668 29.8696ZM78.8896 29.7085V29.6523C78.8896 29.4619 78.9173 29.2853 78.9727 29.1226C79.028 28.9582 79.1077 28.8158 79.2119 28.6953C79.3161 28.5732 79.4422 28.4788 79.5903 28.4121C79.7384 28.3438 79.9045 28.3096 80.0884 28.3096C80.2739 28.3096 80.4408 28.3438 80.5889 28.4121C80.7386 28.4788 80.8656 28.5732 80.9697 28.6953C81.0755 28.8158 81.1561 28.9582 81.2114 29.1226C81.2668 29.2853 81.2944 29.4619 81.2944 29.6523V29.7085C81.2944 29.8989 81.2668 30.0755 81.2114 30.2383C81.1561 30.401 81.0755 30.5435 80.9697 30.6655C80.8656 30.786 80.7394 30.8804 80.5913 30.9487C80.4448 31.0155 80.2788 31.0488 80.0933 31.0488C79.9077 31.0488 79.7409 31.0155 79.5928 30.9487C79.4447 30.8804 79.3177 30.786 79.2119 30.6655C79.1077 30.5435 79.028 30.401 78.9727 30.2383C78.9173 30.0755 78.8896 29.8989 78.8896 29.7085ZM79.3413 29.6523V29.7085C79.3413 29.8403 79.3568 29.9648 79.3877 30.082C79.4186 30.1976 79.465 30.3001 79.5269 30.3896C79.5903 30.4792 79.6693 30.55 79.7637 30.6021C79.8581 30.6525 79.9679 30.6777 80.0933 30.6777C80.217 30.6777 80.3252 30.6525 80.418 30.6021C80.5124 30.55 80.5905 30.4792 80.6523 30.3896C80.7142 30.3001 80.7606 30.1976 80.7915 30.082C80.8241 29.9648 80.8403 29.8403 80.8403 29.7085V29.6523C80.8403 29.5221 80.8241 29.3993 80.7915 29.2837C80.7606 29.1665 80.7134 29.0632 80.6499 28.9736C80.5881 28.8825 80.5099 28.8109 80.4155 28.7588C80.3228 28.7067 80.2137 28.6807 80.0884 28.6807C79.9647 28.6807 79.8556 28.7067 79.7612 28.7588C79.6685 28.8109 79.5903 28.8825 79.5269 28.9736C79.465 29.0632 79.4186 29.1665 79.3877 29.2837C79.3568 29.3993 79.3413 29.5221 79.3413 29.6523ZM82.3101 28.8833V31H81.856V28.3584H82.2856L82.3101 28.8833ZM82.2173 29.5791L82.0073 29.5718C82.009 29.3911 82.0326 29.2243 82.0781 29.0713C82.1237 28.9167 82.1912 28.7824 82.2808 28.6685C82.3703 28.5545 82.4818 28.4666 82.6152 28.4048C82.7487 28.3413 82.9033 28.3096 83.0791 28.3096C83.2028 28.3096 83.3167 28.3275 83.4209 28.3633C83.5251 28.3975 83.6154 28.452 83.6919 28.5269C83.7684 28.6017 83.8278 28.6978 83.8701 28.8149C83.9124 28.9321 83.9336 29.0737 83.9336 29.2397V31H83.4819V29.2617C83.4819 29.1234 83.4583 29.0127 83.4111 28.9297C83.3656 28.8467 83.3005 28.7865 83.2158 28.749C83.1312 28.71 83.0319 28.6904 82.918 28.6904C82.7845 28.6904 82.673 28.714 82.5835 28.7612C82.494 28.8084 82.4224 28.8735 82.3687 28.9565C82.3149 29.0396 82.2759 29.1348 82.2515 29.2422C82.2287 29.348 82.2173 29.4603 82.2173 29.5791ZM83.9287 29.3301L83.626 29.4229C83.6276 29.278 83.6512 29.1388 83.6968 29.0054C83.744 28.8719 83.8115 28.7531 83.8994 28.6489C83.9889 28.5448 84.0988 28.4626 84.229 28.4023C84.3592 28.3405 84.5081 28.3096 84.6758 28.3096C84.8174 28.3096 84.9427 28.3283 85.0518 28.3657C85.1624 28.4032 85.2552 28.4609 85.3301 28.5391C85.4066 28.6156 85.4644 28.714 85.5034 28.8345C85.5425 28.9549 85.562 29.0981 85.562 29.2642V31H85.1079V29.2593C85.1079 29.1112 85.0843 28.9964 85.0371 28.915C84.9915 28.832 84.9264 28.7743 84.8418 28.7417C84.7588 28.7075 84.6595 28.6904 84.5439 28.6904C84.4447 28.6904 84.3568 28.7075 84.2803 28.7417C84.2038 28.7759 84.1395 28.8231 84.0874 28.8833C84.0353 28.9419 83.9954 29.0094 83.9678 29.0859C83.9417 29.1624 83.9287 29.2438 83.9287 29.3301ZM86.6948 28.8833V31H86.2407V28.3584H86.6704L86.6948 28.8833ZM86.6021 29.5791L86.3921 29.5718C86.3937 29.3911 86.4173 29.2243 86.4629 29.0713C86.5085 28.9167 86.576 28.7824 86.6655 28.6685C86.755 28.5545 86.8665 28.4666 87 28.4048C87.1335 28.3413 87.2881 28.3096 87.4639 28.3096C87.5876 28.3096 87.7015 28.3275 87.8057 28.3633C87.9098 28.3975 88.0002 28.452 88.0767 28.5269C88.1532 28.6017 88.2126 28.6978 88.2549 28.8149C88.2972 28.9321 88.3184 29.0737 88.3184 29.2397V31H87.8667V29.2617C87.8667 29.1234 87.8431 29.0127 87.7959 28.9297C87.7503 28.8467 87.6852 28.7865 87.6006 28.749C87.516 28.71 87.4167 28.6904 87.3027 28.6904C87.1693 28.6904 87.0578 28.714 86.9683 28.7612C86.8787 28.8084 86.8071 28.8735 86.7534 28.9565C86.6997 29.0396 86.6606 29.1348 86.6362 29.2422C86.6134 29.348 86.6021 29.4603 86.6021 29.5791ZM88.3135 29.3301L88.0107 29.4229C88.0124 29.278 88.036 29.1388 88.0815 29.0054C88.1287 28.8719 88.1963 28.7531 88.2842 28.6489C88.3737 28.5448 88.4836 28.4626 88.6138 28.4023C88.744 28.3405 88.8929 28.3096 89.0605 28.3096C89.2021 28.3096 89.3275 28.3283 89.4365 28.3657C89.5472 28.4032 89.64 28.4609 89.7148 28.5391C89.7913 28.6156 89.8491 28.714 89.8882 28.8345C89.9272 28.9549 89.9468 29.0981 89.9468 29.2642V31H89.4927V29.2593C89.4927 29.1112 89.4691 28.9964 89.4219 28.915C89.3763 28.832 89.3112 28.7743 89.2266 28.7417C89.1436 28.7075 89.0443 28.6904 88.9287 28.6904C88.8294 28.6904 88.7415 28.7075 88.665 28.7417C88.5885 28.7759 88.5243 28.8231 88.4722 28.8833C88.4201 28.9419 88.3802 29.0094 88.3525 29.0859C88.3265 29.1624 88.3135 29.2438 88.3135 29.3301ZM92.188 30.5483V29.1885C92.188 29.0843 92.1668 28.994 92.1245 28.9175C92.0838 28.8394 92.022 28.7791 91.939 28.7368C91.856 28.6945 91.7534 28.6733 91.6313 28.6733C91.5174 28.6733 91.4173 28.6929 91.3311 28.7319C91.2464 28.771 91.1797 28.8223 91.1309 28.8857C91.0837 28.9492 91.0601 29.0176 91.0601 29.0908H90.6084C90.6084 28.9964 90.6328 28.9028 90.6816 28.8101C90.7305 28.7173 90.8005 28.6335 90.8916 28.5586C90.9844 28.4821 91.0951 28.4219 91.2236 28.3779C91.3538 28.3324 91.4987 28.3096 91.6582 28.3096C91.8503 28.3096 92.0195 28.3421 92.166 28.4072C92.3141 28.4723 92.4297 28.5708 92.5127 28.7026C92.5973 28.8328 92.6396 28.9964 92.6396 29.1934V30.4238C92.6396 30.5117 92.647 30.6053 92.6616 30.7046C92.6779 30.8039 92.7015 30.8893 92.7324 30.9609V31H92.2612C92.2384 30.9479 92.2205 30.8787 92.2075 30.7925C92.1945 30.7046 92.188 30.6232 92.188 30.5483ZM92.2661 29.3984L92.271 29.7158H91.8145C91.6859 29.7158 91.5711 29.7264 91.4702 29.7476C91.3693 29.7671 91.2847 29.7972 91.2163 29.8379C91.1479 29.8786 91.0959 29.9299 91.0601 29.9917C91.0243 30.0519 91.0063 30.1227 91.0063 30.2041C91.0063 30.2871 91.0251 30.3628 91.0625 30.4312C91.0999 30.4995 91.1561 30.554 91.231 30.5947C91.3075 30.6338 91.401 30.6533 91.5117 30.6533C91.6501 30.6533 91.7721 30.624 91.8779 30.5654C91.9837 30.5068 92.0675 30.4352 92.1294 30.3506C92.1929 30.266 92.2271 30.1838 92.2319 30.104L92.4248 30.3213C92.4134 30.3896 92.3825 30.4653 92.332 30.5483C92.2816 30.6313 92.214 30.7111 92.1294 30.7876C92.0464 30.8625 91.9471 30.9251 91.8315 30.9756C91.7176 31.0244 91.589 31.0488 91.4458 31.0488C91.2668 31.0488 91.1097 31.0138 90.9746 30.9438C90.8411 30.8739 90.737 30.7803 90.6621 30.6631C90.5889 30.5443 90.5522 30.4116 90.5522 30.2651C90.5522 30.1235 90.5799 29.999 90.6353 29.8916C90.6906 29.7826 90.7703 29.6922 90.8745 29.6206C90.9787 29.5474 91.104 29.492 91.2505 29.4546C91.397 29.4172 91.5605 29.3984 91.7412 29.3984H92.2661ZM93.8018 28.9224V31H93.3501V28.3584H93.7773L93.8018 28.9224ZM93.6943 29.5791L93.5063 29.5718C93.508 29.3911 93.5348 29.2243 93.5869 29.0713C93.639 28.9167 93.7122 28.7824 93.8066 28.6685C93.901 28.5545 94.0133 28.4666 94.1436 28.4048C94.2754 28.3413 94.4211 28.3096 94.5806 28.3096C94.7108 28.3096 94.828 28.3275 94.9321 28.3633C95.0363 28.3975 95.125 28.4528 95.1982 28.5293C95.2731 28.6058 95.3301 28.7051 95.3691 28.8271C95.4082 28.9476 95.4277 29.0949 95.4277 29.269V31H94.9736V29.2642C94.9736 29.1258 94.9533 29.0151 94.9126 28.9321C94.8719 28.8475 94.8125 28.7865 94.7344 28.749C94.6562 28.71 94.5602 28.6904 94.4463 28.6904C94.334 28.6904 94.2314 28.714 94.1387 28.7612C94.0475 28.8084 93.9686 28.8735 93.9019 28.9565C93.8368 29.0396 93.7855 29.1348 93.748 29.2422C93.7122 29.348 93.6943 29.4603 93.6943 29.5791ZM97.7788 30.4873V27.25H98.2329V31H97.8179L97.7788 30.4873ZM96.0015 29.7085V29.6572C96.0015 29.4554 96.0259 29.2723 96.0747 29.1079C96.1252 28.9419 96.196 28.7995 96.2871 28.6807C96.3799 28.5618 96.4897 28.4707 96.6167 28.4072C96.7453 28.3421 96.8885 28.3096 97.0464 28.3096C97.2124 28.3096 97.3573 28.3389 97.481 28.3975C97.6063 28.4544 97.7121 28.5382 97.7983 28.6489C97.8862 28.758 97.9554 28.8898 98.0059 29.0444C98.0563 29.1991 98.0913 29.374 98.1108 29.5693V29.7939C98.0929 29.9876 98.0579 30.1618 98.0059 30.3164C97.9554 30.471 97.8862 30.6029 97.7983 30.7119C97.7121 30.821 97.6063 30.9048 97.481 30.9634C97.3556 31.0203 97.2091 31.0488 97.0415 31.0488C96.8869 31.0488 96.7453 31.0155 96.6167 30.9487C96.4897 30.882 96.3799 30.7884 96.2871 30.668C96.196 30.5475 96.1252 30.4059 96.0747 30.2432C96.0259 30.0788 96.0015 29.9006 96.0015 29.7085ZM96.4556 29.6572V29.7085C96.4556 29.8403 96.4686 29.964 96.4946 30.0796C96.5223 30.1951 96.5646 30.2969 96.6216 30.3848C96.6785 30.4727 96.751 30.5418 96.8389 30.5923C96.9268 30.6411 97.0317 30.6655 97.1538 30.6655C97.3035 30.6655 97.4264 30.6338 97.5225 30.5703C97.6201 30.5068 97.6982 30.423 97.7568 30.3188C97.8154 30.2147 97.861 30.1016 97.8936 29.9795V29.3911C97.874 29.3016 97.8455 29.2153 97.8081 29.1323C97.7723 29.0477 97.7251 28.9728 97.6665 28.9077C97.6095 28.841 97.5387 28.7881 97.4541 28.749C97.3711 28.71 97.2726 28.6904 97.1587 28.6904C97.035 28.6904 96.9284 28.7165 96.8389 28.7686C96.751 28.819 96.6785 28.889 96.6216 28.9785C96.5646 29.0664 96.5223 29.1689 96.4946 29.2861C96.4686 29.4017 96.4556 29.5254 96.4556 29.6572Z" fill="black"/>
<rect x="122.25" y="22.25" width="34.5" height="14.5" stroke="#C0433A" stroke-width="0.5"/>
<rect x="122.25" y="22.25" width="34.5" height="14.5" stroke="#4298BD" stroke-width="0.5"/>
<rect x="122.25" y="22.25" width="34.5" height="14.5" stroke="#D9BE56" stroke-width="0.5"/>
<path d="M102.364 30L104.864 31.4434V28.5566L102.364 30ZM122.364 29.75L104.614 29.75V30.25L122.364 30.25V29.75Z" fill="#D9BE56"/>
<path d="M188 30L185.5 28.5566V31.4434L188 30ZM168 30.25H185.75V29.75H168V30.25Z" fill="#817033"/>
</svg>
