<svg width="288" height="78" viewBox="0 0 288 78" fill="none" xmlns="http://www.w3.org/2000/svg">
<rect width="288" height="78" fill="white"/>
<path d="M74.5287 43.1172C74.0599 43.1172 73.6361 43.041 73.2572 42.8887C72.8822 42.7324 72.5619 42.5156 72.2962 42.2383C72.0345 41.9609 71.8334 41.6348 71.6927 41.2598C71.5521 40.8848 71.4818 40.4805 71.4818 40.0469V39.8125C71.4818 39.3164 71.5541 38.8672 71.6986 38.4648C71.8431 38.0625 72.0443 37.7188 72.3021 37.4336C72.5599 37.1445 72.8646 36.9238 73.2162 36.7715C73.5677 36.6191 73.9486 36.543 74.3587 36.543C74.8119 36.543 75.2084 36.6191 75.5482 36.7715C75.888 36.9238 76.1693 37.1387 76.392 37.416C76.6185 37.6895 76.7865 38.0156 76.8959 38.3945C77.0091 38.7734 77.0658 39.1914 77.0658 39.6484V40.252H72.1673V39.2383H75.6712V39.127C75.6634 38.873 75.6127 38.6348 75.5189 38.4121C75.4291 38.1895 75.2904 38.0098 75.1029 37.873C74.9154 37.7363 74.6654 37.668 74.3529 37.668C74.1185 37.668 73.9095 37.7188 73.7259 37.8203C73.5462 37.918 73.3959 38.0605 73.2748 38.248C73.1537 38.4355 73.0599 38.6621 72.9935 38.9277C72.931 39.1895 72.8998 39.4844 72.8998 39.8125V40.0469C72.8998 40.3242 72.9369 40.582 73.0111 40.8203C73.0892 41.0547 73.2025 41.2598 73.3509 41.4355C73.4994 41.6113 73.6791 41.75 73.89 41.8516C74.1009 41.9492 74.3412 41.998 74.6107 41.998C74.9505 41.998 75.2533 41.9297 75.5189 41.793C75.7845 41.6562 76.015 41.4629 76.2103 41.2129L76.9545 41.9336C76.8177 42.1328 76.64 42.3242 76.4212 42.5078C76.2025 42.6875 75.9349 42.834 75.6185 42.9473C75.306 43.0605 74.9427 43.1172 74.5287 43.1172ZM82.3945 41.6875V34H83.8125V43H82.5293L82.3945 41.6875ZM78.2695 39.9004V39.7773C78.2695 39.2969 78.3262 38.8594 78.4395 38.4648C78.5527 38.0664 78.7168 37.7246 78.9316 37.4395C79.1465 37.1504 79.4082 36.9297 79.7168 36.7773C80.0254 36.6211 80.373 36.543 80.7598 36.543C81.1426 36.543 81.4785 36.6172 81.7676 36.7656C82.0566 36.9141 82.3027 37.127 82.5059 37.4043C82.709 37.6777 82.8711 38.0059 82.9922 38.3887C83.1133 38.7676 83.1992 39.1895 83.25 39.6543V40.0469C83.1992 40.5 83.1133 40.9141 82.9922 41.2891C82.8711 41.6641 82.709 41.9883 82.5059 42.2617C82.3027 42.5352 82.0547 42.7461 81.7617 42.8945C81.4727 43.043 81.1348 43.1172 80.748 43.1172C80.3652 43.1172 80.0195 43.0371 79.7109 42.877C79.4062 42.7168 79.1465 42.4922 78.9316 42.2031C78.7168 41.9141 78.5527 41.5742 78.4395 41.1836C78.3262 40.7891 78.2695 40.3613 78.2695 39.9004ZM79.6816 39.7773V39.9004C79.6816 40.1895 79.707 40.459 79.7578 40.709C79.8125 40.959 79.8965 41.1797 80.0098 41.3711C80.123 41.5586 80.2695 41.707 80.4492 41.8164C80.6328 41.9219 80.8516 41.9746 81.1055 41.9746C81.4258 41.9746 81.6895 41.9043 81.8965 41.7637C82.1035 41.623 82.2656 41.4336 82.3828 41.1953C82.5039 40.9531 82.5859 40.6836 82.6289 40.3867V39.3262C82.6055 39.0957 82.5566 38.8809 82.4824 38.6816C82.4121 38.4824 82.3164 38.3086 82.1953 38.1602C82.0742 38.0078 81.9238 37.8906 81.7441 37.8086C81.5684 37.7227 81.3594 37.6797 81.1172 37.6797C80.8594 37.6797 80.6406 37.7344 80.4609 37.8438C80.2812 37.9531 80.1328 38.1035 80.0156 38.2949C79.9023 38.4863 79.8184 38.709 79.7637 38.9629C79.709 39.2168 79.6816 39.4883 79.6816 39.7773ZM87.1608 36.6602V43H85.7428V36.6602H87.1608ZM85.6491 34.9961C85.6491 34.7812 85.7194 34.6035 85.86 34.4629C86.0045 34.3184 86.2037 34.2461 86.4577 34.2461C86.7077 34.2461 86.9049 34.3184 87.0495 34.4629C87.194 34.6035 87.2662 34.7812 87.2662 34.9961C87.2662 35.207 87.194 35.3828 87.0495 35.5234C86.9049 35.6641 86.7077 35.7344 86.4577 35.7344C86.2037 35.7344 86.0045 35.6641 85.86 35.5234C85.7194 35.3828 85.6491 35.207 85.6491 34.9961ZM91.9739 36.6602V37.6914H88.3997V36.6602H91.9739ZM89.4309 35.1074H90.843V41.248C90.843 41.4434 90.8704 41.5938 90.9251 41.6992C90.9837 41.8008 91.0637 41.8691 91.1653 41.9043C91.2669 41.9395 91.386 41.957 91.5227 41.957C91.6204 41.957 91.7141 41.9512 91.804 41.9395C91.8938 41.9277 91.9661 41.916 92.0208 41.9043L92.0266 42.9824C91.9095 43.0176 91.7727 43.0488 91.6165 43.0762C91.4641 43.1035 91.2884 43.1172 91.0891 43.1172C90.7649 43.1172 90.4778 43.0605 90.2278 42.9473C89.9778 42.8301 89.7825 42.6406 89.6419 42.3789C89.5012 42.1172 89.4309 41.7695 89.4309 41.3359V35.1074ZM100.545 34.4395V43H99.1334V36.1152L97.0416 36.8242V35.6582L100.376 34.4395H100.545ZM108.812 36.6602V43H107.394V36.6602H108.812ZM107.301 34.9961C107.301 34.7812 107.371 34.6035 107.512 34.4629C107.656 34.3184 107.855 34.2461 108.109 34.2461C108.359 34.2461 108.556 34.3184 108.701 34.4629C108.846 34.6035 108.918 34.7812 108.918 34.9961C108.918 35.207 108.846 35.3828 108.701 35.5234C108.556 35.6641 108.359 35.7344 108.109 35.7344C107.855 35.7344 107.656 35.6641 107.512 35.5234C107.371 35.3828 107.301 35.207 107.301 34.9961ZM114.428 34.4688L111.106 43.7324H109.999L113.327 34.4688H114.428ZM117.378 34.4688V43H115.907V34.4688H117.378ZM120.859 38.2012V39.3672H117.003V38.2012H120.859ZM121.345 34.4688V35.6406H117.003V34.4688H121.345ZM124.248 34V43H122.83V34H124.248ZM125.885 39.9004V39.7656C125.885 39.3086 125.952 38.8848 126.084 38.4941C126.217 38.0996 126.409 37.7578 126.659 37.4688C126.912 37.1758 127.221 36.9492 127.584 36.7891C127.952 36.625 128.366 36.543 128.827 36.543C129.291 36.543 129.705 36.625 130.069 36.7891C130.436 36.9492 130.746 37.1758 131 37.4688C131.254 37.7578 131.448 38.0996 131.58 38.4941C131.713 38.8848 131.78 39.3086 131.78 39.7656V39.9004C131.78 40.3574 131.713 40.7812 131.58 41.1719C131.448 41.5625 131.254 41.9043 131 42.1973C130.746 42.4863 130.438 42.7129 130.075 42.877C129.711 43.0371 129.299 43.1172 128.838 43.1172C128.373 43.1172 127.957 43.0371 127.59 42.877C127.227 42.7129 126.918 42.4863 126.664 42.1973C126.411 41.9043 126.217 41.5625 126.084 41.1719C125.952 40.7812 125.885 40.3574 125.885 39.9004ZM127.297 39.7656V39.9004C127.297 40.1855 127.327 40.4551 127.385 40.709C127.444 40.9629 127.536 41.1855 127.661 41.377C127.786 41.5684 127.946 41.7188 128.141 41.8281C128.336 41.9375 128.569 41.9922 128.838 41.9922C129.1 41.9922 129.327 41.9375 129.518 41.8281C129.713 41.7188 129.873 41.5684 129.998 41.377C130.123 41.1855 130.215 40.9629 130.274 40.709C130.336 40.4551 130.368 40.1855 130.368 39.9004V39.7656C130.368 39.4844 130.336 39.2188 130.274 38.9688C130.215 38.7148 130.121 38.4902 129.993 38.2949C129.868 38.0996 129.707 37.9473 129.512 37.8379C129.321 37.7246 129.092 37.668 128.827 37.668C128.561 37.668 128.33 37.7246 128.135 37.8379C127.944 37.9473 127.786 38.0996 127.661 38.2949C127.536 38.4902 127.444 38.7148 127.385 38.9688C127.327 39.2188 127.297 39.4844 127.297 39.7656ZM137.138 41.5059V36.6602H138.556V43H137.22L137.138 41.5059ZM137.337 40.1875L137.812 40.1758C137.812 40.6016 137.765 40.9941 137.671 41.3535C137.577 41.709 137.433 42.0195 137.237 42.2852C137.042 42.5469 136.792 42.752 136.487 42.9004C136.183 43.0449 135.817 43.1172 135.392 43.1172C135.083 43.1172 134.8 43.0723 134.542 42.9824C134.284 42.8926 134.062 42.7539 133.874 42.5664C133.69 42.3789 133.548 42.1348 133.446 41.834C133.345 41.5332 133.294 41.1738 133.294 40.7559V36.6602H134.706V40.7676C134.706 40.998 134.733 41.1914 134.788 41.3477C134.843 41.5 134.917 41.623 135.011 41.7168C135.105 41.8105 135.214 41.877 135.339 41.916C135.464 41.9551 135.597 41.9746 135.737 41.9746C136.14 41.9746 136.456 41.8965 136.687 41.7402C136.921 41.5801 137.087 41.3652 137.185 41.0957C137.286 40.8262 137.337 40.5234 137.337 40.1875ZM141.781 37.8672V43H140.369V36.6602H141.716L141.781 37.8672ZM143.72 36.6191L143.709 37.9316C143.623 37.916 143.529 37.9043 143.427 37.8965C143.33 37.8887 143.232 37.8848 143.134 37.8848C142.892 37.8848 142.679 37.9199 142.496 37.9902C142.312 38.0566 142.158 38.1543 142.033 38.2832C141.912 38.4082 141.818 38.5605 141.752 38.7402C141.685 38.9199 141.646 39.1211 141.634 39.3438L141.312 39.3672C141.312 38.9688 141.351 38.5996 141.429 38.2598C141.507 37.9199 141.625 37.6211 141.781 37.3633C141.941 37.1055 142.14 36.9043 142.379 36.7598C142.621 36.6152 142.9 36.543 143.216 36.543C143.302 36.543 143.394 36.5508 143.492 36.5664C143.593 36.582 143.67 36.5996 143.72 36.6191ZM145.457 41.6406L145.451 42.6484C145.451 43.0469 145.352 43.457 145.153 43.8789C144.953 44.3008 144.69 44.6484 144.362 44.9219L143.606 44.4824C143.715 44.3066 143.815 44.1289 143.905 43.9492C143.994 43.7695 144.067 43.5781 144.121 43.375C144.176 43.1719 144.203 42.9473 144.203 42.7012V41.6406H145.457ZM156.32 39.959V41.084H150.168L150.121 40.2344L153.8 34.4688H154.931L153.707 36.5664L151.591 39.959H156.32ZM155.254 34.4688V43H153.841V34.4688H155.254ZM159.03 41.6406L159.024 42.6484C159.024 43.0469 158.924 43.457 158.725 43.8789C158.526 44.3008 158.262 44.6484 157.934 44.9219L157.178 44.4824C157.287 44.3066 157.387 44.1289 157.477 43.9492C157.567 43.7695 157.639 43.5781 157.694 43.375C157.748 43.1719 157.776 42.9473 157.776 42.7012V41.6406H159.03ZM169.277 40.2227H170.742C170.695 40.7812 170.539 41.2793 170.273 41.7168C170.007 42.1504 169.634 42.4922 169.154 42.7422C168.673 42.9922 168.089 43.1172 167.402 43.1172C166.875 43.1172 166.4 43.0234 165.978 42.8359C165.556 42.6445 165.195 42.375 164.894 42.0273C164.593 41.6758 164.363 41.252 164.203 40.7559C164.046 40.2598 163.968 39.7051 163.968 39.0918V38.3828C163.968 37.7695 164.048 37.2148 164.209 36.7188C164.373 36.2227 164.607 35.7988 164.912 35.4473C165.216 35.0918 165.582 34.8203 166.007 34.6328C166.437 34.4453 166.919 34.3516 167.455 34.3516C168.134 34.3516 168.709 34.4766 169.177 34.7266C169.646 34.9766 170.009 35.3223 170.267 35.7637C170.529 36.2051 170.689 36.7109 170.748 37.2812H169.283C169.244 36.9141 169.158 36.5996 169.025 36.3379C168.896 36.0762 168.705 35.877 168.451 35.7402C168.197 35.5996 167.865 35.5293 167.455 35.5293C167.119 35.5293 166.826 35.5918 166.576 35.7168C166.326 35.8418 166.117 36.0254 165.949 36.2676C165.781 36.5098 165.654 36.8086 165.568 37.1641C165.486 37.5156 165.445 37.918 165.445 38.3711V39.0918C165.445 39.5215 165.482 39.9121 165.556 40.2637C165.634 40.6113 165.751 40.9102 165.908 41.1602C166.068 41.4102 166.271 41.6035 166.517 41.7402C166.763 41.877 167.058 41.9453 167.402 41.9453C167.82 41.9453 168.158 41.8789 168.416 41.7461C168.677 41.6133 168.875 41.4199 169.007 41.166C169.144 40.9082 169.234 40.5938 169.277 40.2227ZM176.111 41.5059V36.6602H177.529V43H176.194L176.111 41.5059ZM176.311 40.1875L176.785 40.1758C176.785 40.6016 176.738 40.9941 176.645 41.3535C176.551 41.709 176.406 42.0195 176.211 42.2852C176.016 42.5469 175.766 42.752 175.461 42.9004C175.156 43.0449 174.791 43.1172 174.365 43.1172C174.057 43.1172 173.774 43.0723 173.516 42.9824C173.258 42.8926 173.035 42.7539 172.848 42.5664C172.664 42.3789 172.522 42.1348 172.42 41.834C172.319 41.5332 172.268 41.1738 172.268 40.7559V36.6602H173.68V40.7676C173.68 40.998 173.707 41.1914 173.762 41.3477C173.817 41.5 173.891 41.623 173.985 41.7168C174.078 41.8105 174.188 41.877 174.313 41.916C174.438 41.9551 174.57 41.9746 174.711 41.9746C175.113 41.9746 175.43 41.8965 175.66 41.7402C175.895 41.5801 176.061 41.3652 176.158 41.0957C176.26 40.8262 176.311 40.5234 176.311 40.1875ZM180.755 37.8789V45.4375H179.343V36.6602H180.643L180.755 37.8789ZM184.886 39.7715V39.8945C184.886 40.3555 184.831 40.7832 184.721 41.1777C184.616 41.5684 184.458 41.9102 184.247 42.2031C184.04 42.4922 183.784 42.7168 183.479 42.877C183.175 43.0371 182.823 43.1172 182.425 43.1172C182.03 43.1172 181.684 43.0449 181.387 42.9004C181.095 42.752 180.846 42.543 180.643 42.2734C180.44 42.0039 180.276 41.6875 180.151 41.3242C180.03 40.957 179.944 40.5547 179.893 40.1172V39.6426C179.944 39.1777 180.03 38.7559 180.151 38.377C180.276 37.998 180.44 37.6719 180.643 37.3984C180.846 37.125 181.095 36.9141 181.387 36.7656C181.68 36.6172 182.022 36.543 182.413 36.543C182.811 36.543 183.165 36.6211 183.473 36.7773C183.782 36.9297 184.042 37.1484 184.253 37.4336C184.464 37.7148 184.622 38.0547 184.727 38.4531C184.833 38.8477 184.886 39.2871 184.886 39.7715ZM183.473 39.8945V39.7715C183.473 39.4785 183.446 39.207 183.391 38.957C183.337 38.7031 183.251 38.4805 183.134 38.2891C183.016 38.0977 182.866 37.9492 182.682 37.8438C182.503 37.7344 182.286 37.6797 182.032 37.6797C181.782 37.6797 181.567 37.7227 181.387 37.8086C181.208 37.8906 181.057 38.0059 180.936 38.1543C180.815 38.3027 180.721 38.4766 180.655 38.6758C180.589 38.8711 180.542 39.084 180.514 39.3145V40.4512C180.561 40.7324 180.641 40.9902 180.755 41.2246C180.868 41.459 181.028 41.6465 181.235 41.7871C181.446 41.9238 181.716 41.9922 182.044 41.9922C182.298 41.9922 182.514 41.9375 182.694 41.8281C182.874 41.7188 183.02 41.5684 183.134 41.377C183.251 41.1816 183.337 40.957 183.391 40.7031C183.446 40.4492 183.473 40.1797 183.473 39.8945ZM187.771 41.6406L187.765 42.6484C187.765 43.0469 187.665 43.457 187.466 43.8789C187.267 44.3008 187.003 44.6484 186.675 44.9219L185.919 44.4824C186.029 44.3066 186.128 44.1289 186.218 43.9492C186.308 43.7695 186.38 43.5781 186.435 43.375C186.49 43.1719 186.517 42.9473 186.517 42.7012V41.6406H187.771ZM198.317 38.0195V39.4141C198.317 40.082 198.251 40.6523 198.118 41.125C197.989 41.5938 197.801 41.9746 197.555 42.2676C197.309 42.5605 197.014 42.7754 196.671 42.9121C196.331 43.0488 195.95 43.1172 195.528 43.1172C195.192 43.1172 194.88 43.0742 194.591 42.9883C194.305 42.9023 194.048 42.7676 193.817 42.584C193.587 42.4004 193.389 42.1641 193.225 41.875C193.065 41.582 192.94 41.2324 192.85 40.8262C192.764 40.4199 192.721 39.9492 192.721 39.4141V38.0195C192.721 37.3477 192.788 36.7812 192.921 36.3203C193.053 35.8555 193.243 35.4785 193.489 35.1895C193.735 34.8965 194.028 34.6836 194.368 34.5508C194.712 34.418 195.094 34.3516 195.516 34.3516C195.856 34.3516 196.169 34.3945 196.454 34.4805C196.743 34.5625 197.001 34.6934 197.227 34.873C197.458 35.0527 197.653 35.2871 197.813 35.5762C197.977 35.8613 198.102 36.207 198.188 36.6133C198.274 37.0156 198.317 37.4844 198.317 38.0195ZM196.905 39.6133V37.8086C196.905 37.4688 196.885 37.1699 196.846 36.9121C196.807 36.6504 196.749 36.4297 196.671 36.25C196.596 36.0664 196.503 35.918 196.389 35.8047C196.276 35.6875 196.147 35.6035 196.003 35.5527C195.858 35.498 195.696 35.4707 195.516 35.4707C195.298 35.4707 195.102 35.5137 194.93 35.5996C194.759 35.6816 194.614 35.8145 194.497 35.998C194.38 36.1816 194.29 36.4238 194.227 36.7246C194.169 37.0215 194.139 37.3828 194.139 37.8086V39.6133C194.139 39.957 194.159 40.2598 194.198 40.5215C194.237 40.7832 194.296 41.0078 194.374 41.1953C194.452 41.3789 194.546 41.5312 194.655 41.6523C194.768 41.7695 194.897 41.8555 195.042 41.9102C195.19 41.9648 195.352 41.9922 195.528 41.9922C195.751 41.9922 195.948 41.9492 196.12 41.8633C196.292 41.7773 196.436 41.6406 196.553 41.4531C196.671 41.2617 196.759 41.0137 196.817 40.709C196.876 40.4043 196.905 40.0391 196.905 39.6133ZM200.077 42.2969C200.077 42.0781 200.152 41.8945 200.3 41.7461C200.449 41.5938 200.65 41.5176 200.904 41.5176C201.161 41.5176 201.363 41.5938 201.507 41.7461C201.656 41.8945 201.73 42.0781 201.73 42.2969C201.73 42.5156 201.656 42.6992 201.507 42.8477C201.363 42.9961 201.161 43.0703 200.904 43.0703C200.65 43.0703 200.449 42.9961 200.3 42.8477C200.152 42.6992 200.077 42.5156 200.077 42.2969ZM205.295 38.0957H206.139C206.467 38.0957 206.738 38.0391 206.953 37.9258C207.172 37.8125 207.334 37.6562 207.439 37.457C207.545 37.2578 207.598 37.0293 207.598 36.7715C207.598 36.502 207.549 36.2715 207.451 36.0801C207.357 35.8848 207.213 35.7344 207.018 35.6289C206.826 35.5234 206.582 35.4707 206.285 35.4707C206.035 35.4707 205.809 35.5215 205.605 35.623C205.406 35.7207 205.248 35.8613 205.131 36.0449C205.014 36.2246 204.955 36.4395 204.955 36.6895H203.537C203.537 36.2363 203.656 35.834 203.895 35.4824C204.133 35.1309 204.457 34.8555 204.867 34.6562C205.281 34.4531 205.746 34.3516 206.262 34.3516C206.812 34.3516 207.293 34.4434 207.703 34.627C208.117 34.8066 208.439 35.0762 208.67 35.4355C208.9 35.7949 209.016 36.2402 209.016 36.7715C209.016 37.0137 208.959 37.2598 208.846 37.5098C208.732 37.7598 208.564 37.9883 208.342 38.1953C208.119 38.3984 207.842 38.5645 207.51 38.6934C207.178 38.8184 206.793 38.8809 206.355 38.8809H205.295V38.0957ZM205.295 39.1973V38.4238H206.355C206.855 38.4238 207.281 38.4824 207.633 38.5996C207.988 38.7168 208.277 38.8789 208.5 39.0859C208.723 39.2891 208.885 39.5215 208.986 39.7832C209.092 40.0449 209.145 40.3223 209.145 40.6152C209.145 41.0137 209.072 41.3691 208.928 41.6816C208.787 41.9902 208.586 42.252 208.324 42.4668C208.062 42.6816 207.756 42.8438 207.404 42.9531C207.057 43.0625 206.678 43.1172 206.268 43.1172C205.9 43.1172 205.549 43.0664 205.213 42.9648C204.877 42.8633 204.576 42.7129 204.311 42.5137C204.045 42.3105 203.834 42.0586 203.678 41.7578C203.525 41.4531 203.449 41.1016 203.449 40.7031H204.861C204.861 40.957 204.92 41.1816 205.037 41.377C205.158 41.5684 205.326 41.7188 205.541 41.8281C205.76 41.9375 206.01 41.9922 206.291 41.9922C206.588 41.9922 206.844 41.9395 207.059 41.834C207.273 41.7285 207.438 41.5723 207.551 41.3652C207.668 41.1582 207.727 40.9082 207.727 40.6152C207.727 40.2832 207.662 40.0137 207.533 39.8066C207.404 39.5996 207.221 39.4473 206.982 39.3496C206.744 39.248 206.463 39.1973 206.139 39.1973H205.295ZM216.378 38.0195V39.4141C216.378 40.082 216.311 40.6523 216.178 41.125C216.049 41.5938 215.862 41.9746 215.616 42.2676C215.37 42.5605 215.075 42.7754 214.731 42.9121C214.391 43.0488 214.01 43.1172 213.589 43.1172C213.253 43.1172 212.94 43.0742 212.651 42.9883C212.366 42.9023 212.108 42.7676 211.878 42.584C211.647 42.4004 211.45 42.1641 211.286 41.875C211.126 41.582 211.001 41.2324 210.911 40.8262C210.825 40.4199 210.782 39.9492 210.782 39.4141V38.0195C210.782 37.3477 210.848 36.7812 210.981 36.3203C211.114 35.8555 211.303 35.4785 211.549 35.1895C211.796 34.8965 212.089 34.6836 212.428 34.5508C212.772 34.418 213.155 34.3516 213.577 34.3516C213.917 34.3516 214.229 34.3945 214.514 34.4805C214.803 34.5625 215.061 34.6934 215.288 34.873C215.518 35.0527 215.714 35.2871 215.874 35.5762C216.038 35.8613 216.163 36.207 216.249 36.6133C216.335 37.0156 216.378 37.4844 216.378 38.0195ZM214.965 39.6133V37.8086C214.965 37.4688 214.946 37.1699 214.907 36.9121C214.868 36.6504 214.809 36.4297 214.731 36.25C214.657 36.0664 214.563 35.918 214.45 35.8047C214.337 35.6875 214.208 35.6035 214.063 35.5527C213.919 35.498 213.756 35.4707 213.577 35.4707C213.358 35.4707 213.163 35.5137 212.991 35.5996C212.819 35.6816 212.674 35.8145 212.557 35.998C212.44 36.1816 212.35 36.4238 212.288 36.7246C212.229 37.0215 212.2 37.3828 212.2 37.8086V39.6133C212.2 39.957 212.219 40.2598 212.258 40.5215C212.298 40.7832 212.356 41.0078 212.434 41.1953C212.512 41.3789 212.606 41.5312 212.715 41.6523C212.829 41.7695 212.958 41.8555 213.102 41.9102C213.251 41.9648 213.413 41.9922 213.589 41.9922C213.811 41.9922 214.008 41.9492 214.18 41.8633C214.352 41.7773 214.497 41.6406 214.614 41.4531C214.731 41.2617 214.819 41.0137 214.878 40.709C214.936 40.4043 214.965 40.0391 214.965 39.6133Z" fill="black"/>
<path d="M54 54L56.5 55.4434V52.5566L54 54ZM110 53.75L56.25 53.75V54.25L110 54.25V53.75Z" fill="#C0433A"/>
<line x1="109.75" y1="54" x2="109.75" y2="47" stroke="#C0433A" stroke-width="0.5"/>
<path d="M15.9219 51.4453V55H15.4507V51.4453H15.9219ZM17.4111 53.0444V53.4302H15.8193V53.0444H17.4111ZM17.6528 51.4453V51.8311H15.8193V51.4453H17.6528ZM18.6367 51.25V55H18.1826V51.25H18.6367ZM20.9194 54.5483V53.1885C20.9194 53.0843 20.8983 52.994 20.856 52.9175C20.8153 52.8394 20.7534 52.7791 20.6704 52.7368C20.5874 52.6945 20.4849 52.6733 20.3628 52.6733C20.2489 52.6733 20.1488 52.6929 20.0625 52.7319C19.9779 52.771 19.9111 52.8223 19.8623 52.8857C19.8151 52.9492 19.7915 53.0176 19.7915 53.0908H19.3398C19.3398 52.9964 19.3643 52.9028 19.4131 52.8101C19.4619 52.7173 19.5319 52.6335 19.623 52.5586C19.7158 52.4821 19.8265 52.4219 19.9551 52.3779C20.0853 52.3324 20.2301 52.3096 20.3896 52.3096C20.5817 52.3096 20.751 52.3421 20.8975 52.4072C21.0456 52.4723 21.1611 52.5708 21.2441 52.7026C21.3288 52.8328 21.3711 52.9964 21.3711 53.1934V54.4238C21.3711 54.5117 21.3784 54.6053 21.3931 54.7046C21.4093 54.8039 21.4329 54.8893 21.4639 54.9609V55H20.9927C20.9699 54.9479 20.952 54.8787 20.939 54.7925C20.9259 54.7046 20.9194 54.6232 20.9194 54.5483ZM20.9976 53.3984L21.0024 53.7158H20.5459C20.4173 53.7158 20.3026 53.7264 20.2017 53.7476C20.1007 53.7671 20.0161 53.7972 19.9478 53.8379C19.8794 53.8786 19.8273 53.9299 19.7915 53.9917C19.7557 54.0519 19.7378 54.1227 19.7378 54.2041C19.7378 54.2871 19.7565 54.3628 19.7939 54.4312C19.8314 54.4995 19.8875 54.554 19.9624 54.5947C20.0389 54.6338 20.1325 54.6533 20.2432 54.6533C20.3815 54.6533 20.5036 54.624 20.6094 54.5654C20.7152 54.5068 20.799 54.4352 20.8608 54.3506C20.9243 54.266 20.9585 54.1838 20.9634 54.104L21.1562 54.3213C21.1449 54.3896 21.1139 54.4653 21.0635 54.5483C21.013 54.6313 20.9455 54.7111 20.8608 54.7876C20.7778 54.8625 20.6785 54.9251 20.563 54.9756C20.4491 55.0244 20.3205 55.0488 20.1772 55.0488C19.9982 55.0488 19.8411 55.0138 19.7061 54.9438C19.5726 54.8739 19.4684 54.7803 19.3936 54.6631C19.3203 54.5443 19.2837 54.4116 19.2837 54.2651C19.2837 54.1235 19.3114 53.999 19.3667 53.8916C19.422 53.7826 19.5018 53.6922 19.606 53.6206C19.7101 53.5474 19.8354 53.492 19.9819 53.4546C20.1284 53.4172 20.292 53.3984 20.4727 53.3984H20.9976ZM23.793 52.3584H24.2031V54.9438C24.2031 55.1766 24.1559 55.3752 24.0615 55.5396C23.9671 55.7039 23.8353 55.8285 23.666 55.9131C23.4984 55.9993 23.3047 56.0425 23.085 56.0425C22.9938 56.0425 22.8864 56.0278 22.7627 55.9985C22.6406 55.9709 22.5202 55.9229 22.4014 55.8545C22.2842 55.7878 22.1857 55.6974 22.106 55.5835L22.3428 55.3149C22.4535 55.4484 22.569 55.5412 22.6895 55.5933C22.8115 55.6453 22.932 55.6714 23.0508 55.6714C23.194 55.6714 23.3177 55.6445 23.4219 55.5908C23.526 55.5371 23.6066 55.4574 23.6636 55.3516C23.7222 55.2474 23.7515 55.1188 23.7515 54.9658V52.9395L23.793 52.3584ZM21.9741 53.7085V53.6572C21.9741 53.4554 21.9977 53.2723 22.0449 53.1079C22.0938 52.9419 22.1629 52.7995 22.2524 52.6807C22.3436 52.5618 22.4535 52.4707 22.582 52.4072C22.7106 52.3421 22.8555 52.3096 23.0166 52.3096C23.1826 52.3096 23.3275 52.3389 23.4512 52.3975C23.5765 52.4544 23.6823 52.5382 23.7686 52.6489C23.8564 52.758 23.9256 52.8898 23.9761 53.0444C24.0265 53.1991 24.0615 53.374 24.0811 53.5693V53.7939C24.0632 53.9876 24.0282 54.1618 23.9761 54.3164C23.9256 54.471 23.8564 54.6029 23.7686 54.7119C23.6823 54.821 23.5765 54.9048 23.4512 54.9634C23.3258 55.0203 23.1794 55.0488 23.0117 55.0488C22.8538 55.0488 22.7106 55.0155 22.582 54.9487C22.4551 54.882 22.346 54.7884 22.2549 54.668C22.1637 54.5475 22.0938 54.4059 22.0449 54.2432C21.9977 54.0788 21.9741 53.9006 21.9741 53.7085ZM22.4258 53.6572V53.7085C22.4258 53.8403 22.4388 53.964 22.4648 54.0796C22.4925 54.1951 22.534 54.2969 22.5894 54.3848C22.6463 54.4727 22.7188 54.5418 22.8066 54.5923C22.8945 54.6411 22.9995 54.6655 23.1216 54.6655C23.2713 54.6655 23.395 54.6338 23.4927 54.5703C23.5903 54.5068 23.6676 54.423 23.7246 54.3188C23.7832 54.2147 23.8288 54.1016 23.8613 53.9795V53.3911C23.8434 53.3016 23.8158 53.2153 23.7783 53.1323C23.7425 53.0477 23.6953 52.9728 23.6367 52.9077C23.5798 52.841 23.509 52.7881 23.4243 52.749C23.3397 52.71 23.2404 52.6904 23.1265 52.6904C23.0028 52.6904 22.8962 52.7165 22.8066 52.7686C22.7188 52.819 22.6463 52.889 22.5894 52.9785C22.534 53.0664 22.4925 53.1689 22.4648 53.2861C22.4388 53.4017 22.4258 53.5254 22.4258 53.6572ZM27.2354 52.3584V52.7051H25.8071V52.3584H27.2354ZM26.2905 51.7163H26.7422V54.3457C26.7422 54.4352 26.756 54.5028 26.7837 54.5483C26.8114 54.5939 26.8472 54.624 26.8911 54.6387C26.9351 54.6533 26.9823 54.6606 27.0327 54.6606C27.0701 54.6606 27.1092 54.6574 27.1499 54.6509C27.1922 54.6427 27.224 54.6362 27.2451 54.6313L27.2476 55C27.2118 55.0114 27.1646 55.022 27.106 55.0317C27.049 55.0431 26.9798 55.0488 26.8984 55.0488C26.7878 55.0488 26.686 55.0269 26.5933 54.9829C26.5005 54.939 26.4264 54.8657 26.3711 54.7632C26.3174 54.659 26.2905 54.519 26.2905 54.3433V51.7163ZM27.5967 53.7085V53.6523C27.5967 53.4619 27.6243 53.2853 27.6797 53.1226C27.735 52.9582 27.8148 52.8158 27.9189 52.6953C28.0231 52.5732 28.1493 52.4788 28.2974 52.4121C28.4455 52.3438 28.6115 52.3096 28.7954 52.3096C28.981 52.3096 29.1478 52.3438 29.2959 52.4121C29.4456 52.4788 29.5726 52.5732 29.6768 52.6953C29.7826 52.8158 29.8631 52.9582 29.9185 53.1226C29.9738 53.2853 30.0015 53.4619 30.0015 53.6523V53.7085C30.0015 53.8989 29.9738 54.0755 29.9185 54.2383C29.8631 54.401 29.7826 54.5435 29.6768 54.6655C29.5726 54.786 29.4465 54.8804 29.2983 54.9487C29.1519 55.0155 28.9858 55.0488 28.8003 55.0488C28.6147 55.0488 28.4479 55.0155 28.2998 54.9487C28.1517 54.8804 28.0247 54.786 27.9189 54.6655C27.8148 54.5435 27.735 54.401 27.6797 54.2383C27.6243 54.0755 27.5967 53.8989 27.5967 53.7085ZM28.0483 53.6523V53.7085C28.0483 53.8403 28.0638 53.9648 28.0947 54.082C28.1257 54.1976 28.172 54.3001 28.2339 54.3896C28.2974 54.4792 28.3763 54.55 28.4707 54.6021C28.5651 54.6525 28.675 54.6777 28.8003 54.6777C28.924 54.6777 29.0322 54.6525 29.125 54.6021C29.2194 54.55 29.2975 54.4792 29.3594 54.3896C29.4212 54.3001 29.4676 54.1976 29.4985 54.082C29.5311 53.9648 29.5474 53.8403 29.5474 53.7085V53.6523C29.5474 53.5221 29.5311 53.3993 29.4985 53.2837C29.4676 53.1665 29.4204 53.0632 29.3569 52.9736C29.2951 52.8825 29.217 52.8109 29.1226 52.7588C29.0298 52.7067 28.9207 52.6807 28.7954 52.6807C28.6717 52.6807 28.5627 52.7067 28.4683 52.7588C28.3755 52.8109 28.2974 52.8825 28.2339 52.9736C28.172 53.0632 28.1257 53.1665 28.0947 53.2837C28.0638 53.3993 28.0483 53.5221 28.0483 53.6523ZM31.8057 51.25H32.2598V54.4873L32.2207 55H31.8057V51.25ZM34.0444 53.6572V53.7085C34.0444 53.9006 34.0216 54.0788 33.9761 54.2432C33.9305 54.4059 33.8638 54.5475 33.7759 54.668C33.688 54.7884 33.5806 54.882 33.4536 54.9487C33.3267 55.0155 33.181 55.0488 33.0166 55.0488C32.849 55.0488 32.7017 55.0203 32.5747 54.9634C32.4494 54.9048 32.3436 54.821 32.2573 54.7119C32.1711 54.6029 32.1019 54.471 32.0498 54.3164C31.9993 54.1618 31.9644 53.9876 31.9448 53.7939V53.5693C31.9644 53.374 31.9993 53.1991 32.0498 53.0444C32.1019 52.8898 32.1711 52.758 32.2573 52.6489C32.3436 52.5382 32.4494 52.4544 32.5747 52.3975C32.7 52.3389 32.8457 52.3096 33.0117 52.3096C33.1777 52.3096 33.325 52.3421 33.4536 52.4072C33.5822 52.4707 33.6896 52.5618 33.7759 52.6807C33.8638 52.7995 33.9305 52.9419 33.9761 53.1079C34.0216 53.2723 34.0444 53.4554 34.0444 53.6572ZM33.5903 53.7085V53.6572C33.5903 53.5254 33.5781 53.4017 33.5537 53.2861C33.5293 53.1689 33.4902 53.0664 33.4365 52.9785C33.3828 52.889 33.312 52.819 33.2241 52.7686C33.1362 52.7165 33.028 52.6904 32.8994 52.6904C32.7855 52.6904 32.6862 52.71 32.6016 52.749C32.5186 52.7881 32.4478 52.841 32.3892 52.9077C32.3306 52.9728 32.2826 53.0477 32.2451 53.1323C32.2093 53.2153 32.1825 53.3016 32.1646 53.3911V53.9795C32.1906 54.0934 32.2329 54.2033 32.2915 54.3091C32.3517 54.4132 32.4315 54.4987 32.5308 54.5654C32.6317 54.6322 32.7562 54.6655 32.9043 54.6655C33.0264 54.6655 33.1305 54.6411 33.2168 54.5923C33.3047 54.5418 33.3755 54.4727 33.4292 54.3848C33.4845 54.2969 33.5252 54.1951 33.5513 54.0796C33.5773 53.964 33.5903 53.8403 33.5903 53.7085ZM35.7119 55.0488C35.528 55.0488 35.3612 55.0179 35.2114 54.9561C35.0633 54.8926 34.9355 54.8039 34.8281 54.6899C34.7223 54.576 34.641 54.4409 34.584 54.2847C34.527 54.1284 34.4985 53.9575 34.4985 53.772V53.6694C34.4985 53.4546 34.5303 53.2633 34.5938 53.0957C34.6572 52.9264 34.7435 52.7832 34.8525 52.666C34.9616 52.5488 35.0853 52.4601 35.2236 52.3999C35.362 52.3397 35.5052 52.3096 35.6533 52.3096C35.8421 52.3096 36.0049 52.3421 36.1416 52.4072C36.2799 52.4723 36.3931 52.5635 36.481 52.6807C36.5688 52.7962 36.634 52.9329 36.6763 53.0908C36.7186 53.2471 36.7397 53.418 36.7397 53.6035V53.8062H34.7671V53.4375H36.2881V53.4033C36.2816 53.2861 36.2572 53.1722 36.2148 53.0615C36.1742 52.9508 36.109 52.8597 36.0195 52.7881C35.93 52.7165 35.8079 52.6807 35.6533 52.6807C35.5508 52.6807 35.4564 52.7026 35.3701 52.7466C35.2839 52.7889 35.2098 52.8524 35.1479 52.937C35.0861 53.0216 35.0381 53.125 35.0039 53.2471C34.9697 53.3691 34.9526 53.5099 34.9526 53.6694V53.772C34.9526 53.8973 34.9697 54.0153 35.0039 54.126C35.0397 54.235 35.091 54.3311 35.1577 54.4141C35.2261 54.4971 35.3083 54.5622 35.4043 54.6094C35.502 54.6566 35.6126 54.6802 35.7363 54.6802C35.8958 54.6802 36.0309 54.6476 36.1416 54.5825C36.2523 54.5174 36.3491 54.4303 36.4321 54.3213L36.7056 54.5386C36.6486 54.6248 36.5762 54.707 36.4883 54.7852C36.4004 54.8633 36.2922 54.9268 36.1636 54.9756C36.0366 55.0244 35.8861 55.0488 35.7119 55.0488ZM39.6035 55.0488C39.4196 55.0488 39.2528 55.0179 39.103 54.9561C38.9549 54.8926 38.8271 54.8039 38.7197 54.6899C38.6139 54.576 38.5326 54.4409 38.4756 54.2847C38.4186 54.1284 38.3901 53.9575 38.3901 53.772V53.6694C38.3901 53.4546 38.4219 53.2633 38.4854 53.0957C38.5488 52.9264 38.6351 52.7832 38.7441 52.666C38.8532 52.5488 38.9769 52.4601 39.1152 52.3999C39.2536 52.3397 39.3968 52.3096 39.5449 52.3096C39.7337 52.3096 39.8965 52.3421 40.0332 52.4072C40.1715 52.4723 40.2847 52.5635 40.3726 52.6807C40.4604 52.7962 40.5256 52.9329 40.5679 53.0908C40.6102 53.2471 40.6313 53.418 40.6313 53.6035V53.8062H38.6587V53.4375H40.1797V53.4033C40.1732 53.2861 40.1488 53.1722 40.1064 53.0615C40.0658 52.9508 40.0007 52.8597 39.9111 52.7881C39.8216 52.7165 39.6995 52.6807 39.5449 52.6807C39.4424 52.6807 39.348 52.7026 39.2617 52.7466C39.1755 52.7889 39.1014 52.8524 39.0396 52.937C38.9777 53.0216 38.9297 53.125 38.8955 53.2471C38.8613 53.3691 38.8442 53.5099 38.8442 53.6694V53.772C38.8442 53.8973 38.8613 54.0153 38.8955 54.126C38.9313 54.235 38.9826 54.3311 39.0493 54.4141C39.1177 54.4971 39.1999 54.5622 39.2959 54.6094C39.3936 54.6566 39.5042 54.6802 39.6279 54.6802C39.7874 54.6802 39.9225 54.6476 40.0332 54.5825C40.1439 54.5174 40.2407 54.4303 40.3237 54.3213L40.5972 54.5386C40.5402 54.6248 40.4678 54.707 40.3799 54.7852C40.292 54.8633 40.1838 54.9268 40.0552 54.9756C39.9282 55.0244 39.7777 55.0488 39.6035 55.0488ZM42.8237 54.4873V51.25H43.2778V55H42.8628L42.8237 54.4873ZM41.0464 53.7085V53.6572C41.0464 53.4554 41.0708 53.2723 41.1196 53.1079C41.1701 52.9419 41.2409 52.7995 41.332 52.6807C41.4248 52.5618 41.5347 52.4707 41.6616 52.4072C41.7902 52.3421 41.9334 52.3096 42.0913 52.3096C42.2573 52.3096 42.4022 52.3389 42.5259 52.3975C42.6512 52.4544 42.757 52.5382 42.8433 52.6489C42.9312 52.758 43.0003 52.8898 43.0508 53.0444C43.1012 53.1991 43.1362 53.374 43.1558 53.5693V53.7939C43.1379 53.9876 43.1029 54.1618 43.0508 54.3164C43.0003 54.471 42.9312 54.6029 42.8433 54.7119C42.757 54.821 42.6512 54.9048 42.5259 54.9634C42.4006 55.0203 42.2541 55.0488 42.0864 55.0488C41.9318 55.0488 41.7902 55.0155 41.6616 54.9487C41.5347 54.882 41.4248 54.7884 41.332 54.668C41.2409 54.5475 41.1701 54.4059 41.1196 54.2432C41.0708 54.0788 41.0464 53.9006 41.0464 53.7085ZM41.5005 53.6572V53.7085C41.5005 53.8403 41.5135 53.964 41.5396 54.0796C41.5672 54.1951 41.6095 54.2969 41.6665 54.3848C41.7235 54.4727 41.7959 54.5418 41.8838 54.5923C41.9717 54.6411 42.0767 54.6655 42.1987 54.6655C42.3485 54.6655 42.4714 54.6338 42.5674 54.5703C42.665 54.5068 42.7432 54.423 42.8018 54.3188C42.8604 54.2147 42.9059 54.1016 42.9385 53.9795V53.3911C42.9189 53.3016 42.8905 53.2153 42.853 53.1323C42.8172 53.0477 42.77 52.9728 42.7114 52.9077C42.6545 52.841 42.5837 52.7881 42.499 52.749C42.416 52.71 42.3175 52.6904 42.2036 52.6904C42.0799 52.6904 41.9733 52.7165 41.8838 52.7686C41.7959 52.819 41.7235 52.889 41.6665 52.9785C41.6095 53.0664 41.5672 53.1689 41.5396 53.2861C41.5135 53.4017 41.5005 53.5254 41.5005 53.6572ZM44.4717 52.3584V55H44.0176V52.3584H44.4717ZM43.9834 51.6577C43.9834 51.5845 44.0054 51.5226 44.0493 51.4722C44.0949 51.4217 44.1616 51.3965 44.2495 51.3965C44.3358 51.3965 44.4017 51.4217 44.4473 51.4722C44.4945 51.5226 44.5181 51.5845 44.5181 51.6577C44.5181 51.7277 44.4945 51.7879 44.4473 51.8384C44.4017 51.8872 44.3358 51.9116 44.2495 51.9116C44.1616 51.9116 44.0949 51.8872 44.0493 51.8384C44.0054 51.7879 43.9834 51.7277 43.9834 51.6577ZM46.3027 52.3584V52.7051H44.8745V52.3584H46.3027ZM45.3579 51.7163H45.8096V54.3457C45.8096 54.4352 45.8234 54.5028 45.8511 54.5483C45.8787 54.5939 45.9146 54.624 45.9585 54.6387C46.0024 54.6533 46.0496 54.6606 46.1001 54.6606C46.1375 54.6606 46.1766 54.6574 46.2173 54.6509C46.2596 54.6427 46.2913 54.6362 46.3125 54.6313L46.3149 55C46.2791 55.0114 46.2319 55.022 46.1733 55.0317C46.1164 55.0431 46.0472 55.0488 45.9658 55.0488C45.8551 55.0488 45.7534 55.0269 45.6606 54.9829C45.5679 54.939 45.4938 54.8657 45.4385 54.7632C45.3848 54.659 45.3579 54.519 45.3579 54.3433V51.7163ZM47.9287 55.0488C47.7448 55.0488 47.578 55.0179 47.4282 54.9561C47.2801 54.8926 47.1523 54.8039 47.0449 54.6899C46.9391 54.576 46.8577 54.4409 46.8008 54.2847C46.7438 54.1284 46.7153 53.9575 46.7153 53.772V53.6694C46.7153 53.4546 46.7471 53.2633 46.8105 53.0957C46.874 52.9264 46.9603 52.7832 47.0693 52.666C47.1784 52.5488 47.3021 52.4601 47.4404 52.3999C47.5788 52.3397 47.722 52.3096 47.8701 52.3096C48.0589 52.3096 48.2217 52.3421 48.3584 52.4072C48.4967 52.4723 48.6099 52.5635 48.6978 52.6807C48.7856 52.7962 48.8507 52.9329 48.8931 53.0908C48.9354 53.2471 48.9565 53.418 48.9565 53.6035V53.8062H46.9839V53.4375H48.5049V53.4033C48.4984 53.2861 48.474 53.1722 48.4316 53.0615C48.391 52.9508 48.3258 52.8597 48.2363 52.7881C48.1468 52.7165 48.0247 52.6807 47.8701 52.6807C47.7676 52.6807 47.6732 52.7026 47.5869 52.7466C47.5007 52.7889 47.4266 52.8524 47.3647 52.937C47.3029 53.0216 47.2549 53.125 47.2207 53.2471C47.1865 53.3691 47.1694 53.5099 47.1694 53.6694V53.772C47.1694 53.8973 47.1865 54.0153 47.2207 54.126C47.2565 54.235 47.3078 54.3311 47.3745 54.4141C47.4429 54.4971 47.5251 54.5622 47.6211 54.6094C47.7188 54.6566 47.8294 54.6802 47.9531 54.6802C48.1126 54.6802 48.2477 54.6476 48.3584 54.5825C48.4691 54.5174 48.5659 54.4303 48.6489 54.3213L48.9224 54.5386C48.8654 54.6248 48.793 54.707 48.7051 54.7852C48.6172 54.8633 48.509 54.9268 48.3804 54.9756C48.2534 55.0244 48.1029 55.0488 47.9287 55.0488ZM51.1489 54.4873V51.25H51.603V55H51.188L51.1489 54.4873ZM49.3716 53.7085V53.6572C49.3716 53.4554 49.396 53.2723 49.4448 53.1079C49.4953 52.9419 49.5661 52.7995 49.6572 52.6807C49.75 52.5618 49.8599 52.4707 49.9868 52.4072C50.1154 52.3421 50.2586 52.3096 50.4165 52.3096C50.5825 52.3096 50.7274 52.3389 50.8511 52.3975C50.9764 52.4544 51.0822 52.5382 51.1685 52.6489C51.2563 52.758 51.3255 52.8898 51.376 53.0444C51.4264 53.1991 51.4614 53.374 51.481 53.5693V53.7939C51.4631 53.9876 51.4281 54.1618 51.376 54.3164C51.3255 54.471 51.2563 54.6029 51.1685 54.7119C51.0822 54.821 50.9764 54.9048 50.8511 54.9634C50.7257 55.0203 50.5793 55.0488 50.4116 55.0488C50.257 55.0488 50.1154 55.0155 49.9868 54.9487C49.8599 54.882 49.75 54.7884 49.6572 54.668C49.5661 54.5475 49.4953 54.4059 49.4448 54.2432C49.396 54.0788 49.3716 53.9006 49.3716 53.7085ZM49.8257 53.6572V53.7085C49.8257 53.8403 49.8387 53.964 49.8647 54.0796C49.8924 54.1951 49.9347 54.2969 49.9917 54.3848C50.0487 54.4727 50.1211 54.5418 50.209 54.5923C50.2969 54.6411 50.4019 54.6655 50.5239 54.6655C50.6737 54.6655 50.7965 54.6338 50.8926 54.5703C50.9902 54.5068 51.0684 54.423 51.127 54.3188C51.1855 54.2147 51.2311 54.1016 51.2637 53.9795V53.3911C51.2441 53.3016 51.2157 53.2153 51.1782 53.1323C51.1424 53.0477 51.0952 52.9728 51.0366 52.9077C50.9797 52.841 50.9089 52.7881 50.8242 52.749C50.7412 52.71 50.6427 52.6904 50.5288 52.6904C50.4051 52.6904 50.2985 52.7165 50.209 52.7686C50.1211 52.819 50.0487 52.889 49.9917 52.9785C49.9347 53.0664 49.8924 53.1689 49.8647 53.2861C49.8387 53.4017 49.8257 53.5254 49.8257 53.6572Z" fill="black"/>
<path d="M54 25L56.5 26.4434V23.5566L54 25ZM99 24.75L56.25 24.75V25.25L99 25.25V24.75Z" fill="#817033"/>
<line y1="-0.25" x2="7" y2="-0.25" transform="matrix(0 1 1 0 99 25)" stroke="#817033" stroke-width="0.5"/>
<path d="M18.75 23.4453H19.9268C20.1937 23.4453 20.4191 23.486 20.603 23.5674C20.7886 23.6488 20.9294 23.7692 21.0254 23.9287C21.123 24.0866 21.1719 24.2811 21.1719 24.5122C21.1719 24.675 21.1385 24.8239 21.0718 24.959C21.0067 25.0924 20.9123 25.2064 20.7886 25.3008C20.6665 25.3936 20.52 25.4627 20.3491 25.5083L20.2173 25.5596H19.1113L19.1064 25.1763H19.9414C20.1107 25.1763 20.2515 25.147 20.3638 25.0884C20.4761 25.0282 20.5607 24.9476 20.6177 24.8467C20.6746 24.7458 20.7031 24.6343 20.7031 24.5122C20.7031 24.3755 20.6763 24.2559 20.6226 24.1533C20.5688 24.0508 20.4842 23.9718 20.3687 23.9165C20.2547 23.8595 20.1074 23.8311 19.9268 23.8311H19.2212V27H18.75V23.4453ZM20.8276 27L19.9634 25.3887L20.4541 25.3862L21.3306 26.9707V27H20.8276ZM22.8589 27.0488C22.675 27.0488 22.5081 27.0179 22.3584 26.9561C22.2103 26.8926 22.0825 26.8039 21.9751 26.6899C21.8693 26.576 21.7879 26.4409 21.731 26.2847C21.674 26.1284 21.6455 25.9575 21.6455 25.772V25.6694C21.6455 25.4546 21.6772 25.2633 21.7407 25.0957C21.8042 24.9264 21.8905 24.7832 21.9995 24.666C22.1086 24.5488 22.2323 24.4601 22.3706 24.3999C22.509 24.3397 22.6522 24.3096 22.8003 24.3096C22.9891 24.3096 23.1519 24.3421 23.2886 24.4072C23.4269 24.4723 23.54 24.5635 23.6279 24.6807C23.7158 24.7962 23.7809 24.9329 23.8232 25.0908C23.8656 25.2471 23.8867 25.418 23.8867 25.6035V25.8062H21.9141V25.4375H23.4351V25.4033C23.4285 25.2861 23.4041 25.1722 23.3618 25.0615C23.3211 24.9508 23.256 24.8597 23.1665 24.7881C23.077 24.7165 22.9549 24.6807 22.8003 24.6807C22.6978 24.6807 22.6034 24.7026 22.5171 24.7466C22.4308 24.7889 22.3568 24.8524 22.2949 24.937C22.2331 25.0216 22.1851 25.125 22.1509 25.2471C22.1167 25.3691 22.0996 25.5099 22.0996 25.6694V25.772C22.0996 25.8973 22.1167 26.0153 22.1509 26.126C22.1867 26.235 22.238 26.3311 22.3047 26.4141C22.373 26.4971 22.4552 26.5622 22.5513 26.6094C22.6489 26.6566 22.7596 26.6802 22.8833 26.6802C23.0428 26.6802 23.1779 26.6476 23.2886 26.5825C23.3993 26.5174 23.4961 26.4303 23.5791 26.3213L23.8525 26.5386C23.7956 26.6248 23.7231 26.707 23.6353 26.7852C23.5474 26.8633 23.4391 26.9268 23.3105 26.9756C23.1836 27.0244 23.033 27.0488 22.8589 27.0488ZM25.4712 26.6777C25.5786 26.6777 25.6779 26.6558 25.769 26.6118C25.8602 26.5679 25.9351 26.5076 25.9937 26.4312C26.0522 26.353 26.0856 26.2643 26.0938 26.165H26.5234C26.5153 26.3213 26.4624 26.467 26.3647 26.6021C26.2687 26.7355 26.1426 26.8438 25.9863 26.9268C25.8301 27.0081 25.6584 27.0488 25.4712 27.0488C25.2726 27.0488 25.0993 27.0138 24.9512 26.9438C24.8047 26.8739 24.6826 26.7778 24.585 26.6558C24.4889 26.5337 24.4165 26.3937 24.3677 26.2358C24.3205 26.0763 24.2969 25.9079 24.2969 25.7305V25.6279C24.2969 25.4505 24.3205 25.2829 24.3677 25.125C24.4165 24.9655 24.4889 24.8247 24.585 24.7026C24.6826 24.5806 24.8047 24.4845 24.9512 24.4146C25.0993 24.3446 25.2726 24.3096 25.4712 24.3096C25.6779 24.3096 25.8586 24.3519 26.0132 24.4365C26.1678 24.5195 26.2891 24.6335 26.377 24.7783C26.4665 24.9215 26.5153 25.0843 26.5234 25.2666H26.0938C26.0856 25.1576 26.0547 25.0591 26.001 24.9712C25.9489 24.8833 25.8773 24.8133 25.7861 24.7612C25.6966 24.7075 25.5916 24.6807 25.4712 24.6807C25.3328 24.6807 25.2165 24.7083 25.1221 24.7637C25.0293 24.8174 24.9552 24.8906 24.8999 24.9834C24.8462 25.0745 24.8071 25.1763 24.7827 25.2886C24.7599 25.3993 24.7485 25.5124 24.7485 25.6279V25.7305C24.7485 25.846 24.7599 25.96 24.7827 26.0723C24.8055 26.1846 24.8438 26.2863 24.8975 26.3774C24.9528 26.4686 25.0269 26.5418 25.1196 26.5972C25.214 26.6509 25.3312 26.6777 25.4712 26.6777ZM27.522 24.3584V27H27.0679V24.3584H27.522ZM27.0337 23.6577C27.0337 23.5845 27.0557 23.5226 27.0996 23.4722C27.1452 23.4217 27.2119 23.3965 27.2998 23.3965C27.3861 23.3965 27.452 23.4217 27.4976 23.4722C27.5448 23.5226 27.5684 23.5845 27.5684 23.6577C27.5684 23.7277 27.5448 23.7879 27.4976 23.8384C27.452 23.8872 27.3861 23.9116 27.2998 23.9116C27.2119 23.9116 27.1452 23.8872 27.0996 23.8384C27.0557 23.7879 27.0337 23.7277 27.0337 23.6577ZM28.6987 24.8662V28.0156H28.2446V24.3584H28.6597L28.6987 24.8662ZM30.4785 25.6572V25.7085C30.4785 25.9006 30.4557 26.0788 30.4102 26.2432C30.3646 26.4059 30.2979 26.5475 30.21 26.668C30.1237 26.7884 30.0171 26.882 29.8901 26.9487C29.7632 27.0155 29.6175 27.0488 29.4531 27.0488C29.2855 27.0488 29.1374 27.0212 29.0088 26.9658C28.8802 26.9105 28.7712 26.8299 28.6816 26.7241C28.5921 26.6183 28.5205 26.4914 28.4668 26.3433C28.4147 26.1951 28.3789 26.0283 28.3594 25.8428V25.5693C28.3789 25.374 28.4155 25.1991 28.4692 25.0444C28.5229 24.8898 28.5938 24.758 28.6816 24.6489C28.7712 24.5382 28.8794 24.4544 29.0063 24.3975C29.1333 24.3389 29.2798 24.3096 29.4458 24.3096C29.6118 24.3096 29.7591 24.3421 29.8877 24.4072C30.0163 24.4707 30.1245 24.5618 30.2124 24.6807C30.3003 24.7995 30.3662 24.9419 30.4102 25.1079C30.4557 25.2723 30.4785 25.4554 30.4785 25.6572ZM30.0244 25.7085V25.6572C30.0244 25.5254 30.0106 25.4017 29.9829 25.2861C29.9552 25.1689 29.9121 25.0664 29.8535 24.9785C29.7965 24.889 29.7233 24.819 29.6338 24.7686C29.5443 24.7165 29.4377 24.6904 29.314 24.6904C29.2 24.6904 29.1007 24.71 29.0161 24.749C28.9331 24.7881 28.8623 24.841 28.8037 24.9077C28.7451 24.9728 28.6971 25.0477 28.6597 25.1323C28.6239 25.2153 28.597 25.3016 28.5791 25.3911V26.0234C28.6117 26.1374 28.6572 26.2448 28.7158 26.3457C28.7744 26.445 28.8525 26.5256 28.9502 26.5874C29.0479 26.6476 29.1707 26.6777 29.3188 26.6777C29.4409 26.6777 29.5459 26.6525 29.6338 26.6021C29.7233 26.55 29.7965 26.4792 29.8535 26.3896C29.9121 26.3001 29.9552 26.1976 29.9829 26.082C30.0106 25.9648 30.0244 25.8403 30.0244 25.7085ZM32.1509 27.0488C31.967 27.0488 31.8001 27.0179 31.6504 26.9561C31.5023 26.8926 31.3745 26.8039 31.2671 26.6899C31.1613 26.576 31.0799 26.4409 31.0229 26.2847C30.966 26.1284 30.9375 25.9575 30.9375 25.772V25.6694C30.9375 25.4546 30.9692 25.2633 31.0327 25.0957C31.0962 24.9264 31.1825 24.7832 31.2915 24.666C31.4006 24.5488 31.5243 24.4601 31.6626 24.3999C31.8009 24.3397 31.9442 24.3096 32.0923 24.3096C32.2811 24.3096 32.4438 24.3421 32.5806 24.4072C32.7189 24.4723 32.832 24.5635 32.9199 24.6807C33.0078 24.7962 33.0729 24.9329 33.1152 25.0908C33.1576 25.2471 33.1787 25.418 33.1787 25.6035V25.8062H31.2061V25.4375H32.7271V25.4033C32.7205 25.2861 32.6961 25.1722 32.6538 25.0615C32.6131 24.9508 32.548 24.8597 32.4585 24.7881C32.369 24.7165 32.2469 24.6807 32.0923 24.6807C31.9897 24.6807 31.8953 24.7026 31.8091 24.7466C31.7228 24.7889 31.6488 24.8524 31.5869 24.937C31.5251 25.0216 31.4771 25.125 31.4429 25.2471C31.4087 25.3691 31.3916 25.5099 31.3916 25.6694V25.772C31.3916 25.8973 31.4087 26.0153 31.4429 26.126C31.4787 26.235 31.5299 26.3311 31.5967 26.4141C31.665 26.4971 31.7472 26.5622 31.8433 26.6094C31.9409 26.6566 32.0516 26.6802 32.1753 26.6802C32.3348 26.6802 32.4699 26.6476 32.5806 26.5825C32.6912 26.5174 32.7881 26.4303 32.8711 26.3213L33.1445 26.5386C33.0876 26.6248 33.0151 26.707 32.9272 26.7852C32.8394 26.8633 32.7311 26.9268 32.6025 26.9756C32.4756 27.0244 32.325 27.0488 32.1509 27.0488ZM35.3979 24.9224V27H34.9463V24.3584H35.3735L35.3979 24.9224ZM35.2905 25.5791L35.1025 25.5718C35.1042 25.3911 35.131 25.2243 35.1831 25.0713C35.2352 24.9167 35.3084 24.7824 35.4028 24.6685C35.4972 24.5545 35.6095 24.4666 35.7397 24.4048C35.8716 24.3413 36.0173 24.3096 36.1768 24.3096C36.307 24.3096 36.4242 24.3275 36.5283 24.3633C36.6325 24.3975 36.7212 24.4528 36.7944 24.5293C36.8693 24.6058 36.9263 24.7051 36.9653 24.8271C37.0044 24.9476 37.0239 25.0949 37.0239 25.269V27H36.5698V25.2642C36.5698 25.1258 36.5495 25.0151 36.5088 24.9321C36.4681 24.8475 36.4087 24.7865 36.3306 24.749C36.2524 24.71 36.1564 24.6904 36.0425 24.6904C35.9302 24.6904 35.8276 24.714 35.7349 24.7612C35.6437 24.8084 35.5648 24.8735 35.498 24.9565C35.4329 25.0396 35.3817 25.1348 35.3442 25.2422C35.3084 25.348 35.2905 25.4603 35.2905 25.5791ZM39.3262 26.3896V24.3584H39.7803V27H39.3481L39.3262 26.3896ZM39.4116 25.833L39.5996 25.8281C39.5996 26.0039 39.5809 26.1667 39.5435 26.3164C39.5076 26.4645 39.4491 26.5931 39.3677 26.7021C39.2863 26.8112 39.1797 26.8966 39.0479 26.9585C38.916 27.0187 38.7557 27.0488 38.5669 27.0488C38.4383 27.0488 38.3203 27.0301 38.2129 26.9927C38.1071 26.9552 38.016 26.8975 37.9395 26.8193C37.863 26.7412 37.8035 26.6395 37.7612 26.5142C37.7205 26.3888 37.7002 26.2383 37.7002 26.0625V24.3584H38.1519V26.0674C38.1519 26.1862 38.1649 26.2847 38.1909 26.3628C38.2186 26.4393 38.2552 26.5003 38.3008 26.5459C38.348 26.5898 38.4001 26.6208 38.457 26.6387C38.5156 26.6566 38.5758 26.6655 38.6377 26.6655C38.8298 26.6655 38.9819 26.6289 39.0942 26.5557C39.2065 26.4808 39.2871 26.3807 39.3359 26.2554C39.3864 26.1284 39.4116 25.9876 39.4116 25.833ZM40.918 24.8833V27H40.4639V24.3584H40.8936L40.918 24.8833ZM40.8252 25.5791L40.6152 25.5718C40.6169 25.3911 40.6405 25.2243 40.686 25.0713C40.7316 24.9167 40.7992 24.7824 40.8887 24.6685C40.9782 24.5545 41.0897 24.4666 41.2231 24.4048C41.3566 24.3413 41.5112 24.3096 41.687 24.3096C41.8107 24.3096 41.9246 24.3275 42.0288 24.3633C42.133 24.3975 42.2233 24.452 42.2998 24.5269C42.3763 24.6017 42.4357 24.6978 42.478 24.8149C42.5203 24.9321 42.5415 25.0737 42.5415 25.2397V27H42.0898V25.2617C42.0898 25.1234 42.0662 25.0127 42.019 24.9297C41.9735 24.8467 41.9084 24.7865 41.8237 24.749C41.7391 24.71 41.6398 24.6904 41.5259 24.6904C41.3924 24.6904 41.2809 24.714 41.1914 24.7612C41.1019 24.8084 41.0303 24.8735 40.9766 24.9565C40.9229 25.0396 40.8838 25.1348 40.8594 25.2422C40.8366 25.348 40.8252 25.4603 40.8252 25.5791ZM42.5366 25.3301L42.2339 25.4229C42.2355 25.278 42.2591 25.1388 42.3047 25.0054C42.3519 24.8719 42.4194 24.7531 42.5073 24.6489C42.5968 24.5448 42.7067 24.4626 42.8369 24.4023C42.9671 24.3405 43.116 24.3096 43.2837 24.3096C43.4253 24.3096 43.5506 24.3283 43.6597 24.3657C43.7703 24.4032 43.8631 24.4609 43.938 24.5391C44.0145 24.6156 44.0723 24.714 44.1113 24.8345C44.1504 24.9549 44.1699 25.0981 44.1699 25.2642V27H43.7158V25.2593C43.7158 25.1112 43.6922 24.9964 43.645 24.915C43.5994 24.832 43.5343 24.7743 43.4497 24.7417C43.3667 24.7075 43.2674 24.6904 43.1519 24.6904C43.0526 24.6904 42.9647 24.7075 42.8882 24.7417C42.8117 24.7759 42.7474 24.8231 42.6953 24.8833C42.6432 24.9419 42.6034 25.0094 42.5757 25.0859C42.5496 25.1624 42.5366 25.2438 42.5366 25.3301ZM44.8511 23.25H45.3052V26.4873L45.2661 27H44.8511V23.25ZM47.0898 25.6572V25.7085C47.0898 25.9006 47.0671 26.0788 47.0215 26.2432C46.9759 26.4059 46.9092 26.5475 46.8213 26.668C46.7334 26.7884 46.626 26.882 46.499 26.9487C46.3721 27.0155 46.2264 27.0488 46.062 27.0488C45.8944 27.0488 45.7471 27.0203 45.6201 26.9634C45.4948 26.9048 45.389 26.821 45.3027 26.7119C45.2165 26.6029 45.1473 26.471 45.0952 26.3164C45.0448 26.1618 45.0098 25.9876 44.9902 25.7939V25.5693C45.0098 25.374 45.0448 25.1991 45.0952 25.0444C45.1473 24.8898 45.2165 24.758 45.3027 24.6489C45.389 24.5382 45.4948 24.4544 45.6201 24.3975C45.7454 24.3389 45.8911 24.3096 46.0571 24.3096C46.2231 24.3096 46.3704 24.3421 46.499 24.4072C46.6276 24.4707 46.735 24.5618 46.8213 24.6807C46.9092 24.7995 46.9759 24.9419 47.0215 25.1079C47.0671 25.2723 47.0898 25.4554 47.0898 25.6572ZM46.6357 25.7085V25.6572C46.6357 25.5254 46.6235 25.4017 46.5991 25.2861C46.5747 25.1689 46.5356 25.0664 46.4819 24.9785C46.4282 24.889 46.3574 24.819 46.2695 24.7686C46.1816 24.7165 46.0734 24.6904 45.9448 24.6904C45.8309 24.6904 45.7316 24.71 45.647 24.749C45.564 24.7881 45.4932 24.841 45.4346 24.9077C45.376 24.9728 45.328 25.0477 45.2905 25.1323C45.2547 25.2153 45.2279 25.3016 45.21 25.3911V25.9795C45.236 26.0934 45.2783 26.2033 45.3369 26.3091C45.3971 26.4132 45.4769 26.4987 45.5762 26.5654C45.6771 26.6322 45.8016 26.6655 45.9497 26.6655C46.0718 26.6655 46.1759 26.6411 46.2622 26.5923C46.3501 26.5418 46.4209 26.4727 46.4746 26.3848C46.5299 26.2969 46.5706 26.1951 46.5967 26.0796C46.6227 25.964 46.6357 25.8403 46.6357 25.7085ZM48.7573 27.0488C48.5734 27.0488 48.4066 27.0179 48.2568 26.9561C48.1087 26.8926 47.981 26.8039 47.8735 26.6899C47.7677 26.576 47.6864 26.4409 47.6294 26.2847C47.5724 26.1284 47.5439 25.9575 47.5439 25.772V25.6694C47.5439 25.4546 47.5757 25.2633 47.6392 25.0957C47.7026 24.9264 47.7889 24.7832 47.8979 24.666C48.007 24.5488 48.1307 24.4601 48.269 24.3999C48.4074 24.3397 48.5506 24.3096 48.6987 24.3096C48.8875 24.3096 49.0503 24.3421 49.187 24.4072C49.3254 24.4723 49.4385 24.5635 49.5264 24.6807C49.6143 24.7962 49.6794 24.9329 49.7217 25.0908C49.764 25.2471 49.7852 25.418 49.7852 25.6035V25.8062H47.8125V25.4375H49.3335V25.4033C49.327 25.2861 49.3026 25.1722 49.2603 25.0615C49.2196 24.9508 49.1545 24.8597 49.0649 24.7881C48.9754 24.7165 48.8534 24.6807 48.6987 24.6807C48.5962 24.6807 48.5018 24.7026 48.4155 24.7466C48.3293 24.7889 48.2552 24.8524 48.1934 24.937C48.1315 25.0216 48.0835 25.125 48.0493 25.2471C48.0151 25.3691 47.998 25.5099 47.998 25.6694V25.772C47.998 25.8973 48.0151 26.0153 48.0493 26.126C48.0851 26.235 48.1364 26.3311 48.2031 26.4141C48.2715 26.4971 48.3537 26.5622 48.4497 26.6094C48.5474 26.6566 48.658 26.6802 48.7817 26.6802C48.9412 26.6802 49.0763 26.6476 49.187 26.5825C49.2977 26.5174 49.3945 26.4303 49.4775 26.3213L49.751 26.5386C49.694 26.6248 49.6216 26.707 49.5337 26.7852C49.4458 26.8633 49.3376 26.9268 49.209 26.9756C49.082 27.0244 48.9315 27.0488 48.7573 27.0488ZM50.7642 24.7734V27H50.3125V24.3584H50.752L50.7642 24.7734ZM51.5894 24.3438L51.5869 24.7637C51.5495 24.7555 51.5137 24.7507 51.4795 24.749C51.4469 24.7458 51.4095 24.7441 51.3672 24.7441C51.263 24.7441 51.1711 24.7604 51.0913 24.793C51.0116 24.8255 50.944 24.8711 50.8887 24.9297C50.8333 24.9883 50.7894 25.0583 50.7568 25.1396C50.7259 25.2194 50.7056 25.3073 50.6958 25.4033L50.5688 25.4766C50.5688 25.3171 50.5843 25.1673 50.6152 25.0273C50.6478 24.8874 50.6974 24.7637 50.7642 24.6562C50.8309 24.5472 50.9155 24.4626 51.0181 24.4023C51.1222 24.3405 51.2459 24.3096 51.3892 24.3096C51.4217 24.3096 51.4591 24.3136 51.5015 24.3218C51.5438 24.3283 51.5731 24.3356 51.5894 24.3438Z" fill="black"/>
<rect x="95.25" y="32.25" width="8.5" height="14.5" stroke="#C0433A" stroke-width="0.5"/>
<rect x="95.25" y="32.25" width="8.5" height="14.5" stroke="#4298BD" stroke-width="0.5"/>
<rect x="95.25" y="32.25" width="8.5" height="14.5" stroke="#817033" stroke-width="0.5"/>
<rect x="106.25" y="32.25" width="8.5" height="14.5" stroke="#C0433A" stroke-width="0.5"/>
<path d="M30.9668 39.8696H31.4355C31.4111 40.0942 31.3468 40.2952 31.2427 40.4727C31.1385 40.6501 30.9912 40.7909 30.8008 40.895C30.6104 40.9976 30.3727 41.0488 30.0879 41.0488C29.8796 41.0488 29.6899 41.0098 29.519 40.9316C29.3498 40.8535 29.2041 40.7428 29.082 40.5996C28.96 40.4548 28.8656 40.2814 28.7988 40.0796C28.7337 39.8761 28.7012 39.6499 28.7012 39.4009V39.0469C28.7012 38.7979 28.7337 38.5724 28.7988 38.3706C28.8656 38.1672 28.9608 37.993 29.0845 37.8481C29.2098 37.7033 29.3604 37.5918 29.5361 37.5137C29.7119 37.4355 29.9097 37.3965 30.1294 37.3965C30.3979 37.3965 30.625 37.4469 30.8105 37.5479C30.9961 37.6488 31.1401 37.7887 31.2427 37.9678C31.3468 38.1452 31.4111 38.3511 31.4355 38.5854H30.9668C30.944 38.4194 30.9017 38.277 30.8398 38.1582C30.778 38.0378 30.6901 37.945 30.5762 37.8799C30.4622 37.8148 30.3133 37.7822 30.1294 37.7822C29.9715 37.7822 29.8324 37.8123 29.7119 37.8726C29.5931 37.9328 29.493 38.0182 29.4116 38.1289C29.3319 38.2396 29.2716 38.3722 29.231 38.5269C29.1903 38.6815 29.1699 38.8532 29.1699 39.042V39.4009C29.1699 39.575 29.1878 39.7386 29.2236 39.8916C29.2611 40.0446 29.3172 40.1789 29.3921 40.2944C29.467 40.41 29.5622 40.5011 29.6777 40.5679C29.7933 40.633 29.93 40.6655 30.0879 40.6655C30.2881 40.6655 30.4476 40.6338 30.5664 40.5703C30.6852 40.5068 30.7747 40.4157 30.835 40.2969C30.8968 40.1781 30.9408 40.0356 30.9668 39.8696ZM31.8896 39.7085V39.6523C31.8896 39.4619 31.9173 39.2853 31.9727 39.1226C32.028 38.9582 32.1077 38.8158 32.2119 38.6953C32.3161 38.5732 32.4422 38.4788 32.5903 38.4121C32.7384 38.3438 32.9045 38.3096 33.0884 38.3096C33.2739 38.3096 33.4408 38.3438 33.5889 38.4121C33.7386 38.4788 33.8656 38.5732 33.9697 38.6953C34.0755 38.8158 34.1561 38.9582 34.2114 39.1226C34.2668 39.2853 34.2944 39.4619 34.2944 39.6523V39.7085C34.2944 39.8989 34.2668 40.0755 34.2114 40.2383C34.1561 40.401 34.0755 40.5435 33.9697 40.6655C33.8656 40.786 33.7394 40.8804 33.5913 40.9487C33.4448 41.0155 33.2788 41.0488 33.0933 41.0488C32.9077 41.0488 32.7409 41.0155 32.5928 40.9487C32.4447 40.8804 32.3177 40.786 32.2119 40.6655C32.1077 40.5435 32.028 40.401 31.9727 40.2383C31.9173 40.0755 31.8896 39.8989 31.8896 39.7085ZM32.3413 39.6523V39.7085C32.3413 39.8403 32.3568 39.9648 32.3877 40.082C32.4186 40.1976 32.465 40.3001 32.5269 40.3896C32.5903 40.4792 32.6693 40.55 32.7637 40.6021C32.8581 40.6525 32.9679 40.6777 33.0933 40.6777C33.217 40.6777 33.3252 40.6525 33.418 40.6021C33.5124 40.55 33.5905 40.4792 33.6523 40.3896C33.7142 40.3001 33.7606 40.1976 33.7915 40.082C33.8241 39.9648 33.8403 39.8403 33.8403 39.7085V39.6523C33.8403 39.5221 33.8241 39.3993 33.7915 39.2837C33.7606 39.1665 33.7134 39.0632 33.6499 38.9736C33.5881 38.8825 33.5099 38.8109 33.4155 38.7588C33.3228 38.7067 33.2137 38.6807 33.0884 38.6807C32.9647 38.6807 32.8556 38.7067 32.7612 38.7588C32.6685 38.8109 32.5903 38.8825 32.5269 38.9736C32.465 39.0632 32.4186 39.1665 32.3877 39.2837C32.3568 39.3993 32.3413 39.5221 32.3413 39.6523ZM35.3101 38.8833V41H34.856V38.3584H35.2856L35.3101 38.8833ZM35.2173 39.5791L35.0073 39.5718C35.009 39.3911 35.0326 39.2243 35.0781 39.0713C35.1237 38.9167 35.1912 38.7824 35.2808 38.6685C35.3703 38.5545 35.4818 38.4666 35.6152 38.4048C35.7487 38.3413 35.9033 38.3096 36.0791 38.3096C36.2028 38.3096 36.3167 38.3275 36.4209 38.3633C36.5251 38.3975 36.6154 38.452 36.6919 38.5269C36.7684 38.6017 36.8278 38.6978 36.8701 38.8149C36.9124 38.9321 36.9336 39.0737 36.9336 39.2397V41H36.4819V39.2617C36.4819 39.1234 36.4583 39.0127 36.4111 38.9297C36.3656 38.8467 36.3005 38.7865 36.2158 38.749C36.1312 38.71 36.0319 38.6904 35.918 38.6904C35.7845 38.6904 35.673 38.714 35.5835 38.7612C35.494 38.8084 35.4224 38.8735 35.3687 38.9565C35.3149 39.0396 35.2759 39.1348 35.2515 39.2422C35.2287 39.348 35.2173 39.4603 35.2173 39.5791ZM36.9287 39.3301L36.626 39.4229C36.6276 39.278 36.6512 39.1388 36.6968 39.0054C36.744 38.8719 36.8115 38.7531 36.8994 38.6489C36.9889 38.5448 37.0988 38.4626 37.229 38.4023C37.3592 38.3405 37.5081 38.3096 37.6758 38.3096C37.8174 38.3096 37.9427 38.3283 38.0518 38.3657C38.1624 38.4032 38.2552 38.4609 38.3301 38.5391C38.4066 38.6156 38.4644 38.714 38.5034 38.8345C38.5425 38.9549 38.562 39.0981 38.562 39.2642V41H38.1079V39.2593C38.1079 39.1112 38.0843 38.9964 38.0371 38.915C37.9915 38.832 37.9264 38.7743 37.8418 38.7417C37.7588 38.7075 37.6595 38.6904 37.5439 38.6904C37.4447 38.6904 37.3568 38.7075 37.2803 38.7417C37.2038 38.7759 37.1395 38.8231 37.0874 38.8833C37.0353 38.9419 36.9954 39.0094 36.9678 39.0859C36.9417 39.1624 36.9287 39.2438 36.9287 39.3301ZM39.6948 38.8833V41H39.2407V38.3584H39.6704L39.6948 38.8833ZM39.6021 39.5791L39.3921 39.5718C39.3937 39.3911 39.4173 39.2243 39.4629 39.0713C39.5085 38.9167 39.576 38.7824 39.6655 38.6685C39.755 38.5545 39.8665 38.4666 40 38.4048C40.1335 38.3413 40.2881 38.3096 40.4639 38.3096C40.5876 38.3096 40.7015 38.3275 40.8057 38.3633C40.9098 38.3975 41.0002 38.452 41.0767 38.5269C41.1532 38.6017 41.2126 38.6978 41.2549 38.8149C41.2972 38.9321 41.3184 39.0737 41.3184 39.2397V41H40.8667V39.2617C40.8667 39.1234 40.8431 39.0127 40.7959 38.9297C40.7503 38.8467 40.6852 38.7865 40.6006 38.749C40.516 38.71 40.4167 38.6904 40.3027 38.6904C40.1693 38.6904 40.0578 38.714 39.9683 38.7612C39.8787 38.8084 39.8071 38.8735 39.7534 38.9565C39.6997 39.0396 39.6606 39.1348 39.6362 39.2422C39.6134 39.348 39.6021 39.4603 39.6021 39.5791ZM41.3135 39.3301L41.0107 39.4229C41.0124 39.278 41.036 39.1388 41.0815 39.0054C41.1287 38.8719 41.1963 38.7531 41.2842 38.6489C41.3737 38.5448 41.4836 38.4626 41.6138 38.4023C41.744 38.3405 41.8929 38.3096 42.0605 38.3096C42.2021 38.3096 42.3275 38.3283 42.4365 38.3657C42.5472 38.4032 42.64 38.4609 42.7148 38.5391C42.7913 38.6156 42.8491 38.714 42.8882 38.8345C42.9272 38.9549 42.9468 39.0981 42.9468 39.2642V41H42.4927V39.2593C42.4927 39.1112 42.4691 38.9964 42.4219 38.915C42.3763 38.832 42.3112 38.7743 42.2266 38.7417C42.1436 38.7075 42.0443 38.6904 41.9287 38.6904C41.8294 38.6904 41.7415 38.7075 41.665 38.7417C41.5885 38.7759 41.5243 38.8231 41.4722 38.8833C41.4201 38.9419 41.3802 39.0094 41.3525 39.0859C41.3265 39.1624 41.3135 39.2438 41.3135 39.3301ZM45.188 40.5483V39.1885C45.188 39.0843 45.1668 38.994 45.1245 38.9175C45.0838 38.8394 45.022 38.7791 44.939 38.7368C44.856 38.6945 44.7534 38.6733 44.6313 38.6733C44.5174 38.6733 44.4173 38.6929 44.3311 38.7319C44.2464 38.771 44.1797 38.8223 44.1309 38.8857C44.0837 38.9492 44.0601 39.0176 44.0601 39.0908H43.6084C43.6084 38.9964 43.6328 38.9028 43.6816 38.8101C43.7305 38.7173 43.8005 38.6335 43.8916 38.5586C43.9844 38.4821 44.0951 38.4219 44.2236 38.3779C44.3538 38.3324 44.4987 38.3096 44.6582 38.3096C44.8503 38.3096 45.0195 38.3421 45.166 38.4072C45.3141 38.4723 45.4297 38.5708 45.5127 38.7026C45.5973 38.8328 45.6396 38.9964 45.6396 39.1934V40.4238C45.6396 40.5117 45.647 40.6053 45.6616 40.7046C45.6779 40.8039 45.7015 40.8893 45.7324 40.9609V41H45.2612C45.2384 40.9479 45.2205 40.8787 45.2075 40.7925C45.1945 40.7046 45.188 40.6232 45.188 40.5483ZM45.2661 39.3984L45.271 39.7158H44.8145C44.6859 39.7158 44.5711 39.7264 44.4702 39.7476C44.3693 39.7671 44.2847 39.7972 44.2163 39.8379C44.1479 39.8786 44.0959 39.9299 44.0601 39.9917C44.0243 40.0519 44.0063 40.1227 44.0063 40.2041C44.0063 40.2871 44.0251 40.3628 44.0625 40.4312C44.0999 40.4995 44.1561 40.554 44.231 40.5947C44.3075 40.6338 44.401 40.6533 44.5117 40.6533C44.6501 40.6533 44.7721 40.624 44.8779 40.5654C44.9837 40.5068 45.0675 40.4352 45.1294 40.3506C45.1929 40.266 45.2271 40.1838 45.2319 40.104L45.4248 40.3213C45.4134 40.3896 45.3825 40.4653 45.332 40.5483C45.2816 40.6313 45.214 40.7111 45.1294 40.7876C45.0464 40.8625 44.9471 40.9251 44.8315 40.9756C44.7176 41.0244 44.589 41.0488 44.4458 41.0488C44.2668 41.0488 44.1097 41.0138 43.9746 40.9438C43.8411 40.8739 43.737 40.7803 43.6621 40.6631C43.5889 40.5443 43.5522 40.4116 43.5522 40.2651C43.5522 40.1235 43.5799 39.999 43.6353 39.8916C43.6906 39.7826 43.7703 39.6922 43.8745 39.6206C43.9787 39.5474 44.104 39.492 44.2505 39.4546C44.397 39.4172 44.5605 39.3984 44.7412 39.3984H45.2661ZM46.8018 38.9224V41H46.3501V38.3584H46.7773L46.8018 38.9224ZM46.6943 39.5791L46.5063 39.5718C46.508 39.3911 46.5348 39.2243 46.5869 39.0713C46.639 38.9167 46.7122 38.7824 46.8066 38.6685C46.901 38.5545 47.0133 38.4666 47.1436 38.4048C47.2754 38.3413 47.4211 38.3096 47.5806 38.3096C47.7108 38.3096 47.828 38.3275 47.9321 38.3633C48.0363 38.3975 48.125 38.4528 48.1982 38.5293C48.2731 38.6058 48.3301 38.7051 48.3691 38.8271C48.4082 38.9476 48.4277 39.0949 48.4277 39.269V41H47.9736V39.2642C47.9736 39.1258 47.9533 39.0151 47.9126 38.9321C47.8719 38.8475 47.8125 38.7865 47.7344 38.749C47.6562 38.71 47.5602 38.6904 47.4463 38.6904C47.334 38.6904 47.2314 38.714 47.1387 38.7612C47.0475 38.8084 46.9686 38.8735 46.9019 38.9565C46.8368 39.0396 46.7855 39.1348 46.748 39.2422C46.7122 39.348 46.6943 39.4603 46.6943 39.5791ZM50.7788 40.4873V37.25H51.2329V41H50.8179L50.7788 40.4873ZM49.0015 39.7085V39.6572C49.0015 39.4554 49.0259 39.2723 49.0747 39.1079C49.1252 38.9419 49.196 38.7995 49.2871 38.6807C49.3799 38.5618 49.4897 38.4707 49.6167 38.4072C49.7453 38.3421 49.8885 38.3096 50.0464 38.3096C50.2124 38.3096 50.3573 38.3389 50.481 38.3975C50.6063 38.4544 50.7121 38.5382 50.7983 38.6489C50.8862 38.758 50.9554 38.8898 51.0059 39.0444C51.0563 39.1991 51.0913 39.374 51.1108 39.5693V39.7939C51.0929 39.9876 51.0579 40.1618 51.0059 40.3164C50.9554 40.471 50.8862 40.6029 50.7983 40.7119C50.7121 40.821 50.6063 40.9048 50.481 40.9634C50.3556 41.0203 50.2091 41.0488 50.0415 41.0488C49.8869 41.0488 49.7453 41.0155 49.6167 40.9487C49.4897 40.882 49.3799 40.7884 49.2871 40.668C49.196 40.5475 49.1252 40.4059 49.0747 40.2432C49.0259 40.0788 49.0015 39.9006 49.0015 39.7085ZM49.4556 39.6572V39.7085C49.4556 39.8403 49.4686 39.964 49.4946 40.0796C49.5223 40.1951 49.5646 40.2969 49.6216 40.3848C49.6785 40.4727 49.751 40.5418 49.8389 40.5923C49.9268 40.6411 50.0317 40.6655 50.1538 40.6655C50.3035 40.6655 50.4264 40.6338 50.5225 40.5703C50.6201 40.5068 50.6982 40.423 50.7568 40.3188C50.8154 40.2147 50.861 40.1016 50.8936 39.9795V39.3911C50.874 39.3016 50.8455 39.2153 50.8081 39.1323C50.7723 39.0477 50.7251 38.9728 50.6665 38.9077C50.6095 38.841 50.5387 38.7881 50.4541 38.749C50.3711 38.71 50.2726 38.6904 50.1587 38.6904C50.035 38.6904 49.9284 38.7165 49.8389 38.7686C49.751 38.819 49.6785 38.889 49.6216 38.9785C49.5646 39.0664 49.5223 39.1689 49.4946 39.2861C49.4686 39.4017 49.4556 39.5254 49.4556 39.6572Z" fill="black"/>
<rect x="70.25" y="32.25" width="22.5" height="14.5" stroke="#C0433A" stroke-width="0.5"/>
<rect x="70.25" y="32.25" width="22.5" height="14.5" stroke="#4298BD" stroke-width="0.5"/>
<rect x="70.25" y="32.25" width="22.5" height="14.5" stroke="#D9BE56" stroke-width="0.5"/>
<path d="M54 39L56.5 40.4434V37.5566L54 39ZM70 38.75H56.25V39.25H70V38.75Z" fill="#D9BE56"/>
</svg>
