<svg width="288" height="78" viewBox="0 0 288 78" fill="none" xmlns="http://www.w3.org/2000/svg">
<rect width="288" height="78" fill="white"/>
<path d="M77 54L79.5 55.4434V52.5566L77 54ZM144 53.75L79.25 53.75V54.25L144 54.25V53.75Z" fill="#C0433A"/>
<line x1="143.75" y1="54" x2="143.75" y2="47" stroke="#C0433A" stroke-width="0.5"/>
<path d="M108.529 43.1172C108.06 43.1172 107.636 43.041 107.257 42.8887C106.882 42.7324 106.562 42.5156 106.296 42.2383C106.035 41.9609 105.833 41.6348 105.693 41.2598C105.552 40.8848 105.482 40.4805 105.482 40.0469V39.8125C105.482 39.3164 105.554 38.8672 105.699 38.4648C105.843 38.0625 106.044 37.7188 106.302 37.4336C106.56 37.1445 106.865 36.9238 107.216 36.7715C107.568 36.6191 107.949 36.543 108.359 36.543C108.812 36.543 109.208 36.6191 109.548 36.7715C109.888 36.9238 110.169 37.1387 110.392 37.416C110.619 37.6895 110.786 38.0156 110.896 38.3945C111.009 38.7734 111.066 39.1914 111.066 39.6484V40.252H106.167V39.2383H109.671V39.127C109.663 38.873 109.613 38.6348 109.519 38.4121C109.429 38.1895 109.29 38.0098 109.103 37.873C108.915 37.7363 108.665 37.668 108.353 37.668C108.119 37.668 107.91 37.7188 107.726 37.8203C107.546 37.918 107.396 38.0605 107.275 38.248C107.154 38.4355 107.06 38.6621 106.994 38.9277C106.931 39.1895 106.9 39.4844 106.9 39.8125V40.0469C106.9 40.3242 106.937 40.582 107.011 40.8203C107.089 41.0547 107.202 41.2598 107.351 41.4355C107.499 41.6113 107.679 41.75 107.89 41.8516C108.101 41.9492 108.341 41.998 108.611 41.998C108.951 41.998 109.253 41.9297 109.519 41.793C109.785 41.6562 110.015 41.4629 110.21 41.2129L110.954 41.9336C110.818 42.1328 110.64 42.3242 110.421 42.5078C110.202 42.6875 109.935 42.834 109.619 42.9473C109.306 43.0605 108.943 43.1172 108.529 43.1172ZM116.395 41.6875V34H117.812V43H116.529L116.395 41.6875ZM112.27 39.9004V39.7773C112.27 39.2969 112.326 38.8594 112.439 38.4648C112.553 38.0664 112.717 37.7246 112.932 37.4395C113.146 37.1504 113.408 36.9297 113.717 36.7773C114.025 36.6211 114.373 36.543 114.76 36.543C115.143 36.543 115.479 36.6172 115.768 36.7656C116.057 36.9141 116.303 37.127 116.506 37.4043C116.709 37.6777 116.871 38.0059 116.992 38.3887C117.113 38.7676 117.199 39.1895 117.25 39.6543V40.0469C117.199 40.5 117.113 40.9141 116.992 41.2891C116.871 41.6641 116.709 41.9883 116.506 42.2617C116.303 42.5352 116.055 42.7461 115.762 42.8945C115.473 43.043 115.135 43.1172 114.748 43.1172C114.365 43.1172 114.02 43.0371 113.711 42.877C113.406 42.7168 113.146 42.4922 112.932 42.2031C112.717 41.9141 112.553 41.5742 112.439 41.1836C112.326 40.7891 112.27 40.3613 112.27 39.9004ZM113.682 39.7773V39.9004C113.682 40.1895 113.707 40.459 113.758 40.709C113.812 40.959 113.896 41.1797 114.01 41.3711C114.123 41.5586 114.27 41.707 114.449 41.8164C114.633 41.9219 114.852 41.9746 115.105 41.9746C115.426 41.9746 115.689 41.9043 115.896 41.7637C116.104 41.623 116.266 41.4336 116.383 41.1953C116.504 40.9531 116.586 40.6836 116.629 40.3867V39.3262C116.605 39.0957 116.557 38.8809 116.482 38.6816C116.412 38.4824 116.316 38.3086 116.195 38.1602C116.074 38.0078 115.924 37.8906 115.744 37.8086C115.568 37.7227 115.359 37.6797 115.117 37.6797C114.859 37.6797 114.641 37.7344 114.461 37.8438C114.281 37.9531 114.133 38.1035 114.016 38.2949C113.902 38.4863 113.818 38.709 113.764 38.9629C113.709 39.2168 113.682 39.4883 113.682 39.7773ZM121.161 36.6602V43H119.743V36.6602H121.161ZM119.649 34.9961C119.649 34.7812 119.719 34.6035 119.86 34.4629C120.005 34.3184 120.204 34.2461 120.458 34.2461C120.708 34.2461 120.905 34.3184 121.049 34.4629C121.194 34.6035 121.266 34.7812 121.266 34.9961C121.266 35.207 121.194 35.3828 121.049 35.5234C120.905 35.6641 120.708 35.7344 120.458 35.7344C120.204 35.7344 120.005 35.6641 119.86 35.5234C119.719 35.3828 119.649 35.207 119.649 34.9961ZM125.974 36.6602V37.6914H122.4V36.6602H125.974ZM123.431 35.1074H124.843V41.248C124.843 41.4434 124.87 41.5938 124.925 41.6992C124.984 41.8008 125.064 41.8691 125.165 41.9043C125.267 41.9395 125.386 41.957 125.523 41.957C125.62 41.957 125.714 41.9512 125.804 41.9395C125.894 41.9277 125.966 41.916 126.021 41.9043L126.027 42.9824C125.909 43.0176 125.773 43.0488 125.616 43.0762C125.464 43.1035 125.288 43.1172 125.089 43.1172C124.765 43.1172 124.478 43.0605 124.228 42.9473C123.978 42.8301 123.782 42.6406 123.642 42.3789C123.501 42.1172 123.431 41.7695 123.431 41.3359V35.1074ZM134.545 34.4395V43H133.133V36.1152L131.042 36.8242V35.6582L134.376 34.4395H134.545ZM142.812 36.6602V43H141.394V36.6602H142.812ZM141.301 34.9961C141.301 34.7812 141.371 34.6035 141.512 34.4629C141.656 34.3184 141.855 34.2461 142.109 34.2461C142.359 34.2461 142.556 34.3184 142.701 34.4629C142.846 34.6035 142.918 34.7812 142.918 34.9961C142.918 35.207 142.846 35.3828 142.701 35.5234C142.556 35.6641 142.359 35.7344 142.109 35.7344C141.855 35.7344 141.656 35.6641 141.512 35.5234C141.371 35.3828 141.301 35.207 141.301 34.9961ZM148.428 34.4688L145.106 43.7324H143.999L147.327 34.4688H148.428ZM151.378 34.4688V43H149.907V34.4688H151.378ZM154.859 38.2012V39.3672H151.003V38.2012H154.859ZM155.345 34.4688V35.6406H151.003V34.4688H155.345ZM158.248 34V43H156.83V34H158.248ZM159.885 39.9004V39.7656C159.885 39.3086 159.952 38.8848 160.084 38.4941C160.217 38.0996 160.409 37.7578 160.659 37.4688C160.912 37.1758 161.221 36.9492 161.584 36.7891C161.952 36.625 162.366 36.543 162.827 36.543C163.291 36.543 163.705 36.625 164.069 36.7891C164.436 36.9492 164.746 37.1758 165 37.4688C165.254 37.7578 165.448 38.0996 165.58 38.4941C165.713 38.8848 165.78 39.3086 165.78 39.7656V39.9004C165.78 40.3574 165.713 40.7812 165.58 41.1719C165.448 41.5625 165.254 41.9043 165 42.1973C164.746 42.4863 164.438 42.7129 164.075 42.877C163.711 43.0371 163.299 43.1172 162.838 43.1172C162.373 43.1172 161.957 43.0371 161.59 42.877C161.227 42.7129 160.918 42.4863 160.664 42.1973C160.411 41.9043 160.217 41.5625 160.084 41.1719C159.952 40.7812 159.885 40.3574 159.885 39.9004ZM161.297 39.7656V39.9004C161.297 40.1855 161.327 40.4551 161.385 40.709C161.444 40.9629 161.536 41.1855 161.661 41.377C161.786 41.5684 161.946 41.7188 162.141 41.8281C162.336 41.9375 162.569 41.9922 162.838 41.9922C163.1 41.9922 163.327 41.9375 163.518 41.8281C163.713 41.7188 163.873 41.5684 163.998 41.377C164.123 41.1855 164.215 40.9629 164.274 40.709C164.336 40.4551 164.368 40.1855 164.368 39.9004V39.7656C164.368 39.4844 164.336 39.2188 164.274 38.9688C164.215 38.7148 164.121 38.4902 163.993 38.2949C163.868 38.0996 163.707 37.9473 163.512 37.8379C163.321 37.7246 163.092 37.668 162.827 37.668C162.561 37.668 162.33 37.7246 162.135 37.8379C161.944 37.9473 161.786 38.0996 161.661 38.2949C161.536 38.4902 161.444 38.7148 161.385 38.9688C161.327 39.2188 161.297 39.4844 161.297 39.7656ZM171.138 41.5059V36.6602H172.556V43H171.22L171.138 41.5059ZM171.337 40.1875L171.812 40.1758C171.812 40.6016 171.765 40.9941 171.671 41.3535C171.577 41.709 171.433 42.0195 171.237 42.2852C171.042 42.5469 170.792 42.752 170.487 42.9004C170.183 43.0449 169.817 43.1172 169.392 43.1172C169.083 43.1172 168.8 43.0723 168.542 42.9824C168.284 42.8926 168.062 42.7539 167.874 42.5664C167.69 42.3789 167.548 42.1348 167.446 41.834C167.345 41.5332 167.294 41.1738 167.294 40.7559V36.6602H168.706V40.7676C168.706 40.998 168.733 41.1914 168.788 41.3477C168.843 41.5 168.917 41.623 169.011 41.7168C169.105 41.8105 169.214 41.877 169.339 41.916C169.464 41.9551 169.597 41.9746 169.737 41.9746C170.14 41.9746 170.456 41.8965 170.687 41.7402C170.921 41.5801 171.087 41.3652 171.185 41.0957C171.286 40.8262 171.337 40.5234 171.337 40.1875ZM175.781 37.8672V43H174.369V36.6602H175.716L175.781 37.8672ZM177.72 36.6191L177.709 37.9316C177.623 37.916 177.529 37.9043 177.427 37.8965C177.33 37.8887 177.232 37.8848 177.134 37.8848C176.892 37.8848 176.679 37.9199 176.496 37.9902C176.312 38.0566 176.158 38.1543 176.033 38.2832C175.912 38.4082 175.818 38.5605 175.752 38.7402C175.685 38.9199 175.646 39.1211 175.634 39.3438L175.312 39.3672C175.312 38.9688 175.351 38.5996 175.429 38.2598C175.507 37.9199 175.625 37.6211 175.781 37.3633C175.941 37.1055 176.14 36.9043 176.379 36.7598C176.621 36.6152 176.9 36.543 177.216 36.543C177.302 36.543 177.394 36.5508 177.492 36.5664C177.593 36.582 177.67 36.5996 177.72 36.6191ZM179.457 41.6406L179.451 42.6484C179.451 43.0469 179.352 43.457 179.153 43.8789C178.953 44.3008 178.69 44.6484 178.362 44.9219L177.606 44.4824C177.715 44.3066 177.815 44.1289 177.905 43.9492C177.994 43.7695 178.067 43.5781 178.121 43.375C178.176 43.1719 178.203 42.9473 178.203 42.7012V41.6406H179.457ZM190.32 39.959V41.084H184.168L184.121 40.2344L187.8 34.4688H188.931L187.707 36.5664L185.591 39.959H190.32ZM189.254 34.4688V43H187.841V34.4688H189.254ZM193.03 41.6406L193.024 42.6484C193.024 43.0469 192.924 43.457 192.725 43.8789C192.526 44.3008 192.262 44.6484 191.934 44.9219L191.178 44.4824C191.287 44.3066 191.387 44.1289 191.477 43.9492C191.567 43.7695 191.639 43.5781 191.694 43.375C191.748 43.1719 191.776 42.9473 191.776 42.7012V41.6406H193.03ZM203.277 40.2227H204.742C204.695 40.7812 204.539 41.2793 204.273 41.7168C204.007 42.1504 203.634 42.4922 203.154 42.7422C202.673 42.9922 202.089 43.1172 201.402 43.1172C200.875 43.1172 200.4 43.0234 199.978 42.8359C199.556 42.6445 199.195 42.375 198.894 42.0273C198.593 41.6758 198.363 41.252 198.203 40.7559C198.046 40.2598 197.968 39.7051 197.968 39.0918V38.3828C197.968 37.7695 198.048 37.2148 198.209 36.7188C198.373 36.2227 198.607 35.7988 198.912 35.4473C199.216 35.0918 199.582 34.8203 200.007 34.6328C200.437 34.4453 200.919 34.3516 201.455 34.3516C202.134 34.3516 202.709 34.4766 203.177 34.7266C203.646 34.9766 204.009 35.3223 204.267 35.7637C204.529 36.2051 204.689 36.7109 204.748 37.2812H203.283C203.244 36.9141 203.158 36.5996 203.025 36.3379C202.896 36.0762 202.705 35.877 202.451 35.7402C202.197 35.5996 201.865 35.5293 201.455 35.5293C201.119 35.5293 200.826 35.5918 200.576 35.7168C200.326 35.8418 200.117 36.0254 199.949 36.2676C199.781 36.5098 199.654 36.8086 199.568 37.1641C199.486 37.5156 199.445 37.918 199.445 38.3711V39.0918C199.445 39.5215 199.482 39.9121 199.556 40.2637C199.634 40.6113 199.751 40.9102 199.908 41.1602C200.068 41.4102 200.271 41.6035 200.517 41.7402C200.763 41.877 201.058 41.9453 201.402 41.9453C201.82 41.9453 202.158 41.8789 202.416 41.7461C202.677 41.6133 202.875 41.4199 203.007 41.166C203.144 40.9082 203.234 40.5938 203.277 40.2227ZM210.111 41.5059V36.6602H211.529V43H210.194L210.111 41.5059ZM210.311 40.1875L210.785 40.1758C210.785 40.6016 210.738 40.9941 210.645 41.3535C210.551 41.709 210.406 42.0195 210.211 42.2852C210.016 42.5469 209.766 42.752 209.461 42.9004C209.156 43.0449 208.791 43.1172 208.365 43.1172C208.057 43.1172 207.774 43.0723 207.516 42.9824C207.258 42.8926 207.035 42.7539 206.848 42.5664C206.664 42.3789 206.522 42.1348 206.42 41.834C206.319 41.5332 206.268 41.1738 206.268 40.7559V36.6602H207.68V40.7676C207.68 40.998 207.707 41.1914 207.762 41.3477C207.817 41.5 207.891 41.623 207.985 41.7168C208.078 41.8105 208.188 41.877 208.313 41.916C208.438 41.9551 208.57 41.9746 208.711 41.9746C209.113 41.9746 209.43 41.8965 209.66 41.7402C209.895 41.5801 210.061 41.3652 210.158 41.0957C210.26 40.8262 210.311 40.5234 210.311 40.1875ZM214.755 37.8789V45.4375H213.343V36.6602H214.643L214.755 37.8789ZM218.886 39.7715V39.8945C218.886 40.3555 218.831 40.7832 218.721 41.1777C218.616 41.5684 218.458 41.9102 218.247 42.2031C218.04 42.4922 217.784 42.7168 217.479 42.877C217.175 43.0371 216.823 43.1172 216.425 43.1172C216.03 43.1172 215.684 43.0449 215.387 42.9004C215.095 42.752 214.846 42.543 214.643 42.2734C214.44 42.0039 214.276 41.6875 214.151 41.3242C214.03 40.957 213.944 40.5547 213.893 40.1172V39.6426C213.944 39.1777 214.03 38.7559 214.151 38.377C214.276 37.998 214.44 37.6719 214.643 37.3984C214.846 37.125 215.095 36.9141 215.387 36.7656C215.68 36.6172 216.022 36.543 216.413 36.543C216.811 36.543 217.165 36.6211 217.473 36.7773C217.782 36.9297 218.042 37.1484 218.253 37.4336C218.464 37.7148 218.622 38.0547 218.727 38.4531C218.833 38.8477 218.886 39.2871 218.886 39.7715ZM217.473 39.8945V39.7715C217.473 39.4785 217.446 39.207 217.391 38.957C217.337 38.7031 217.251 38.4805 217.134 38.2891C217.016 38.0977 216.866 37.9492 216.682 37.8438C216.503 37.7344 216.286 37.6797 216.032 37.6797C215.782 37.6797 215.567 37.7227 215.387 37.8086C215.208 37.8906 215.057 38.0059 214.936 38.1543C214.815 38.3027 214.721 38.4766 214.655 38.6758C214.589 38.8711 214.542 39.084 214.514 39.3145V40.4512C214.561 40.7324 214.641 40.9902 214.755 41.2246C214.868 41.459 215.028 41.6465 215.235 41.7871C215.446 41.9238 215.716 41.9922 216.044 41.9922C216.298 41.9922 216.514 41.9375 216.694 41.8281C216.874 41.7188 217.02 41.5684 217.134 41.377C217.251 41.1816 217.337 40.957 217.391 40.7031C217.446 40.4492 217.473 40.1797 217.473 39.8945ZM221.771 41.6406L221.765 42.6484C221.765 43.0469 221.665 43.457 221.466 43.8789C221.267 44.3008 221.003 44.6484 220.675 44.9219L219.919 44.4824C220.029 44.3066 220.128 44.1289 220.218 43.9492C220.308 43.7695 220.38 43.5781 220.435 43.375C220.49 43.1719 220.517 42.9473 220.517 42.7012V41.6406H221.771ZM232.317 38.0195V39.4141C232.317 40.082 232.251 40.6523 232.118 41.125C231.989 41.5938 231.801 41.9746 231.555 42.2676C231.309 42.5605 231.014 42.7754 230.671 42.9121C230.331 43.0488 229.95 43.1172 229.528 43.1172C229.192 43.1172 228.88 43.0742 228.591 42.9883C228.305 42.9023 228.048 42.7676 227.817 42.584C227.587 42.4004 227.389 42.1641 227.225 41.875C227.065 41.582 226.94 41.2324 226.85 40.8262C226.764 40.4199 226.721 39.9492 226.721 39.4141V38.0195C226.721 37.3477 226.788 36.7812 226.921 36.3203C227.053 35.8555 227.243 35.4785 227.489 35.1895C227.735 34.8965 228.028 34.6836 228.368 34.5508C228.712 34.418 229.094 34.3516 229.516 34.3516C229.856 34.3516 230.169 34.3945 230.454 34.4805C230.743 34.5625 231.001 34.6934 231.227 34.873C231.458 35.0527 231.653 35.2871 231.813 35.5762C231.977 35.8613 232.102 36.207 232.188 36.6133C232.274 37.0156 232.317 37.4844 232.317 38.0195ZM230.905 39.6133V37.8086C230.905 37.4688 230.885 37.1699 230.846 36.9121C230.807 36.6504 230.749 36.4297 230.671 36.25C230.596 36.0664 230.503 35.918 230.389 35.8047C230.276 35.6875 230.147 35.6035 230.003 35.5527C229.858 35.498 229.696 35.4707 229.516 35.4707C229.298 35.4707 229.102 35.5137 228.93 35.5996C228.759 35.6816 228.614 35.8145 228.497 35.998C228.38 36.1816 228.29 36.4238 228.227 36.7246C228.169 37.0215 228.139 37.3828 228.139 37.8086V39.6133C228.139 39.957 228.159 40.2598 228.198 40.5215C228.237 40.7832 228.296 41.0078 228.374 41.1953C228.452 41.3789 228.546 41.5312 228.655 41.6523C228.768 41.7695 228.897 41.8555 229.042 41.9102C229.19 41.9648 229.352 41.9922 229.528 41.9922C229.751 41.9922 229.948 41.9492 230.12 41.8633C230.292 41.7773 230.436 41.6406 230.553 41.4531C230.671 41.2617 230.759 41.0137 230.817 40.709C230.876 40.4043 230.905 40.0391 230.905 39.6133ZM234.077 42.2969C234.077 42.0781 234.152 41.8945 234.3 41.7461C234.449 41.5938 234.65 41.5176 234.904 41.5176C235.161 41.5176 235.363 41.5938 235.507 41.7461C235.656 41.8945 235.73 42.0781 235.73 42.2969C235.73 42.5156 235.656 42.6992 235.507 42.8477C235.363 42.9961 235.161 43.0703 234.904 43.0703C234.65 43.0703 234.449 42.9961 234.3 42.8477C234.152 42.6992 234.077 42.5156 234.077 42.2969ZM239.295 38.0957H240.139C240.467 38.0957 240.738 38.0391 240.953 37.9258C241.172 37.8125 241.334 37.6562 241.439 37.457C241.545 37.2578 241.598 37.0293 241.598 36.7715C241.598 36.502 241.549 36.2715 241.451 36.0801C241.357 35.8848 241.213 35.7344 241.018 35.6289C240.826 35.5234 240.582 35.4707 240.285 35.4707C240.035 35.4707 239.809 35.5215 239.605 35.623C239.406 35.7207 239.248 35.8613 239.131 36.0449C239.014 36.2246 238.955 36.4395 238.955 36.6895H237.537C237.537 36.2363 237.656 35.834 237.895 35.4824C238.133 35.1309 238.457 34.8555 238.867 34.6562C239.281 34.4531 239.746 34.3516 240.262 34.3516C240.812 34.3516 241.293 34.4434 241.703 34.627C242.117 34.8066 242.439 35.0762 242.67 35.4355C242.9 35.7949 243.016 36.2402 243.016 36.7715C243.016 37.0137 242.959 37.2598 242.846 37.5098C242.732 37.7598 242.564 37.9883 242.342 38.1953C242.119 38.3984 241.842 38.5645 241.51 38.6934C241.178 38.8184 240.793 38.8809 240.355 38.8809H239.295V38.0957ZM239.295 39.1973V38.4238H240.355C240.855 38.4238 241.281 38.4824 241.633 38.5996C241.988 38.7168 242.277 38.8789 242.5 39.0859C242.723 39.2891 242.885 39.5215 242.986 39.7832C243.092 40.0449 243.145 40.3223 243.145 40.6152C243.145 41.0137 243.072 41.3691 242.928 41.6816C242.787 41.9902 242.586 42.252 242.324 42.4668C242.062 42.6816 241.756 42.8438 241.404 42.9531C241.057 43.0625 240.678 43.1172 240.268 43.1172C239.9 43.1172 239.549 43.0664 239.213 42.9648C238.877 42.8633 238.576 42.7129 238.311 42.5137C238.045 42.3105 237.834 42.0586 237.678 41.7578C237.525 41.4531 237.449 41.1016 237.449 40.7031H238.861C238.861 40.957 238.92 41.1816 239.037 41.377C239.158 41.5684 239.326 41.7188 239.541 41.8281C239.76 41.9375 240.01 41.9922 240.291 41.9922C240.588 41.9922 240.844 41.9395 241.059 41.834C241.273 41.7285 241.438 41.5723 241.551 41.3652C241.668 41.1582 241.727 40.9082 241.727 40.6152C241.727 40.2832 241.662 40.0137 241.533 39.8066C241.404 39.5996 241.221 39.4473 240.982 39.3496C240.744 39.248 240.463 39.1973 240.139 39.1973H239.295ZM250.378 38.0195V39.4141C250.378 40.082 250.311 40.6523 250.178 41.125C250.049 41.5938 249.862 41.9746 249.616 42.2676C249.37 42.5605 249.075 42.7754 248.731 42.9121C248.391 43.0488 248.01 43.1172 247.589 43.1172C247.253 43.1172 246.94 43.0742 246.651 42.9883C246.366 42.9023 246.108 42.7676 245.878 42.584C245.647 42.4004 245.45 42.1641 245.286 41.875C245.126 41.582 245.001 41.2324 244.911 40.8262C244.825 40.4199 244.782 39.9492 244.782 39.4141V38.0195C244.782 37.3477 244.848 36.7812 244.981 36.3203C245.114 35.8555 245.303 35.4785 245.549 35.1895C245.796 34.8965 246.089 34.6836 246.428 34.5508C246.772 34.418 247.155 34.3516 247.577 34.3516C247.917 34.3516 248.229 34.3945 248.514 34.4805C248.803 34.5625 249.061 34.6934 249.288 34.873C249.518 35.0527 249.714 35.2871 249.874 35.5762C250.038 35.8613 250.163 36.207 250.249 36.6133C250.335 37.0156 250.378 37.4844 250.378 38.0195ZM248.965 39.6133V37.8086C248.965 37.4688 248.946 37.1699 248.907 36.9121C248.868 36.6504 248.809 36.4297 248.731 36.25C248.657 36.0664 248.563 35.918 248.45 35.8047C248.337 35.6875 248.208 35.6035 248.063 35.5527C247.919 35.498 247.756 35.4707 247.577 35.4707C247.358 35.4707 247.163 35.5137 246.991 35.5996C246.819 35.6816 246.674 35.8145 246.557 35.998C246.44 36.1816 246.35 36.4238 246.288 36.7246C246.229 37.0215 246.2 37.3828 246.2 37.8086V39.6133C246.2 39.957 246.219 40.2598 246.258 40.5215C246.298 40.7832 246.356 41.0078 246.434 41.1953C246.512 41.3789 246.606 41.5312 246.715 41.6523C246.829 41.7695 246.958 41.8555 247.102 41.9102C247.251 41.9648 247.413 41.9922 247.589 41.9922C247.811 41.9922 248.008 41.9492 248.18 41.8633C248.352 41.7773 248.497 41.6406 248.614 41.4531C248.731 41.2617 248.819 41.0137 248.878 40.709C248.936 40.4043 248.965 40.0391 248.965 39.6133Z" fill="black"/>
<path d="M37.9219 51.4453V55H37.4507V51.4453H37.9219ZM39.4111 53.0444V53.4302H37.8193V53.0444H39.4111ZM39.6528 51.4453V51.8311H37.8193V51.4453H39.6528ZM40.6367 51.25V55H40.1826V51.25H40.6367ZM42.9194 54.5483V53.1885C42.9194 53.0843 42.8983 52.994 42.856 52.9175C42.8153 52.8394 42.7534 52.7791 42.6704 52.7368C42.5874 52.6945 42.4849 52.6733 42.3628 52.6733C42.2489 52.6733 42.1488 52.6929 42.0625 52.7319C41.9779 52.771 41.9111 52.8223 41.8623 52.8857C41.8151 52.9492 41.7915 53.0176 41.7915 53.0908H41.3398C41.3398 52.9964 41.3643 52.9028 41.4131 52.8101C41.4619 52.7173 41.5319 52.6335 41.623 52.5586C41.7158 52.4821 41.8265 52.4219 41.9551 52.3779C42.0853 52.3324 42.2301 52.3096 42.3896 52.3096C42.5817 52.3096 42.751 52.3421 42.8975 52.4072C43.0456 52.4723 43.1611 52.5708 43.2441 52.7026C43.3288 52.8328 43.3711 52.9964 43.3711 53.1934V54.4238C43.3711 54.5117 43.3784 54.6053 43.3931 54.7046C43.4093 54.8039 43.4329 54.8893 43.4639 54.9609V55H42.9927C42.9699 54.9479 42.952 54.8787 42.939 54.7925C42.9259 54.7046 42.9194 54.6232 42.9194 54.5483ZM42.9976 53.3984L43.0024 53.7158H42.5459C42.4173 53.7158 42.3026 53.7264 42.2017 53.7476C42.1007 53.7671 42.0161 53.7972 41.9478 53.8379C41.8794 53.8786 41.8273 53.9299 41.7915 53.9917C41.7557 54.0519 41.7378 54.1227 41.7378 54.2041C41.7378 54.2871 41.7565 54.3628 41.7939 54.4312C41.8314 54.4995 41.8875 54.554 41.9624 54.5947C42.0389 54.6338 42.1325 54.6533 42.2432 54.6533C42.3815 54.6533 42.5036 54.624 42.6094 54.5654C42.7152 54.5068 42.799 54.4352 42.8608 54.3506C42.9243 54.266 42.9585 54.1838 42.9634 54.104L43.1562 54.3213C43.1449 54.3896 43.1139 54.4653 43.0635 54.5483C43.013 54.6313 42.9455 54.7111 42.8608 54.7876C42.7778 54.8625 42.6785 54.9251 42.563 54.9756C42.4491 55.0244 42.3205 55.0488 42.1772 55.0488C41.9982 55.0488 41.8411 55.0138 41.7061 54.9438C41.5726 54.8739 41.4684 54.7803 41.3936 54.6631C41.3203 54.5443 41.2837 54.4116 41.2837 54.2651C41.2837 54.1235 41.3114 53.999 41.3667 53.8916C41.422 53.7826 41.5018 53.6922 41.606 53.6206C41.7101 53.5474 41.8354 53.492 41.9819 53.4546C42.1284 53.4172 42.292 53.3984 42.4727 53.3984H42.9976ZM45.793 52.3584H46.2031V54.9438C46.2031 55.1766 46.1559 55.3752 46.0615 55.5396C45.9671 55.7039 45.8353 55.8285 45.666 55.9131C45.4984 55.9993 45.3047 56.0425 45.085 56.0425C44.9938 56.0425 44.8864 56.0278 44.7627 55.9985C44.6406 55.9709 44.5202 55.9229 44.4014 55.8545C44.2842 55.7878 44.1857 55.6974 44.106 55.5835L44.3428 55.3149C44.4535 55.4484 44.569 55.5412 44.6895 55.5933C44.8115 55.6453 44.932 55.6714 45.0508 55.6714C45.194 55.6714 45.3177 55.6445 45.4219 55.5908C45.526 55.5371 45.6066 55.4574 45.6636 55.3516C45.7222 55.2474 45.7515 55.1188 45.7515 54.9658V52.9395L45.793 52.3584ZM43.9741 53.7085V53.6572C43.9741 53.4554 43.9977 53.2723 44.0449 53.1079C44.0938 52.9419 44.1629 52.7995 44.2524 52.6807C44.3436 52.5618 44.4535 52.4707 44.582 52.4072C44.7106 52.3421 44.8555 52.3096 45.0166 52.3096C45.1826 52.3096 45.3275 52.3389 45.4512 52.3975C45.5765 52.4544 45.6823 52.5382 45.7686 52.6489C45.8564 52.758 45.9256 52.8898 45.9761 53.0444C46.0265 53.1991 46.0615 53.374 46.0811 53.5693V53.7939C46.0632 53.9876 46.0282 54.1618 45.9761 54.3164C45.9256 54.471 45.8564 54.6029 45.7686 54.7119C45.6823 54.821 45.5765 54.9048 45.4512 54.9634C45.3258 55.0203 45.1794 55.0488 45.0117 55.0488C44.8538 55.0488 44.7106 55.0155 44.582 54.9487C44.4551 54.882 44.346 54.7884 44.2549 54.668C44.1637 54.5475 44.0938 54.4059 44.0449 54.2432C43.9977 54.0788 43.9741 53.9006 43.9741 53.7085ZM44.4258 53.6572V53.7085C44.4258 53.8403 44.4388 53.964 44.4648 54.0796C44.4925 54.1951 44.534 54.2969 44.5894 54.3848C44.6463 54.4727 44.7188 54.5418 44.8066 54.5923C44.8945 54.6411 44.9995 54.6655 45.1216 54.6655C45.2713 54.6655 45.395 54.6338 45.4927 54.5703C45.5903 54.5068 45.6676 54.423 45.7246 54.3188C45.7832 54.2147 45.8288 54.1016 45.8613 53.9795V53.3911C45.8434 53.3016 45.8158 53.2153 45.7783 53.1323C45.7425 53.0477 45.6953 52.9728 45.6367 52.9077C45.5798 52.841 45.509 52.7881 45.4243 52.749C45.3397 52.71 45.2404 52.6904 45.1265 52.6904C45.0028 52.6904 44.8962 52.7165 44.8066 52.7686C44.7188 52.819 44.6463 52.889 44.5894 52.9785C44.534 53.0664 44.4925 53.1689 44.4648 53.2861C44.4388 53.4017 44.4258 53.5254 44.4258 53.6572ZM49.2354 52.3584V52.7051H47.8071V52.3584H49.2354ZM48.2905 51.7163H48.7422V54.3457C48.7422 54.4352 48.756 54.5028 48.7837 54.5483C48.8114 54.5939 48.8472 54.624 48.8911 54.6387C48.9351 54.6533 48.9823 54.6606 49.0327 54.6606C49.0701 54.6606 49.1092 54.6574 49.1499 54.6509C49.1922 54.6427 49.224 54.6362 49.2451 54.6313L49.2476 55C49.2118 55.0114 49.1646 55.022 49.106 55.0317C49.049 55.0431 48.9798 55.0488 48.8984 55.0488C48.7878 55.0488 48.686 55.0269 48.5933 54.9829C48.5005 54.939 48.4264 54.8657 48.3711 54.7632C48.3174 54.659 48.2905 54.519 48.2905 54.3433V51.7163ZM49.5967 53.7085V53.6523C49.5967 53.4619 49.6243 53.2853 49.6797 53.1226C49.735 52.9582 49.8148 52.8158 49.9189 52.6953C50.0231 52.5732 50.1493 52.4788 50.2974 52.4121C50.4455 52.3438 50.6115 52.3096 50.7954 52.3096C50.981 52.3096 51.1478 52.3438 51.2959 52.4121C51.4456 52.4788 51.5726 52.5732 51.6768 52.6953C51.7826 52.8158 51.8631 52.9582 51.9185 53.1226C51.9738 53.2853 52.0015 53.4619 52.0015 53.6523V53.7085C52.0015 53.8989 51.9738 54.0755 51.9185 54.2383C51.8631 54.401 51.7826 54.5435 51.6768 54.6655C51.5726 54.786 51.4465 54.8804 51.2983 54.9487C51.1519 55.0155 50.9858 55.0488 50.8003 55.0488C50.6147 55.0488 50.4479 55.0155 50.2998 54.9487C50.1517 54.8804 50.0247 54.786 49.9189 54.6655C49.8148 54.5435 49.735 54.401 49.6797 54.2383C49.6243 54.0755 49.5967 53.8989 49.5967 53.7085ZM50.0483 53.6523V53.7085C50.0483 53.8403 50.0638 53.9648 50.0947 54.082C50.1257 54.1976 50.172 54.3001 50.2339 54.3896C50.2974 54.4792 50.3763 54.55 50.4707 54.6021C50.5651 54.6525 50.675 54.6777 50.8003 54.6777C50.924 54.6777 51.0322 54.6525 51.125 54.6021C51.2194 54.55 51.2975 54.4792 51.3594 54.3896C51.4212 54.3001 51.4676 54.1976 51.4985 54.082C51.5311 53.9648 51.5474 53.8403 51.5474 53.7085V53.6523C51.5474 53.5221 51.5311 53.3993 51.4985 53.2837C51.4676 53.1665 51.4204 53.0632 51.3569 52.9736C51.2951 52.8825 51.217 52.8109 51.1226 52.7588C51.0298 52.7067 50.9207 52.6807 50.7954 52.6807C50.6717 52.6807 50.5627 52.7067 50.4683 52.7588C50.3755 52.8109 50.2974 52.8825 50.2339 52.9736C50.172 53.0632 50.1257 53.1665 50.0947 53.2837C50.0638 53.3993 50.0483 53.5221 50.0483 53.6523ZM53.8057 51.25H54.2598V54.4873L54.2207 55H53.8057V51.25ZM56.0444 53.6572V53.7085C56.0444 53.9006 56.0216 54.0788 55.9761 54.2432C55.9305 54.4059 55.8638 54.5475 55.7759 54.668C55.688 54.7884 55.5806 54.882 55.4536 54.9487C55.3267 55.0155 55.181 55.0488 55.0166 55.0488C54.849 55.0488 54.7017 55.0203 54.5747 54.9634C54.4494 54.9048 54.3436 54.821 54.2573 54.7119C54.1711 54.6029 54.1019 54.471 54.0498 54.3164C53.9993 54.1618 53.9644 53.9876 53.9448 53.7939V53.5693C53.9644 53.374 53.9993 53.1991 54.0498 53.0444C54.1019 52.8898 54.1711 52.758 54.2573 52.6489C54.3436 52.5382 54.4494 52.4544 54.5747 52.3975C54.7 52.3389 54.8457 52.3096 55.0117 52.3096C55.1777 52.3096 55.325 52.3421 55.4536 52.4072C55.5822 52.4707 55.6896 52.5618 55.7759 52.6807C55.8638 52.7995 55.9305 52.9419 55.9761 53.1079C56.0216 53.2723 56.0444 53.4554 56.0444 53.6572ZM55.5903 53.7085V53.6572C55.5903 53.5254 55.5781 53.4017 55.5537 53.2861C55.5293 53.1689 55.4902 53.0664 55.4365 52.9785C55.3828 52.889 55.312 52.819 55.2241 52.7686C55.1362 52.7165 55.028 52.6904 54.8994 52.6904C54.7855 52.6904 54.6862 52.71 54.6016 52.749C54.5186 52.7881 54.4478 52.841 54.3892 52.9077C54.3306 52.9728 54.2826 53.0477 54.2451 53.1323C54.2093 53.2153 54.1825 53.3016 54.1646 53.3911V53.9795C54.1906 54.0934 54.2329 54.2033 54.2915 54.3091C54.3517 54.4132 54.4315 54.4987 54.5308 54.5654C54.6317 54.6322 54.7562 54.6655 54.9043 54.6655C55.0264 54.6655 55.1305 54.6411 55.2168 54.5923C55.3047 54.5418 55.3755 54.4727 55.4292 54.3848C55.4845 54.2969 55.5252 54.1951 55.5513 54.0796C55.5773 53.964 55.5903 53.8403 55.5903 53.7085ZM57.7119 55.0488C57.528 55.0488 57.3612 55.0179 57.2114 54.9561C57.0633 54.8926 56.9355 54.8039 56.8281 54.6899C56.7223 54.576 56.641 54.4409 56.584 54.2847C56.527 54.1284 56.4985 53.9575 56.4985 53.772V53.6694C56.4985 53.4546 56.5303 53.2633 56.5938 53.0957C56.6572 52.9264 56.7435 52.7832 56.8525 52.666C56.9616 52.5488 57.0853 52.4601 57.2236 52.3999C57.362 52.3397 57.5052 52.3096 57.6533 52.3096C57.8421 52.3096 58.0049 52.3421 58.1416 52.4072C58.2799 52.4723 58.3931 52.5635 58.481 52.6807C58.5688 52.7962 58.634 52.9329 58.6763 53.0908C58.7186 53.2471 58.7397 53.418 58.7397 53.6035V53.8062H56.7671V53.4375H58.2881V53.4033C58.2816 53.2861 58.2572 53.1722 58.2148 53.0615C58.1742 52.9508 58.109 52.8597 58.0195 52.7881C57.93 52.7165 57.8079 52.6807 57.6533 52.6807C57.5508 52.6807 57.4564 52.7026 57.3701 52.7466C57.2839 52.7889 57.2098 52.8524 57.1479 52.937C57.0861 53.0216 57.0381 53.125 57.0039 53.2471C56.9697 53.3691 56.9526 53.5099 56.9526 53.6694V53.772C56.9526 53.8973 56.9697 54.0153 57.0039 54.126C57.0397 54.235 57.091 54.3311 57.1577 54.4141C57.2261 54.4971 57.3083 54.5622 57.4043 54.6094C57.502 54.6566 57.6126 54.6802 57.7363 54.6802C57.8958 54.6802 58.0309 54.6476 58.1416 54.5825C58.2523 54.5174 58.3491 54.4303 58.4321 54.3213L58.7056 54.5386C58.6486 54.6248 58.5762 54.707 58.4883 54.7852C58.4004 54.8633 58.2922 54.9268 58.1636 54.9756C58.0366 55.0244 57.8861 55.0488 57.7119 55.0488ZM61.6035 55.0488C61.4196 55.0488 61.2528 55.0179 61.103 54.9561C60.9549 54.8926 60.8271 54.8039 60.7197 54.6899C60.6139 54.576 60.5326 54.4409 60.4756 54.2847C60.4186 54.1284 60.3901 53.9575 60.3901 53.772V53.6694C60.3901 53.4546 60.4219 53.2633 60.4854 53.0957C60.5488 52.9264 60.6351 52.7832 60.7441 52.666C60.8532 52.5488 60.9769 52.4601 61.1152 52.3999C61.2536 52.3397 61.3968 52.3096 61.5449 52.3096C61.7337 52.3096 61.8965 52.3421 62.0332 52.4072C62.1715 52.4723 62.2847 52.5635 62.3726 52.6807C62.4604 52.7962 62.5256 52.9329 62.5679 53.0908C62.6102 53.2471 62.6313 53.418 62.6313 53.6035V53.8062H60.6587V53.4375H62.1797V53.4033C62.1732 53.2861 62.1488 53.1722 62.1064 53.0615C62.0658 52.9508 62.0007 52.8597 61.9111 52.7881C61.8216 52.7165 61.6995 52.6807 61.5449 52.6807C61.4424 52.6807 61.348 52.7026 61.2617 52.7466C61.1755 52.7889 61.1014 52.8524 61.0396 52.937C60.9777 53.0216 60.9297 53.125 60.8955 53.2471C60.8613 53.3691 60.8442 53.5099 60.8442 53.6694V53.772C60.8442 53.8973 60.8613 54.0153 60.8955 54.126C60.9313 54.235 60.9826 54.3311 61.0493 54.4141C61.1177 54.4971 61.1999 54.5622 61.2959 54.6094C61.3936 54.6566 61.5042 54.6802 61.6279 54.6802C61.7874 54.6802 61.9225 54.6476 62.0332 54.5825C62.1439 54.5174 62.2407 54.4303 62.3237 54.3213L62.5972 54.5386C62.5402 54.6248 62.4678 54.707 62.3799 54.7852C62.292 54.8633 62.1838 54.9268 62.0552 54.9756C61.9282 55.0244 61.7777 55.0488 61.6035 55.0488ZM64.8237 54.4873V51.25H65.2778V55H64.8628L64.8237 54.4873ZM63.0464 53.7085V53.6572C63.0464 53.4554 63.0708 53.2723 63.1196 53.1079C63.1701 52.9419 63.2409 52.7995 63.332 52.6807C63.4248 52.5618 63.5347 52.4707 63.6616 52.4072C63.7902 52.3421 63.9334 52.3096 64.0913 52.3096C64.2573 52.3096 64.4022 52.3389 64.5259 52.3975C64.6512 52.4544 64.757 52.5382 64.8433 52.6489C64.9312 52.758 65.0003 52.8898 65.0508 53.0444C65.1012 53.1991 65.1362 53.374 65.1558 53.5693V53.7939C65.1379 53.9876 65.1029 54.1618 65.0508 54.3164C65.0003 54.471 64.9312 54.6029 64.8433 54.7119C64.757 54.821 64.6512 54.9048 64.5259 54.9634C64.4006 55.0203 64.2541 55.0488 64.0864 55.0488C63.9318 55.0488 63.7902 55.0155 63.6616 54.9487C63.5347 54.882 63.4248 54.7884 63.332 54.668C63.2409 54.5475 63.1701 54.4059 63.1196 54.2432C63.0708 54.0788 63.0464 53.9006 63.0464 53.7085ZM63.5005 53.6572V53.7085C63.5005 53.8403 63.5135 53.964 63.5396 54.0796C63.5672 54.1951 63.6095 54.2969 63.6665 54.3848C63.7235 54.4727 63.7959 54.5418 63.8838 54.5923C63.9717 54.6411 64.0767 54.6655 64.1987 54.6655C64.3485 54.6655 64.4714 54.6338 64.5674 54.5703C64.665 54.5068 64.7432 54.423 64.8018 54.3188C64.8604 54.2147 64.9059 54.1016 64.9385 53.9795V53.3911C64.9189 53.3016 64.8905 53.2153 64.853 53.1323C64.8172 53.0477 64.77 52.9728 64.7114 52.9077C64.6545 52.841 64.5837 52.7881 64.499 52.749C64.416 52.71 64.3175 52.6904 64.2036 52.6904C64.0799 52.6904 63.9733 52.7165 63.8838 52.7686C63.7959 52.819 63.7235 52.889 63.6665 52.9785C63.6095 53.0664 63.5672 53.1689 63.5396 53.2861C63.5135 53.4017 63.5005 53.5254 63.5005 53.6572ZM66.4717 52.3584V55H66.0176V52.3584H66.4717ZM65.9834 51.6577C65.9834 51.5845 66.0054 51.5226 66.0493 51.4722C66.0949 51.4217 66.1616 51.3965 66.2495 51.3965C66.3358 51.3965 66.4017 51.4217 66.4473 51.4722C66.4945 51.5226 66.5181 51.5845 66.5181 51.6577C66.5181 51.7277 66.4945 51.7879 66.4473 51.8384C66.4017 51.8872 66.3358 51.9116 66.2495 51.9116C66.1616 51.9116 66.0949 51.8872 66.0493 51.8384C66.0054 51.7879 65.9834 51.7277 65.9834 51.6577ZM68.3027 52.3584V52.7051H66.8745V52.3584H68.3027ZM67.3579 51.7163H67.8096V54.3457C67.8096 54.4352 67.8234 54.5028 67.8511 54.5483C67.8787 54.5939 67.9146 54.624 67.9585 54.6387C68.0024 54.6533 68.0496 54.6606 68.1001 54.6606C68.1375 54.6606 68.1766 54.6574 68.2173 54.6509C68.2596 54.6427 68.2913 54.6362 68.3125 54.6313L68.3149 55C68.2791 55.0114 68.2319 55.022 68.1733 55.0317C68.1164 55.0431 68.0472 55.0488 67.9658 55.0488C67.8551 55.0488 67.7534 55.0269 67.6606 54.9829C67.5679 54.939 67.4938 54.8657 67.4385 54.7632C67.3848 54.659 67.3579 54.519 67.3579 54.3433V51.7163ZM69.9287 55.0488C69.7448 55.0488 69.578 55.0179 69.4282 54.9561C69.2801 54.8926 69.1523 54.8039 69.0449 54.6899C68.9391 54.576 68.8577 54.4409 68.8008 54.2847C68.7438 54.1284 68.7153 53.9575 68.7153 53.772V53.6694C68.7153 53.4546 68.7471 53.2633 68.8105 53.0957C68.874 52.9264 68.9603 52.7832 69.0693 52.666C69.1784 52.5488 69.3021 52.4601 69.4404 52.3999C69.5788 52.3397 69.722 52.3096 69.8701 52.3096C70.0589 52.3096 70.2217 52.3421 70.3584 52.4072C70.4967 52.4723 70.6099 52.5635 70.6978 52.6807C70.7856 52.7962 70.8507 52.9329 70.8931 53.0908C70.9354 53.2471 70.9565 53.418 70.9565 53.6035V53.8062H68.9839V53.4375H70.5049V53.4033C70.4984 53.2861 70.474 53.1722 70.4316 53.0615C70.391 52.9508 70.3258 52.8597 70.2363 52.7881C70.1468 52.7165 70.0247 52.6807 69.8701 52.6807C69.7676 52.6807 69.6732 52.7026 69.5869 52.7466C69.5007 52.7889 69.4266 52.8524 69.3647 52.937C69.3029 53.0216 69.2549 53.125 69.2207 53.2471C69.1865 53.3691 69.1694 53.5099 69.1694 53.6694V53.772C69.1694 53.8973 69.1865 54.0153 69.2207 54.126C69.2565 54.235 69.3078 54.3311 69.3745 54.4141C69.4429 54.4971 69.5251 54.5622 69.6211 54.6094C69.7188 54.6566 69.8294 54.6802 69.9531 54.6802C70.1126 54.6802 70.2477 54.6476 70.3584 54.5825C70.4691 54.5174 70.5659 54.4303 70.6489 54.3213L70.9224 54.5386C70.8654 54.6248 70.793 54.707 70.7051 54.7852C70.6172 54.8633 70.509 54.9268 70.3804 54.9756C70.2534 55.0244 70.1029 55.0488 69.9287 55.0488ZM73.1489 54.4873V51.25H73.603V55H73.188L73.1489 54.4873ZM71.3716 53.7085V53.6572C71.3716 53.4554 71.396 53.2723 71.4448 53.1079C71.4953 52.9419 71.5661 52.7995 71.6572 52.6807C71.75 52.5618 71.8599 52.4707 71.9868 52.4072C72.1154 52.3421 72.2586 52.3096 72.4165 52.3096C72.5825 52.3096 72.7274 52.3389 72.8511 52.3975C72.9764 52.4544 73.0822 52.5382 73.1685 52.6489C73.2563 52.758 73.3255 52.8898 73.376 53.0444C73.4264 53.1991 73.4614 53.374 73.481 53.5693V53.7939C73.4631 53.9876 73.4281 54.1618 73.376 54.3164C73.3255 54.471 73.2563 54.6029 73.1685 54.7119C73.0822 54.821 72.9764 54.9048 72.8511 54.9634C72.7257 55.0203 72.5793 55.0488 72.4116 55.0488C72.257 55.0488 72.1154 55.0155 71.9868 54.9487C71.8599 54.882 71.75 54.7884 71.6572 54.668C71.5661 54.5475 71.4953 54.4059 71.4448 54.2432C71.396 54.0788 71.3716 53.9006 71.3716 53.7085ZM71.8257 53.6572V53.7085C71.8257 53.8403 71.8387 53.964 71.8647 54.0796C71.8924 54.1951 71.9347 54.2969 71.9917 54.3848C72.0487 54.4727 72.1211 54.5418 72.209 54.5923C72.2969 54.6411 72.4019 54.6655 72.5239 54.6655C72.6737 54.6655 72.7965 54.6338 72.8926 54.5703C72.9902 54.5068 73.0684 54.423 73.127 54.3188C73.1855 54.2147 73.2311 54.1016 73.2637 53.9795V53.3911C73.2441 53.3016 73.2157 53.2153 73.1782 53.1323C73.1424 53.0477 73.0952 52.9728 73.0366 52.9077C72.9797 52.841 72.9089 52.7881 72.8242 52.749C72.7412 52.71 72.6427 52.6904 72.5288 52.6904C72.4051 52.6904 72.2985 52.7165 72.209 52.7686C72.1211 52.819 72.0487 52.889 71.9917 52.9785C71.9347 53.0664 71.8924 53.1689 71.8647 53.2861C71.8387 53.4017 71.8257 53.5254 71.8257 53.6572Z" fill="black"/>
<path d="M77 25L79.5 23.5566V26.4434L77 25ZM133 25.25L79.25 25.25V24.75L133 24.75V25.25Z" fill="#817033"/>
<line y1="-0.25" x2="7" y2="-0.25" transform="matrix(0 1 1 0 133 25)" stroke="#817033" stroke-width="0.5"/>
<path d="M40.75 23.4453H41.9268C42.1937 23.4453 42.4191 23.486 42.603 23.5674C42.7886 23.6488 42.9294 23.7692 43.0254 23.9287C43.123 24.0866 43.1719 24.2811 43.1719 24.5122C43.1719 24.675 43.1385 24.8239 43.0718 24.959C43.0067 25.0924 42.9123 25.2064 42.7886 25.3008C42.6665 25.3936 42.52 25.4627 42.3491 25.5083L42.2173 25.5596H41.1113L41.1064 25.1763H41.9414C42.1107 25.1763 42.2515 25.147 42.3638 25.0884C42.4761 25.0282 42.5607 24.9476 42.6177 24.8467C42.6746 24.7458 42.7031 24.6343 42.7031 24.5122C42.7031 24.3755 42.6763 24.2559 42.6226 24.1533C42.5688 24.0508 42.4842 23.9718 42.3687 23.9165C42.2547 23.8595 42.1074 23.8311 41.9268 23.8311H41.2212V27H40.75V23.4453ZM42.8276 27L41.9634 25.3887L42.4541 25.3862L43.3306 26.9707V27H42.8276ZM44.8589 27.0488C44.675 27.0488 44.5081 27.0179 44.3584 26.9561C44.2103 26.8926 44.0825 26.8039 43.9751 26.6899C43.8693 26.576 43.7879 26.4409 43.731 26.2847C43.674 26.1284 43.6455 25.9575 43.6455 25.772V25.6694C43.6455 25.4546 43.6772 25.2633 43.7407 25.0957C43.8042 24.9264 43.8905 24.7832 43.9995 24.666C44.1086 24.5488 44.2323 24.4601 44.3706 24.3999C44.509 24.3397 44.6522 24.3096 44.8003 24.3096C44.9891 24.3096 45.1519 24.3421 45.2886 24.4072C45.4269 24.4723 45.54 24.5635 45.6279 24.6807C45.7158 24.7962 45.7809 24.9329 45.8232 25.0908C45.8656 25.2471 45.8867 25.418 45.8867 25.6035V25.8062H43.9141V25.4375H45.4351V25.4033C45.4285 25.2861 45.4041 25.1722 45.3618 25.0615C45.3211 24.9508 45.256 24.8597 45.1665 24.7881C45.077 24.7165 44.9549 24.6807 44.8003 24.6807C44.6978 24.6807 44.6034 24.7026 44.5171 24.7466C44.4308 24.7889 44.3568 24.8524 44.2949 24.937C44.2331 25.0216 44.1851 25.125 44.1509 25.2471C44.1167 25.3691 44.0996 25.5099 44.0996 25.6694V25.772C44.0996 25.8973 44.1167 26.0153 44.1509 26.126C44.1867 26.235 44.238 26.3311 44.3047 26.4141C44.373 26.4971 44.4552 26.5622 44.5513 26.6094C44.6489 26.6566 44.7596 26.6802 44.8833 26.6802C45.0428 26.6802 45.1779 26.6476 45.2886 26.5825C45.3993 26.5174 45.4961 26.4303 45.5791 26.3213L45.8525 26.5386C45.7956 26.6248 45.7231 26.707 45.6353 26.7852C45.5474 26.8633 45.4391 26.9268 45.3105 26.9756C45.1836 27.0244 45.033 27.0488 44.8589 27.0488ZM47.4712 26.6777C47.5786 26.6777 47.6779 26.6558 47.769 26.6118C47.8602 26.5679 47.9351 26.5076 47.9937 26.4312C48.0522 26.353 48.0856 26.2643 48.0938 26.165H48.5234C48.5153 26.3213 48.4624 26.467 48.3647 26.6021C48.2687 26.7355 48.1426 26.8438 47.9863 26.9268C47.8301 27.0081 47.6584 27.0488 47.4712 27.0488C47.2726 27.0488 47.0993 27.0138 46.9512 26.9438C46.8047 26.8739 46.6826 26.7778 46.585 26.6558C46.4889 26.5337 46.4165 26.3937 46.3677 26.2358C46.3205 26.0763 46.2969 25.9079 46.2969 25.7305V25.6279C46.2969 25.4505 46.3205 25.2829 46.3677 25.125C46.4165 24.9655 46.4889 24.8247 46.585 24.7026C46.6826 24.5806 46.8047 24.4845 46.9512 24.4146C47.0993 24.3446 47.2726 24.3096 47.4712 24.3096C47.6779 24.3096 47.8586 24.3519 48.0132 24.4365C48.1678 24.5195 48.2891 24.6335 48.377 24.7783C48.4665 24.9215 48.5153 25.0843 48.5234 25.2666H48.0938C48.0856 25.1576 48.0547 25.0591 48.001 24.9712C47.9489 24.8833 47.8773 24.8133 47.7861 24.7612C47.6966 24.7075 47.5916 24.6807 47.4712 24.6807C47.3328 24.6807 47.2165 24.7083 47.1221 24.7637C47.0293 24.8174 46.9552 24.8906 46.8999 24.9834C46.8462 25.0745 46.8071 25.1763 46.7827 25.2886C46.7599 25.3993 46.7485 25.5124 46.7485 25.6279V25.7305C46.7485 25.846 46.7599 25.96 46.7827 26.0723C46.8055 26.1846 46.8438 26.2863 46.8975 26.3774C46.9528 26.4686 47.0269 26.5418 47.1196 26.5972C47.214 26.6509 47.3312 26.6777 47.4712 26.6777ZM49.522 24.3584V27H49.0679V24.3584H49.522ZM49.0337 23.6577C49.0337 23.5845 49.0557 23.5226 49.0996 23.4722C49.1452 23.4217 49.2119 23.3965 49.2998 23.3965C49.3861 23.3965 49.452 23.4217 49.4976 23.4722C49.5448 23.5226 49.5684 23.5845 49.5684 23.6577C49.5684 23.7277 49.5448 23.7879 49.4976 23.8384C49.452 23.8872 49.3861 23.9116 49.2998 23.9116C49.2119 23.9116 49.1452 23.8872 49.0996 23.8384C49.0557 23.7879 49.0337 23.7277 49.0337 23.6577ZM50.6987 24.8662V28.0156H50.2446V24.3584H50.6597L50.6987 24.8662ZM52.4785 25.6572V25.7085C52.4785 25.9006 52.4557 26.0788 52.4102 26.2432C52.3646 26.4059 52.2979 26.5475 52.21 26.668C52.1237 26.7884 52.0171 26.882 51.8901 26.9487C51.7632 27.0155 51.6175 27.0488 51.4531 27.0488C51.2855 27.0488 51.1374 27.0212 51.0088 26.9658C50.8802 26.9105 50.7712 26.8299 50.6816 26.7241C50.5921 26.6183 50.5205 26.4914 50.4668 26.3433C50.4147 26.1951 50.3789 26.0283 50.3594 25.8428V25.5693C50.3789 25.374 50.4155 25.1991 50.4692 25.0444C50.5229 24.8898 50.5938 24.758 50.6816 24.6489C50.7712 24.5382 50.8794 24.4544 51.0063 24.3975C51.1333 24.3389 51.2798 24.3096 51.4458 24.3096C51.6118 24.3096 51.7591 24.3421 51.8877 24.4072C52.0163 24.4707 52.1245 24.5618 52.2124 24.6807C52.3003 24.7995 52.3662 24.9419 52.4102 25.1079C52.4557 25.2723 52.4785 25.4554 52.4785 25.6572ZM52.0244 25.7085V25.6572C52.0244 25.5254 52.0106 25.4017 51.9829 25.2861C51.9552 25.1689 51.9121 25.0664 51.8535 24.9785C51.7965 24.889 51.7233 24.819 51.6338 24.7686C51.5443 24.7165 51.4377 24.6904 51.314 24.6904C51.2 24.6904 51.1007 24.71 51.0161 24.749C50.9331 24.7881 50.8623 24.841 50.8037 24.9077C50.7451 24.9728 50.6971 25.0477 50.6597 25.1323C50.6239 25.2153 50.597 25.3016 50.5791 25.3911V26.0234C50.6117 26.1374 50.6572 26.2448 50.7158 26.3457C50.7744 26.445 50.8525 26.5256 50.9502 26.5874C51.0479 26.6476 51.1707 26.6777 51.3188 26.6777C51.4409 26.6777 51.5459 26.6525 51.6338 26.6021C51.7233 26.55 51.7965 26.4792 51.8535 26.3896C51.9121 26.3001 51.9552 26.1976 51.9829 26.082C52.0106 25.9648 52.0244 25.8403 52.0244 25.7085ZM54.1509 27.0488C53.967 27.0488 53.8001 27.0179 53.6504 26.9561C53.5023 26.8926 53.3745 26.8039 53.2671 26.6899C53.1613 26.576 53.0799 26.4409 53.0229 26.2847C52.966 26.1284 52.9375 25.9575 52.9375 25.772V25.6694C52.9375 25.4546 52.9692 25.2633 53.0327 25.0957C53.0962 24.9264 53.1825 24.7832 53.2915 24.666C53.4006 24.5488 53.5243 24.4601 53.6626 24.3999C53.8009 24.3397 53.9442 24.3096 54.0923 24.3096C54.2811 24.3096 54.4438 24.3421 54.5806 24.4072C54.7189 24.4723 54.832 24.5635 54.9199 24.6807C55.0078 24.7962 55.0729 24.9329 55.1152 25.0908C55.1576 25.2471 55.1787 25.418 55.1787 25.6035V25.8062H53.2061V25.4375H54.7271V25.4033C54.7205 25.2861 54.6961 25.1722 54.6538 25.0615C54.6131 24.9508 54.548 24.8597 54.4585 24.7881C54.369 24.7165 54.2469 24.6807 54.0923 24.6807C53.9897 24.6807 53.8953 24.7026 53.8091 24.7466C53.7228 24.7889 53.6488 24.8524 53.5869 24.937C53.5251 25.0216 53.4771 25.125 53.4429 25.2471C53.4087 25.3691 53.3916 25.5099 53.3916 25.6694V25.772C53.3916 25.8973 53.4087 26.0153 53.4429 26.126C53.4787 26.235 53.5299 26.3311 53.5967 26.4141C53.665 26.4971 53.7472 26.5622 53.8433 26.6094C53.9409 26.6566 54.0516 26.6802 54.1753 26.6802C54.3348 26.6802 54.4699 26.6476 54.5806 26.5825C54.6912 26.5174 54.7881 26.4303 54.8711 26.3213L55.1445 26.5386C55.0876 26.6248 55.0151 26.707 54.9272 26.7852C54.8394 26.8633 54.7311 26.9268 54.6025 26.9756C54.4756 27.0244 54.325 27.0488 54.1509 27.0488ZM57.3979 24.9224V27H56.9463V24.3584H57.3735L57.3979 24.9224ZM57.2905 25.5791L57.1025 25.5718C57.1042 25.3911 57.131 25.2243 57.1831 25.0713C57.2352 24.9167 57.3084 24.7824 57.4028 24.6685C57.4972 24.5545 57.6095 24.4666 57.7397 24.4048C57.8716 24.3413 58.0173 24.3096 58.1768 24.3096C58.307 24.3096 58.4242 24.3275 58.5283 24.3633C58.6325 24.3975 58.7212 24.4528 58.7944 24.5293C58.8693 24.6058 58.9263 24.7051 58.9653 24.8271C59.0044 24.9476 59.0239 25.0949 59.0239 25.269V27H58.5698V25.2642C58.5698 25.1258 58.5495 25.0151 58.5088 24.9321C58.4681 24.8475 58.4087 24.7865 58.3306 24.749C58.2524 24.71 58.1564 24.6904 58.0425 24.6904C57.9302 24.6904 57.8276 24.714 57.7349 24.7612C57.6437 24.8084 57.5648 24.8735 57.498 24.9565C57.4329 25.0396 57.3817 25.1348 57.3442 25.2422C57.3084 25.348 57.2905 25.4603 57.2905 25.5791ZM61.3262 26.3896V24.3584H61.7803V27H61.3481L61.3262 26.3896ZM61.4116 25.833L61.5996 25.8281C61.5996 26.0039 61.5809 26.1667 61.5435 26.3164C61.5076 26.4645 61.4491 26.5931 61.3677 26.7021C61.2863 26.8112 61.1797 26.8966 61.0479 26.9585C60.916 27.0187 60.7557 27.0488 60.5669 27.0488C60.4383 27.0488 60.3203 27.0301 60.2129 26.9927C60.1071 26.9552 60.016 26.8975 59.9395 26.8193C59.863 26.7412 59.8035 26.6395 59.7612 26.5142C59.7205 26.3888 59.7002 26.2383 59.7002 26.0625V24.3584H60.1519V26.0674C60.1519 26.1862 60.1649 26.2847 60.1909 26.3628C60.2186 26.4393 60.2552 26.5003 60.3008 26.5459C60.348 26.5898 60.4001 26.6208 60.457 26.6387C60.5156 26.6566 60.5758 26.6655 60.6377 26.6655C60.8298 26.6655 60.9819 26.6289 61.0942 26.5557C61.2065 26.4808 61.2871 26.3807 61.3359 26.2554C61.3864 26.1284 61.4116 25.9876 61.4116 25.833ZM62.918 24.8833V27H62.4639V24.3584H62.8936L62.918 24.8833ZM62.8252 25.5791L62.6152 25.5718C62.6169 25.3911 62.6405 25.2243 62.686 25.0713C62.7316 24.9167 62.7992 24.7824 62.8887 24.6685C62.9782 24.5545 63.0897 24.4666 63.2231 24.4048C63.3566 24.3413 63.5112 24.3096 63.687 24.3096C63.8107 24.3096 63.9246 24.3275 64.0288 24.3633C64.133 24.3975 64.2233 24.452 64.2998 24.5269C64.3763 24.6017 64.4357 24.6978 64.478 24.8149C64.5203 24.9321 64.5415 25.0737 64.5415 25.2397V27H64.0898V25.2617C64.0898 25.1234 64.0662 25.0127 64.019 24.9297C63.9735 24.8467 63.9084 24.7865 63.8237 24.749C63.7391 24.71 63.6398 24.6904 63.5259 24.6904C63.3924 24.6904 63.2809 24.714 63.1914 24.7612C63.1019 24.8084 63.0303 24.8735 62.9766 24.9565C62.9229 25.0396 62.8838 25.1348 62.8594 25.2422C62.8366 25.348 62.8252 25.4603 62.8252 25.5791ZM64.5366 25.3301L64.2339 25.4229C64.2355 25.278 64.2591 25.1388 64.3047 25.0054C64.3519 24.8719 64.4194 24.7531 64.5073 24.6489C64.5968 24.5448 64.7067 24.4626 64.8369 24.4023C64.9671 24.3405 65.116 24.3096 65.2837 24.3096C65.4253 24.3096 65.5506 24.3283 65.6597 24.3657C65.7703 24.4032 65.8631 24.4609 65.938 24.5391C66.0145 24.6156 66.0723 24.714 66.1113 24.8345C66.1504 24.9549 66.1699 25.0981 66.1699 25.2642V27H65.7158V25.2593C65.7158 25.1112 65.6922 24.9964 65.645 24.915C65.5994 24.832 65.5343 24.7743 65.4497 24.7417C65.3667 24.7075 65.2674 24.6904 65.1519 24.6904C65.0526 24.6904 64.9647 24.7075 64.8882 24.7417C64.8117 24.7759 64.7474 24.8231 64.6953 24.8833C64.6432 24.9419 64.6034 25.0094 64.5757 25.0859C64.5496 25.1624 64.5366 25.2438 64.5366 25.3301ZM66.8511 23.25H67.3052V26.4873L67.2661 27H66.8511V23.25ZM69.0898 25.6572V25.7085C69.0898 25.9006 69.0671 26.0788 69.0215 26.2432C68.9759 26.4059 68.9092 26.5475 68.8213 26.668C68.7334 26.7884 68.626 26.882 68.499 26.9487C68.3721 27.0155 68.2264 27.0488 68.062 27.0488C67.8944 27.0488 67.7471 27.0203 67.6201 26.9634C67.4948 26.9048 67.389 26.821 67.3027 26.7119C67.2165 26.6029 67.1473 26.471 67.0952 26.3164C67.0448 26.1618 67.0098 25.9876 66.9902 25.7939V25.5693C67.0098 25.374 67.0448 25.1991 67.0952 25.0444C67.1473 24.8898 67.2165 24.758 67.3027 24.6489C67.389 24.5382 67.4948 24.4544 67.6201 24.3975C67.7454 24.3389 67.8911 24.3096 68.0571 24.3096C68.2231 24.3096 68.3704 24.3421 68.499 24.4072C68.6276 24.4707 68.735 24.5618 68.8213 24.6807C68.9092 24.7995 68.9759 24.9419 69.0215 25.1079C69.0671 25.2723 69.0898 25.4554 69.0898 25.6572ZM68.6357 25.7085V25.6572C68.6357 25.5254 68.6235 25.4017 68.5991 25.2861C68.5747 25.1689 68.5356 25.0664 68.4819 24.9785C68.4282 24.889 68.3574 24.819 68.2695 24.7686C68.1816 24.7165 68.0734 24.6904 67.9448 24.6904C67.8309 24.6904 67.7316 24.71 67.647 24.749C67.564 24.7881 67.4932 24.841 67.4346 24.9077C67.376 24.9728 67.328 25.0477 67.2905 25.1323C67.2547 25.2153 67.2279 25.3016 67.21 25.3911V25.9795C67.236 26.0934 67.2783 26.2033 67.3369 26.3091C67.3971 26.4132 67.4769 26.4987 67.5762 26.5654C67.6771 26.6322 67.8016 26.6655 67.9497 26.6655C68.0718 26.6655 68.1759 26.6411 68.2622 26.5923C68.3501 26.5418 68.4209 26.4727 68.4746 26.3848C68.5299 26.2969 68.5706 26.1951 68.5967 26.0796C68.6227 25.964 68.6357 25.8403 68.6357 25.7085ZM70.7573 27.0488C70.5734 27.0488 70.4066 27.0179 70.2568 26.9561C70.1087 26.8926 69.981 26.8039 69.8735 26.6899C69.7677 26.576 69.6864 26.4409 69.6294 26.2847C69.5724 26.1284 69.5439 25.9575 69.5439 25.772V25.6694C69.5439 25.4546 69.5757 25.2633 69.6392 25.0957C69.7026 24.9264 69.7889 24.7832 69.8979 24.666C70.007 24.5488 70.1307 24.4601 70.269 24.3999C70.4074 24.3397 70.5506 24.3096 70.6987 24.3096C70.8875 24.3096 71.0503 24.3421 71.187 24.4072C71.3254 24.4723 71.4385 24.5635 71.5264 24.6807C71.6143 24.7962 71.6794 24.9329 71.7217 25.0908C71.764 25.2471 71.7852 25.418 71.7852 25.6035V25.8062H69.8125V25.4375H71.3335V25.4033C71.327 25.2861 71.3026 25.1722 71.2603 25.0615C71.2196 24.9508 71.1545 24.8597 71.0649 24.7881C70.9754 24.7165 70.8534 24.6807 70.6987 24.6807C70.5962 24.6807 70.5018 24.7026 70.4155 24.7466C70.3293 24.7889 70.2552 24.8524 70.1934 24.937C70.1315 25.0216 70.0835 25.125 70.0493 25.2471C70.0151 25.3691 69.998 25.5099 69.998 25.6694V25.772C69.998 25.8973 70.0151 26.0153 70.0493 26.126C70.0851 26.235 70.1364 26.3311 70.2031 26.4141C70.2715 26.4971 70.3537 26.5622 70.4497 26.6094C70.5474 26.6566 70.658 26.6802 70.7817 26.6802C70.9412 26.6802 71.0763 26.6476 71.187 26.5825C71.2977 26.5174 71.3945 26.4303 71.4775 26.3213L71.751 26.5386C71.694 26.6248 71.6216 26.707 71.5337 26.7852C71.4458 26.8633 71.3376 26.9268 71.209 26.9756C71.082 27.0244 70.9315 27.0488 70.7573 27.0488ZM72.7642 24.7734V27H72.3125V24.3584H72.752L72.7642 24.7734ZM73.5894 24.3438L73.5869 24.7637C73.5495 24.7555 73.5137 24.7507 73.4795 24.749C73.4469 24.7458 73.4095 24.7441 73.3672 24.7441C73.263 24.7441 73.1711 24.7604 73.0913 24.793C73.0116 24.8255 72.944 24.8711 72.8887 24.9297C72.8333 24.9883 72.7894 25.0583 72.7568 25.1396C72.7259 25.2194 72.7056 25.3073 72.6958 25.4033L72.5688 25.4766C72.5688 25.3171 72.5843 25.1673 72.6152 25.0273C72.6478 24.8874 72.6974 24.7637 72.7642 24.6562C72.8309 24.5472 72.9155 24.4626 73.0181 24.4023C73.1222 24.3405 73.2459 24.3096 73.3892 24.3096C73.4217 24.3096 73.4591 24.3136 73.5015 24.3218C73.5438 24.3283 73.5731 24.3356 73.5894 24.3438Z" fill="black"/>
<rect x="129.25" y="32.25" width="8.5" height="14.5" stroke="#C0433A" stroke-width="0.5"/>
<rect x="129.25" y="32.25" width="8.5" height="14.5" stroke="#4298BD" stroke-width="0.5"/>
<rect x="129.25" y="32.25" width="8.5" height="14.5" stroke="#817033" stroke-width="0.5"/>
<rect x="140.25" y="32.25" width="8.5" height="14.5" stroke="#C0433A" stroke-width="0.5"/>
<path d="M52.9668 39.8696H53.4355C53.4111 40.0942 53.3468 40.2952 53.2427 40.4727C53.1385 40.6501 52.9912 40.7909 52.8008 40.895C52.6104 40.9976 52.3727 41.0488 52.0879 41.0488C51.8796 41.0488 51.6899 41.0098 51.519 40.9316C51.3498 40.8535 51.2041 40.7428 51.082 40.5996C50.96 40.4548 50.8656 40.2814 50.7988 40.0796C50.7337 39.8761 50.7012 39.6499 50.7012 39.4009V39.0469C50.7012 38.7979 50.7337 38.5724 50.7988 38.3706C50.8656 38.1672 50.9608 37.993 51.0845 37.8481C51.2098 37.7033 51.3604 37.5918 51.5361 37.5137C51.7119 37.4355 51.9097 37.3965 52.1294 37.3965C52.3979 37.3965 52.625 37.4469 52.8105 37.5479C52.9961 37.6488 53.1401 37.7887 53.2427 37.9678C53.3468 38.1452 53.4111 38.3511 53.4355 38.5854H52.9668C52.944 38.4194 52.9017 38.277 52.8398 38.1582C52.778 38.0378 52.6901 37.945 52.5762 37.8799C52.4622 37.8148 52.3133 37.7822 52.1294 37.7822C51.9715 37.7822 51.8324 37.8123 51.7119 37.8726C51.5931 37.9328 51.493 38.0182 51.4116 38.1289C51.3319 38.2396 51.2716 38.3722 51.231 38.5269C51.1903 38.6815 51.1699 38.8532 51.1699 39.042V39.4009C51.1699 39.575 51.1878 39.7386 51.2236 39.8916C51.2611 40.0446 51.3172 40.1789 51.3921 40.2944C51.467 40.41 51.5622 40.5011 51.6777 40.5679C51.7933 40.633 51.93 40.6655 52.0879 40.6655C52.2881 40.6655 52.4476 40.6338 52.5664 40.5703C52.6852 40.5068 52.7747 40.4157 52.835 40.2969C52.8968 40.1781 52.9408 40.0356 52.9668 39.8696ZM53.8896 39.7085V39.6523C53.8896 39.4619 53.9173 39.2853 53.9727 39.1226C54.028 38.9582 54.1077 38.8158 54.2119 38.6953C54.3161 38.5732 54.4422 38.4788 54.5903 38.4121C54.7384 38.3438 54.9045 38.3096 55.0884 38.3096C55.2739 38.3096 55.4408 38.3438 55.5889 38.4121C55.7386 38.4788 55.8656 38.5732 55.9697 38.6953C56.0755 38.8158 56.1561 38.9582 56.2114 39.1226C56.2668 39.2853 56.2944 39.4619 56.2944 39.6523V39.7085C56.2944 39.8989 56.2668 40.0755 56.2114 40.2383C56.1561 40.401 56.0755 40.5435 55.9697 40.6655C55.8656 40.786 55.7394 40.8804 55.5913 40.9487C55.4448 41.0155 55.2788 41.0488 55.0933 41.0488C54.9077 41.0488 54.7409 41.0155 54.5928 40.9487C54.4447 40.8804 54.3177 40.786 54.2119 40.6655C54.1077 40.5435 54.028 40.401 53.9727 40.2383C53.9173 40.0755 53.8896 39.8989 53.8896 39.7085ZM54.3413 39.6523V39.7085C54.3413 39.8403 54.3568 39.9648 54.3877 40.082C54.4186 40.1976 54.465 40.3001 54.5269 40.3896C54.5903 40.4792 54.6693 40.55 54.7637 40.6021C54.8581 40.6525 54.9679 40.6777 55.0933 40.6777C55.217 40.6777 55.3252 40.6525 55.418 40.6021C55.5124 40.55 55.5905 40.4792 55.6523 40.3896C55.7142 40.3001 55.7606 40.1976 55.7915 40.082C55.8241 39.9648 55.8403 39.8403 55.8403 39.7085V39.6523C55.8403 39.5221 55.8241 39.3993 55.7915 39.2837C55.7606 39.1665 55.7134 39.0632 55.6499 38.9736C55.5881 38.8825 55.5099 38.8109 55.4155 38.7588C55.3228 38.7067 55.2137 38.6807 55.0884 38.6807C54.9647 38.6807 54.8556 38.7067 54.7612 38.7588C54.6685 38.8109 54.5903 38.8825 54.5269 38.9736C54.465 39.0632 54.4186 39.1665 54.3877 39.2837C54.3568 39.3993 54.3413 39.5221 54.3413 39.6523ZM57.3101 38.8833V41H56.856V38.3584H57.2856L57.3101 38.8833ZM57.2173 39.5791L57.0073 39.5718C57.009 39.3911 57.0326 39.2243 57.0781 39.0713C57.1237 38.9167 57.1912 38.7824 57.2808 38.6685C57.3703 38.5545 57.4818 38.4666 57.6152 38.4048C57.7487 38.3413 57.9033 38.3096 58.0791 38.3096C58.2028 38.3096 58.3167 38.3275 58.4209 38.3633C58.5251 38.3975 58.6154 38.452 58.6919 38.5269C58.7684 38.6017 58.8278 38.6978 58.8701 38.8149C58.9124 38.9321 58.9336 39.0737 58.9336 39.2397V41H58.4819V39.2617C58.4819 39.1234 58.4583 39.0127 58.4111 38.9297C58.3656 38.8467 58.3005 38.7865 58.2158 38.749C58.1312 38.71 58.0319 38.6904 57.918 38.6904C57.7845 38.6904 57.673 38.714 57.5835 38.7612C57.494 38.8084 57.4224 38.8735 57.3687 38.9565C57.3149 39.0396 57.2759 39.1348 57.2515 39.2422C57.2287 39.348 57.2173 39.4603 57.2173 39.5791ZM58.9287 39.3301L58.626 39.4229C58.6276 39.278 58.6512 39.1388 58.6968 39.0054C58.744 38.8719 58.8115 38.7531 58.8994 38.6489C58.9889 38.5448 59.0988 38.4626 59.229 38.4023C59.3592 38.3405 59.5081 38.3096 59.6758 38.3096C59.8174 38.3096 59.9427 38.3283 60.0518 38.3657C60.1624 38.4032 60.2552 38.4609 60.3301 38.5391C60.4066 38.6156 60.4644 38.714 60.5034 38.8345C60.5425 38.9549 60.562 39.0981 60.562 39.2642V41H60.1079V39.2593C60.1079 39.1112 60.0843 38.9964 60.0371 38.915C59.9915 38.832 59.9264 38.7743 59.8418 38.7417C59.7588 38.7075 59.6595 38.6904 59.5439 38.6904C59.4447 38.6904 59.3568 38.7075 59.2803 38.7417C59.2038 38.7759 59.1395 38.8231 59.0874 38.8833C59.0353 38.9419 58.9954 39.0094 58.9678 39.0859C58.9417 39.1624 58.9287 39.2438 58.9287 39.3301ZM61.6948 38.8833V41H61.2407V38.3584H61.6704L61.6948 38.8833ZM61.6021 39.5791L61.3921 39.5718C61.3937 39.3911 61.4173 39.2243 61.4629 39.0713C61.5085 38.9167 61.576 38.7824 61.6655 38.6685C61.755 38.5545 61.8665 38.4666 62 38.4048C62.1335 38.3413 62.2881 38.3096 62.4639 38.3096C62.5876 38.3096 62.7015 38.3275 62.8057 38.3633C62.9098 38.3975 63.0002 38.452 63.0767 38.5269C63.1532 38.6017 63.2126 38.6978 63.2549 38.8149C63.2972 38.9321 63.3184 39.0737 63.3184 39.2397V41H62.8667V39.2617C62.8667 39.1234 62.8431 39.0127 62.7959 38.9297C62.7503 38.8467 62.6852 38.7865 62.6006 38.749C62.516 38.71 62.4167 38.6904 62.3027 38.6904C62.1693 38.6904 62.0578 38.714 61.9683 38.7612C61.8787 38.8084 61.8071 38.8735 61.7534 38.9565C61.6997 39.0396 61.6606 39.1348 61.6362 39.2422C61.6134 39.348 61.6021 39.4603 61.6021 39.5791ZM63.3135 39.3301L63.0107 39.4229C63.0124 39.278 63.036 39.1388 63.0815 39.0054C63.1287 38.8719 63.1963 38.7531 63.2842 38.6489C63.3737 38.5448 63.4836 38.4626 63.6138 38.4023C63.744 38.3405 63.8929 38.3096 64.0605 38.3096C64.2021 38.3096 64.3275 38.3283 64.4365 38.3657C64.5472 38.4032 64.64 38.4609 64.7148 38.5391C64.7913 38.6156 64.8491 38.714 64.8882 38.8345C64.9272 38.9549 64.9468 39.0981 64.9468 39.2642V41H64.4927V39.2593C64.4927 39.1112 64.4691 38.9964 64.4219 38.915C64.3763 38.832 64.3112 38.7743 64.2266 38.7417C64.1436 38.7075 64.0443 38.6904 63.9287 38.6904C63.8294 38.6904 63.7415 38.7075 63.665 38.7417C63.5885 38.7759 63.5243 38.8231 63.4722 38.8833C63.4201 38.9419 63.3802 39.0094 63.3525 39.0859C63.3265 39.1624 63.3135 39.2438 63.3135 39.3301ZM67.188 40.5483V39.1885C67.188 39.0843 67.1668 38.994 67.1245 38.9175C67.0838 38.8394 67.022 38.7791 66.939 38.7368C66.856 38.6945 66.7534 38.6733 66.6313 38.6733C66.5174 38.6733 66.4173 38.6929 66.3311 38.7319C66.2464 38.771 66.1797 38.8223 66.1309 38.8857C66.0837 38.9492 66.0601 39.0176 66.0601 39.0908H65.6084C65.6084 38.9964 65.6328 38.9028 65.6816 38.8101C65.7305 38.7173 65.8005 38.6335 65.8916 38.5586C65.9844 38.4821 66.0951 38.4219 66.2236 38.3779C66.3538 38.3324 66.4987 38.3096 66.6582 38.3096C66.8503 38.3096 67.0195 38.3421 67.166 38.4072C67.3141 38.4723 67.4297 38.5708 67.5127 38.7026C67.5973 38.8328 67.6396 38.9964 67.6396 39.1934V40.4238C67.6396 40.5117 67.647 40.6053 67.6616 40.7046C67.6779 40.8039 67.7015 40.8893 67.7324 40.9609V41H67.2612C67.2384 40.9479 67.2205 40.8787 67.2075 40.7925C67.1945 40.7046 67.188 40.6232 67.188 40.5483ZM67.2661 39.3984L67.271 39.7158H66.8145C66.6859 39.7158 66.5711 39.7264 66.4702 39.7476C66.3693 39.7671 66.2847 39.7972 66.2163 39.8379C66.1479 39.8786 66.0959 39.9299 66.0601 39.9917C66.0243 40.0519 66.0063 40.1227 66.0063 40.2041C66.0063 40.2871 66.0251 40.3628 66.0625 40.4312C66.0999 40.4995 66.1561 40.554 66.231 40.5947C66.3075 40.6338 66.401 40.6533 66.5117 40.6533C66.6501 40.6533 66.7721 40.624 66.8779 40.5654C66.9837 40.5068 67.0675 40.4352 67.1294 40.3506C67.1929 40.266 67.2271 40.1838 67.2319 40.104L67.4248 40.3213C67.4134 40.3896 67.3825 40.4653 67.332 40.5483C67.2816 40.6313 67.214 40.7111 67.1294 40.7876C67.0464 40.8625 66.9471 40.9251 66.8315 40.9756C66.7176 41.0244 66.589 41.0488 66.4458 41.0488C66.2668 41.0488 66.1097 41.0138 65.9746 40.9438C65.8411 40.8739 65.737 40.7803 65.6621 40.6631C65.5889 40.5443 65.5522 40.4116 65.5522 40.2651C65.5522 40.1235 65.5799 39.999 65.6353 39.8916C65.6906 39.7826 65.7703 39.6922 65.8745 39.6206C65.9787 39.5474 66.104 39.492 66.2505 39.4546C66.397 39.4172 66.5605 39.3984 66.7412 39.3984H67.2661ZM68.8018 38.9224V41H68.3501V38.3584H68.7773L68.8018 38.9224ZM68.6943 39.5791L68.5063 39.5718C68.508 39.3911 68.5348 39.2243 68.5869 39.0713C68.639 38.9167 68.7122 38.7824 68.8066 38.6685C68.901 38.5545 69.0133 38.4666 69.1436 38.4048C69.2754 38.3413 69.4211 38.3096 69.5806 38.3096C69.7108 38.3096 69.828 38.3275 69.9321 38.3633C70.0363 38.3975 70.125 38.4528 70.1982 38.5293C70.2731 38.6058 70.3301 38.7051 70.3691 38.8271C70.4082 38.9476 70.4277 39.0949 70.4277 39.269V41H69.9736V39.2642C69.9736 39.1258 69.9533 39.0151 69.9126 38.9321C69.8719 38.8475 69.8125 38.7865 69.7344 38.749C69.6562 38.71 69.5602 38.6904 69.4463 38.6904C69.334 38.6904 69.2314 38.714 69.1387 38.7612C69.0475 38.8084 68.9686 38.8735 68.9019 38.9565C68.8368 39.0396 68.7855 39.1348 68.748 39.2422C68.7122 39.348 68.6943 39.4603 68.6943 39.5791ZM72.7788 40.4873V37.25H73.2329V41H72.8179L72.7788 40.4873ZM71.0015 39.7085V39.6572C71.0015 39.4554 71.0259 39.2723 71.0747 39.1079C71.1252 38.9419 71.196 38.7995 71.2871 38.6807C71.3799 38.5618 71.4897 38.4707 71.6167 38.4072C71.7453 38.3421 71.8885 38.3096 72.0464 38.3096C72.2124 38.3096 72.3573 38.3389 72.481 38.3975C72.6063 38.4544 72.7121 38.5382 72.7983 38.6489C72.8862 38.758 72.9554 38.8898 73.0059 39.0444C73.0563 39.1991 73.0913 39.374 73.1108 39.5693V39.7939C73.0929 39.9876 73.0579 40.1618 73.0059 40.3164C72.9554 40.471 72.8862 40.6029 72.7983 40.7119C72.7121 40.821 72.6063 40.9048 72.481 40.9634C72.3556 41.0203 72.2091 41.0488 72.0415 41.0488C71.8869 41.0488 71.7453 41.0155 71.6167 40.9487C71.4897 40.882 71.3799 40.7884 71.2871 40.668C71.196 40.5475 71.1252 40.4059 71.0747 40.2432C71.0259 40.0788 71.0015 39.9006 71.0015 39.7085ZM71.4556 39.6572V39.7085C71.4556 39.8403 71.4686 39.964 71.4946 40.0796C71.5223 40.1951 71.5646 40.2969 71.6216 40.3848C71.6785 40.4727 71.751 40.5418 71.8389 40.5923C71.9268 40.6411 72.0317 40.6655 72.1538 40.6655C72.3035 40.6655 72.4264 40.6338 72.5225 40.5703C72.6201 40.5068 72.6982 40.423 72.7568 40.3188C72.8154 40.2147 72.861 40.1016 72.8936 39.9795V39.3911C72.874 39.3016 72.8455 39.2153 72.8081 39.1323C72.7723 39.0477 72.7251 38.9728 72.6665 38.9077C72.6095 38.841 72.5387 38.7881 72.4541 38.749C72.3711 38.71 72.2726 38.6904 72.1587 38.6904C72.035 38.6904 71.9284 38.7165 71.8389 38.7686C71.751 38.819 71.6785 38.889 71.6216 38.9785C71.5646 39.0664 71.5223 39.1689 71.4946 39.2861C71.4686 39.4017 71.4556 39.5254 71.4556 39.6572Z" fill="black"/>
<rect x="104.25" y="32.25" width="22.5" height="14.5" stroke="#C0433A" stroke-width="0.5"/>
<rect x="104.25" y="32.25" width="22.5" height="14.5" stroke="#4298BD" stroke-width="0.5"/>
<rect x="104.25" y="32.25" width="22.5" height="14.5" stroke="#D9BE56" stroke-width="0.5"/>
<path d="M77 39L79.5 40.4434V37.5566L77 39ZM104 38.75H79.25V39.25H104V38.75Z" fill="#D9BE56"/>
</svg>
