<svg width="288" height="78" viewBox="0 0 288 78" fill="none" xmlns="http://www.w3.org/2000/svg">
<rect width="288" height="78" fill="white"/>
<path d="M121.62 43H120.202V36.25C120.202 35.7383 120.304 35.3066 120.507 34.9551C120.714 34.6035 121.009 34.3359 121.392 34.1523C121.778 33.9688 122.237 33.877 122.769 33.877C123.081 33.877 123.382 33.9102 123.671 33.9766C123.964 34.043 124.267 34.127 124.579 34.2285L124.362 35.377C124.163 35.3105 123.942 35.248 123.7 35.1895C123.458 35.127 123.179 35.0957 122.862 35.0957C122.437 35.0957 122.122 35.1934 121.919 35.3887C121.72 35.5801 121.62 35.8672 121.62 36.25V43ZM122.892 36.6602V37.6914H119.23V36.6602H122.892ZM125.247 36.6602V43H123.835V36.6602H125.247ZM128.584 38.0137V43H127.172V36.6602H128.502L128.584 38.0137ZM128.332 39.5957L127.875 39.5898C127.879 39.1406 127.941 38.7285 128.062 38.3535C128.187 37.9785 128.359 37.6562 128.578 37.3867C128.801 37.1172 129.066 36.9102 129.375 36.7656C129.683 36.6172 130.027 36.543 130.406 36.543C130.711 36.543 130.986 36.5859 131.232 36.6719C131.482 36.7539 131.695 36.8887 131.871 37.0762C132.051 37.2637 132.187 37.5078 132.281 37.8086C132.375 38.1055 132.422 38.4707 132.422 38.9043V43H131.004V38.8984C131.004 38.5938 130.959 38.3535 130.869 38.1777C130.783 37.998 130.656 37.8711 130.488 37.7969C130.324 37.7188 130.119 37.6797 129.873 37.6797C129.631 37.6797 129.414 37.7305 129.222 37.832C129.031 37.9336 128.869 38.0723 128.736 38.248C128.607 38.4238 128.508 38.627 128.437 38.8574C128.367 39.0879 128.332 39.334 128.332 39.5957ZM138.09 41.6875V34H139.508V43H138.225L138.09 41.6875ZM133.965 39.9004V39.7773C133.965 39.2969 134.022 38.8594 134.135 38.4648C134.248 38.0664 134.412 37.7246 134.627 37.4395C134.842 37.1504 135.104 36.9297 135.412 36.7773C135.721 36.6211 136.069 36.543 136.455 36.543C136.838 36.543 137.174 36.6172 137.463 36.7656C137.752 36.9141 137.998 37.127 138.202 37.4043C138.405 37.6777 138.567 38.0059 138.688 38.3887C138.809 38.7676 138.895 39.1895 138.946 39.6543V40.0469C138.895 40.5 138.809 40.9141 138.688 41.2891C138.567 41.6641 138.405 41.9883 138.202 42.2617C137.998 42.5352 137.75 42.7461 137.457 42.8945C137.168 43.043 136.83 43.1172 136.444 43.1172C136.061 43.1172 135.715 43.0371 135.407 42.877C135.102 42.7168 134.842 42.4922 134.627 42.2031C134.412 41.9141 134.248 41.5742 134.135 41.1836C134.022 40.7891 133.965 40.3613 133.965 39.9004ZM135.377 39.7773V39.9004C135.377 40.1895 135.403 40.459 135.454 40.709C135.508 40.959 135.592 41.1797 135.705 41.3711C135.819 41.5586 135.965 41.707 136.145 41.8164C136.329 41.9219 136.547 41.9746 136.801 41.9746C137.121 41.9746 137.385 41.9043 137.592 41.7637C137.799 41.623 137.961 41.4336 138.079 41.1953C138.2 40.9531 138.282 40.6836 138.325 40.3867V39.3262C138.301 39.0957 138.252 38.8809 138.178 38.6816C138.108 38.4824 138.012 38.3086 137.891 38.1602C137.77 38.0078 137.62 37.8906 137.44 37.8086C137.264 37.7227 137.055 37.6797 136.813 37.6797C136.555 37.6797 136.336 37.7344 136.157 37.8438C135.977 37.9531 135.829 38.1035 135.711 38.2949C135.598 38.4863 135.514 38.709 135.459 38.9629C135.405 39.2168 135.377 39.4883 135.377 39.7773ZM146.111 37.8672V43H144.699V36.6602H146.047L146.111 37.8672ZM148.05 36.6191L148.039 37.9316C147.953 37.916 147.859 37.9043 147.757 37.8965C147.66 37.8887 147.562 37.8848 147.465 37.8848C147.222 37.8848 147.009 37.9199 146.826 37.9902C146.642 38.0566 146.488 38.1543 146.363 38.2832C146.242 38.4082 146.148 38.5605 146.082 38.7402C146.015 38.9199 145.976 39.1211 145.965 39.3438L145.642 39.3672C145.642 38.9688 145.681 38.5996 145.759 38.2598C145.838 37.9199 145.955 37.6211 146.111 37.3633C146.271 37.1055 146.47 36.9043 146.709 36.7598C146.951 36.6152 147.23 36.543 147.547 36.543C147.632 36.543 147.724 36.5508 147.822 36.5664C147.924 36.582 148 36.5996 148.05 36.6191ZM153.004 34.4688L149.682 43.7324H148.575L151.903 34.4688H153.004ZM157.138 43.1172C156.669 43.1172 156.245 43.041 155.866 42.8887C155.491 42.7324 155.171 42.5156 154.905 42.2383C154.644 41.9609 154.442 41.6348 154.302 41.2598C154.161 40.8848 154.091 40.4805 154.091 40.0469V39.8125C154.091 39.3164 154.163 38.8672 154.308 38.4648C154.452 38.0625 154.653 37.7188 154.911 37.4336C155.169 37.1445 155.474 36.9238 155.825 36.7715C156.177 36.6191 156.558 36.543 156.968 36.543C157.421 36.543 157.817 36.6191 158.157 36.7715C158.497 36.9238 158.778 37.1387 159.001 37.416C159.227 37.6895 159.395 38.0156 159.505 38.3945C159.618 38.7734 159.675 39.1914 159.675 39.6484V40.252H154.776V39.2383H158.28V39.127C158.272 38.873 158.222 38.6348 158.128 38.4121C158.038 38.1895 157.899 38.0098 157.712 37.873C157.524 37.7363 157.274 37.668 156.962 37.668C156.727 37.668 156.519 37.7188 156.335 37.8203C156.155 37.918 156.005 38.0605 155.884 38.248C155.763 38.4355 155.669 38.6621 155.602 38.9277C155.54 39.1895 155.509 39.4844 155.509 39.8125V40.0469C155.509 40.3242 155.546 40.582 155.62 40.8203C155.698 41.0547 155.811 41.2598 155.96 41.4355C156.108 41.6113 156.288 41.75 156.499 41.8516C156.71 41.9492 156.95 41.998 157.22 41.998C157.56 41.998 157.862 41.9297 158.128 41.793C158.394 41.6562 158.624 41.4629 158.819 41.2129L159.563 41.9336C159.427 42.1328 159.249 42.3242 159.03 42.5078C158.811 42.6875 158.544 42.834 158.227 42.9473C157.915 43.0605 157.552 43.1172 157.138 43.1172ZM165.197 36.6602H166.48V42.8242C166.48 43.3945 166.359 43.8789 166.117 44.2773C165.875 44.6758 165.537 44.9785 165.103 45.1855C164.67 45.3965 164.168 45.502 163.597 45.502C163.355 45.502 163.086 45.4668 162.789 45.3965C162.496 45.3262 162.211 45.2129 161.933 45.0566C161.66 44.9043 161.431 44.7031 161.248 44.4531L161.91 43.6211C162.136 43.8906 162.386 44.0879 162.66 44.2129C162.933 44.3379 163.22 44.4004 163.521 44.4004C163.845 44.4004 164.121 44.3398 164.347 44.2188C164.578 44.1016 164.755 43.9277 164.88 43.6973C165.005 43.4668 165.068 43.1855 165.068 42.8535V38.0957L165.197 36.6602ZM160.89 39.9004V39.7773C160.89 39.2969 160.949 38.8594 161.066 38.4648C161.183 38.0664 161.351 37.7246 161.57 37.4395C161.789 37.1504 162.054 36.9297 162.367 36.7773C162.679 36.6211 163.033 36.543 163.427 36.543C163.837 36.543 164.187 36.6172 164.476 36.7656C164.769 36.9141 165.013 37.127 165.209 37.4043C165.404 37.6777 165.556 38.0059 165.666 38.3887C165.779 38.7676 165.863 39.1895 165.918 39.6543V40.0469C165.867 40.5 165.781 40.9141 165.66 41.2891C165.539 41.6641 165.379 41.9883 165.179 42.2617C164.98 42.5352 164.734 42.7461 164.441 42.8945C164.152 43.043 163.81 43.1172 163.416 43.1172C163.029 43.1172 162.679 43.0371 162.367 42.877C162.058 42.7168 161.793 42.4922 161.57 42.2031C161.351 41.9141 161.183 41.5742 161.066 41.1836C160.949 40.7891 160.89 40.3613 160.89 39.9004ZM162.302 39.7773V39.9004C162.302 40.1895 162.33 40.459 162.384 40.709C162.443 40.959 162.531 41.1797 162.648 41.3711C162.769 41.5586 162.921 41.707 163.105 41.8164C163.293 41.9219 163.513 41.9746 163.767 41.9746C164.099 41.9746 164.371 41.9043 164.582 41.7637C164.796 41.623 164.961 41.4336 165.074 41.1953C165.191 40.9531 165.273 40.6836 165.32 40.3867V39.3262C165.296 39.0957 165.248 38.8809 165.173 38.6816C165.103 38.4824 165.007 38.3086 164.886 38.1602C164.765 38.0078 164.613 37.8906 164.429 37.8086C164.246 37.7227 164.029 37.6797 163.779 37.6797C163.525 37.6797 163.304 37.7344 163.117 37.8438C162.929 37.9531 162.775 38.1035 162.654 38.2949C162.537 38.4863 162.449 38.709 162.39 38.9629C162.332 39.2168 162.302 39.4883 162.302 39.7773ZM172.365 36.6602H173.649V42.8242C173.649 43.3945 173.528 43.8789 173.285 44.2773C173.043 44.6758 172.705 44.9785 172.272 45.1855C171.838 45.3965 171.336 45.502 170.766 45.502C170.524 45.502 170.254 45.4668 169.957 45.3965C169.664 45.3262 169.379 45.2129 169.102 45.0566C168.828 44.9043 168.6 44.7031 168.416 44.4531L169.078 43.6211C169.305 43.8906 169.555 44.0879 169.828 44.2129C170.102 44.3379 170.389 44.4004 170.69 44.4004C171.014 44.4004 171.289 44.3398 171.516 44.2188C171.746 44.1016 171.924 43.9277 172.049 43.6973C172.174 43.4668 172.237 43.1855 172.237 42.8535V38.0957L172.365 36.6602ZM168.059 39.9004V39.7773C168.059 39.2969 168.117 38.8594 168.235 38.4648C168.352 38.0664 168.52 37.7246 168.739 37.4395C168.957 37.1504 169.223 36.9297 169.535 36.7773C169.848 36.6211 170.201 36.543 170.596 36.543C171.006 36.543 171.356 36.6172 171.645 36.7656C171.938 36.9141 172.182 37.127 172.377 37.4043C172.572 37.6777 172.725 38.0059 172.834 38.3887C172.947 38.7676 173.031 39.1895 173.086 39.6543V40.0469C173.035 40.5 172.949 40.9141 172.828 41.2891C172.707 41.6641 172.547 41.9883 172.348 42.2617C172.149 42.5352 171.903 42.7461 171.61 42.8945C171.321 43.043 170.979 43.1172 170.584 43.1172C170.197 43.1172 169.848 43.0371 169.535 42.877C169.227 42.7168 168.961 42.4922 168.739 42.2031C168.52 41.9141 168.352 41.5742 168.235 41.1836C168.117 40.7891 168.059 40.3613 168.059 39.9004ZM169.471 39.7773V39.9004C169.471 40.1895 169.498 40.459 169.553 40.709C169.612 40.959 169.699 41.1797 169.817 41.3711C169.938 41.5586 170.09 41.707 170.274 41.8164C170.461 41.9219 170.682 41.9746 170.936 41.9746C171.268 41.9746 171.539 41.9043 171.75 41.7637C171.965 41.623 172.129 41.4336 172.242 41.1953C172.36 40.9531 172.442 40.6836 172.489 40.3867V39.3262C172.465 39.0957 172.416 38.8809 172.342 38.6816C172.272 38.4824 172.176 38.3086 172.055 38.1602C171.934 38.0078 171.781 37.8906 171.598 37.8086C171.414 37.7227 171.197 37.6797 170.947 37.6797C170.694 37.6797 170.473 37.7344 170.285 37.8438C170.098 37.9531 169.944 38.1035 169.822 38.2949C169.705 38.4863 169.617 38.709 169.559 38.9629C169.5 39.2168 169.471 39.4883 169.471 39.7773ZM179.03 41.2832C179.03 41.1426 178.995 41.0156 178.925 40.9023C178.854 40.7852 178.72 40.6797 178.52 40.5859C178.325 40.4922 178.036 40.4062 177.653 40.3281C177.317 40.2539 177.009 40.166 176.727 40.0645C176.45 39.959 176.212 39.832 176.013 39.6836C175.813 39.5352 175.659 39.3594 175.55 39.1562C175.44 38.9531 175.386 38.7188 175.386 38.4531C175.386 38.1953 175.442 37.9512 175.556 37.7207C175.669 37.4902 175.831 37.2871 176.042 37.1113C176.253 36.9355 176.509 36.7969 176.809 36.6953C177.114 36.5938 177.454 36.543 177.829 36.543C178.36 36.543 178.815 36.6328 179.194 36.8125C179.577 36.9883 179.87 37.2285 180.073 37.5332C180.276 37.834 180.378 38.1738 180.378 38.5527H178.966C178.966 38.3848 178.923 38.2285 178.837 38.084C178.755 37.9355 178.63 37.8164 178.462 37.7266C178.294 37.6328 178.083 37.5859 177.829 37.5859C177.587 37.5859 177.386 37.625 177.225 37.7031C177.069 37.7773 176.952 37.875 176.874 37.9961C176.8 38.1172 176.763 38.25 176.763 38.3945C176.763 38.5 176.782 38.5957 176.821 38.6816C176.864 38.7637 176.934 38.8398 177.032 38.9102C177.13 38.9766 177.263 39.0391 177.431 39.0977C177.602 39.1562 177.817 39.2129 178.075 39.2676C178.559 39.3691 178.975 39.5 179.323 39.6602C179.675 39.8164 179.944 40.0195 180.132 40.2695C180.319 40.5156 180.413 40.8281 180.413 41.207C180.413 41.4883 180.352 41.7461 180.231 41.9805C180.114 42.2109 179.942 42.4121 179.716 42.584C179.489 42.752 179.218 42.8828 178.901 42.9766C178.589 43.0703 178.237 43.1172 177.847 43.1172C177.272 43.1172 176.786 43.0156 176.388 42.8125C175.989 42.6055 175.686 42.3418 175.479 42.0215C175.276 41.6973 175.175 41.3613 175.175 41.0137H176.54C176.556 41.2754 176.628 41.4844 176.757 41.6406C176.89 41.793 177.054 41.9043 177.249 41.9746C177.448 42.041 177.653 42.0742 177.864 42.0742C178.118 42.0742 178.331 42.041 178.503 41.9746C178.675 41.9043 178.806 41.8105 178.895 41.6934C178.985 41.5723 179.03 41.4355 179.03 41.2832Z" fill="black"/>
<path d="M66.9668 39.8696H67.4355C67.4111 40.0942 67.3468 40.2952 67.2427 40.4727C67.1385 40.6501 66.9912 40.7909 66.8008 40.895C66.6104 40.9976 66.3727 41.0488 66.0879 41.0488C65.8796 41.0488 65.6899 41.0098 65.519 40.9316C65.3498 40.8535 65.2041 40.7428 65.082 40.5996C64.96 40.4548 64.8656 40.2814 64.7988 40.0796C64.7337 39.8761 64.7012 39.6499 64.7012 39.4009V39.0469C64.7012 38.7979 64.7337 38.5724 64.7988 38.3706C64.8656 38.1672 64.9608 37.993 65.0845 37.8481C65.2098 37.7033 65.3604 37.5918 65.5361 37.5137C65.7119 37.4355 65.9097 37.3965 66.1294 37.3965C66.3979 37.3965 66.625 37.4469 66.8105 37.5479C66.9961 37.6488 67.1401 37.7887 67.2427 37.9678C67.3468 38.1452 67.4111 38.3511 67.4355 38.5854H66.9668C66.944 38.4194 66.9017 38.277 66.8398 38.1582C66.778 38.0378 66.6901 37.945 66.5762 37.8799C66.4622 37.8148 66.3133 37.7822 66.1294 37.7822C65.9715 37.7822 65.8324 37.8123 65.7119 37.8726C65.5931 37.9328 65.493 38.0182 65.4116 38.1289C65.3319 38.2396 65.2716 38.3722 65.231 38.5269C65.1903 38.6815 65.1699 38.8532 65.1699 39.042V39.4009C65.1699 39.575 65.1878 39.7386 65.2236 39.8916C65.2611 40.0446 65.3172 40.1789 65.3921 40.2944C65.467 40.41 65.5622 40.5011 65.6777 40.5679C65.7933 40.633 65.93 40.6655 66.0879 40.6655C66.2881 40.6655 66.4476 40.6338 66.5664 40.5703C66.6852 40.5068 66.7747 40.4157 66.835 40.2969C66.8968 40.1781 66.9408 40.0356 66.9668 39.8696ZM67.8896 39.7085V39.6523C67.8896 39.4619 67.9173 39.2853 67.9727 39.1226C68.028 38.9582 68.1077 38.8158 68.2119 38.6953C68.3161 38.5732 68.4422 38.4788 68.5903 38.4121C68.7384 38.3438 68.9045 38.3096 69.0884 38.3096C69.2739 38.3096 69.4408 38.3438 69.5889 38.4121C69.7386 38.4788 69.8656 38.5732 69.9697 38.6953C70.0755 38.8158 70.1561 38.9582 70.2114 39.1226C70.2668 39.2853 70.2944 39.4619 70.2944 39.6523V39.7085C70.2944 39.8989 70.2668 40.0755 70.2114 40.2383C70.1561 40.401 70.0755 40.5435 69.9697 40.6655C69.8656 40.786 69.7394 40.8804 69.5913 40.9487C69.4448 41.0155 69.2788 41.0488 69.0933 41.0488C68.9077 41.0488 68.7409 41.0155 68.5928 40.9487C68.4447 40.8804 68.3177 40.786 68.2119 40.6655C68.1077 40.5435 68.028 40.401 67.9727 40.2383C67.9173 40.0755 67.8896 39.8989 67.8896 39.7085ZM68.3413 39.6523V39.7085C68.3413 39.8403 68.3568 39.9648 68.3877 40.082C68.4186 40.1976 68.465 40.3001 68.5269 40.3896C68.5903 40.4792 68.6693 40.55 68.7637 40.6021C68.8581 40.6525 68.9679 40.6777 69.0933 40.6777C69.217 40.6777 69.3252 40.6525 69.418 40.6021C69.5124 40.55 69.5905 40.4792 69.6523 40.3896C69.7142 40.3001 69.7606 40.1976 69.7915 40.082C69.8241 39.9648 69.8403 39.8403 69.8403 39.7085V39.6523C69.8403 39.5221 69.8241 39.3993 69.7915 39.2837C69.7606 39.1665 69.7134 39.0632 69.6499 38.9736C69.5881 38.8825 69.5099 38.8109 69.4155 38.7588C69.3228 38.7067 69.2137 38.6807 69.0884 38.6807C68.9647 38.6807 68.8556 38.7067 68.7612 38.7588C68.6685 38.8109 68.5903 38.8825 68.5269 38.9736C68.465 39.0632 68.4186 39.1665 68.3877 39.2837C68.3568 39.3993 68.3413 39.5221 68.3413 39.6523ZM71.3101 38.8833V41H70.856V38.3584H71.2856L71.3101 38.8833ZM71.2173 39.5791L71.0073 39.5718C71.009 39.3911 71.0326 39.2243 71.0781 39.0713C71.1237 38.9167 71.1912 38.7824 71.2808 38.6685C71.3703 38.5545 71.4818 38.4666 71.6152 38.4048C71.7487 38.3413 71.9033 38.3096 72.0791 38.3096C72.2028 38.3096 72.3167 38.3275 72.4209 38.3633C72.5251 38.3975 72.6154 38.452 72.6919 38.5269C72.7684 38.6017 72.8278 38.6978 72.8701 38.8149C72.9124 38.9321 72.9336 39.0737 72.9336 39.2397V41H72.4819V39.2617C72.4819 39.1234 72.4583 39.0127 72.4111 38.9297C72.3656 38.8467 72.3005 38.7865 72.2158 38.749C72.1312 38.71 72.0319 38.6904 71.918 38.6904C71.7845 38.6904 71.673 38.714 71.5835 38.7612C71.494 38.8084 71.4224 38.8735 71.3687 38.9565C71.3149 39.0396 71.2759 39.1348 71.2515 39.2422C71.2287 39.348 71.2173 39.4603 71.2173 39.5791ZM72.9287 39.3301L72.626 39.4229C72.6276 39.278 72.6512 39.1388 72.6968 39.0054C72.744 38.8719 72.8115 38.7531 72.8994 38.6489C72.9889 38.5448 73.0988 38.4626 73.229 38.4023C73.3592 38.3405 73.5081 38.3096 73.6758 38.3096C73.8174 38.3096 73.9427 38.3283 74.0518 38.3657C74.1624 38.4032 74.2552 38.4609 74.3301 38.5391C74.4066 38.6156 74.4644 38.714 74.5034 38.8345C74.5425 38.9549 74.562 39.0981 74.562 39.2642V41H74.1079V39.2593C74.1079 39.1112 74.0843 38.9964 74.0371 38.915C73.9915 38.832 73.9264 38.7743 73.8418 38.7417C73.7588 38.7075 73.6595 38.6904 73.5439 38.6904C73.4447 38.6904 73.3568 38.7075 73.2803 38.7417C73.2038 38.7759 73.1395 38.8231 73.0874 38.8833C73.0353 38.9419 72.9954 39.0094 72.9678 39.0859C72.9417 39.1624 72.9287 39.2438 72.9287 39.3301ZM75.6948 38.8833V41H75.2407V38.3584H75.6704L75.6948 38.8833ZM75.6021 39.5791L75.3921 39.5718C75.3937 39.3911 75.4173 39.2243 75.4629 39.0713C75.5085 38.9167 75.576 38.7824 75.6655 38.6685C75.755 38.5545 75.8665 38.4666 76 38.4048C76.1335 38.3413 76.2881 38.3096 76.4639 38.3096C76.5876 38.3096 76.7015 38.3275 76.8057 38.3633C76.9098 38.3975 77.0002 38.452 77.0767 38.5269C77.1532 38.6017 77.2126 38.6978 77.2549 38.8149C77.2972 38.9321 77.3184 39.0737 77.3184 39.2397V41H76.8667V39.2617C76.8667 39.1234 76.8431 39.0127 76.7959 38.9297C76.7503 38.8467 76.6852 38.7865 76.6006 38.749C76.516 38.71 76.4167 38.6904 76.3027 38.6904C76.1693 38.6904 76.0578 38.714 75.9683 38.7612C75.8787 38.8084 75.8071 38.8735 75.7534 38.9565C75.6997 39.0396 75.6606 39.1348 75.6362 39.2422C75.6134 39.348 75.6021 39.4603 75.6021 39.5791ZM77.3135 39.3301L77.0107 39.4229C77.0124 39.278 77.036 39.1388 77.0815 39.0054C77.1287 38.8719 77.1963 38.7531 77.2842 38.6489C77.3737 38.5448 77.4836 38.4626 77.6138 38.4023C77.744 38.3405 77.8929 38.3096 78.0605 38.3096C78.2021 38.3096 78.3275 38.3283 78.4365 38.3657C78.5472 38.4032 78.64 38.4609 78.7148 38.5391C78.7913 38.6156 78.8491 38.714 78.8882 38.8345C78.9272 38.9549 78.9468 39.0981 78.9468 39.2642V41H78.4927V39.2593C78.4927 39.1112 78.4691 38.9964 78.4219 38.915C78.3763 38.832 78.3112 38.7743 78.2266 38.7417C78.1436 38.7075 78.0443 38.6904 77.9287 38.6904C77.8294 38.6904 77.7415 38.7075 77.665 38.7417C77.5885 38.7759 77.5243 38.8231 77.4722 38.8833C77.4201 38.9419 77.3802 39.0094 77.3525 39.0859C77.3265 39.1624 77.3135 39.2438 77.3135 39.3301ZM81.188 40.5483V39.1885C81.188 39.0843 81.1668 38.994 81.1245 38.9175C81.0838 38.8394 81.022 38.7791 80.939 38.7368C80.856 38.6945 80.7534 38.6733 80.6313 38.6733C80.5174 38.6733 80.4173 38.6929 80.3311 38.7319C80.2464 38.771 80.1797 38.8223 80.1309 38.8857C80.0837 38.9492 80.0601 39.0176 80.0601 39.0908H79.6084C79.6084 38.9964 79.6328 38.9028 79.6816 38.8101C79.7305 38.7173 79.8005 38.6335 79.8916 38.5586C79.9844 38.4821 80.0951 38.4219 80.2236 38.3779C80.3538 38.3324 80.4987 38.3096 80.6582 38.3096C80.8503 38.3096 81.0195 38.3421 81.166 38.4072C81.3141 38.4723 81.4297 38.5708 81.5127 38.7026C81.5973 38.8328 81.6396 38.9964 81.6396 39.1934V40.4238C81.6396 40.5117 81.647 40.6053 81.6616 40.7046C81.6779 40.8039 81.7015 40.8893 81.7324 40.9609V41H81.2612C81.2384 40.9479 81.2205 40.8787 81.2075 40.7925C81.1945 40.7046 81.188 40.6232 81.188 40.5483ZM81.2661 39.3984L81.271 39.7158H80.8145C80.6859 39.7158 80.5711 39.7264 80.4702 39.7476C80.3693 39.7671 80.2847 39.7972 80.2163 39.8379C80.1479 39.8786 80.0959 39.9299 80.0601 39.9917C80.0243 40.0519 80.0063 40.1227 80.0063 40.2041C80.0063 40.2871 80.0251 40.3628 80.0625 40.4312C80.0999 40.4995 80.1561 40.554 80.231 40.5947C80.3075 40.6338 80.401 40.6533 80.5117 40.6533C80.6501 40.6533 80.7721 40.624 80.8779 40.5654C80.9837 40.5068 81.0675 40.4352 81.1294 40.3506C81.1929 40.266 81.2271 40.1838 81.2319 40.104L81.4248 40.3213C81.4134 40.3896 81.3825 40.4653 81.332 40.5483C81.2816 40.6313 81.214 40.7111 81.1294 40.7876C81.0464 40.8625 80.9471 40.9251 80.8315 40.9756C80.7176 41.0244 80.589 41.0488 80.4458 41.0488C80.2668 41.0488 80.1097 41.0138 79.9746 40.9438C79.8411 40.8739 79.737 40.7803 79.6621 40.6631C79.5889 40.5443 79.5522 40.4116 79.5522 40.2651C79.5522 40.1235 79.5799 39.999 79.6353 39.8916C79.6906 39.7826 79.7703 39.6922 79.8745 39.6206C79.9787 39.5474 80.104 39.492 80.2505 39.4546C80.397 39.4172 80.5605 39.3984 80.7412 39.3984H81.2661ZM82.8018 38.9224V41H82.3501V38.3584H82.7773L82.8018 38.9224ZM82.6943 39.5791L82.5063 39.5718C82.508 39.3911 82.5348 39.2243 82.5869 39.0713C82.639 38.9167 82.7122 38.7824 82.8066 38.6685C82.901 38.5545 83.0133 38.4666 83.1436 38.4048C83.2754 38.3413 83.4211 38.3096 83.5806 38.3096C83.7108 38.3096 83.828 38.3275 83.9321 38.3633C84.0363 38.3975 84.125 38.4528 84.1982 38.5293C84.2731 38.6058 84.3301 38.7051 84.3691 38.8271C84.4082 38.9476 84.4277 39.0949 84.4277 39.269V41H83.9736V39.2642C83.9736 39.1258 83.9533 39.0151 83.9126 38.9321C83.8719 38.8475 83.8125 38.7865 83.7344 38.749C83.6562 38.71 83.5602 38.6904 83.4463 38.6904C83.334 38.6904 83.2314 38.714 83.1387 38.7612C83.0475 38.8084 82.9686 38.8735 82.9019 38.9565C82.8368 39.0396 82.7855 39.1348 82.748 39.2422C82.7122 39.348 82.6943 39.4603 82.6943 39.5791ZM86.7788 40.4873V37.25H87.2329V41H86.8179L86.7788 40.4873ZM85.0015 39.7085V39.6572C85.0015 39.4554 85.0259 39.2723 85.0747 39.1079C85.1252 38.9419 85.196 38.7995 85.2871 38.6807C85.3799 38.5618 85.4897 38.4707 85.6167 38.4072C85.7453 38.3421 85.8885 38.3096 86.0464 38.3096C86.2124 38.3096 86.3573 38.3389 86.481 38.3975C86.6063 38.4544 86.7121 38.5382 86.7983 38.6489C86.8862 38.758 86.9554 38.8898 87.0059 39.0444C87.0563 39.1991 87.0913 39.374 87.1108 39.5693V39.7939C87.0929 39.9876 87.0579 40.1618 87.0059 40.3164C86.9554 40.471 86.8862 40.6029 86.7983 40.7119C86.7121 40.821 86.6063 40.9048 86.481 40.9634C86.3556 41.0203 86.2091 41.0488 86.0415 41.0488C85.8869 41.0488 85.7453 41.0155 85.6167 40.9487C85.4897 40.882 85.3799 40.7884 85.2871 40.668C85.196 40.5475 85.1252 40.4059 85.0747 40.2432C85.0259 40.0788 85.0015 39.9006 85.0015 39.7085ZM85.4556 39.6572V39.7085C85.4556 39.8403 85.4686 39.964 85.4946 40.0796C85.5223 40.1951 85.5646 40.2969 85.6216 40.3848C85.6785 40.4727 85.751 40.5418 85.8389 40.5923C85.9268 40.6411 86.0317 40.6655 86.1538 40.6655C86.3035 40.6655 86.4264 40.6338 86.5225 40.5703C86.6201 40.5068 86.6982 40.423 86.7568 40.3188C86.8154 40.2147 86.861 40.1016 86.8936 39.9795V39.3911C86.874 39.3016 86.8455 39.2153 86.8081 39.1323C86.7723 39.0477 86.7251 38.9728 86.6665 38.9077C86.6095 38.841 86.5387 38.7881 86.4541 38.749C86.3711 38.71 86.2726 38.6904 86.1587 38.6904C86.035 38.6904 85.9284 38.7165 85.8389 38.7686C85.751 38.819 85.6785 38.889 85.6216 38.9785C85.5646 39.0664 85.5223 39.1689 85.4946 39.2861C85.4686 39.4017 85.4556 39.5254 85.4556 39.6572Z" fill="black"/>
<rect x="118.25" y="32.25" width="22.5" height="14.5" stroke="#C0433A" stroke-width="0.5"/>
<rect x="118.25" y="32.25" width="22.5" height="14.5" stroke="#4298BD" stroke-width="0.5"/>
<rect x="118.25" y="32.25" width="22.5" height="14.5" stroke="#D9BE56" stroke-width="0.5"/>
<path d="M91 39L93.5 40.4434V37.5566L91 39ZM118 38.75H93.25V39.25H118V38.75Z" fill="#D9BE56"/>
<path d="M66.9668 39.8696H67.4355C67.4111 40.0942 67.3468 40.2952 67.2427 40.4727C67.1385 40.6501 66.9912 40.7909 66.8008 40.895C66.6104 40.9976 66.3727 41.0488 66.0879 41.0488C65.8796 41.0488 65.6899 41.0098 65.519 40.9316C65.3498 40.8535 65.2041 40.7428 65.082 40.5996C64.96 40.4548 64.8656 40.2814 64.7988 40.0796C64.7337 39.8761 64.7012 39.6499 64.7012 39.4009V39.0469C64.7012 38.7979 64.7337 38.5724 64.7988 38.3706C64.8656 38.1672 64.9608 37.993 65.0845 37.8481C65.2098 37.7033 65.3604 37.5918 65.5361 37.5137C65.7119 37.4355 65.9097 37.3965 66.1294 37.3965C66.3979 37.3965 66.625 37.4469 66.8105 37.5479C66.9961 37.6488 67.1401 37.7887 67.2427 37.9678C67.3468 38.1452 67.4111 38.3511 67.4355 38.5854H66.9668C66.944 38.4194 66.9017 38.277 66.8398 38.1582C66.778 38.0378 66.6901 37.945 66.5762 37.8799C66.4622 37.8148 66.3133 37.7822 66.1294 37.7822C65.9715 37.7822 65.8324 37.8123 65.7119 37.8726C65.5931 37.9328 65.493 38.0182 65.4116 38.1289C65.3319 38.2396 65.2716 38.3722 65.231 38.5269C65.1903 38.6815 65.1699 38.8532 65.1699 39.042V39.4009C65.1699 39.575 65.1878 39.7386 65.2236 39.8916C65.2611 40.0446 65.3172 40.1789 65.3921 40.2944C65.467 40.41 65.5622 40.5011 65.6777 40.5679C65.7933 40.633 65.93 40.6655 66.0879 40.6655C66.2881 40.6655 66.4476 40.6338 66.5664 40.5703C66.6852 40.5068 66.7747 40.4157 66.835 40.2969C66.8968 40.1781 66.9408 40.0356 66.9668 39.8696ZM67.8896 39.7085V39.6523C67.8896 39.4619 67.9173 39.2853 67.9727 39.1226C68.028 38.9582 68.1077 38.8158 68.2119 38.6953C68.3161 38.5732 68.4422 38.4788 68.5903 38.4121C68.7384 38.3438 68.9045 38.3096 69.0884 38.3096C69.2739 38.3096 69.4408 38.3438 69.5889 38.4121C69.7386 38.4788 69.8656 38.5732 69.9697 38.6953C70.0755 38.8158 70.1561 38.9582 70.2114 39.1226C70.2668 39.2853 70.2944 39.4619 70.2944 39.6523V39.7085C70.2944 39.8989 70.2668 40.0755 70.2114 40.2383C70.1561 40.401 70.0755 40.5435 69.9697 40.6655C69.8656 40.786 69.7394 40.8804 69.5913 40.9487C69.4448 41.0155 69.2788 41.0488 69.0933 41.0488C68.9077 41.0488 68.7409 41.0155 68.5928 40.9487C68.4447 40.8804 68.3177 40.786 68.2119 40.6655C68.1077 40.5435 68.028 40.401 67.9727 40.2383C67.9173 40.0755 67.8896 39.8989 67.8896 39.7085ZM68.3413 39.6523V39.7085C68.3413 39.8403 68.3568 39.9648 68.3877 40.082C68.4186 40.1976 68.465 40.3001 68.5269 40.3896C68.5903 40.4792 68.6693 40.55 68.7637 40.6021C68.8581 40.6525 68.9679 40.6777 69.0933 40.6777C69.217 40.6777 69.3252 40.6525 69.418 40.6021C69.5124 40.55 69.5905 40.4792 69.6523 40.3896C69.7142 40.3001 69.7606 40.1976 69.7915 40.082C69.8241 39.9648 69.8403 39.8403 69.8403 39.7085V39.6523C69.8403 39.5221 69.8241 39.3993 69.7915 39.2837C69.7606 39.1665 69.7134 39.0632 69.6499 38.9736C69.5881 38.8825 69.5099 38.8109 69.4155 38.7588C69.3228 38.7067 69.2137 38.6807 69.0884 38.6807C68.9647 38.6807 68.8556 38.7067 68.7612 38.7588C68.6685 38.8109 68.5903 38.8825 68.5269 38.9736C68.465 39.0632 68.4186 39.1665 68.3877 39.2837C68.3568 39.3993 68.3413 39.5221 68.3413 39.6523ZM71.3101 38.8833V41H70.856V38.3584H71.2856L71.3101 38.8833ZM71.2173 39.5791L71.0073 39.5718C71.009 39.3911 71.0326 39.2243 71.0781 39.0713C71.1237 38.9167 71.1912 38.7824 71.2808 38.6685C71.3703 38.5545 71.4818 38.4666 71.6152 38.4048C71.7487 38.3413 71.9033 38.3096 72.0791 38.3096C72.2028 38.3096 72.3167 38.3275 72.4209 38.3633C72.5251 38.3975 72.6154 38.452 72.6919 38.5269C72.7684 38.6017 72.8278 38.6978 72.8701 38.8149C72.9124 38.9321 72.9336 39.0737 72.9336 39.2397V41H72.4819V39.2617C72.4819 39.1234 72.4583 39.0127 72.4111 38.9297C72.3656 38.8467 72.3005 38.7865 72.2158 38.749C72.1312 38.71 72.0319 38.6904 71.918 38.6904C71.7845 38.6904 71.673 38.714 71.5835 38.7612C71.494 38.8084 71.4224 38.8735 71.3687 38.9565C71.3149 39.0396 71.2759 39.1348 71.2515 39.2422C71.2287 39.348 71.2173 39.4603 71.2173 39.5791ZM72.9287 39.3301L72.626 39.4229C72.6276 39.278 72.6512 39.1388 72.6968 39.0054C72.744 38.8719 72.8115 38.7531 72.8994 38.6489C72.9889 38.5448 73.0988 38.4626 73.229 38.4023C73.3592 38.3405 73.5081 38.3096 73.6758 38.3096C73.8174 38.3096 73.9427 38.3283 74.0518 38.3657C74.1624 38.4032 74.2552 38.4609 74.3301 38.5391C74.4066 38.6156 74.4644 38.714 74.5034 38.8345C74.5425 38.9549 74.562 39.0981 74.562 39.2642V41H74.1079V39.2593C74.1079 39.1112 74.0843 38.9964 74.0371 38.915C73.9915 38.832 73.9264 38.7743 73.8418 38.7417C73.7588 38.7075 73.6595 38.6904 73.5439 38.6904C73.4447 38.6904 73.3568 38.7075 73.2803 38.7417C73.2038 38.7759 73.1395 38.8231 73.0874 38.8833C73.0353 38.9419 72.9954 39.0094 72.9678 39.0859C72.9417 39.1624 72.9287 39.2438 72.9287 39.3301ZM75.6948 38.8833V41H75.2407V38.3584H75.6704L75.6948 38.8833ZM75.6021 39.5791L75.3921 39.5718C75.3937 39.3911 75.4173 39.2243 75.4629 39.0713C75.5085 38.9167 75.576 38.7824 75.6655 38.6685C75.755 38.5545 75.8665 38.4666 76 38.4048C76.1335 38.3413 76.2881 38.3096 76.4639 38.3096C76.5876 38.3096 76.7015 38.3275 76.8057 38.3633C76.9098 38.3975 77.0002 38.452 77.0767 38.5269C77.1532 38.6017 77.2126 38.6978 77.2549 38.8149C77.2972 38.9321 77.3184 39.0737 77.3184 39.2397V41H76.8667V39.2617C76.8667 39.1234 76.8431 39.0127 76.7959 38.9297C76.7503 38.8467 76.6852 38.7865 76.6006 38.749C76.516 38.71 76.4167 38.6904 76.3027 38.6904C76.1693 38.6904 76.0578 38.714 75.9683 38.7612C75.8787 38.8084 75.8071 38.8735 75.7534 38.9565C75.6997 39.0396 75.6606 39.1348 75.6362 39.2422C75.6134 39.348 75.6021 39.4603 75.6021 39.5791ZM77.3135 39.3301L77.0107 39.4229C77.0124 39.278 77.036 39.1388 77.0815 39.0054C77.1287 38.8719 77.1963 38.7531 77.2842 38.6489C77.3737 38.5448 77.4836 38.4626 77.6138 38.4023C77.744 38.3405 77.8929 38.3096 78.0605 38.3096C78.2021 38.3096 78.3275 38.3283 78.4365 38.3657C78.5472 38.4032 78.64 38.4609 78.7148 38.5391C78.7913 38.6156 78.8491 38.714 78.8882 38.8345C78.9272 38.9549 78.9468 39.0981 78.9468 39.2642V41H78.4927V39.2593C78.4927 39.1112 78.4691 38.9964 78.4219 38.915C78.3763 38.832 78.3112 38.7743 78.2266 38.7417C78.1436 38.7075 78.0443 38.6904 77.9287 38.6904C77.8294 38.6904 77.7415 38.7075 77.665 38.7417C77.5885 38.7759 77.5243 38.8231 77.4722 38.8833C77.4201 38.9419 77.3802 39.0094 77.3525 39.0859C77.3265 39.1624 77.3135 39.2438 77.3135 39.3301ZM81.188 40.5483V39.1885C81.188 39.0843 81.1668 38.994 81.1245 38.9175C81.0838 38.8394 81.022 38.7791 80.939 38.7368C80.856 38.6945 80.7534 38.6733 80.6313 38.6733C80.5174 38.6733 80.4173 38.6929 80.3311 38.7319C80.2464 38.771 80.1797 38.8223 80.1309 38.8857C80.0837 38.9492 80.0601 39.0176 80.0601 39.0908H79.6084C79.6084 38.9964 79.6328 38.9028 79.6816 38.8101C79.7305 38.7173 79.8005 38.6335 79.8916 38.5586C79.9844 38.4821 80.0951 38.4219 80.2236 38.3779C80.3538 38.3324 80.4987 38.3096 80.6582 38.3096C80.8503 38.3096 81.0195 38.3421 81.166 38.4072C81.3141 38.4723 81.4297 38.5708 81.5127 38.7026C81.5973 38.8328 81.6396 38.9964 81.6396 39.1934V40.4238C81.6396 40.5117 81.647 40.6053 81.6616 40.7046C81.6779 40.8039 81.7015 40.8893 81.7324 40.9609V41H81.2612C81.2384 40.9479 81.2205 40.8787 81.2075 40.7925C81.1945 40.7046 81.188 40.6232 81.188 40.5483ZM81.2661 39.3984L81.271 39.7158H80.8145C80.6859 39.7158 80.5711 39.7264 80.4702 39.7476C80.3693 39.7671 80.2847 39.7972 80.2163 39.8379C80.1479 39.8786 80.0959 39.9299 80.0601 39.9917C80.0243 40.0519 80.0063 40.1227 80.0063 40.2041C80.0063 40.2871 80.0251 40.3628 80.0625 40.4312C80.0999 40.4995 80.1561 40.554 80.231 40.5947C80.3075 40.6338 80.401 40.6533 80.5117 40.6533C80.6501 40.6533 80.7721 40.624 80.8779 40.5654C80.9837 40.5068 81.0675 40.4352 81.1294 40.3506C81.1929 40.266 81.2271 40.1838 81.2319 40.104L81.4248 40.3213C81.4134 40.3896 81.3825 40.4653 81.332 40.5483C81.2816 40.6313 81.214 40.7111 81.1294 40.7876C81.0464 40.8625 80.9471 40.9251 80.8315 40.9756C80.7176 41.0244 80.589 41.0488 80.4458 41.0488C80.2668 41.0488 80.1097 41.0138 79.9746 40.9438C79.8411 40.8739 79.737 40.7803 79.6621 40.6631C79.5889 40.5443 79.5522 40.4116 79.5522 40.2651C79.5522 40.1235 79.5799 39.999 79.6353 39.8916C79.6906 39.7826 79.7703 39.6922 79.8745 39.6206C79.9787 39.5474 80.104 39.492 80.2505 39.4546C80.397 39.4172 80.5605 39.3984 80.7412 39.3984H81.2661ZM82.8018 38.9224V41H82.3501V38.3584H82.7773L82.8018 38.9224ZM82.6943 39.5791L82.5063 39.5718C82.508 39.3911 82.5348 39.2243 82.5869 39.0713C82.639 38.9167 82.7122 38.7824 82.8066 38.6685C82.901 38.5545 83.0133 38.4666 83.1436 38.4048C83.2754 38.3413 83.4211 38.3096 83.5806 38.3096C83.7108 38.3096 83.828 38.3275 83.9321 38.3633C84.0363 38.3975 84.125 38.4528 84.1982 38.5293C84.2731 38.6058 84.3301 38.7051 84.3691 38.8271C84.4082 38.9476 84.4277 39.0949 84.4277 39.269V41H83.9736V39.2642C83.9736 39.1258 83.9533 39.0151 83.9126 38.9321C83.8719 38.8475 83.8125 38.7865 83.7344 38.749C83.6562 38.71 83.5602 38.6904 83.4463 38.6904C83.334 38.6904 83.2314 38.714 83.1387 38.7612C83.0475 38.8084 82.9686 38.8735 82.9019 38.9565C82.8368 39.0396 82.7855 39.1348 82.748 39.2422C82.7122 39.348 82.6943 39.4603 82.6943 39.5791ZM86.7788 40.4873V37.25H87.2329V41H86.8179L86.7788 40.4873ZM85.0015 39.7085V39.6572C85.0015 39.4554 85.0259 39.2723 85.0747 39.1079C85.1252 38.9419 85.196 38.7995 85.2871 38.6807C85.3799 38.5618 85.4897 38.4707 85.6167 38.4072C85.7453 38.3421 85.8885 38.3096 86.0464 38.3096C86.2124 38.3096 86.3573 38.3389 86.481 38.3975C86.6063 38.4544 86.7121 38.5382 86.7983 38.6489C86.8862 38.758 86.9554 38.8898 87.0059 39.0444C87.0563 39.1991 87.0913 39.374 87.1108 39.5693V39.7939C87.0929 39.9876 87.0579 40.1618 87.0059 40.3164C86.9554 40.471 86.8862 40.6029 86.7983 40.7119C86.7121 40.821 86.6063 40.9048 86.481 40.9634C86.3556 41.0203 86.2091 41.0488 86.0415 41.0488C85.8869 41.0488 85.7453 41.0155 85.6167 40.9487C85.4897 40.882 85.3799 40.7884 85.2871 40.668C85.196 40.5475 85.1252 40.4059 85.0747 40.2432C85.0259 40.0788 85.0015 39.9006 85.0015 39.7085ZM85.4556 39.6572V39.7085C85.4556 39.8403 85.4686 39.964 85.4946 40.0796C85.5223 40.1951 85.5646 40.2969 85.6216 40.3848C85.6785 40.4727 85.751 40.5418 85.8389 40.5923C85.9268 40.6411 86.0317 40.6655 86.1538 40.6655C86.3035 40.6655 86.4264 40.6338 86.5225 40.5703C86.6201 40.5068 86.6982 40.423 86.7568 40.3188C86.8154 40.2147 86.861 40.1016 86.8936 39.9795V39.3911C86.874 39.3016 86.8455 39.2153 86.8081 39.1323C86.7723 39.0477 86.7251 38.9728 86.6665 38.9077C86.6095 38.841 86.5387 38.7881 86.4541 38.749C86.3711 38.71 86.2726 38.6904 86.1587 38.6904C86.035 38.6904 85.9284 38.7165 85.8389 38.7686C85.751 38.819 85.6785 38.889 85.6216 38.9785C85.5646 39.0664 85.5223 39.1689 85.4946 39.2861C85.4686 39.4017 85.4556 39.5254 85.4556 39.6572Z" fill="black"/>
<rect x="118.25" y="32.25" width="22.5" height="14.5" stroke="#C0433A" stroke-width="0.5"/>
<rect x="118.25" y="32.25" width="22.5" height="14.5" stroke="#4298BD" stroke-width="0.5"/>
<rect x="118.25" y="32.25" width="22.5" height="14.5" stroke="#D9BE56" stroke-width="0.5"/>
<path d="M91 39L93.5 40.4434V37.5566L91 39ZM118 38.75H93.25V39.25H118V38.75Z" fill="#D9BE56"/>
</svg>
