<svg width="289" height="58" viewBox="0 0 289 58" fill="none" xmlns="http://www.w3.org/2000/svg">
<rect width="289" height="58" fill="white"/>
<path d="M116.62 33H115.202V26.25C115.202 25.7383 115.304 25.3066 115.507 24.9551C115.714 24.6035 116.009 24.3359 116.392 24.1523C116.778 23.9688 117.237 23.877 117.769 23.877C118.081 23.877 118.382 23.9102 118.671 23.9766C118.964 24.043 119.267 24.127 119.579 24.2285L119.362 25.377C119.163 25.3105 118.942 25.248 118.7 25.1895C118.458 25.127 118.179 25.0957 117.862 25.0957C117.437 25.0957 117.122 25.1934 116.919 25.3887C116.72 25.5801 116.62 25.8672 116.62 26.25V33ZM117.892 26.6602V27.6914H114.23V26.6602H117.892ZM120.247 26.6602V33H118.835V26.6602H120.247ZM123.584 28.0137V33H122.172V26.6602H123.502L123.584 28.0137ZM123.332 29.5957L122.875 29.5898C122.879 29.1406 122.941 28.7285 123.062 28.3535C123.187 27.9785 123.359 27.6562 123.578 27.3867C123.801 27.1172 124.066 26.9102 124.375 26.7656C124.683 26.6172 125.027 26.543 125.406 26.543C125.711 26.543 125.986 26.5859 126.232 26.6719C126.482 26.7539 126.695 26.8887 126.871 27.0762C127.051 27.2637 127.187 27.5078 127.281 27.8086C127.375 28.1055 127.422 28.4707 127.422 28.9043V33H126.004V28.8984C126.004 28.5938 125.959 28.3535 125.869 28.1777C125.783 27.998 125.656 27.8711 125.488 27.7969C125.324 27.7188 125.119 27.6797 124.873 27.6797C124.631 27.6797 124.414 27.7305 124.222 27.832C124.031 27.9336 123.869 28.0723 123.736 28.248C123.607 28.4238 123.508 28.627 123.437 28.8574C123.367 29.0879 123.332 29.334 123.332 29.5957ZM133.09 31.6875V24H134.508V33H133.225L133.09 31.6875ZM128.965 29.9004V29.7773C128.965 29.2969 129.022 28.8594 129.135 28.4648C129.248 28.0664 129.412 27.7246 129.627 27.4395C129.842 27.1504 130.104 26.9297 130.412 26.7773C130.721 26.6211 131.069 26.543 131.455 26.543C131.838 26.543 132.174 26.6172 132.463 26.7656C132.752 26.9141 132.998 27.127 133.202 27.4043C133.405 27.6777 133.567 28.0059 133.688 28.3887C133.809 28.7676 133.895 29.1895 133.946 29.6543V30.0469C133.895 30.5 133.809 30.9141 133.688 31.2891C133.567 31.6641 133.405 31.9883 133.202 32.2617C132.998 32.5352 132.75 32.7461 132.457 32.8945C132.168 33.043 131.83 33.1172 131.444 33.1172C131.061 33.1172 130.715 33.0371 130.407 32.877C130.102 32.7168 129.842 32.4922 129.627 32.2031C129.412 31.9141 129.248 31.5742 129.135 31.1836C129.022 30.7891 128.965 30.3613 128.965 29.9004ZM130.377 29.7773V29.9004C130.377 30.1895 130.403 30.459 130.454 30.709C130.508 30.959 130.592 31.1797 130.705 31.3711C130.819 31.5586 130.965 31.707 131.145 31.8164C131.329 31.9219 131.547 31.9746 131.801 31.9746C132.121 31.9746 132.385 31.9043 132.592 31.7637C132.799 31.623 132.961 31.4336 133.079 31.1953C133.2 30.9531 133.282 30.6836 133.325 30.3867V29.3262C133.301 29.0957 133.252 28.8809 133.178 28.6816C133.108 28.4824 133.012 28.3086 132.891 28.1602C132.77 28.0078 132.62 27.8906 132.44 27.8086C132.264 27.7227 132.055 27.6797 131.813 27.6797C131.555 27.6797 131.336 27.7344 131.157 27.8438C130.977 27.9531 130.829 28.1035 130.711 28.2949C130.598 28.4863 130.514 28.709 130.459 28.9629C130.405 29.2168 130.377 29.4883 130.377 29.7773ZM141.111 27.8672V33H139.699V26.6602H141.047L141.111 27.8672ZM143.05 26.6191L143.039 27.9316C142.953 27.916 142.859 27.9043 142.757 27.8965C142.66 27.8887 142.562 27.8848 142.465 27.8848C142.222 27.8848 142.009 27.9199 141.826 27.9902C141.642 28.0566 141.488 28.1543 141.363 28.2832C141.242 28.4082 141.148 28.5605 141.082 28.7402C141.015 28.9199 140.976 29.1211 140.965 29.3438L140.642 29.3672C140.642 28.9688 140.681 28.5996 140.759 28.2598C140.838 27.9199 140.955 27.6211 141.111 27.3633C141.271 27.1055 141.47 26.9043 141.709 26.7598C141.951 26.6152 142.23 26.543 142.547 26.543C142.632 26.543 142.724 26.5508 142.822 26.5664C142.924 26.582 143 26.5996 143.05 26.6191ZM148.004 24.4688L144.682 33.7324H143.575L146.903 24.4688H148.004ZM152.138 33.1172C151.669 33.1172 151.245 33.041 150.866 32.8887C150.491 32.7324 150.171 32.5156 149.905 32.2383C149.644 31.9609 149.442 31.6348 149.302 31.2598C149.161 30.8848 149.091 30.4805 149.091 30.0469V29.8125C149.091 29.3164 149.163 28.8672 149.308 28.4648C149.452 28.0625 149.653 27.7188 149.911 27.4336C150.169 27.1445 150.474 26.9238 150.825 26.7715C151.177 26.6191 151.558 26.543 151.968 26.543C152.421 26.543 152.817 26.6191 153.157 26.7715C153.497 26.9238 153.778 27.1387 154.001 27.416C154.227 27.6895 154.395 28.0156 154.505 28.3945C154.618 28.7734 154.675 29.1914 154.675 29.6484V30.252H149.776V29.2383H153.28V29.127C153.272 28.873 153.222 28.6348 153.128 28.4121C153.038 28.1895 152.899 28.0098 152.712 27.873C152.524 27.7363 152.274 27.668 151.962 27.668C151.727 27.668 151.519 27.7188 151.335 27.8203C151.155 27.918 151.005 28.0605 150.884 28.248C150.763 28.4355 150.669 28.6621 150.602 28.9277C150.54 29.1895 150.509 29.4844 150.509 29.8125V30.0469C150.509 30.3242 150.546 30.582 150.62 30.8203C150.698 31.0547 150.811 31.2598 150.96 31.4355C151.108 31.6113 151.288 31.75 151.499 31.8516C151.71 31.9492 151.95 31.998 152.22 31.998C152.56 31.998 152.862 31.9297 153.128 31.793C153.394 31.6562 153.624 31.4629 153.819 31.2129L154.563 31.9336C154.427 32.1328 154.249 32.3242 154.03 32.5078C153.811 32.6875 153.544 32.834 153.227 32.9473C152.915 33.0605 152.552 33.1172 152.138 33.1172ZM160.197 26.6602H161.48V32.8242C161.48 33.3945 161.359 33.8789 161.117 34.2773C160.875 34.6758 160.537 34.9785 160.103 35.1855C159.67 35.3965 159.168 35.502 158.597 35.502C158.355 35.502 158.086 35.4668 157.789 35.3965C157.496 35.3262 157.211 35.2129 156.933 35.0566C156.66 34.9043 156.431 34.7031 156.248 34.4531L156.91 33.6211C157.136 33.8906 157.386 34.0879 157.66 34.2129C157.933 34.3379 158.22 34.4004 158.521 34.4004C158.845 34.4004 159.121 34.3398 159.347 34.2188C159.578 34.1016 159.755 33.9277 159.88 33.6973C160.005 33.4668 160.068 33.1855 160.068 32.8535V28.0957L160.197 26.6602ZM155.89 29.9004V29.7773C155.89 29.2969 155.949 28.8594 156.066 28.4648C156.183 28.0664 156.351 27.7246 156.57 27.4395C156.789 27.1504 157.054 26.9297 157.367 26.7773C157.679 26.6211 158.033 26.543 158.427 26.543C158.837 26.543 159.187 26.6172 159.476 26.7656C159.769 26.9141 160.013 27.127 160.209 27.4043C160.404 27.6777 160.556 28.0059 160.666 28.3887C160.779 28.7676 160.863 29.1895 160.918 29.6543V30.0469C160.867 30.5 160.781 30.9141 160.66 31.2891C160.539 31.6641 160.379 31.9883 160.179 32.2617C159.98 32.5352 159.734 32.7461 159.441 32.8945C159.152 33.043 158.81 33.1172 158.416 33.1172C158.029 33.1172 157.679 33.0371 157.367 32.877C157.058 32.7168 156.793 32.4922 156.57 32.2031C156.351 31.9141 156.183 31.5742 156.066 31.1836C155.949 30.7891 155.89 30.3613 155.89 29.9004ZM157.302 29.7773V29.9004C157.302 30.1895 157.33 30.459 157.384 30.709C157.443 30.959 157.531 31.1797 157.648 31.3711C157.769 31.5586 157.921 31.707 158.105 31.8164C158.293 31.9219 158.513 31.9746 158.767 31.9746C159.099 31.9746 159.371 31.9043 159.582 31.7637C159.796 31.623 159.961 31.4336 160.074 31.1953C160.191 30.9531 160.273 30.6836 160.32 30.3867V29.3262C160.296 29.0957 160.248 28.8809 160.173 28.6816C160.103 28.4824 160.007 28.3086 159.886 28.1602C159.765 28.0078 159.613 27.8906 159.429 27.8086C159.246 27.7227 159.029 27.6797 158.779 27.6797C158.525 27.6797 158.304 27.7344 158.117 27.8438C157.929 27.9531 157.775 28.1035 157.654 28.2949C157.537 28.4863 157.449 28.709 157.39 28.9629C157.332 29.2168 157.302 29.4883 157.302 29.7773ZM167.365 26.6602H168.649V32.8242C168.649 33.3945 168.528 33.8789 168.285 34.2773C168.043 34.6758 167.705 34.9785 167.272 35.1855C166.838 35.3965 166.336 35.502 165.766 35.502C165.524 35.502 165.254 35.4668 164.957 35.3965C164.664 35.3262 164.379 35.2129 164.102 35.0566C163.828 34.9043 163.6 34.7031 163.416 34.4531L164.078 33.6211C164.305 33.8906 164.555 34.0879 164.828 34.2129C165.102 34.3379 165.389 34.4004 165.69 34.4004C166.014 34.4004 166.289 34.3398 166.516 34.2188C166.746 34.1016 166.924 33.9277 167.049 33.6973C167.174 33.4668 167.237 33.1855 167.237 32.8535V28.0957L167.365 26.6602ZM163.059 29.9004V29.7773C163.059 29.2969 163.117 28.8594 163.235 28.4648C163.352 28.0664 163.52 27.7246 163.739 27.4395C163.957 27.1504 164.223 26.9297 164.535 26.7773C164.848 26.6211 165.201 26.543 165.596 26.543C166.006 26.543 166.356 26.6172 166.645 26.7656C166.938 26.9141 167.182 27.127 167.377 27.4043C167.572 27.6777 167.725 28.0059 167.834 28.3887C167.947 28.7676 168.031 29.1895 168.086 29.6543V30.0469C168.035 30.5 167.949 30.9141 167.828 31.2891C167.707 31.6641 167.547 31.9883 167.348 32.2617C167.149 32.5352 166.903 32.7461 166.61 32.8945C166.321 33.043 165.979 33.1172 165.584 33.1172C165.197 33.1172 164.848 33.0371 164.535 32.877C164.227 32.7168 163.961 32.4922 163.739 32.2031C163.52 31.9141 163.352 31.5742 163.235 31.1836C163.117 30.7891 163.059 30.3613 163.059 29.9004ZM164.471 29.7773V29.9004C164.471 30.1895 164.498 30.459 164.553 30.709C164.612 30.959 164.699 31.1797 164.817 31.3711C164.938 31.5586 165.09 31.707 165.274 31.8164C165.461 31.9219 165.682 31.9746 165.936 31.9746C166.268 31.9746 166.539 31.9043 166.75 31.7637C166.965 31.623 167.129 31.4336 167.242 31.1953C167.36 30.9531 167.442 30.6836 167.489 30.3867V29.3262C167.465 29.0957 167.416 28.8809 167.342 28.6816C167.272 28.4824 167.176 28.3086 167.055 28.1602C166.934 28.0078 166.781 27.8906 166.598 27.8086C166.414 27.7227 166.197 27.6797 165.947 27.6797C165.694 27.6797 165.473 27.7344 165.285 27.8438C165.098 27.9531 164.944 28.1035 164.822 28.2949C164.705 28.4863 164.617 28.709 164.559 28.9629C164.5 29.2168 164.471 29.4883 164.471 29.7773ZM174.03 31.2832C174.03 31.1426 173.995 31.0156 173.925 30.9023C173.854 30.7852 173.72 30.6797 173.52 30.5859C173.325 30.4922 173.036 30.4062 172.653 30.3281C172.317 30.2539 172.009 30.166 171.727 30.0645C171.45 29.959 171.212 29.832 171.013 29.6836C170.813 29.5352 170.659 29.3594 170.55 29.1562C170.44 28.9531 170.386 28.7188 170.386 28.4531C170.386 28.1953 170.442 27.9512 170.556 27.7207C170.669 27.4902 170.831 27.2871 171.042 27.1113C171.253 26.9355 171.509 26.7969 171.809 26.6953C172.114 26.5938 172.454 26.543 172.829 26.543C173.36 26.543 173.815 26.6328 174.194 26.8125C174.577 26.9883 174.87 27.2285 175.073 27.5332C175.276 27.834 175.378 28.1738 175.378 28.5527H173.966C173.966 28.3848 173.923 28.2285 173.837 28.084C173.755 27.9355 173.63 27.8164 173.462 27.7266C173.294 27.6328 173.083 27.5859 172.829 27.5859C172.587 27.5859 172.386 27.625 172.225 27.7031C172.069 27.7773 171.952 27.875 171.874 27.9961C171.8 28.1172 171.763 28.25 171.763 28.3945C171.763 28.5 171.782 28.5957 171.821 28.6816C171.864 28.7637 171.934 28.8398 172.032 28.9102C172.13 28.9766 172.263 29.0391 172.431 29.0977C172.602 29.1562 172.817 29.2129 173.075 29.2676C173.559 29.3691 173.975 29.5 174.323 29.6602C174.675 29.8164 174.944 30.0195 175.132 30.2695C175.319 30.5156 175.413 30.8281 175.413 31.207C175.413 31.4883 175.352 31.7461 175.231 31.9805C175.114 32.2109 174.942 32.4121 174.716 32.584C174.489 32.752 174.218 32.8828 173.901 32.9766C173.589 33.0703 173.237 33.1172 172.847 33.1172C172.272 33.1172 171.786 33.0156 171.388 32.8125C170.989 32.6055 170.686 32.3418 170.479 32.0215C170.276 31.6973 170.175 31.3613 170.175 31.0137H171.54C171.556 31.2754 171.628 31.4844 171.757 31.6406C171.89 31.793 172.054 31.9043 172.249 31.9746C172.448 32.041 172.653 32.0742 172.864 32.0742C173.118 32.0742 173.331 32.041 173.503 31.9746C173.675 31.9043 173.806 31.8105 173.895 31.6934C173.985 31.5723 174.03 31.4355 174.03 31.2832Z" fill="black"/>
<path d="M61.9668 29.8696H62.4355C62.4111 30.0942 62.3468 30.2952 62.2427 30.4727C62.1385 30.6501 61.9912 30.7909 61.8008 30.895C61.6104 30.9976 61.3727 31.0488 61.0879 31.0488C60.8796 31.0488 60.6899 31.0098 60.519 30.9316C60.3498 30.8535 60.2041 30.7428 60.082 30.5996C59.96 30.4548 59.8656 30.2814 59.7988 30.0796C59.7337 29.8761 59.7012 29.6499 59.7012 29.4009V29.0469C59.7012 28.7979 59.7337 28.5724 59.7988 28.3706C59.8656 28.1672 59.9608 27.993 60.0845 27.8481C60.2098 27.7033 60.3604 27.5918 60.5361 27.5137C60.7119 27.4355 60.9097 27.3965 61.1294 27.3965C61.3979 27.3965 61.625 27.4469 61.8105 27.5479C61.9961 27.6488 62.1401 27.7887 62.2427 27.9678C62.3468 28.1452 62.4111 28.3511 62.4355 28.5854H61.9668C61.944 28.4194 61.9017 28.277 61.8398 28.1582C61.778 28.0378 61.6901 27.945 61.5762 27.8799C61.4622 27.8148 61.3133 27.7822 61.1294 27.7822C60.9715 27.7822 60.8324 27.8123 60.7119 27.8726C60.5931 27.9328 60.493 28.0182 60.4116 28.1289C60.3319 28.2396 60.2716 28.3722 60.231 28.5269C60.1903 28.6815 60.1699 28.8532 60.1699 29.042V29.4009C60.1699 29.575 60.1878 29.7386 60.2236 29.8916C60.2611 30.0446 60.3172 30.1789 60.3921 30.2944C60.467 30.41 60.5622 30.5011 60.6777 30.5679C60.7933 30.633 60.93 30.6655 61.0879 30.6655C61.2881 30.6655 61.4476 30.6338 61.5664 30.5703C61.6852 30.5068 61.7747 30.4157 61.835 30.2969C61.8968 30.1781 61.9408 30.0356 61.9668 29.8696ZM62.8896 29.7085V29.6523C62.8896 29.4619 62.9173 29.2853 62.9727 29.1226C63.028 28.9582 63.1077 28.8158 63.2119 28.6953C63.3161 28.5732 63.4422 28.4788 63.5903 28.4121C63.7384 28.3438 63.9045 28.3096 64.0884 28.3096C64.2739 28.3096 64.4408 28.3438 64.5889 28.4121C64.7386 28.4788 64.8656 28.5732 64.9697 28.6953C65.0755 28.8158 65.1561 28.9582 65.2114 29.1226C65.2668 29.2853 65.2944 29.4619 65.2944 29.6523V29.7085C65.2944 29.8989 65.2668 30.0755 65.2114 30.2383C65.1561 30.401 65.0755 30.5435 64.9697 30.6655C64.8656 30.786 64.7394 30.8804 64.5913 30.9487C64.4448 31.0155 64.2788 31.0488 64.0933 31.0488C63.9077 31.0488 63.7409 31.0155 63.5928 30.9487C63.4447 30.8804 63.3177 30.786 63.2119 30.6655C63.1077 30.5435 63.028 30.401 62.9727 30.2383C62.9173 30.0755 62.8896 29.8989 62.8896 29.7085ZM63.3413 29.6523V29.7085C63.3413 29.8403 63.3568 29.9648 63.3877 30.082C63.4186 30.1976 63.465 30.3001 63.5269 30.3896C63.5903 30.4792 63.6693 30.55 63.7637 30.6021C63.8581 30.6525 63.9679 30.6777 64.0933 30.6777C64.217 30.6777 64.3252 30.6525 64.418 30.6021C64.5124 30.55 64.5905 30.4792 64.6523 30.3896C64.7142 30.3001 64.7606 30.1976 64.7915 30.082C64.8241 29.9648 64.8403 29.8403 64.8403 29.7085V29.6523C64.8403 29.5221 64.8241 29.3993 64.7915 29.2837C64.7606 29.1665 64.7134 29.0632 64.6499 28.9736C64.5881 28.8825 64.5099 28.8109 64.4155 28.7588C64.3228 28.7067 64.2137 28.6807 64.0884 28.6807C63.9647 28.6807 63.8556 28.7067 63.7612 28.7588C63.6685 28.8109 63.5903 28.8825 63.5269 28.9736C63.465 29.0632 63.4186 29.1665 63.3877 29.2837C63.3568 29.3993 63.3413 29.5221 63.3413 29.6523ZM66.3101 28.8833V31H65.856V28.3584H66.2856L66.3101 28.8833ZM66.2173 29.5791L66.0073 29.5718C66.009 29.3911 66.0326 29.2243 66.0781 29.0713C66.1237 28.9167 66.1912 28.7824 66.2808 28.6685C66.3703 28.5545 66.4818 28.4666 66.6152 28.4048C66.7487 28.3413 66.9033 28.3096 67.0791 28.3096C67.2028 28.3096 67.3167 28.3275 67.4209 28.3633C67.5251 28.3975 67.6154 28.452 67.6919 28.5269C67.7684 28.6017 67.8278 28.6978 67.8701 28.8149C67.9124 28.9321 67.9336 29.0737 67.9336 29.2397V31H67.4819V29.2617C67.4819 29.1234 67.4583 29.0127 67.4111 28.9297C67.3656 28.8467 67.3005 28.7865 67.2158 28.749C67.1312 28.71 67.0319 28.6904 66.918 28.6904C66.7845 28.6904 66.673 28.714 66.5835 28.7612C66.494 28.8084 66.4224 28.8735 66.3687 28.9565C66.3149 29.0396 66.2759 29.1348 66.2515 29.2422C66.2287 29.348 66.2173 29.4603 66.2173 29.5791ZM67.9287 29.3301L67.626 29.4229C67.6276 29.278 67.6512 29.1388 67.6968 29.0054C67.744 28.8719 67.8115 28.7531 67.8994 28.6489C67.9889 28.5448 68.0988 28.4626 68.229 28.4023C68.3592 28.3405 68.5081 28.3096 68.6758 28.3096C68.8174 28.3096 68.9427 28.3283 69.0518 28.3657C69.1624 28.4032 69.2552 28.4609 69.3301 28.5391C69.4066 28.6156 69.4644 28.714 69.5034 28.8345C69.5425 28.9549 69.562 29.0981 69.562 29.2642V31H69.1079V29.2593C69.1079 29.1112 69.0843 28.9964 69.0371 28.915C68.9915 28.832 68.9264 28.7743 68.8418 28.7417C68.7588 28.7075 68.6595 28.6904 68.5439 28.6904C68.4447 28.6904 68.3568 28.7075 68.2803 28.7417C68.2038 28.7759 68.1395 28.8231 68.0874 28.8833C68.0353 28.9419 67.9954 29.0094 67.9678 29.0859C67.9417 29.1624 67.9287 29.2438 67.9287 29.3301ZM70.6948 28.8833V31H70.2407V28.3584H70.6704L70.6948 28.8833ZM70.6021 29.5791L70.3921 29.5718C70.3937 29.3911 70.4173 29.2243 70.4629 29.0713C70.5085 28.9167 70.576 28.7824 70.6655 28.6685C70.755 28.5545 70.8665 28.4666 71 28.4048C71.1335 28.3413 71.2881 28.3096 71.4639 28.3096C71.5876 28.3096 71.7015 28.3275 71.8057 28.3633C71.9098 28.3975 72.0002 28.452 72.0767 28.5269C72.1532 28.6017 72.2126 28.6978 72.2549 28.8149C72.2972 28.9321 72.3184 29.0737 72.3184 29.2397V31H71.8667V29.2617C71.8667 29.1234 71.8431 29.0127 71.7959 28.9297C71.7503 28.8467 71.6852 28.7865 71.6006 28.749C71.516 28.71 71.4167 28.6904 71.3027 28.6904C71.1693 28.6904 71.0578 28.714 70.9683 28.7612C70.8787 28.8084 70.8071 28.8735 70.7534 28.9565C70.6997 29.0396 70.6606 29.1348 70.6362 29.2422C70.6134 29.348 70.6021 29.4603 70.6021 29.5791ZM72.3135 29.3301L72.0107 29.4229C72.0124 29.278 72.036 29.1388 72.0815 29.0054C72.1287 28.8719 72.1963 28.7531 72.2842 28.6489C72.3737 28.5448 72.4836 28.4626 72.6138 28.4023C72.744 28.3405 72.8929 28.3096 73.0605 28.3096C73.2021 28.3096 73.3275 28.3283 73.4365 28.3657C73.5472 28.4032 73.64 28.4609 73.7148 28.5391C73.7913 28.6156 73.8491 28.714 73.8882 28.8345C73.9272 28.9549 73.9468 29.0981 73.9468 29.2642V31H73.4927V29.2593C73.4927 29.1112 73.4691 28.9964 73.4219 28.915C73.3763 28.832 73.3112 28.7743 73.2266 28.7417C73.1436 28.7075 73.0443 28.6904 72.9287 28.6904C72.8294 28.6904 72.7415 28.7075 72.665 28.7417C72.5885 28.7759 72.5243 28.8231 72.4722 28.8833C72.4201 28.9419 72.3802 29.0094 72.3525 29.0859C72.3265 29.1624 72.3135 29.2438 72.3135 29.3301ZM76.188 30.5483V29.1885C76.188 29.0843 76.1668 28.994 76.1245 28.9175C76.0838 28.8394 76.022 28.7791 75.939 28.7368C75.856 28.6945 75.7534 28.6733 75.6313 28.6733C75.5174 28.6733 75.4173 28.6929 75.3311 28.7319C75.2464 28.771 75.1797 28.8223 75.1309 28.8857C75.0837 28.9492 75.0601 29.0176 75.0601 29.0908H74.6084C74.6084 28.9964 74.6328 28.9028 74.6816 28.8101C74.7305 28.7173 74.8005 28.6335 74.8916 28.5586C74.9844 28.4821 75.0951 28.4219 75.2236 28.3779C75.3538 28.3324 75.4987 28.3096 75.6582 28.3096C75.8503 28.3096 76.0195 28.3421 76.166 28.4072C76.3141 28.4723 76.4297 28.5708 76.5127 28.7026C76.5973 28.8328 76.6396 28.9964 76.6396 29.1934V30.4238C76.6396 30.5117 76.647 30.6053 76.6616 30.7046C76.6779 30.8039 76.7015 30.8893 76.7324 30.9609V31H76.2612C76.2384 30.9479 76.2205 30.8787 76.2075 30.7925C76.1945 30.7046 76.188 30.6232 76.188 30.5483ZM76.2661 29.3984L76.271 29.7158H75.8145C75.6859 29.7158 75.5711 29.7264 75.4702 29.7476C75.3693 29.7671 75.2847 29.7972 75.2163 29.8379C75.1479 29.8786 75.0959 29.9299 75.0601 29.9917C75.0243 30.0519 75.0063 30.1227 75.0063 30.2041C75.0063 30.2871 75.0251 30.3628 75.0625 30.4312C75.0999 30.4995 75.1561 30.554 75.231 30.5947C75.3075 30.6338 75.401 30.6533 75.5117 30.6533C75.6501 30.6533 75.7721 30.624 75.8779 30.5654C75.9837 30.5068 76.0675 30.4352 76.1294 30.3506C76.1929 30.266 76.2271 30.1838 76.2319 30.104L76.4248 30.3213C76.4134 30.3896 76.3825 30.4653 76.332 30.5483C76.2816 30.6313 76.214 30.7111 76.1294 30.7876C76.0464 30.8625 75.9471 30.9251 75.8315 30.9756C75.7176 31.0244 75.589 31.0488 75.4458 31.0488C75.2668 31.0488 75.1097 31.0138 74.9746 30.9438C74.8411 30.8739 74.737 30.7803 74.6621 30.6631C74.5889 30.5443 74.5522 30.4116 74.5522 30.2651C74.5522 30.1235 74.5799 29.999 74.6353 29.8916C74.6906 29.7826 74.7703 29.6922 74.8745 29.6206C74.9787 29.5474 75.104 29.492 75.2505 29.4546C75.397 29.4172 75.5605 29.3984 75.7412 29.3984H76.2661ZM77.8018 28.9224V31H77.3501V28.3584H77.7773L77.8018 28.9224ZM77.6943 29.5791L77.5063 29.5718C77.508 29.3911 77.5348 29.2243 77.5869 29.0713C77.639 28.9167 77.7122 28.7824 77.8066 28.6685C77.901 28.5545 78.0133 28.4666 78.1436 28.4048C78.2754 28.3413 78.4211 28.3096 78.5806 28.3096C78.7108 28.3096 78.828 28.3275 78.9321 28.3633C79.0363 28.3975 79.125 28.4528 79.1982 28.5293C79.2731 28.6058 79.3301 28.7051 79.3691 28.8271C79.4082 28.9476 79.4277 29.0949 79.4277 29.269V31H78.9736V29.2642C78.9736 29.1258 78.9533 29.0151 78.9126 28.9321C78.8719 28.8475 78.8125 28.7865 78.7344 28.749C78.6562 28.71 78.5602 28.6904 78.4463 28.6904C78.334 28.6904 78.2314 28.714 78.1387 28.7612C78.0475 28.8084 77.9686 28.8735 77.9019 28.9565C77.8368 29.0396 77.7855 29.1348 77.748 29.2422C77.7122 29.348 77.6943 29.4603 77.6943 29.5791ZM81.7788 30.4873V27.25H82.2329V31H81.8179L81.7788 30.4873ZM80.0015 29.7085V29.6572C80.0015 29.4554 80.0259 29.2723 80.0747 29.1079C80.1252 28.9419 80.196 28.7995 80.2871 28.6807C80.3799 28.5618 80.4897 28.4707 80.6167 28.4072C80.7453 28.3421 80.8885 28.3096 81.0464 28.3096C81.2124 28.3096 81.3573 28.3389 81.481 28.3975C81.6063 28.4544 81.7121 28.5382 81.7983 28.6489C81.8862 28.758 81.9554 28.8898 82.0059 29.0444C82.0563 29.1991 82.0913 29.374 82.1108 29.5693V29.7939C82.0929 29.9876 82.0579 30.1618 82.0059 30.3164C81.9554 30.471 81.8862 30.6029 81.7983 30.7119C81.7121 30.821 81.6063 30.9048 81.481 30.9634C81.3556 31.0203 81.2091 31.0488 81.0415 31.0488C80.8869 31.0488 80.7453 31.0155 80.6167 30.9487C80.4897 30.882 80.3799 30.7884 80.2871 30.668C80.196 30.5475 80.1252 30.4059 80.0747 30.2432C80.0259 30.0788 80.0015 29.9006 80.0015 29.7085ZM80.4556 29.6572V29.7085C80.4556 29.8403 80.4686 29.964 80.4946 30.0796C80.5223 30.1951 80.5646 30.2969 80.6216 30.3848C80.6785 30.4727 80.751 30.5418 80.8389 30.5923C80.9268 30.6411 81.0317 30.6655 81.1538 30.6655C81.3035 30.6655 81.4264 30.6338 81.5225 30.5703C81.6201 30.5068 81.6982 30.423 81.7568 30.3188C81.8154 30.2147 81.861 30.1016 81.8936 29.9795V29.3911C81.874 29.3016 81.8455 29.2153 81.8081 29.1323C81.7723 29.0477 81.7251 28.9728 81.6665 28.9077C81.6095 28.841 81.5387 28.7881 81.4541 28.749C81.3711 28.71 81.2726 28.6904 81.1587 28.6904C81.035 28.6904 80.9284 28.7165 80.8389 28.7686C80.751 28.819 80.6785 28.889 80.6216 28.9785C80.5646 29.0664 80.5223 29.1689 80.4946 29.2861C80.4686 29.4017 80.4556 29.5254 80.4556 29.6572Z" fill="black"/>
<path d="M206.991 39.4453V43H206.52V39.4453H206.991ZM208.48 41.0444V41.4302H206.889V41.0444H208.48ZM208.722 39.4453V39.8311H206.889V39.4453H208.722ZM209.706 39.25V43H209.252V39.25H209.706ZM211.989 42.5483V41.1885C211.989 41.0843 211.968 40.994 211.925 40.9175C211.885 40.8394 211.823 40.7791 211.74 40.7368C211.657 40.6945 211.554 40.6733 211.432 40.6733C211.318 40.6733 211.218 40.6929 211.132 40.7319C211.047 40.771 210.98 40.8223 210.932 40.8857C210.884 40.9492 210.861 41.0176 210.861 41.0908H210.409C210.409 40.9964 210.434 40.9028 210.482 40.8101C210.531 40.7173 210.601 40.6335 210.692 40.5586C210.785 40.4821 210.896 40.4219 211.024 40.3779C211.155 40.3324 211.299 40.3096 211.459 40.3096C211.651 40.3096 211.82 40.3421 211.967 40.4072C212.115 40.4723 212.23 40.5708 212.313 40.7026C212.398 40.8328 212.44 40.9964 212.44 41.1934V42.4238C212.44 42.5117 212.448 42.6053 212.462 42.7046C212.479 42.8039 212.502 42.8893 212.533 42.9609V43H212.062C212.039 42.9479 212.021 42.8787 212.008 42.7925C211.995 42.7046 211.989 42.6232 211.989 42.5483ZM212.067 41.3984L212.072 41.7158H211.615C211.487 41.7158 211.372 41.7264 211.271 41.7476C211.17 41.7671 211.085 41.7972 211.017 41.8379C210.949 41.8786 210.897 41.9299 210.861 41.9917C210.825 42.0519 210.807 42.1227 210.807 42.2041C210.807 42.2871 210.826 42.3628 210.863 42.4312C210.901 42.4995 210.957 42.554 211.032 42.5947C211.108 42.6338 211.202 42.6533 211.312 42.6533C211.451 42.6533 211.573 42.624 211.679 42.5654C211.785 42.5068 211.868 42.4352 211.93 42.3506C211.994 42.266 212.028 42.1838 212.033 42.104L212.226 42.3213C212.214 42.3896 212.183 42.4653 212.133 42.5483C212.082 42.6313 212.015 42.7111 211.93 42.7876C211.847 42.8625 211.748 42.9251 211.632 42.9756C211.518 43.0244 211.39 43.0488 211.247 43.0488C211.068 43.0488 210.91 43.0138 210.775 42.9438C210.642 42.8739 210.538 42.7803 210.463 42.6631C210.39 42.5443 210.353 42.4116 210.353 42.2651C210.353 42.1235 210.381 41.999 210.436 41.8916C210.491 41.7826 210.571 41.6922 210.675 41.6206C210.779 41.5474 210.905 41.492 211.051 41.4546C211.198 41.4172 211.361 41.3984 211.542 41.3984H212.067ZM214.862 40.3584H215.272V42.9438C215.272 43.1766 215.225 43.3752 215.131 43.5396C215.036 43.7039 214.905 43.8285 214.735 43.9131C214.568 43.9993 214.374 44.0425 214.154 44.0425C214.063 44.0425 213.956 44.0278 213.832 43.9985C213.71 43.9709 213.59 43.9229 213.471 43.8545C213.354 43.7878 213.255 43.6974 213.175 43.5835L213.412 43.3149C213.523 43.4484 213.638 43.5412 213.759 43.5933C213.881 43.6453 214.001 43.6714 214.12 43.6714C214.263 43.6714 214.387 43.6445 214.491 43.5908C214.595 43.5371 214.676 43.4574 214.733 43.3516C214.792 43.2474 214.821 43.1188 214.821 42.9658V40.9395L214.862 40.3584ZM213.043 41.7085V41.6572C213.043 41.4554 213.067 41.2723 213.114 41.1079C213.163 40.9419 213.232 40.7995 213.322 40.6807C213.413 40.5618 213.523 40.4707 213.651 40.4072C213.78 40.3421 213.925 40.3096 214.086 40.3096C214.252 40.3096 214.397 40.3389 214.521 40.3975C214.646 40.4544 214.752 40.5382 214.838 40.6489C214.926 40.758 214.995 40.8898 215.045 41.0444C215.096 41.1991 215.131 41.374 215.15 41.5693V41.7939C215.132 41.9876 215.097 42.1618 215.045 42.3164C214.995 42.471 214.926 42.6029 214.838 42.7119C214.752 42.821 214.646 42.9048 214.521 42.9634C214.395 43.0203 214.249 43.0488 214.081 43.0488C213.923 43.0488 213.78 43.0155 213.651 42.9487C213.524 42.882 213.415 42.7884 213.324 42.668C213.233 42.5475 213.163 42.4059 213.114 42.2432C213.067 42.0788 213.043 41.9006 213.043 41.7085ZM213.495 41.6572V41.7085C213.495 41.8403 213.508 41.964 213.534 42.0796C213.562 42.1951 213.603 42.2969 213.659 42.3848C213.716 42.4727 213.788 42.5418 213.876 42.5923C213.964 42.6411 214.069 42.6655 214.191 42.6655C214.341 42.6655 214.464 42.6338 214.562 42.5703C214.66 42.5068 214.737 42.423 214.794 42.3188C214.853 42.2147 214.898 42.1016 214.931 41.9795V41.3911C214.913 41.3016 214.885 41.2153 214.848 41.1323C214.812 41.0477 214.765 40.9728 214.706 40.9077C214.649 40.841 214.578 40.7881 214.494 40.749C214.409 40.71 214.31 40.6904 214.196 40.6904C214.072 40.6904 213.965 40.7165 213.876 40.7686C213.788 40.819 213.716 40.889 213.659 40.9785C213.603 41.0664 213.562 41.1689 213.534 41.2861C213.508 41.4017 213.495 41.5254 213.495 41.6572ZM218.305 40.3584V40.7051H216.876V40.3584H218.305ZM217.36 39.7163H217.812V42.3457C217.812 42.4352 217.825 42.5028 217.853 42.5483C217.881 42.5939 217.917 42.624 217.96 42.6387C218.004 42.6533 218.052 42.6606 218.102 42.6606C218.139 42.6606 218.179 42.6574 218.219 42.6509C218.262 42.6427 218.293 42.6362 218.314 42.6313L218.317 43C218.281 43.0114 218.234 43.022 218.175 43.0317C218.118 43.0431 218.049 43.0488 217.968 43.0488C217.857 43.0488 217.755 43.0269 217.663 42.9829C217.57 42.939 217.496 42.8657 217.44 42.7632C217.387 42.659 217.36 42.519 217.36 42.3433V39.7163ZM218.666 41.7085V41.6523C218.666 41.4619 218.694 41.2853 218.749 41.1226C218.804 40.9582 218.884 40.8158 218.988 40.6953C219.092 40.5732 219.219 40.4788 219.367 40.4121C219.515 40.3438 219.681 40.3096 219.865 40.3096C220.05 40.3096 220.217 40.3438 220.365 40.4121C220.515 40.4788 220.642 40.5732 220.746 40.6953C220.852 40.8158 220.932 40.9582 220.988 41.1226C221.043 41.2853 221.071 41.4619 221.071 41.6523V41.7085C221.071 41.8989 221.043 42.0755 220.988 42.2383C220.932 42.401 220.852 42.5435 220.746 42.6655C220.642 42.786 220.516 42.8804 220.368 42.9487C220.221 43.0155 220.055 43.0488 219.87 43.0488C219.684 43.0488 219.517 43.0155 219.369 42.9487C219.221 42.8804 219.094 42.786 218.988 42.6655C218.884 42.5435 218.804 42.401 218.749 42.2383C218.694 42.0755 218.666 41.8989 218.666 41.7085ZM219.118 41.6523V41.7085C219.118 41.8403 219.133 41.9648 219.164 42.082C219.195 42.1976 219.241 42.3001 219.303 42.3896C219.367 42.4792 219.446 42.55 219.54 42.6021C219.634 42.6525 219.744 42.6777 219.87 42.6777C219.993 42.6777 220.102 42.6525 220.194 42.6021C220.289 42.55 220.367 42.4792 220.429 42.3896C220.491 42.3001 220.537 42.1976 220.568 42.082C220.6 41.9648 220.617 41.8403 220.617 41.7085V41.6523C220.617 41.5221 220.6 41.3993 220.568 41.2837C220.537 41.1665 220.49 41.0632 220.426 40.9736C220.364 40.8825 220.286 40.8109 220.192 40.7588C220.099 40.7067 219.99 40.6807 219.865 40.6807C219.741 40.6807 219.632 40.7067 219.538 40.7588C219.445 40.8109 219.367 40.8825 219.303 40.9736C219.241 41.0632 219.195 41.1665 219.164 41.2837C219.133 41.3993 219.118 41.5221 219.118 41.6523ZM223.48 43H223.029V40.1289C223.029 39.9287 223.068 39.7594 223.146 39.6211C223.224 39.4827 223.336 39.3778 223.48 39.3062C223.625 39.2345 223.797 39.1987 223.996 39.1987C224.113 39.1987 224.228 39.2134 224.34 39.2427C224.452 39.2703 224.568 39.3053 224.687 39.3477L224.611 39.7285C224.536 39.6992 224.449 39.6715 224.35 39.6455C224.252 39.6178 224.145 39.604 224.027 39.604C223.834 39.604 223.694 39.6479 223.607 39.7358C223.523 39.8221 223.48 39.9531 223.48 40.1289V43ZM224.02 40.3584V40.7051H222.611V40.3584H224.02ZM224.909 40.3584V43H224.457V40.3584H224.909ZM226.103 40.9224V43H225.651V40.3584H226.078L226.103 40.9224ZM225.995 41.5791L225.807 41.5718C225.809 41.3911 225.836 41.2243 225.888 41.0713C225.94 40.9167 226.013 40.7824 226.107 40.6685C226.202 40.5545 226.314 40.4666 226.444 40.4048C226.576 40.3413 226.722 40.3096 226.881 40.3096C227.012 40.3096 227.129 40.3275 227.233 40.3633C227.337 40.3975 227.426 40.4528 227.499 40.5293C227.574 40.6058 227.631 40.7051 227.67 40.8271C227.709 40.9476 227.729 41.0949 227.729 41.269V43H227.274V41.2642C227.274 41.1258 227.254 41.0151 227.213 40.9321C227.173 40.8475 227.113 40.7865 227.035 40.749C226.957 40.71 226.861 40.6904 226.747 40.6904C226.635 40.6904 226.532 40.714 226.439 40.7612C226.348 40.8084 226.269 40.8735 226.203 40.9565C226.138 41.0396 226.086 41.1348 226.049 41.2422C226.013 41.348 225.995 41.4603 225.995 41.5791ZM230.08 42.4873V39.25H230.534V43H230.119L230.08 42.4873ZM228.302 41.7085V41.6572C228.302 41.4554 228.327 41.2723 228.375 41.1079C228.426 40.9419 228.497 40.7995 228.588 40.6807C228.681 40.5618 228.791 40.4707 228.917 40.4072C229.046 40.3421 229.189 40.3096 229.347 40.3096C229.513 40.3096 229.658 40.3389 229.782 40.3975C229.907 40.4544 230.013 40.5382 230.099 40.6489C230.187 40.758 230.256 40.8898 230.307 41.0444C230.357 41.1991 230.392 41.374 230.412 41.5693V41.7939C230.394 41.9876 230.359 42.1618 230.307 42.3164C230.256 42.471 230.187 42.6029 230.099 42.7119C230.013 42.821 229.907 42.9048 229.782 42.9634C229.656 43.0203 229.51 43.0488 229.342 43.0488C229.188 43.0488 229.046 43.0155 228.917 42.9487C228.791 42.882 228.681 42.7884 228.588 42.668C228.497 42.5475 228.426 42.4059 228.375 42.2432C228.327 42.0788 228.302 41.9006 228.302 41.7085ZM228.756 41.6572V41.7085C228.756 41.8403 228.769 41.964 228.795 42.0796C228.823 42.1951 228.865 42.2969 228.922 42.3848C228.979 42.4727 229.052 42.5418 229.14 42.5923C229.228 42.6411 229.333 42.6655 229.455 42.6655C229.604 42.6655 229.727 42.6338 229.823 42.5703C229.921 42.5068 229.999 42.423 230.058 42.3188C230.116 42.2147 230.162 42.1016 230.194 41.9795V41.3911C230.175 41.3016 230.146 41.2153 230.109 41.1323C230.073 41.0477 230.026 40.9728 229.967 40.9077C229.91 40.841 229.84 40.7881 229.755 40.749C229.672 40.71 229.573 40.6904 229.459 40.6904C229.336 40.6904 229.229 40.7165 229.14 40.7686C229.052 40.819 228.979 40.889 228.922 40.9785C228.865 41.0664 228.823 41.1689 228.795 41.2861C228.769 41.4017 228.756 41.5254 228.756 41.6572Z" fill="black"/>
<rect x="113.25" y="22.25" width="22.5" height="14.5" stroke="#C0433A" stroke-width="0.5"/>
<rect x="113.25" y="22.25" width="22.5" height="14.5" stroke="#4298BD" stroke-width="0.5"/>
<rect x="113.25" y="22.25" width="22.5" height="14.5" stroke="#D9BE56" stroke-width="0.5"/>
<rect x="138.25" y="22.25" width="9.5" height="14.5" stroke="#C03AAB" stroke-width="0.5"/>
<path d="M86 29L88.5 30.4434V27.5566L86 29ZM113 28.75L88.25 28.75V29.25L113 29.25V28.75Z" fill="#D9BE56"/>
<path d="M203 41L200.5 42.4434V39.5566L203 41ZM144 40.75L200.75 40.75V41.25L144 41.25V40.75Z" fill="#C03AAB"/>
<line y1="-0.25" x2="4" y2="-0.25" transform="matrix(0 -1 -1 0 144 41)" stroke="#C03AAB" stroke-width="0.5"/>
</svg>
