<svg width="288" height="60" viewBox="0 0 288 60" fill="none" xmlns="http://www.w3.org/2000/svg">
<rect width="288" height="60" fill="white"/>
<path d="M121.759 32H120.347V25.0508C120.347 24.5781 120.435 24.1816 120.611 23.8613C120.79 23.5371 121.046 23.293 121.378 23.1289C121.71 22.9609 122.103 22.877 122.556 22.877C122.697 22.877 122.835 22.8867 122.972 22.9062C123.109 22.9219 123.242 22.9473 123.371 22.9824L123.335 24.0723C123.257 24.0527 123.171 24.0391 123.078 24.0312C122.988 24.0234 122.89 24.0195 122.785 24.0195C122.57 24.0195 122.384 24.0605 122.228 24.1426C122.076 24.2207 121.958 24.3359 121.876 24.4883C121.798 24.6406 121.759 24.8281 121.759 25.0508V32ZM123.066 25.6602V26.6914H119.374V25.6602H123.066ZM125.869 26.8789V34.4375H124.457V25.6602H125.758L125.869 26.8789ZM130 28.7715V28.8945C130 29.3555 129.945 29.7832 129.836 30.1777C129.731 30.5684 129.572 30.9102 129.361 31.2031C129.154 31.4922 128.899 31.7168 128.594 31.877C128.289 32.0371 127.938 32.1172 127.539 32.1172C127.145 32.1172 126.799 32.0449 126.502 31.9004C126.209 31.752 125.961 31.543 125.758 31.2734C125.555 31.0039 125.391 30.6875 125.266 30.3242C125.145 29.957 125.059 29.5547 125.008 29.1172V28.6426C125.059 28.1777 125.145 27.7559 125.266 27.377C125.391 26.998 125.555 26.6719 125.758 26.3984C125.961 26.125 126.209 25.9141 126.502 25.7656C126.795 25.6172 127.137 25.543 127.527 25.543C127.926 25.543 128.279 25.6211 128.588 25.7773C128.897 25.9297 129.156 26.1484 129.367 26.4336C129.578 26.7148 129.736 27.0547 129.842 27.4531C129.947 27.8477 130 28.2871 130 28.7715ZM128.588 28.8945V28.7715C128.588 28.4785 128.561 28.207 128.506 27.957C128.451 27.7031 128.365 27.4805 128.248 27.2891C128.131 27.0977 127.981 26.9492 127.797 26.8438C127.617 26.7344 127.4 26.6797 127.147 26.6797C126.897 26.6797 126.682 26.7227 126.502 26.8086C126.322 26.8906 126.172 27.0059 126.051 27.1543C125.93 27.3027 125.836 27.4766 125.77 27.6758C125.703 27.8711 125.656 28.084 125.629 28.3145V29.4512C125.676 29.7324 125.756 29.9902 125.869 30.2246C125.982 30.459 126.143 30.6465 126.35 30.7871C126.561 30.9238 126.83 30.9922 127.158 30.9922C127.412 30.9922 127.629 30.9375 127.809 30.8281C127.988 30.7188 128.135 30.5684 128.248 30.377C128.365 30.1816 128.451 29.957 128.506 29.7031C128.561 29.4492 128.588 29.1797 128.588 28.8945ZM135.613 28.1504L139.486 29.6328V31.0215L134.546 28.8418V27.9219L135.613 28.1504ZM139.486 26.9375L135.613 28.4434L134.546 28.6484V27.7285L139.486 25.5547V26.9375ZM150.518 28.959V30.084H144.366L144.319 29.2344L147.999 23.4688H149.13L147.905 25.5664L145.79 28.959H150.518ZM149.452 23.4688V32H148.04V23.4688H149.452ZM151.962 31.2969C151.962 31.0781 152.036 30.8945 152.185 30.7461C152.333 30.5938 152.534 30.5176 152.788 30.5176C153.046 30.5176 153.247 30.5938 153.392 30.7461C153.54 30.8945 153.615 31.0781 153.615 31.2969C153.615 31.5156 153.54 31.6992 153.392 31.8477C153.247 31.9961 153.046 32.0703 152.788 32.0703C152.534 32.0703 152.333 31.9961 152.185 31.8477C152.036 31.6992 151.962 31.5156 151.962 31.2969ZM157.004 28.0332L155.879 27.7578L156.342 23.4688H160.941V24.6641H157.514L157.279 26.7559C157.412 26.6777 157.596 26.6016 157.83 26.5273C158.064 26.4492 158.332 26.4102 158.633 26.4102C159.035 26.4102 159.394 26.4766 159.711 26.6094C160.031 26.7383 160.303 26.9277 160.525 27.1777C160.748 27.4238 160.918 27.7246 161.035 28.0801C161.152 28.4316 161.211 28.8281 161.211 29.2695C161.211 29.6641 161.152 30.0332 161.035 30.377C160.922 30.7207 160.75 31.0234 160.519 31.2852C160.289 31.5469 159.998 31.752 159.646 31.9004C159.299 32.0449 158.887 32.1172 158.41 32.1172C158.055 32.1172 157.713 32.0664 157.385 31.9648C157.06 31.8594 156.769 31.7051 156.512 31.502C156.254 31.2949 156.047 31.041 155.891 30.7402C155.734 30.4355 155.644 30.0859 155.621 29.6914H157.004C157.039 29.9688 157.115 30.2051 157.232 30.4004C157.353 30.5918 157.514 30.7383 157.713 30.8398C157.912 30.9414 158.143 30.9922 158.404 30.9922C158.643 30.9922 158.848 30.9512 159.019 30.8691C159.191 30.7832 159.334 30.6621 159.447 30.5059C159.564 30.3457 159.65 30.1582 159.705 29.9434C159.764 29.7285 159.793 29.4902 159.793 29.2285C159.793 28.9785 159.76 28.75 159.693 28.543C159.631 28.3359 159.535 28.1562 159.406 28.0039C159.281 27.8516 159.123 27.7344 158.932 27.6523C158.74 27.5664 158.519 27.5234 158.269 27.5234C157.934 27.5234 157.676 27.5723 157.496 27.6699C157.32 27.7676 157.156 27.8887 157.004 28.0332ZM168.262 27.0195V28.4141C168.262 29.082 168.196 29.6523 168.063 30.125C167.934 30.5938 167.747 30.9746 167.501 31.2676C167.254 31.5605 166.96 31.7754 166.616 31.9121C166.276 32.0488 165.895 32.1172 165.473 32.1172C165.137 32.1172 164.825 32.0742 164.536 31.9883C164.251 31.9023 163.993 31.7676 163.762 31.584C163.532 31.4004 163.335 31.1641 163.17 30.875C163.01 30.582 162.885 30.2324 162.795 29.8262C162.71 29.4199 162.667 28.9492 162.667 28.4141V27.0195C162.667 26.3477 162.733 25.7812 162.866 25.3203C162.999 24.8555 163.188 24.4785 163.434 24.1895C163.68 23.8965 163.973 23.6836 164.313 23.5508C164.657 23.418 165.04 23.3516 165.461 23.3516C165.801 23.3516 166.114 23.3945 166.399 23.4805C166.688 23.5625 166.946 23.6934 167.172 23.873C167.403 24.0527 167.598 24.2871 167.758 24.5762C167.922 24.8613 168.047 25.207 168.133 25.6133C168.219 26.0156 168.262 26.4844 168.262 27.0195ZM166.85 28.6133V26.8086C166.85 26.4688 166.831 26.1699 166.792 25.9121C166.753 25.6504 166.694 25.4297 166.616 25.25C166.542 25.0664 166.448 24.918 166.335 24.8047C166.221 24.6875 166.092 24.6035 165.948 24.5527C165.803 24.498 165.641 24.4707 165.461 24.4707C165.243 24.4707 165.047 24.5137 164.876 24.5996C164.704 24.6816 164.559 24.8145 164.442 24.998C164.325 25.1816 164.235 25.4238 164.172 25.7246C164.114 26.0215 164.085 26.3828 164.085 26.8086V28.6133C164.085 28.957 164.104 29.2598 164.143 29.5215C164.182 29.7832 164.241 30.0078 164.319 30.1953C164.397 30.3789 164.491 30.5312 164.6 30.6523C164.713 30.7695 164.842 30.8555 164.987 30.9102C165.135 30.9648 165.297 30.9922 165.473 30.9922C165.696 30.9922 165.893 30.9492 166.065 30.8633C166.237 30.7773 166.381 30.6406 166.499 30.4531C166.616 30.2617 166.704 30.0137 166.762 29.709C166.821 29.4043 166.85 29.0391 166.85 28.6133Z" fill="black"/>
<path d="M65.9668 29.8696H66.4355C66.4111 30.0942 66.3468 30.2952 66.2427 30.4727C66.1385 30.6501 65.9912 30.7909 65.8008 30.895C65.6104 30.9976 65.3727 31.0488 65.0879 31.0488C64.8796 31.0488 64.6899 31.0098 64.519 30.9316C64.3498 30.8535 64.2041 30.7428 64.082 30.5996C63.96 30.4548 63.8656 30.2814 63.7988 30.0796C63.7337 29.8761 63.7012 29.6499 63.7012 29.4009V29.0469C63.7012 28.7979 63.7337 28.5724 63.7988 28.3706C63.8656 28.1672 63.9608 27.993 64.0845 27.8481C64.2098 27.7033 64.3604 27.5918 64.5361 27.5137C64.7119 27.4355 64.9097 27.3965 65.1294 27.3965C65.3979 27.3965 65.625 27.4469 65.8105 27.5479C65.9961 27.6488 66.1401 27.7887 66.2427 27.9678C66.3468 28.1452 66.4111 28.3511 66.4355 28.5854H65.9668C65.944 28.4194 65.9017 28.277 65.8398 28.1582C65.778 28.0378 65.6901 27.945 65.5762 27.8799C65.4622 27.8148 65.3133 27.7822 65.1294 27.7822C64.9715 27.7822 64.8324 27.8123 64.7119 27.8726C64.5931 27.9328 64.493 28.0182 64.4116 28.1289C64.3319 28.2396 64.2716 28.3722 64.231 28.5269C64.1903 28.6815 64.1699 28.8532 64.1699 29.042V29.4009C64.1699 29.575 64.1878 29.7386 64.2236 29.8916C64.2611 30.0446 64.3172 30.1789 64.3921 30.2944C64.467 30.41 64.5622 30.5011 64.6777 30.5679C64.7933 30.633 64.93 30.6655 65.0879 30.6655C65.2881 30.6655 65.4476 30.6338 65.5664 30.5703C65.6852 30.5068 65.7747 30.4157 65.835 30.2969C65.8968 30.1781 65.9408 30.0356 65.9668 29.8696ZM66.8896 29.7085V29.6523C66.8896 29.4619 66.9173 29.2853 66.9727 29.1226C67.028 28.9582 67.1077 28.8158 67.2119 28.6953C67.3161 28.5732 67.4422 28.4788 67.5903 28.4121C67.7384 28.3438 67.9045 28.3096 68.0884 28.3096C68.2739 28.3096 68.4408 28.3438 68.5889 28.4121C68.7386 28.4788 68.8656 28.5732 68.9697 28.6953C69.0755 28.8158 69.1561 28.9582 69.2114 29.1226C69.2668 29.2853 69.2944 29.4619 69.2944 29.6523V29.7085C69.2944 29.8989 69.2668 30.0755 69.2114 30.2383C69.1561 30.401 69.0755 30.5435 68.9697 30.6655C68.8656 30.786 68.7394 30.8804 68.5913 30.9487C68.4448 31.0155 68.2788 31.0488 68.0933 31.0488C67.9077 31.0488 67.7409 31.0155 67.5928 30.9487C67.4447 30.8804 67.3177 30.786 67.2119 30.6655C67.1077 30.5435 67.028 30.401 66.9727 30.2383C66.9173 30.0755 66.8896 29.8989 66.8896 29.7085ZM67.3413 29.6523V29.7085C67.3413 29.8403 67.3568 29.9648 67.3877 30.082C67.4186 30.1976 67.465 30.3001 67.5269 30.3896C67.5903 30.4792 67.6693 30.55 67.7637 30.6021C67.8581 30.6525 67.9679 30.6777 68.0933 30.6777C68.217 30.6777 68.3252 30.6525 68.418 30.6021C68.5124 30.55 68.5905 30.4792 68.6523 30.3896C68.7142 30.3001 68.7606 30.1976 68.7915 30.082C68.8241 29.9648 68.8403 29.8403 68.8403 29.7085V29.6523C68.8403 29.5221 68.8241 29.3993 68.7915 29.2837C68.7606 29.1665 68.7134 29.0632 68.6499 28.9736C68.5881 28.8825 68.5099 28.8109 68.4155 28.7588C68.3228 28.7067 68.2137 28.6807 68.0884 28.6807C67.9647 28.6807 67.8556 28.7067 67.7612 28.7588C67.6685 28.8109 67.5903 28.8825 67.5269 28.9736C67.465 29.0632 67.4186 29.1665 67.3877 29.2837C67.3568 29.3993 67.3413 29.5221 67.3413 29.6523ZM70.3101 28.8833V31H69.856V28.3584H70.2856L70.3101 28.8833ZM70.2173 29.5791L70.0073 29.5718C70.009 29.3911 70.0326 29.2243 70.0781 29.0713C70.1237 28.9167 70.1912 28.7824 70.2808 28.6685C70.3703 28.5545 70.4818 28.4666 70.6152 28.4048C70.7487 28.3413 70.9033 28.3096 71.0791 28.3096C71.2028 28.3096 71.3167 28.3275 71.4209 28.3633C71.5251 28.3975 71.6154 28.452 71.6919 28.5269C71.7684 28.6017 71.8278 28.6978 71.8701 28.8149C71.9124 28.9321 71.9336 29.0737 71.9336 29.2397V31H71.4819V29.2617C71.4819 29.1234 71.4583 29.0127 71.4111 28.9297C71.3656 28.8467 71.3005 28.7865 71.2158 28.749C71.1312 28.71 71.0319 28.6904 70.918 28.6904C70.7845 28.6904 70.673 28.714 70.5835 28.7612C70.494 28.8084 70.4224 28.8735 70.3687 28.9565C70.3149 29.0396 70.2759 29.1348 70.2515 29.2422C70.2287 29.348 70.2173 29.4603 70.2173 29.5791ZM71.9287 29.3301L71.626 29.4229C71.6276 29.278 71.6512 29.1388 71.6968 29.0054C71.744 28.8719 71.8115 28.7531 71.8994 28.6489C71.9889 28.5448 72.0988 28.4626 72.229 28.4023C72.3592 28.3405 72.5081 28.3096 72.6758 28.3096C72.8174 28.3096 72.9427 28.3283 73.0518 28.3657C73.1624 28.4032 73.2552 28.4609 73.3301 28.5391C73.4066 28.6156 73.4644 28.714 73.5034 28.8345C73.5425 28.9549 73.562 29.0981 73.562 29.2642V31H73.1079V29.2593C73.1079 29.1112 73.0843 28.9964 73.0371 28.915C72.9915 28.832 72.9264 28.7743 72.8418 28.7417C72.7588 28.7075 72.6595 28.6904 72.5439 28.6904C72.4447 28.6904 72.3568 28.7075 72.2803 28.7417C72.2038 28.7759 72.1395 28.8231 72.0874 28.8833C72.0353 28.9419 71.9954 29.0094 71.9678 29.0859C71.9417 29.1624 71.9287 29.2438 71.9287 29.3301ZM74.6948 28.8833V31H74.2407V28.3584H74.6704L74.6948 28.8833ZM74.6021 29.5791L74.3921 29.5718C74.3937 29.3911 74.4173 29.2243 74.4629 29.0713C74.5085 28.9167 74.576 28.7824 74.6655 28.6685C74.755 28.5545 74.8665 28.4666 75 28.4048C75.1335 28.3413 75.2881 28.3096 75.4639 28.3096C75.5876 28.3096 75.7015 28.3275 75.8057 28.3633C75.9098 28.3975 76.0002 28.452 76.0767 28.5269C76.1532 28.6017 76.2126 28.6978 76.2549 28.8149C76.2972 28.9321 76.3184 29.0737 76.3184 29.2397V31H75.8667V29.2617C75.8667 29.1234 75.8431 29.0127 75.7959 28.9297C75.7503 28.8467 75.6852 28.7865 75.6006 28.749C75.516 28.71 75.4167 28.6904 75.3027 28.6904C75.1693 28.6904 75.0578 28.714 74.9683 28.7612C74.8787 28.8084 74.8071 28.8735 74.7534 28.9565C74.6997 29.0396 74.6606 29.1348 74.6362 29.2422C74.6134 29.348 74.6021 29.4603 74.6021 29.5791ZM76.3135 29.3301L76.0107 29.4229C76.0124 29.278 76.036 29.1388 76.0815 29.0054C76.1287 28.8719 76.1963 28.7531 76.2842 28.6489C76.3737 28.5448 76.4836 28.4626 76.6138 28.4023C76.744 28.3405 76.8929 28.3096 77.0605 28.3096C77.2021 28.3096 77.3275 28.3283 77.4365 28.3657C77.5472 28.4032 77.64 28.4609 77.7148 28.5391C77.7913 28.6156 77.8491 28.714 77.8882 28.8345C77.9272 28.9549 77.9468 29.0981 77.9468 29.2642V31H77.4927V29.2593C77.4927 29.1112 77.4691 28.9964 77.4219 28.915C77.3763 28.832 77.3112 28.7743 77.2266 28.7417C77.1436 28.7075 77.0443 28.6904 76.9287 28.6904C76.8294 28.6904 76.7415 28.7075 76.665 28.7417C76.5885 28.7759 76.5243 28.8231 76.4722 28.8833C76.4201 28.9419 76.3802 29.0094 76.3525 29.0859C76.3265 29.1624 76.3135 29.2438 76.3135 29.3301ZM80.188 30.5483V29.1885C80.188 29.0843 80.1668 28.994 80.1245 28.9175C80.0838 28.8394 80.022 28.7791 79.939 28.7368C79.856 28.6945 79.7534 28.6733 79.6313 28.6733C79.5174 28.6733 79.4173 28.6929 79.3311 28.7319C79.2464 28.771 79.1797 28.8223 79.1309 28.8857C79.0837 28.9492 79.0601 29.0176 79.0601 29.0908H78.6084C78.6084 28.9964 78.6328 28.9028 78.6816 28.8101C78.7305 28.7173 78.8005 28.6335 78.8916 28.5586C78.9844 28.4821 79.0951 28.4219 79.2236 28.3779C79.3538 28.3324 79.4987 28.3096 79.6582 28.3096C79.8503 28.3096 80.0195 28.3421 80.166 28.4072C80.3141 28.4723 80.4297 28.5708 80.5127 28.7026C80.5973 28.8328 80.6396 28.9964 80.6396 29.1934V30.4238C80.6396 30.5117 80.647 30.6053 80.6616 30.7046C80.6779 30.8039 80.7015 30.8893 80.7324 30.9609V31H80.2612C80.2384 30.9479 80.2205 30.8787 80.2075 30.7925C80.1945 30.7046 80.188 30.6232 80.188 30.5483ZM80.2661 29.3984L80.271 29.7158H79.8145C79.6859 29.7158 79.5711 29.7264 79.4702 29.7476C79.3693 29.7671 79.2847 29.7972 79.2163 29.8379C79.1479 29.8786 79.0959 29.9299 79.0601 29.9917C79.0243 30.0519 79.0063 30.1227 79.0063 30.2041C79.0063 30.2871 79.0251 30.3628 79.0625 30.4312C79.0999 30.4995 79.1561 30.554 79.231 30.5947C79.3075 30.6338 79.401 30.6533 79.5117 30.6533C79.6501 30.6533 79.7721 30.624 79.8779 30.5654C79.9837 30.5068 80.0675 30.4352 80.1294 30.3506C80.1929 30.266 80.2271 30.1838 80.2319 30.104L80.4248 30.3213C80.4134 30.3896 80.3825 30.4653 80.332 30.5483C80.2816 30.6313 80.214 30.7111 80.1294 30.7876C80.0464 30.8625 79.9471 30.9251 79.8315 30.9756C79.7176 31.0244 79.589 31.0488 79.4458 31.0488C79.2668 31.0488 79.1097 31.0138 78.9746 30.9438C78.8411 30.8739 78.737 30.7803 78.6621 30.6631C78.5889 30.5443 78.5522 30.4116 78.5522 30.2651C78.5522 30.1235 78.5799 29.999 78.6353 29.8916C78.6906 29.7826 78.7703 29.6922 78.8745 29.6206C78.9787 29.5474 79.104 29.492 79.2505 29.4546C79.397 29.4172 79.5605 29.3984 79.7412 29.3984H80.2661ZM81.8018 28.9224V31H81.3501V28.3584H81.7773L81.8018 28.9224ZM81.6943 29.5791L81.5063 29.5718C81.508 29.3911 81.5348 29.2243 81.5869 29.0713C81.639 28.9167 81.7122 28.7824 81.8066 28.6685C81.901 28.5545 82.0133 28.4666 82.1436 28.4048C82.2754 28.3413 82.4211 28.3096 82.5806 28.3096C82.7108 28.3096 82.828 28.3275 82.9321 28.3633C83.0363 28.3975 83.125 28.4528 83.1982 28.5293C83.2731 28.6058 83.3301 28.7051 83.3691 28.8271C83.4082 28.9476 83.4277 29.0949 83.4277 29.269V31H82.9736V29.2642C82.9736 29.1258 82.9533 29.0151 82.9126 28.9321C82.8719 28.8475 82.8125 28.7865 82.7344 28.749C82.6562 28.71 82.5602 28.6904 82.4463 28.6904C82.334 28.6904 82.2314 28.714 82.1387 28.7612C82.0475 28.8084 81.9686 28.8735 81.9019 28.9565C81.8368 29.0396 81.7855 29.1348 81.748 29.2422C81.7122 29.348 81.6943 29.4603 81.6943 29.5791ZM85.7788 30.4873V27.25H86.2329V31H85.8179L85.7788 30.4873ZM84.0015 29.7085V29.6572C84.0015 29.4554 84.0259 29.2723 84.0747 29.1079C84.1252 28.9419 84.196 28.7995 84.2871 28.6807C84.3799 28.5618 84.4897 28.4707 84.6167 28.4072C84.7453 28.3421 84.8885 28.3096 85.0464 28.3096C85.2124 28.3096 85.3573 28.3389 85.481 28.3975C85.6063 28.4544 85.7121 28.5382 85.7983 28.6489C85.8862 28.758 85.9554 28.8898 86.0059 29.0444C86.0563 29.1991 86.0913 29.374 86.1108 29.5693V29.7939C86.0929 29.9876 86.0579 30.1618 86.0059 30.3164C85.9554 30.471 85.8862 30.6029 85.7983 30.7119C85.7121 30.821 85.6063 30.9048 85.481 30.9634C85.3556 31.0203 85.2091 31.0488 85.0415 31.0488C84.8869 31.0488 84.7453 31.0155 84.6167 30.9487C84.4897 30.882 84.3799 30.7884 84.2871 30.668C84.196 30.5475 84.1252 30.4059 84.0747 30.2432C84.0259 30.0788 84.0015 29.9006 84.0015 29.7085ZM84.4556 29.6572V29.7085C84.4556 29.8403 84.4686 29.964 84.4946 30.0796C84.5223 30.1951 84.5646 30.2969 84.6216 30.3848C84.6785 30.4727 84.751 30.5418 84.8389 30.5923C84.9268 30.6411 85.0317 30.6655 85.1538 30.6655C85.3035 30.6655 85.4264 30.6338 85.5225 30.5703C85.6201 30.5068 85.6982 30.423 85.7568 30.3188C85.8154 30.2147 85.861 30.1016 85.8936 29.9795V29.3911C85.874 29.3016 85.8455 29.2153 85.8081 29.1323C85.7723 29.0477 85.7251 28.9728 85.6665 28.9077C85.6095 28.841 85.5387 28.7881 85.4541 28.749C85.3711 28.71 85.2726 28.6904 85.1587 28.6904C85.035 28.6904 84.9284 28.7165 84.8389 28.7686C84.751 28.819 84.6785 28.889 84.6216 28.9785C84.5646 29.0664 84.5223 29.1689 84.4946 29.2861C84.4686 29.4017 84.4556 29.5254 84.4556 29.6572Z" fill="black"/>
<path d="M203.057 29.606H202.107V29.2227H203.057C203.241 29.2227 203.39 29.1934 203.504 29.1348C203.618 29.0762 203.701 28.9948 203.753 28.8906C203.807 28.7865 203.833 28.6676 203.833 28.5342C203.833 28.4121 203.807 28.2974 203.753 28.1899C203.701 28.0825 203.618 27.9963 203.504 27.9312C203.39 27.8644 203.241 27.8311 203.057 27.8311H202.217V31H201.746V27.4453H203.057C203.326 27.4453 203.553 27.4917 203.738 27.5845C203.924 27.6772 204.065 27.8058 204.161 27.9702C204.257 28.133 204.305 28.3193 204.305 28.5293C204.305 28.7572 204.257 28.9517 204.161 29.1128C204.065 29.2739 203.924 29.3968 203.738 29.4814C203.553 29.5645 203.326 29.606 203.057 29.606ZM205.284 28.7734V31H204.832V28.3584H205.271L205.284 28.7734ZM206.109 28.3438L206.106 28.7637C206.069 28.7555 206.033 28.7507 205.999 28.749C205.966 28.7458 205.929 28.7441 205.887 28.7441C205.783 28.7441 205.691 28.7604 205.611 28.793C205.531 28.8255 205.464 28.8711 205.408 28.9297C205.353 28.9883 205.309 29.0583 205.276 29.1396C205.245 29.2194 205.225 29.3073 205.215 29.4033L205.088 29.4766C205.088 29.3171 205.104 29.1673 205.135 29.0273C205.167 28.8874 205.217 28.7637 205.284 28.6562C205.35 28.5472 205.435 28.4626 205.538 28.4023C205.642 28.3405 205.765 28.3096 205.909 28.3096C205.941 28.3096 205.979 28.3136 206.021 28.3218C206.063 28.3283 206.093 28.3356 206.109 28.3438ZM207.017 28.3584V31H206.563V28.3584H207.017ZM206.529 27.6577C206.529 27.5845 206.551 27.5226 206.595 27.4722C206.64 27.4217 206.707 27.3965 206.795 27.3965C206.881 27.3965 206.947 27.4217 206.993 27.4722C207.04 27.5226 207.063 27.5845 207.063 27.6577C207.063 27.7277 207.04 27.7879 206.993 27.8384C206.947 27.8872 206.881 27.9116 206.795 27.9116C206.707 27.9116 206.64 27.8872 206.595 27.8384C206.551 27.7879 206.529 27.7277 206.529 27.6577ZM208.799 30.6777C208.907 30.6777 209.006 30.6558 209.097 30.6118C209.188 30.5679 209.263 30.5076 209.322 30.4312C209.38 30.353 209.414 30.2643 209.422 30.165H209.852C209.843 30.3213 209.791 30.467 209.693 30.6021C209.597 30.7355 209.471 30.8438 209.314 30.9268C209.158 31.0081 208.986 31.0488 208.799 31.0488C208.601 31.0488 208.427 31.0138 208.279 30.9438C208.133 30.8739 208.011 30.7778 207.913 30.6558C207.817 30.5337 207.745 30.3937 207.696 30.2358C207.649 30.0763 207.625 29.9079 207.625 29.7305V29.6279C207.625 29.4505 207.649 29.2829 207.696 29.125C207.745 28.9655 207.817 28.8247 207.913 28.7026C208.011 28.5806 208.133 28.4845 208.279 28.4146C208.427 28.3446 208.601 28.3096 208.799 28.3096C209.006 28.3096 209.187 28.3519 209.341 28.4365C209.496 28.5195 209.617 28.6335 209.705 28.7783C209.795 28.9215 209.843 29.0843 209.852 29.2666H209.422C209.414 29.1576 209.383 29.0591 209.329 28.9712C209.277 28.8833 209.205 28.8133 209.114 28.7612C209.025 28.7075 208.92 28.6807 208.799 28.6807C208.661 28.6807 208.545 28.7083 208.45 28.7637C208.357 28.8174 208.283 28.8906 208.228 28.9834C208.174 29.0745 208.135 29.1763 208.111 29.2886C208.088 29.3993 208.077 29.5124 208.077 29.6279V29.7305C208.077 29.846 208.088 29.96 208.111 30.0723C208.134 30.1846 208.172 30.2863 208.226 30.3774C208.281 30.4686 208.355 30.5418 208.448 30.5972C208.542 30.6509 208.659 30.6777 208.799 30.6777ZM211.456 31.0488C211.272 31.0488 211.105 31.0179 210.955 30.9561C210.807 30.8926 210.679 30.8039 210.572 30.6899C210.466 30.576 210.385 30.4409 210.328 30.2847C210.271 30.1284 210.242 29.9575 210.242 29.772V29.6694C210.242 29.4546 210.274 29.2633 210.337 29.0957C210.401 28.9264 210.487 28.7832 210.596 28.666C210.705 28.5488 210.829 28.4601 210.967 28.3999C211.106 28.3397 211.249 28.3096 211.397 28.3096C211.586 28.3096 211.749 28.3421 211.885 28.4072C212.024 28.4723 212.137 28.5635 212.225 28.6807C212.312 28.7962 212.378 28.9329 212.42 29.0908C212.462 29.2471 212.483 29.418 212.483 29.6035V29.8062H210.511V29.4375H212.032V29.4033C212.025 29.2861 212.001 29.1722 211.958 29.0615C211.918 28.9508 211.853 28.8597 211.763 28.7881C211.674 28.7165 211.552 28.6807 211.397 28.6807C211.294 28.6807 211.2 28.7026 211.114 28.7466C211.028 28.7889 210.953 28.8524 210.892 28.937C210.83 29.0216 210.782 29.125 210.748 29.2471C210.713 29.3691 210.696 29.5099 210.696 29.6694V29.772C210.696 29.8973 210.713 30.0153 210.748 30.126C210.783 30.235 210.835 30.3311 210.901 30.4141C210.97 30.4971 211.052 30.5622 211.148 30.6094C211.246 30.6566 211.356 30.6802 211.48 30.6802C211.639 30.6802 211.775 30.6476 211.885 30.5825C211.996 30.5174 212.093 30.4303 212.176 30.3213L212.449 30.5386C212.392 30.6248 212.32 30.707 212.232 30.7852C212.144 30.8633 212.036 30.9268 211.907 30.9756C211.78 31.0244 211.63 31.0488 211.456 31.0488Z" fill="black"/>
<path d="M61.3237 39.8696H61.7925C61.7681 40.0942 61.7038 40.2952 61.5996 40.4727C61.4954 40.6501 61.3481 40.7909 61.1577 40.895C60.9673 40.9976 60.7297 41.0488 60.4448 41.0488C60.2365 41.0488 60.0469 41.0098 59.876 40.9316C59.7067 40.8535 59.561 40.7428 59.439 40.5996C59.3169 40.4548 59.2225 40.2814 59.1558 40.0796C59.0907 39.8761 59.0581 39.6499 59.0581 39.4009V39.0469C59.0581 38.7979 59.0907 38.5724 59.1558 38.3706C59.2225 38.1672 59.3177 37.993 59.4414 37.8481C59.5667 37.7033 59.7173 37.5918 59.8931 37.5137C60.0688 37.4355 60.2666 37.3965 60.4863 37.3965C60.7549 37.3965 60.9819 37.4469 61.1675 37.5479C61.353 37.6488 61.4971 37.7887 61.5996 37.9678C61.7038 38.1452 61.7681 38.3511 61.7925 38.5854H61.3237C61.3009 38.4194 61.2586 38.277 61.1968 38.1582C61.1349 38.0378 61.047 37.945 60.9331 37.8799C60.8192 37.8148 60.6702 37.7822 60.4863 37.7822C60.3285 37.7822 60.1893 37.8123 60.0688 37.8726C59.95 37.9328 59.8499 38.0182 59.7686 38.1289C59.6888 38.2396 59.6286 38.3722 59.5879 38.5269C59.5472 38.6815 59.5269 38.8532 59.5269 39.042V39.4009C59.5269 39.575 59.5448 39.7386 59.5806 39.8916C59.618 40.0446 59.6742 40.1789 59.749 40.2944C59.8239 40.41 59.9191 40.5011 60.0347 40.5679C60.1502 40.633 60.2869 40.6655 60.4448 40.6655C60.645 40.6655 60.8045 40.6338 60.9233 40.5703C61.0422 40.5068 61.1317 40.4157 61.1919 40.2969C61.2537 40.1781 61.2977 40.0356 61.3237 39.8696ZM62.2466 39.7085V39.6523C62.2466 39.4619 62.2743 39.2853 62.3296 39.1226C62.3849 38.9582 62.4647 38.8158 62.5688 38.6953C62.673 38.5732 62.7992 38.4788 62.9473 38.4121C63.0954 38.3438 63.2614 38.3096 63.4453 38.3096C63.6309 38.3096 63.7977 38.3438 63.9458 38.4121C64.0955 38.4788 64.2225 38.5732 64.3267 38.6953C64.4325 38.8158 64.513 38.9582 64.5684 39.1226C64.6237 39.2853 64.6514 39.4619 64.6514 39.6523V39.7085C64.6514 39.8989 64.6237 40.0755 64.5684 40.2383C64.513 40.401 64.4325 40.5435 64.3267 40.6655C64.2225 40.786 64.0964 40.8804 63.9482 40.9487C63.8018 41.0155 63.6357 41.0488 63.4502 41.0488C63.2646 41.0488 63.0978 41.0155 62.9497 40.9487C62.8016 40.8804 62.6746 40.786 62.5688 40.6655C62.4647 40.5435 62.3849 40.401 62.3296 40.2383C62.2743 40.0755 62.2466 39.8989 62.2466 39.7085ZM62.6982 39.6523V39.7085C62.6982 39.8403 62.7137 39.9648 62.7446 40.082C62.7756 40.1976 62.8219 40.3001 62.8838 40.3896C62.9473 40.4792 63.0262 40.55 63.1206 40.6021C63.215 40.6525 63.3249 40.6777 63.4502 40.6777C63.5739 40.6777 63.6821 40.6525 63.7749 40.6021C63.8693 40.55 63.9474 40.4792 64.0093 40.3896C64.0711 40.3001 64.1175 40.1976 64.1484 40.082C64.181 39.9648 64.1973 39.8403 64.1973 39.7085V39.6523C64.1973 39.5221 64.181 39.3993 64.1484 39.2837C64.1175 39.1665 64.0703 39.0632 64.0068 38.9736C63.945 38.8825 63.8669 38.8109 63.7725 38.7588C63.6797 38.7067 63.5706 38.6807 63.4453 38.6807C63.3216 38.6807 63.2126 38.7067 63.1182 38.7588C63.0254 38.8109 62.9473 38.8825 62.8838 38.9736C62.8219 39.0632 62.7756 39.1665 62.7446 39.2837C62.7137 39.3993 62.6982 39.5221 62.6982 39.6523ZM65.667 38.8833V41H65.2129V38.3584H65.6426L65.667 38.8833ZM65.5742 39.5791L65.3643 39.5718C65.3659 39.3911 65.3895 39.2243 65.4351 39.0713C65.4806 38.9167 65.5482 38.7824 65.6377 38.6685C65.7272 38.5545 65.8387 38.4666 65.9722 38.4048C66.1056 38.3413 66.2603 38.3096 66.436 38.3096C66.5597 38.3096 66.6737 38.3275 66.7778 38.3633C66.882 38.3975 66.9723 38.452 67.0488 38.5269C67.1253 38.6017 67.1847 38.6978 67.2271 38.8149C67.2694 38.9321 67.2905 39.0737 67.2905 39.2397V41H66.8389V39.2617C66.8389 39.1234 66.8153 39.0127 66.7681 38.9297C66.7225 38.8467 66.6574 38.7865 66.5728 38.749C66.4881 38.71 66.3888 38.6904 66.2749 38.6904C66.1414 38.6904 66.0299 38.714 65.9404 38.7612C65.8509 38.8084 65.7793 38.8735 65.7256 38.9565C65.6719 39.0396 65.6328 39.1348 65.6084 39.2422C65.5856 39.348 65.5742 39.4603 65.5742 39.5791ZM67.2856 39.3301L66.9829 39.4229C66.9845 39.278 67.0081 39.1388 67.0537 39.0054C67.1009 38.8719 67.1685 38.7531 67.2563 38.6489C67.3459 38.5448 67.4557 38.4626 67.5859 38.4023C67.7161 38.3405 67.8651 38.3096 68.0327 38.3096C68.1743 38.3096 68.2996 38.3283 68.4087 38.3657C68.5194 38.4032 68.6121 38.4609 68.687 38.5391C68.7635 38.6156 68.8213 38.714 68.8604 38.8345C68.8994 38.9549 68.9189 39.0981 68.9189 39.2642V41H68.4648V39.2593C68.4648 39.1112 68.4412 38.9964 68.394 38.915C68.3485 38.832 68.2834 38.7743 68.1987 38.7417C68.1157 38.7075 68.0164 38.6904 67.9009 38.6904C67.8016 38.6904 67.7137 38.7075 67.6372 38.7417C67.5607 38.7759 67.4964 38.8231 67.4443 38.8833C67.3923 38.9419 67.3524 39.0094 67.3247 39.0859C67.2987 39.1624 67.2856 39.2438 67.2856 39.3301ZM70.0542 38.8662V42.0156H69.6001V38.3584H70.0151L70.0542 38.8662ZM71.834 39.6572V39.7085C71.834 39.9006 71.8112 40.0788 71.7656 40.2432C71.7201 40.4059 71.6533 40.5475 71.5654 40.668C71.4792 40.7884 71.3726 40.882 71.2456 40.9487C71.1187 41.0155 70.973 41.0488 70.8086 41.0488C70.641 41.0488 70.4928 41.0212 70.3643 40.9658C70.2357 40.9105 70.1266 40.8299 70.0371 40.7241C69.9476 40.6183 69.876 40.4914 69.8223 40.3433C69.7702 40.1951 69.7344 40.0283 69.7148 39.8428V39.5693C69.7344 39.374 69.771 39.1991 69.8247 39.0444C69.8784 38.8898 69.9492 38.758 70.0371 38.6489C70.1266 38.5382 70.2349 38.4544 70.3618 38.3975C70.4888 38.3389 70.6353 38.3096 70.8013 38.3096C70.9673 38.3096 71.1146 38.3421 71.2432 38.4072C71.3717 38.4707 71.48 38.5618 71.5679 38.6807C71.6558 38.7995 71.7217 38.9419 71.7656 39.1079C71.8112 39.2723 71.834 39.4554 71.834 39.6572ZM71.3799 39.7085V39.6572C71.3799 39.5254 71.366 39.4017 71.3384 39.2861C71.3107 39.1689 71.2676 39.0664 71.209 38.9785C71.152 38.889 71.0788 38.819 70.9893 38.7686C70.8997 38.7165 70.7931 38.6904 70.6694 38.6904C70.5555 38.6904 70.4562 38.71 70.3716 38.749C70.2886 38.7881 70.2178 38.841 70.1592 38.9077C70.1006 38.9728 70.0526 39.0477 70.0151 39.1323C69.9793 39.2153 69.9525 39.3016 69.9346 39.3911V40.0234C69.9671 40.1374 70.0127 40.2448 70.0713 40.3457C70.1299 40.445 70.208 40.5256 70.3057 40.5874C70.4033 40.6476 70.5262 40.6777 70.6743 40.6777C70.7964 40.6777 70.9014 40.6525 70.9893 40.6021C71.0788 40.55 71.152 40.4792 71.209 40.3896C71.2676 40.3001 71.3107 40.1976 71.3384 40.082C71.366 39.9648 71.3799 39.8403 71.3799 39.7085ZM73.9678 40.5483V39.1885C73.9678 39.0843 73.9466 38.994 73.9043 38.9175C73.8636 38.8394 73.8018 38.7791 73.7188 38.7368C73.6357 38.6945 73.5332 38.6733 73.4111 38.6733C73.2972 38.6733 73.1971 38.6929 73.1108 38.7319C73.0262 38.771 72.9595 38.8223 72.9106 38.8857C72.8634 38.9492 72.8398 39.0176 72.8398 39.0908H72.3882C72.3882 38.9964 72.4126 38.9028 72.4614 38.8101C72.5103 38.7173 72.5802 38.6335 72.6714 38.5586C72.7642 38.4821 72.8748 38.4219 73.0034 38.3779C73.1336 38.3324 73.2785 38.3096 73.438 38.3096C73.63 38.3096 73.7993 38.3421 73.9458 38.4072C74.0939 38.4723 74.2095 38.5708 74.2925 38.7026C74.3771 38.8328 74.4194 38.9964 74.4194 39.1934V40.4238C74.4194 40.5117 74.4268 40.6053 74.4414 40.7046C74.4577 40.8039 74.4813 40.8893 74.5122 40.9609V41H74.041C74.0182 40.9479 74.0003 40.8787 73.9873 40.7925C73.9743 40.7046 73.9678 40.6232 73.9678 40.5483ZM74.0459 39.3984L74.0508 39.7158H73.5942C73.4657 39.7158 73.3509 39.7264 73.25 39.7476C73.1491 39.7671 73.0645 39.7972 72.9961 39.8379C72.9277 39.8786 72.8757 39.9299 72.8398 39.9917C72.804 40.0519 72.7861 40.1227 72.7861 40.2041C72.7861 40.2871 72.8049 40.3628 72.8423 40.4312C72.8797 40.4995 72.9359 40.554 73.0107 40.5947C73.0872 40.6338 73.1808 40.6533 73.2915 40.6533C73.4299 40.6533 73.5519 40.624 73.6577 40.5654C73.7635 40.5068 73.8473 40.4352 73.9092 40.3506C73.9727 40.266 74.0068 40.1838 74.0117 40.104L74.2046 40.3213C74.1932 40.3896 74.1623 40.4653 74.1118 40.5483C74.0614 40.6313 73.9938 40.7111 73.9092 40.7876C73.8262 40.8625 73.7269 40.9251 73.6113 40.9756C73.4974 41.0244 73.3688 41.0488 73.2256 41.0488C73.0465 41.0488 72.8895 41.0138 72.7544 40.9438C72.6209 40.8739 72.5168 40.7803 72.4419 40.6631C72.3687 40.5443 72.332 40.4116 72.332 40.2651C72.332 40.1235 72.3597 39.999 72.415 39.8916C72.4704 39.7826 72.5501 39.6922 72.6543 39.6206C72.7585 39.5474 72.8838 39.492 73.0303 39.4546C73.1768 39.4172 73.3403 39.3984 73.521 39.3984H74.0459ZM75.5815 38.7734V41H75.1299V38.3584H75.5693L75.5815 38.7734ZM76.4067 38.3438L76.4043 38.7637C76.3669 38.7555 76.3311 38.7507 76.2969 38.749C76.2643 38.7458 76.2269 38.7441 76.1846 38.7441C76.0804 38.7441 75.9884 38.7604 75.9087 38.793C75.8289 38.8255 75.7614 38.8711 75.7061 38.9297C75.6507 38.9883 75.6068 39.0583 75.5742 39.1396C75.5433 39.2194 75.5229 39.3073 75.5132 39.4033L75.3862 39.4766C75.3862 39.3171 75.4017 39.1673 75.4326 39.0273C75.4652 38.8874 75.5148 38.7637 75.5815 38.6562C75.6483 38.5472 75.7329 38.4626 75.8354 38.4023C75.9396 38.3405 76.0633 38.3096 76.2065 38.3096C76.2391 38.3096 76.2765 38.3136 76.3188 38.3218C76.3612 38.3283 76.3905 38.3356 76.4067 38.3438ZM78.2842 40.5483V39.1885C78.2842 39.0843 78.263 38.994 78.2207 38.9175C78.18 38.8394 78.1182 38.7791 78.0352 38.7368C77.9521 38.6945 77.8496 38.6733 77.7275 38.6733C77.6136 38.6733 77.5135 38.6929 77.4272 38.7319C77.3426 38.771 77.2759 38.8223 77.2271 38.8857C77.1799 38.9492 77.1562 39.0176 77.1562 39.0908H76.7046C76.7046 38.9964 76.729 38.9028 76.7778 38.8101C76.8267 38.7173 76.8966 38.6335 76.9878 38.5586C77.0806 38.4821 77.1912 38.4219 77.3198 38.3779C77.45 38.3324 77.5949 38.3096 77.7544 38.3096C77.9465 38.3096 78.1157 38.3421 78.2622 38.4072C78.4103 38.4723 78.5259 38.5708 78.6089 38.7026C78.6935 38.8328 78.7358 38.9964 78.7358 39.1934V40.4238C78.7358 40.5117 78.7432 40.6053 78.7578 40.7046C78.7741 40.8039 78.7977 40.8893 78.8286 40.9609V41H78.3574C78.3346 40.9479 78.3167 40.8787 78.3037 40.7925C78.2907 40.7046 78.2842 40.6232 78.2842 40.5483ZM78.3623 39.3984L78.3672 39.7158H77.9106C77.7821 39.7158 77.6673 39.7264 77.5664 39.7476C77.4655 39.7671 77.3809 39.7972 77.3125 39.8379C77.2441 39.8786 77.1921 39.9299 77.1562 39.9917C77.1204 40.0519 77.1025 40.1227 77.1025 40.2041C77.1025 40.2871 77.1213 40.3628 77.1587 40.4312C77.1961 40.4995 77.2523 40.554 77.3271 40.5947C77.4036 40.6338 77.4972 40.6533 77.6079 40.6533C77.7463 40.6533 77.8683 40.624 77.9741 40.5654C78.0799 40.5068 78.1637 40.4352 78.2256 40.3506C78.2891 40.266 78.3232 40.1838 78.3281 40.104L78.521 40.3213C78.5096 40.3896 78.4787 40.4653 78.4282 40.5483C78.3778 40.6313 78.3102 40.7111 78.2256 40.7876C78.1426 40.8625 78.0433 40.9251 77.9277 40.9756C77.8138 41.0244 77.6852 41.0488 77.542 41.0488C77.363 41.0488 77.2059 41.0138 77.0708 40.9438C76.9373 40.8739 76.8332 40.7803 76.7583 40.6631C76.6851 40.5443 76.6484 40.4116 76.6484 40.2651C76.6484 40.1235 76.6761 39.999 76.7314 39.8916C76.7868 39.7826 76.8665 39.6922 76.9707 39.6206C77.0749 39.5474 77.2002 39.492 77.3467 39.4546C77.4932 39.4172 77.6567 39.3984 77.8374 39.3984H78.3623ZM80.5522 38.3584V38.7051H79.124V38.3584H80.5522ZM79.6074 37.7163H80.0591V40.3457C80.0591 40.4352 80.0729 40.5028 80.1006 40.5483C80.1283 40.5939 80.1641 40.624 80.208 40.6387C80.252 40.6533 80.2992 40.6606 80.3496 40.6606C80.387 40.6606 80.4261 40.6574 80.4668 40.6509C80.5091 40.6427 80.5409 40.6362 80.562 40.6313L80.5645 41C80.5286 41.0114 80.4814 41.022 80.4229 41.0317C80.3659 41.0431 80.2967 41.0488 80.2153 41.0488C80.1047 41.0488 80.0029 41.0269 79.9102 40.9829C79.8174 40.939 79.7433 40.8657 79.688 40.7632C79.6343 40.659 79.6074 40.519 79.6074 40.3433V37.7163ZM80.9136 39.7085V39.6523C80.9136 39.4619 80.9412 39.2853 80.9966 39.1226C81.0519 38.9582 81.1317 38.8158 81.2358 38.6953C81.34 38.5732 81.4661 38.4788 81.6143 38.4121C81.7624 38.3438 81.9284 38.3096 82.1123 38.3096C82.2979 38.3096 82.4647 38.3438 82.6128 38.4121C82.7625 38.4788 82.8895 38.5732 82.9937 38.6953C83.0994 38.8158 83.18 38.9582 83.2354 39.1226C83.2907 39.2853 83.3184 39.4619 83.3184 39.6523V39.7085C83.3184 39.8989 83.2907 40.0755 83.2354 40.2383C83.18 40.401 83.0994 40.5435 82.9937 40.6655C82.8895 40.786 82.7633 40.8804 82.6152 40.9487C82.4688 41.0155 82.3027 41.0488 82.1172 41.0488C81.9316 41.0488 81.7648 41.0155 81.6167 40.9487C81.4686 40.8804 81.3416 40.786 81.2358 40.6655C81.1317 40.5435 81.0519 40.401 80.9966 40.2383C80.9412 40.0755 80.9136 39.8989 80.9136 39.7085ZM81.3652 39.6523V39.7085C81.3652 39.8403 81.3807 39.9648 81.4116 40.082C81.4425 40.1976 81.4889 40.3001 81.5508 40.3896C81.6143 40.4792 81.6932 40.55 81.7876 40.6021C81.882 40.6525 81.9919 40.6777 82.1172 40.6777C82.2409 40.6777 82.3491 40.6525 82.4419 40.6021C82.5363 40.55 82.6144 40.4792 82.6763 40.3896C82.7381 40.3001 82.7845 40.1976 82.8154 40.082C82.848 39.9648 82.8643 39.8403 82.8643 39.7085V39.6523C82.8643 39.5221 82.848 39.3993 82.8154 39.2837C82.7845 39.1665 82.7373 39.0632 82.6738 38.9736C82.612 38.8825 82.5339 38.8109 82.4395 38.7588C82.3467 38.7067 82.2376 38.6807 82.1123 38.6807C81.9886 38.6807 81.8796 38.7067 81.7852 38.7588C81.6924 38.8109 81.6143 38.8825 81.5508 38.9736C81.4889 39.0632 81.4425 39.1665 81.4116 39.2837C81.3807 39.3993 81.3652 39.5221 81.3652 39.6523ZM84.3364 38.7734V41H83.8848V38.3584H84.3242L84.3364 38.7734ZM85.1616 38.3438L85.1592 38.7637C85.1217 38.7555 85.0859 38.7507 85.0518 38.749C85.0192 38.7458 84.9818 38.7441 84.9395 38.7441C84.8353 38.7441 84.7433 38.7604 84.6636 38.793C84.5838 38.8255 84.5163 38.8711 84.4609 38.9297C84.4056 38.9883 84.3617 39.0583 84.3291 39.1396C84.2982 39.2194 84.2778 39.3073 84.2681 39.4033L84.1411 39.4766C84.1411 39.3171 84.1566 39.1673 84.1875 39.0273C84.2201 38.8874 84.2697 38.7637 84.3364 38.6562C84.4032 38.5472 84.4878 38.4626 84.5903 38.4023C84.6945 38.3405 84.8182 38.3096 84.9614 38.3096C84.994 38.3096 85.0314 38.3136 85.0737 38.3218C85.116 38.3283 85.1453 38.3356 85.1616 38.3438ZM58.8506 45.5791V45.5547C58.8506 45.1999 58.8905 44.8792 58.9702 44.5928C59.05 44.3047 59.1517 44.0524 59.2754 43.8359C59.3991 43.6195 59.5293 43.4404 59.666 43.2988C59.8027 43.1556 59.9289 43.0522 60.0444 42.9888L60.1396 43.2866C60.0436 43.3599 59.946 43.4608 59.8467 43.5894C59.749 43.7179 59.6587 43.8758 59.5757 44.063C59.4943 44.2502 59.4284 44.4674 59.3779 44.7148C59.3275 44.9622 59.3022 45.2406 59.3022 45.5498V45.584C59.3022 45.8932 59.3275 46.1724 59.3779 46.4214C59.4284 46.6688 59.4943 46.8869 59.5757 47.0757C59.6587 47.2645 59.749 47.4248 59.8467 47.5566C59.946 47.6901 60.0436 47.7959 60.1396 47.874L60.0444 48.1475C59.9289 48.084 59.8027 47.9806 59.666 47.8374C59.5293 47.6958 59.3991 47.5168 59.2754 47.3003C59.1517 47.0854 59.05 46.834 58.9702 46.5459C58.8905 46.2578 58.8506 45.9355 58.8506 45.5791ZM61.6387 46.6777C61.7461 46.6777 61.8454 46.6558 61.9365 46.6118C62.0277 46.5679 62.1025 46.5076 62.1611 46.4312C62.2197 46.353 62.2531 46.2643 62.2612 46.165H62.6909C62.6828 46.3213 62.6299 46.467 62.5322 46.6021C62.4362 46.7355 62.3101 46.8438 62.1538 46.9268C61.9976 47.0081 61.8258 47.0488 61.6387 47.0488C61.4401 47.0488 61.2668 47.0138 61.1187 46.9438C60.9722 46.8739 60.8501 46.7778 60.7524 46.6558C60.6564 46.5337 60.584 46.3937 60.5352 46.2358C60.488 46.0763 60.4644 45.9079 60.4644 45.7305V45.6279C60.4644 45.4505 60.488 45.2829 60.5352 45.125C60.584 44.9655 60.6564 44.8247 60.7524 44.7026C60.8501 44.5806 60.9722 44.4845 61.1187 44.4146C61.2668 44.3446 61.4401 44.3096 61.6387 44.3096C61.8454 44.3096 62.026 44.3519 62.1807 44.4365C62.3353 44.5195 62.4565 44.6335 62.5444 44.7783C62.634 44.9215 62.6828 45.0843 62.6909 45.2666H62.2612C62.2531 45.1576 62.2222 45.0591 62.1685 44.9712C62.1164 44.8833 62.0448 44.8133 61.9536 44.7612C61.8641 44.7075 61.7591 44.6807 61.6387 44.6807C61.5003 44.6807 61.384 44.7083 61.2896 44.7637C61.1968 44.8174 61.1227 44.8906 61.0674 44.9834C61.0137 45.0745 60.9746 45.1763 60.9502 45.2886C60.9274 45.3993 60.916 45.5124 60.916 45.6279V45.7305C60.916 45.846 60.9274 45.96 60.9502 46.0723C60.973 46.1846 61.0112 46.2863 61.0649 46.3774C61.1203 46.4686 61.1943 46.5418 61.2871 46.5972C61.3815 46.6509 61.4987 46.6777 61.6387 46.6777ZM64.7563 46.5483V45.1885C64.7563 45.0843 64.7352 44.994 64.6929 44.9175C64.6522 44.8394 64.5903 44.7791 64.5073 44.7368C64.4243 44.6945 64.3218 44.6733 64.1997 44.6733C64.0858 44.6733 63.9857 44.6929 63.8994 44.7319C63.8148 44.771 63.748 44.8223 63.6992 44.8857C63.652 44.9492 63.6284 45.0176 63.6284 45.0908H63.1768C63.1768 44.9964 63.2012 44.9028 63.25 44.8101C63.2988 44.7173 63.3688 44.6335 63.46 44.5586C63.5527 44.4821 63.6634 44.4219 63.792 44.3779C63.9222 44.3324 64.0671 44.3096 64.2266 44.3096C64.4186 44.3096 64.5879 44.3421 64.7344 44.4072C64.8825 44.4723 64.998 44.5708 65.0811 44.7026C65.1657 44.8328 65.208 44.9964 65.208 45.1934V46.4238C65.208 46.5117 65.2153 46.6053 65.23 46.7046C65.2463 46.8039 65.2699 46.8893 65.3008 46.9609V47H64.8296C64.8068 46.9479 64.7889 46.8787 64.7759 46.7925C64.7629 46.7046 64.7563 46.6232 64.7563 46.5483ZM64.8345 45.3984L64.8394 45.7158H64.3828C64.2542 45.7158 64.1395 45.7264 64.0386 45.7476C63.9377 45.7671 63.853 45.7972 63.7847 45.8379C63.7163 45.8786 63.6642 45.9299 63.6284 45.9917C63.5926 46.0519 63.5747 46.1227 63.5747 46.2041C63.5747 46.2871 63.5934 46.3628 63.6309 46.4312C63.6683 46.4995 63.7244 46.554 63.7993 46.5947C63.8758 46.6338 63.9694 46.6533 64.0801 46.6533C64.2184 46.6533 64.3405 46.624 64.4463 46.5654C64.5521 46.5068 64.6359 46.4352 64.6978 46.3506C64.7612 46.266 64.7954 46.1838 64.8003 46.104L64.9932 46.3213C64.9818 46.3896 64.9508 46.4653 64.9004 46.5483C64.8499 46.6313 64.7824 46.7111 64.6978 46.7876C64.6147 46.8625 64.5155 46.9251 64.3999 46.9756C64.286 47.0244 64.1574 47.0488 64.0142 47.0488C63.8351 47.0488 63.6781 47.0138 63.543 46.9438C63.4095 46.8739 63.3053 46.7803 63.2305 46.6631C63.1572 46.5443 63.1206 46.4116 63.1206 46.2651C63.1206 46.1235 63.1483 45.999 63.2036 45.8916C63.259 45.7826 63.3387 45.6922 63.4429 45.6206C63.547 45.5474 63.6724 45.492 63.8188 45.4546C63.9653 45.4172 64.1289 45.3984 64.3096 45.3984H64.8345ZM66.3701 44.9224V47H65.9185V44.3584H66.3457L66.3701 44.9224ZM66.2627 45.5791L66.0747 45.5718C66.0763 45.3911 66.1032 45.2243 66.1553 45.0713C66.2074 44.9167 66.2806 44.7824 66.375 44.6685C66.4694 44.5545 66.5817 44.4666 66.7119 44.4048C66.8438 44.3413 66.9894 44.3096 67.1489 44.3096C67.2791 44.3096 67.3963 44.3275 67.5005 44.3633C67.6047 44.3975 67.6934 44.4528 67.7666 44.5293C67.8415 44.6058 67.8984 44.7051 67.9375 44.8271C67.9766 44.9476 67.9961 45.0949 67.9961 45.269V47H67.542V45.2642C67.542 45.1258 67.5216 45.0151 67.481 44.9321C67.4403 44.8475 67.3809 44.7865 67.3027 44.749C67.2246 44.71 67.1286 44.6904 67.0146 44.6904C66.9023 44.6904 66.7998 44.714 66.707 44.7612C66.6159 44.8084 66.5369 44.8735 66.4702 44.9565C66.4051 45.0396 66.3538 45.1348 66.3164 45.2422C66.2806 45.348 66.2627 45.4603 66.2627 45.5791ZM69.8027 45.7085V45.6523C69.8027 45.4619 69.8304 45.2853 69.8857 45.1226C69.9411 44.9582 70.0208 44.8158 70.125 44.6953C70.2292 44.5732 70.3553 44.4788 70.5034 44.4121C70.6515 44.3438 70.8175 44.3096 71.0015 44.3096C71.187 44.3096 71.3538 44.3438 71.502 44.4121C71.6517 44.4788 71.7786 44.5732 71.8828 44.6953C71.9886 44.8158 72.0692 44.9582 72.1245 45.1226C72.1799 45.2853 72.2075 45.4619 72.2075 45.6523V45.7085C72.2075 45.8989 72.1799 46.0755 72.1245 46.2383C72.0692 46.401 71.9886 46.5435 71.8828 46.6655C71.7786 46.786 71.6525 46.8804 71.5044 46.9487C71.3579 47.0155 71.1919 47.0488 71.0063 47.0488C70.8208 47.0488 70.654 47.0155 70.5059 46.9487C70.3577 46.8804 70.2308 46.786 70.125 46.6655C70.0208 46.5435 69.9411 46.401 69.8857 46.2383C69.8304 46.0755 69.8027 45.8989 69.8027 45.7085ZM70.2544 45.6523V45.7085C70.2544 45.8403 70.2699 45.9648 70.3008 46.082C70.3317 46.1976 70.3781 46.3001 70.4399 46.3896C70.5034 46.4792 70.5824 46.55 70.6768 46.6021C70.7712 46.6525 70.881 46.6777 71.0063 46.6777C71.13 46.6777 71.2383 46.6525 71.3311 46.6021C71.4255 46.55 71.5036 46.4792 71.5654 46.3896C71.6273 46.3001 71.6737 46.1976 71.7046 46.082C71.7371 45.9648 71.7534 45.8403 71.7534 45.7085V45.6523C71.7534 45.5221 71.7371 45.3993 71.7046 45.2837C71.6737 45.1665 71.6265 45.0632 71.563 44.9736C71.5011 44.8825 71.423 44.8109 71.3286 44.7588C71.2358 44.7067 71.1268 44.6807 71.0015 44.6807C70.8778 44.6807 70.7687 44.7067 70.6743 44.7588C70.5815 44.8109 70.5034 44.8825 70.4399 44.9736C70.3781 45.0632 70.3317 45.1665 70.3008 45.2837C70.2699 45.3993 70.2544 45.5221 70.2544 45.6523ZM73.2256 44.9224V47H72.7739V44.3584H73.2012L73.2256 44.9224ZM73.1182 45.5791L72.9302 45.5718C72.9318 45.3911 72.9587 45.2243 73.0107 45.0713C73.0628 44.9167 73.1361 44.7824 73.2305 44.6685C73.3249 44.5545 73.4372 44.4666 73.5674 44.4048C73.6992 44.3413 73.8449 44.3096 74.0044 44.3096C74.1346 44.3096 74.2518 44.3275 74.356 44.3633C74.4601 44.3975 74.5488 44.4528 74.6221 44.5293C74.6969 44.6058 74.7539 44.7051 74.793 44.8271C74.832 44.9476 74.8516 45.0949 74.8516 45.269V47H74.3975V45.2642C74.3975 45.1258 74.3771 45.0151 74.3364 44.9321C74.2957 44.8475 74.2363 44.7865 74.1582 44.749C74.0801 44.71 73.984 44.6904 73.8701 44.6904C73.7578 44.6904 73.6553 44.714 73.5625 44.7612C73.4714 44.8084 73.3924 44.8735 73.3257 44.9565C73.2606 45.0396 73.2093 45.1348 73.1719 45.2422C73.1361 45.348 73.1182 45.4603 73.1182 45.5791ZM76.0283 43.25V47H75.5742V43.25H76.0283ZM77.4956 46.7266L78.2305 44.3584H78.7139L77.6543 47.4077C77.6299 47.4728 77.5973 47.5428 77.5566 47.6177C77.5176 47.6942 77.4671 47.7666 77.4053 47.835C77.3434 47.9033 77.2686 47.9587 77.1807 48.001C77.0944 48.0449 76.991 48.0669 76.8706 48.0669C76.8348 48.0669 76.7892 48.062 76.7339 48.0522C76.6785 48.0425 76.6395 48.0343 76.6167 48.0278L76.6143 47.6616C76.6273 47.6632 76.6476 47.6649 76.6753 47.6665C76.7046 47.6698 76.7249 47.6714 76.7363 47.6714C76.8389 47.6714 76.9259 47.6576 76.9976 47.6299C77.0692 47.6038 77.1294 47.5591 77.1782 47.4956C77.2287 47.4338 77.2718 47.3483 77.3076 47.2393L77.4956 46.7266ZM76.9561 44.3584L77.6421 46.4092L77.7593 46.8853L77.4346 47.0513L76.4629 44.3584H76.9561ZM80.3594 43.25H80.8135V46.4873L80.7744 47H80.3594V43.25ZM82.5981 45.6572V45.7085C82.5981 45.9006 82.5754 46.0788 82.5298 46.2432C82.4842 46.4059 82.4175 46.5475 82.3296 46.668C82.2417 46.7884 82.1343 46.882 82.0073 46.9487C81.8804 47.0155 81.7347 47.0488 81.5703 47.0488C81.4027 47.0488 81.2554 47.0203 81.1284 46.9634C81.0031 46.9048 80.8973 46.821 80.811 46.7119C80.7248 46.6029 80.6556 46.471 80.6035 46.3164C80.5531 46.1618 80.5181 45.9876 80.4985 45.7939V45.5693C80.5181 45.374 80.5531 45.1991 80.6035 45.0444C80.6556 44.8898 80.7248 44.758 80.811 44.6489C80.8973 44.5382 81.0031 44.4544 81.1284 44.3975C81.2537 44.3389 81.3994 44.3096 81.5654 44.3096C81.7314 44.3096 81.8787 44.3421 82.0073 44.4072C82.1359 44.4707 82.2433 44.5618 82.3296 44.6807C82.4175 44.7995 82.4842 44.9419 82.5298 45.1079C82.5754 45.2723 82.5981 45.4554 82.5981 45.6572ZM82.144 45.7085V45.6572C82.144 45.5254 82.1318 45.4017 82.1074 45.2861C82.083 45.1689 82.0439 45.0664 81.9902 44.9785C81.9365 44.889 81.8657 44.819 81.7778 44.7686C81.6899 44.7165 81.5817 44.6904 81.4531 44.6904C81.3392 44.6904 81.2399 44.71 81.1553 44.749C81.0723 44.7881 81.0015 44.841 80.9429 44.9077C80.8843 44.9728 80.8363 45.0477 80.7988 45.1323C80.763 45.2153 80.7362 45.3016 80.7183 45.3911V45.9795C80.7443 46.0934 80.7866 46.2033 80.8452 46.3091C80.9054 46.4132 80.9852 46.4987 81.0845 46.5654C81.1854 46.6322 81.3099 46.6655 81.458 46.6655C81.5801 46.6655 81.6842 46.6411 81.7705 46.5923C81.8584 46.5418 81.9292 46.4727 81.9829 46.3848C82.0382 46.2969 82.0789 46.1951 82.105 46.0796C82.131 45.964 82.144 45.8403 82.144 45.7085ZM84.2656 47.0488C84.0817 47.0488 83.9149 47.0179 83.7651 46.9561C83.617 46.8926 83.4893 46.8039 83.3818 46.6899C83.276 46.576 83.1947 46.4409 83.1377 46.2847C83.0807 46.1284 83.0522 45.9575 83.0522 45.772V45.6694C83.0522 45.4546 83.084 45.2633 83.1475 45.0957C83.2109 44.9264 83.2972 44.7832 83.4062 44.666C83.5153 44.5488 83.639 44.4601 83.7773 44.3999C83.9157 44.3397 84.0589 44.3096 84.207 44.3096C84.3958 44.3096 84.5586 44.3421 84.6953 44.4072C84.8337 44.4723 84.9468 44.5635 85.0347 44.6807C85.1226 44.7962 85.1877 44.9329 85.23 45.0908C85.2723 45.2471 85.2935 45.418 85.2935 45.6035V45.8062H83.3208V45.4375H84.8418V45.4033C84.8353 45.2861 84.8109 45.1722 84.7686 45.0615C84.7279 44.9508 84.6628 44.8597 84.5732 44.7881C84.4837 44.7165 84.3617 44.6807 84.207 44.6807C84.1045 44.6807 84.0101 44.7026 83.9238 44.7466C83.8376 44.7889 83.7635 44.8524 83.7017 44.937C83.6398 45.0216 83.5918 45.125 83.5576 45.2471C83.5234 45.3691 83.5063 45.5099 83.5063 45.6694V45.772C83.5063 45.8973 83.5234 46.0153 83.5576 46.126C83.5934 46.235 83.6447 46.3311 83.7114 46.4141C83.7798 46.4971 83.862 46.5622 83.958 46.6094C84.0557 46.6566 84.1663 46.6802 84.29 46.6802C84.4495 46.6802 84.5846 46.6476 84.6953 46.5825C84.806 46.5174 84.9028 46.4303 84.9858 46.3213L85.2593 46.5386C85.2023 46.6248 85.1299 46.707 85.042 46.7852C84.9541 46.8633 84.8459 46.9268 84.7173 46.9756C84.5903 47.0244 84.4398 47.0488 84.2656 47.0488ZM63.2695 50.3804V50.085C63.2695 49.9857 63.2858 49.8823 63.3184 49.7749C63.3525 49.6659 63.4014 49.5617 63.4648 49.4624C63.5283 49.3615 63.6048 49.2744 63.6943 49.2012L63.9507 49.3794C63.8758 49.4868 63.818 49.5975 63.7773 49.7114C63.7367 49.8237 63.7163 49.9458 63.7163 50.0776V50.3804H63.2695ZM64.5195 51.3594L66.2065 52.043V52.5215L64.2095 51.5962V51.3154L64.5195 51.3594ZM66.2065 50.7979L64.522 51.4912L64.2095 51.5254V51.2422L66.2065 50.3193V50.7979ZM67.3784 49.25V49.5625C67.3784 49.6602 67.3613 49.7635 67.3271 49.8726C67.2946 49.98 67.2466 50.0841 67.1831 50.1851C67.1196 50.2843 67.0431 50.3714 66.9536 50.4463L66.6948 50.2681C66.7713 50.1606 66.8291 50.0508 66.8682 49.9385C66.9089 49.8245 66.9292 49.7017 66.9292 49.5698V49.25H67.3784ZM69.0435 51.7085V51.6523C69.0435 51.4619 69.0711 51.2853 69.1265 51.1226C69.1818 50.9582 69.2616 50.8158 69.3657 50.6953C69.4699 50.5732 69.596 50.4788 69.7441 50.4121C69.8923 50.3438 70.0583 50.3096 70.2422 50.3096C70.4277 50.3096 70.5946 50.3438 70.7427 50.4121C70.8924 50.4788 71.0194 50.5732 71.1235 50.6953C71.2293 50.8158 71.3099 50.9582 71.3652 51.1226C71.4206 51.2853 71.4482 51.4619 71.4482 51.6523V51.7085C71.4482 51.8989 71.4206 52.0755 71.3652 52.2383C71.3099 52.401 71.2293 52.5435 71.1235 52.6655C71.0194 52.786 70.8932 52.8804 70.7451 52.9487C70.5986 53.0155 70.4326 53.0488 70.2471 53.0488C70.0615 53.0488 69.8947 53.0155 69.7466 52.9487C69.5985 52.8804 69.4715 52.786 69.3657 52.6655C69.2616 52.5435 69.1818 52.401 69.1265 52.2383C69.0711 52.0755 69.0435 51.8989 69.0435 51.7085ZM69.4951 51.6523V51.7085C69.4951 51.8403 69.5106 51.9648 69.5415 52.082C69.5724 52.1976 69.6188 52.3001 69.6807 52.3896C69.7441 52.4792 69.8231 52.55 69.9175 52.6021C70.0119 52.6525 70.1217 52.6777 70.2471 52.6777C70.3708 52.6777 70.479 52.6525 70.5718 52.6021C70.6662 52.55 70.7443 52.4792 70.8062 52.3896C70.868 52.3001 70.9144 52.1976 70.9453 52.082C70.9779 51.9648 70.9941 51.8403 70.9941 51.7085V51.6523C70.9941 51.5221 70.9779 51.3993 70.9453 51.2837C70.9144 51.1665 70.8672 51.0632 70.8037 50.9736C70.7419 50.8825 70.6637 50.8109 70.5693 50.7588C70.4766 50.7067 70.3675 50.6807 70.2422 50.6807C70.1185 50.6807 70.0094 50.7067 69.915 50.7588C69.8223 50.8109 69.7441 50.8825 69.6807 50.9736C69.6188 51.0632 69.5724 51.1665 69.5415 51.2837C69.5106 51.3993 69.4951 51.5221 69.4951 51.6523ZM72.4663 50.7734V53H72.0146V50.3584H72.4541L72.4663 50.7734ZM73.2915 50.3438L73.2891 50.7637C73.2516 50.7555 73.2158 50.7507 73.1816 50.749C73.1491 50.7458 73.1117 50.7441 73.0693 50.7441C72.9652 50.7441 72.8732 50.7604 72.7935 50.793C72.7137 50.8255 72.6462 50.8711 72.5908 50.9297C72.5355 50.9883 72.4915 51.0583 72.459 51.1396C72.4281 51.2194 72.4077 51.3073 72.3979 51.4033L72.271 51.4766C72.271 51.3171 72.2865 51.1673 72.3174 51.0273C72.3499 50.8874 72.3996 50.7637 72.4663 50.6562C72.533 50.5472 72.6177 50.4626 72.7202 50.4023C72.8244 50.3405 72.9481 50.3096 73.0913 50.3096C73.1239 50.3096 73.1613 50.3136 73.2036 50.3218C73.2459 50.3283 73.2752 50.3356 73.2915 50.3438ZM74.8418 50.3804V50.085C74.8418 49.9857 74.8581 49.8823 74.8906 49.7749C74.9248 49.6659 74.9736 49.5617 75.0371 49.4624C75.1006 49.3615 75.1771 49.2744 75.2666 49.2012L75.5229 49.3794C75.4481 49.4868 75.3903 49.5975 75.3496 49.7114C75.3089 49.8237 75.2886 49.9458 75.2886 50.0776V50.3804H74.8418ZM77.6714 51.457L75.9355 50.7808V50.3145L78.0205 51.2373V51.5229L77.6714 51.457ZM75.9355 52.0527L77.6763 51.3618L78.0205 51.3105V51.5938L75.9355 52.519V52.0527ZM79.0239 49.25V49.5625C79.0239 49.6602 79.0068 49.7635 78.9727 49.8726C78.9401 49.98 78.8921 50.0841 78.8286 50.1851C78.7651 50.2843 78.6886 50.3714 78.5991 50.4463L78.3403 50.2681C78.4168 50.1606 78.4746 50.0508 78.5137 49.9385C78.5544 49.8245 78.5747 49.7017 78.5747 49.5698V49.25H79.0239ZM80.6084 51.5547V51.5791C80.6084 51.9355 80.5685 52.2578 80.4888 52.5459C80.409 52.834 80.3073 53.0854 80.1836 53.3003C80.0599 53.5168 79.9297 53.6958 79.793 53.8374C79.6562 53.9806 79.5301 54.084 79.4146 54.1475L79.3193 53.874C79.4154 53.8008 79.5122 53.6982 79.6099 53.5664C79.7075 53.4362 79.7979 53.2751 79.8809 53.083C79.9639 52.8926 80.0306 52.6729 80.0811 52.4238C80.1315 52.1732 80.1567 51.8932 80.1567 51.584V51.5498C80.1567 51.2406 80.1299 50.9614 80.0762 50.7124C80.0225 50.4618 79.9525 50.2412 79.8662 50.0508C79.7816 49.8604 79.6904 49.7 79.5928 49.5698C79.4967 49.438 79.4056 49.3363 79.3193 49.2646L79.4146 48.9888C79.5301 49.0522 79.6562 49.1556 79.793 49.2988C79.9297 49.4404 80.0599 49.6195 80.1836 49.8359C80.3073 50.0524 80.409 50.3047 80.4888 50.5928C80.5685 50.8792 80.6084 51.1999 80.6084 51.5547Z" fill="black"/>
<rect x="116.25" y="21.25" width="14.5" height="14.5" stroke="#C0433A" stroke-width="0.5"/>
<rect x="116.25" y="21.25" width="14.5" height="14.5" stroke="#4298BD" stroke-width="0.5"/>
<rect x="116.25" y="21.25" width="14.5" height="14.5" stroke="#D9BE56" stroke-width="0.5"/>
<rect x="133.25" y="21.25" width="7.5" height="14.5" stroke="#C0433A" stroke-width="0.5"/>
<rect x="133.25" y="21.25" width="7.5" height="14.5" stroke="#4298BD" stroke-width="0.5"/>
<rect x="133.25" y="21.25" width="7.5" height="14.5" stroke="#565BD9" stroke-width="0.5"/>
<rect x="143.25" y="21.25" width="26.5" height="14.5" stroke="#C0433A" stroke-width="0.5"/>
<rect x="143.25" y="21.25" width="26.5" height="14.5" stroke="#4298BD" stroke-width="0.5"/>
<rect x="143.25" y="21.25" width="26.5" height="14.5" stroke="#56D98A" stroke-width="0.5"/>
<path d="M90 29L92.5 30.4434V27.5566L90 29ZM116 28.75L92.25 28.75V29.25L116 29.25V28.75Z" fill="#D9BE56"/>
<path d="M198 29L195.5 27.5566V30.4434L198 29ZM170 29.25H195.75V28.75H170V29.25Z" fill="#56D98A"/>
<path d="M90 43L92.5 44.4434V41.5566L90 43ZM137 42.75L92.25 42.75V43.25L137 43.25V42.75Z" fill="#565BD9"/>
<line x1="136.75" y1="43" x2="136.75" y2="36" stroke="#565BD9" stroke-width="0.5"/>
</svg>
