<svg width="288" height="58" viewBox="0 0 288 58" fill="none" xmlns="http://www.w3.org/2000/svg">
<rect width="288" height="58" fill="white"/>
<path d="M103.35 25.6602H104.634V31.8242C104.634 32.3945 104.513 32.8789 104.27 33.2773C104.028 33.6758 103.69 33.9785 103.257 34.1855C102.823 34.3965 102.321 34.502 101.751 34.502C101.509 34.502 101.239 34.4668 100.942 34.3965C100.649 34.3262 100.364 34.2129 100.087 34.0566C99.8134 33.9043 99.5848 33.7031 99.4012 33.4531L100.063 32.6211C100.29 32.8906 100.54 33.0879 100.813 33.2129C101.087 33.3379 101.374 33.4004 101.675 33.4004C101.999 33.4004 102.274 33.3398 102.501 33.2188C102.731 33.1016 102.909 32.9277 103.034 32.6973C103.159 32.4668 103.222 32.1855 103.222 31.8535V27.0957L103.35 25.6602ZM99.0438 28.9004V28.7773C99.0438 28.2969 99.1024 27.8594 99.2196 27.4648C99.3368 27.0664 99.5048 26.7246 99.7235 26.4395C99.9423 26.1504 100.208 25.9297 100.52 25.7773C100.833 25.6211 101.186 25.543 101.581 25.543C101.991 25.543 102.341 25.6172 102.63 25.7656C102.923 25.9141 103.167 26.127 103.362 26.4043C103.557 26.6777 103.71 27.0059 103.819 27.3887C103.932 27.7676 104.016 28.1895 104.071 28.6543V29.0469C104.02 29.5 103.934 29.9141 103.813 30.2891C103.692 30.6641 103.532 30.9883 103.333 31.2617C103.134 31.5352 102.888 31.7461 102.595 31.8945C102.306 32.043 101.964 32.1172 101.569 32.1172C101.182 32.1172 100.833 32.0371 100.52 31.877C100.212 31.7168 99.9462 31.4922 99.7235 31.2031C99.5048 30.9141 99.3368 30.5742 99.2196 30.1836C99.1024 29.7891 99.0438 29.3613 99.0438 28.9004ZM100.456 28.7773V28.9004C100.456 29.1895 100.483 29.459 100.538 29.709C100.597 29.959 100.684 30.1797 100.802 30.3711C100.923 30.5586 101.075 30.707 101.259 30.8164C101.446 30.9219 101.667 30.9746 101.921 30.9746C102.253 30.9746 102.524 30.9043 102.735 30.7637C102.95 30.623 103.114 30.4336 103.227 30.1953C103.345 29.9531 103.427 29.6836 103.474 29.3867V28.3262C103.45 28.0957 103.401 27.8809 103.327 27.6816C103.257 27.4824 103.161 27.3086 103.04 27.1602C102.919 27.0078 102.766 26.8906 102.583 26.8086C102.399 26.7227 102.182 26.6797 101.932 26.6797C101.679 26.6797 101.458 26.7344 101.27 26.8438C101.083 26.9531 100.929 27.1035 100.807 27.2949C100.69 27.4863 100.602 27.709 100.544 27.9629C100.485 28.2168 100.456 28.4883 100.456 28.7773ZM107.876 26.8672V32H106.464V25.6602H107.812L107.876 26.8672ZM109.816 25.6191L109.804 26.9316C109.718 26.916 109.625 26.9043 109.523 26.8965C109.425 26.8887 109.328 26.8848 109.23 26.8848C108.988 26.8848 108.775 26.9199 108.591 26.9902C108.408 27.0566 108.253 27.1543 108.128 27.2832C108.007 27.4082 107.914 27.5605 107.847 27.7402C107.781 27.9199 107.742 28.1211 107.73 28.3438L107.408 28.3672C107.408 27.9688 107.447 27.5996 107.525 27.2598C107.603 26.9199 107.72 26.6211 107.876 26.3633C108.037 26.1055 108.236 25.9043 108.474 25.7598C108.716 25.6152 108.996 25.543 109.312 25.543C109.398 25.543 109.49 25.5508 109.587 25.5664C109.689 25.582 109.765 25.5996 109.816 25.6191ZM110.639 28.9004V28.7656C110.639 28.3086 110.705 27.8848 110.838 27.4941C110.971 27.0996 111.162 26.7578 111.412 26.4688C111.666 26.1758 111.975 25.9492 112.338 25.7891C112.705 25.625 113.119 25.543 113.58 25.543C114.045 25.543 114.459 25.625 114.822 25.7891C115.19 25.9492 115.5 26.1758 115.754 26.4688C116.008 26.7578 116.201 27.0996 116.334 27.4941C116.467 27.8848 116.533 28.3086 116.533 28.7656V28.9004C116.533 29.3574 116.467 29.7812 116.334 30.1719C116.201 30.5625 116.008 30.9043 115.754 31.1973C115.5 31.4863 115.192 31.7129 114.828 31.877C114.465 32.0371 114.053 32.1172 113.592 32.1172C113.127 32.1172 112.711 32.0371 112.344 31.877C111.981 31.7129 111.672 31.4863 111.418 31.1973C111.164 30.9043 110.971 30.5625 110.838 30.1719C110.705 29.7812 110.639 29.3574 110.639 28.9004ZM112.051 28.7656V28.9004C112.051 29.1855 112.08 29.4551 112.139 29.709C112.197 29.9629 112.289 30.1855 112.414 30.377C112.539 30.5684 112.699 30.7188 112.895 30.8281C113.09 30.9375 113.322 30.9922 113.592 30.9922C113.854 30.9922 114.08 30.9375 114.272 30.8281C114.467 30.7188 114.627 30.5684 114.752 30.377C114.877 30.1855 114.969 29.9629 115.028 29.709C115.09 29.4551 115.121 29.1855 115.121 28.9004V28.7656C115.121 28.4844 115.09 28.2188 115.028 27.9688C114.969 27.7148 114.875 27.4902 114.746 27.2949C114.621 27.0996 114.461 26.9473 114.266 26.8379C114.074 26.7246 113.846 26.668 113.58 26.668C113.315 26.668 113.084 26.7246 112.889 26.8379C112.697 26.9473 112.539 27.0996 112.414 27.2949C112.289 27.4902 112.197 27.7148 112.139 27.9688C112.08 28.2188 112.051 28.4844 112.051 28.7656ZM120.667 30.9922C120.897 30.9922 121.104 30.9473 121.288 30.8574C121.475 30.7637 121.626 30.6348 121.739 30.4707C121.856 30.3066 121.921 30.1172 121.932 29.9023H123.262C123.255 30.3125 123.134 30.6855 122.899 31.0215C122.665 31.3574 122.354 31.625 121.968 31.8242C121.581 32.0195 121.153 32.1172 120.684 32.1172C120.2 32.1172 119.778 32.0352 119.419 31.8711C119.059 31.7031 118.761 31.4727 118.522 31.1797C118.284 30.8867 118.104 30.5488 117.983 30.166C117.866 29.7832 117.807 29.373 117.807 28.9355V28.7305C117.807 28.293 117.866 27.8828 117.983 27.5C118.104 27.1133 118.284 26.7734 118.522 26.4805C118.761 26.1875 119.059 25.959 119.419 25.7949C119.778 25.627 120.198 25.543 120.679 25.543C121.186 25.543 121.632 25.6445 122.014 25.8477C122.397 26.0469 122.698 26.3262 122.917 26.6855C123.139 27.041 123.255 27.4551 123.262 27.9277H121.932C121.921 27.6934 121.862 27.4824 121.757 27.2949C121.655 27.1035 121.511 26.9512 121.323 26.8379C121.139 26.7246 120.919 26.668 120.661 26.668C120.376 26.668 120.139 26.7266 119.952 26.8438C119.764 26.957 119.618 27.1133 119.512 27.3125C119.407 27.5078 119.331 27.7285 119.284 27.9746C119.241 28.2168 119.22 28.4688 119.22 28.7305V28.9355C119.22 29.1973 119.241 29.4512 119.284 29.6973C119.327 29.9434 119.401 30.1641 119.507 30.3594C119.616 30.5508 119.764 30.7051 119.952 30.8223C120.139 30.9355 120.378 30.9922 120.667 30.9922ZM127.501 32.1172C127.033 32.1172 126.609 32.041 126.23 31.8887C125.855 31.7324 125.535 31.5156 125.269 31.2383C125.007 30.9609 124.806 30.6348 124.665 30.2598C124.525 29.8848 124.455 29.4805 124.455 29.0469V28.8125C124.455 28.3164 124.527 27.8672 124.671 27.4648C124.816 27.0625 125.017 26.7188 125.275 26.4336C125.533 26.1445 125.837 25.9238 126.189 25.7715C126.54 25.6191 126.921 25.543 127.331 25.543C127.785 25.543 128.181 25.6191 128.521 25.7715C128.861 25.9238 129.142 26.1387 129.365 26.416C129.591 26.6895 129.759 27.0156 129.869 27.3945C129.982 27.7734 130.039 28.1914 130.039 28.6484V29.252H125.14V28.2383H128.644V28.127C128.636 27.873 128.585 27.6348 128.492 27.4121C128.402 27.1895 128.263 27.0098 128.076 26.873C127.888 26.7363 127.638 26.668 127.326 26.668C127.091 26.668 126.882 26.7188 126.699 26.8203C126.519 26.918 126.369 27.0605 126.247 27.248C126.126 27.4355 126.033 27.6621 125.966 27.9277C125.904 28.1895 125.872 28.4844 125.872 28.8125V29.0469C125.872 29.3242 125.91 29.582 125.984 29.8203C126.062 30.0547 126.175 30.2598 126.324 30.4355C126.472 30.6113 126.652 30.75 126.863 30.8516C127.074 30.9492 127.314 30.998 127.583 30.998C127.923 30.998 128.226 30.9297 128.492 30.793C128.757 30.6562 128.988 30.4629 129.183 30.2129L129.927 30.9336C129.79 31.1328 129.613 31.3242 129.394 31.5078C129.175 31.6875 128.908 31.834 128.591 31.9473C128.279 32.0605 127.915 32.1172 127.501 32.1172ZM132.918 26.8672V32H131.506V25.6602H132.854L132.918 26.8672ZM134.857 25.6191L134.846 26.9316C134.76 26.916 134.666 26.9043 134.565 26.8965C134.467 26.8887 134.369 26.8848 134.272 26.8848C134.029 26.8848 133.816 26.9199 133.633 26.9902C133.449 27.0566 133.295 27.1543 133.17 27.2832C133.049 27.4082 132.955 27.5605 132.889 27.7402C132.822 27.9199 132.783 28.1211 132.772 28.3438L132.449 28.3672C132.449 27.9688 132.488 27.5996 132.566 27.2598C132.645 26.9199 132.762 26.6211 132.918 26.3633C133.078 26.1055 133.277 25.9043 133.516 25.7598C133.758 25.6152 134.037 25.543 134.354 25.543C134.44 25.543 134.531 25.5508 134.629 25.5664C134.731 25.582 134.807 25.5996 134.857 25.6191ZM137.614 25.6602V32H136.196V25.6602H137.614ZM136.102 23.9961C136.102 23.7812 136.173 23.6035 136.313 23.4629C136.458 23.3184 136.657 23.2461 136.911 23.2461C137.161 23.2461 137.358 23.3184 137.503 23.4629C137.647 23.6035 137.719 23.7812 137.719 23.9961C137.719 24.207 137.647 24.3828 137.503 24.5234C137.358 24.6641 137.161 24.7344 136.911 24.7344C136.657 24.7344 136.458 24.6641 136.313 24.5234C136.173 24.3828 136.102 24.207 136.102 23.9961ZM142.316 32.1172C141.847 32.1172 141.423 32.041 141.044 31.8887C140.669 31.7324 140.349 31.5156 140.083 31.2383C139.822 30.9609 139.62 30.6348 139.48 30.2598C139.339 29.8848 139.269 29.4805 139.269 29.0469V28.8125C139.269 28.3164 139.341 27.8672 139.486 27.4648C139.63 27.0625 139.831 26.7188 140.089 26.4336C140.347 26.1445 140.652 25.9238 141.003 25.7715C141.355 25.6191 141.736 25.543 142.146 25.543C142.599 25.543 142.995 25.6191 143.335 25.7715C143.675 25.9238 143.956 26.1387 144.179 26.416C144.406 26.6895 144.574 27.0156 144.683 27.3945C144.796 27.7734 144.853 28.1914 144.853 28.6484V29.252H139.954V28.2383H143.458V28.127C143.451 27.873 143.4 27.6348 143.306 27.4121C143.216 27.1895 143.077 27.0098 142.89 26.873C142.702 26.7363 142.452 26.668 142.14 26.668C141.906 26.668 141.697 26.7188 141.513 26.8203C141.333 26.918 141.183 27.0605 141.062 27.248C140.941 27.4355 140.847 27.6621 140.781 27.9277C140.718 28.1895 140.687 28.4844 140.687 28.8125V29.0469C140.687 29.3242 140.724 29.582 140.798 29.8203C140.876 30.0547 140.99 30.2598 141.138 30.4355C141.286 30.6113 141.466 30.75 141.677 30.8516C141.888 30.9492 142.128 30.998 142.398 30.998C142.738 30.998 143.04 30.9297 143.306 30.793C143.572 30.6562 143.802 30.4629 143.997 30.2129L144.742 30.9336C144.605 31.1328 144.427 31.3242 144.208 31.5078C143.99 31.6875 143.722 31.834 143.406 31.9473C143.093 32.0605 142.73 32.1172 142.316 32.1172ZM149.871 30.2832C149.871 30.1426 149.836 30.0156 149.766 29.9023C149.695 29.7852 149.561 29.6797 149.361 29.5859C149.166 29.4922 148.877 29.4062 148.494 29.3281C148.158 29.2539 147.85 29.166 147.568 29.0645C147.291 28.959 147.053 28.832 146.854 28.6836C146.654 28.5352 146.5 28.3594 146.391 28.1562C146.281 27.9531 146.227 27.7188 146.227 27.4531C146.227 27.1953 146.283 26.9512 146.396 26.7207C146.51 26.4902 146.672 26.2871 146.883 26.1113C147.094 25.9355 147.35 25.7969 147.65 25.6953C147.955 25.5938 148.295 25.543 148.67 25.543C149.201 25.543 149.656 25.6328 150.035 25.8125C150.418 25.9883 150.711 26.2285 150.914 26.5332C151.117 26.834 151.219 27.1738 151.219 27.5527H149.807C149.807 27.3848 149.764 27.2285 149.678 27.084C149.596 26.9355 149.471 26.8164 149.303 26.7266C149.135 26.6328 148.924 26.5859 148.67 26.5859C148.428 26.5859 148.227 26.625 148.066 26.7031C147.91 26.7773 147.793 26.875 147.715 26.9961C147.641 27.1172 147.604 27.25 147.604 27.3945C147.604 27.5 147.623 27.5957 147.662 27.6816C147.705 27.7637 147.775 27.8398 147.873 27.9102C147.971 27.9766 148.104 28.0391 148.271 28.0977C148.443 28.1562 148.658 28.2129 148.916 28.2676C149.4 28.3691 149.816 28.5 150.164 28.6602C150.516 28.8164 150.785 29.0195 150.973 29.2695C151.16 29.5156 151.254 29.8281 151.254 30.207C151.254 30.4883 151.193 30.7461 151.072 30.9805C150.955 31.2109 150.783 31.4121 150.557 31.584C150.33 31.752 150.059 31.8828 149.742 31.9766C149.43 32.0703 149.078 32.1172 148.688 32.1172C148.113 32.1172 147.627 32.0156 147.229 31.8125C146.83 31.6055 146.527 31.3418 146.32 31.0215C146.117 30.6973 146.016 30.3613 146.016 30.0137H147.381C147.396 30.2754 147.469 30.4844 147.598 30.6406C147.73 30.793 147.895 30.9043 148.09 30.9746C148.289 31.041 148.494 31.0742 148.705 31.0742C148.959 31.0742 149.172 31.041 149.344 30.9746C149.516 30.9043 149.646 30.8105 149.736 30.6934C149.826 30.5723 149.871 30.4355 149.871 30.2832ZM159.972 23.4395V32H158.56V25.1152L156.468 25.8242V24.6582L159.802 23.4395H159.972ZM164.703 30.6406L164.697 31.6484C164.697 32.0469 164.598 32.457 164.398 32.8789C164.199 33.3008 163.935 33.6484 163.607 33.9219L162.851 33.4824C162.961 33.3066 163.06 33.1289 163.15 32.9492C163.24 32.7695 163.312 32.5781 163.367 32.375C163.422 32.1719 163.449 31.9473 163.449 31.7012V30.6406H164.703ZM171.347 27.0957H172.191C172.519 27.0957 172.79 27.0391 173.005 26.9258C173.224 26.8125 173.386 26.6562 173.491 26.457C173.597 26.2578 173.65 26.0293 173.65 25.7715C173.65 25.502 173.601 25.2715 173.503 25.0801C173.409 24.8848 173.265 24.7344 173.07 24.6289C172.878 24.5234 172.634 24.4707 172.337 24.4707C172.087 24.4707 171.861 24.5215 171.657 24.623C171.458 24.7207 171.3 24.8613 171.183 25.0449C171.066 25.2246 171.007 25.4395 171.007 25.6895H169.589C169.589 25.2363 169.708 24.834 169.946 24.4824C170.185 24.1309 170.509 23.8555 170.919 23.6562C171.333 23.4531 171.798 23.3516 172.314 23.3516C172.864 23.3516 173.345 23.4434 173.755 23.627C174.169 23.8066 174.491 24.0762 174.722 24.4355C174.952 24.7949 175.068 25.2402 175.068 25.7715C175.068 26.0137 175.011 26.2598 174.898 26.5098C174.784 26.7598 174.616 26.9883 174.394 27.1953C174.171 27.3984 173.894 27.5645 173.562 27.6934C173.23 27.8184 172.845 27.8809 172.407 27.8809H171.347V27.0957ZM171.347 28.1973V27.4238H172.407C172.907 27.4238 173.333 27.4824 173.685 27.5996C174.04 27.7168 174.329 27.8789 174.552 28.0859C174.775 28.2891 174.937 28.5215 175.038 28.7832C175.144 29.0449 175.196 29.3223 175.196 29.6152C175.196 30.0137 175.124 30.3691 174.98 30.6816C174.839 30.9902 174.638 31.252 174.376 31.4668C174.114 31.6816 173.808 31.8438 173.456 31.9531C173.109 32.0625 172.73 32.1172 172.32 32.1172C171.952 32.1172 171.601 32.0664 171.265 31.9648C170.929 31.8633 170.628 31.7129 170.363 31.5137C170.097 31.3105 169.886 31.0586 169.73 30.7578C169.577 30.4531 169.501 30.1016 169.501 29.7031H170.913C170.913 29.957 170.972 30.1816 171.089 30.377C171.21 30.5684 171.378 30.7188 171.593 30.8281C171.812 30.9375 172.062 30.9922 172.343 30.9922C172.64 30.9922 172.896 30.9395 173.111 30.834C173.325 30.7285 173.489 30.5723 173.603 30.3652C173.72 30.1582 173.779 29.9082 173.779 29.6152C173.779 29.2832 173.714 29.0137 173.585 28.8066C173.456 28.5996 173.273 28.4473 173.034 28.3496C172.796 28.248 172.515 28.1973 172.191 28.1973H171.347ZM178.275 30.6406L178.269 31.6484C178.269 32.0469 178.17 32.457 177.971 32.8789C177.771 33.3008 177.508 33.6484 177.18 33.9219L176.424 33.4824C176.533 33.3066 176.633 33.1289 176.723 32.9492C176.812 32.7695 176.885 32.5781 176.939 32.375C176.994 32.1719 177.021 31.9473 177.021 31.7012V30.6406H178.275ZM189.138 28.959V30.084H182.985L182.939 29.2344L186.618 23.4688H187.749L186.525 25.5664L184.409 28.959H189.138ZM188.071 23.4688V32H186.659V23.4688H188.071Z" fill="black"/>
<path d="M209.28 22.4453H210.457C210.724 22.4453 210.949 22.486 211.133 22.5674C211.319 22.6488 211.46 22.7692 211.556 22.9287C211.653 23.0866 211.702 23.2811 211.702 23.5122C211.702 23.675 211.669 23.8239 211.602 23.959C211.537 24.0924 211.443 24.2064 211.319 24.3008C211.197 24.3936 211.05 24.4627 210.879 24.5083L210.748 24.5596H209.642L209.637 24.1763H210.472C210.641 24.1763 210.782 24.147 210.894 24.0884C211.006 24.0282 211.091 23.9476 211.148 23.8467C211.205 23.7458 211.233 23.6343 211.233 23.5122C211.233 23.3755 211.207 23.2559 211.153 23.1533C211.099 23.0508 211.014 22.9718 210.899 22.9165C210.785 22.8595 210.638 22.8311 210.457 22.8311H209.751V26H209.28V22.4453ZM211.358 26L210.494 24.3887L210.984 24.3862L211.861 25.9707V26H211.358ZM213.389 26.0488C213.205 26.0488 213.038 26.0179 212.889 25.9561C212.741 25.8926 212.613 25.8039 212.505 25.6899C212.4 25.576 212.318 25.4409 212.261 25.2847C212.204 25.1284 212.176 24.9575 212.176 24.772V24.6694C212.176 24.4546 212.208 24.2633 212.271 24.0957C212.334 23.9264 212.421 23.7832 212.53 23.666C212.639 23.5488 212.763 23.4601 212.901 23.3999C213.039 23.3397 213.182 23.3096 213.331 23.3096C213.519 23.3096 213.682 23.3421 213.819 23.4072C213.957 23.4723 214.07 23.5635 214.158 23.6807C214.246 23.7962 214.311 23.9329 214.354 24.0908C214.396 24.2471 214.417 24.418 214.417 24.6035V24.8062H212.444V24.4375H213.965V24.4033C213.959 24.2861 213.934 24.1722 213.892 24.0615C213.851 23.9508 213.786 23.8597 213.697 23.7881C213.607 23.7165 213.485 23.6807 213.331 23.6807C213.228 23.6807 213.134 23.7026 213.047 23.7466C212.961 23.7889 212.887 23.8524 212.825 23.937C212.763 24.0216 212.715 24.125 212.681 24.2471C212.647 24.3691 212.63 24.5099 212.63 24.6694V24.772C212.63 24.8973 212.647 25.0153 212.681 25.126C212.717 25.235 212.768 25.3311 212.835 25.4141C212.903 25.4971 212.986 25.5622 213.082 25.6094C213.179 25.6566 213.29 25.6802 213.414 25.6802C213.573 25.6802 213.708 25.6476 213.819 25.5825C213.93 25.5174 214.026 25.4303 214.109 25.3213L214.383 25.5386C214.326 25.6248 214.253 25.707 214.166 25.7852C214.078 25.8633 213.969 25.9268 213.841 25.9756C213.714 26.0244 213.563 26.0488 213.389 26.0488ZM216.001 25.6777C216.109 25.6777 216.208 25.6558 216.299 25.6118C216.39 25.5679 216.465 25.5076 216.524 25.4312C216.583 25.353 216.616 25.2643 216.624 25.165H217.054C217.046 25.3213 216.993 25.467 216.895 25.6021C216.799 25.7355 216.673 25.8438 216.517 25.9268C216.36 26.0081 216.189 26.0488 216.001 26.0488C215.803 26.0488 215.63 26.0138 215.481 25.9438C215.335 25.8739 215.213 25.7778 215.115 25.6558C215.019 25.5337 214.947 25.3937 214.898 25.2358C214.851 25.0763 214.827 24.9079 214.827 24.7305V24.6279C214.827 24.4505 214.851 24.2829 214.898 24.125C214.947 23.9655 215.019 23.8247 215.115 23.7026C215.213 23.5806 215.335 23.4845 215.481 23.4146C215.63 23.3446 215.803 23.3096 216.001 23.3096C216.208 23.3096 216.389 23.3519 216.543 23.4365C216.698 23.5195 216.819 23.6335 216.907 23.7783C216.997 23.9215 217.046 24.0843 217.054 24.2666H216.624C216.616 24.1576 216.585 24.0591 216.531 23.9712C216.479 23.8833 216.408 23.8133 216.316 23.7612C216.227 23.7075 216.122 23.6807 216.001 23.6807C215.863 23.6807 215.747 23.7083 215.652 23.7637C215.56 23.8174 215.486 23.8906 215.43 23.9834C215.376 24.0745 215.337 24.1763 215.313 24.2886C215.29 24.3993 215.279 24.5124 215.279 24.6279V24.7305C215.279 24.846 215.29 24.96 215.313 25.0723C215.336 25.1846 215.374 25.2863 215.428 25.3774C215.483 25.4686 215.557 25.5418 215.65 25.5972C215.744 25.6509 215.861 25.6777 216.001 25.6777ZM218.052 23.3584V26H217.598V23.3584H218.052ZM217.564 22.6577C217.564 22.5845 217.586 22.5226 217.63 22.4722C217.675 22.4217 217.742 22.3965 217.83 22.3965C217.916 22.3965 217.982 22.4217 218.028 22.4722C218.075 22.5226 218.099 22.5845 218.099 22.6577C218.099 22.7277 218.075 22.7879 218.028 22.8384C217.982 22.8872 217.916 22.9116 217.83 22.9116C217.742 22.9116 217.675 22.8872 217.63 22.8384C217.586 22.7879 217.564 22.7277 217.564 22.6577ZM219.229 23.8662V27.0156H218.775V23.3584H219.19L219.229 23.8662ZM221.009 24.6572V24.7085C221.009 24.9006 220.986 25.0788 220.94 25.2432C220.895 25.4059 220.828 25.5475 220.74 25.668C220.654 25.7884 220.547 25.882 220.42 25.9487C220.293 26.0155 220.148 26.0488 219.983 26.0488C219.816 26.0488 219.668 26.0212 219.539 25.9658C219.41 25.9105 219.301 25.8299 219.212 25.7241C219.122 25.6183 219.051 25.4914 218.997 25.3433C218.945 25.1951 218.909 25.0283 218.89 24.8428V24.5693C218.909 24.374 218.946 24.1991 219 24.0444C219.053 23.8898 219.124 23.758 219.212 23.6489C219.301 23.5382 219.41 23.4544 219.537 23.3975C219.664 23.3389 219.81 23.3096 219.976 23.3096C220.142 23.3096 220.289 23.3421 220.418 23.4072C220.547 23.4707 220.655 23.5618 220.743 23.6807C220.831 23.7995 220.896 23.9419 220.94 24.1079C220.986 24.2723 221.009 24.4554 221.009 24.6572ZM220.555 24.7085V24.6572C220.555 24.5254 220.541 24.4017 220.513 24.2861C220.486 24.1689 220.442 24.0664 220.384 23.9785C220.327 23.889 220.254 23.819 220.164 23.7686C220.075 23.7165 219.968 23.6904 219.844 23.6904C219.73 23.6904 219.631 23.71 219.546 23.749C219.463 23.7881 219.393 23.841 219.334 23.9077C219.275 23.9728 219.227 24.0477 219.19 24.1323C219.154 24.2153 219.127 24.3016 219.109 24.3911V25.0234C219.142 25.1374 219.188 25.2448 219.246 25.3457C219.305 25.445 219.383 25.5256 219.48 25.5874C219.578 25.6476 219.701 25.6777 219.849 25.6777C219.971 25.6777 220.076 25.6525 220.164 25.6021C220.254 25.55 220.327 25.4792 220.384 25.3896C220.442 25.3001 220.486 25.1976 220.513 25.082C220.541 24.9648 220.555 24.8403 220.555 24.7085ZM222.681 26.0488C222.497 26.0488 222.33 26.0179 222.181 25.9561C222.033 25.8926 221.905 25.8039 221.797 25.6899C221.692 25.576 221.61 25.4409 221.553 25.2847C221.496 25.1284 221.468 24.9575 221.468 24.772V24.6694C221.468 24.4546 221.5 24.2633 221.563 24.0957C221.626 23.9264 221.713 23.7832 221.822 23.666C221.931 23.5488 222.055 23.4601 222.193 23.3999C222.331 23.3397 222.474 23.3096 222.623 23.3096C222.811 23.3096 222.974 23.3421 223.111 23.4072C223.249 23.4723 223.362 23.5635 223.45 23.6807C223.538 23.7962 223.603 23.9329 223.646 24.0908C223.688 24.2471 223.709 24.418 223.709 24.6035V24.8062H221.736V24.4375H223.257V24.4033C223.251 24.2861 223.226 24.1722 223.184 24.0615C223.143 23.9508 223.078 23.8597 222.989 23.7881C222.899 23.7165 222.777 23.6807 222.623 23.6807C222.52 23.6807 222.426 23.7026 222.339 23.7466C222.253 23.7889 222.179 23.8524 222.117 23.937C222.055 24.0216 222.007 24.125 221.973 24.2471C221.939 24.3691 221.922 24.5099 221.922 24.6694V24.772C221.922 24.8973 221.939 25.0153 221.973 25.126C222.009 25.235 222.06 25.3311 222.127 25.4141C222.195 25.4971 222.278 25.5622 222.374 25.6094C222.471 25.6566 222.582 25.6802 222.706 25.6802C222.865 25.6802 223 25.6476 223.111 25.5825C223.222 25.5174 223.318 25.4303 223.401 25.3213L223.675 25.5386C223.618 25.6248 223.545 25.707 223.458 25.7852C223.37 25.8633 223.261 25.9268 223.133 25.9756C223.006 26.0244 222.855 26.0488 222.681 26.0488ZM209.266 29.9224V32H208.814V29.3584H209.241L209.266 29.9224ZM209.158 30.5791L208.97 30.5718C208.972 30.3911 208.999 30.2243 209.051 30.0713C209.103 29.9167 209.176 29.7824 209.271 29.6685C209.365 29.5545 209.477 29.4666 209.607 29.4048C209.739 29.3413 209.885 29.3096 210.044 29.3096C210.175 29.3096 210.292 29.3275 210.396 29.3633C210.5 29.3975 210.589 29.4528 210.662 29.5293C210.737 29.6058 210.794 29.7051 210.833 29.8271C210.872 29.9476 210.892 30.0949 210.892 30.269V32H210.438V30.2642C210.438 30.1258 210.417 30.0151 210.376 29.9321C210.336 29.8475 210.276 29.7865 210.198 29.749C210.12 29.71 210.024 29.6904 209.91 29.6904C209.798 29.6904 209.695 29.714 209.603 29.7612C209.511 29.8084 209.432 29.8735 209.366 29.9565C209.301 30.0396 209.249 30.1348 209.212 30.2422C209.176 30.348 209.158 30.4603 209.158 30.5791ZM213.194 31.3896V29.3584H213.648V32H213.216L213.194 31.3896ZM213.279 30.833L213.467 30.8281C213.467 31.0039 213.449 31.1667 213.411 31.3164C213.375 31.4645 213.317 31.5931 213.235 31.7021C213.154 31.8112 213.047 31.8966 212.916 31.9585C212.784 32.0187 212.623 32.0488 212.435 32.0488C212.306 32.0488 212.188 32.0301 212.081 31.9927C211.975 31.9552 211.884 31.8975 211.807 31.8193C211.731 31.7412 211.671 31.6395 211.629 31.5142C211.588 31.3888 211.568 31.2383 211.568 31.0625V29.3584H212.02V31.0674C212.02 31.1862 212.033 31.2847 212.059 31.3628C212.086 31.4393 212.123 31.5003 212.168 31.5459C212.216 31.5898 212.268 31.6208 212.325 31.6387C212.383 31.6566 212.444 31.6655 212.505 31.6655C212.697 31.6655 212.85 31.6289 212.962 31.5557C213.074 31.4808 213.155 31.3807 213.204 31.2554C213.254 31.1284 213.279 30.9876 213.279 30.833ZM214.786 29.8833V32H214.332V29.3584H214.761L214.786 29.8833ZM214.693 30.5791L214.483 30.5718C214.485 30.3911 214.508 30.2243 214.554 30.0713C214.599 29.9167 214.667 29.7824 214.756 29.6685C214.846 29.5545 214.957 29.4666 215.091 29.4048C215.224 29.3413 215.379 29.3096 215.555 29.3096C215.678 29.3096 215.792 29.3275 215.896 29.3633C216.001 29.3975 216.091 29.452 216.167 29.5269C216.244 29.6017 216.303 29.6978 216.346 29.8149C216.388 29.9321 216.409 30.0737 216.409 30.2397V32H215.958V30.2617C215.958 30.1234 215.934 30.0127 215.887 29.9297C215.841 29.8467 215.776 29.7865 215.691 29.749C215.607 29.71 215.507 29.6904 215.394 29.6904C215.26 29.6904 215.149 29.714 215.059 29.7612C214.97 29.8084 214.898 29.8735 214.844 29.9565C214.791 30.0396 214.751 30.1348 214.727 30.2422C214.704 30.348 214.693 30.4603 214.693 30.5791ZM216.404 30.3301L216.102 30.4229C216.103 30.278 216.127 30.1388 216.172 30.0054C216.22 29.8719 216.287 29.7531 216.375 29.6489C216.465 29.5448 216.574 29.4626 216.705 29.4023C216.835 29.3405 216.984 29.3096 217.151 29.3096C217.293 29.3096 217.418 29.3283 217.527 29.3657C217.638 29.4032 217.731 29.4609 217.806 29.5391C217.882 29.6156 217.94 29.714 217.979 29.8345C218.018 29.9549 218.038 30.0981 218.038 30.2642V32H217.583V30.2593C217.583 30.1112 217.56 29.9964 217.513 29.915C217.467 29.832 217.402 29.7743 217.317 29.7417C217.234 29.7075 217.135 29.6904 217.02 29.6904C216.92 29.6904 216.832 29.7075 216.756 29.7417C216.679 29.7759 216.615 29.8231 216.563 29.8833C216.511 29.9419 216.471 30.0094 216.443 30.0859C216.417 30.1624 216.404 30.2438 216.404 30.3301ZM218.719 28.25H219.173V31.4873L219.134 32H218.719V28.25ZM220.958 30.6572V30.7085C220.958 30.9006 220.935 31.0788 220.889 31.2432C220.844 31.4059 220.777 31.5475 220.689 31.668C220.601 31.7884 220.494 31.882 220.367 31.9487C220.24 32.0155 220.094 32.0488 219.93 32.0488C219.762 32.0488 219.615 32.0203 219.488 31.9634C219.362 31.9048 219.257 31.821 219.17 31.7119C219.084 31.6029 219.015 31.471 218.963 31.3164C218.912 31.1618 218.877 30.9876 218.858 30.7939V30.5693C218.877 30.374 218.912 30.1991 218.963 30.0444C219.015 29.8898 219.084 29.758 219.17 29.6489C219.257 29.5382 219.362 29.4544 219.488 29.3975C219.613 29.3389 219.759 29.3096 219.925 29.3096C220.091 29.3096 220.238 29.3421 220.367 29.4072C220.495 29.4707 220.603 29.5618 220.689 29.6807C220.777 29.7995 220.844 29.9419 220.889 30.1079C220.935 30.2723 220.958 30.4554 220.958 30.6572ZM220.503 30.7085V30.6572C220.503 30.5254 220.491 30.4017 220.467 30.2861C220.442 30.1689 220.403 30.0664 220.35 29.9785C220.296 29.889 220.225 29.819 220.137 29.7686C220.049 29.7165 219.941 29.6904 219.812 29.6904C219.699 29.6904 219.599 29.71 219.515 29.749C219.432 29.7881 219.361 29.841 219.302 29.9077C219.244 29.9728 219.196 30.0477 219.158 30.1323C219.122 30.2153 219.096 30.3016 219.078 30.3911V30.9795C219.104 31.0934 219.146 31.2033 219.205 31.3091C219.265 31.4132 219.345 31.4987 219.444 31.5654C219.545 31.6322 219.669 31.6655 219.817 31.6655C219.939 31.6655 220.044 31.6411 220.13 31.5923C220.218 31.5418 220.289 31.4727 220.342 31.3848C220.398 31.2969 220.438 31.1951 220.464 31.0796C220.49 30.964 220.503 30.8403 220.503 30.7085ZM222.625 32.0488C222.441 32.0488 222.274 32.0179 222.125 31.9561C221.976 31.8926 221.849 31.8039 221.741 31.6899C221.635 31.576 221.554 31.4409 221.497 31.2847C221.44 31.1284 221.412 30.9575 221.412 30.772V30.6694C221.412 30.4546 221.443 30.2633 221.507 30.0957C221.57 29.9264 221.657 29.7832 221.766 29.666C221.875 29.5488 221.998 29.4601 222.137 29.3999C222.275 29.3397 222.418 29.3096 222.566 29.3096C222.755 29.3096 222.918 29.3421 223.055 29.4072C223.193 29.4723 223.306 29.5635 223.394 29.6807C223.482 29.7962 223.547 29.9329 223.589 30.0908C223.632 30.2471 223.653 30.418 223.653 30.6035V30.8062H221.68V30.4375H223.201V30.4033C223.195 30.2861 223.17 30.1722 223.128 30.0615C223.087 29.9508 223.022 29.8597 222.933 29.7881C222.843 29.7165 222.721 29.6807 222.566 29.6807C222.464 29.6807 222.369 29.7026 222.283 29.7466C222.197 29.7889 222.123 29.8524 222.061 29.937C221.999 30.0216 221.951 30.125 221.917 30.2471C221.883 30.3691 221.866 30.5099 221.866 30.6694V30.772C221.866 30.8973 221.883 31.0153 221.917 31.126C221.953 31.235 222.004 31.3311 222.071 31.4141C222.139 31.4971 222.221 31.5622 222.317 31.6094C222.415 31.6566 222.526 31.6802 222.649 31.6802C222.809 31.6802 222.944 31.6476 223.055 31.5825C223.165 31.5174 223.262 31.4303 223.345 31.3213L223.619 31.5386C223.562 31.6248 223.489 31.707 223.401 31.7852C223.313 31.8633 223.205 31.9268 223.077 31.9756C222.95 32.0244 222.799 32.0488 222.625 32.0488ZM224.632 29.7734V32H224.18V29.3584H224.62L224.632 29.7734ZM225.457 29.3438L225.455 29.7637C225.417 29.7555 225.381 29.7507 225.347 29.749C225.315 29.7458 225.277 29.7441 225.235 29.7441C225.131 29.7441 225.039 29.7604 224.959 29.793C224.879 29.8255 224.812 29.8711 224.756 29.9297C224.701 29.9883 224.657 30.0583 224.625 30.1396C224.594 30.2194 224.573 30.3073 224.563 30.4033L224.437 30.4766C224.437 30.3171 224.452 30.1673 224.483 30.0273C224.515 29.8874 224.565 29.7637 224.632 29.6562C224.699 29.5472 224.783 29.4626 224.886 29.4023C224.99 29.3405 225.114 29.3096 225.257 29.3096C225.289 29.3096 225.327 29.3136 225.369 29.3218C225.411 29.3283 225.441 29.3356 225.457 29.3438Z" fill="black"/>
<rect x="155.25" y="21.25" width="7.5" height="14.5" stroke="#C0433A" stroke-width="0.5"/>
<rect x="155.25" y="21.25" width="7.5" height="14.5" stroke="#4298BD" stroke-width="0.5"/>
<rect x="155.25" y="21.25" width="7.5" height="14.5" stroke="#817033" stroke-width="0.5"/>
<rect x="182.25" y="21.25" width="7.5" height="14.5" stroke="#C0433A" stroke-width="0.5"/>
<rect x="182.25" y="21.25" width="7.5" height="14.5" stroke="#4298BD" stroke-width="0.5"/>
<rect x="182.25" y="21.25" width="7.5" height="14.5" stroke="#817033" stroke-width="0.5"/>
<rect x="168.25" y="21.25" width="7.5" height="14.5" stroke="#C0433A" stroke-width="0.5"/>
<rect x="168.25" y="21.25" width="7.5" height="14.5" stroke="#4298BD" stroke-width="0.5"/>
<rect x="168.25" y="21.25" width="7.5" height="14.5" stroke="#817033" stroke-width="0.5"/>
<path d="M59.9668 29.8696H60.4355C60.4111 30.0942 60.3468 30.2952 60.2427 30.4727C60.1385 30.6501 59.9912 30.7909 59.8008 30.895C59.6104 30.9976 59.3727 31.0488 59.0879 31.0488C58.8796 31.0488 58.6899 31.0098 58.519 30.9316C58.3498 30.8535 58.2041 30.7428 58.082 30.5996C57.96 30.4548 57.8656 30.2814 57.7988 30.0796C57.7337 29.8761 57.7012 29.6499 57.7012 29.4009V29.0469C57.7012 28.7979 57.7337 28.5724 57.7988 28.3706C57.8656 28.1672 57.9608 27.993 58.0845 27.8481C58.2098 27.7033 58.3604 27.5918 58.5361 27.5137C58.7119 27.4355 58.9097 27.3965 59.1294 27.3965C59.3979 27.3965 59.625 27.4469 59.8105 27.5479C59.9961 27.6488 60.1401 27.7887 60.2427 27.9678C60.3468 28.1452 60.4111 28.3511 60.4355 28.5854H59.9668C59.944 28.4194 59.9017 28.277 59.8398 28.1582C59.778 28.0378 59.6901 27.945 59.5762 27.8799C59.4622 27.8148 59.3133 27.7822 59.1294 27.7822C58.9715 27.7822 58.8324 27.8123 58.7119 27.8726C58.5931 27.9328 58.493 28.0182 58.4116 28.1289C58.3319 28.2396 58.2716 28.3722 58.231 28.5269C58.1903 28.6815 58.1699 28.8532 58.1699 29.042V29.4009C58.1699 29.575 58.1878 29.7386 58.2236 29.8916C58.2611 30.0446 58.3172 30.1789 58.3921 30.2944C58.467 30.41 58.5622 30.5011 58.6777 30.5679C58.7933 30.633 58.93 30.6655 59.0879 30.6655C59.2881 30.6655 59.4476 30.6338 59.5664 30.5703C59.6852 30.5068 59.7747 30.4157 59.835 30.2969C59.8968 30.1781 59.9408 30.0356 59.9668 29.8696ZM60.8896 29.7085V29.6523C60.8896 29.4619 60.9173 29.2853 60.9727 29.1226C61.028 28.9582 61.1077 28.8158 61.2119 28.6953C61.3161 28.5732 61.4422 28.4788 61.5903 28.4121C61.7384 28.3438 61.9045 28.3096 62.0884 28.3096C62.2739 28.3096 62.4408 28.3438 62.5889 28.4121C62.7386 28.4788 62.8656 28.5732 62.9697 28.6953C63.0755 28.8158 63.1561 28.9582 63.2114 29.1226C63.2668 29.2853 63.2944 29.4619 63.2944 29.6523V29.7085C63.2944 29.8989 63.2668 30.0755 63.2114 30.2383C63.1561 30.401 63.0755 30.5435 62.9697 30.6655C62.8656 30.786 62.7394 30.8804 62.5913 30.9487C62.4448 31.0155 62.2788 31.0488 62.0933 31.0488C61.9077 31.0488 61.7409 31.0155 61.5928 30.9487C61.4447 30.8804 61.3177 30.786 61.2119 30.6655C61.1077 30.5435 61.028 30.401 60.9727 30.2383C60.9173 30.0755 60.8896 29.8989 60.8896 29.7085ZM61.3413 29.6523V29.7085C61.3413 29.8403 61.3568 29.9648 61.3877 30.082C61.4186 30.1976 61.465 30.3001 61.5269 30.3896C61.5903 30.4792 61.6693 30.55 61.7637 30.6021C61.8581 30.6525 61.9679 30.6777 62.0933 30.6777C62.217 30.6777 62.3252 30.6525 62.418 30.6021C62.5124 30.55 62.5905 30.4792 62.6523 30.3896C62.7142 30.3001 62.7606 30.1976 62.7915 30.082C62.8241 29.9648 62.8403 29.8403 62.8403 29.7085V29.6523C62.8403 29.5221 62.8241 29.3993 62.7915 29.2837C62.7606 29.1665 62.7134 29.0632 62.6499 28.9736C62.5881 28.8825 62.5099 28.8109 62.4155 28.7588C62.3228 28.7067 62.2137 28.6807 62.0884 28.6807C61.9647 28.6807 61.8556 28.7067 61.7612 28.7588C61.6685 28.8109 61.5903 28.8825 61.5269 28.9736C61.465 29.0632 61.4186 29.1665 61.3877 29.2837C61.3568 29.3993 61.3413 29.5221 61.3413 29.6523ZM64.3101 28.8833V31H63.856V28.3584H64.2856L64.3101 28.8833ZM64.2173 29.5791L64.0073 29.5718C64.009 29.3911 64.0326 29.2243 64.0781 29.0713C64.1237 28.9167 64.1912 28.7824 64.2808 28.6685C64.3703 28.5545 64.4818 28.4666 64.6152 28.4048C64.7487 28.3413 64.9033 28.3096 65.0791 28.3096C65.2028 28.3096 65.3167 28.3275 65.4209 28.3633C65.5251 28.3975 65.6154 28.452 65.6919 28.5269C65.7684 28.6017 65.8278 28.6978 65.8701 28.8149C65.9124 28.9321 65.9336 29.0737 65.9336 29.2397V31H65.4819V29.2617C65.4819 29.1234 65.4583 29.0127 65.4111 28.9297C65.3656 28.8467 65.3005 28.7865 65.2158 28.749C65.1312 28.71 65.0319 28.6904 64.918 28.6904C64.7845 28.6904 64.673 28.714 64.5835 28.7612C64.494 28.8084 64.4224 28.8735 64.3687 28.9565C64.3149 29.0396 64.2759 29.1348 64.2515 29.2422C64.2287 29.348 64.2173 29.4603 64.2173 29.5791ZM65.9287 29.3301L65.626 29.4229C65.6276 29.278 65.6512 29.1388 65.6968 29.0054C65.744 28.8719 65.8115 28.7531 65.8994 28.6489C65.9889 28.5448 66.0988 28.4626 66.229 28.4023C66.3592 28.3405 66.5081 28.3096 66.6758 28.3096C66.8174 28.3096 66.9427 28.3283 67.0518 28.3657C67.1624 28.4032 67.2552 28.4609 67.3301 28.5391C67.4066 28.6156 67.4644 28.714 67.5034 28.8345C67.5425 28.9549 67.562 29.0981 67.562 29.2642V31H67.1079V29.2593C67.1079 29.1112 67.0843 28.9964 67.0371 28.915C66.9915 28.832 66.9264 28.7743 66.8418 28.7417C66.7588 28.7075 66.6595 28.6904 66.5439 28.6904C66.4447 28.6904 66.3568 28.7075 66.2803 28.7417C66.2038 28.7759 66.1395 28.8231 66.0874 28.8833C66.0353 28.9419 65.9954 29.0094 65.9678 29.0859C65.9417 29.1624 65.9287 29.2438 65.9287 29.3301ZM68.6948 28.8833V31H68.2407V28.3584H68.6704L68.6948 28.8833ZM68.6021 29.5791L68.3921 29.5718C68.3937 29.3911 68.4173 29.2243 68.4629 29.0713C68.5085 28.9167 68.576 28.7824 68.6655 28.6685C68.755 28.5545 68.8665 28.4666 69 28.4048C69.1335 28.3413 69.2881 28.3096 69.4639 28.3096C69.5876 28.3096 69.7015 28.3275 69.8057 28.3633C69.9098 28.3975 70.0002 28.452 70.0767 28.5269C70.1532 28.6017 70.2126 28.6978 70.2549 28.8149C70.2972 28.9321 70.3184 29.0737 70.3184 29.2397V31H69.8667V29.2617C69.8667 29.1234 69.8431 29.0127 69.7959 28.9297C69.7503 28.8467 69.6852 28.7865 69.6006 28.749C69.516 28.71 69.4167 28.6904 69.3027 28.6904C69.1693 28.6904 69.0578 28.714 68.9683 28.7612C68.8787 28.8084 68.8071 28.8735 68.7534 28.9565C68.6997 29.0396 68.6606 29.1348 68.6362 29.2422C68.6134 29.348 68.6021 29.4603 68.6021 29.5791ZM70.3135 29.3301L70.0107 29.4229C70.0124 29.278 70.036 29.1388 70.0815 29.0054C70.1287 28.8719 70.1963 28.7531 70.2842 28.6489C70.3737 28.5448 70.4836 28.4626 70.6138 28.4023C70.744 28.3405 70.8929 28.3096 71.0605 28.3096C71.2021 28.3096 71.3275 28.3283 71.4365 28.3657C71.5472 28.4032 71.64 28.4609 71.7148 28.5391C71.7913 28.6156 71.8491 28.714 71.8882 28.8345C71.9272 28.9549 71.9468 29.0981 71.9468 29.2642V31H71.4927V29.2593C71.4927 29.1112 71.4691 28.9964 71.4219 28.915C71.3763 28.832 71.3112 28.7743 71.2266 28.7417C71.1436 28.7075 71.0443 28.6904 70.9287 28.6904C70.8294 28.6904 70.7415 28.7075 70.665 28.7417C70.5885 28.7759 70.5243 28.8231 70.4722 28.8833C70.4201 28.9419 70.3802 29.0094 70.3525 29.0859C70.3265 29.1624 70.3135 29.2438 70.3135 29.3301ZM74.188 30.5483V29.1885C74.188 29.0843 74.1668 28.994 74.1245 28.9175C74.0838 28.8394 74.022 28.7791 73.939 28.7368C73.856 28.6945 73.7534 28.6733 73.6313 28.6733C73.5174 28.6733 73.4173 28.6929 73.3311 28.7319C73.2464 28.771 73.1797 28.8223 73.1309 28.8857C73.0837 28.9492 73.0601 29.0176 73.0601 29.0908H72.6084C72.6084 28.9964 72.6328 28.9028 72.6816 28.8101C72.7305 28.7173 72.8005 28.6335 72.8916 28.5586C72.9844 28.4821 73.0951 28.4219 73.2236 28.3779C73.3538 28.3324 73.4987 28.3096 73.6582 28.3096C73.8503 28.3096 74.0195 28.3421 74.166 28.4072C74.3141 28.4723 74.4297 28.5708 74.5127 28.7026C74.5973 28.8328 74.6396 28.9964 74.6396 29.1934V30.4238C74.6396 30.5117 74.647 30.6053 74.6616 30.7046C74.6779 30.8039 74.7015 30.8893 74.7324 30.9609V31H74.2612C74.2384 30.9479 74.2205 30.8787 74.2075 30.7925C74.1945 30.7046 74.188 30.6232 74.188 30.5483ZM74.2661 29.3984L74.271 29.7158H73.8145C73.6859 29.7158 73.5711 29.7264 73.4702 29.7476C73.3693 29.7671 73.2847 29.7972 73.2163 29.8379C73.1479 29.8786 73.0959 29.9299 73.0601 29.9917C73.0243 30.0519 73.0063 30.1227 73.0063 30.2041C73.0063 30.2871 73.0251 30.3628 73.0625 30.4312C73.0999 30.4995 73.1561 30.554 73.231 30.5947C73.3075 30.6338 73.401 30.6533 73.5117 30.6533C73.6501 30.6533 73.7721 30.624 73.8779 30.5654C73.9837 30.5068 74.0675 30.4352 74.1294 30.3506C74.1929 30.266 74.2271 30.1838 74.2319 30.104L74.4248 30.3213C74.4134 30.3896 74.3825 30.4653 74.332 30.5483C74.2816 30.6313 74.214 30.7111 74.1294 30.7876C74.0464 30.8625 73.9471 30.9251 73.8315 30.9756C73.7176 31.0244 73.589 31.0488 73.4458 31.0488C73.2668 31.0488 73.1097 31.0138 72.9746 30.9438C72.8411 30.8739 72.737 30.7803 72.6621 30.6631C72.5889 30.5443 72.5522 30.4116 72.5522 30.2651C72.5522 30.1235 72.5799 29.999 72.6353 29.8916C72.6906 29.7826 72.7703 29.6922 72.8745 29.6206C72.9787 29.5474 73.104 29.492 73.2505 29.4546C73.397 29.4172 73.5605 29.3984 73.7412 29.3984H74.2661ZM75.8018 28.9224V31H75.3501V28.3584H75.7773L75.8018 28.9224ZM75.6943 29.5791L75.5063 29.5718C75.508 29.3911 75.5348 29.2243 75.5869 29.0713C75.639 28.9167 75.7122 28.7824 75.8066 28.6685C75.901 28.5545 76.0133 28.4666 76.1436 28.4048C76.2754 28.3413 76.4211 28.3096 76.5806 28.3096C76.7108 28.3096 76.828 28.3275 76.9321 28.3633C77.0363 28.3975 77.125 28.4528 77.1982 28.5293C77.2731 28.6058 77.3301 28.7051 77.3691 28.8271C77.4082 28.9476 77.4277 29.0949 77.4277 29.269V31H76.9736V29.2642C76.9736 29.1258 76.9533 29.0151 76.9126 28.9321C76.8719 28.8475 76.8125 28.7865 76.7344 28.749C76.6562 28.71 76.5602 28.6904 76.4463 28.6904C76.334 28.6904 76.2314 28.714 76.1387 28.7612C76.0475 28.8084 75.9686 28.8735 75.9019 28.9565C75.8368 29.0396 75.7855 29.1348 75.748 29.2422C75.7122 29.348 75.6943 29.4603 75.6943 29.5791ZM79.7788 30.4873V27.25H80.2329V31H79.8179L79.7788 30.4873ZM78.0015 29.7085V29.6572C78.0015 29.4554 78.0259 29.2723 78.0747 29.1079C78.1252 28.9419 78.196 28.7995 78.2871 28.6807C78.3799 28.5618 78.4897 28.4707 78.6167 28.4072C78.7453 28.3421 78.8885 28.3096 79.0464 28.3096C79.2124 28.3096 79.3573 28.3389 79.481 28.3975C79.6063 28.4544 79.7121 28.5382 79.7983 28.6489C79.8862 28.758 79.9554 28.8898 80.0059 29.0444C80.0563 29.1991 80.0913 29.374 80.1108 29.5693V29.7939C80.0929 29.9876 80.0579 30.1618 80.0059 30.3164C79.9554 30.471 79.8862 30.6029 79.7983 30.7119C79.7121 30.821 79.6063 30.9048 79.481 30.9634C79.3556 31.0203 79.2091 31.0488 79.0415 31.0488C78.8869 31.0488 78.7453 31.0155 78.6167 30.9487C78.4897 30.882 78.3799 30.7884 78.2871 30.668C78.196 30.5475 78.1252 30.4059 78.0747 30.2432C78.0259 30.0788 78.0015 29.9006 78.0015 29.7085ZM78.4556 29.6572V29.7085C78.4556 29.8403 78.4686 29.964 78.4946 30.0796C78.5223 30.1951 78.5646 30.2969 78.6216 30.3848C78.6785 30.4727 78.751 30.5418 78.8389 30.5923C78.9268 30.6411 79.0317 30.6655 79.1538 30.6655C79.3035 30.6655 79.4264 30.6338 79.5225 30.5703C79.6201 30.5068 79.6982 30.423 79.7568 30.3188C79.8154 30.2147 79.861 30.1016 79.8936 29.9795V29.3911C79.874 29.3016 79.8455 29.2153 79.8081 29.1323C79.7723 29.0477 79.7251 28.9728 79.6665 28.9077C79.6095 28.841 79.5387 28.7881 79.4541 28.749C79.3711 28.71 79.2726 28.6904 79.1587 28.6904C79.035 28.6904 78.9284 28.7165 78.8389 28.7686C78.751 28.819 78.6785 28.889 78.6216 28.9785C78.5646 29.0664 78.5223 29.1689 78.4946 29.2861C78.4686 29.4017 78.4556 29.5254 78.4556 29.6572Z" fill="black"/>
<rect x="97.25" y="21.25" width="55.5" height="14.5" stroke="#C0433A" stroke-width="0.5"/>
<rect x="97.25" y="21.25" width="55.5" height="14.5" stroke="#4298BD" stroke-width="0.5"/>
<rect x="97.25" y="21.25" width="55.5" height="14.5" stroke="#D9BE56" stroke-width="0.5"/>
<path d="M82 29L84.5 30.4434V27.5566L82 29ZM97 28.75H84.25V29.25H97V28.75Z" fill="#D9BE56"/>
<path d="M205 28L202.5 26.5566V29.4434L205 28ZM190 28.25L202.75 28.25V27.75L190 27.75V28.25Z" fill="#817033"/>
<line x1="157.75" y1="41" x2="157.75" y2="36" stroke="#817033" stroke-width="0.5"/>
<line x1="157.75" y1="41" x2="157.75" y2="36" stroke="#817033" stroke-width="0.5"/>
<line x1="193.75" y1="41" x2="193.75" y2="28" stroke="#817033" stroke-width="0.5"/>
<line x1="193.75" y1="41" x2="193.75" y2="28" stroke="#817033" stroke-width="0.5"/>
<line x1="157.75" y1="41" x2="157.75" y2="36" stroke="#817033" stroke-width="0.5"/>
<line x1="157.75" y1="41" x2="157.75" y2="36" stroke="#817033" stroke-width="0.5"/>
<line x1="171.75" y1="41" x2="171.75" y2="36" stroke="#817033" stroke-width="0.5"/>
<line x1="171.75" y1="41" x2="171.75" y2="36" stroke="#817033" stroke-width="0.5"/>
<line x1="193.75" y1="41" x2="193.75" y2="28" stroke="#817033" stroke-width="0.5"/>
<line x1="193.75" y1="41" x2="193.75" y2="28" stroke="#817033" stroke-width="0.5"/>
<path d="M158 40.75H193.714" stroke="#817033" stroke-width="0.5"/>
</svg>
