<svg width="288" height="58" viewBox="0 0 288 58" fill="none" xmlns="http://www.w3.org/2000/svg">
<rect width="288" height="58" fill="white"/>
<path d="M125.314 31.2832C125.314 31.1426 125.279 31.0156 125.209 30.9023C125.138 30.7852 125.004 30.6797 124.804 30.5859C124.609 30.4922 124.32 30.4062 123.937 30.3281C123.601 30.2539 123.293 30.166 123.011 30.0645C122.734 29.959 122.496 29.832 122.297 29.6836C122.097 29.5352 121.943 29.3594 121.834 29.1562C121.724 28.9531 121.67 28.7188 121.67 28.4531C121.67 28.1953 121.726 27.9512 121.84 27.7207C121.953 27.4902 122.115 27.2871 122.326 27.1113C122.537 26.9355 122.793 26.7969 123.094 26.6953C123.398 26.5938 123.738 26.543 124.113 26.543C124.644 26.543 125.099 26.6328 125.478 26.8125C125.861 26.9883 126.154 27.2285 126.357 27.5332C126.56 27.834 126.662 28.1738 126.662 28.5527H125.25C125.25 28.3848 125.207 28.2285 125.121 28.084C125.039 27.9355 124.914 27.8164 124.746 27.7266C124.578 27.6328 124.367 27.5859 124.113 27.5859C123.871 27.5859 123.67 27.625 123.51 27.7031C123.353 27.7773 123.236 27.875 123.158 27.9961C123.084 28.1172 123.047 28.25 123.047 28.3945C123.047 28.5 123.066 28.5957 123.105 28.6816C123.148 28.7637 123.219 28.8398 123.316 28.9102C123.414 28.9766 123.547 29.0391 123.715 29.0977C123.886 29.1562 124.101 29.2129 124.359 29.2676C124.844 29.3691 125.26 29.5 125.607 29.6602C125.959 29.8164 126.228 30.0195 126.416 30.2695C126.603 30.5156 126.697 30.8281 126.697 31.207C126.697 31.4883 126.636 31.7461 126.515 31.9805C126.398 32.2109 126.226 32.4121 126 32.584C125.773 32.752 125.502 32.8828 125.185 32.9766C124.873 33.0703 124.521 33.1172 124.131 33.1172C123.556 33.1172 123.07 33.0156 122.672 32.8125C122.273 32.6055 121.97 32.3418 121.763 32.0215C121.56 31.6973 121.459 31.3613 121.459 31.0137H122.824C122.84 31.2754 122.912 31.4844 123.041 31.6406C123.174 31.793 123.338 31.9043 123.533 31.9746C123.732 32.041 123.937 32.0742 124.148 32.0742C124.402 32.0742 124.615 32.041 124.787 31.9746C124.959 31.9043 125.09 31.8105 125.179 31.6934C125.269 31.5723 125.314 31.4355 125.314 31.2832ZM128.024 29.9004V29.7656C128.024 29.3086 128.09 28.8848 128.223 28.4941C128.356 28.0996 128.547 27.7578 128.797 27.4688C129.051 27.1758 129.36 26.9492 129.723 26.7891C130.09 26.625 130.504 26.543 130.965 26.543C131.43 26.543 131.844 26.625 132.207 26.7891C132.575 26.9492 132.885 27.1758 133.139 27.4688C133.393 27.7578 133.586 28.0996 133.719 28.4941C133.852 28.8848 133.918 29.3086 133.918 29.7656V29.9004C133.918 30.3574 133.852 30.7812 133.719 31.1719C133.586 31.5625 133.393 31.9043 133.139 32.1973C132.885 32.4863 132.577 32.7129 132.213 32.877C131.85 33.0371 131.438 33.1172 130.977 33.1172C130.512 33.1172 130.096 33.0371 129.729 32.877C129.366 32.7129 129.057 32.4863 128.803 32.1973C128.549 31.9043 128.356 31.5625 128.223 31.1719C128.09 30.7812 128.024 30.3574 128.024 29.9004ZM129.436 29.7656V29.9004C129.436 30.1855 129.465 30.4551 129.524 30.709C129.582 30.9629 129.674 31.1855 129.799 31.377C129.924 31.5684 130.084 31.7188 130.28 31.8281C130.475 31.9375 130.707 31.9922 130.977 31.9922C131.239 31.9922 131.465 31.9375 131.657 31.8281C131.852 31.7188 132.012 31.5684 132.137 31.377C132.262 31.1855 132.354 30.9629 132.412 30.709C132.475 30.4551 132.506 30.1855 132.506 29.9004V29.7656C132.506 29.4844 132.475 29.2188 132.412 28.9688C132.354 28.7148 132.26 28.4902 132.131 28.2949C132.006 28.0996 131.846 27.9473 131.651 27.8379C131.459 27.7246 131.231 27.668 130.965 27.668C130.7 27.668 130.469 27.7246 130.274 27.8379C130.082 27.9473 129.924 28.0996 129.799 28.2949C129.674 28.4902 129.582 28.7148 129.524 28.9688C129.465 29.2188 129.436 29.4844 129.436 29.7656ZM136.88 27.8672V33H135.468V26.6602H136.815L136.88 27.8672ZM138.819 26.6191L138.808 27.9316C138.722 27.916 138.628 27.9043 138.526 27.8965C138.429 27.8887 138.331 27.8848 138.233 27.8848C137.991 27.8848 137.778 27.9199 137.595 27.9902C137.411 28.0566 137.257 28.1543 137.132 28.2832C137.011 28.4082 136.917 28.5605 136.851 28.7402C136.784 28.9199 136.745 29.1211 136.733 29.3438L136.411 29.3672C136.411 28.9688 136.45 28.5996 136.528 28.2598C136.606 27.9199 136.724 27.6211 136.88 27.3633C137.04 27.1055 137.239 26.9043 137.478 26.7598C137.72 26.6152 137.999 26.543 138.315 26.543C138.401 26.543 138.493 26.5508 138.591 26.5664C138.692 26.582 138.769 26.5996 138.819 26.6191ZM143.263 26.6602V27.6914H139.689V26.6602H143.263ZM140.72 25.1074H142.132V31.248C142.132 31.4434 142.16 31.5938 142.215 31.6992C142.273 31.8008 142.353 31.8691 142.455 31.9043C142.556 31.9395 142.675 31.957 142.812 31.957C142.91 31.957 143.004 31.9512 143.093 31.9395C143.183 31.9277 143.256 31.916 143.31 31.9043L143.316 32.9824C143.199 33.0176 143.062 33.0488 142.906 33.0762C142.754 33.1035 142.578 33.1172 142.379 33.1172C142.054 33.1172 141.767 33.0605 141.517 32.9473C141.267 32.8301 141.072 32.6406 140.931 32.3789C140.791 32.1172 140.72 31.7695 140.72 31.3359V25.1074ZM151.636 31.7285V28.7051C151.636 28.4785 151.595 28.2832 151.513 28.1191C151.431 27.9551 151.306 27.8281 151.138 27.7383C150.974 27.6484 150.767 27.6035 150.517 27.6035C150.286 27.6035 150.087 27.6426 149.919 27.7207C149.751 27.7988 149.62 27.9043 149.526 28.0371C149.433 28.1699 149.386 28.3203 149.386 28.4883H147.979C147.979 28.2383 148.04 27.9961 148.161 27.7617C148.282 27.5273 148.458 27.3184 148.688 27.1348C148.919 26.9512 149.194 26.8066 149.515 26.7012C149.835 26.5957 150.194 26.543 150.593 26.543C151.069 26.543 151.491 26.623 151.858 26.7832C152.229 26.9434 152.52 27.1855 152.731 27.5098C152.946 27.8301 153.054 28.2324 153.054 28.7168V31.5352C153.054 31.8242 153.073 32.084 153.112 32.3145C153.155 32.541 153.216 32.7383 153.294 32.9062V33H151.847C151.78 32.8477 151.727 32.6543 151.688 32.4199C151.653 32.1816 151.636 31.9512 151.636 31.7285ZM151.841 29.1445L151.852 30.0176H150.839C150.577 30.0176 150.347 30.043 150.147 30.0938C149.948 30.1406 149.782 30.2109 149.649 30.3047C149.517 30.3984 149.417 30.5117 149.351 30.6445C149.284 30.7773 149.251 30.9277 149.251 31.0957C149.251 31.2637 149.29 31.418 149.368 31.5586C149.446 31.6953 149.56 31.8027 149.708 31.8809C149.86 31.959 150.044 31.998 150.259 31.998C150.548 31.998 150.8 31.9395 151.015 31.8223C151.233 31.7012 151.405 31.5547 151.53 31.3828C151.655 31.207 151.722 31.041 151.729 30.8848L152.186 31.5117C152.14 31.6719 152.06 31.8438 151.946 32.0273C151.833 32.2109 151.685 32.3867 151.501 32.5547C151.321 32.7188 151.104 32.8535 150.851 32.959C150.601 33.0645 150.311 33.1172 149.983 33.1172C149.569 33.1172 149.2 33.0352 148.876 32.8711C148.552 32.7031 148.298 32.4785 148.114 32.1973C147.931 31.9121 147.839 31.5898 147.839 31.2305C147.839 30.8945 147.901 30.5977 148.026 30.3398C148.155 30.0781 148.343 29.8594 148.589 29.6836C148.839 29.5078 149.144 29.375 149.503 29.2852C149.862 29.1914 150.272 29.1445 150.733 29.1445H151.841ZM158.447 31.2832C158.447 31.1426 158.412 31.0156 158.341 30.9023C158.271 30.7852 158.136 30.6797 157.937 30.5859C157.742 30.4922 157.453 30.4062 157.07 30.3281C156.734 30.2539 156.425 30.166 156.144 30.0645C155.867 29.959 155.629 29.832 155.429 29.6836C155.23 29.5352 155.076 29.3594 154.966 29.1562C154.857 28.9531 154.802 28.7188 154.802 28.4531C154.802 28.1953 154.859 27.9512 154.972 27.7207C155.086 27.4902 155.248 27.2871 155.459 27.1113C155.67 26.9355 155.925 26.7969 156.226 26.6953C156.531 26.5938 156.871 26.543 157.246 26.543C157.777 26.543 158.232 26.6328 158.611 26.8125C158.994 26.9883 159.287 27.2285 159.49 27.5332C159.693 27.834 159.795 28.1738 159.795 28.5527H158.382C158.382 28.3848 158.339 28.2285 158.254 28.084C158.171 27.9355 158.046 27.8164 157.879 27.7266C157.711 27.6328 157.5 27.5859 157.246 27.5859C157.004 27.5859 156.802 27.625 156.642 27.7031C156.486 27.7773 156.369 27.875 156.291 27.9961C156.216 28.1172 156.179 28.25 156.179 28.3945C156.179 28.5 156.199 28.5957 156.238 28.6816C156.281 28.7637 156.351 28.8398 156.449 28.9102C156.546 28.9766 156.679 29.0391 156.847 29.0977C157.019 29.1562 157.234 29.2129 157.492 29.2676C157.976 29.3691 158.392 29.5 158.74 29.6602C159.091 29.8164 159.361 30.0195 159.548 30.2695C159.736 30.5156 159.83 30.8281 159.83 31.207C159.83 31.4883 159.769 31.7461 159.648 31.9805C159.531 32.2109 159.359 32.4121 159.132 32.584C158.906 32.752 158.634 32.8828 158.318 32.9766C158.005 33.0703 157.654 33.1172 157.263 33.1172C156.689 33.1172 156.203 33.0156 155.804 32.8125C155.406 32.6055 155.103 32.3418 154.896 32.0215C154.693 31.6973 154.591 31.3613 154.591 31.0137H155.957C155.972 31.2754 156.045 31.4844 156.173 31.6406C156.306 31.793 156.47 31.9043 156.666 31.9746C156.865 32.041 157.07 32.0742 157.281 32.0742C157.535 32.0742 157.748 32.041 157.92 31.9746C158.091 31.9043 158.222 31.8105 158.312 31.6934C158.402 31.5723 158.447 31.4355 158.447 31.2832ZM164.016 31.9922C164.246 31.9922 164.453 31.9473 164.637 31.8574C164.824 31.7637 164.975 31.6348 165.088 31.4707C165.205 31.3066 165.27 31.1172 165.281 30.9023H166.612C166.604 31.3125 166.483 31.6855 166.248 32.0215C166.014 32.3574 165.703 32.625 165.317 32.8242C164.93 33.0195 164.502 33.1172 164.033 33.1172C163.549 33.1172 163.127 33.0352 162.768 32.8711C162.408 32.7031 162.11 32.4727 161.871 32.1797C161.633 31.8867 161.453 31.5488 161.332 31.166C161.215 30.7832 161.156 30.373 161.156 29.9355V29.7305C161.156 29.293 161.215 28.8828 161.332 28.5C161.453 28.1133 161.633 27.7734 161.871 27.4805C162.11 27.1875 162.408 26.959 162.768 26.7949C163.127 26.627 163.547 26.543 164.028 26.543C164.535 26.543 164.981 26.6445 165.364 26.8477C165.746 27.0469 166.047 27.3262 166.266 27.6855C166.489 28.041 166.604 28.4551 166.612 28.9277H165.281C165.27 28.6934 165.211 28.4824 165.106 28.2949C165.004 28.1035 164.86 27.9512 164.672 27.8379C164.489 27.7246 164.268 27.668 164.01 27.668C163.725 27.668 163.489 27.7266 163.301 27.8438C163.114 27.957 162.967 28.1133 162.862 28.3125C162.756 28.5078 162.68 28.7285 162.633 28.9746C162.59 29.2168 162.569 29.4688 162.569 29.7305V29.9355C162.569 30.1973 162.59 30.4512 162.633 30.6973C162.676 30.9434 162.75 31.1641 162.856 31.3594C162.965 31.5508 163.114 31.7051 163.301 31.8223C163.489 31.9355 163.727 31.9922 164.016 31.9922Z" fill="black"/>
<path d="M77.5772 28.8696H78.0459C78.0215 29.0942 77.9572 29.2952 77.8531 29.4727C77.7489 29.6501 77.6016 29.7909 77.4112 29.895C77.2207 29.9976 76.9831 30.0488 76.6983 30.0488C76.4899 30.0488 76.3003 30.0098 76.1294 29.9316C75.9602 29.8535 75.8145 29.7428 75.6924 29.5996C75.5704 29.4548 75.4759 29.2814 75.4092 29.0796C75.3441 28.8761 75.3116 28.6499 75.3116 28.4009V28.0469C75.3116 27.7979 75.3441 27.5724 75.4092 27.3706C75.4759 27.1672 75.5712 26.993 75.6949 26.8481C75.8202 26.7033 75.9707 26.5918 76.1465 26.5137C76.3223 26.4355 76.5201 26.3965 76.7398 26.3965C77.0083 26.3965 77.2354 26.4469 77.4209 26.5479C77.6065 26.6488 77.7505 26.7887 77.8531 26.9678C77.9572 27.1452 78.0215 27.3511 78.0459 27.5854H77.5772C77.5544 27.4194 77.5121 27.277 77.4502 27.1582C77.3884 27.0378 77.3005 26.945 77.1866 26.8799C77.0726 26.8148 76.9237 26.7822 76.7398 26.7822C76.5819 26.7822 76.4427 26.8123 76.3223 26.8726C76.2035 26.9328 76.1034 27.0182 76.022 27.1289C75.9423 27.2396 75.882 27.3722 75.8413 27.5269C75.8007 27.6815 75.7803 27.8532 75.7803 28.042V28.4009C75.7803 28.575 75.7982 28.7386 75.834 28.8916C75.8715 29.0446 75.9276 29.1789 76.0025 29.2944C76.0773 29.41 76.1726 29.5011 76.2881 29.5679C76.4037 29.633 76.5404 29.6655 76.6983 29.6655C76.8985 29.6655 77.058 29.6338 77.1768 29.5703C77.2956 29.5068 77.3851 29.4157 77.4454 29.2969C77.5072 29.1781 77.5511 29.0356 77.5772 28.8696ZM78.5 28.7085V28.6523C78.5 28.4619 78.5277 28.2853 78.583 28.1226C78.6384 27.9582 78.7181 27.8158 78.8223 27.6953C78.9265 27.5732 79.0526 27.4788 79.2007 27.4121C79.3488 27.3438 79.5148 27.3096 79.6988 27.3096C79.8843 27.3096 80.0511 27.3438 80.1993 27.4121C80.349 27.4788 80.4759 27.5732 80.5801 27.6953C80.6859 27.8158 80.7665 27.9582 80.8218 28.1226C80.8772 28.2853 80.9048 28.4619 80.9048 28.6523V28.7085C80.9048 28.8989 80.8772 29.0755 80.8218 29.2383C80.7665 29.401 80.6859 29.5435 80.5801 29.6655C80.4759 29.786 80.3498 29.8804 80.2017 29.9487C80.0552 30.0155 79.8892 30.0488 79.7037 30.0488C79.5181 30.0488 79.3513 30.0155 79.2032 29.9487C79.0551 29.8804 78.9281 29.786 78.8223 29.6655C78.7181 29.5435 78.6384 29.401 78.583 29.2383C78.5277 29.0755 78.5 28.8989 78.5 28.7085ZM78.9517 28.6523V28.7085C78.9517 28.8403 78.9672 28.9648 78.9981 29.082C79.029 29.1976 79.0754 29.3001 79.1372 29.3896C79.2007 29.4792 79.2797 29.55 79.3741 29.6021C79.4685 29.6525 79.5783 29.6777 79.7037 29.6777C79.8273 29.6777 79.9356 29.6525 80.0284 29.6021C80.1228 29.55 80.2009 29.4792 80.2627 29.3896C80.3246 29.3001 80.371 29.1976 80.4019 29.082C80.4344 28.9648 80.4507 28.8403 80.4507 28.7085V28.6523C80.4507 28.5221 80.4344 28.3993 80.4019 28.2837C80.371 28.1665 80.3238 28.0632 80.2603 27.9736C80.1984 27.8825 80.1203 27.8109 80.0259 27.7588C79.9331 27.7067 79.8241 27.6807 79.6988 27.6807C79.5751 27.6807 79.466 27.7067 79.3716 27.7588C79.2788 27.8109 79.2007 27.8825 79.1372 27.9736C79.0754 28.0632 79.029 28.1665 78.9981 28.2837C78.9672 28.3993 78.9517 28.5221 78.9517 28.6523ZM81.9204 27.8833V30H81.4663V27.3584H81.896L81.9204 27.8833ZM81.8277 28.5791L81.6177 28.5718C81.6193 28.3911 81.6429 28.2243 81.6885 28.0713C81.7341 27.9167 81.8016 27.7824 81.8912 27.6685C81.9807 27.5545 82.0922 27.4666 82.2256 27.4048C82.3591 27.3413 82.5137 27.3096 82.6895 27.3096C82.8132 27.3096 82.9271 27.3275 83.0313 27.3633C83.1355 27.3975 83.2258 27.452 83.3023 27.5269C83.3788 27.6017 83.4382 27.6978 83.4805 27.8149C83.5228 27.9321 83.544 28.0737 83.544 28.2397V30H83.0923V28.2617C83.0923 28.1234 83.0687 28.0127 83.0215 27.9297C82.9759 27.8467 82.9108 27.7865 82.8262 27.749C82.7416 27.71 82.6423 27.6904 82.5284 27.6904C82.3949 27.6904 82.2834 27.714 82.1939 27.7612C82.1044 27.8084 82.0328 27.8735 81.979 27.9565C81.9253 28.0396 81.8863 28.1348 81.8619 28.2422C81.8391 28.348 81.8277 28.4603 81.8277 28.5791ZM83.5391 28.3301L83.2364 28.4229C83.238 28.278 83.2616 28.1388 83.3072 28.0054C83.3544 27.8719 83.4219 27.7531 83.5098 27.6489C83.5993 27.5448 83.7092 27.4626 83.8394 27.4023C83.9696 27.3405 84.1185 27.3096 84.2862 27.3096C84.4278 27.3096 84.5531 27.3283 84.6621 27.3657C84.7728 27.4032 84.8656 27.4609 84.9405 27.5391C85.017 27.6156 85.0747 27.714 85.1138 27.8345C85.1529 27.9549 85.1724 28.0981 85.1724 28.2642V30H84.7183V28.2593C84.7183 28.1112 84.6947 27.9964 84.6475 27.915C84.6019 27.832 84.5368 27.7743 84.4522 27.7417C84.3692 27.7075 84.2699 27.6904 84.1543 27.6904C84.0551 27.6904 83.9672 27.7075 83.8907 27.7417C83.8142 27.7759 83.7499 27.8231 83.6978 27.8833C83.6457 27.9419 83.6058 28.0094 83.5782 28.0859C83.5521 28.1624 83.5391 28.2438 83.5391 28.3301ZM86.3052 27.8833V30H85.8511V27.3584H86.2808L86.3052 27.8833ZM86.2124 28.5791L86.0025 28.5718C86.0041 28.3911 86.0277 28.2243 86.0733 28.0713C86.1189 27.9167 86.1864 27.7824 86.2759 27.6685C86.3654 27.5545 86.4769 27.4666 86.6104 27.4048C86.7439 27.3413 86.8985 27.3096 87.0743 27.3096C87.198 27.3096 87.3119 27.3275 87.4161 27.3633C87.5202 27.3975 87.6106 27.452 87.687 27.5269C87.7635 27.6017 87.823 27.6978 87.8653 27.8149C87.9076 27.9321 87.9287 28.0737 87.9287 28.2397V30H87.4771V28.2617C87.4771 28.1234 87.4535 28.0127 87.4063 27.9297C87.3607 27.8467 87.2956 27.7865 87.211 27.749C87.1263 27.71 87.0271 27.6904 86.9131 27.6904C86.7797 27.6904 86.6682 27.714 86.5787 27.7612C86.4891 27.8084 86.4175 27.8735 86.3638 27.9565C86.3101 28.0396 86.271 28.1348 86.2466 28.2422C86.2238 28.348 86.2124 28.4603 86.2124 28.5791ZM87.9239 28.3301L87.6211 28.4229C87.6228 28.278 87.6464 28.1388 87.6919 28.0054C87.7391 27.8719 87.8067 27.7531 87.8946 27.6489C87.9841 27.5448 88.094 27.4626 88.2242 27.4023C88.3544 27.3405 88.5033 27.3096 88.6709 27.3096C88.8125 27.3096 88.9379 27.3283 89.0469 27.3657C89.1576 27.4032 89.2504 27.4609 89.3252 27.5391C89.4017 27.6156 89.4595 27.714 89.4986 27.8345C89.5376 27.9549 89.5572 28.0981 89.5572 28.2642V30H89.1031V28.2593C89.1031 28.1112 89.0795 27.9964 89.0323 27.915C88.9867 27.832 88.9216 27.7743 88.837 27.7417C88.7539 27.7075 88.6547 27.6904 88.5391 27.6904C88.4398 27.6904 88.3519 27.7075 88.2754 27.7417C88.1989 27.7759 88.1346 27.8231 88.0826 27.8833C88.0305 27.9419 87.9906 28.0094 87.9629 28.0859C87.9369 28.1624 87.9239 28.2438 87.9239 28.3301ZM91.7984 29.5483V28.1885C91.7984 28.0843 91.7772 27.994 91.7349 27.9175C91.6942 27.8394 91.6324 27.7791 91.5494 27.7368C91.4663 27.6945 91.3638 27.6733 91.2417 27.6733C91.1278 27.6733 91.0277 27.6929 90.9414 27.7319C90.8568 27.771 90.7901 27.8223 90.7412 27.8857C90.694 27.9492 90.6704 28.0176 90.6704 28.0908H90.2188C90.2188 27.9964 90.2432 27.9028 90.292 27.8101C90.3409 27.7173 90.4108 27.6335 90.502 27.5586C90.5948 27.4821 90.7054 27.4219 90.834 27.3779C90.9642 27.3324 91.1091 27.3096 91.2686 27.3096C91.4607 27.3096 91.6299 27.3421 91.7764 27.4072C91.9245 27.4723 92.0401 27.5708 92.1231 27.7026C92.2077 27.8328 92.25 27.9964 92.25 28.1934V29.4238C92.25 29.5117 92.2574 29.6053 92.272 29.7046C92.2883 29.8039 92.3119 29.8893 92.3428 29.9609V30H91.8716C91.8488 29.9479 91.8309 29.8787 91.8179 29.7925C91.8049 29.7046 91.7984 29.6232 91.7984 29.5483ZM91.8765 28.3984L91.8814 28.7158H91.4248C91.2963 28.7158 91.1815 28.7264 91.0806 28.7476C90.9797 28.7671 90.8951 28.7972 90.8267 28.8379C90.7583 28.8786 90.7063 28.9299 90.6704 28.9917C90.6346 29.0519 90.6167 29.1227 90.6167 29.2041C90.6167 29.2871 90.6355 29.3628 90.6729 29.4312C90.7103 29.4995 90.7665 29.554 90.8413 29.5947C90.9178 29.6338 91.0114 29.6533 91.1221 29.6533C91.2605 29.6533 91.3825 29.624 91.4883 29.5654C91.5941 29.5068 91.6779 29.4352 91.7398 29.3506C91.8033 29.266 91.8374 29.1838 91.8423 29.104L92.0352 29.3213C92.0238 29.3896 91.9929 29.4653 91.9424 29.5483C91.892 29.6313 91.8244 29.7111 91.7398 29.7876C91.6568 29.8625 91.5575 29.9251 91.4419 29.9756C91.328 30.0244 91.1994 30.0488 91.0562 30.0488C90.8772 30.0488 90.7201 30.0138 90.585 29.9438C90.4515 29.8739 90.3474 29.7803 90.2725 29.6631C90.1993 29.5443 90.1626 29.4116 90.1626 29.2651C90.1626 29.1235 90.1903 28.999 90.2456 28.8916C90.301 28.7826 90.3807 28.6922 90.4849 28.6206C90.5891 28.5474 90.7144 28.492 90.8609 28.4546C91.0074 28.4172 91.1709 28.3984 91.3516 28.3984H91.8765ZM93.4121 27.9224V30H92.9605V27.3584H93.3877L93.4121 27.9224ZM93.3047 28.5791L93.1167 28.5718C93.1184 28.3911 93.1452 28.2243 93.1973 28.0713C93.2494 27.9167 93.3226 27.7824 93.417 27.6685C93.5114 27.5545 93.6237 27.4666 93.7539 27.4048C93.8858 27.3413 94.0315 27.3096 94.191 27.3096C94.3212 27.3096 94.4384 27.3275 94.5425 27.3633C94.6467 27.3975 94.7354 27.4528 94.8086 27.5293C94.8835 27.6058 94.9405 27.7051 94.9795 27.8271C95.0186 27.9476 95.0381 28.0949 95.0381 28.269V30H94.584V28.2642C94.584 28.1258 94.5637 28.0151 94.523 27.9321C94.4823 27.8475 94.4229 27.7865 94.3448 27.749C94.2666 27.71 94.1706 27.6904 94.0567 27.6904C93.9444 27.6904 93.8418 27.714 93.7491 27.7612C93.6579 27.8084 93.579 27.8735 93.5122 27.9565C93.4471 28.0396 93.3959 28.1348 93.3584 28.2422C93.3226 28.348 93.3047 28.4603 93.3047 28.5791ZM97.3892 29.4873V26.25H97.8433V30H97.4283L97.3892 29.4873ZM95.6119 28.7085V28.6572C95.6119 28.4554 95.6363 28.2723 95.6851 28.1079C95.7356 27.9419 95.8064 27.7995 95.8975 27.6807C95.9903 27.5618 96.1001 27.4707 96.2271 27.4072C96.3557 27.3421 96.4989 27.3096 96.6568 27.3096C96.8228 27.3096 96.9676 27.3389 97.0913 27.3975C97.2167 27.4544 97.3225 27.5382 97.4087 27.6489C97.4966 27.758 97.5658 27.8898 97.6162 28.0444C97.6667 28.1991 97.7017 28.374 97.7212 28.5693V28.7939C97.7033 28.9876 97.6683 29.1618 97.6162 29.3164C97.5658 29.471 97.4966 29.6029 97.4087 29.7119C97.3225 29.821 97.2167 29.9048 97.0913 29.9634C96.966 30.0203 96.8195 30.0488 96.6519 30.0488C96.4973 30.0488 96.3557 30.0155 96.2271 29.9487C96.1001 29.882 95.9903 29.7884 95.8975 29.668C95.8064 29.5475 95.7356 29.4059 95.6851 29.2432C95.6363 29.0788 95.6119 28.9006 95.6119 28.7085ZM96.066 28.6572V28.7085C96.066 28.8403 96.079 28.964 96.105 29.0796C96.1327 29.1951 96.175 29.2969 96.232 29.3848C96.2889 29.4727 96.3614 29.5418 96.4493 29.5923C96.5371 29.6411 96.6421 29.6655 96.7642 29.6655C96.9139 29.6655 97.0368 29.6338 97.1329 29.5703C97.2305 29.5068 97.3086 29.423 97.3672 29.3188C97.4258 29.2147 97.4714 29.1016 97.5039 28.9795V28.3911C97.4844 28.3016 97.4559 28.2153 97.4185 28.1323C97.3827 28.0477 97.3355 27.9728 97.2769 27.9077C97.2199 27.841 97.1491 27.7881 97.0645 27.749C96.9815 27.71 96.883 27.6904 96.7691 27.6904C96.6454 27.6904 96.5388 27.7165 96.4493 27.7686C96.3614 27.819 96.2889 27.889 96.232 27.9785C96.175 28.0664 96.1327 28.1689 96.105 28.2861C96.079 28.4017 96.066 28.5254 96.066 28.6572Z" fill="black"/>
<rect x="120.25" y="21.25" width="24.5" height="14.5" stroke="#C0433A" stroke-width="0.5"/>
<rect x="120.25" y="21.25" width="24.5" height="14.5" stroke="#4298BD" stroke-width="0.5"/>
<rect x="120.25" y="21.25" width="24.5" height="14.5" stroke="#D9BE56" stroke-width="0.5"/>
<path d="M101 29L103.5 30.4434V27.5566L101 29ZM120.481 28.75L103.25 28.75V29.25L120.481 29.25V28.75Z" fill="#D9BE56"/>
<path d="M188.119 23.1104V23.335C188.119 23.6019 188.085 23.8411 188.019 24.0527C187.952 24.2643 187.856 24.4442 187.73 24.5923C187.605 24.7404 187.455 24.8535 187.279 24.9316C187.105 25.0098 186.909 25.0488 186.693 25.0488C186.483 25.0488 186.29 25.0098 186.114 24.9316C185.94 24.8535 185.789 24.7404 185.66 24.5923C185.533 24.4442 185.435 24.2643 185.365 24.0527C185.295 23.8411 185.26 23.6019 185.26 23.335V23.1104C185.26 22.8434 185.294 22.605 185.362 22.395C185.432 22.1834 185.531 22.0036 185.658 21.8555C185.785 21.7057 185.935 21.5918 186.109 21.5137C186.285 21.4355 186.478 21.3965 186.688 21.3965C186.904 21.3965 187.1 21.4355 187.274 21.5137C187.45 21.5918 187.6 21.7057 187.726 21.8555C187.853 22.0036 187.949 22.1834 188.016 22.395C188.084 22.605 188.119 22.8434 188.119 23.1104ZM187.652 23.335V23.1055C187.652 22.8939 187.63 22.7067 187.586 22.5439C187.544 22.3812 187.481 22.2445 187.398 22.1338C187.315 22.0231 187.214 21.9393 187.093 21.8823C186.974 21.8254 186.839 21.7969 186.688 21.7969C186.542 21.7969 186.409 21.8254 186.29 21.8823C186.173 21.9393 186.072 22.0231 185.987 22.1338C185.904 22.2445 185.84 22.3812 185.794 22.5439C185.749 22.7067 185.726 22.8939 185.726 23.1055V23.335C185.726 23.5482 185.749 23.737 185.794 23.9014C185.84 24.0641 185.905 24.2017 185.99 24.314C186.076 24.4246 186.178 24.5085 186.295 24.5654C186.414 24.6224 186.546 24.6509 186.693 24.6509C186.846 24.6509 186.982 24.6224 187.101 24.5654C187.219 24.5085 187.319 24.4246 187.401 24.314C187.484 24.2017 187.547 24.0641 187.589 23.9014C187.631 23.737 187.652 23.5482 187.652 23.335ZM189.208 22.7734V25H188.756V22.3584H189.195L189.208 22.7734ZM190.033 22.3438L190.03 22.7637C189.993 22.7555 189.957 22.7507 189.923 22.749C189.89 22.7458 189.853 22.7441 189.811 22.7441C189.706 22.7441 189.614 22.7604 189.535 22.793C189.455 22.8255 189.387 22.8711 189.332 22.9297C189.277 22.9883 189.233 23.0583 189.2 23.1396C189.169 23.2194 189.149 23.3073 189.139 23.4033L189.012 23.4766C189.012 23.3171 189.028 23.1673 189.059 23.0273C189.091 22.8874 189.141 22.7637 189.208 22.6562C189.274 22.5472 189.359 22.4626 189.461 22.4023C189.566 22.3405 189.689 22.3096 189.833 22.3096C189.865 22.3096 189.903 22.3136 189.945 22.3218C189.987 22.3283 190.016 22.3356 190.033 22.3438ZM192.066 24.4873V21.25H192.521V25H192.105L192.066 24.4873ZM190.289 23.7085V23.6572C190.289 23.4554 190.313 23.2723 190.362 23.1079C190.413 22.9419 190.484 22.7995 190.575 22.6807C190.667 22.5618 190.777 22.4707 190.904 22.4072C191.033 22.3421 191.176 22.3096 191.334 22.3096C191.5 22.3096 191.645 22.3389 191.769 22.3975C191.894 22.4544 192 22.5382 192.086 22.6489C192.174 22.758 192.243 22.8898 192.293 23.0444C192.344 23.1991 192.379 23.374 192.398 23.5693V23.7939C192.381 23.9876 192.346 24.1618 192.293 24.3164C192.243 24.471 192.174 24.6029 192.086 24.7119C192 24.821 191.894 24.9048 191.769 24.9634C191.643 25.0203 191.497 25.0488 191.329 25.0488C191.174 25.0488 191.033 25.0155 190.904 24.9487C190.777 24.882 190.667 24.7884 190.575 24.668C190.484 24.5475 190.413 24.4059 190.362 24.2432C190.313 24.0788 190.289 23.9006 190.289 23.7085ZM190.743 23.6572V23.7085C190.743 23.8403 190.756 23.964 190.782 24.0796C190.81 24.1951 190.852 24.2969 190.909 24.3848C190.966 24.4727 191.039 24.5418 191.126 24.5923C191.214 24.6411 191.319 24.6655 191.441 24.6655C191.591 24.6655 191.714 24.6338 191.81 24.5703C191.908 24.5068 191.986 24.423 192.044 24.3188C192.103 24.2147 192.149 24.1016 192.181 23.9795V23.3911C192.162 23.3016 192.133 23.2153 192.096 23.1323C192.06 23.0477 192.013 22.9728 191.954 22.9077C191.897 22.841 191.826 22.7881 191.742 22.749C191.659 22.71 191.56 22.6904 191.446 22.6904C191.323 22.6904 191.216 22.7165 191.126 22.7686C191.039 22.819 190.966 22.889 190.909 22.9785C190.852 23.0664 190.81 23.1689 190.782 23.2861C190.756 23.4017 190.743 23.5254 190.743 23.6572ZM194.32 25.0488C194.136 25.0488 193.969 25.0179 193.819 24.9561C193.671 24.8926 193.543 24.8039 193.436 24.6899C193.33 24.576 193.249 24.4409 193.192 24.2847C193.135 24.1284 193.106 23.9575 193.106 23.772V23.6694C193.106 23.4546 193.138 23.2633 193.202 23.0957C193.265 22.9264 193.351 22.7832 193.46 22.666C193.569 22.5488 193.693 22.4601 193.832 22.3999C193.97 22.3397 194.113 22.3096 194.261 22.3096C194.45 22.3096 194.613 22.3421 194.75 22.4072C194.888 22.4723 195.001 22.5635 195.089 22.6807C195.177 22.7962 195.242 22.9329 195.284 23.0908C195.326 23.2471 195.348 23.418 195.348 23.6035V23.8062H193.375V23.4375H194.896V23.4033C194.889 23.2861 194.865 23.1722 194.823 23.0615C194.782 22.9508 194.717 22.8597 194.627 22.7881C194.538 22.7165 194.416 22.6807 194.261 22.6807C194.159 22.6807 194.064 22.7026 193.978 22.7466C193.892 22.7889 193.818 22.8524 193.756 22.937C193.694 23.0216 193.646 23.125 193.612 23.2471C193.578 23.3691 193.561 23.5099 193.561 23.6694V23.772C193.561 23.8973 193.578 24.0153 193.612 24.126C193.648 24.235 193.699 24.3311 193.766 24.4141C193.834 24.4971 193.916 24.5622 194.012 24.6094C194.11 24.6566 194.221 24.6802 194.344 24.6802C194.504 24.6802 194.639 24.6476 194.75 24.5825C194.86 24.5174 194.957 24.4303 195.04 24.3213L195.313 24.5386C195.257 24.6248 195.184 24.707 195.096 24.7852C195.008 24.8633 194.9 24.9268 194.771 24.9756C194.645 25.0244 194.494 25.0488 194.32 25.0488ZM196.327 22.7734V25H195.875V22.3584H196.314L196.327 22.7734ZM197.152 22.3438L197.149 22.7637C197.112 22.7555 197.076 22.7507 197.042 22.749C197.009 22.7458 196.972 22.7441 196.93 22.7441C196.826 22.7441 196.734 22.7604 196.654 22.793C196.574 22.8255 196.507 22.8711 196.451 22.9297C196.396 22.9883 196.352 23.0583 196.319 23.1396C196.288 23.2194 196.268 23.3073 196.258 23.4033L196.131 23.4766C196.131 23.3171 196.147 23.1673 196.178 23.0273C196.21 22.8874 196.26 22.7637 196.327 22.6562C196.393 22.5472 196.478 22.4626 196.581 22.4023C196.685 22.3405 196.808 22.3096 196.952 22.3096C196.984 22.3096 197.022 22.3136 197.064 22.3218C197.106 22.3283 197.136 22.3356 197.152 22.3438ZM199.916 22.3584V22.7051H198.487V22.3584H199.916ZM198.971 21.7163H199.422V24.3457C199.422 24.4352 199.436 24.5028 199.464 24.5483C199.492 24.5939 199.527 24.624 199.571 24.6387C199.615 24.6533 199.662 24.6606 199.713 24.6606C199.75 24.6606 199.789 24.6574 199.83 24.6509C199.872 24.6427 199.904 24.6362 199.925 24.6313L199.928 25C199.892 25.0114 199.845 25.022 199.786 25.0317C199.729 25.0431 199.66 25.0488 199.579 25.0488C199.468 25.0488 199.366 25.0269 199.273 24.9829C199.181 24.939 199.107 24.8657 199.051 24.7632C198.998 24.659 198.971 24.519 198.971 24.3433V21.7163ZM200.277 23.7085V23.6523C200.277 23.4619 200.305 23.2853 200.36 23.1226C200.415 22.9582 200.495 22.8158 200.599 22.6953C200.703 22.5732 200.829 22.4788 200.978 22.4121C201.126 22.3438 201.292 22.3096 201.476 22.3096C201.661 22.3096 201.828 22.3438 201.976 22.4121C202.126 22.4788 202.253 22.5732 202.357 22.6953C202.463 22.8158 202.543 22.9582 202.599 23.1226C202.654 23.2853 202.682 23.4619 202.682 23.6523V23.7085C202.682 23.8989 202.654 24.0755 202.599 24.2383C202.543 24.401 202.463 24.5435 202.357 24.6655C202.253 24.786 202.127 24.8804 201.979 24.9487C201.832 25.0155 201.666 25.0488 201.48 25.0488C201.295 25.0488 201.128 25.0155 200.98 24.9487C200.832 24.8804 200.705 24.786 200.599 24.6655C200.495 24.5435 200.415 24.401 200.36 24.2383C200.305 24.0755 200.277 23.8989 200.277 23.7085ZM200.729 23.6523V23.7085C200.729 23.8403 200.744 23.9648 200.775 24.082C200.806 24.1976 200.852 24.3001 200.914 24.3896C200.978 24.4792 201.056 24.55 201.151 24.6021C201.245 24.6525 201.355 24.6777 201.48 24.6777C201.604 24.6777 201.712 24.6525 201.805 24.6021C201.9 24.55 201.978 24.4792 202.04 24.3896C202.101 24.3001 202.148 24.1976 202.179 24.082C202.211 23.9648 202.228 23.8403 202.228 23.7085V23.6523C202.228 23.5221 202.211 23.3993 202.179 23.2837C202.148 23.1665 202.101 23.0632 202.037 22.9736C201.975 22.8825 201.897 22.8109 201.803 22.7588C201.71 22.7067 201.601 22.6807 201.476 22.6807C201.352 22.6807 201.243 22.7067 201.148 22.7588C201.056 22.8109 200.978 22.8825 200.914 22.9736C200.852 23.0632 200.806 23.1665 200.775 23.2837C200.744 23.3993 200.729 23.5221 200.729 23.6523ZM206.026 24.2993C206.026 24.2342 206.012 24.174 205.982 24.1187C205.955 24.0617 205.897 24.0104 205.809 23.9648C205.723 23.9176 205.593 23.877 205.418 23.8428C205.272 23.8118 205.139 23.7752 205.021 23.7329C204.903 23.6906 204.803 23.6393 204.72 23.5791C204.639 23.5189 204.576 23.4481 204.532 23.3667C204.488 23.2853 204.466 23.1901 204.466 23.0811C204.466 22.9769 204.489 22.8784 204.535 22.7856C204.582 22.6929 204.648 22.6107 204.732 22.5391C204.819 22.4674 204.922 22.4113 205.042 22.3706C205.163 22.3299 205.297 22.3096 205.445 22.3096C205.657 22.3096 205.838 22.347 205.987 22.4219C206.137 22.4967 206.252 22.5968 206.332 22.7222C206.411 22.8459 206.451 22.9834 206.451 23.1348H206C206 23.0615 205.978 22.9907 205.934 22.9224C205.891 22.8524 205.829 22.7946 205.746 22.749C205.664 22.7035 205.564 22.6807 205.445 22.6807C205.32 22.6807 205.218 22.7002 205.14 22.7393C205.064 22.7767 205.007 22.8247 204.972 22.8833C204.938 22.9419 204.92 23.0037 204.92 23.0688C204.92 23.1177 204.929 23.1616 204.945 23.2007C204.963 23.2381 204.994 23.2731 205.038 23.3057C205.082 23.3366 205.143 23.3659 205.223 23.3936C205.303 23.4212 205.405 23.4489 205.528 23.4766C205.745 23.5254 205.923 23.584 206.063 23.6523C206.203 23.7207 206.307 23.8045 206.375 23.9038C206.444 24.0031 206.478 24.1235 206.478 24.2651C206.478 24.3807 206.454 24.4865 206.405 24.5825C206.358 24.6785 206.288 24.7616 206.197 24.8315C206.108 24.8999 206 24.9536 205.875 24.9927C205.751 25.0301 205.612 25.0488 205.458 25.0488C205.225 25.0488 205.028 25.0073 204.867 24.9243C204.706 24.8413 204.583 24.7339 204.5 24.6021C204.417 24.4702 204.376 24.3311 204.376 24.1846H204.83C204.837 24.3083 204.872 24.4067 204.938 24.48C205.003 24.5516 205.082 24.6029 205.177 24.6338C205.271 24.6631 205.365 24.6777 205.458 24.6777C205.581 24.6777 205.685 24.6615 205.768 24.6289C205.852 24.5964 205.917 24.5516 205.96 24.4946C206.004 24.4377 206.026 24.3726 206.026 24.2993ZM206.952 23.7085V23.6523C206.952 23.4619 206.979 23.2853 207.035 23.1226C207.09 22.9582 207.17 22.8158 207.274 22.6953C207.378 22.5732 207.504 22.4788 207.652 22.4121C207.8 22.3438 207.966 22.3096 208.15 22.3096C208.336 22.3096 208.503 22.3438 208.651 22.4121C208.801 22.4788 208.928 22.5732 209.032 22.6953C209.138 22.8158 209.218 22.9582 209.273 23.1226C209.329 23.2853 209.356 23.4619 209.356 23.6523V23.7085C209.356 23.8989 209.329 24.0755 209.273 24.2383C209.218 24.401 209.138 24.5435 209.032 24.6655C208.928 24.786 208.801 24.8804 208.653 24.9487C208.507 25.0155 208.341 25.0488 208.155 25.0488C207.97 25.0488 207.803 25.0155 207.655 24.9487C207.507 24.8804 207.38 24.786 207.274 24.6655C207.17 24.5435 207.09 24.401 207.035 24.2383C206.979 24.0755 206.952 23.8989 206.952 23.7085ZM207.403 23.6523V23.7085C207.403 23.8403 207.419 23.9648 207.45 24.082C207.481 24.1976 207.527 24.3001 207.589 24.3896C207.652 24.4792 207.731 24.55 207.826 24.6021C207.92 24.6525 208.03 24.6777 208.155 24.6777C208.279 24.6777 208.387 24.6525 208.48 24.6021C208.574 24.55 208.653 24.4792 208.714 24.3896C208.776 24.3001 208.823 24.1976 208.854 24.082C208.886 23.9648 208.902 23.8403 208.902 23.7085V23.6523C208.902 23.5221 208.886 23.3993 208.854 23.2837C208.823 23.1665 208.775 23.0632 208.712 22.9736C208.65 22.8825 208.572 22.8109 208.478 22.7588C208.385 22.7067 208.276 22.6807 208.15 22.6807C208.027 22.6807 207.918 22.7067 207.823 22.7588C207.73 22.8109 207.652 22.8825 207.589 22.9736C207.527 23.0632 207.481 23.1665 207.45 23.2837C207.419 23.3993 207.403 23.5221 207.403 23.6523ZM210.375 22.7734V25H209.923V22.3584H210.362L210.375 22.7734ZM211.2 22.3438L211.197 22.7637C211.16 22.7555 211.124 22.7507 211.09 22.749C211.057 22.7458 211.02 22.7441 210.978 22.7441C210.873 22.7441 210.781 22.7604 210.702 22.793C210.622 22.8255 210.554 22.8711 210.499 22.9297C210.444 22.9883 210.4 23.0583 210.367 23.1396C210.336 23.2194 210.316 23.3073 210.306 23.4033L210.179 23.4766C210.179 23.3171 210.195 23.1673 210.226 23.0273C210.258 22.8874 210.308 22.7637 210.375 22.6562C210.441 22.5472 210.526 22.4626 210.628 22.4023C210.733 22.3405 210.856 22.3096 211 22.3096C211.032 22.3096 211.069 22.3136 211.112 22.3218C211.154 22.3283 211.183 22.3356 211.2 22.3438ZM212.845 22.3584V22.7051H211.417V22.3584H212.845ZM211.9 21.7163H212.352V24.3457C212.352 24.4352 212.366 24.5028 212.394 24.5483C212.421 24.5939 212.457 24.624 212.501 24.6387C212.545 24.6533 212.592 24.6606 212.643 24.6606C212.68 24.6606 212.719 24.6574 212.76 24.6509C212.802 24.6427 212.834 24.6362 212.855 24.6313L212.857 25C212.822 25.0114 212.774 25.022 212.716 25.0317C212.659 25.0431 212.59 25.0488 212.508 25.0488C212.398 25.0488 212.296 25.0269 212.203 24.9829C212.11 24.939 212.036 24.8657 211.981 24.7632C211.927 24.659 211.9 24.519 211.9 24.3433V21.7163ZM185.851 29.5791V29.5547C185.851 29.1999 185.89 28.8792 185.97 28.5928C186.05 28.3047 186.152 28.0524 186.275 27.8359C186.399 27.6195 186.529 27.4404 186.666 27.2988C186.803 27.1556 186.929 27.0522 187.044 26.9888L187.14 27.2866C187.044 27.3599 186.946 27.4608 186.847 27.5894C186.749 27.7179 186.659 27.8758 186.576 28.063C186.494 28.2502 186.428 28.4674 186.378 28.7148C186.327 28.9622 186.302 29.2406 186.302 29.5498V29.584C186.302 29.8932 186.327 30.1724 186.378 30.4214C186.428 30.6688 186.494 30.8869 186.576 31.0757C186.659 31.2645 186.749 31.4248 186.847 31.5566C186.946 31.6901 187.044 31.7959 187.14 31.874L187.044 32.1475C186.929 32.084 186.803 31.9806 186.666 31.8374C186.529 31.6958 186.399 31.5168 186.275 31.3003C186.152 31.0854 186.05 30.834 185.97 30.5459C185.89 30.2578 185.851 29.9355 185.851 29.5791ZM188.639 30.6777C188.746 30.6777 188.845 30.6558 188.937 30.6118C189.028 30.5679 189.103 30.5076 189.161 30.4312C189.22 30.353 189.253 30.2643 189.261 30.165H189.691C189.683 30.3213 189.63 30.467 189.532 30.6021C189.436 30.7355 189.31 30.8438 189.154 30.9268C188.998 31.0081 188.826 31.0488 188.639 31.0488C188.44 31.0488 188.267 31.0138 188.119 30.9438C187.972 30.8739 187.85 30.7778 187.752 30.6558C187.656 30.5337 187.584 30.3937 187.535 30.2358C187.488 30.0763 187.464 29.9079 187.464 29.7305V29.6279C187.464 29.4505 187.488 29.2829 187.535 29.125C187.584 28.9655 187.656 28.8247 187.752 28.7026C187.85 28.5806 187.972 28.4845 188.119 28.4146C188.267 28.3446 188.44 28.3096 188.639 28.3096C188.845 28.3096 189.026 28.3519 189.181 28.4365C189.335 28.5195 189.457 28.6335 189.544 28.7783C189.634 28.9215 189.683 29.0843 189.691 29.2666H189.261C189.253 29.1576 189.222 29.0591 189.168 28.9712C189.116 28.8833 189.045 28.8133 188.954 28.7612C188.864 28.7075 188.759 28.6807 188.639 28.6807C188.5 28.6807 188.384 28.7083 188.29 28.7637C188.197 28.8174 188.123 28.8906 188.067 28.9834C188.014 29.0745 187.975 29.1763 187.95 29.2886C187.927 29.3993 187.916 29.5124 187.916 29.6279V29.7305C187.916 29.846 187.927 29.96 187.95 30.0723C187.973 30.1846 188.011 30.2863 188.065 30.3774C188.12 30.4686 188.194 30.5418 188.287 30.5972C188.382 30.6509 188.499 30.6777 188.639 30.6777ZM191.756 30.5483V29.1885C191.756 29.0843 191.735 28.994 191.693 28.9175C191.652 28.8394 191.59 28.7791 191.507 28.7368C191.424 28.6945 191.322 28.6733 191.2 28.6733C191.086 28.6733 190.986 28.6929 190.899 28.7319C190.815 28.771 190.748 28.8223 190.699 28.8857C190.652 28.9492 190.628 29.0176 190.628 29.0908H190.177C190.177 28.9964 190.201 28.9028 190.25 28.8101C190.299 28.7173 190.369 28.6335 190.46 28.5586C190.553 28.4821 190.663 28.4219 190.792 28.3779C190.922 28.3324 191.067 28.3096 191.227 28.3096C191.419 28.3096 191.588 28.3421 191.734 28.4072C191.882 28.4723 191.998 28.5708 192.081 28.7026C192.166 28.8328 192.208 28.9964 192.208 29.1934V30.4238C192.208 30.5117 192.215 30.6053 192.23 30.7046C192.246 30.8039 192.27 30.8893 192.301 30.9609V31H191.83C191.807 30.9479 191.789 30.8787 191.776 30.7925C191.763 30.7046 191.756 30.6232 191.756 30.5483ZM191.834 29.3984L191.839 29.7158H191.383C191.254 29.7158 191.139 29.7264 191.039 29.7476C190.938 29.7671 190.853 29.7972 190.785 29.8379C190.716 29.8786 190.664 29.9299 190.628 29.9917C190.593 30.0519 190.575 30.1227 190.575 30.2041C190.575 30.2871 190.593 30.3628 190.631 30.4312C190.668 30.4995 190.724 30.554 190.799 30.5947C190.876 30.6338 190.969 30.6533 191.08 30.6533C191.218 30.6533 191.34 30.624 191.446 30.5654C191.552 30.5068 191.636 30.4352 191.698 30.3506C191.761 30.266 191.795 30.1838 191.8 30.104L191.993 30.3213C191.982 30.3896 191.951 30.4653 191.9 30.5483C191.85 30.6313 191.782 30.7111 191.698 30.7876C191.615 30.8625 191.515 30.9251 191.4 30.9756C191.286 31.0244 191.157 31.0488 191.014 31.0488C190.835 31.0488 190.678 31.0138 190.543 30.9438C190.41 30.8739 190.305 30.7803 190.23 30.6631C190.157 30.5443 190.121 30.4116 190.121 30.2651C190.121 30.1235 190.148 29.999 190.204 29.8916C190.259 29.7826 190.339 29.6922 190.443 29.6206C190.547 29.5474 190.672 29.492 190.819 29.4546C190.965 29.4172 191.129 29.3984 191.31 29.3984H191.834ZM193.37 28.9224V31H192.918V28.3584H193.346L193.37 28.9224ZM193.263 29.5791L193.075 29.5718C193.076 29.3911 193.103 29.2243 193.155 29.0713C193.207 28.9167 193.281 28.7824 193.375 28.6685C193.469 28.5545 193.582 28.4666 193.712 28.4048C193.844 28.3413 193.989 28.3096 194.149 28.3096C194.279 28.3096 194.396 28.3275 194.5 28.3633C194.605 28.3975 194.693 28.4528 194.767 28.5293C194.841 28.6058 194.898 28.7051 194.938 28.8271C194.977 28.9476 194.996 29.0949 194.996 29.269V31H194.542V29.2642C194.542 29.1258 194.522 29.0151 194.481 28.9321C194.44 28.8475 194.381 28.7865 194.303 28.749C194.225 28.71 194.129 28.6904 194.015 28.6904C193.902 28.6904 193.8 28.714 193.707 28.7612C193.616 28.8084 193.537 28.8735 193.47 28.9565C193.405 29.0396 193.354 29.1348 193.316 29.2422C193.281 29.348 193.263 29.4603 193.263 29.5791ZM196.803 29.7085V29.6523C196.803 29.4619 196.83 29.2853 196.886 29.1226C196.941 28.9582 197.021 28.8158 197.125 28.6953C197.229 28.5732 197.355 28.4788 197.503 28.4121C197.652 28.3438 197.818 28.3096 198.001 28.3096C198.187 28.3096 198.354 28.3438 198.502 28.4121C198.652 28.4788 198.779 28.5732 198.883 28.6953C198.989 28.8158 199.069 28.9582 199.125 29.1226C199.18 29.2853 199.208 29.4619 199.208 29.6523V29.7085C199.208 29.8989 199.18 30.0755 199.125 30.2383C199.069 30.401 198.989 30.5435 198.883 30.6655C198.779 30.786 198.653 30.8804 198.504 30.9487C198.358 31.0155 198.192 31.0488 198.006 31.0488C197.821 31.0488 197.654 31.0155 197.506 30.9487C197.358 30.8804 197.231 30.786 197.125 30.6655C197.021 30.5435 196.941 30.401 196.886 30.2383C196.83 30.0755 196.803 29.8989 196.803 29.7085ZM197.254 29.6523V29.7085C197.254 29.8403 197.27 29.9648 197.301 30.082C197.332 30.1976 197.378 30.3001 197.44 30.3896C197.503 30.4792 197.582 30.55 197.677 30.6021C197.771 30.6525 197.881 30.6777 198.006 30.6777C198.13 30.6777 198.238 30.6525 198.331 30.6021C198.425 30.55 198.504 30.4792 198.565 30.3896C198.627 30.3001 198.674 30.1976 198.705 30.082C198.737 29.9648 198.753 29.8403 198.753 29.7085V29.6523C198.753 29.5221 198.737 29.3993 198.705 29.2837C198.674 29.1665 198.626 29.0632 198.563 28.9736C198.501 28.8825 198.423 28.8109 198.329 28.7588C198.236 28.7067 198.127 28.6807 198.001 28.6807C197.878 28.6807 197.769 28.7067 197.674 28.7588C197.582 28.8109 197.503 28.8825 197.44 28.9736C197.378 29.0632 197.332 29.1665 197.301 29.2837C197.27 29.3993 197.254 29.5221 197.254 29.6523ZM200.226 28.9224V31H199.774V28.3584H200.201L200.226 28.9224ZM200.118 29.5791L199.93 29.5718C199.932 29.3911 199.959 29.2243 200.011 29.0713C200.063 28.9167 200.136 28.7824 200.23 28.6685C200.325 28.5545 200.437 28.4666 200.567 28.4048C200.699 28.3413 200.845 28.3096 201.004 28.3096C201.135 28.3096 201.252 28.3275 201.356 28.3633C201.46 28.3975 201.549 28.4528 201.622 28.5293C201.697 28.6058 201.754 28.7051 201.793 28.8271C201.832 28.9476 201.852 29.0949 201.852 29.269V31H201.397V29.2642C201.397 29.1258 201.377 29.0151 201.336 28.9321C201.296 28.8475 201.236 28.7865 201.158 28.749C201.08 28.71 200.984 28.6904 200.87 28.6904C200.758 28.6904 200.655 28.714 200.562 28.7612C200.471 28.8084 200.392 28.8735 200.326 28.9565C200.261 29.0396 200.209 29.1348 200.172 29.2422C200.136 29.348 200.118 29.4603 200.118 29.5791ZM203.028 27.25V31H202.574V27.25H203.028ZM204.496 30.7266L205.23 28.3584H205.714L204.654 31.4077C204.63 31.4728 204.597 31.5428 204.557 31.6177C204.518 31.6942 204.467 31.7666 204.405 31.835C204.343 31.9033 204.269 31.9587 204.181 32.001C204.094 32.0449 203.991 32.0669 203.871 32.0669C203.835 32.0669 203.789 32.062 203.734 32.0522C203.679 32.0425 203.639 32.0343 203.617 32.0278L203.614 31.6616C203.627 31.6632 203.648 31.6649 203.675 31.6665C203.705 31.6698 203.725 31.6714 203.736 31.6714C203.839 31.6714 203.926 31.6576 203.998 31.6299C204.069 31.6038 204.129 31.5591 204.178 31.4956C204.229 31.4338 204.272 31.3483 204.308 31.2393L204.496 30.7266ZM203.956 28.3584L204.642 30.4092L204.759 30.8853L204.435 31.0513L203.463 28.3584H203.956ZM207.359 27.25H207.813V30.4873L207.774 31H207.359V27.25ZM209.598 29.6572V29.7085C209.598 29.9006 209.575 30.0788 209.53 30.2432C209.484 30.4059 209.417 30.5475 209.33 30.668C209.242 30.7884 209.134 30.882 209.007 30.9487C208.88 31.0155 208.735 31.0488 208.57 31.0488C208.403 31.0488 208.255 31.0203 208.128 30.9634C208.003 30.9048 207.897 30.821 207.811 30.7119C207.725 30.6029 207.656 30.471 207.604 30.3164C207.553 30.1618 207.518 29.9876 207.499 29.7939V29.5693C207.518 29.374 207.553 29.1991 207.604 29.0444C207.656 28.8898 207.725 28.758 207.811 28.6489C207.897 28.5382 208.003 28.4544 208.128 28.3975C208.254 28.3389 208.399 28.3096 208.565 28.3096C208.731 28.3096 208.879 28.3421 209.007 28.4072C209.136 28.4707 209.243 28.5618 209.33 28.6807C209.417 28.7995 209.484 28.9419 209.53 29.1079C209.575 29.2723 209.598 29.4554 209.598 29.6572ZM209.144 29.7085V29.6572C209.144 29.5254 209.132 29.4017 209.107 29.2861C209.083 29.1689 209.044 29.0664 208.99 28.9785C208.937 28.889 208.866 28.819 208.778 28.7686C208.69 28.7165 208.582 28.6904 208.453 28.6904C208.339 28.6904 208.24 28.71 208.155 28.749C208.072 28.7881 208.001 28.841 207.943 28.9077C207.884 28.9728 207.836 29.0477 207.799 29.1323C207.763 29.2153 207.736 29.3016 207.718 29.3911V29.9795C207.744 30.0934 207.787 30.2033 207.845 30.3091C207.905 30.4132 207.985 30.4987 208.084 30.5654C208.185 30.6322 208.31 30.6655 208.458 30.6655C208.58 30.6655 208.684 30.6411 208.771 30.5923C208.858 30.5418 208.929 30.4727 208.983 30.3848C209.038 30.2969 209.079 30.1951 209.105 30.0796C209.131 29.964 209.144 29.8403 209.144 29.7085ZM211.266 31.0488C211.082 31.0488 210.915 31.0179 210.765 30.9561C210.617 30.8926 210.489 30.8039 210.382 30.6899C210.276 30.576 210.195 30.4409 210.138 30.2847C210.081 30.1284 210.052 29.9575 210.052 29.772V29.6694C210.052 29.4546 210.084 29.2633 210.147 29.0957C210.211 28.9264 210.297 28.7832 210.406 28.666C210.515 28.5488 210.639 28.4601 210.777 28.3999C210.916 28.3397 211.059 28.3096 211.207 28.3096C211.396 28.3096 211.559 28.3421 211.695 28.4072C211.834 28.4723 211.947 28.5635 212.035 28.6807C212.123 28.7962 212.188 28.9329 212.23 29.0908C212.272 29.2471 212.293 29.418 212.293 29.6035V29.8062H210.321V29.4375H211.842V29.4033C211.835 29.2861 211.811 29.1722 211.769 29.0615C211.728 28.9508 211.663 28.8597 211.573 28.7881C211.484 28.7165 211.362 28.6807 211.207 28.6807C211.104 28.6807 211.01 28.7026 210.924 28.7466C210.838 28.7889 210.764 28.8524 210.702 28.937C210.64 29.0216 210.592 29.125 210.558 29.2471C210.523 29.3691 210.506 29.5099 210.506 29.6694V29.772C210.506 29.8973 210.523 30.0153 210.558 30.126C210.593 30.235 210.645 30.3311 210.711 30.4141C210.78 30.4971 210.862 30.5622 210.958 30.6094C211.056 30.6566 211.166 30.6802 211.29 30.6802C211.45 30.6802 211.585 30.6476 211.695 30.5825C211.806 30.5174 211.903 30.4303 211.986 30.3213L212.259 30.5386C212.202 30.6248 212.13 30.707 212.042 30.7852C211.954 30.8633 211.846 30.9268 211.717 30.9756C211.59 31.0244 211.44 31.0488 211.266 31.0488ZM183.717 34.3804V34.085C183.717 33.9857 183.733 33.8823 183.766 33.7749C183.8 33.6659 183.849 33.5617 183.912 33.4624C183.976 33.3615 184.052 33.2744 184.142 33.2012L184.398 33.3794C184.323 33.4868 184.265 33.5975 184.225 33.7114C184.184 33.8237 184.164 33.9458 184.164 34.0776V34.3804H183.717ZM186.261 36.5483V35.1885C186.261 35.0843 186.24 34.994 186.197 34.9175C186.157 34.8394 186.095 34.7791 186.012 34.7368C185.929 34.6945 185.826 34.6733 185.704 34.6733C185.59 34.6733 185.49 34.6929 185.404 34.7319C185.319 34.771 185.252 34.8223 185.204 34.8857C185.156 34.9492 185.133 35.0176 185.133 35.0908H184.681C184.681 34.9964 184.706 34.9028 184.754 34.8101C184.803 34.7173 184.873 34.6335 184.964 34.5586C185.057 34.4821 185.168 34.4219 185.296 34.3779C185.427 34.3324 185.571 34.3096 185.731 34.3096C185.923 34.3096 186.092 34.3421 186.239 34.4072C186.387 34.4723 186.502 34.5708 186.585 34.7026C186.67 34.8328 186.712 34.9964 186.712 35.1934V36.4238C186.712 36.5117 186.72 36.6053 186.734 36.7046C186.751 36.8039 186.774 36.8893 186.805 36.9609V37H186.334C186.311 36.9479 186.293 36.8787 186.28 36.7925C186.267 36.7046 186.261 36.6232 186.261 36.5483ZM186.339 35.3984L186.344 35.7158H185.887C185.759 35.7158 185.644 35.7264 185.543 35.7476C185.442 35.7671 185.357 35.7972 185.289 35.8379C185.221 35.8786 185.169 35.9299 185.133 35.9917C185.097 36.0519 185.079 36.1227 185.079 36.2041C185.079 36.2871 185.098 36.3628 185.135 36.4312C185.173 36.4995 185.229 36.554 185.304 36.5947C185.38 36.6338 185.474 36.6533 185.584 36.6533C185.723 36.6533 185.845 36.624 185.951 36.5654C186.056 36.5068 186.14 36.4352 186.202 36.3506C186.266 36.266 186.3 36.1838 186.305 36.104L186.498 36.3213C186.486 36.3896 186.455 36.4653 186.405 36.5483C186.354 36.6313 186.287 36.7111 186.202 36.7876C186.119 36.8625 186.02 36.9251 185.904 36.9756C185.79 37.0244 185.662 37.0488 185.519 37.0488C185.34 37.0488 185.182 37.0138 185.047 36.9438C184.914 36.8739 184.81 36.7803 184.735 36.6631C184.662 36.5443 184.625 36.4116 184.625 36.2651C184.625 36.1235 184.653 35.999 184.708 35.8916C184.763 35.7826 184.843 35.6922 184.947 35.6206C185.051 35.5474 185.177 35.492 185.323 35.4546C185.47 35.4172 185.633 35.3984 185.814 35.3984H186.339ZM188.961 36.2993C188.961 36.2342 188.946 36.174 188.917 36.1187C188.889 36.0617 188.832 36.0104 188.744 35.9648C188.657 35.9176 188.527 35.877 188.353 35.8428C188.207 35.8118 188.074 35.7752 187.955 35.7329C187.838 35.6906 187.738 35.6393 187.655 35.5791C187.573 35.5189 187.511 35.4481 187.467 35.3667C187.423 35.2853 187.401 35.1901 187.401 35.0811C187.401 34.9769 187.424 34.8784 187.469 34.7856C187.516 34.6929 187.582 34.6107 187.667 34.5391C187.753 34.4674 187.857 34.4113 187.977 34.3706C188.097 34.3299 188.232 34.3096 188.38 34.3096C188.591 34.3096 188.772 34.347 188.922 34.4219C189.072 34.4967 189.186 34.5968 189.266 34.7222C189.346 34.8459 189.386 34.9834 189.386 35.1348H188.934C188.934 35.0615 188.912 34.9907 188.868 34.9224C188.826 34.8524 188.763 34.7946 188.68 34.749C188.599 34.7035 188.499 34.6807 188.38 34.6807C188.255 34.6807 188.153 34.7002 188.075 34.7393C187.998 34.7767 187.942 34.8247 187.906 34.8833C187.872 34.9419 187.855 35.0037 187.855 35.0688C187.855 35.1177 187.863 35.1616 187.879 35.2007C187.897 35.2381 187.928 35.2731 187.972 35.3057C188.016 35.3366 188.078 35.3659 188.158 35.3936C188.237 35.4212 188.339 35.4489 188.463 35.4766C188.679 35.5254 188.858 35.584 188.998 35.6523C189.138 35.7207 189.242 35.8045 189.31 35.9038C189.378 36.0031 189.413 36.1235 189.413 36.2651C189.413 36.3807 189.388 36.4865 189.339 36.5825C189.292 36.6785 189.223 36.7616 189.132 36.8315C189.042 36.8999 188.935 36.9536 188.81 36.9927C188.686 37.0301 188.547 37.0488 188.392 37.0488C188.159 37.0488 187.962 37.0073 187.801 36.9243C187.64 36.8413 187.518 36.7339 187.435 36.6021C187.352 36.4702 187.311 36.3311 187.311 36.1846H187.765C187.771 36.3083 187.807 36.4067 187.872 36.48C187.937 36.5516 188.017 36.6029 188.111 36.6338C188.206 36.6631 188.299 36.6777 188.392 36.6777C188.516 36.6777 188.619 36.6615 188.702 36.6289C188.787 36.5964 188.851 36.5516 188.895 36.4946C188.939 36.4377 188.961 36.3726 188.961 36.2993ZM191.063 36.6777C191.17 36.6777 191.27 36.6558 191.361 36.6118C191.452 36.5679 191.527 36.5076 191.585 36.4312C191.644 36.353 191.677 36.2643 191.686 36.165H192.115C192.107 36.3213 192.054 36.467 191.957 36.6021C191.861 36.7355 191.734 36.8438 191.578 36.9268C191.422 37.0081 191.25 37.0488 191.063 37.0488C190.864 37.0488 190.691 37.0138 190.543 36.9438C190.396 36.8739 190.274 36.7778 190.177 36.6558C190.081 36.5337 190.008 36.3937 189.959 36.2358C189.912 36.0763 189.889 35.9079 189.889 35.7305V35.6279C189.889 35.4505 189.912 35.2829 189.959 35.125C190.008 34.9655 190.081 34.8247 190.177 34.7026C190.274 34.5806 190.396 34.4845 190.543 34.4146C190.691 34.3446 190.864 34.3096 191.063 34.3096C191.27 34.3096 191.45 34.3519 191.605 34.4365C191.76 34.5195 191.881 34.6335 191.969 34.7783C192.058 34.9215 192.107 35.0843 192.115 35.2666H191.686C191.677 35.1576 191.646 35.0591 191.593 34.9712C191.541 34.8833 191.469 34.8133 191.378 34.7612C191.288 34.7075 191.183 34.6807 191.063 34.6807C190.925 34.6807 190.808 34.7083 190.714 34.7637C190.621 34.8174 190.547 34.8906 190.492 34.9834C190.438 35.0745 190.399 35.1763 190.375 35.2886C190.352 35.3993 190.34 35.5124 190.34 35.6279V35.7305C190.34 35.846 190.352 35.96 190.375 36.0723C190.397 36.1846 190.436 36.2863 190.489 36.3774C190.545 36.4686 190.619 36.5418 190.711 36.5972C190.806 36.6509 190.923 36.6777 191.063 36.6777ZM193.05 33.25V33.5625C193.05 33.6602 193.033 33.7635 192.999 33.8726C192.966 33.98 192.918 34.0841 192.855 34.1851C192.792 34.2843 192.715 34.3714 192.625 34.4463L192.367 34.2681C192.443 34.1606 192.501 34.0508 192.54 33.9385C192.581 33.8245 192.601 33.7017 192.601 33.5698V33.25H193.05ZM194.715 35.7085V35.6523C194.715 35.4619 194.743 35.2853 194.798 35.1226C194.854 34.9582 194.933 34.8158 195.038 34.6953C195.142 34.5732 195.268 34.4788 195.416 34.4121C195.564 34.3438 195.73 34.3096 195.914 34.3096C196.1 34.3096 196.266 34.3438 196.415 34.4121C196.564 34.4788 196.691 34.5732 196.795 34.6953C196.901 34.8158 196.982 34.9582 197.037 35.1226C197.092 35.2853 197.12 35.4619 197.12 35.6523V35.7085C197.12 35.8989 197.092 36.0755 197.037 36.2383C196.982 36.401 196.901 36.5435 196.795 36.6655C196.691 36.786 196.565 36.8804 196.417 36.9487C196.271 37.0155 196.104 37.0488 195.919 37.0488C195.733 37.0488 195.567 37.0155 195.418 36.9487C195.27 36.8804 195.143 36.786 195.038 36.6655C194.933 36.5435 194.854 36.401 194.798 36.2383C194.743 36.0755 194.715 35.8989 194.715 35.7085ZM195.167 35.6523V35.7085C195.167 35.8403 195.182 35.9648 195.213 36.082C195.244 36.1976 195.291 36.3001 195.353 36.3896C195.416 36.4792 195.495 36.55 195.589 36.6021C195.684 36.6525 195.794 36.6777 195.919 36.6777C196.043 36.6777 196.151 36.6525 196.244 36.6021C196.338 36.55 196.416 36.4792 196.478 36.3896C196.54 36.3001 196.586 36.1976 196.617 36.082C196.65 35.9648 196.666 35.8403 196.666 35.7085V35.6523C196.666 35.5221 196.65 35.3993 196.617 35.2837C196.586 35.1665 196.539 35.0632 196.476 34.9736C196.414 34.8825 196.336 34.8109 196.241 34.7588C196.148 34.7067 196.039 34.6807 195.914 34.6807C195.79 34.6807 195.681 34.7067 195.587 34.7588C195.494 34.8109 195.416 34.8825 195.353 34.9736C195.291 35.0632 195.244 35.1665 195.213 35.2837C195.182 35.3993 195.167 35.5221 195.167 35.6523ZM198.138 34.7734V37H197.687V34.3584H198.126L198.138 34.7734ZM198.963 34.3438L198.961 34.7637C198.924 34.7555 198.888 34.7507 198.854 34.749C198.821 34.7458 198.784 34.7441 198.741 34.7441C198.637 34.7441 198.545 34.7604 198.465 34.793C198.386 34.8255 198.318 34.8711 198.263 34.9297C198.207 34.9883 198.163 35.0583 198.131 35.1396C198.1 35.2194 198.08 35.3073 198.07 35.4033L197.943 35.4766C197.943 35.3171 197.958 35.1673 197.989 35.0273C198.022 34.8874 198.071 34.7637 198.138 34.6562C198.205 34.5472 198.29 34.4626 198.392 34.4023C198.496 34.3405 198.62 34.3096 198.763 34.3096C198.796 34.3096 198.833 34.3136 198.875 34.3218C198.918 34.3283 198.947 34.3356 198.963 34.3438ZM200.514 34.3804V34.085C200.514 33.9857 200.53 33.8823 200.562 33.7749C200.597 33.6659 200.646 33.5617 200.709 33.4624C200.772 33.3615 200.849 33.2744 200.938 33.2012L201.195 33.3794C201.12 33.4868 201.062 33.5975 201.021 33.7114C200.981 33.8237 200.96 33.9458 200.96 34.0776V34.3804H200.514ZM203.141 36.4873V33.25H203.595V37H203.18L203.141 36.4873ZM201.363 35.7085V35.6572C201.363 35.4554 201.388 35.2723 201.437 35.1079C201.487 34.9419 201.558 34.7995 201.649 34.6807C201.742 34.5618 201.852 34.4707 201.979 34.4072C202.107 34.3421 202.25 34.3096 202.408 34.3096C202.574 34.3096 202.719 34.3389 202.843 34.3975C202.968 34.4544 203.074 34.5382 203.16 34.6489C203.248 34.758 203.317 34.8898 203.368 35.0444C203.418 35.1991 203.453 35.374 203.473 35.5693V35.7939C203.455 35.9876 203.42 36.1618 203.368 36.3164C203.317 36.471 203.248 36.6029 203.16 36.7119C203.074 36.821 202.968 36.9048 202.843 36.9634C202.717 37.0203 202.571 37.0488 202.403 37.0488C202.249 37.0488 202.107 37.0155 201.979 36.9487C201.852 36.882 201.742 36.7884 201.649 36.668C201.558 36.5475 201.487 36.4059 201.437 36.2432C201.388 36.0788 201.363 35.9006 201.363 35.7085ZM201.817 35.6572V35.7085C201.817 35.8403 201.83 35.964 201.856 36.0796C201.884 36.1951 201.926 36.2969 201.983 36.3848C202.04 36.4727 202.113 36.5418 202.201 36.5923C202.289 36.6411 202.394 36.6655 202.516 36.6655C202.665 36.6655 202.788 36.6338 202.884 36.5703C202.982 36.5068 203.06 36.423 203.119 36.3188C203.177 36.2147 203.223 36.1016 203.255 35.9795V35.3911C203.236 35.3016 203.207 35.2153 203.17 35.1323C203.134 35.0477 203.087 34.9728 203.028 34.9077C202.971 34.841 202.901 34.7881 202.816 34.749C202.733 34.71 202.634 34.6904 202.521 34.6904C202.397 34.6904 202.29 34.7165 202.201 34.7686C202.113 34.819 202.04 34.889 201.983 34.9785C201.926 35.0664 201.884 35.1689 201.856 35.2861C201.83 35.4017 201.817 35.5254 201.817 35.6572ZM205.394 37.0488C205.21 37.0488 205.043 37.0179 204.894 36.9561C204.745 36.8926 204.618 36.8039 204.51 36.6899C204.404 36.576 204.323 36.4409 204.266 36.2847C204.209 36.1284 204.181 35.9575 204.181 35.772V35.6694C204.181 35.4546 204.212 35.2633 204.276 35.0957C204.339 34.9264 204.426 34.7832 204.535 34.666C204.644 34.5488 204.767 34.4601 204.906 34.3999C205.044 34.3397 205.187 34.3096 205.335 34.3096C205.524 34.3096 205.687 34.3421 205.824 34.4072C205.962 34.4723 206.075 34.5635 206.163 34.6807C206.251 34.7962 206.316 34.9329 206.358 35.0908C206.401 35.2471 206.422 35.418 206.422 35.6035V35.8062H204.449V35.4375H205.97V35.4033C205.964 35.2861 205.939 35.1722 205.897 35.0615C205.856 34.9508 205.791 34.8597 205.702 34.7881C205.612 34.7165 205.49 34.6807 205.335 34.6807C205.233 34.6807 205.139 34.7026 205.052 34.7466C204.966 34.7889 204.892 34.8524 204.83 34.937C204.768 35.0216 204.72 35.125 204.686 35.2471C204.652 35.3691 204.635 35.5099 204.635 35.6694V35.772C204.635 35.8973 204.652 36.0153 204.686 36.126C204.722 36.235 204.773 36.3311 204.84 36.4141C204.908 36.4971 204.99 36.5622 205.086 36.6094C205.184 36.6566 205.295 36.6802 205.418 36.6802C205.578 36.6802 205.713 36.6476 205.824 36.5825C205.934 36.5174 206.031 36.4303 206.114 36.3213L206.388 36.5386C206.331 36.6248 206.258 36.707 206.17 36.7852C206.083 36.8633 205.974 36.9268 205.846 36.9756C205.719 37.0244 205.568 37.0488 205.394 37.0488ZM208.487 36.2993C208.487 36.2342 208.473 36.174 208.443 36.1187C208.416 36.0617 208.358 36.0104 208.27 35.9648C208.184 35.9176 208.054 35.877 207.879 35.8428C207.733 35.8118 207.6 35.7752 207.481 35.7329C207.364 35.6906 207.264 35.6393 207.181 35.5791C207.1 35.5189 207.037 35.4481 206.993 35.3667C206.949 35.2853 206.927 35.1901 206.927 35.0811C206.927 34.9769 206.95 34.8784 206.996 34.7856C207.043 34.6929 207.109 34.6107 207.193 34.5391C207.28 34.4674 207.383 34.4113 207.503 34.3706C207.624 34.3299 207.758 34.3096 207.906 34.3096C208.118 34.3096 208.299 34.347 208.448 34.4219C208.598 34.4967 208.713 34.5968 208.792 34.7222C208.872 34.8459 208.912 34.9834 208.912 35.1348H208.46C208.46 35.0615 208.438 34.9907 208.395 34.9224C208.352 34.8524 208.29 34.7946 208.207 34.749C208.125 34.7035 208.025 34.6807 207.906 34.6807C207.781 34.6807 207.679 34.7002 207.601 34.7393C207.525 34.7767 207.468 34.8247 207.433 34.8833C207.398 34.9419 207.381 35.0037 207.381 35.0688C207.381 35.1177 207.389 35.1616 207.406 35.2007C207.424 35.2381 207.455 35.2731 207.499 35.3057C207.542 35.3366 207.604 35.3659 207.684 35.3936C207.764 35.4212 207.866 35.4489 207.989 35.4766C208.206 35.5254 208.384 35.584 208.524 35.6523C208.664 35.7207 208.768 35.8045 208.836 35.9038C208.905 36.0031 208.939 36.1235 208.939 36.2651C208.939 36.3807 208.915 36.4865 208.866 36.5825C208.819 36.6785 208.749 36.7616 208.658 36.8315C208.569 36.8999 208.461 36.9536 208.336 36.9927C208.212 37.0301 208.073 37.0488 207.918 37.0488C207.686 37.0488 207.489 37.0073 207.328 36.9243C207.167 36.8413 207.044 36.7339 206.961 36.6021C206.878 36.4702 206.837 36.3311 206.837 36.1846H207.291C207.298 36.3083 207.333 36.4067 207.398 36.48C207.464 36.5516 207.543 36.6029 207.638 36.6338C207.732 36.6631 207.826 36.6777 207.918 36.6777C208.042 36.6777 208.146 36.6615 208.229 36.6289C208.313 36.5964 208.377 36.5516 208.421 36.4946C208.465 36.4377 208.487 36.3726 208.487 36.2993ZM210.589 36.6777C210.697 36.6777 210.796 36.6558 210.887 36.6118C210.978 36.5679 211.053 36.5076 211.112 36.4312C211.17 36.353 211.204 36.2643 211.212 36.165H211.642C211.633 36.3213 211.581 36.467 211.483 36.6021C211.387 36.7355 211.261 36.8438 211.104 36.9268C210.948 37.0081 210.777 37.0488 210.589 37.0488C210.391 37.0488 210.217 37.0138 210.069 36.9438C209.923 36.8739 209.801 36.7778 209.703 36.6558C209.607 36.5337 209.535 36.3937 209.486 36.2358C209.439 36.0763 209.415 35.9079 209.415 35.7305V35.6279C209.415 35.4505 209.439 35.2829 209.486 35.125C209.535 34.9655 209.607 34.8247 209.703 34.7026C209.801 34.5806 209.923 34.4845 210.069 34.4146C210.217 34.3446 210.391 34.3096 210.589 34.3096C210.796 34.3096 210.977 34.3519 211.131 34.4365C211.286 34.5195 211.407 34.6335 211.495 34.7783C211.585 34.9215 211.633 35.0843 211.642 35.2666H211.212C211.204 35.1576 211.173 35.0591 211.119 34.9712C211.067 34.8833 210.995 34.8133 210.904 34.7612C210.815 34.7075 210.71 34.6807 210.589 34.6807C210.451 34.6807 210.335 34.7083 210.24 34.7637C210.147 34.8174 210.073 34.8906 210.018 34.9834C209.964 35.0745 209.925 35.1763 209.901 35.2886C209.878 35.3993 209.867 35.5124 209.867 35.6279V35.7305C209.867 35.846 209.878 35.96 209.901 36.0723C209.924 36.1846 209.962 36.2863 210.016 36.3774C210.071 36.4686 210.145 36.5418 210.238 36.5972C210.332 36.6509 210.449 36.6777 210.589 36.6777ZM212.577 33.25V33.5625C212.577 33.6602 212.56 33.7635 212.525 33.8726C212.493 33.98 212.445 34.0841 212.381 34.1851C212.318 34.2843 212.241 34.3714 212.152 34.4463L211.893 34.2681C211.97 34.1606 212.027 34.0508 212.066 33.9385C212.107 33.8245 212.127 33.7017 212.127 33.5698V33.25H212.577ZM214.161 35.5547V35.5791C214.161 35.9355 214.121 36.2578 214.042 36.5459C213.962 36.834 213.86 37.0854 213.736 37.3003C213.613 37.5168 213.482 37.6958 213.346 37.8374C213.209 37.9806 213.083 38.084 212.967 38.1475L212.872 37.874C212.968 37.8008 213.065 37.6982 213.163 37.5664C213.26 37.4362 213.351 37.2751 213.434 37.083C213.517 36.8926 213.583 36.6729 213.634 36.4238C213.684 36.1732 213.709 35.8932 213.709 35.584V35.5498C213.709 35.2406 213.683 34.9614 213.629 34.7124C213.575 34.4618 213.505 34.2412 213.419 34.0508C213.334 33.8604 213.243 33.7 213.146 33.5698C213.049 33.438 212.958 33.3363 212.872 33.2646L212.967 32.9888C213.083 33.0522 213.209 33.1556 213.346 33.2988C213.482 33.4404 213.613 33.6195 213.736 33.8359C213.86 34.0524 213.962 34.3047 214.042 34.5928C214.121 34.8792 214.161 35.1999 214.161 35.5547Z" fill="black"/>
<rect x="147.25" y="21.25" width="21.5" height="14.5" stroke="#C0433A" stroke-width="0.5"/>
<rect x="147.25" y="21.25" width="21.5" height="14.5" stroke="#4298BD" stroke-width="0.5"/>
<rect x="147.25" y="21.25" width="21.5" height="14.5" stroke="#D9BE56" stroke-width="0.5"/>
<path d="M184 29L181.5 27.5566V30.4434L184 29ZM169 29.25H181.75V28.75H169V29.25Z" fill="#D9BE56"/>
</svg>
