<svg width="288" height="58" viewBox="0 0 288 58" fill="none" xmlns="http://www.w3.org/2000/svg">
<rect width="288" height="58" fill="white"/>
<path d="M132.037 30.2832C132.037 30.1426 132.002 30.0156 131.932 29.9023C131.862 29.7852 131.727 29.6797 131.528 29.5859C131.332 29.4922 131.043 29.4062 130.661 29.3281C130.325 29.2539 130.016 29.166 129.735 29.0645C129.457 28.959 129.219 28.832 129.02 28.6836C128.821 28.5352 128.666 28.3594 128.557 28.1562C128.448 27.9531 128.393 27.7188 128.393 27.4531C128.393 27.1953 128.45 26.9512 128.563 26.7207C128.676 26.4902 128.838 26.2871 129.049 26.1113C129.26 25.9355 129.516 25.7969 129.817 25.6953C130.121 25.5938 130.461 25.543 130.836 25.543C131.368 25.543 131.823 25.6328 132.202 25.8125C132.584 25.9883 132.877 26.2285 133.08 26.5332C133.284 26.834 133.385 27.1738 133.385 27.5527H131.973C131.973 27.3848 131.93 27.2285 131.844 27.084C131.762 26.9355 131.637 26.8164 131.469 26.7266C131.301 26.6328 131.09 26.5859 130.836 26.5859C130.594 26.5859 130.393 26.625 130.233 26.7031C130.077 26.7773 129.959 26.875 129.881 26.9961C129.807 27.1172 129.77 27.25 129.77 27.3945C129.77 27.5 129.789 27.5957 129.829 27.6816C129.871 27.7637 129.942 27.8398 130.039 27.9102C130.137 27.9766 130.27 28.0391 130.438 28.0977C130.61 28.1562 130.825 28.2129 131.082 28.2676C131.567 28.3691 131.983 28.5 132.33 28.6602C132.682 28.8164 132.952 29.0195 133.139 29.2695C133.327 29.5156 133.42 29.8281 133.42 30.207C133.42 30.4883 133.36 30.7461 133.239 30.9805C133.121 31.2109 132.95 31.4121 132.723 31.584C132.496 31.752 132.225 31.8828 131.909 31.9766C131.596 32.0703 131.245 32.1172 130.854 32.1172C130.28 32.1172 129.793 32.0156 129.395 31.8125C128.996 31.6055 128.694 31.3418 128.487 31.0215C128.284 30.6973 128.182 30.3613 128.182 30.0137H129.547C129.563 30.2754 129.635 30.4844 129.764 30.6406C129.897 30.793 130.061 30.9043 130.256 30.9746C130.455 31.041 130.661 31.0742 130.871 31.0742C131.125 31.0742 131.338 31.041 131.51 30.9746C131.682 30.9043 131.813 30.8105 131.903 30.6934C131.993 30.5723 132.037 30.4355 132.037 30.2832ZM137.923 25.6602V26.6914H134.349V25.6602H137.923ZM135.38 24.1074H136.792V30.248C136.792 30.4434 136.819 30.5938 136.874 30.6992C136.933 30.8008 137.013 30.8691 137.114 30.9043C137.216 30.9395 137.335 30.957 137.472 30.957C137.569 30.957 137.663 30.9512 137.753 30.9395C137.843 30.9277 137.915 30.916 137.97 30.9043L137.976 31.9824C137.858 32.0176 137.722 32.0488 137.565 32.0762C137.413 32.1035 137.237 32.1172 137.038 32.1172C136.714 32.1172 136.427 32.0605 136.177 31.9473C135.927 31.8301 135.731 31.6406 135.591 31.3789C135.45 31.1172 135.38 30.7695 135.38 30.3359V24.1074ZM142.947 30.7285V27.7051C142.947 27.4785 142.906 27.2832 142.824 27.1191C142.742 26.9551 142.617 26.8281 142.449 26.7383C142.285 26.6484 142.078 26.6035 141.828 26.6035C141.597 26.6035 141.398 26.6426 141.23 26.7207C141.062 26.7988 140.931 26.9043 140.838 27.0371C140.744 27.1699 140.697 27.3203 140.697 27.4883H139.291C139.291 27.2383 139.351 26.9961 139.472 26.7617C139.593 26.5273 139.769 26.3184 140 26.1348C140.23 25.9512 140.506 25.8066 140.826 25.7012C141.146 25.5957 141.506 25.543 141.904 25.543C142.381 25.543 142.802 25.623 143.17 25.7832C143.541 25.9434 143.832 26.1855 144.043 26.5098C144.257 26.8301 144.365 27.2324 144.365 27.7168V30.5352C144.365 30.8242 144.384 31.084 144.424 31.3145C144.466 31.541 144.527 31.7383 144.605 31.9062V32H143.158C143.091 31.8477 143.039 31.6543 143 31.4199C142.965 31.1816 142.947 30.9512 142.947 30.7285ZM143.152 28.1445L143.164 29.0176H142.15C141.888 29.0176 141.658 29.043 141.459 29.0938C141.259 29.1406 141.093 29.2109 140.961 29.3047C140.828 29.3984 140.728 29.5117 140.662 29.6445C140.595 29.7773 140.562 29.9277 140.562 30.0957C140.562 30.2637 140.601 30.418 140.679 30.5586C140.757 30.6953 140.871 30.8027 141.019 30.8809C141.172 30.959 141.355 30.998 141.57 30.998C141.859 30.998 142.111 30.9395 142.326 30.8223C142.545 30.7012 142.716 30.5547 142.841 30.3828C142.966 30.207 143.033 30.041 143.041 29.8848L143.498 30.5117C143.451 30.6719 143.371 30.8438 143.257 31.0273C143.144 31.2109 142.996 31.3867 142.812 31.5547C142.632 31.7188 142.416 31.8535 142.162 31.959C141.912 32.0645 141.623 32.1172 141.295 32.1172C140.881 32.1172 140.511 32.0352 140.187 31.8711C139.863 31.7031 139.609 31.4785 139.425 31.1973C139.242 30.9121 139.15 30.5898 139.15 30.2305C139.15 29.8945 139.213 29.5977 139.338 29.3398C139.466 29.0781 139.654 28.8594 139.9 28.6836C140.15 28.5078 140.455 28.375 140.814 28.2852C141.174 28.1914 141.584 28.1445 142.045 28.1445H143.152ZM147.619 26.8672V32H146.207V25.6602H147.555L147.619 26.8672ZM149.559 25.6191L149.547 26.9316C149.461 26.916 149.368 26.9043 149.266 26.8965C149.168 26.8887 149.071 26.8848 148.973 26.8848C148.731 26.8848 148.518 26.9199 148.334 26.9902C148.151 27.0566 147.996 27.1543 147.871 27.2832C147.75 27.4082 147.657 27.5605 147.59 27.7402C147.524 27.9199 147.485 28.1211 147.473 28.3438L147.151 28.3672C147.151 27.9688 147.19 27.5996 147.268 27.2598C147.346 26.9199 147.463 26.6211 147.619 26.3633C147.78 26.1055 147.979 25.9043 148.217 25.7598C148.459 25.6152 148.739 25.543 149.055 25.543C149.141 25.543 149.233 25.5508 149.33 25.5664C149.432 25.582 149.508 25.5996 149.559 25.6191ZM157.925 23.4395V32H156.513V25.1152L154.421 25.8242V24.6582L157.755 23.4395H157.925Z" fill="black"/>
<path d="M184.28 23.4453H185.457C185.724 23.4453 185.949 23.486 186.133 23.5674C186.319 23.6488 186.46 23.7692 186.556 23.9287C186.653 24.0866 186.702 24.2811 186.702 24.5122C186.702 24.675 186.669 24.8239 186.602 24.959C186.537 25.0924 186.443 25.2064 186.319 25.3008C186.197 25.3936 186.05 25.4627 185.879 25.5083L185.748 25.5596H184.642L184.637 25.1763H185.472C185.641 25.1763 185.782 25.147 185.894 25.0884C186.006 25.0282 186.091 24.9476 186.148 24.8467C186.205 24.7458 186.233 24.6343 186.233 24.5122C186.233 24.3755 186.207 24.2559 186.153 24.1533C186.099 24.0508 186.014 23.9718 185.899 23.9165C185.785 23.8595 185.638 23.8311 185.457 23.8311H184.751V27H184.28V23.4453ZM186.358 27L185.494 25.3887L185.984 25.3862L186.861 26.9707V27H186.358ZM188.389 27.0488C188.205 27.0488 188.038 27.0179 187.889 26.9561C187.741 26.8926 187.613 26.8039 187.505 26.6899C187.4 26.576 187.318 26.4409 187.261 26.2847C187.204 26.1284 187.176 25.9575 187.176 25.772V25.6694C187.176 25.4546 187.208 25.2633 187.271 25.0957C187.334 24.9264 187.421 24.7832 187.53 24.666C187.639 24.5488 187.763 24.4601 187.901 24.3999C188.039 24.3397 188.182 24.3096 188.331 24.3096C188.519 24.3096 188.682 24.3421 188.819 24.4072C188.957 24.4723 189.07 24.5635 189.158 24.6807C189.246 24.7962 189.311 24.9329 189.354 25.0908C189.396 25.2471 189.417 25.418 189.417 25.6035V25.8062H187.444V25.4375H188.965V25.4033C188.959 25.2861 188.934 25.1722 188.892 25.0615C188.851 24.9508 188.786 24.8597 188.697 24.7881C188.607 24.7165 188.485 24.6807 188.331 24.6807C188.228 24.6807 188.134 24.7026 188.047 24.7466C187.961 24.7889 187.887 24.8524 187.825 24.937C187.763 25.0216 187.715 25.125 187.681 25.2471C187.647 25.3691 187.63 25.5099 187.63 25.6694V25.772C187.63 25.8973 187.647 26.0153 187.681 26.126C187.717 26.235 187.768 26.3311 187.835 26.4141C187.903 26.4971 187.986 26.5622 188.082 26.6094C188.179 26.6566 188.29 26.6802 188.414 26.6802C188.573 26.6802 188.708 26.6476 188.819 26.5825C188.93 26.5174 189.026 26.4303 189.109 26.3213L189.383 26.5386C189.326 26.6248 189.253 26.707 189.166 26.7852C189.078 26.8633 188.969 26.9268 188.841 26.9756C188.714 27.0244 188.563 27.0488 188.389 27.0488ZM191.001 26.6777C191.109 26.6777 191.208 26.6558 191.299 26.6118C191.39 26.5679 191.465 26.5076 191.524 26.4312C191.583 26.353 191.616 26.2643 191.624 26.165H192.054C192.046 26.3213 191.993 26.467 191.895 26.6021C191.799 26.7355 191.673 26.8438 191.517 26.9268C191.36 27.0081 191.189 27.0488 191.001 27.0488C190.803 27.0488 190.63 27.0138 190.481 26.9438C190.335 26.8739 190.213 26.7778 190.115 26.6558C190.019 26.5337 189.947 26.3937 189.898 26.2358C189.851 26.0763 189.827 25.9079 189.827 25.7305V25.6279C189.827 25.4505 189.851 25.2829 189.898 25.125C189.947 24.9655 190.019 24.8247 190.115 24.7026C190.213 24.5806 190.335 24.4845 190.481 24.4146C190.63 24.3446 190.803 24.3096 191.001 24.3096C191.208 24.3096 191.389 24.3519 191.543 24.4365C191.698 24.5195 191.819 24.6335 191.907 24.7783C191.997 24.9215 192.046 25.0843 192.054 25.2666H191.624C191.616 25.1576 191.585 25.0591 191.531 24.9712C191.479 24.8833 191.408 24.8133 191.316 24.7612C191.227 24.7075 191.122 24.6807 191.001 24.6807C190.863 24.6807 190.747 24.7083 190.652 24.7637C190.56 24.8174 190.486 24.8906 190.43 24.9834C190.376 25.0745 190.337 25.1763 190.313 25.2886C190.29 25.3993 190.279 25.5124 190.279 25.6279V25.7305C190.279 25.846 190.29 25.96 190.313 26.0723C190.336 26.1846 190.374 26.2863 190.428 26.3774C190.483 26.4686 190.557 26.5418 190.65 26.5972C190.744 26.6509 190.861 26.6777 191.001 26.6777ZM193.052 24.3584V27H192.598V24.3584H193.052ZM192.564 23.6577C192.564 23.5845 192.586 23.5226 192.63 23.4722C192.675 23.4217 192.742 23.3965 192.83 23.3965C192.916 23.3965 192.982 23.4217 193.028 23.4722C193.075 23.5226 193.099 23.5845 193.099 23.6577C193.099 23.7277 193.075 23.7879 193.028 23.8384C192.982 23.8872 192.916 23.9116 192.83 23.9116C192.742 23.9116 192.675 23.8872 192.63 23.8384C192.586 23.7879 192.564 23.7277 192.564 23.6577ZM194.229 24.8662V28.0156H193.775V24.3584H194.19L194.229 24.8662ZM196.009 25.6572V25.7085C196.009 25.9006 195.986 26.0788 195.94 26.2432C195.895 26.4059 195.828 26.5475 195.74 26.668C195.654 26.7884 195.547 26.882 195.42 26.9487C195.293 27.0155 195.148 27.0488 194.983 27.0488C194.816 27.0488 194.668 27.0212 194.539 26.9658C194.41 26.9105 194.301 26.8299 194.212 26.7241C194.122 26.6183 194.051 26.4914 193.997 26.3433C193.945 26.1951 193.909 26.0283 193.89 25.8428V25.5693C193.909 25.374 193.946 25.1991 194 25.0444C194.053 24.8898 194.124 24.758 194.212 24.6489C194.301 24.5382 194.41 24.4544 194.537 24.3975C194.664 24.3389 194.81 24.3096 194.976 24.3096C195.142 24.3096 195.289 24.3421 195.418 24.4072C195.547 24.4707 195.655 24.5618 195.743 24.6807C195.831 24.7995 195.896 24.9419 195.94 25.1079C195.986 25.2723 196.009 25.4554 196.009 25.6572ZM195.555 25.7085V25.6572C195.555 25.5254 195.541 25.4017 195.513 25.2861C195.486 25.1689 195.442 25.0664 195.384 24.9785C195.327 24.889 195.254 24.819 195.164 24.7686C195.075 24.7165 194.968 24.6904 194.844 24.6904C194.73 24.6904 194.631 24.71 194.546 24.749C194.463 24.7881 194.393 24.841 194.334 24.9077C194.275 24.9728 194.227 25.0477 194.19 25.1323C194.154 25.2153 194.127 25.3016 194.109 25.3911V26.0234C194.142 26.1374 194.188 26.2448 194.246 26.3457C194.305 26.445 194.383 26.5256 194.48 26.5874C194.578 26.6476 194.701 26.6777 194.849 26.6777C194.971 26.6777 195.076 26.6525 195.164 26.6021C195.254 26.55 195.327 26.4792 195.384 26.3896C195.442 26.3001 195.486 26.1976 195.513 26.082C195.541 25.9648 195.555 25.8403 195.555 25.7085ZM197.681 27.0488C197.497 27.0488 197.33 27.0179 197.181 26.9561C197.033 26.8926 196.905 26.8039 196.797 26.6899C196.692 26.576 196.61 26.4409 196.553 26.2847C196.496 26.1284 196.468 25.9575 196.468 25.772V25.6694C196.468 25.4546 196.5 25.2633 196.563 25.0957C196.626 24.9264 196.713 24.7832 196.822 24.666C196.931 24.5488 197.055 24.4601 197.193 24.3999C197.331 24.3397 197.474 24.3096 197.623 24.3096C197.811 24.3096 197.974 24.3421 198.111 24.4072C198.249 24.4723 198.362 24.5635 198.45 24.6807C198.538 24.7962 198.603 24.9329 198.646 25.0908C198.688 25.2471 198.709 25.418 198.709 25.6035V25.8062H196.736V25.4375H198.257V25.4033C198.251 25.2861 198.226 25.1722 198.184 25.0615C198.143 24.9508 198.078 24.8597 197.989 24.7881C197.899 24.7165 197.777 24.6807 197.623 24.6807C197.52 24.6807 197.426 24.7026 197.339 24.7466C197.253 24.7889 197.179 24.8524 197.117 24.937C197.055 25.0216 197.007 25.125 196.973 25.2471C196.939 25.3691 196.922 25.5099 196.922 25.6694V25.772C196.922 25.8973 196.939 26.0153 196.973 26.126C197.009 26.235 197.06 26.3311 197.127 26.4141C197.195 26.4971 197.278 26.5622 197.374 26.6094C197.471 26.6566 197.582 26.6802 197.706 26.6802C197.865 26.6802 198 26.6476 198.111 26.5825C198.222 26.5174 198.318 26.4303 198.401 26.3213L198.675 26.5386C198.618 26.6248 198.545 26.707 198.458 26.7852C198.37 26.8633 198.261 26.9268 198.133 26.9756C198.006 27.0244 197.855 27.0488 197.681 27.0488ZM184.266 30.9224V33H183.814V30.3584H184.241L184.266 30.9224ZM184.158 31.5791L183.97 31.5718C183.972 31.3911 183.999 31.2243 184.051 31.0713C184.103 30.9167 184.176 30.7824 184.271 30.6685C184.365 30.5545 184.477 30.4666 184.607 30.4048C184.739 30.3413 184.885 30.3096 185.044 30.3096C185.175 30.3096 185.292 30.3275 185.396 30.3633C185.5 30.3975 185.589 30.4528 185.662 30.5293C185.737 30.6058 185.794 30.7051 185.833 30.8271C185.872 30.9476 185.892 31.0949 185.892 31.269V33H185.438V31.2642C185.438 31.1258 185.417 31.0151 185.376 30.9321C185.336 30.8475 185.276 30.7865 185.198 30.749C185.12 30.71 185.024 30.6904 184.91 30.6904C184.798 30.6904 184.695 30.714 184.603 30.7612C184.511 30.8084 184.432 30.8735 184.366 30.9565C184.301 31.0396 184.249 31.1348 184.212 31.2422C184.176 31.348 184.158 31.4603 184.158 31.5791ZM188.194 32.3896V30.3584H188.648V33H188.216L188.194 32.3896ZM188.279 31.833L188.467 31.8281C188.467 32.0039 188.449 32.1667 188.411 32.3164C188.375 32.4645 188.317 32.5931 188.235 32.7021C188.154 32.8112 188.047 32.8966 187.916 32.9585C187.784 33.0187 187.623 33.0488 187.435 33.0488C187.306 33.0488 187.188 33.0301 187.081 32.9927C186.975 32.9552 186.884 32.8975 186.807 32.8193C186.731 32.7412 186.671 32.6395 186.629 32.5142C186.588 32.3888 186.568 32.2383 186.568 32.0625V30.3584H187.02V32.0674C187.02 32.1862 187.033 32.2847 187.059 32.3628C187.086 32.4393 187.123 32.5003 187.168 32.5459C187.216 32.5898 187.268 32.6208 187.325 32.6387C187.383 32.6566 187.444 32.6655 187.505 32.6655C187.697 32.6655 187.85 32.6289 187.962 32.5557C188.074 32.4808 188.155 32.3807 188.204 32.2554C188.254 32.1284 188.279 31.9876 188.279 31.833ZM189.786 30.8833V33H189.332V30.3584H189.761L189.786 30.8833ZM189.693 31.5791L189.483 31.5718C189.485 31.3911 189.508 31.2243 189.554 31.0713C189.599 30.9167 189.667 30.7824 189.756 30.6685C189.846 30.5545 189.957 30.4666 190.091 30.4048C190.224 30.3413 190.379 30.3096 190.555 30.3096C190.678 30.3096 190.792 30.3275 190.896 30.3633C191.001 30.3975 191.091 30.452 191.167 30.5269C191.244 30.6017 191.303 30.6978 191.346 30.8149C191.388 30.9321 191.409 31.0737 191.409 31.2397V33H190.958V31.2617C190.958 31.1234 190.934 31.0127 190.887 30.9297C190.841 30.8467 190.776 30.7865 190.691 30.749C190.607 30.71 190.507 30.6904 190.394 30.6904C190.26 30.6904 190.149 30.714 190.059 30.7612C189.97 30.8084 189.898 30.8735 189.844 30.9565C189.791 31.0396 189.751 31.1348 189.727 31.2422C189.704 31.348 189.693 31.4603 189.693 31.5791ZM191.404 31.3301L191.102 31.4229C191.103 31.278 191.127 31.1388 191.172 31.0054C191.22 30.8719 191.287 30.7531 191.375 30.6489C191.465 30.5448 191.574 30.4626 191.705 30.4023C191.835 30.3405 191.984 30.3096 192.151 30.3096C192.293 30.3096 192.418 30.3283 192.527 30.3657C192.638 30.4032 192.731 30.4609 192.806 30.5391C192.882 30.6156 192.94 30.714 192.979 30.8345C193.018 30.9549 193.038 31.0981 193.038 31.2642V33H192.583V31.2593C192.583 31.1112 192.56 30.9964 192.513 30.915C192.467 30.832 192.402 30.7743 192.317 30.7417C192.234 30.7075 192.135 30.6904 192.02 30.6904C191.92 30.6904 191.832 30.7075 191.756 30.7417C191.679 30.7759 191.615 30.8231 191.563 30.8833C191.511 30.9419 191.471 31.0094 191.443 31.0859C191.417 31.1624 191.404 31.2438 191.404 31.3301ZM193.719 29.25H194.173V32.4873L194.134 33H193.719V29.25ZM195.958 31.6572V31.7085C195.958 31.9006 195.935 32.0788 195.889 32.2432C195.844 32.4059 195.777 32.5475 195.689 32.668C195.601 32.7884 195.494 32.882 195.367 32.9487C195.24 33.0155 195.094 33.0488 194.93 33.0488C194.762 33.0488 194.615 33.0203 194.488 32.9634C194.362 32.9048 194.257 32.821 194.17 32.7119C194.084 32.6029 194.015 32.471 193.963 32.3164C193.912 32.1618 193.877 31.9876 193.858 31.7939V31.5693C193.877 31.374 193.912 31.1991 193.963 31.0444C194.015 30.8898 194.084 30.758 194.17 30.6489C194.257 30.5382 194.362 30.4544 194.488 30.3975C194.613 30.3389 194.759 30.3096 194.925 30.3096C195.091 30.3096 195.238 30.3421 195.367 30.4072C195.495 30.4707 195.603 30.5618 195.689 30.6807C195.777 30.7995 195.844 30.9419 195.889 31.1079C195.935 31.2723 195.958 31.4554 195.958 31.6572ZM195.503 31.7085V31.6572C195.503 31.5254 195.491 31.4017 195.467 31.2861C195.442 31.1689 195.403 31.0664 195.35 30.9785C195.296 30.889 195.225 30.819 195.137 30.7686C195.049 30.7165 194.941 30.6904 194.812 30.6904C194.699 30.6904 194.599 30.71 194.515 30.749C194.432 30.7881 194.361 30.841 194.302 30.9077C194.244 30.9728 194.196 31.0477 194.158 31.1323C194.122 31.2153 194.096 31.3016 194.078 31.3911V31.9795C194.104 32.0934 194.146 32.2033 194.205 32.3091C194.265 32.4132 194.345 32.4987 194.444 32.5654C194.545 32.6322 194.669 32.6655 194.817 32.6655C194.939 32.6655 195.044 32.6411 195.13 32.5923C195.218 32.5418 195.289 32.4727 195.342 32.3848C195.398 32.2969 195.438 32.1951 195.464 32.0796C195.49 31.964 195.503 31.8403 195.503 31.7085ZM197.625 33.0488C197.441 33.0488 197.274 33.0179 197.125 32.9561C196.976 32.8926 196.849 32.8039 196.741 32.6899C196.635 32.576 196.554 32.4409 196.497 32.2847C196.44 32.1284 196.412 31.9575 196.412 31.772V31.6694C196.412 31.4546 196.443 31.2633 196.507 31.0957C196.57 30.9264 196.657 30.7832 196.766 30.666C196.875 30.5488 196.998 30.4601 197.137 30.3999C197.275 30.3397 197.418 30.3096 197.566 30.3096C197.755 30.3096 197.918 30.3421 198.055 30.4072C198.193 30.4723 198.306 30.5635 198.394 30.6807C198.482 30.7962 198.547 30.9329 198.589 31.0908C198.632 31.2471 198.653 31.418 198.653 31.6035V31.8062H196.68V31.4375H198.201V31.4033C198.195 31.2861 198.17 31.1722 198.128 31.0615C198.087 30.9508 198.022 30.8597 197.933 30.7881C197.843 30.7165 197.721 30.6807 197.566 30.6807C197.464 30.6807 197.369 30.7026 197.283 30.7466C197.197 30.7889 197.123 30.8524 197.061 30.937C196.999 31.0216 196.951 31.125 196.917 31.2471C196.883 31.3691 196.866 31.5099 196.866 31.6694V31.772C196.866 31.8973 196.883 32.0153 196.917 32.126C196.953 32.235 197.004 32.3311 197.071 32.4141C197.139 32.4971 197.221 32.5622 197.317 32.6094C197.415 32.6566 197.526 32.6802 197.649 32.6802C197.809 32.6802 197.944 32.6476 198.055 32.5825C198.165 32.5174 198.262 32.4303 198.345 32.3213L198.619 32.5386C198.562 32.6248 198.489 32.707 198.401 32.7852C198.313 32.8633 198.205 32.9268 198.077 32.9756C197.95 33.0244 197.799 33.0488 197.625 33.0488ZM199.632 30.7734V33H199.18V30.3584H199.62L199.632 30.7734ZM200.457 30.3438L200.455 30.7637C200.417 30.7555 200.381 30.7507 200.347 30.749C200.315 30.7458 200.277 30.7441 200.235 30.7441C200.131 30.7441 200.039 30.7604 199.959 30.793C199.879 30.8255 199.812 30.8711 199.756 30.9297C199.701 30.9883 199.657 31.0583 199.625 31.1396C199.594 31.2194 199.573 31.3073 199.563 31.4033L199.437 31.4766C199.437 31.3171 199.452 31.1673 199.483 31.0273C199.515 30.8874 199.565 30.7637 199.632 30.6562C199.699 30.5472 199.783 30.4626 199.886 30.4023C199.99 30.3405 200.114 30.3096 200.257 30.3096C200.289 30.3096 200.327 30.3136 200.369 30.3218C200.411 30.3283 200.441 30.3356 200.457 30.3438Z" fill="black"/>
<rect x="152.25" y="21.25" width="8.5" height="14.5" stroke="#C0433A" stroke-width="0.5"/>
<rect x="152.25" y="21.25" width="8.5" height="14.5" stroke="#4298BD" stroke-width="0.5"/>
<rect x="152.25" y="21.25" width="8.5" height="14.5" stroke="#817033" stroke-width="0.5"/>
<path d="M83.9668 29.8696H84.4355C84.4111 30.0942 84.3468 30.2952 84.2427 30.4727C84.1385 30.6501 83.9912 30.7909 83.8008 30.895C83.6104 30.9976 83.3727 31.0488 83.0879 31.0488C82.8796 31.0488 82.6899 31.0098 82.519 30.9316C82.3498 30.8535 82.2041 30.7428 82.082 30.5996C81.96 30.4548 81.8656 30.2814 81.7988 30.0796C81.7337 29.8761 81.7012 29.6499 81.7012 29.4009V29.0469C81.7012 28.7979 81.7337 28.5724 81.7988 28.3706C81.8656 28.1672 81.9608 27.993 82.0845 27.8481C82.2098 27.7033 82.3604 27.5918 82.5361 27.5137C82.7119 27.4355 82.9097 27.3965 83.1294 27.3965C83.3979 27.3965 83.625 27.4469 83.8105 27.5479C83.9961 27.6488 84.1401 27.7887 84.2427 27.9678C84.3468 28.1452 84.4111 28.3511 84.4355 28.5854H83.9668C83.944 28.4194 83.9017 28.277 83.8398 28.1582C83.778 28.0378 83.6901 27.945 83.5762 27.8799C83.4622 27.8148 83.3133 27.7822 83.1294 27.7822C82.9715 27.7822 82.8324 27.8123 82.7119 27.8726C82.5931 27.9328 82.493 28.0182 82.4116 28.1289C82.3319 28.2396 82.2716 28.3722 82.231 28.5269C82.1903 28.6815 82.1699 28.8532 82.1699 29.042V29.4009C82.1699 29.575 82.1878 29.7386 82.2236 29.8916C82.2611 30.0446 82.3172 30.1789 82.3921 30.2944C82.467 30.41 82.5622 30.5011 82.6777 30.5679C82.7933 30.633 82.93 30.6655 83.0879 30.6655C83.2881 30.6655 83.4476 30.6338 83.5664 30.5703C83.6852 30.5068 83.7747 30.4157 83.835 30.2969C83.8968 30.1781 83.9408 30.0356 83.9668 29.8696ZM84.8896 29.7085V29.6523C84.8896 29.4619 84.9173 29.2853 84.9727 29.1226C85.028 28.9582 85.1077 28.8158 85.2119 28.6953C85.3161 28.5732 85.4422 28.4788 85.5903 28.4121C85.7384 28.3438 85.9045 28.3096 86.0884 28.3096C86.2739 28.3096 86.4408 28.3438 86.5889 28.4121C86.7386 28.4788 86.8656 28.5732 86.9697 28.6953C87.0755 28.8158 87.1561 28.9582 87.2114 29.1226C87.2668 29.2853 87.2944 29.4619 87.2944 29.6523V29.7085C87.2944 29.8989 87.2668 30.0755 87.2114 30.2383C87.1561 30.401 87.0755 30.5435 86.9697 30.6655C86.8656 30.786 86.7394 30.8804 86.5913 30.9487C86.4448 31.0155 86.2788 31.0488 86.0933 31.0488C85.9077 31.0488 85.7409 31.0155 85.5928 30.9487C85.4447 30.8804 85.3177 30.786 85.2119 30.6655C85.1077 30.5435 85.028 30.401 84.9727 30.2383C84.9173 30.0755 84.8896 29.8989 84.8896 29.7085ZM85.3413 29.6523V29.7085C85.3413 29.8403 85.3568 29.9648 85.3877 30.082C85.4186 30.1976 85.465 30.3001 85.5269 30.3896C85.5903 30.4792 85.6693 30.55 85.7637 30.6021C85.8581 30.6525 85.9679 30.6777 86.0933 30.6777C86.217 30.6777 86.3252 30.6525 86.418 30.6021C86.5124 30.55 86.5905 30.4792 86.6523 30.3896C86.7142 30.3001 86.7606 30.1976 86.7915 30.082C86.8241 29.9648 86.8403 29.8403 86.8403 29.7085V29.6523C86.8403 29.5221 86.8241 29.3993 86.7915 29.2837C86.7606 29.1665 86.7134 29.0632 86.6499 28.9736C86.5881 28.8825 86.5099 28.8109 86.4155 28.7588C86.3228 28.7067 86.2137 28.6807 86.0884 28.6807C85.9647 28.6807 85.8556 28.7067 85.7612 28.7588C85.6685 28.8109 85.5903 28.8825 85.5269 28.9736C85.465 29.0632 85.4186 29.1665 85.3877 29.2837C85.3568 29.3993 85.3413 29.5221 85.3413 29.6523ZM88.3101 28.8833V31H87.856V28.3584H88.2856L88.3101 28.8833ZM88.2173 29.5791L88.0073 29.5718C88.009 29.3911 88.0326 29.2243 88.0781 29.0713C88.1237 28.9167 88.1912 28.7824 88.2808 28.6685C88.3703 28.5545 88.4818 28.4666 88.6152 28.4048C88.7487 28.3413 88.9033 28.3096 89.0791 28.3096C89.2028 28.3096 89.3167 28.3275 89.4209 28.3633C89.5251 28.3975 89.6154 28.452 89.6919 28.5269C89.7684 28.6017 89.8278 28.6978 89.8701 28.8149C89.9124 28.9321 89.9336 29.0737 89.9336 29.2397V31H89.4819V29.2617C89.4819 29.1234 89.4583 29.0127 89.4111 28.9297C89.3656 28.8467 89.3005 28.7865 89.2158 28.749C89.1312 28.71 89.0319 28.6904 88.918 28.6904C88.7845 28.6904 88.673 28.714 88.5835 28.7612C88.494 28.8084 88.4224 28.8735 88.3687 28.9565C88.3149 29.0396 88.2759 29.1348 88.2515 29.2422C88.2287 29.348 88.2173 29.4603 88.2173 29.5791ZM89.9287 29.3301L89.626 29.4229C89.6276 29.278 89.6512 29.1388 89.6968 29.0054C89.744 28.8719 89.8115 28.7531 89.8994 28.6489C89.9889 28.5448 90.0988 28.4626 90.229 28.4023C90.3592 28.3405 90.5081 28.3096 90.6758 28.3096C90.8174 28.3096 90.9427 28.3283 91.0518 28.3657C91.1624 28.4032 91.2552 28.4609 91.3301 28.5391C91.4066 28.6156 91.4644 28.714 91.5034 28.8345C91.5425 28.9549 91.562 29.0981 91.562 29.2642V31H91.1079V29.2593C91.1079 29.1112 91.0843 28.9964 91.0371 28.915C90.9915 28.832 90.9264 28.7743 90.8418 28.7417C90.7588 28.7075 90.6595 28.6904 90.5439 28.6904C90.4447 28.6904 90.3568 28.7075 90.2803 28.7417C90.2038 28.7759 90.1395 28.8231 90.0874 28.8833C90.0353 28.9419 89.9954 29.0094 89.9678 29.0859C89.9417 29.1624 89.9287 29.2438 89.9287 29.3301ZM92.6948 28.8833V31H92.2407V28.3584H92.6704L92.6948 28.8833ZM92.6021 29.5791L92.3921 29.5718C92.3937 29.3911 92.4173 29.2243 92.4629 29.0713C92.5085 28.9167 92.576 28.7824 92.6655 28.6685C92.755 28.5545 92.8665 28.4666 93 28.4048C93.1335 28.3413 93.2881 28.3096 93.4639 28.3096C93.5876 28.3096 93.7015 28.3275 93.8057 28.3633C93.9098 28.3975 94.0002 28.452 94.0767 28.5269C94.1532 28.6017 94.2126 28.6978 94.2549 28.8149C94.2972 28.9321 94.3184 29.0737 94.3184 29.2397V31H93.8667V29.2617C93.8667 29.1234 93.8431 29.0127 93.7959 28.9297C93.7503 28.8467 93.6852 28.7865 93.6006 28.749C93.516 28.71 93.4167 28.6904 93.3027 28.6904C93.1693 28.6904 93.0578 28.714 92.9683 28.7612C92.8787 28.8084 92.8071 28.8735 92.7534 28.9565C92.6997 29.0396 92.6606 29.1348 92.6362 29.2422C92.6134 29.348 92.6021 29.4603 92.6021 29.5791ZM94.3135 29.3301L94.0107 29.4229C94.0124 29.278 94.036 29.1388 94.0815 29.0054C94.1287 28.8719 94.1963 28.7531 94.2842 28.6489C94.3737 28.5448 94.4836 28.4626 94.6138 28.4023C94.744 28.3405 94.8929 28.3096 95.0605 28.3096C95.2021 28.3096 95.3275 28.3283 95.4365 28.3657C95.5472 28.4032 95.64 28.4609 95.7148 28.5391C95.7913 28.6156 95.8491 28.714 95.8882 28.8345C95.9272 28.9549 95.9468 29.0981 95.9468 29.2642V31H95.4927V29.2593C95.4927 29.1112 95.4691 28.9964 95.4219 28.915C95.3763 28.832 95.3112 28.7743 95.2266 28.7417C95.1436 28.7075 95.0443 28.6904 94.9287 28.6904C94.8294 28.6904 94.7415 28.7075 94.665 28.7417C94.5885 28.7759 94.5243 28.8231 94.4722 28.8833C94.4201 28.9419 94.3802 29.0094 94.3525 29.0859C94.3265 29.1624 94.3135 29.2438 94.3135 29.3301ZM98.188 30.5483V29.1885C98.188 29.0843 98.1668 28.994 98.1245 28.9175C98.0838 28.8394 98.022 28.7791 97.939 28.7368C97.856 28.6945 97.7534 28.6733 97.6313 28.6733C97.5174 28.6733 97.4173 28.6929 97.3311 28.7319C97.2464 28.771 97.1797 28.8223 97.1309 28.8857C97.0837 28.9492 97.0601 29.0176 97.0601 29.0908H96.6084C96.6084 28.9964 96.6328 28.9028 96.6816 28.8101C96.7305 28.7173 96.8005 28.6335 96.8916 28.5586C96.9844 28.4821 97.0951 28.4219 97.2236 28.3779C97.3538 28.3324 97.4987 28.3096 97.6582 28.3096C97.8503 28.3096 98.0195 28.3421 98.166 28.4072C98.3141 28.4723 98.4297 28.5708 98.5127 28.7026C98.5973 28.8328 98.6396 28.9964 98.6396 29.1934V30.4238C98.6396 30.5117 98.647 30.6053 98.6616 30.7046C98.6779 30.8039 98.7015 30.8893 98.7324 30.9609V31H98.2612C98.2384 30.9479 98.2205 30.8787 98.2075 30.7925C98.1945 30.7046 98.188 30.6232 98.188 30.5483ZM98.2661 29.3984L98.271 29.7158H97.8145C97.6859 29.7158 97.5711 29.7264 97.4702 29.7476C97.3693 29.7671 97.2847 29.7972 97.2163 29.8379C97.1479 29.8786 97.0959 29.9299 97.0601 29.9917C97.0243 30.0519 97.0063 30.1227 97.0063 30.2041C97.0063 30.2871 97.0251 30.3628 97.0625 30.4312C97.0999 30.4995 97.1561 30.554 97.231 30.5947C97.3075 30.6338 97.401 30.6533 97.5117 30.6533C97.6501 30.6533 97.7721 30.624 97.8779 30.5654C97.9837 30.5068 98.0675 30.4352 98.1294 30.3506C98.1929 30.266 98.2271 30.1838 98.2319 30.104L98.4248 30.3213C98.4134 30.3896 98.3825 30.4653 98.332 30.5483C98.2816 30.6313 98.214 30.7111 98.1294 30.7876C98.0464 30.8625 97.9471 30.9251 97.8315 30.9756C97.7176 31.0244 97.589 31.0488 97.4458 31.0488C97.2668 31.0488 97.1097 31.0138 96.9746 30.9438C96.8411 30.8739 96.737 30.7803 96.6621 30.6631C96.5889 30.5443 96.5522 30.4116 96.5522 30.2651C96.5522 30.1235 96.5799 29.999 96.6353 29.8916C96.6906 29.7826 96.7703 29.6922 96.8745 29.6206C96.9787 29.5474 97.104 29.492 97.2505 29.4546C97.397 29.4172 97.5605 29.3984 97.7412 29.3984H98.2661ZM99.8018 28.9224V31H99.3501V28.3584H99.7773L99.8018 28.9224ZM99.6943 29.5791L99.5063 29.5718C99.508 29.3911 99.5348 29.2243 99.5869 29.0713C99.639 28.9167 99.7122 28.7824 99.8066 28.6685C99.901 28.5545 100.013 28.4666 100.144 28.4048C100.275 28.3413 100.421 28.3096 100.581 28.3096C100.711 28.3096 100.828 28.3275 100.932 28.3633C101.036 28.3975 101.125 28.4528 101.198 28.5293C101.273 28.6058 101.33 28.7051 101.369 28.8271C101.408 28.9476 101.428 29.0949 101.428 29.269V31H100.974V29.2642C100.974 29.1258 100.953 29.0151 100.913 28.9321C100.872 28.8475 100.812 28.7865 100.734 28.749C100.656 28.71 100.56 28.6904 100.446 28.6904C100.334 28.6904 100.231 28.714 100.139 28.7612C100.048 28.8084 99.9686 28.8735 99.9019 28.9565C99.8368 29.0396 99.7855 29.1348 99.748 29.2422C99.7122 29.348 99.6943 29.4603 99.6943 29.5791ZM103.779 30.4873V27.25H104.233V31H103.818L103.779 30.4873ZM102.001 29.7085V29.6572C102.001 29.4554 102.026 29.2723 102.075 29.1079C102.125 28.9419 102.196 28.7995 102.287 28.6807C102.38 28.5618 102.49 28.4707 102.617 28.4072C102.745 28.3421 102.889 28.3096 103.046 28.3096C103.212 28.3096 103.357 28.3389 103.481 28.3975C103.606 28.4544 103.712 28.5382 103.798 28.6489C103.886 28.758 103.955 28.8898 104.006 29.0444C104.056 29.1991 104.091 29.374 104.111 29.5693V29.7939C104.093 29.9876 104.058 30.1618 104.006 30.3164C103.955 30.471 103.886 30.6029 103.798 30.7119C103.712 30.821 103.606 30.9048 103.481 30.9634C103.356 31.0203 103.209 31.0488 103.042 31.0488C102.887 31.0488 102.745 31.0155 102.617 30.9487C102.49 30.882 102.38 30.7884 102.287 30.668C102.196 30.5475 102.125 30.4059 102.075 30.2432C102.026 30.0788 102.001 29.9006 102.001 29.7085ZM102.456 29.6572V29.7085C102.456 29.8403 102.469 29.964 102.495 30.0796C102.522 30.1951 102.565 30.2969 102.622 30.3848C102.679 30.4727 102.751 30.5418 102.839 30.5923C102.927 30.6411 103.032 30.6655 103.154 30.6655C103.304 30.6655 103.426 30.6338 103.522 30.5703C103.62 30.5068 103.698 30.423 103.757 30.3188C103.815 30.2147 103.861 30.1016 103.894 29.9795V29.3911C103.874 29.3016 103.846 29.2153 103.808 29.1323C103.772 29.0477 103.725 28.9728 103.667 28.9077C103.61 28.841 103.539 28.7881 103.454 28.749C103.371 28.71 103.273 28.6904 103.159 28.6904C103.035 28.6904 102.928 28.7165 102.839 28.7686C102.751 28.819 102.679 28.889 102.622 28.9785C102.565 29.0664 102.522 29.1689 102.495 29.2861C102.469 29.4017 102.456 29.5254 102.456 29.6572Z" fill="black"/>
<rect x="126.25" y="21.25" width="23.5" height="14.5" stroke="#C0433A" stroke-width="0.5"/>
<rect x="126.25" y="21.25" width="23.5" height="14.5" stroke="#4298BD" stroke-width="0.5"/>
<rect x="126.25" y="21.25" width="23.5" height="14.5" stroke="#D9BE56" stroke-width="0.5"/>
<path d="M106.364 29L108.864 30.4434V27.5566L106.364 29ZM126.364 28.75L108.614 28.75V29.25L126.364 29.25V28.75Z" fill="#D9BE56"/>
<path d="M181 29L178.5 27.5566V30.4434L181 29ZM161 29.25H178.75V28.75H161V29.25Z" fill="#817033"/>
</svg>
