<svg width="288" height="78" viewBox="0 0 288 78" fill="none" xmlns="http://www.w3.org/2000/svg">
<rect width="288" height="78" fill="white"/>
<path d="M132.037 41.2832C132.037 41.1426 132.002 41.0156 131.932 40.9023C131.862 40.7852 131.727 40.6797 131.528 40.5859C131.332 40.4922 131.043 40.4062 130.661 40.3281C130.325 40.2539 130.016 40.166 129.735 40.0645C129.457 39.959 129.219 39.832 129.02 39.6836C128.821 39.5352 128.666 39.3594 128.557 39.1562C128.448 38.9531 128.393 38.7188 128.393 38.4531C128.393 38.1953 128.45 37.9512 128.563 37.7207C128.676 37.4902 128.838 37.2871 129.049 37.1113C129.26 36.9355 129.516 36.7969 129.817 36.6953C130.121 36.5938 130.461 36.543 130.836 36.543C131.368 36.543 131.823 36.6328 132.202 36.8125C132.584 36.9883 132.877 37.2285 133.08 37.5332C133.284 37.834 133.385 38.1738 133.385 38.5527H131.973C131.973 38.3848 131.93 38.2285 131.844 38.084C131.762 37.9355 131.637 37.8164 131.469 37.7266C131.301 37.6328 131.09 37.5859 130.836 37.5859C130.594 37.5859 130.393 37.625 130.233 37.7031C130.077 37.7773 129.959 37.875 129.881 37.9961C129.807 38.1172 129.77 38.25 129.77 38.3945C129.77 38.5 129.789 38.5957 129.829 38.6816C129.871 38.7637 129.942 38.8398 130.039 38.9102C130.137 38.9766 130.27 39.0391 130.438 39.0977C130.61 39.1562 130.825 39.2129 131.082 39.2676C131.567 39.3691 131.983 39.5 132.33 39.6602C132.682 39.8164 132.952 40.0195 133.139 40.2695C133.327 40.5156 133.42 40.8281 133.42 41.207C133.42 41.4883 133.36 41.7461 133.239 41.9805C133.121 42.2109 132.95 42.4121 132.723 42.584C132.496 42.752 132.225 42.8828 131.909 42.9766C131.596 43.0703 131.245 43.1172 130.854 43.1172C130.28 43.1172 129.793 43.0156 129.395 42.8125C128.996 42.6055 128.694 42.3418 128.487 42.0215C128.284 41.6973 128.182 41.3613 128.182 41.0137H129.547C129.563 41.2754 129.635 41.4844 129.764 41.6406C129.897 41.793 130.061 41.9043 130.256 41.9746C130.455 42.041 130.661 42.0742 130.871 42.0742C131.125 42.0742 131.338 42.041 131.51 41.9746C131.682 41.9043 131.813 41.8105 131.903 41.6934C131.993 41.5723 132.037 41.4355 132.037 41.2832ZM137.923 36.6602V37.6914H134.349V36.6602H137.923ZM135.38 35.1074H136.792V41.248C136.792 41.4434 136.819 41.5938 136.874 41.6992C136.933 41.8008 137.013 41.8691 137.114 41.9043C137.216 41.9395 137.335 41.957 137.472 41.957C137.569 41.957 137.663 41.9512 137.753 41.9395C137.843 41.9277 137.915 41.916 137.97 41.9043L137.976 42.9824C137.858 43.0176 137.722 43.0488 137.565 43.0762C137.413 43.1035 137.237 43.1172 137.038 43.1172C136.714 43.1172 136.427 43.0605 136.177 42.9473C135.927 42.8301 135.731 42.6406 135.591 42.3789C135.45 42.1172 135.38 41.7695 135.38 41.3359V35.1074ZM142.947 41.7285V38.7051C142.947 38.4785 142.906 38.2832 142.824 38.1191C142.742 37.9551 142.617 37.8281 142.449 37.7383C142.285 37.6484 142.078 37.6035 141.828 37.6035C141.597 37.6035 141.398 37.6426 141.23 37.7207C141.062 37.7988 140.931 37.9043 140.838 38.0371C140.744 38.1699 140.697 38.3203 140.697 38.4883H139.291C139.291 38.2383 139.351 37.9961 139.472 37.7617C139.593 37.5273 139.769 37.3184 140 37.1348C140.23 36.9512 140.506 36.8066 140.826 36.7012C141.146 36.5957 141.506 36.543 141.904 36.543C142.381 36.543 142.802 36.623 143.17 36.7832C143.541 36.9434 143.832 37.1855 144.043 37.5098C144.257 37.8301 144.365 38.2324 144.365 38.7168V41.5352C144.365 41.8242 144.384 42.084 144.424 42.3145C144.466 42.541 144.527 42.7383 144.605 42.9062V43H143.158C143.091 42.8477 143.039 42.6543 143 42.4199C142.965 42.1816 142.947 41.9512 142.947 41.7285ZM143.152 39.1445L143.164 40.0176H142.15C141.888 40.0176 141.658 40.043 141.459 40.0938C141.259 40.1406 141.093 40.2109 140.961 40.3047C140.828 40.3984 140.728 40.5117 140.662 40.6445C140.595 40.7773 140.562 40.9277 140.562 41.0957C140.562 41.2637 140.601 41.418 140.679 41.5586C140.757 41.6953 140.871 41.8027 141.019 41.8809C141.172 41.959 141.355 41.998 141.57 41.998C141.859 41.998 142.111 41.9395 142.326 41.8223C142.545 41.7012 142.716 41.5547 142.841 41.3828C142.966 41.207 143.033 41.041 143.041 40.8848L143.498 41.5117C143.451 41.6719 143.371 41.8438 143.257 42.0273C143.144 42.2109 142.996 42.3867 142.812 42.5547C142.632 42.7188 142.416 42.8535 142.162 42.959C141.912 43.0645 141.623 43.1172 141.295 43.1172C140.881 43.1172 140.511 43.0352 140.187 42.8711C139.863 42.7031 139.609 42.4785 139.425 42.1973C139.242 41.9121 139.15 41.5898 139.15 41.2305C139.15 40.8945 139.213 40.5977 139.338 40.3398C139.466 40.0781 139.654 39.8594 139.9 39.6836C140.15 39.5078 140.455 39.375 140.814 39.2852C141.174 39.1914 141.584 39.1445 142.045 39.1445H143.152ZM147.619 37.8672V43H146.207V36.6602H147.555L147.619 37.8672ZM149.559 36.6191L149.547 37.9316C149.461 37.916 149.368 37.9043 149.266 37.8965C149.168 37.8887 149.071 37.8848 148.973 37.8848C148.731 37.8848 148.518 37.9199 148.334 37.9902C148.151 38.0566 147.996 38.1543 147.871 38.2832C147.75 38.4082 147.657 38.5605 147.59 38.7402C147.524 38.9199 147.485 39.1211 147.473 39.3438L147.151 39.3672C147.151 38.9688 147.19 38.5996 147.268 38.2598C147.346 37.9199 147.463 37.6211 147.619 37.3633C147.78 37.1055 147.979 36.9043 148.217 36.7598C148.459 36.6152 148.739 36.543 149.055 36.543C149.141 36.543 149.233 36.5508 149.33 36.5664C149.432 36.582 149.508 36.5996 149.559 36.6191ZM157.925 34.4395V43H156.513V36.1152L154.421 36.8242V35.6582L157.755 34.4395H157.925Z" fill="black"/>
<path d="M185.28 33.4453H186.457C186.724 33.4453 186.949 33.486 187.133 33.5674C187.319 33.6488 187.46 33.7692 187.556 33.9287C187.653 34.0866 187.702 34.2811 187.702 34.5122C187.702 34.675 187.669 34.8239 187.602 34.959C187.537 35.0924 187.443 35.2064 187.319 35.3008C187.197 35.3936 187.05 35.4627 186.879 35.5083L186.748 35.5596H185.642L185.637 35.1763H186.472C186.641 35.1763 186.782 35.147 186.894 35.0884C187.006 35.0282 187.091 34.9476 187.148 34.8467C187.205 34.7458 187.233 34.6343 187.233 34.5122C187.233 34.3755 187.207 34.2559 187.153 34.1533C187.099 34.0508 187.014 33.9718 186.899 33.9165C186.785 33.8595 186.638 33.8311 186.457 33.8311H185.751V37H185.28V33.4453ZM187.358 37L186.494 35.3887L186.984 35.3862L187.861 36.9707V37H187.358ZM189.389 37.0488C189.205 37.0488 189.038 37.0179 188.889 36.9561C188.741 36.8926 188.613 36.8039 188.505 36.6899C188.4 36.576 188.318 36.4409 188.261 36.2847C188.204 36.1284 188.176 35.9575 188.176 35.772V35.6694C188.176 35.4546 188.208 35.2633 188.271 35.0957C188.334 34.9264 188.421 34.7832 188.53 34.666C188.639 34.5488 188.763 34.4601 188.901 34.3999C189.039 34.3397 189.182 34.3096 189.331 34.3096C189.519 34.3096 189.682 34.3421 189.819 34.4072C189.957 34.4723 190.07 34.5635 190.158 34.6807C190.246 34.7962 190.311 34.9329 190.354 35.0908C190.396 35.2471 190.417 35.418 190.417 35.6035V35.8062H188.444V35.4375H189.965V35.4033C189.959 35.2861 189.934 35.1722 189.892 35.0615C189.851 34.9508 189.786 34.8597 189.697 34.7881C189.607 34.7165 189.485 34.6807 189.331 34.6807C189.228 34.6807 189.134 34.7026 189.047 34.7466C188.961 34.7889 188.887 34.8524 188.825 34.937C188.763 35.0216 188.715 35.125 188.681 35.2471C188.647 35.3691 188.63 35.5099 188.63 35.6694V35.772C188.63 35.8973 188.647 36.0153 188.681 36.126C188.717 36.235 188.768 36.3311 188.835 36.4141C188.903 36.4971 188.986 36.5622 189.082 36.6094C189.179 36.6566 189.29 36.6802 189.414 36.6802C189.573 36.6802 189.708 36.6476 189.819 36.5825C189.93 36.5174 190.026 36.4303 190.109 36.3213L190.383 36.5386C190.326 36.6248 190.253 36.707 190.166 36.7852C190.078 36.8633 189.969 36.9268 189.841 36.9756C189.714 37.0244 189.563 37.0488 189.389 37.0488ZM192.001 36.6777C192.109 36.6777 192.208 36.6558 192.299 36.6118C192.39 36.5679 192.465 36.5076 192.524 36.4312C192.583 36.353 192.616 36.2643 192.624 36.165H193.054C193.046 36.3213 192.993 36.467 192.895 36.6021C192.799 36.7355 192.673 36.8438 192.517 36.9268C192.36 37.0081 192.189 37.0488 192.001 37.0488C191.803 37.0488 191.63 37.0138 191.481 36.9438C191.335 36.8739 191.213 36.7778 191.115 36.6558C191.019 36.5337 190.947 36.3937 190.898 36.2358C190.851 36.0763 190.827 35.9079 190.827 35.7305V35.6279C190.827 35.4505 190.851 35.2829 190.898 35.125C190.947 34.9655 191.019 34.8247 191.115 34.7026C191.213 34.5806 191.335 34.4845 191.481 34.4146C191.63 34.3446 191.803 34.3096 192.001 34.3096C192.208 34.3096 192.389 34.3519 192.543 34.4365C192.698 34.5195 192.819 34.6335 192.907 34.7783C192.997 34.9215 193.046 35.0843 193.054 35.2666H192.624C192.616 35.1576 192.585 35.0591 192.531 34.9712C192.479 34.8833 192.408 34.8133 192.316 34.7612C192.227 34.7075 192.122 34.6807 192.001 34.6807C191.863 34.6807 191.747 34.7083 191.652 34.7637C191.56 34.8174 191.486 34.8906 191.43 34.9834C191.376 35.0745 191.337 35.1763 191.313 35.2886C191.29 35.3993 191.279 35.5124 191.279 35.6279V35.7305C191.279 35.846 191.29 35.96 191.313 36.0723C191.336 36.1846 191.374 36.2863 191.428 36.3774C191.483 36.4686 191.557 36.5418 191.65 36.5972C191.744 36.6509 191.861 36.6777 192.001 36.6777ZM194.052 34.3584V37H193.598V34.3584H194.052ZM193.564 33.6577C193.564 33.5845 193.586 33.5226 193.63 33.4722C193.675 33.4217 193.742 33.3965 193.83 33.3965C193.916 33.3965 193.982 33.4217 194.028 33.4722C194.075 33.5226 194.099 33.5845 194.099 33.6577C194.099 33.7277 194.075 33.7879 194.028 33.8384C193.982 33.8872 193.916 33.9116 193.83 33.9116C193.742 33.9116 193.675 33.8872 193.63 33.8384C193.586 33.7879 193.564 33.7277 193.564 33.6577ZM195.229 34.8662V38.0156H194.775V34.3584H195.19L195.229 34.8662ZM197.009 35.6572V35.7085C197.009 35.9006 196.986 36.0788 196.94 36.2432C196.895 36.4059 196.828 36.5475 196.74 36.668C196.654 36.7884 196.547 36.882 196.42 36.9487C196.293 37.0155 196.148 37.0488 195.983 37.0488C195.816 37.0488 195.668 37.0212 195.539 36.9658C195.41 36.9105 195.301 36.8299 195.212 36.7241C195.122 36.6183 195.051 36.4914 194.997 36.3433C194.945 36.1951 194.909 36.0283 194.89 35.8428V35.5693C194.909 35.374 194.946 35.1991 195 35.0444C195.053 34.8898 195.124 34.758 195.212 34.6489C195.301 34.5382 195.41 34.4544 195.537 34.3975C195.664 34.3389 195.81 34.3096 195.976 34.3096C196.142 34.3096 196.289 34.3421 196.418 34.4072C196.547 34.4707 196.655 34.5618 196.743 34.6807C196.831 34.7995 196.896 34.9419 196.94 35.1079C196.986 35.2723 197.009 35.4554 197.009 35.6572ZM196.555 35.7085V35.6572C196.555 35.5254 196.541 35.4017 196.513 35.2861C196.486 35.1689 196.442 35.0664 196.384 34.9785C196.327 34.889 196.254 34.819 196.164 34.7686C196.075 34.7165 195.968 34.6904 195.844 34.6904C195.73 34.6904 195.631 34.71 195.546 34.749C195.463 34.7881 195.393 34.841 195.334 34.9077C195.275 34.9728 195.227 35.0477 195.19 35.1323C195.154 35.2153 195.127 35.3016 195.109 35.3911V36.0234C195.142 36.1374 195.188 36.2448 195.246 36.3457C195.305 36.445 195.383 36.5256 195.48 36.5874C195.578 36.6476 195.701 36.6777 195.849 36.6777C195.971 36.6777 196.076 36.6525 196.164 36.6021C196.254 36.55 196.327 36.4792 196.384 36.3896C196.442 36.3001 196.486 36.1976 196.513 36.082C196.541 35.9648 196.555 35.8403 196.555 35.7085ZM198.681 37.0488C198.497 37.0488 198.33 37.0179 198.181 36.9561C198.033 36.8926 197.905 36.8039 197.797 36.6899C197.692 36.576 197.61 36.4409 197.553 36.2847C197.496 36.1284 197.468 35.9575 197.468 35.772V35.6694C197.468 35.4546 197.5 35.2633 197.563 35.0957C197.626 34.9264 197.713 34.7832 197.822 34.666C197.931 34.5488 198.055 34.4601 198.193 34.3999C198.331 34.3397 198.474 34.3096 198.623 34.3096C198.811 34.3096 198.974 34.3421 199.111 34.4072C199.249 34.4723 199.362 34.5635 199.45 34.6807C199.538 34.7962 199.603 34.9329 199.646 35.0908C199.688 35.2471 199.709 35.418 199.709 35.6035V35.8062H197.736V35.4375H199.257V35.4033C199.251 35.2861 199.226 35.1722 199.184 35.0615C199.143 34.9508 199.078 34.8597 198.989 34.7881C198.899 34.7165 198.777 34.6807 198.623 34.6807C198.52 34.6807 198.426 34.7026 198.339 34.7466C198.253 34.7889 198.179 34.8524 198.117 34.937C198.055 35.0216 198.007 35.125 197.973 35.2471C197.939 35.3691 197.922 35.5099 197.922 35.6694V35.772C197.922 35.8973 197.939 36.0153 197.973 36.126C198.009 36.235 198.06 36.3311 198.127 36.4141C198.195 36.4971 198.278 36.5622 198.374 36.6094C198.471 36.6566 198.582 36.6802 198.706 36.6802C198.865 36.6802 199 36.6476 199.111 36.5825C199.222 36.5174 199.318 36.4303 199.401 36.3213L199.675 36.5386C199.618 36.6248 199.545 36.707 199.458 36.7852C199.37 36.8633 199.261 36.9268 199.133 36.9756C199.006 37.0244 198.855 37.0488 198.681 37.0488ZM185.266 40.9224V43H184.814V40.3584H185.241L185.266 40.9224ZM185.158 41.5791L184.97 41.5718C184.972 41.3911 184.999 41.2243 185.051 41.0713C185.103 40.9167 185.176 40.7824 185.271 40.6685C185.365 40.5545 185.477 40.4666 185.607 40.4048C185.739 40.3413 185.885 40.3096 186.044 40.3096C186.175 40.3096 186.292 40.3275 186.396 40.3633C186.5 40.3975 186.589 40.4528 186.662 40.5293C186.737 40.6058 186.794 40.7051 186.833 40.8271C186.872 40.9476 186.892 41.0949 186.892 41.269V43H186.438V41.2642C186.438 41.1258 186.417 41.0151 186.376 40.9321C186.336 40.8475 186.276 40.7865 186.198 40.749C186.12 40.71 186.024 40.6904 185.91 40.6904C185.798 40.6904 185.695 40.714 185.603 40.7612C185.511 40.8084 185.432 40.8735 185.366 40.9565C185.301 41.0396 185.249 41.1348 185.212 41.2422C185.176 41.348 185.158 41.4603 185.158 41.5791ZM189.194 42.3896V40.3584H189.648V43H189.216L189.194 42.3896ZM189.279 41.833L189.467 41.8281C189.467 42.0039 189.449 42.1667 189.411 42.3164C189.375 42.4645 189.317 42.5931 189.235 42.7021C189.154 42.8112 189.047 42.8966 188.916 42.9585C188.784 43.0187 188.623 43.0488 188.435 43.0488C188.306 43.0488 188.188 43.0301 188.081 42.9927C187.975 42.9552 187.884 42.8975 187.807 42.8193C187.731 42.7412 187.671 42.6395 187.629 42.5142C187.588 42.3888 187.568 42.2383 187.568 42.0625V40.3584H188.02V42.0674C188.02 42.1862 188.033 42.2847 188.059 42.3628C188.086 42.4393 188.123 42.5003 188.168 42.5459C188.216 42.5898 188.268 42.6208 188.325 42.6387C188.383 42.6566 188.444 42.6655 188.505 42.6655C188.697 42.6655 188.85 42.6289 188.962 42.5557C189.074 42.4808 189.155 42.3807 189.204 42.2554C189.254 42.1284 189.279 41.9876 189.279 41.833ZM190.786 40.8833V43H190.332V40.3584H190.761L190.786 40.8833ZM190.693 41.5791L190.483 41.5718C190.485 41.3911 190.508 41.2243 190.554 41.0713C190.599 40.9167 190.667 40.7824 190.756 40.6685C190.846 40.5545 190.957 40.4666 191.091 40.4048C191.224 40.3413 191.379 40.3096 191.555 40.3096C191.678 40.3096 191.792 40.3275 191.896 40.3633C192.001 40.3975 192.091 40.452 192.167 40.5269C192.244 40.6017 192.303 40.6978 192.346 40.8149C192.388 40.9321 192.409 41.0737 192.409 41.2397V43H191.958V41.2617C191.958 41.1234 191.934 41.0127 191.887 40.9297C191.841 40.8467 191.776 40.7865 191.691 40.749C191.607 40.71 191.507 40.6904 191.394 40.6904C191.26 40.6904 191.149 40.714 191.059 40.7612C190.97 40.8084 190.898 40.8735 190.844 40.9565C190.791 41.0396 190.751 41.1348 190.727 41.2422C190.704 41.348 190.693 41.4603 190.693 41.5791ZM192.404 41.3301L192.102 41.4229C192.103 41.278 192.127 41.1388 192.172 41.0054C192.22 40.8719 192.287 40.7531 192.375 40.6489C192.465 40.5448 192.574 40.4626 192.705 40.4023C192.835 40.3405 192.984 40.3096 193.151 40.3096C193.293 40.3096 193.418 40.3283 193.527 40.3657C193.638 40.4032 193.731 40.4609 193.806 40.5391C193.882 40.6156 193.94 40.714 193.979 40.8345C194.018 40.9549 194.038 41.0981 194.038 41.2642V43H193.583V41.2593C193.583 41.1112 193.56 40.9964 193.513 40.915C193.467 40.832 193.402 40.7743 193.317 40.7417C193.234 40.7075 193.135 40.6904 193.02 40.6904C192.92 40.6904 192.832 40.7075 192.756 40.7417C192.679 40.7759 192.615 40.8231 192.563 40.8833C192.511 40.9419 192.471 41.0094 192.443 41.0859C192.417 41.1624 192.404 41.2438 192.404 41.3301ZM194.719 39.25H195.173V42.4873L195.134 43H194.719V39.25ZM196.958 41.6572V41.7085C196.958 41.9006 196.935 42.0788 196.889 42.2432C196.844 42.4059 196.777 42.5475 196.689 42.668C196.601 42.7884 196.494 42.882 196.367 42.9487C196.24 43.0155 196.094 43.0488 195.93 43.0488C195.762 43.0488 195.615 43.0203 195.488 42.9634C195.362 42.9048 195.257 42.821 195.17 42.7119C195.084 42.6029 195.015 42.471 194.963 42.3164C194.912 42.1618 194.877 41.9876 194.858 41.7939V41.5693C194.877 41.374 194.912 41.1991 194.963 41.0444C195.015 40.8898 195.084 40.758 195.17 40.6489C195.257 40.5382 195.362 40.4544 195.488 40.3975C195.613 40.3389 195.759 40.3096 195.925 40.3096C196.091 40.3096 196.238 40.3421 196.367 40.4072C196.495 40.4707 196.603 40.5618 196.689 40.6807C196.777 40.7995 196.844 40.9419 196.889 41.1079C196.935 41.2723 196.958 41.4554 196.958 41.6572ZM196.503 41.7085V41.6572C196.503 41.5254 196.491 41.4017 196.467 41.2861C196.442 41.1689 196.403 41.0664 196.35 40.9785C196.296 40.889 196.225 40.819 196.137 40.7686C196.049 40.7165 195.941 40.6904 195.812 40.6904C195.699 40.6904 195.599 40.71 195.515 40.749C195.432 40.7881 195.361 40.841 195.302 40.9077C195.244 40.9728 195.196 41.0477 195.158 41.1323C195.122 41.2153 195.096 41.3016 195.078 41.3911V41.9795C195.104 42.0934 195.146 42.2033 195.205 42.3091C195.265 42.4132 195.345 42.4987 195.444 42.5654C195.545 42.6322 195.669 42.6655 195.817 42.6655C195.939 42.6655 196.044 42.6411 196.13 42.5923C196.218 42.5418 196.289 42.4727 196.342 42.3848C196.398 42.2969 196.438 42.1951 196.464 42.0796C196.49 41.964 196.503 41.8403 196.503 41.7085ZM198.625 43.0488C198.441 43.0488 198.274 43.0179 198.125 42.9561C197.976 42.8926 197.849 42.8039 197.741 42.6899C197.635 42.576 197.554 42.4409 197.497 42.2847C197.44 42.1284 197.412 41.9575 197.412 41.772V41.6694C197.412 41.4546 197.443 41.2633 197.507 41.0957C197.57 40.9264 197.657 40.7832 197.766 40.666C197.875 40.5488 197.998 40.4601 198.137 40.3999C198.275 40.3397 198.418 40.3096 198.566 40.3096C198.755 40.3096 198.918 40.3421 199.055 40.4072C199.193 40.4723 199.306 40.5635 199.394 40.6807C199.482 40.7962 199.547 40.9329 199.589 41.0908C199.632 41.2471 199.653 41.418 199.653 41.6035V41.8062H197.68V41.4375H199.201V41.4033C199.195 41.2861 199.17 41.1722 199.128 41.0615C199.087 40.9508 199.022 40.8597 198.933 40.7881C198.843 40.7165 198.721 40.6807 198.566 40.6807C198.464 40.6807 198.369 40.7026 198.283 40.7466C198.197 40.7889 198.123 40.8524 198.061 40.937C197.999 41.0216 197.951 41.125 197.917 41.2471C197.883 41.3691 197.866 41.5099 197.866 41.6694V41.772C197.866 41.8973 197.883 42.0153 197.917 42.126C197.953 42.235 198.004 42.3311 198.071 42.4141C198.139 42.4971 198.221 42.5622 198.317 42.6094C198.415 42.6566 198.526 42.6802 198.649 42.6802C198.809 42.6802 198.944 42.6476 199.055 42.5825C199.165 42.5174 199.262 42.4303 199.345 42.3213L199.619 42.5386C199.562 42.6248 199.489 42.707 199.401 42.7852C199.313 42.8633 199.205 42.9268 199.077 42.9756C198.95 43.0244 198.799 43.0488 198.625 43.0488ZM200.632 40.7734V43H200.18V40.3584H200.62L200.632 40.7734ZM201.457 40.3438L201.455 40.7637C201.417 40.7555 201.381 40.7507 201.347 40.749C201.315 40.7458 201.277 40.7441 201.235 40.7441C201.131 40.7441 201.039 40.7604 200.959 40.793C200.879 40.8255 200.812 40.8711 200.756 40.9297C200.701 40.9883 200.657 41.0583 200.625 41.1396C200.594 41.2194 200.573 41.3073 200.563 41.4033L200.437 41.4766C200.437 41.3171 200.452 41.1673 200.483 41.0273C200.515 40.8874 200.565 40.7637 200.632 40.6562C200.699 40.5472 200.783 40.4626 200.886 40.4023C200.99 40.3405 201.114 40.3096 201.257 40.3096C201.289 40.3096 201.327 40.3136 201.369 40.3218C201.411 40.3283 201.441 40.3356 201.457 40.3438Z" fill="black"/>
<rect x="153.25" y="31.25" width="8.5" height="14.5" stroke="#C0433A" stroke-width="0.5"/>
<rect x="153.25" y="31.25" width="8.5" height="14.5" stroke="#4298BD" stroke-width="0.5"/>
<rect x="153.25" y="31.25" width="8.5" height="14.5" stroke="#817033" stroke-width="0.5"/>
<path d="M84.9668 39.8696H85.4355C85.4111 40.0942 85.3468 40.2952 85.2427 40.4727C85.1385 40.6501 84.9912 40.7909 84.8008 40.895C84.6104 40.9976 84.3727 41.0488 84.0879 41.0488C83.8796 41.0488 83.6899 41.0098 83.519 40.9316C83.3498 40.8535 83.2041 40.7428 83.082 40.5996C82.96 40.4548 82.8656 40.2814 82.7988 40.0796C82.7337 39.8761 82.7012 39.6499 82.7012 39.4009V39.0469C82.7012 38.7979 82.7337 38.5724 82.7988 38.3706C82.8656 38.1672 82.9608 37.993 83.0845 37.8481C83.2098 37.7033 83.3604 37.5918 83.5361 37.5137C83.7119 37.4355 83.9097 37.3965 84.1294 37.3965C84.3979 37.3965 84.625 37.4469 84.8105 37.5479C84.9961 37.6488 85.1401 37.7887 85.2427 37.9678C85.3468 38.1452 85.4111 38.3511 85.4355 38.5854H84.9668C84.944 38.4194 84.9017 38.277 84.8398 38.1582C84.778 38.0378 84.6901 37.945 84.5762 37.8799C84.4622 37.8148 84.3133 37.7822 84.1294 37.7822C83.9715 37.7822 83.8324 37.8123 83.7119 37.8726C83.5931 37.9328 83.493 38.0182 83.4116 38.1289C83.3319 38.2396 83.2716 38.3722 83.231 38.5269C83.1903 38.6815 83.1699 38.8532 83.1699 39.042V39.4009C83.1699 39.575 83.1878 39.7386 83.2236 39.8916C83.2611 40.0446 83.3172 40.1789 83.3921 40.2944C83.467 40.41 83.5622 40.5011 83.6777 40.5679C83.7933 40.633 83.93 40.6655 84.0879 40.6655C84.2881 40.6655 84.4476 40.6338 84.5664 40.5703C84.6852 40.5068 84.7747 40.4157 84.835 40.2969C84.8968 40.1781 84.9408 40.0356 84.9668 39.8696ZM85.8896 39.7085V39.6523C85.8896 39.4619 85.9173 39.2853 85.9727 39.1226C86.028 38.9582 86.1077 38.8158 86.2119 38.6953C86.3161 38.5732 86.4422 38.4788 86.5903 38.4121C86.7384 38.3438 86.9045 38.3096 87.0884 38.3096C87.2739 38.3096 87.4408 38.3438 87.5889 38.4121C87.7386 38.4788 87.8656 38.5732 87.9697 38.6953C88.0755 38.8158 88.1561 38.9582 88.2114 39.1226C88.2668 39.2853 88.2944 39.4619 88.2944 39.6523V39.7085C88.2944 39.8989 88.2668 40.0755 88.2114 40.2383C88.1561 40.401 88.0755 40.5435 87.9697 40.6655C87.8656 40.786 87.7394 40.8804 87.5913 40.9487C87.4448 41.0155 87.2788 41.0488 87.0933 41.0488C86.9077 41.0488 86.7409 41.0155 86.5928 40.9487C86.4447 40.8804 86.3177 40.786 86.2119 40.6655C86.1077 40.5435 86.028 40.401 85.9727 40.2383C85.9173 40.0755 85.8896 39.8989 85.8896 39.7085ZM86.3413 39.6523V39.7085C86.3413 39.8403 86.3568 39.9648 86.3877 40.082C86.4186 40.1976 86.465 40.3001 86.5269 40.3896C86.5903 40.4792 86.6693 40.55 86.7637 40.6021C86.8581 40.6525 86.9679 40.6777 87.0933 40.6777C87.217 40.6777 87.3252 40.6525 87.418 40.6021C87.5124 40.55 87.5905 40.4792 87.6523 40.3896C87.7142 40.3001 87.7606 40.1976 87.7915 40.082C87.8241 39.9648 87.8403 39.8403 87.8403 39.7085V39.6523C87.8403 39.5221 87.8241 39.3993 87.7915 39.2837C87.7606 39.1665 87.7134 39.0632 87.6499 38.9736C87.5881 38.8825 87.5099 38.8109 87.4155 38.7588C87.3228 38.7067 87.2137 38.6807 87.0884 38.6807C86.9647 38.6807 86.8556 38.7067 86.7612 38.7588C86.6685 38.8109 86.5903 38.8825 86.5269 38.9736C86.465 39.0632 86.4186 39.1665 86.3877 39.2837C86.3568 39.3993 86.3413 39.5221 86.3413 39.6523ZM89.3101 38.8833V41H88.856V38.3584H89.2856L89.3101 38.8833ZM89.2173 39.5791L89.0073 39.5718C89.009 39.3911 89.0326 39.2243 89.0781 39.0713C89.1237 38.9167 89.1912 38.7824 89.2808 38.6685C89.3703 38.5545 89.4818 38.4666 89.6152 38.4048C89.7487 38.3413 89.9033 38.3096 90.0791 38.3096C90.2028 38.3096 90.3167 38.3275 90.4209 38.3633C90.5251 38.3975 90.6154 38.452 90.6919 38.5269C90.7684 38.6017 90.8278 38.6978 90.8701 38.8149C90.9124 38.9321 90.9336 39.0737 90.9336 39.2397V41H90.4819V39.2617C90.4819 39.1234 90.4583 39.0127 90.4111 38.9297C90.3656 38.8467 90.3005 38.7865 90.2158 38.749C90.1312 38.71 90.0319 38.6904 89.918 38.6904C89.7845 38.6904 89.673 38.714 89.5835 38.7612C89.494 38.8084 89.4224 38.8735 89.3687 38.9565C89.3149 39.0396 89.2759 39.1348 89.2515 39.2422C89.2287 39.348 89.2173 39.4603 89.2173 39.5791ZM90.9287 39.3301L90.626 39.4229C90.6276 39.278 90.6512 39.1388 90.6968 39.0054C90.744 38.8719 90.8115 38.7531 90.8994 38.6489C90.9889 38.5448 91.0988 38.4626 91.229 38.4023C91.3592 38.3405 91.5081 38.3096 91.6758 38.3096C91.8174 38.3096 91.9427 38.3283 92.0518 38.3657C92.1624 38.4032 92.2552 38.4609 92.3301 38.5391C92.4066 38.6156 92.4644 38.714 92.5034 38.8345C92.5425 38.9549 92.562 39.0981 92.562 39.2642V41H92.1079V39.2593C92.1079 39.1112 92.0843 38.9964 92.0371 38.915C91.9915 38.832 91.9264 38.7743 91.8418 38.7417C91.7588 38.7075 91.6595 38.6904 91.5439 38.6904C91.4447 38.6904 91.3568 38.7075 91.2803 38.7417C91.2038 38.7759 91.1395 38.8231 91.0874 38.8833C91.0353 38.9419 90.9954 39.0094 90.9678 39.0859C90.9417 39.1624 90.9287 39.2438 90.9287 39.3301ZM93.6948 38.8833V41H93.2407V38.3584H93.6704L93.6948 38.8833ZM93.6021 39.5791L93.3921 39.5718C93.3937 39.3911 93.4173 39.2243 93.4629 39.0713C93.5085 38.9167 93.576 38.7824 93.6655 38.6685C93.755 38.5545 93.8665 38.4666 94 38.4048C94.1335 38.3413 94.2881 38.3096 94.4639 38.3096C94.5876 38.3096 94.7015 38.3275 94.8057 38.3633C94.9098 38.3975 95.0002 38.452 95.0767 38.5269C95.1532 38.6017 95.2126 38.6978 95.2549 38.8149C95.2972 38.9321 95.3184 39.0737 95.3184 39.2397V41H94.8667V39.2617C94.8667 39.1234 94.8431 39.0127 94.7959 38.9297C94.7503 38.8467 94.6852 38.7865 94.6006 38.749C94.516 38.71 94.4167 38.6904 94.3027 38.6904C94.1693 38.6904 94.0578 38.714 93.9683 38.7612C93.8787 38.8084 93.8071 38.8735 93.7534 38.9565C93.6997 39.0396 93.6606 39.1348 93.6362 39.2422C93.6134 39.348 93.6021 39.4603 93.6021 39.5791ZM95.3135 39.3301L95.0107 39.4229C95.0124 39.278 95.036 39.1388 95.0815 39.0054C95.1287 38.8719 95.1963 38.7531 95.2842 38.6489C95.3737 38.5448 95.4836 38.4626 95.6138 38.4023C95.744 38.3405 95.8929 38.3096 96.0605 38.3096C96.2021 38.3096 96.3275 38.3283 96.4365 38.3657C96.5472 38.4032 96.64 38.4609 96.7148 38.5391C96.7913 38.6156 96.8491 38.714 96.8882 38.8345C96.9272 38.9549 96.9468 39.0981 96.9468 39.2642V41H96.4927V39.2593C96.4927 39.1112 96.4691 38.9964 96.4219 38.915C96.3763 38.832 96.3112 38.7743 96.2266 38.7417C96.1436 38.7075 96.0443 38.6904 95.9287 38.6904C95.8294 38.6904 95.7415 38.7075 95.665 38.7417C95.5885 38.7759 95.5243 38.8231 95.4722 38.8833C95.4201 38.9419 95.3802 39.0094 95.3525 39.0859C95.3265 39.1624 95.3135 39.2438 95.3135 39.3301ZM99.188 40.5483V39.1885C99.188 39.0843 99.1668 38.994 99.1245 38.9175C99.0838 38.8394 99.022 38.7791 98.939 38.7368C98.856 38.6945 98.7534 38.6733 98.6313 38.6733C98.5174 38.6733 98.4173 38.6929 98.3311 38.7319C98.2464 38.771 98.1797 38.8223 98.1309 38.8857C98.0837 38.9492 98.0601 39.0176 98.0601 39.0908H97.6084C97.6084 38.9964 97.6328 38.9028 97.6816 38.8101C97.7305 38.7173 97.8005 38.6335 97.8916 38.5586C97.9844 38.4821 98.0951 38.4219 98.2236 38.3779C98.3538 38.3324 98.4987 38.3096 98.6582 38.3096C98.8503 38.3096 99.0195 38.3421 99.166 38.4072C99.3141 38.4723 99.4297 38.5708 99.5127 38.7026C99.5973 38.8328 99.6396 38.9964 99.6396 39.1934V40.4238C99.6396 40.5117 99.647 40.6053 99.6616 40.7046C99.6779 40.8039 99.7015 40.8893 99.7324 40.9609V41H99.2612C99.2384 40.9479 99.2205 40.8787 99.2075 40.7925C99.1945 40.7046 99.188 40.6232 99.188 40.5483ZM99.2661 39.3984L99.271 39.7158H98.8145C98.6859 39.7158 98.5711 39.7264 98.4702 39.7476C98.3693 39.7671 98.2847 39.7972 98.2163 39.8379C98.1479 39.8786 98.0959 39.9299 98.0601 39.9917C98.0243 40.0519 98.0063 40.1227 98.0063 40.2041C98.0063 40.2871 98.0251 40.3628 98.0625 40.4312C98.0999 40.4995 98.1561 40.554 98.231 40.5947C98.3075 40.6338 98.401 40.6533 98.5117 40.6533C98.6501 40.6533 98.7721 40.624 98.8779 40.5654C98.9837 40.5068 99.0675 40.4352 99.1294 40.3506C99.1929 40.266 99.2271 40.1838 99.2319 40.104L99.4248 40.3213C99.4134 40.3896 99.3825 40.4653 99.332 40.5483C99.2816 40.6313 99.214 40.7111 99.1294 40.7876C99.0464 40.8625 98.9471 40.9251 98.8315 40.9756C98.7176 41.0244 98.589 41.0488 98.4458 41.0488C98.2668 41.0488 98.1097 41.0138 97.9746 40.9438C97.8411 40.8739 97.737 40.7803 97.6621 40.6631C97.5889 40.5443 97.5522 40.4116 97.5522 40.2651C97.5522 40.1235 97.5799 39.999 97.6353 39.8916C97.6906 39.7826 97.7703 39.6922 97.8745 39.6206C97.9787 39.5474 98.104 39.492 98.2505 39.4546C98.397 39.4172 98.5605 39.3984 98.7412 39.3984H99.2661ZM100.802 38.9224V41H100.35V38.3584H100.777L100.802 38.9224ZM100.694 39.5791L100.506 39.5718C100.508 39.3911 100.535 39.2243 100.587 39.0713C100.639 38.9167 100.712 38.7824 100.807 38.6685C100.901 38.5545 101.013 38.4666 101.144 38.4048C101.275 38.3413 101.421 38.3096 101.581 38.3096C101.711 38.3096 101.828 38.3275 101.932 38.3633C102.036 38.3975 102.125 38.4528 102.198 38.5293C102.273 38.6058 102.33 38.7051 102.369 38.8271C102.408 38.9476 102.428 39.0949 102.428 39.269V41H101.974V39.2642C101.974 39.1258 101.953 39.0151 101.913 38.9321C101.872 38.8475 101.812 38.7865 101.734 38.749C101.656 38.71 101.56 38.6904 101.446 38.6904C101.334 38.6904 101.231 38.714 101.139 38.7612C101.048 38.8084 100.969 38.8735 100.902 38.9565C100.837 39.0396 100.785 39.1348 100.748 39.2422C100.712 39.348 100.694 39.4603 100.694 39.5791ZM104.779 40.4873V37.25H105.233V41H104.818L104.779 40.4873ZM103.001 39.7085V39.6572C103.001 39.4554 103.026 39.2723 103.075 39.1079C103.125 38.9419 103.196 38.7995 103.287 38.6807C103.38 38.5618 103.49 38.4707 103.617 38.4072C103.745 38.3421 103.889 38.3096 104.046 38.3096C104.212 38.3096 104.357 38.3389 104.481 38.3975C104.606 38.4544 104.712 38.5382 104.798 38.6489C104.886 38.758 104.955 38.8898 105.006 39.0444C105.056 39.1991 105.091 39.374 105.111 39.5693V39.7939C105.093 39.9876 105.058 40.1618 105.006 40.3164C104.955 40.471 104.886 40.6029 104.798 40.7119C104.712 40.821 104.606 40.9048 104.481 40.9634C104.356 41.0203 104.209 41.0488 104.042 41.0488C103.887 41.0488 103.745 41.0155 103.617 40.9487C103.49 40.882 103.38 40.7884 103.287 40.668C103.196 40.5475 103.125 40.4059 103.075 40.2432C103.026 40.0788 103.001 39.9006 103.001 39.7085ZM103.456 39.6572V39.7085C103.456 39.8403 103.469 39.964 103.495 40.0796C103.522 40.1951 103.565 40.2969 103.622 40.3848C103.679 40.4727 103.751 40.5418 103.839 40.5923C103.927 40.6411 104.032 40.6655 104.154 40.6655C104.304 40.6655 104.426 40.6338 104.522 40.5703C104.62 40.5068 104.698 40.423 104.757 40.3188C104.815 40.2147 104.861 40.1016 104.894 39.9795V39.3911C104.874 39.3016 104.846 39.2153 104.808 39.1323C104.772 39.0477 104.725 38.9728 104.667 38.9077C104.61 38.841 104.539 38.7881 104.454 38.749C104.371 38.71 104.273 38.6904 104.159 38.6904C104.035 38.6904 103.928 38.7165 103.839 38.7686C103.751 38.819 103.679 38.889 103.622 38.9785C103.565 39.0664 103.522 39.1689 103.495 39.2861C103.469 39.4017 103.456 39.5254 103.456 39.6572Z" fill="black"/>
<rect x="127.25" y="31.25" width="23.5" height="14.5" stroke="#C0433A" stroke-width="0.5"/>
<rect x="127.25" y="31.25" width="23.5" height="14.5" stroke="#4298BD" stroke-width="0.5"/>
<rect x="127.25" y="31.25" width="23.5" height="14.5" stroke="#D9BE56" stroke-width="0.5"/>
<path d="M107.364 39L109.864 40.4434V37.5566L107.364 39ZM127.364 38.75H109.614V39.25H127.364V38.75Z" fill="#D9BE56"/>
<path d="M182 39L179.5 37.5566V40.4434L182 39ZM162 39.25H179.75V38.75H162V39.25Z" fill="#817033"/>
</svg>
