<svg width="288" height="58" viewBox="0 0 288 58" fill="none" xmlns="http://www.w3.org/2000/svg">
<rect width="288" height="58" fill="white"/>
<path d="M125.256 30.5059V25.6602H126.674V32H125.338L125.256 30.5059ZM125.455 29.1875L125.929 29.1758C125.929 29.6016 125.883 29.9941 125.789 30.3535C125.695 30.709 125.551 31.0195 125.355 31.2852C125.16 31.5469 124.91 31.752 124.605 31.9004C124.301 32.0449 123.935 32.1172 123.51 32.1172C123.201 32.1172 122.918 32.0723 122.66 31.9824C122.402 31.8926 122.179 31.7539 121.992 31.5664C121.808 31.3789 121.666 31.1348 121.564 30.834C121.463 30.5332 121.412 30.1738 121.412 29.7559V25.6602H122.824V29.7676C122.824 29.998 122.851 30.1914 122.906 30.3477C122.961 30.5 123.035 30.623 123.129 30.7168C123.222 30.8105 123.332 30.877 123.457 30.916C123.582 30.9551 123.715 30.9746 123.855 30.9746C124.258 30.9746 124.574 30.8965 124.804 30.7402C125.039 30.5801 125.205 30.3652 125.302 30.0957C125.404 29.8262 125.455 29.5234 125.455 29.1875ZM129.881 27.0137V32H128.469V25.6602H129.799L129.881 27.0137ZM129.629 28.5957L129.172 28.5898C129.176 28.1406 129.239 27.7285 129.36 27.3535C129.485 26.9785 129.657 26.6562 129.875 26.3867C130.098 26.1172 130.364 25.9102 130.672 25.7656C130.981 25.6172 131.325 25.543 131.704 25.543C132.008 25.543 132.284 25.5859 132.53 25.6719C132.78 25.7539 132.993 25.8887 133.168 26.0762C133.348 26.2637 133.485 26.5078 133.579 26.8086C133.672 27.1055 133.719 27.4707 133.719 27.9043V32H132.301V27.8984C132.301 27.5938 132.256 27.3535 132.166 27.1777C132.08 26.998 131.954 26.8711 131.786 26.7969C131.621 26.7188 131.416 26.6797 131.17 26.6797C130.928 26.6797 130.711 26.7305 130.52 26.832C130.329 26.9336 130.166 27.0723 130.034 27.248C129.905 27.4238 129.805 27.627 129.735 27.8574C129.664 28.0879 129.629 28.334 129.629 28.5957ZM139.077 30.2832C139.077 30.1426 139.042 30.0156 138.972 29.9023C138.901 29.7852 138.767 29.6797 138.567 29.5859C138.372 29.4922 138.083 29.4062 137.7 29.3281C137.364 29.2539 137.056 29.166 136.774 29.0645C136.497 28.959 136.259 28.832 136.06 28.6836C135.86 28.5352 135.706 28.3594 135.597 28.1562C135.487 27.9531 135.433 27.7188 135.433 27.4531C135.433 27.1953 135.489 26.9512 135.603 26.7207C135.716 26.4902 135.878 26.2871 136.089 26.1113C136.3 25.9355 136.556 25.7969 136.856 25.6953C137.161 25.5938 137.501 25.543 137.876 25.543C138.407 25.543 138.862 25.6328 139.241 25.8125C139.624 25.9883 139.917 26.2285 140.12 26.5332C140.323 26.834 140.425 27.1738 140.425 27.5527H139.013C139.013 27.3848 138.97 27.2285 138.884 27.084C138.802 26.9355 138.677 26.8164 138.509 26.7266C138.341 26.6328 138.13 26.5859 137.876 26.5859C137.634 26.5859 137.433 26.625 137.272 26.7031C137.116 26.7773 136.999 26.875 136.921 26.9961C136.847 27.1172 136.81 27.25 136.81 27.3945C136.81 27.5 136.829 27.5957 136.868 27.6816C136.911 27.7637 136.981 27.8398 137.079 27.9102C137.177 27.9766 137.31 28.0391 137.478 28.0977C137.649 28.1562 137.864 28.2129 138.122 28.2676C138.606 28.3691 139.022 28.5 139.37 28.6602C139.722 28.8164 139.991 29.0195 140.179 29.2695C140.366 29.5156 140.46 29.8281 140.46 30.207C140.46 30.4883 140.399 30.7461 140.278 30.9805C140.161 31.2109 139.989 31.4121 139.763 31.584C139.536 31.752 139.265 31.8828 138.948 31.9766C138.636 32.0703 138.284 32.1172 137.894 32.1172C137.319 32.1172 136.833 32.0156 136.435 31.8125C136.036 31.6055 135.733 31.3418 135.526 31.0215C135.323 30.6973 135.222 30.3613 135.222 30.0137H136.587C136.603 30.2754 136.675 30.4844 136.804 30.6406C136.937 30.793 137.101 30.9043 137.296 30.9746C137.495 31.041 137.7 31.0742 137.911 31.0742C138.165 31.0742 138.378 31.041 138.55 30.9746C138.722 30.9043 138.853 30.8105 138.942 30.6934C139.032 30.5723 139.077 30.4355 139.077 30.2832ZM144.963 25.6602V26.6914H141.388V25.6602H144.963ZM142.42 24.1074H143.832V30.248C143.832 30.4434 143.859 30.5938 143.914 30.6992C143.972 30.8008 144.052 30.8691 144.154 30.9043C144.256 30.9395 144.375 30.957 144.511 30.957C144.609 30.957 144.703 30.9512 144.793 30.9395C144.882 30.9277 144.955 30.916 145.009 30.9043L145.015 31.9824C144.898 32.0176 144.761 32.0488 144.605 32.0762C144.453 32.1035 144.277 32.1172 144.078 32.1172C143.754 32.1172 143.466 32.0605 143.216 31.9473C142.966 31.8301 142.771 31.6406 142.631 31.3789C142.49 31.1172 142.42 30.7695 142.42 30.3359V24.1074ZM149.987 30.7285V27.7051C149.987 27.4785 149.946 27.2832 149.864 27.1191C149.782 26.9551 149.657 26.8281 149.489 26.7383C149.325 26.6484 149.118 26.6035 148.868 26.6035C148.637 26.6035 148.438 26.6426 148.27 26.7207C148.102 26.7988 147.971 26.9043 147.877 27.0371C147.784 27.1699 147.737 27.3203 147.737 27.4883H146.33C146.33 27.2383 146.391 26.9961 146.512 26.7617C146.633 26.5273 146.809 26.3184 147.039 26.1348C147.27 25.9512 147.545 25.8066 147.866 25.7012C148.186 25.5957 148.545 25.543 148.944 25.543C149.42 25.543 149.842 25.623 150.209 25.7832C150.58 25.9434 150.871 26.1855 151.082 26.5098C151.297 26.8301 151.405 27.2324 151.405 27.7168V30.5352C151.405 30.8242 151.424 31.084 151.463 31.3145C151.506 31.541 151.567 31.7383 151.645 31.9062V32H150.198C150.131 31.8477 150.078 31.6543 150.039 31.4199C150.004 31.1816 149.987 30.9512 149.987 30.7285ZM150.192 28.1445L150.203 29.0176H149.19C148.928 29.0176 148.698 29.043 148.498 29.0938C148.299 29.1406 148.133 29.2109 148 29.3047C147.868 29.3984 147.768 29.5117 147.701 29.6445C147.635 29.7773 147.602 29.9277 147.602 30.0957C147.602 30.2637 147.641 30.418 147.719 30.5586C147.797 30.6953 147.91 30.8027 148.059 30.8809C148.211 30.959 148.395 30.998 148.61 30.998C148.899 30.998 149.151 30.9395 149.366 30.8223C149.584 30.7012 149.756 30.5547 149.881 30.3828C150.006 30.207 150.073 30.041 150.08 29.8848L150.537 30.5117C150.491 30.6719 150.41 30.8438 150.297 31.0273C150.184 31.2109 150.035 31.3867 149.852 31.5547C149.672 31.7188 149.455 31.8535 149.201 31.959C148.951 32.0645 148.662 32.1172 148.334 32.1172C147.92 32.1172 147.551 32.0352 147.227 31.8711C146.903 31.7031 146.649 31.4785 146.465 31.1973C146.282 30.9121 146.19 30.5898 146.19 30.2305C146.19 29.8945 146.252 29.5977 146.377 29.3398C146.506 29.0781 146.694 28.8594 146.94 28.6836C147.19 28.5078 147.494 28.375 147.854 28.2852C148.213 28.1914 148.623 28.1445 149.084 28.1445H150.192ZM154.659 26.8672V32H153.247V25.6602H154.595L154.659 26.8672ZM156.599 25.6191L156.587 26.9316C156.501 26.916 156.407 26.9043 156.306 26.8965C156.208 26.8887 156.11 26.8848 156.013 26.8848C155.77 26.8848 155.558 26.9199 155.374 26.9902C155.19 27.0566 155.036 27.1543 154.911 27.2832C154.79 27.4082 154.696 27.5605 154.63 27.7402C154.563 27.9199 154.524 28.1211 154.513 28.3438L154.19 28.3672C154.19 27.9688 154.229 27.5996 154.308 27.2598C154.386 26.9199 154.503 26.6211 154.659 26.3633C154.819 26.1055 155.019 25.9043 155.257 25.7598C155.499 25.6152 155.778 25.543 156.095 25.543C156.181 25.543 156.272 25.5508 156.37 25.5664C156.472 25.582 156.548 25.5996 156.599 25.6191ZM164.965 23.4395V32H163.553V25.1152L161.461 25.8242V24.6582L164.795 23.4395H164.965Z" fill="black"/>
<path d="M192.28 23.4453H193.457C193.724 23.4453 193.949 23.486 194.133 23.5674C194.319 23.6488 194.46 23.7692 194.556 23.9287C194.653 24.0866 194.702 24.2811 194.702 24.5122C194.702 24.675 194.669 24.8239 194.602 24.959C194.537 25.0924 194.443 25.2064 194.319 25.3008C194.197 25.3936 194.05 25.4627 193.879 25.5083L193.748 25.5596H192.642L192.637 25.1763H193.472C193.641 25.1763 193.782 25.147 193.894 25.0884C194.006 25.0282 194.091 24.9476 194.148 24.8467C194.205 24.7458 194.233 24.6343 194.233 24.5122C194.233 24.3755 194.207 24.2559 194.153 24.1533C194.099 24.0508 194.014 23.9718 193.899 23.9165C193.785 23.8595 193.638 23.8311 193.457 23.8311H192.751V27H192.28V23.4453ZM194.358 27L193.494 25.3887L193.984 25.3862L194.861 26.9707V27H194.358ZM196.389 27.0488C196.205 27.0488 196.038 27.0179 195.889 26.9561C195.741 26.8926 195.613 26.8039 195.505 26.6899C195.4 26.576 195.318 26.4409 195.261 26.2847C195.204 26.1284 195.176 25.9575 195.176 25.772V25.6694C195.176 25.4546 195.208 25.2633 195.271 25.0957C195.334 24.9264 195.421 24.7832 195.53 24.666C195.639 24.5488 195.763 24.4601 195.901 24.3999C196.039 24.3397 196.182 24.3096 196.331 24.3096C196.519 24.3096 196.682 24.3421 196.819 24.4072C196.957 24.4723 197.07 24.5635 197.158 24.6807C197.246 24.7962 197.311 24.9329 197.354 25.0908C197.396 25.2471 197.417 25.418 197.417 25.6035V25.8062H195.444V25.4375H196.965V25.4033C196.959 25.2861 196.934 25.1722 196.892 25.0615C196.851 24.9508 196.786 24.8597 196.697 24.7881C196.607 24.7165 196.485 24.6807 196.331 24.6807C196.228 24.6807 196.134 24.7026 196.047 24.7466C195.961 24.7889 195.887 24.8524 195.825 24.937C195.763 25.0216 195.715 25.125 195.681 25.2471C195.647 25.3691 195.63 25.5099 195.63 25.6694V25.772C195.63 25.8973 195.647 26.0153 195.681 26.126C195.717 26.235 195.768 26.3311 195.835 26.4141C195.903 26.4971 195.986 26.5622 196.082 26.6094C196.179 26.6566 196.29 26.6802 196.414 26.6802C196.573 26.6802 196.708 26.6476 196.819 26.5825C196.93 26.5174 197.026 26.4303 197.109 26.3213L197.383 26.5386C197.326 26.6248 197.253 26.707 197.166 26.7852C197.078 26.8633 196.969 26.9268 196.841 26.9756C196.714 27.0244 196.563 27.0488 196.389 27.0488ZM199.001 26.6777C199.109 26.6777 199.208 26.6558 199.299 26.6118C199.39 26.5679 199.465 26.5076 199.524 26.4312C199.583 26.353 199.616 26.2643 199.624 26.165H200.054C200.046 26.3213 199.993 26.467 199.895 26.6021C199.799 26.7355 199.673 26.8438 199.517 26.9268C199.36 27.0081 199.189 27.0488 199.001 27.0488C198.803 27.0488 198.63 27.0138 198.481 26.9438C198.335 26.8739 198.213 26.7778 198.115 26.6558C198.019 26.5337 197.947 26.3937 197.898 26.2358C197.851 26.0763 197.827 25.9079 197.827 25.7305V25.6279C197.827 25.4505 197.851 25.2829 197.898 25.125C197.947 24.9655 198.019 24.8247 198.115 24.7026C198.213 24.5806 198.335 24.4845 198.481 24.4146C198.63 24.3446 198.803 24.3096 199.001 24.3096C199.208 24.3096 199.389 24.3519 199.543 24.4365C199.698 24.5195 199.819 24.6335 199.907 24.7783C199.997 24.9215 200.046 25.0843 200.054 25.2666H199.624C199.616 25.1576 199.585 25.0591 199.531 24.9712C199.479 24.8833 199.408 24.8133 199.316 24.7612C199.227 24.7075 199.122 24.6807 199.001 24.6807C198.863 24.6807 198.747 24.7083 198.652 24.7637C198.56 24.8174 198.486 24.8906 198.43 24.9834C198.376 25.0745 198.337 25.1763 198.313 25.2886C198.29 25.3993 198.279 25.5124 198.279 25.6279V25.7305C198.279 25.846 198.29 25.96 198.313 26.0723C198.336 26.1846 198.374 26.2863 198.428 26.3774C198.483 26.4686 198.557 26.5418 198.65 26.5972C198.744 26.6509 198.861 26.6777 199.001 26.6777ZM201.052 24.3584V27H200.598V24.3584H201.052ZM200.564 23.6577C200.564 23.5845 200.586 23.5226 200.63 23.4722C200.675 23.4217 200.742 23.3965 200.83 23.3965C200.916 23.3965 200.982 23.4217 201.028 23.4722C201.075 23.5226 201.099 23.5845 201.099 23.6577C201.099 23.7277 201.075 23.7879 201.028 23.8384C200.982 23.8872 200.916 23.9116 200.83 23.9116C200.742 23.9116 200.675 23.8872 200.63 23.8384C200.586 23.7879 200.564 23.7277 200.564 23.6577ZM202.229 24.8662V28.0156H201.775V24.3584H202.19L202.229 24.8662ZM204.009 25.6572V25.7085C204.009 25.9006 203.986 26.0788 203.94 26.2432C203.895 26.4059 203.828 26.5475 203.74 26.668C203.654 26.7884 203.547 26.882 203.42 26.9487C203.293 27.0155 203.148 27.0488 202.983 27.0488C202.816 27.0488 202.668 27.0212 202.539 26.9658C202.41 26.9105 202.301 26.8299 202.212 26.7241C202.122 26.6183 202.051 26.4914 201.997 26.3433C201.945 26.1951 201.909 26.0283 201.89 25.8428V25.5693C201.909 25.374 201.946 25.1991 202 25.0444C202.053 24.8898 202.124 24.758 202.212 24.6489C202.301 24.5382 202.41 24.4544 202.537 24.3975C202.664 24.3389 202.81 24.3096 202.976 24.3096C203.142 24.3096 203.289 24.3421 203.418 24.4072C203.547 24.4707 203.655 24.5618 203.743 24.6807C203.831 24.7995 203.896 24.9419 203.94 25.1079C203.986 25.2723 204.009 25.4554 204.009 25.6572ZM203.555 25.7085V25.6572C203.555 25.5254 203.541 25.4017 203.513 25.2861C203.486 25.1689 203.442 25.0664 203.384 24.9785C203.327 24.889 203.254 24.819 203.164 24.7686C203.075 24.7165 202.968 24.6904 202.844 24.6904C202.73 24.6904 202.631 24.71 202.546 24.749C202.463 24.7881 202.393 24.841 202.334 24.9077C202.275 24.9728 202.227 25.0477 202.19 25.1323C202.154 25.2153 202.127 25.3016 202.109 25.3911V26.0234C202.142 26.1374 202.188 26.2448 202.246 26.3457C202.305 26.445 202.383 26.5256 202.48 26.5874C202.578 26.6476 202.701 26.6777 202.849 26.6777C202.971 26.6777 203.076 26.6525 203.164 26.6021C203.254 26.55 203.327 26.4792 203.384 26.3896C203.442 26.3001 203.486 26.1976 203.513 26.082C203.541 25.9648 203.555 25.8403 203.555 25.7085ZM205.681 27.0488C205.497 27.0488 205.33 27.0179 205.181 26.9561C205.033 26.8926 204.905 26.8039 204.797 26.6899C204.692 26.576 204.61 26.4409 204.553 26.2847C204.496 26.1284 204.468 25.9575 204.468 25.772V25.6694C204.468 25.4546 204.5 25.2633 204.563 25.0957C204.626 24.9264 204.713 24.7832 204.822 24.666C204.931 24.5488 205.055 24.4601 205.193 24.3999C205.331 24.3397 205.474 24.3096 205.623 24.3096C205.811 24.3096 205.974 24.3421 206.111 24.4072C206.249 24.4723 206.362 24.5635 206.45 24.6807C206.538 24.7962 206.603 24.9329 206.646 25.0908C206.688 25.2471 206.709 25.418 206.709 25.6035V25.8062H204.736V25.4375H206.257V25.4033C206.251 25.2861 206.226 25.1722 206.184 25.0615C206.143 24.9508 206.078 24.8597 205.989 24.7881C205.899 24.7165 205.777 24.6807 205.623 24.6807C205.52 24.6807 205.426 24.7026 205.339 24.7466C205.253 24.7889 205.179 24.8524 205.117 24.937C205.055 25.0216 205.007 25.125 204.973 25.2471C204.939 25.3691 204.922 25.5099 204.922 25.6694V25.772C204.922 25.8973 204.939 26.0153 204.973 26.126C205.009 26.235 205.06 26.3311 205.127 26.4141C205.195 26.4971 205.278 26.5622 205.374 26.6094C205.471 26.6566 205.582 26.6802 205.706 26.6802C205.865 26.6802 206 26.6476 206.111 26.5825C206.222 26.5174 206.318 26.4303 206.401 26.3213L206.675 26.5386C206.618 26.6248 206.545 26.707 206.458 26.7852C206.37 26.8633 206.261 26.9268 206.133 26.9756C206.006 27.0244 205.855 27.0488 205.681 27.0488ZM192.266 30.9224V33H191.814V30.3584H192.241L192.266 30.9224ZM192.158 31.5791L191.97 31.5718C191.972 31.3911 191.999 31.2243 192.051 31.0713C192.103 30.9167 192.176 30.7824 192.271 30.6685C192.365 30.5545 192.477 30.4666 192.607 30.4048C192.739 30.3413 192.885 30.3096 193.044 30.3096C193.175 30.3096 193.292 30.3275 193.396 30.3633C193.5 30.3975 193.589 30.4528 193.662 30.5293C193.737 30.6058 193.794 30.7051 193.833 30.8271C193.872 30.9476 193.892 31.0949 193.892 31.269V33H193.438V31.2642C193.438 31.1258 193.417 31.0151 193.376 30.9321C193.336 30.8475 193.276 30.7865 193.198 30.749C193.12 30.71 193.024 30.6904 192.91 30.6904C192.798 30.6904 192.695 30.714 192.603 30.7612C192.511 30.8084 192.432 30.8735 192.366 30.9565C192.301 31.0396 192.249 31.1348 192.212 31.2422C192.176 31.348 192.158 31.4603 192.158 31.5791ZM196.194 32.3896V30.3584H196.648V33H196.216L196.194 32.3896ZM196.279 31.833L196.467 31.8281C196.467 32.0039 196.449 32.1667 196.411 32.3164C196.375 32.4645 196.317 32.5931 196.235 32.7021C196.154 32.8112 196.047 32.8966 195.916 32.9585C195.784 33.0187 195.623 33.0488 195.435 33.0488C195.306 33.0488 195.188 33.0301 195.081 32.9927C194.975 32.9552 194.884 32.8975 194.807 32.8193C194.731 32.7412 194.671 32.6395 194.629 32.5142C194.588 32.3888 194.568 32.2383 194.568 32.0625V30.3584H195.02V32.0674C195.02 32.1862 195.033 32.2847 195.059 32.3628C195.086 32.4393 195.123 32.5003 195.168 32.5459C195.216 32.5898 195.268 32.6208 195.325 32.6387C195.383 32.6566 195.444 32.6655 195.505 32.6655C195.697 32.6655 195.85 32.6289 195.962 32.5557C196.074 32.4808 196.155 32.3807 196.204 32.2554C196.254 32.1284 196.279 31.9876 196.279 31.833ZM197.786 30.8833V33H197.332V30.3584H197.761L197.786 30.8833ZM197.693 31.5791L197.483 31.5718C197.485 31.3911 197.508 31.2243 197.554 31.0713C197.599 30.9167 197.667 30.7824 197.756 30.6685C197.846 30.5545 197.957 30.4666 198.091 30.4048C198.224 30.3413 198.379 30.3096 198.555 30.3096C198.678 30.3096 198.792 30.3275 198.896 30.3633C199.001 30.3975 199.091 30.452 199.167 30.5269C199.244 30.6017 199.303 30.6978 199.346 30.8149C199.388 30.9321 199.409 31.0737 199.409 31.2397V33H198.958V31.2617C198.958 31.1234 198.934 31.0127 198.887 30.9297C198.841 30.8467 198.776 30.7865 198.691 30.749C198.607 30.71 198.507 30.6904 198.394 30.6904C198.26 30.6904 198.149 30.714 198.059 30.7612C197.97 30.8084 197.898 30.8735 197.844 30.9565C197.791 31.0396 197.751 31.1348 197.727 31.2422C197.704 31.348 197.693 31.4603 197.693 31.5791ZM199.404 31.3301L199.102 31.4229C199.103 31.278 199.127 31.1388 199.172 31.0054C199.22 30.8719 199.287 30.7531 199.375 30.6489C199.465 30.5448 199.574 30.4626 199.705 30.4023C199.835 30.3405 199.984 30.3096 200.151 30.3096C200.293 30.3096 200.418 30.3283 200.527 30.3657C200.638 30.4032 200.731 30.4609 200.806 30.5391C200.882 30.6156 200.94 30.714 200.979 30.8345C201.018 30.9549 201.038 31.0981 201.038 31.2642V33H200.583V31.2593C200.583 31.1112 200.56 30.9964 200.513 30.915C200.467 30.832 200.402 30.7743 200.317 30.7417C200.234 30.7075 200.135 30.6904 200.02 30.6904C199.92 30.6904 199.832 30.7075 199.756 30.7417C199.679 30.7759 199.615 30.8231 199.563 30.8833C199.511 30.9419 199.471 31.0094 199.443 31.0859C199.417 31.1624 199.404 31.2438 199.404 31.3301ZM201.719 29.25H202.173V32.4873L202.134 33H201.719V29.25ZM203.958 31.6572V31.7085C203.958 31.9006 203.935 32.0788 203.889 32.2432C203.844 32.4059 203.777 32.5475 203.689 32.668C203.601 32.7884 203.494 32.882 203.367 32.9487C203.24 33.0155 203.094 33.0488 202.93 33.0488C202.762 33.0488 202.615 33.0203 202.488 32.9634C202.362 32.9048 202.257 32.821 202.17 32.7119C202.084 32.6029 202.015 32.471 201.963 32.3164C201.912 32.1618 201.877 31.9876 201.858 31.7939V31.5693C201.877 31.374 201.912 31.1991 201.963 31.0444C202.015 30.8898 202.084 30.758 202.17 30.6489C202.257 30.5382 202.362 30.4544 202.488 30.3975C202.613 30.3389 202.759 30.3096 202.925 30.3096C203.091 30.3096 203.238 30.3421 203.367 30.4072C203.495 30.4707 203.603 30.5618 203.689 30.6807C203.777 30.7995 203.844 30.9419 203.889 31.1079C203.935 31.2723 203.958 31.4554 203.958 31.6572ZM203.503 31.7085V31.6572C203.503 31.5254 203.491 31.4017 203.467 31.2861C203.442 31.1689 203.403 31.0664 203.35 30.9785C203.296 30.889 203.225 30.819 203.137 30.7686C203.049 30.7165 202.941 30.6904 202.812 30.6904C202.699 30.6904 202.599 30.71 202.515 30.749C202.432 30.7881 202.361 30.841 202.302 30.9077C202.244 30.9728 202.196 31.0477 202.158 31.1323C202.122 31.2153 202.096 31.3016 202.078 31.3911V31.9795C202.104 32.0934 202.146 32.2033 202.205 32.3091C202.265 32.4132 202.345 32.4987 202.444 32.5654C202.545 32.6322 202.669 32.6655 202.817 32.6655C202.939 32.6655 203.044 32.6411 203.13 32.5923C203.218 32.5418 203.289 32.4727 203.342 32.3848C203.398 32.2969 203.438 32.1951 203.464 32.0796C203.49 31.964 203.503 31.8403 203.503 31.7085ZM205.625 33.0488C205.441 33.0488 205.274 33.0179 205.125 32.9561C204.976 32.8926 204.849 32.8039 204.741 32.6899C204.635 32.576 204.554 32.4409 204.497 32.2847C204.44 32.1284 204.412 31.9575 204.412 31.772V31.6694C204.412 31.4546 204.443 31.2633 204.507 31.0957C204.57 30.9264 204.657 30.7832 204.766 30.666C204.875 30.5488 204.998 30.4601 205.137 30.3999C205.275 30.3397 205.418 30.3096 205.566 30.3096C205.755 30.3096 205.918 30.3421 206.055 30.4072C206.193 30.4723 206.306 30.5635 206.394 30.6807C206.482 30.7962 206.547 30.9329 206.589 31.0908C206.632 31.2471 206.653 31.418 206.653 31.6035V31.8062H204.68V31.4375H206.201V31.4033C206.195 31.2861 206.17 31.1722 206.128 31.0615C206.087 30.9508 206.022 30.8597 205.933 30.7881C205.843 30.7165 205.721 30.6807 205.566 30.6807C205.464 30.6807 205.369 30.7026 205.283 30.7466C205.197 30.7889 205.123 30.8524 205.061 30.937C204.999 31.0216 204.951 31.125 204.917 31.2471C204.883 31.3691 204.866 31.5099 204.866 31.6694V31.772C204.866 31.8973 204.883 32.0153 204.917 32.126C204.953 32.235 205.004 32.3311 205.071 32.4141C205.139 32.4971 205.221 32.5622 205.317 32.6094C205.415 32.6566 205.526 32.6802 205.649 32.6802C205.809 32.6802 205.944 32.6476 206.055 32.5825C206.165 32.5174 206.262 32.4303 206.345 32.3213L206.619 32.5386C206.562 32.6248 206.489 32.707 206.401 32.7852C206.313 32.8633 206.205 32.9268 206.077 32.9756C205.95 33.0244 205.799 33.0488 205.625 33.0488ZM207.632 30.7734V33H207.18V30.3584H207.62L207.632 30.7734ZM208.457 30.3438L208.455 30.7637C208.417 30.7555 208.381 30.7507 208.347 30.749C208.315 30.7458 208.277 30.7441 208.235 30.7441C208.131 30.7441 208.039 30.7604 207.959 30.793C207.879 30.8255 207.812 30.8711 207.756 30.9297C207.701 30.9883 207.657 31.0583 207.625 31.1396C207.594 31.2194 207.573 31.3073 207.563 31.4033L207.437 31.4766C207.437 31.3171 207.452 31.1673 207.483 31.0273C207.515 30.8874 207.565 30.7637 207.632 30.6562C207.699 30.5472 207.783 30.4626 207.886 30.4023C207.99 30.3405 208.114 30.3096 208.257 30.3096C208.289 30.3096 208.327 30.3136 208.369 30.3218C208.411 30.3283 208.441 30.3356 208.457 30.3438Z" fill="black"/>
<rect x="160.25" y="21.25" width="8.5" height="14.5" stroke="#C0433A" stroke-width="0.5"/>
<rect x="160.25" y="21.25" width="8.5" height="14.5" stroke="#4298BD" stroke-width="0.5"/>
<rect x="160.25" y="21.25" width="8.5" height="14.5" stroke="#817033" stroke-width="0.5"/>
<path d="M69.9668 29.8696H70.4355C70.4111 30.0942 70.3468 30.2952 70.2427 30.4727C70.1385 30.6501 69.9912 30.7909 69.8008 30.895C69.6104 30.9976 69.3727 31.0488 69.0879 31.0488C68.8796 31.0488 68.6899 31.0098 68.519 30.9316C68.3498 30.8535 68.2041 30.7428 68.082 30.5996C67.96 30.4548 67.8656 30.2814 67.7988 30.0796C67.7337 29.8761 67.7012 29.6499 67.7012 29.4009V29.0469C67.7012 28.7979 67.7337 28.5724 67.7988 28.3706C67.8656 28.1672 67.9608 27.993 68.0845 27.8481C68.2098 27.7033 68.3604 27.5918 68.5361 27.5137C68.7119 27.4355 68.9097 27.3965 69.1294 27.3965C69.3979 27.3965 69.625 27.4469 69.8105 27.5479C69.9961 27.6488 70.1401 27.7887 70.2427 27.9678C70.3468 28.1452 70.4111 28.3511 70.4355 28.5854H69.9668C69.944 28.4194 69.9017 28.277 69.8398 28.1582C69.778 28.0378 69.6901 27.945 69.5762 27.8799C69.4622 27.8148 69.3133 27.7822 69.1294 27.7822C68.9715 27.7822 68.8324 27.8123 68.7119 27.8726C68.5931 27.9328 68.493 28.0182 68.4116 28.1289C68.3319 28.2396 68.2716 28.3722 68.231 28.5269C68.1903 28.6815 68.1699 28.8532 68.1699 29.042V29.4009C68.1699 29.575 68.1878 29.7386 68.2236 29.8916C68.2611 30.0446 68.3172 30.1789 68.3921 30.2944C68.467 30.41 68.5622 30.5011 68.6777 30.5679C68.7933 30.633 68.93 30.6655 69.0879 30.6655C69.2881 30.6655 69.4476 30.6338 69.5664 30.5703C69.6852 30.5068 69.7747 30.4157 69.835 30.2969C69.8968 30.1781 69.9408 30.0356 69.9668 29.8696ZM70.8896 29.7085V29.6523C70.8896 29.4619 70.9173 29.2853 70.9727 29.1226C71.028 28.9582 71.1077 28.8158 71.2119 28.6953C71.3161 28.5732 71.4422 28.4788 71.5903 28.4121C71.7384 28.3438 71.9045 28.3096 72.0884 28.3096C72.2739 28.3096 72.4408 28.3438 72.5889 28.4121C72.7386 28.4788 72.8656 28.5732 72.9697 28.6953C73.0755 28.8158 73.1561 28.9582 73.2114 29.1226C73.2668 29.2853 73.2944 29.4619 73.2944 29.6523V29.7085C73.2944 29.8989 73.2668 30.0755 73.2114 30.2383C73.1561 30.401 73.0755 30.5435 72.9697 30.6655C72.8656 30.786 72.7394 30.8804 72.5913 30.9487C72.4448 31.0155 72.2788 31.0488 72.0933 31.0488C71.9077 31.0488 71.7409 31.0155 71.5928 30.9487C71.4447 30.8804 71.3177 30.786 71.2119 30.6655C71.1077 30.5435 71.028 30.401 70.9727 30.2383C70.9173 30.0755 70.8896 29.8989 70.8896 29.7085ZM71.3413 29.6523V29.7085C71.3413 29.8403 71.3568 29.9648 71.3877 30.082C71.4186 30.1976 71.465 30.3001 71.5269 30.3896C71.5903 30.4792 71.6693 30.55 71.7637 30.6021C71.8581 30.6525 71.9679 30.6777 72.0933 30.6777C72.217 30.6777 72.3252 30.6525 72.418 30.6021C72.5124 30.55 72.5905 30.4792 72.6523 30.3896C72.7142 30.3001 72.7606 30.1976 72.7915 30.082C72.8241 29.9648 72.8403 29.8403 72.8403 29.7085V29.6523C72.8403 29.5221 72.8241 29.3993 72.7915 29.2837C72.7606 29.1665 72.7134 29.0632 72.6499 28.9736C72.5881 28.8825 72.5099 28.8109 72.4155 28.7588C72.3228 28.7067 72.2137 28.6807 72.0884 28.6807C71.9647 28.6807 71.8556 28.7067 71.7612 28.7588C71.6685 28.8109 71.5903 28.8825 71.5269 28.9736C71.465 29.0632 71.4186 29.1665 71.3877 29.2837C71.3568 29.3993 71.3413 29.5221 71.3413 29.6523ZM74.3101 28.8833V31H73.856V28.3584H74.2856L74.3101 28.8833ZM74.2173 29.5791L74.0073 29.5718C74.009 29.3911 74.0326 29.2243 74.0781 29.0713C74.1237 28.9167 74.1912 28.7824 74.2808 28.6685C74.3703 28.5545 74.4818 28.4666 74.6152 28.4048C74.7487 28.3413 74.9033 28.3096 75.0791 28.3096C75.2028 28.3096 75.3167 28.3275 75.4209 28.3633C75.5251 28.3975 75.6154 28.452 75.6919 28.5269C75.7684 28.6017 75.8278 28.6978 75.8701 28.8149C75.9124 28.9321 75.9336 29.0737 75.9336 29.2397V31H75.4819V29.2617C75.4819 29.1234 75.4583 29.0127 75.4111 28.9297C75.3656 28.8467 75.3005 28.7865 75.2158 28.749C75.1312 28.71 75.0319 28.6904 74.918 28.6904C74.7845 28.6904 74.673 28.714 74.5835 28.7612C74.494 28.8084 74.4224 28.8735 74.3687 28.9565C74.3149 29.0396 74.2759 29.1348 74.2515 29.2422C74.2287 29.348 74.2173 29.4603 74.2173 29.5791ZM75.9287 29.3301L75.626 29.4229C75.6276 29.278 75.6512 29.1388 75.6968 29.0054C75.744 28.8719 75.8115 28.7531 75.8994 28.6489C75.9889 28.5448 76.0988 28.4626 76.229 28.4023C76.3592 28.3405 76.5081 28.3096 76.6758 28.3096C76.8174 28.3096 76.9427 28.3283 77.0518 28.3657C77.1624 28.4032 77.2552 28.4609 77.3301 28.5391C77.4066 28.6156 77.4644 28.714 77.5034 28.8345C77.5425 28.9549 77.562 29.0981 77.562 29.2642V31H77.1079V29.2593C77.1079 29.1112 77.0843 28.9964 77.0371 28.915C76.9915 28.832 76.9264 28.7743 76.8418 28.7417C76.7588 28.7075 76.6595 28.6904 76.5439 28.6904C76.4447 28.6904 76.3568 28.7075 76.2803 28.7417C76.2038 28.7759 76.1395 28.8231 76.0874 28.8833C76.0353 28.9419 75.9954 29.0094 75.9678 29.0859C75.9417 29.1624 75.9287 29.2438 75.9287 29.3301ZM78.6948 28.8833V31H78.2407V28.3584H78.6704L78.6948 28.8833ZM78.6021 29.5791L78.3921 29.5718C78.3937 29.3911 78.4173 29.2243 78.4629 29.0713C78.5085 28.9167 78.576 28.7824 78.6655 28.6685C78.755 28.5545 78.8665 28.4666 79 28.4048C79.1335 28.3413 79.2881 28.3096 79.4639 28.3096C79.5876 28.3096 79.7015 28.3275 79.8057 28.3633C79.9098 28.3975 80.0002 28.452 80.0767 28.5269C80.1532 28.6017 80.2126 28.6978 80.2549 28.8149C80.2972 28.9321 80.3184 29.0737 80.3184 29.2397V31H79.8667V29.2617C79.8667 29.1234 79.8431 29.0127 79.7959 28.9297C79.7503 28.8467 79.6852 28.7865 79.6006 28.749C79.516 28.71 79.4167 28.6904 79.3027 28.6904C79.1693 28.6904 79.0578 28.714 78.9683 28.7612C78.8787 28.8084 78.8071 28.8735 78.7534 28.9565C78.6997 29.0396 78.6606 29.1348 78.6362 29.2422C78.6134 29.348 78.6021 29.4603 78.6021 29.5791ZM80.3135 29.3301L80.0107 29.4229C80.0124 29.278 80.036 29.1388 80.0815 29.0054C80.1287 28.8719 80.1963 28.7531 80.2842 28.6489C80.3737 28.5448 80.4836 28.4626 80.6138 28.4023C80.744 28.3405 80.8929 28.3096 81.0605 28.3096C81.2021 28.3096 81.3275 28.3283 81.4365 28.3657C81.5472 28.4032 81.64 28.4609 81.7148 28.5391C81.7913 28.6156 81.8491 28.714 81.8882 28.8345C81.9272 28.9549 81.9468 29.0981 81.9468 29.2642V31H81.4927V29.2593C81.4927 29.1112 81.4691 28.9964 81.4219 28.915C81.3763 28.832 81.3112 28.7743 81.2266 28.7417C81.1436 28.7075 81.0443 28.6904 80.9287 28.6904C80.8294 28.6904 80.7415 28.7075 80.665 28.7417C80.5885 28.7759 80.5243 28.8231 80.4722 28.8833C80.4201 28.9419 80.3802 29.0094 80.3525 29.0859C80.3265 29.1624 80.3135 29.2438 80.3135 29.3301ZM84.188 30.5483V29.1885C84.188 29.0843 84.1668 28.994 84.1245 28.9175C84.0838 28.8394 84.022 28.7791 83.939 28.7368C83.856 28.6945 83.7534 28.6733 83.6313 28.6733C83.5174 28.6733 83.4173 28.6929 83.3311 28.7319C83.2464 28.771 83.1797 28.8223 83.1309 28.8857C83.0837 28.9492 83.0601 29.0176 83.0601 29.0908H82.6084C82.6084 28.9964 82.6328 28.9028 82.6816 28.8101C82.7305 28.7173 82.8005 28.6335 82.8916 28.5586C82.9844 28.4821 83.0951 28.4219 83.2236 28.3779C83.3538 28.3324 83.4987 28.3096 83.6582 28.3096C83.8503 28.3096 84.0195 28.3421 84.166 28.4072C84.3141 28.4723 84.4297 28.5708 84.5127 28.7026C84.5973 28.8328 84.6396 28.9964 84.6396 29.1934V30.4238C84.6396 30.5117 84.647 30.6053 84.6616 30.7046C84.6779 30.8039 84.7015 30.8893 84.7324 30.9609V31H84.2612C84.2384 30.9479 84.2205 30.8787 84.2075 30.7925C84.1945 30.7046 84.188 30.6232 84.188 30.5483ZM84.2661 29.3984L84.271 29.7158H83.8145C83.6859 29.7158 83.5711 29.7264 83.4702 29.7476C83.3693 29.7671 83.2847 29.7972 83.2163 29.8379C83.1479 29.8786 83.0959 29.9299 83.0601 29.9917C83.0243 30.0519 83.0063 30.1227 83.0063 30.2041C83.0063 30.2871 83.0251 30.3628 83.0625 30.4312C83.0999 30.4995 83.1561 30.554 83.231 30.5947C83.3075 30.6338 83.401 30.6533 83.5117 30.6533C83.6501 30.6533 83.7721 30.624 83.8779 30.5654C83.9837 30.5068 84.0675 30.4352 84.1294 30.3506C84.1929 30.266 84.2271 30.1838 84.2319 30.104L84.4248 30.3213C84.4134 30.3896 84.3825 30.4653 84.332 30.5483C84.2816 30.6313 84.214 30.7111 84.1294 30.7876C84.0464 30.8625 83.9471 30.9251 83.8315 30.9756C83.7176 31.0244 83.589 31.0488 83.4458 31.0488C83.2668 31.0488 83.1097 31.0138 82.9746 30.9438C82.8411 30.8739 82.737 30.7803 82.6621 30.6631C82.5889 30.5443 82.5522 30.4116 82.5522 30.2651C82.5522 30.1235 82.5799 29.999 82.6353 29.8916C82.6906 29.7826 82.7703 29.6922 82.8745 29.6206C82.9787 29.5474 83.104 29.492 83.2505 29.4546C83.397 29.4172 83.5605 29.3984 83.7412 29.3984H84.2661ZM85.8018 28.9224V31H85.3501V28.3584H85.7773L85.8018 28.9224ZM85.6943 29.5791L85.5063 29.5718C85.508 29.3911 85.5348 29.2243 85.5869 29.0713C85.639 28.9167 85.7122 28.7824 85.8066 28.6685C85.901 28.5545 86.0133 28.4666 86.1436 28.4048C86.2754 28.3413 86.4211 28.3096 86.5806 28.3096C86.7108 28.3096 86.828 28.3275 86.9321 28.3633C87.0363 28.3975 87.125 28.4528 87.1982 28.5293C87.2731 28.6058 87.3301 28.7051 87.3691 28.8271C87.4082 28.9476 87.4277 29.0949 87.4277 29.269V31H86.9736V29.2642C86.9736 29.1258 86.9533 29.0151 86.9126 28.9321C86.8719 28.8475 86.8125 28.7865 86.7344 28.749C86.6562 28.71 86.5602 28.6904 86.4463 28.6904C86.334 28.6904 86.2314 28.714 86.1387 28.7612C86.0475 28.8084 85.9686 28.8735 85.9019 28.9565C85.8368 29.0396 85.7855 29.1348 85.748 29.2422C85.7122 29.348 85.6943 29.4603 85.6943 29.5791ZM89.7788 30.4873V27.25H90.2329V31H89.8179L89.7788 30.4873ZM88.0015 29.7085V29.6572C88.0015 29.4554 88.0259 29.2723 88.0747 29.1079C88.1252 28.9419 88.196 28.7995 88.2871 28.6807C88.3799 28.5618 88.4897 28.4707 88.6167 28.4072C88.7453 28.3421 88.8885 28.3096 89.0464 28.3096C89.2124 28.3096 89.3573 28.3389 89.481 28.3975C89.6063 28.4544 89.7121 28.5382 89.7983 28.6489C89.8862 28.758 89.9554 28.8898 90.0059 29.0444C90.0563 29.1991 90.0913 29.374 90.1108 29.5693V29.7939C90.0929 29.9876 90.0579 30.1618 90.0059 30.3164C89.9554 30.471 89.8862 30.6029 89.7983 30.7119C89.7121 30.821 89.6063 30.9048 89.481 30.9634C89.3556 31.0203 89.2091 31.0488 89.0415 31.0488C88.8869 31.0488 88.7453 31.0155 88.6167 30.9487C88.4897 30.882 88.3799 30.7884 88.2871 30.668C88.196 30.5475 88.1252 30.4059 88.0747 30.2432C88.0259 30.0788 88.0015 29.9006 88.0015 29.7085ZM88.4556 29.6572V29.7085C88.4556 29.8403 88.4686 29.964 88.4946 30.0796C88.5223 30.1951 88.5646 30.2969 88.6216 30.3848C88.6785 30.4727 88.751 30.5418 88.8389 30.5923C88.9268 30.6411 89.0317 30.6655 89.1538 30.6655C89.3035 30.6655 89.4264 30.6338 89.5225 30.5703C89.6201 30.5068 89.6982 30.423 89.7568 30.3188C89.8154 30.2147 89.861 30.1016 89.8936 29.9795V29.3911C89.874 29.3016 89.8455 29.2153 89.8081 29.1323C89.7723 29.0477 89.7251 28.9728 89.6665 28.9077C89.6095 28.841 89.5387 28.7881 89.4541 28.749C89.3711 28.71 89.2726 28.6904 89.1587 28.6904C89.035 28.6904 88.9284 28.7165 88.8389 28.7686C88.751 28.819 88.6785 28.889 88.6216 28.9785C88.5646 29.0664 88.5223 29.1689 88.4946 29.2861C88.4686 29.4017 88.4556 29.5254 88.4556 29.6572Z" fill="black"/>
<rect x="120.25" y="21.25" width="36.5" height="14.5" stroke="#C0433A" stroke-width="0.5"/>
<rect x="120.25" y="21.25" width="36.5" height="14.5" stroke="#4298BD" stroke-width="0.5"/>
<rect x="120.25" y="21.25" width="36.5" height="14.5" stroke="#D9BE56" stroke-width="0.5"/>
<path d="M94 29L96.5 30.4434V27.5566L94 29ZM120 28.75L96.25 28.75V29.25L120 29.25V28.75Z" fill="#D9BE56"/>
<path d="M189 29L186.5 27.5566V30.4434L189 29ZM169 29.25H186.75V28.75H169V29.25Z" fill="#817033"/>
</svg>
