<?xml version="1.0" encoding="us-ascii" standalone="no"?>
<svg xmlns="http://www.w3.org/2000/svg" xmlns:xlink="http://www.w3.org/1999/xlink" contentStyleType="text/css"
     height="463px" preserveAspectRatio="none" style="width:403px;height:463px;background:#FFFFFF;" version="1.1"
     viewBox="0 0 403 463" width="403px" zoomAndPan="magnify">
    <defs/>
    <g>
        <ellipse cx="208.75" cy="20" fill="#222222" rx="10" ry="10" style="stroke:#222222;stroke-width:1.0;"/>
        <rect fill="#F1F1F1" height="36.3441" rx="12.5" ry="12.5" style="stroke:#181818;stroke-width:0.5;" width="169"
              x="124.25" y="50"/>
        <text fill="#000000" font-family="sans-serif" font-size="12" lengthAdjust="spacing" textLength="149" x="134.25"
              y="72.8281">User enters add command
        </text>
        <polygon fill="#F1F1F1"
                 points="82.5,106.3441,82.5,106.3441,94.5,118.3441,82.5,130.3441,82.5,130.3441,70.5,118.3441,82.5,106.3441"
                 style="stroke:#181818;stroke-width:0.5;"/>
        <text fill="#000000" font-family="sans-serif" font-size="11" lengthAdjust="spacing" textLength="104" x="86.5"
              y="142.103">[Invalid arguments]
        </text>
        <rect fill="#F1F1F1" height="36.3441" rx="12.5" ry="12.5" style="stroke:#181818;stroke-width:0.5;" width="143"
              x="11" y="163.603"/>
        <text fill="#000000" font-family="sans-serif" font-size="12" lengthAdjust="spacing" textLength="123" x="21"
              y="186.4311">Error: Message usage
        </text>
        <ellipse cx="82.5" cy="230.9471" fill="none" rx="11" ry="11" style="stroke:#222222;stroke-width:1.0;"/>
        <ellipse cx="82.5" cy="230.9471" fill="#222222" rx="6" ry="6" style="stroke:#111111;stroke-width:1.0;"/>
        <polygon fill="#F1F1F1"
                 points="281.5,106.3441,281.5,106.3441,293.5,118.3441,281.5,130.3441,281.5,130.3441,269.5,118.3441,281.5,106.3441"
                 style="stroke:#181818;stroke-width:0.5;"/>
        <text fill="#000000" font-family="sans-serif" font-size="11" lengthAdjust="spacing" textLength="70" x="285.5"
              y="142.103">[Name exists]
        </text>
        <text fill="#000000" font-family="sans-serif" font-size="11" lengthAdjust="spacing" textLength="3" x="293.5"
              y="115.1211">&#160;
        </text>
        <rect fill="#F1F1F1" height="36.3441" rx="12.5" ry="12.5" style="stroke:#181818;stroke-width:0.5;" width="150"
              x="206.5" y="163.603"/>
        <text fill="#000000" font-family="sans-serif" font-size="12" lengthAdjust="spacing" textLength="130" x="216.5"
              y="186.4311">Error: Duplicate person
        </text>
        <ellipse cx="281.5" cy="230.9471" fill="none" rx="11" ry="11" style="stroke:#222222;stroke-width:1.0;"/>
        <ellipse cx="281.5" cy="230.9471" fill="#222222" rx="6" ry="6" style="stroke:#111111;stroke-width:1.0;"/>
        <rect fill="#F1F1F1" height="36.3441" rx="12.5" ry="12.5" style="stroke:#181818;stroke-width:0.5;" width="304"
              x="56.75" y="261.9471"/>
        <text fill="#000000" font-family="sans-serif" font-size="12" lengthAdjust="spacing" textLength="284" x="66.75"
              y="284.7752">Common modules and contact index are computed
        </text>
        <rect fill="#F1F1F1" height="36.3441" rx="12.5" ry="12.5" style="stroke:#181818;stroke-width:0.5;" width="176"
              x="120.75" y="318.2913"/>
        <text fill="#000000" font-family="sans-serif" font-size="12" lengthAdjust="spacing" textLength="156" x="130.75"
              y="341.1193">Person is added to EduMate
        </text>
        <rect fill="#F1F1F1" height="36.3441" rx="12.5" ry="12.5" style="stroke:#181818;stroke-width:0.5;" width="183"
              x="117.25" y="374.6354"/>
        <text fill="#000000" font-family="sans-serif" font-size="12" lengthAdjust="spacing" textLength="163" x="127.25"
              y="397.4635">Success message is returned
        </text>
        <ellipse cx="208.75" cy="441.9795" fill="none" rx="11" ry="11" style="stroke:#222222;stroke-width:1.0;"/>
        <ellipse cx="208.75" cy="441.9795" fill="#222222" rx="6" ry="6" style="stroke:#111111;stroke-width:1.0;"/>
        <line style="stroke:#181818;stroke-width:1.0;" x1="208.75" x2="208.75" y1="30" y2="50"/>
        <polygon fill="#181818" points="204.75,40,208.75,50,212.75,40,208.75,44"
                 style="stroke:#181818;stroke-width:1.0;"/>
        <line style="stroke:#181818;stroke-width:1.0;" x1="82.5" x2="82.5" y1="199.9471" y2="219.9471"/>
        <polygon fill="#181818" points="78.5,209.9471,82.5,219.9471,86.5,209.9471,82.5,213.9471"
                 style="stroke:#181818;stroke-width:1.0;"/>
        <line style="stroke:#181818;stroke-width:1.0;" x1="281.5" x2="281.5" y1="199.9471" y2="219.9471"/>
        <polygon fill="#181818" points="277.5,209.9471,281.5,219.9471,285.5,209.9471,281.5,213.9471"
                 style="stroke:#181818;stroke-width:1.0;"/>
        <line style="stroke:#181818;stroke-width:1.0;" x1="82.5" x2="82.5" y1="130.3441" y2="163.603"/>
        <polygon fill="#181818" points="78.5,153.603,82.5,163.603,86.5,153.603,82.5,157.603"
                 style="stroke:#181818;stroke-width:1.0;"/>
        <line style="stroke:#181818;stroke-width:1.0;" x1="281.5" x2="281.5" y1="130.3441" y2="163.603"/>
        <polygon fill="#181818" points="277.5,153.603,281.5,163.603,285.5,153.603,281.5,157.603"
                 style="stroke:#181818;stroke-width:1.0;"/>
        <line style="stroke:#181818;stroke-width:1.0;" x1="94.5" x2="269.5" y1="118.3441" y2="118.3441"/>
        <polygon fill="#181818" points="259.5,114.3441,269.5,118.3441,259.5,122.3441,263.5,118.3441"
                 style="stroke:#181818;stroke-width:1.0;"/>
        <line style="stroke:#181818;stroke-width:1.0;" x1="208.75" x2="208.75" y1="86.3441" y2="91.3441"/>
        <line style="stroke:#181818;stroke-width:1.0;" x1="208.75" x2="82.5" y1="91.3441" y2="91.3441"/>
        <line style="stroke:#181818;stroke-width:1.0;" x1="82.5" x2="82.5" y1="91.3441" y2="106.3441"/>
        <polygon fill="#181818" points="78.5,96.3441,82.5,106.3441,86.5,96.3441,82.5,100.3441"
                 style="stroke:#181818;stroke-width:1.0;"/>
        <line style="stroke:#181818;stroke-width:1.0;" x1="293.5" x2="391.5" y1="118.3441" y2="118.3441"/>
        <line style="stroke:#181818;stroke-width:1.0;" x1="391.5" x2="391.5" y1="118.3441" y2="246.9471"/>
        <line style="stroke:#181818;stroke-width:1.0;" x1="391.5" x2="208.75" y1="246.9471" y2="246.9471"/>
        <line style="stroke:#181818;stroke-width:1.0;" x1="208.75" x2="208.75" y1="246.9471" y2="261.9471"/>
        <polygon fill="#181818" points="204.75,251.9471,208.75,261.9471,212.75,251.9471,208.75,255.9471"
                 style="stroke:#181818;stroke-width:1.0;"/>
        <line style="stroke:#181818;stroke-width:1.0;" x1="208.75" x2="208.75" y1="298.2913" y2="318.2913"/>
        <polygon fill="#181818" points="204.75,308.2913,208.75,318.2913,212.75,308.2913,208.75,312.2913"
                 style="stroke:#181818;stroke-width:1.0;"/>
        <line style="stroke:#181818;stroke-width:1.0;" x1="208.75" x2="208.75" y1="354.6354" y2="374.6354"/>
        <polygon fill="#181818" points="204.75,364.6354,208.75,374.6354,212.75,364.6354,208.75,368.6354"
                 style="stroke:#181818;stroke-width:1.0;"/>
        <line style="stroke:#181818;stroke-width:1.0;" x1="208.75" x2="208.75" y1="410.9795" y2="430.9795"/>
        <polygon fill="#181818" points="204.75,420.9795,208.75,430.9795,212.75,420.9795,208.75,424.9795"
                 style="stroke:#181818;stroke-width:1.0;"/><!--SRC=[PO-nRaCn24LtVmLZyWlEs6ReaAfIrQdgW0n9BJtZ9y1LFZ_uAKjI1XRWSAuvggVyPQp0ugm6I0IbjuP2XrJFiDk3_xB0xljD_d2f1AYNqMBRVlO9el9HjMk64vlXXM7CVjX6vdrDl1W_WDwnCV2rsZ_4wrYNMj0Prd3fyaG9HcAXUaxv9HIxGEiq5WvhcTRYM1og45_3acUETJX7aFonyQ1k0Pd0EnnfdE9L33z7AI4FxPuWjfHzgCpJ-Vq6]-->
    </g>
</svg>
