<?xml version="1.0" encoding="UTF-8" standalone="no"?><svg xmlns="http://www.w3.org/2000/svg" xmlns:xlink="http://www.w3.org/1999/xlink" contentStyleType="text/css" height="366px" preserveAspectRatio="none" style="width:269px;height:366px;background:#FFFFFF;" version="1.1" viewBox="0 0 269 366" width="269px" zoomAndPan="magnify"><defs/><g><ellipse cx="90" cy="20" fill="#222222" rx="10" ry="10" style="stroke:#222222;stroke-width:1.0;"/><rect fill="#F1F1F1" height="35.0938" rx="12.5" ry="12.5" style="stroke:#181818;stroke-width:0.5;" width="158" x="11" y="50"/><text fill="#000000" font-family="sans-serif" font-size="12" lengthAdjust="spacing" textLength="138" x="21" y="72.457">User executes command</text><rect fill="#F1F1F1" height="35.0938" rx="12.5" ry="12.5" style="stroke:#181818;stroke-width:0.5;" width="149" x="15.5" y="154.0117"/><text fill="#000000" font-family="sans-serif" font-size="12" lengthAdjust="spacing" textLength="129" x="25.5" y="176.4688">Purge redundant states</text><rect fill="#F1F1F1" height="50.1875" rx="12.5" ry="12.5" style="stroke:#181818;stroke-width:0.5;" width="98" x="41" y="219.0586"/><text fill="#000000" font-family="sans-serif" font-size="12" lengthAdjust="spacing" textLength="77" x="51" y="241.5156">Save Trackr to</text><text fill="#000000" font-family="sans-serif" font-size="12" lengthAdjust="spacing" textLength="78" x="51" y="256.6094">trackrStateList</text><polygon fill="#F1F1F1" points="90,105.0938,90,105.0938,102,117.0938,90,129.0938,90,129.0938,78,117.0938,90,105.0938" style="stroke:#181818;stroke-width:0.5;"/><text fill="#000000" font-family="sans-serif" font-size="11" lengthAdjust="spacing" textLength="163" x="94" y="140.5127">[command commits AddressBook]</text><text fill="#000000" font-family="sans-serif" font-size="11" lengthAdjust="spacing" textLength="26" x="102" y="114.6768">[else]</text><polygon fill="#F1F1F1" points="90,289.2461,102,301.2461,90,313.2461,78,301.2461,90,289.2461" style="stroke:#181818;stroke-width:0.5;"/><ellipse cx="90" cy="344.2461" fill="none" rx="11" ry="11" style="stroke:#222222;stroke-width:1.0;"/><ellipse cx="90" cy="344.2461" fill="#222222" rx="6" ry="6" style="stroke:#111111;stroke-width:1.0;"/><line style="stroke:#181818;stroke-width:1.0;" x1="90" x2="90" y1="30" y2="50"/><polygon fill="#181818" points="86,40,90,50,94,40,90,44" style="stroke:#181818;stroke-width:1.0;"/><line style="stroke:#181818;stroke-width:1.0;" x1="90" x2="90" y1="189.1055" y2="219.0586"/><polygon fill="#181818" points="86,209.0586,90,219.0586,94,209.0586,90,213.0586" style="stroke:#181818;stroke-width:1.0;"/><line style="stroke:#181818;stroke-width:1.0;" x1="90" x2="90" y1="129.0938" y2="154.0117"/><polygon fill="#181818" points="86,144.0117,90,154.0117,94,144.0117,90,148.0117" style="stroke:#181818;stroke-width:1.0;"/><line style="stroke:#181818;stroke-width:1.0;" x1="102" x2="174.5" y1="117.0938" y2="117.0938"/><polygon fill="#181818" points="170.5,199.1055,174.5,209.1055,178.5,199.1055,174.5,203.1055" style="stroke:#181818;stroke-width:1.0;"/><line style="stroke:#181818;stroke-width:1.0;" x1="174.5" x2="174.5" y1="117.0938" y2="301.2461"/><line style="stroke:#181818;stroke-width:1.0;" x1="174.5" x2="102" y1="301.2461" y2="301.2461"/><polygon fill="#181818" points="112,297.2461,102,301.2461,112,305.2461,108,301.2461" style="stroke:#181818;stroke-width:1.0;"/><line style="stroke:#181818;stroke-width:1.0;" x1="90" x2="90" y1="269.2461" y2="289.2461"/><polygon fill="#181818" points="86,279.2461,90,289.2461,94,279.2461,90,283.2461" style="stroke:#181818;stroke-width:1.0;"/><line style="stroke:#181818;stroke-width:1.0;" x1="90" x2="90" y1="85.0938" y2="105.0938"/><polygon fill="#181818" points="86,95.0938,90,105.0938,94,95.0938,90,99.0938" style="stroke:#181818;stroke-width:1.0;"/><line style="stroke:#181818;stroke-width:1.0;" x1="90" x2="90" y1="313.2461" y2="333.2461"/><polygon fill="#181818" points="86,323.2461,90,333.2461,94,323.2461,90,327.2461" style="stroke:#181818;stroke-width:1.0;"/><!--MD5=[4320f01b2a98d71fb56cc89b1422a493]
@startuml
start
:User executes command;

'Since the beta syntax does not support placing the condition outside the
'diamond we place it as the true branch instead.

if () then ([command commits AddressBook])
    :Purge redundant states;
    :Save Trackr to
    trackrStateList;
else ([else])
endif
stop
@enduml

@startuml
start
:User executes command;


if () then ([command commits AddressBook])
    :Purge redundant states;
    :Save Trackr to
    trackrStateList;
else ([else])
endif
stop
@enduml

PlantUML version 1.2022.12(Mon Oct 24 02:12:26 SGT 2022)
(GPL source distribution)
Java Runtime: OpenJDK Runtime Environment
JVM: OpenJDK 64-Bit Server VM
Default Encoding: Cp1252
Language: en
Country: SG
--></g></svg>
