<?xml version="1.0" encoding="us-ascii" standalone="no"?>
<svg xmlns="http://www.w3.org/2000/svg" contentStyleType="text/css" height="643px" preserveAspectRatio="none"
     style="width:990px;height:643px;background:#FFFFFF;" version="1.1" viewBox="0 0 990 643" width="990px"
     zoomAndPan="magnify">
    <defs/>
    <g>
        <rect fill="#C8C8FA" height="624.5488" style="stroke:#181818;stroke-width:0.5;" width="788.5" x="102" y="6"/>
        <text fill="#FFFFFF" font-family="sans-serif" font-size="13" font-weight="bold" lengthAdjust="spacing"
              textLength="35" x="476.75" y="20.0283">Logic
        </text>
        <rect fill="#F97181" height="624.5488" style="stroke:#181818;stroke-width:0.5;" width="92" x="892.5" y="6"/>
        <text fill="#FFFFFF" font-family="sans-serif" font-size="13" font-weight="bold" lengthAdjust="spacing"
              textLength="39" x="917" y="20.0283">Model
        </text>
        <rect fill="#FFFFFF" height="505.7246" style="stroke:#181818;stroke-width:1.0;" width="10" x="165"
              y="112.8242"/>
        <rect fill="#FFFFFF" height="277.6484" style="stroke:#181818;stroke-width:1.0;" width="10" x="385"
              y="144.1152"/>
        <rect fill="#FFFFFF" height="52.2422" style="stroke:#181818;stroke-width:1.0;" width="10" x="525.5"
              y="168.1152"/>
        <rect fill="#FFFFFF" height="124.8242" style="stroke:#181818;stroke-width:1.0;" width="10" x="525.5"
              y="251.6484"/>
        <rect fill="#FFFFFF" height="69.5332" style="stroke:#181818;stroke-width:1.0;" width="10" x="667.5"
              y="275.6484"/>
        <rect fill="#FFFFFF" height="151.4941" style="stroke:#181818;stroke-width:1.0;" width="10" x="667.5"
              y="453.0547"/>
        <rect fill="#FFFFFF" height="33.6211" style="stroke:#181818;stroke-width:1.0;" width="10" x="810.5"
              y="539.6367"/>
        <rect fill="#FFFFFF" height="14" style="stroke:#181818;stroke-width:1.0;" width="10" x="933.5" y="501.6367"/>
        <line style="stroke:#181818;stroke-width:0.5;stroke-dasharray:5.0,5.0;" x1="170" x2="170" y1="79.5332"
              y2="636.5488"/>
        <line style="stroke:#181818;stroke-width:0.5;stroke-dasharray:5.0,5.0;" x1="389.5" x2="389.5" y1="79.5332"
              y2="636.5488"/>
        <line style="stroke:#181818;stroke-width:0.5;stroke-dasharray:5.0,5.0;" x1="530.5" x2="530.5" y1="193.2363"
              y2="636.5488"/>
        <line style="stroke:#181818;stroke-width:0.5;stroke-dasharray:5.0,5.0;" x1="672.5" x2="672.5" y1="300.7695"
              y2="636.5488"/>
        <line style="stroke:#181818;stroke-width:0.5;stroke-dasharray:5.0,5.0;" x1="815.5" x2="815.5" y1="555.4473"
              y2="636.5488"/>
        <line style="stroke:#181818;stroke-width:0.5;stroke-dasharray:5.0,5.0;" x1="938.5" x2="938.5" y1="79.5332"
              y2="636.5488"/>
        <rect fill="#3333C4" height="32.6211" rx="2.5" ry="2.5" style="stroke:#181818;stroke-width:0.5;" width="108"
              x="116" y="45.9121"/>
        <text fill="#FFFFFF" font-family="sans-serif" font-size="14" lengthAdjust="spacing" textLength="94" x="123"
              y="68.0195">:LogicManager
        </text>
        <rect fill="#3333C4" height="32.6211" rx="2.5" ry="2.5" style="stroke:#181818;stroke-width:0.5;" width="101"
              x="339.5" y="45.9121"/>
        <text fill="#FFFFFF" font-family="sans-serif" font-size="14" lengthAdjust="spacing" textLength="87" x="346.5"
              y="68.0195">:TrackrParser
        </text>
        <rect fill="#9D0012" height="32.6211" rx="2.5" ry="2.5" style="stroke:#181818;stroke-width:0.5;" width="64"
              x="906.5" y="45.9121"/>
        <text fill="#FFFFFF" font-family="sans-serif" font-size="14" lengthAdjust="spacing" textLength="42" x="917.5"
              y="68.0195">:Model
        </text>
        <rect fill="#FFFFFF" height="505.7246" style="stroke:#181818;stroke-width:1.0;" width="10" x="165"
              y="112.8242"/>
        <rect fill="#FFFFFF" height="277.6484" style="stroke:#181818;stroke-width:1.0;" width="10" x="385"
              y="144.1152"/>
        <rect fill="#FFFFFF" height="52.2422" style="stroke:#181818;stroke-width:1.0;" width="10" x="525.5"
              y="168.1152"/>
        <rect fill="#FFFFFF" height="124.8242" style="stroke:#181818;stroke-width:1.0;" width="10" x="525.5"
              y="251.6484"/>
        <rect fill="#FFFFFF" height="69.5332" style="stroke:#181818;stroke-width:1.0;" width="10" x="667.5"
              y="275.6484"/>
        <rect fill="#FFFFFF" height="151.4941" style="stroke:#181818;stroke-width:1.0;" width="10" x="667.5"
              y="453.0547"/>
        <rect fill="#FFFFFF" height="33.6211" style="stroke:#181818;stroke-width:1.0;" width="10" x="810.5"
              y="539.6367"/>
        <rect fill="#FFFFFF" height="14" style="stroke:#181818;stroke-width:1.0;" width="10" x="933.5" y="501.6367"/>
        <polygon fill="#181818" points="153,108.8242,163,112.8242,153,116.8242,157,112.8242"
                 style="stroke:#181818;stroke-width:1.0;"/>
        <line style="stroke:#181818;stroke-width:1.0;" x1="0" x2="159" y1="112.8242" y2="112.8242"/>
        <text fill="#000000" font-family="sans-serif" font-size="13" lengthAdjust="spacing" textLength="146" x="9.5"
              y="107.5615">execute("delete_order 1")
        </text>
        <polygon fill="#181818" points="373,140.1152,383,144.1152,373,148.1152,377,144.1152"
                 style="stroke:#181818;stroke-width:1.0;"/>
        <line style="stroke:#181818;stroke-width:1.0;" x1="175" x2="379" y1="144.1152" y2="144.1152"/>
        <text fill="#000000" font-family="sans-serif" font-size="13" lengthAdjust="spacing" textLength="191" x="184.5"
              y="138.8525">parseCommand("delete_order 1")
        </text>
        <polygon fill="#181818" points="458.5,154.1152,468.5,158.1152,458.5,162.1152,462.5,158.1152"
                 style="stroke:#181818;stroke-width:1.0;"/>
        <line style="stroke:#181818;stroke-width:1.0;" x1="395" x2="464.5" y1="158.1152" y2="158.1152"/>
        <rect fill="#3333C4" height="51.2422" rx="2.5" ry="2.5" style="stroke:#181818;stroke-width:0.5;" width="120"
              x="470.5" y="152.1152"/>
        <text fill="#FFFFFF" font-family="sans-serif" font-size="14" lengthAdjust="spacing" textLength="82" x="489.5"
              y="174.2227">:DeleteOrder
        </text>
        <text fill="#FFFFFF" font-family="sans-serif" font-size="14" lengthAdjust="spacing" textLength="106" x="477.5"
              y="192.8438">CommandParser
        </text>
        <polygon fill="#181818" points="406,216.3574,396,220.3574,406,224.3574,402,220.3574"
                 style="stroke:#181818;stroke-width:1.0;"/>
        <line style="stroke:#181818;stroke-width:1.0;stroke-dasharray:2.0,2.0;" x1="400" x2="529.5" y1="220.3574"
              y2="220.3574"/>
        <polygon fill="#181818" points="513.5,247.6484,523.5,251.6484,513.5,255.6484,517.5,251.6484"
                 style="stroke:#181818;stroke-width:1.0;"/>
        <line style="stroke:#181818;stroke-width:1.0;" x1="395" x2="519.5" y1="251.6484" y2="251.6484"/>
        <text fill="#000000" font-family="sans-serif" font-size="13" lengthAdjust="spacing" textLength="57" x="431.75"
              y="246.3857">parse("1")
        </text>
        <polygon fill="#181818" points="608.5,261.6484,618.5,265.6484,608.5,269.6484,612.5,265.6484"
                 style="stroke:#181818;stroke-width:1.0;"/>
        <line style="stroke:#181818;stroke-width:1.0;" x1="535.5" x2="614.5" y1="265.6484" y2="265.6484"/>
        <rect fill="#3333C4" height="51.2422" rx="2.5" ry="2.5" style="stroke:#181818;stroke-width:0.5;" width="104"
              x="620.5" y="259.6484"/>
        <text fill="#FFFFFF" font-family="sans-serif" font-size="14" lengthAdjust="spacing" textLength="90" x="627.5"
              y="281.7559">d:DeleteOrder
        </text>
        <text fill="#FFFFFF" font-family="sans-serif" font-size="14" lengthAdjust="spacing" textLength="64" x="640.5"
              y="300.377">Command
        </text>
        <polygon fill="#181818" points="546.5,341.1816,536.5,345.1816,546.5,349.1816,542.5,345.1816"
                 style="stroke:#181818;stroke-width:1.0;"/>
        <line style="stroke:#181818;stroke-width:1.0;stroke-dasharray:2.0,2.0;" x1="540.5" x2="671.5" y1="345.1816"
              y2="345.1816"/>
        <text fill="#000000" font-family="sans-serif" font-size="13" lengthAdjust="spacing" textLength="7" x="600.5"
              y="339.9189">d
        </text>
        <polygon fill="#181818" points="406,372.4727,396,376.4727,406,380.4727,402,376.4727"
                 style="stroke:#181818;stroke-width:1.0;"/>
        <line style="stroke:#181818;stroke-width:1.0;stroke-dasharray:2.0,2.0;" x1="400" x2="529.5" y1="376.4727"
              y2="376.4727"/>
        <text fill="#000000" font-family="sans-serif" font-size="13" lengthAdjust="spacing" textLength="7" x="459.25"
              y="371.21">d
        </text>
        <line style="stroke:#A80036;stroke-width:2.0;" x1="521.5" x2="539.5" y1="381.4727" y2="399.4727"/>
        <line style="stroke:#A80036;stroke-width:2.0;" x1="521.5" x2="539.5" y1="399.4727" y2="381.4727"/>
        <polygon fill="#181818" points="186,417.7637,176,421.7637,186,425.7637,182,421.7637"
                 style="stroke:#181818;stroke-width:1.0;"/>
        <line style="stroke:#181818;stroke-width:1.0;stroke-dasharray:2.0,2.0;" x1="180" x2="389" y1="421.7637"
              y2="421.7637"/>
        <text fill="#000000" font-family="sans-serif" font-size="13" lengthAdjust="spacing" textLength="7" x="279"
              y="416.501">d
        </text>
        <polygon fill="#181818" points="655.5,449.0547,665.5,453.0547,655.5,457.0547,659.5,453.0547"
                 style="stroke:#181818;stroke-width:1.0;"/>
        <line style="stroke:#181818;stroke-width:1.0;" x1="175" x2="661.5" y1="453.0547" y2="453.0547"/>
        <text fill="#000000" font-family="sans-serif" font-size="13" lengthAdjust="spacing" textLength="54" x="394.25"
              y="447.792">execute()
        </text>
        <polygon fill="#181818" points="921.5,497.6367,931.5,501.6367,921.5,505.6367,925.5,501.6367"
                 style="stroke:#181818;stroke-width:1.0;"/>
        <line style="stroke:#181818;stroke-width:1.0;" x1="677.5" x2="927.5" y1="501.6367" y2="501.6367"/>
        <text fill="#000000" font-family="sans-serif" font-size="13" lengthAdjust="spacing" textLength="75" x="768"
              y="479.083">deleteItem(1,
        </text>
        <text fill="#000000" font-family="sans-serif" font-size="13" lengthAdjust="spacing" textLength="123" x="744"
              y="496.374">ModelEnum.ORDER)
        </text>
        <polygon fill="#181818" points="688.5,511.6367,678.5,515.6367,688.5,519.6367,684.5,515.6367"
                 style="stroke:#181818;stroke-width:1.0;"/>
        <line style="stroke:#181818;stroke-width:1.0;stroke-dasharray:2.0,2.0;" x1="682.5" x2="937.5" y1="515.6367"
              y2="515.6367"/>
        <polygon fill="#181818" points="742.5,525.6367,752.5,529.6367,742.5,533.6367,746.5,529.6367"
                 style="stroke:#181818;stroke-width:1.0;"/>
        <line style="stroke:#181818;stroke-width:1.0;" x1="677.5" x2="748.5" y1="529.6367" y2="529.6367"/>
        <rect fill="#3333C4" height="32.6211" rx="2.5" ry="2.5" style="stroke:#181818;stroke-width:0.5;" width="122"
              x="754.5" y="523.6367"/>
        <text fill="#FFFFFF" font-family="sans-serif" font-size="14" lengthAdjust="spacing" textLength="108" x="761.5"
              y="545.7441">:CommandResult
        </text>
        <polygon fill="#181818" points="688.5,569.2578,678.5,573.2578,688.5,577.2578,684.5,573.2578"
                 style="stroke:#181818;stroke-width:1.0;"/>
        <line style="stroke:#181818;stroke-width:1.0;stroke-dasharray:2.0,2.0;" x1="682.5" x2="814.5" y1="573.2578"
              y2="573.2578"/>
        <polygon fill="#181818" points="186,600.5488,176,604.5488,186,608.5488,182,604.5488"
                 style="stroke:#181818;stroke-width:1.0;"/>
        <line style="stroke:#181818;stroke-width:1.0;stroke-dasharray:2.0,2.0;" x1="180" x2="671.5" y1="604.5488"
              y2="604.5488"/>
        <text fill="#000000" font-family="sans-serif" font-size="13" lengthAdjust="spacing" textLength="32" x="407.75"
              y="599.2861">result
        </text>
        <polygon fill="#181818" points="11,614.5488,1,618.5488,11,622.5488,7,618.5488"
                 style="stroke:#181818;stroke-width:1.0;"/>
        <line style="stroke:#181818;stroke-width:1.0;stroke-dasharray:2.0,2.0;" x1="5" x2="169" y1="618.5488"
              y2="618.5488"/><!--SRC=[bLJ1Ri8m3BtdAx9UngGLYIkQk03Qa8ewLTnWGg7neA9DgZJTuE_NXWwIqWIuHSvxp_QpawU4nMb90HVoc48_BxCKeGq_u81lanW7uVjil1w7GHYj5mEK4o6JECa9azWRAiYSCB85uM5IO3sWKrkyXI3nNdmIKJGyFU3WJI052Q6W85PipBECCAgfQDV6fLsHTafQn1o5DOW8YZALYcv432PKIfM_9vFdd4AAv-5a6jXCLX2bUGM-Q2tzaMd-4CC1ub92pwEgapMlMy43xmMHM2O_H8B1GCZWLth6K8OuhmzDMovHdOPGBA0EsaQ3Z2HLKYlmh6z58Ely_LOtYC8TSlUMzkzDppDyi0jRFN5qq9NUbQlB3UM3emlgzkK1Ws-BDLuyVoIK0iD42FwB9SSvBnAPS8Rb3Z25GWf-n1aH-qfq0saDgYxglUVVwjZag2aR8lgE6fSxbUlhUXbEMUxTXEkdPlHgxd_xKNLCvV9KNnwVwAZv5QeYrErCGjORlAwO2azPcVN3Q3ADD6brWz29rxqIUZyDl5bQur-pL6HYpa9c69a_vEqwMdJBUhSc8qxe6tkzVFDzuo_Ky7hy3m00]-->
    </g>
</svg>
