<?xml version="1.0" encoding="us-ascii" standalone="no"?>
<svg xmlns="http://www.w3.org/2000/svg" xmlns:xlink="http://www.w3.org/1999/xlink" contentStyleType="text/css"
     height="407px" preserveAspectRatio="none" style="width:443px;height:407px;background:#FFFFFF;" version="1.1"
     viewBox="0 0 443 407" width="443px" zoomAndPan="magnify">
    <defs/>
    <g>
        <ellipse cx="228.75" cy="20" fill="#222222" rx="10" ry="10" style="stroke:#222222;stroke-width:1.0;"/>
        <rect fill="#F1F1F1" height="36.3441" rx="12.5" ry="12.5" style="stroke:#181818;stroke-width:0.5;" width="183"
              x="137.25" y="50"/>
        <text fill="#000000" font-family="sans-serif" font-size="12" lengthAdjust="spacing" textLength="163" x="147.25"
              y="72.8281">User enters delete command
        </text>
        <polygon fill="#F1F1F1"
                 points="82.5,106.3441,82.5,106.3441,94.5,118.3441,82.5,130.3441,82.5,130.3441,70.5,118.3441,82.5,106.3441"
                 style="stroke:#181818;stroke-width:0.5;"/>
        <text fill="#000000" font-family="sans-serif" font-size="11" lengthAdjust="spacing" textLength="127" x="86.5"
              y="142.103">[Non-integer argument]
        </text>
        <rect fill="#F1F1F1" height="36.3441" rx="12.5" ry="12.5" style="stroke:#181818;stroke-width:0.5;" width="143"
              x="11" y="163.603"/>
        <text fill="#000000" font-family="sans-serif" font-size="12" lengthAdjust="spacing" textLength="123" x="21"
              y="186.4311">Error: Message usage
        </text>
        <ellipse cx="82.5" cy="230.9471" fill="none" rx="11" ry="11" style="stroke:#222222;stroke-width:1.0;"/>
        <ellipse cx="82.5" cy="230.9471" fill="#222222" rx="6" ry="6" style="stroke:#111111;stroke-width:1.0;"/>
        <polygon fill="#F1F1F1"
                 points="313,106.3441,313,106.3441,325,118.3441,313,130.3441,313,130.3441,301,118.3441,313,106.3441"
                 style="stroke:#181818;stroke-width:0.5;"/>
        <text fill="#000000" font-family="sans-serif" font-size="11" lengthAdjust="spacing" textLength="76" x="317"
              y="142.103">[Invalid index]
        </text>
        <text fill="#000000" font-family="sans-serif" font-size="11" lengthAdjust="spacing" textLength="3" x="325"
              y="115.1211">&#160;
        </text>
        <rect fill="#F1F1F1" height="36.3441" rx="12.5" ry="12.5" style="stroke:#181818;stroke-width:0.5;" width="167"
              x="229.5" y="163.603"/>
        <text fill="#000000" font-family="sans-serif" font-size="12" lengthAdjust="spacing" textLength="147" x="239.5"
              y="186.4311">Error: Invalid person index
        </text>
        <ellipse cx="313" cy="230.9471" fill="none" rx="11" ry="11" style="stroke:#222222;stroke-width:1.0;"/>
        <ellipse cx="313" cy="230.9471" fill="#222222" rx="6" ry="6" style="stroke:#111111;stroke-width:1.0;"/>
        <rect fill="#F1F1F1" height="36.3441" rx="12.5" ry="12.5" style="stroke:#181818;stroke-width:0.5;" width="199"
              x="129.25" y="261.9471"/>
        <text fill="#000000" font-family="sans-serif" font-size="12" lengthAdjust="spacing" textLength="179" x="139.25"
              y="284.7752">Person is deleted from EduMate
        </text>
        <rect fill="#F1F1F1" height="36.3441" rx="12.5" ry="12.5" style="stroke:#181818;stroke-width:0.5;" width="183"
              x="137.25" y="318.2913"/>
        <text fill="#000000" font-family="sans-serif" font-size="12" lengthAdjust="spacing" textLength="163" x="147.25"
              y="341.1193">Success message is returned
        </text>
        <ellipse cx="228.75" cy="385.6354" fill="none" rx="11" ry="11" style="stroke:#222222;stroke-width:1.0;"/>
        <ellipse cx="228.75" cy="385.6354" fill="#222222" rx="6" ry="6" style="stroke:#111111;stroke-width:1.0;"/>
        <line style="stroke:#181818;stroke-width:1.0;" x1="228.75" x2="228.75" y1="30" y2="50"/>
        <polygon fill="#181818" points="224.75,40,228.75,50,232.75,40,228.75,44"
                 style="stroke:#181818;stroke-width:1.0;"/>
        <line style="stroke:#181818;stroke-width:1.0;" x1="82.5" x2="82.5" y1="199.9471" y2="219.9471"/>
        <polygon fill="#181818" points="78.5,209.9471,82.5,219.9471,86.5,209.9471,82.5,213.9471"
                 style="stroke:#181818;stroke-width:1.0;"/>
        <line style="stroke:#181818;stroke-width:1.0;" x1="313" x2="313" y1="199.9471" y2="219.9471"/>
        <polygon fill="#181818" points="309,209.9471,313,219.9471,317,209.9471,313,213.9471"
                 style="stroke:#181818;stroke-width:1.0;"/>
        <line style="stroke:#181818;stroke-width:1.0;" x1="82.5" x2="82.5" y1="130.3441" y2="163.603"/>
        <polygon fill="#181818" points="78.5,153.603,82.5,163.603,86.5,153.603,82.5,157.603"
                 style="stroke:#181818;stroke-width:1.0;"/>
        <line style="stroke:#181818;stroke-width:1.0;" x1="313" x2="313" y1="130.3441" y2="163.603"/>
        <polygon fill="#181818" points="309,153.603,313,163.603,317,153.603,313,157.603"
                 style="stroke:#181818;stroke-width:1.0;"/>
        <line style="stroke:#181818;stroke-width:1.0;" x1="94.5" x2="301" y1="118.3441" y2="118.3441"/>
        <polygon fill="#181818" points="291,114.3441,301,118.3441,291,122.3441,295,118.3441"
                 style="stroke:#181818;stroke-width:1.0;"/>
        <line style="stroke:#181818;stroke-width:1.0;" x1="228.75" x2="228.75" y1="86.3441" y2="91.3441"/>
        <line style="stroke:#181818;stroke-width:1.0;" x1="228.75" x2="82.5" y1="91.3441" y2="91.3441"/>
        <line style="stroke:#181818;stroke-width:1.0;" x1="82.5" x2="82.5" y1="91.3441" y2="106.3441"/>
        <polygon fill="#181818" points="78.5,96.3441,82.5,106.3441,86.5,96.3441,82.5,100.3441"
                 style="stroke:#181818;stroke-width:1.0;"/>
        <line style="stroke:#181818;stroke-width:1.0;" x1="325" x2="431.5" y1="118.3441" y2="118.3441"/>
        <line style="stroke:#181818;stroke-width:1.0;" x1="431.5" x2="431.5" y1="118.3441" y2="246.9471"/>
        <line style="stroke:#181818;stroke-width:1.0;" x1="431.5" x2="228.75" y1="246.9471" y2="246.9471"/>
        <line style="stroke:#181818;stroke-width:1.0;" x1="228.75" x2="228.75" y1="246.9471" y2="261.9471"/>
        <polygon fill="#181818" points="224.75,251.9471,228.75,261.9471,232.75,251.9471,228.75,255.9471"
                 style="stroke:#181818;stroke-width:1.0;"/>
        <line style="stroke:#181818;stroke-width:1.0;" x1="228.75" x2="228.75" y1="298.2913" y2="318.2913"/>
        <polygon fill="#181818" points="224.75,308.2913,228.75,318.2913,232.75,308.2913,228.75,312.2913"
                 style="stroke:#181818;stroke-width:1.0;"/>
        <line style="stroke:#181818;stroke-width:1.0;" x1="228.75" x2="228.75" y1="354.6354" y2="374.6354"/>
        <polygon fill="#181818" points="224.75,364.6354,228.75,374.6354,232.75,364.6354,228.75,368.6354"
                 style="stroke:#181818;stroke-width:1.0;"/><!--SRC=[NOyn3eCm303tlC8Z3Fr0c1awK5MgEbKC4J4q4d6GurHzVaqBG_7WnPVJ9OjZCVQUaG59a3Dud54GXXIZ8z-OC49LWpoHe7fS4fs2SfFoZgSIzL5V6z2nBNDY2ntcx2Q4ikxcUygI5eDpnZ_NcLvk3Xu2UNmV9FjjqQ94F-JWKfD1yc4qzhfHUxo7aLE4rfVEYJROMna6pOAujId9A8K9zOEhyGC0]-->
    </g>
</svg>
