<?xml version="1.0" encoding="us-ascii" standalone="no"?><svg xmlns="http://www.w3.org/2000/svg" xmlns:xlink="http://www.w3.org/1999/xlink" contentStyleType="text/css" height="614px" preserveAspectRatio="none" style="width:840px;height:614px;background:#FFFFFF;" version="1.1" viewBox="0 0 840 614" width="840px" zoomAndPan="magnify"><defs/><g><ellipse cx="313.125" cy="20" fill="#222222" rx="10" ry="10" style="stroke:#222222;stroke-width:1.0;"/><rect fill="#F1F1F1" height="34.1328" rx="12.5" ry="12.5" style="stroke:#181818;stroke-width:0.5;" width="223" x="201.625" y="50"/><text fill="#000000" font-family="sans-serif" font-size="12" lengthAdjust="spacing" textLength="203" x="211.625" y="71.6016">User executes DeleteXYZCommand</text><rect fill="#F1F1F1" height="48.2656" rx="12.5" ry="12.5" style="stroke:#181818;stroke-width:0.5;" width="401" x="112.625" y="104.1328"/><text fill="#000000" font-family="sans-serif" font-size="12" lengthAdjust="spacing" textLength="381" x="122.625" y="125.7344">DeleteXYZCommandParser extracts the relevant one-based index</text><text fill="#000000" font-family="sans-serif" font-size="12" lengthAdjust="spacing" textLength="141" x="242.625" y="139.8672">from the input argument</text><polygon fill="#F1F1F1" points="313.125,172.3984,313.125,172.3984,325.125,184.3984,313.125,196.3984,313.125,196.3984,301.125,184.3984,313.125,172.3984" style="stroke:#181818;stroke-width:0.5;"/><text fill="#000000" font-family="sans-serif" font-size="11" lengthAdjust="spacing" textLength="133" x="168.125" y="182.0781">[Invalid Index Argument]</text><text fill="#000000" font-family="sans-serif" font-size="11" lengthAdjust="spacing" textLength="29" x="325.125" y="182.0781">[else]</text><rect fill="#F1F1F1" height="48.2656" rx="12.5" ry="12.5" style="stroke:#181818;stroke-width:0.5;" width="195" x="11" y="206.3984"/><text fill="#000000" font-family="sans-serif" font-size="12" lengthAdjust="spacing" textLength="130" x="43.5" y="228">Display error message</text><text fill="#000000" font-family="sans-serif" font-size="12" lengthAdjust="spacing" textLength="175" x="21" y="242.1328">on invalid command argument</text><ellipse cx="108.5" cy="299.7969" fill="none" rx="11" ry="11" style="stroke:#222222;stroke-width:1.0;"/><ellipse cx="108.5" cy="299.7969" fill="#222222" rx="6" ry="6" style="stroke:#111111;stroke-width:1.0;"/><rect fill="#F1F1F1" height="34.1328" rx="12.5" ry="12.5" style="stroke:#181818;stroke-width:0.5;" width="284" x="375.75" y="206.3984"/><text fill="#000000" font-family="sans-serif" font-size="12" lengthAdjust="spacing" textLength="264" x="385.75" y="228">Get zero-based index from one-based index</text><rect fill="#F1F1F1" height="34.1328" rx="12.5" ry="12.5" style="stroke:#181818;stroke-width:0.5;" width="363" x="336.25" y="274.6641"/><text fill="#000000" font-family="sans-serif" font-size="12" lengthAdjust="spacing" textLength="343" x="346.25" y="296.2656">Check out-of-bounds condition for index on FilteredXYZList</text><polygon fill="#F1F1F1" points="517.75,330.7969,517.75,330.7969,529.75,342.7969,517.75,354.7969,517.75,354.7969,505.75,342.7969,517.75,330.7969" style="stroke:#181818;stroke-width:0.5;"/><text fill="#000000" font-family="sans-serif" font-size="11" lengthAdjust="spacing" textLength="30" x="475.75" y="340.4766">[true]</text><text fill="#000000" font-family="sans-serif" font-size="11" lengthAdjust="spacing" textLength="33" x="529.75" y="340.4766">[false]</text><rect fill="#F1F1F1" height="34.1328" rx="12.5" ry="12.5" style="stroke:#181818;stroke-width:0.5;" width="257" x="236" y="364.7969"/><text fill="#000000" font-family="sans-serif" font-size="12" lengthAdjust="spacing" textLength="233" x="250" y="386.3984">Display invalid XYZ index error message</text><ellipse cx="364.5" cy="429.9297" fill="none" rx="11" ry="11" style="stroke:#222222;stroke-width:1.0;"/><ellipse cx="364.5" cy="429.9297" fill="#222222" rx="6" ry="6" style="stroke:#111111;stroke-width:1.0;"/><rect fill="#F1F1F1" height="34.1328" rx="12.5" ry="12.5" style="stroke:#181818;stroke-width:0.5;" width="274" x="534" y="364.7969"/><text fill="#000000" font-family="sans-serif" font-size="12" lengthAdjust="spacing" textLength="250" x="548" y="386.3984">Retrieve item to delete from FilteredXYZList</text><rect fill="#F1F1F1" height="34.1328" rx="12.5" ry="12.5" style="stroke:#181818;stroke-width:0.5;" width="186" x="578" y="418.9297"/><text fill="#000000" font-family="sans-serif" font-size="12" lengthAdjust="spacing" textLength="162" x="592" y="440.5313">Item is deleted from XYZList</text><rect fill="#F1F1F1" height="34.1328" rx="12.5" ry="12.5" style="stroke:#181818;stroke-width:0.5;" width="316" x="513" y="473.0625"/><text fill="#000000" font-family="sans-serif" font-size="12" lengthAdjust="spacing" textLength="292" x="527" y="494.6641">XYZList with XYZ removed is saved to local storage</text><rect fill="#F1F1F1" height="34.1328" rx="12.5" ry="12.5" style="stroke:#181818;stroke-width:0.5;" width="190" x="576" y="527.1953"/><text fill="#000000" font-family="sans-serif" font-size="12" lengthAdjust="spacing" textLength="166" x="590" y="548.7969">Success message is returned</text><ellipse cx="671" cy="592.3281" fill="none" rx="11" ry="11" style="stroke:#222222;stroke-width:1.0;"/><ellipse cx="671" cy="592.3281" fill="#222222" rx="6" ry="6" style="stroke:#111111;stroke-width:1.0;"/><line style="stroke:#181818;stroke-width:1.0;" x1="313.125" x2="313.125" y1="30" y2="50"/><polygon fill="#181818" points="309.125,40,313.125,50,317.125,40,313.125,44" style="stroke:#181818;stroke-width:1.0;"/><line style="stroke:#181818;stroke-width:1.0;" x1="313.125" x2="313.125" y1="84.1328" y2="104.1328"/><polygon fill="#181818" points="309.125,94.1328,313.125,104.1328,317.125,94.1328,313.125,98.1328" style="stroke:#181818;stroke-width:1.0;"/><line style="stroke:#181818;stroke-width:1.0;" x1="108.5" x2="108.5" y1="254.6641" y2="288.7969"/><polygon fill="#181818" points="104.5,278.7969,108.5,288.7969,112.5,278.7969,108.5,282.7969" style="stroke:#181818;stroke-width:1.0;"/><line style="stroke:#181818;stroke-width:1.0;" x1="517.75" x2="517.75" y1="240.5313" y2="274.6641"/><polygon fill="#181818" points="513.75,264.6641,517.75,274.6641,521.75,264.6641,517.75,268.6641" style="stroke:#181818;stroke-width:1.0;"/><line style="stroke:#181818;stroke-width:1.0;" x1="364.5" x2="364.5" y1="398.9297" y2="418.9297"/><polygon fill="#181818" points="360.5,408.9297,364.5,418.9297,368.5,408.9297,364.5,412.9297" style="stroke:#181818;stroke-width:1.0;"/><line style="stroke:#181818;stroke-width:1.0;" x1="671" x2="671" y1="398.9297" y2="418.9297"/><polygon fill="#181818" points="667,408.9297,671,418.9297,675,408.9297,671,412.9297" style="stroke:#181818;stroke-width:1.0;"/><line style="stroke:#181818;stroke-width:1.0;" x1="671" x2="671" y1="453.0625" y2="473.0625"/><polygon fill="#181818" points="667,463.0625,671,473.0625,675,463.0625,671,467.0625" style="stroke:#181818;stroke-width:1.0;"/><line style="stroke:#181818;stroke-width:1.0;" x1="671" x2="671" y1="507.1953" y2="527.1953"/><polygon fill="#181818" points="667,517.1953,671,527.1953,675,517.1953,671,521.1953" style="stroke:#181818;stroke-width:1.0;"/><line style="stroke:#181818;stroke-width:1.0;" x1="671" x2="671" y1="561.3281" y2="581.3281"/><polygon fill="#181818" points="667,571.3281,671,581.3281,675,571.3281,671,575.3281" style="stroke:#181818;stroke-width:1.0;"/><line style="stroke:#181818;stroke-width:1.0;" x1="505.75" x2="364.5" y1="342.7969" y2="342.7969"/><line style="stroke:#181818;stroke-width:1.0;" x1="364.5" x2="364.5" y1="342.7969" y2="364.7969"/><polygon fill="#181818" points="360.5,354.7969,364.5,364.7969,368.5,354.7969,364.5,358.7969" style="stroke:#181818;stroke-width:1.0;"/><line style="stroke:#181818;stroke-width:1.0;" x1="529.75" x2="671" y1="342.7969" y2="342.7969"/><line style="stroke:#181818;stroke-width:1.0;" x1="671" x2="671" y1="342.7969" y2="364.7969"/><polygon fill="#181818" points="667,354.7969,671,364.7969,675,354.7969,671,358.7969" style="stroke:#181818;stroke-width:1.0;"/><line style="stroke:#181818;stroke-width:1.0;" x1="517.75" x2="517.75" y1="308.7969" y2="330.7969"/><polygon fill="#181818" points="513.75,320.7969,517.75,330.7969,521.75,320.7969,517.75,324.7969" style="stroke:#181818;stroke-width:1.0;"/><line style="stroke:#181818;stroke-width:1.0;" x1="301.125" x2="108.5" y1="184.3984" y2="184.3984"/><line style="stroke:#181818;stroke-width:1.0;" x1="108.5" x2="108.5" y1="184.3984" y2="206.3984"/><polygon fill="#181818" points="104.5,196.3984,108.5,206.3984,112.5,196.3984,108.5,200.3984" style="stroke:#181818;stroke-width:1.0;"/><line style="stroke:#181818;stroke-width:1.0;" x1="325.125" x2="517.75" y1="184.3984" y2="184.3984"/><line style="stroke:#181818;stroke-width:1.0;" x1="517.75" x2="517.75" y1="184.3984" y2="206.3984"/><polygon fill="#181818" points="513.75,196.3984,517.75,206.3984,521.75,196.3984,517.75,200.3984" style="stroke:#181818;stroke-width:1.0;"/><line style="stroke:#181818;stroke-width:1.0;" x1="313.125" x2="313.125" y1="152.3984" y2="172.3984"/><polygon fill="#181818" points="309.125,162.3984,313.125,172.3984,317.125,162.3984,313.125,166.3984" style="stroke:#181818;stroke-width:1.0;"/><!--SRC=[RLB1Rjim3BthAxXJsqFw0SvfQB4Xm0x3YWBTXXqKYKw4oP91KccohnybELjIr1VBudkFxv7-49ABnIEmd2BUpsMAnh1O4ZCyCnBW4LqHP7Z4Y88lttyyv6cooQ_DyFRggwLE4R9E66IFG8evs2IG4wwsbj53I1wFPgGyDKH8Sn6mj2iJ9baRS_Eafh3LjYWM-9J47i5dTP6o09TvpYGmH-j2sZMWoya72Jb1BiB1DxgvyS5EMe5NR6XjffswCQ6Y-cIJswi55hJ-tfWmmkrThIUu_Rb91nk3Xqqr31yNXx_k3EWpF0PMpHCWKIQOaDdki9NKHLYeha_c8bu5iEJPO6JK9lLrbloC0d-GykMWe0tgpVIwpF2mH_Ux9bxbSRND9Nc-cCIejhg4VdmAKP3GwxQ-15vyNAMj0rcCD74u1pndKUgYTnLv_O_IOjN34csq_xDroMye5F1Gzu2w_Go-_K8zuxiMEszJuO4NkE_uTt3B5Rm6sJU_X5C-rAaniAq7xHcpix6QfIlt0pmLvpJJELWb4KgXXFuwv5y0]--></g></svg>
