<?xml version="1.0" encoding="us-ascii" standalone="no"?><svg xmlns="http://www.w3.org/2000/svg" xmlns:xlink="http://www.w3.org/1999/xlink" contentStyleType="text/css" height="560px" preserveAspectRatio="none" style="width:755px;height:560px;background:#FFFFFF;" version="1.1" viewBox="0 0 755 560" width="755px" zoomAndPan="magnify"><defs/><g><ellipse cx="302.5" cy="20" fill="#222222" rx="10" ry="10" style="stroke:#222222;stroke-width:1.0;"/><rect fill="#F1F1F1" height="34.1328" rx="12.5" ry="12.5" style="stroke:#181818;stroke-width:0.5;" width="223" x="191" y="50"/><text fill="#000000" font-family="sans-serif" font-size="12" lengthAdjust="spacing" textLength="203" x="201" y="71.6016">User executes DeleteXYZCommand</text><rect fill="#F1F1F1" height="48.2656" rx="12.5" ry="12.5" style="stroke:#181818;stroke-width:0.5;" width="401" x="102" y="104.1328"/><text fill="#000000" font-family="sans-serif" font-size="12" lengthAdjust="spacing" textLength="381" x="112" y="125.7344">DeleteXYZCommandParser extracts the relevant one-based index</text><text fill="#000000" font-family="sans-serif" font-size="12" lengthAdjust="spacing" textLength="141" x="232" y="139.8672">from the input argument</text><polygon fill="#F1F1F1" points="302.5,172.3984,302.5,172.3984,314.5,184.3984,302.5,196.3984,302.5,196.3984,290.5,184.3984,302.5,172.3984" style="stroke:#181818;stroke-width:0.5;"/><text fill="#000000" font-family="sans-serif" font-size="11" lengthAdjust="spacing" textLength="133" x="157.5" y="182.0781">[Invalid Index Argument]</text><text fill="#000000" font-family="sans-serif" font-size="11" lengthAdjust="spacing" textLength="29" x="314.5" y="182.0781">[else]</text><rect fill="#F1F1F1" height="48.2656" rx="12.5" ry="12.5" style="stroke:#181818;stroke-width:0.5;" width="195" x="11" y="206.3984"/><text fill="#000000" font-family="sans-serif" font-size="12" lengthAdjust="spacing" textLength="130" x="43.5" y="228">Display error message</text><text fill="#000000" font-family="sans-serif" font-size="12" lengthAdjust="spacing" textLength="175" x="21" y="242.1328">on invalid command argument</text><ellipse cx="108.5" cy="299.7969" fill="none" rx="11" ry="11" style="stroke:#222222;stroke-width:1.0;"/><ellipse cx="108.5" cy="299.7969" fill="#222222" rx="6" ry="6" style="stroke:#111111;stroke-width:1.0;"/><rect fill="#F1F1F1" height="34.1328" rx="12.5" ry="12.5" style="stroke:#181818;stroke-width:0.5;" width="284" x="354.5" y="206.3984"/><text fill="#000000" font-family="sans-serif" font-size="12" lengthAdjust="spacing" textLength="264" x="364.5" y="228">Get zero-based index from one-based index</text><rect fill="#F1F1F1" height="34.1328" rx="12.5" ry="12.5" style="stroke:#181818;stroke-width:0.5;" width="320" x="336.5" y="274.6641"/><text fill="#000000" font-family="sans-serif" font-size="12" lengthAdjust="spacing" textLength="300" x="346.5" y="296.2656">Check out-of-bounds condition for index on XYZList</text><polygon fill="#F1F1F1" points="496.5,330.7969,496.5,330.7969,508.5,342.7969,496.5,354.7969,496.5,354.7969,484.5,342.7969,496.5,330.7969" style="stroke:#181818;stroke-width:0.5;"/><text fill="#000000" font-family="sans-serif" font-size="11" lengthAdjust="spacing" textLength="30" x="454.5" y="340.4766">[true]</text><text fill="#000000" font-family="sans-serif" font-size="11" lengthAdjust="spacing" textLength="33" x="508.5" y="340.4766">[false]</text><rect fill="#F1F1F1" height="34.1328" rx="12.5" ry="12.5" style="stroke:#181818;stroke-width:0.5;" width="257" x="236" y="364.7969"/><text fill="#000000" font-family="sans-serif" font-size="12" lengthAdjust="spacing" textLength="233" x="250" y="386.3984">Display invalid XYZ index error message</text><ellipse cx="364.5" cy="429.9297" fill="none" rx="11" ry="11" style="stroke:#222222;stroke-width:1.0;"/><ellipse cx="364.5" cy="429.9297" fill="#222222" rx="6" ry="6" style="stroke:#111111;stroke-width:1.0;"/><rect fill="#F1F1F1" height="34.1328" rx="12.5" ry="12.5" style="stroke:#181818;stroke-width:0.5;" width="231" x="513" y="364.7969"/><text fill="#000000" font-family="sans-serif" font-size="12" lengthAdjust="spacing" textLength="207" x="527" y="386.3984">Retrieve item to delete from XYZList</text><rect fill="#F1F1F1" height="34.1328" rx="12.5" ry="12.5" style="stroke:#181818;stroke-width:0.5;" width="186" x="535.5" y="418.9297"/><text fill="#000000" font-family="sans-serif" font-size="12" lengthAdjust="spacing" textLength="162" x="549.5" y="440.5313">Item is deleted from XYZList</text><rect fill="#F1F1F1" height="34.1328" rx="12.5" ry="12.5" style="stroke:#181818;stroke-width:0.5;" width="190" x="533.5" y="473.0625"/><text fill="#000000" font-family="sans-serif" font-size="12" lengthAdjust="spacing" textLength="166" x="547.5" y="494.6641">Success message is returned</text><ellipse cx="628.5" cy="538.1953" fill="none" rx="11" ry="11" style="stroke:#222222;stroke-width:1.0;"/><ellipse cx="628.5" cy="538.1953" fill="#222222" rx="6" ry="6" style="stroke:#111111;stroke-width:1.0;"/><line style="stroke:#181818;stroke-width:1.0;" x1="302.5" x2="302.5" y1="30" y2="50"/><polygon fill="#181818" points="298.5,40,302.5,50,306.5,40,302.5,44" style="stroke:#181818;stroke-width:1.0;"/><line style="stroke:#181818;stroke-width:1.0;" x1="302.5" x2="302.5" y1="84.1328" y2="104.1328"/><polygon fill="#181818" points="298.5,94.1328,302.5,104.1328,306.5,94.1328,302.5,98.1328" style="stroke:#181818;stroke-width:1.0;"/><line style="stroke:#181818;stroke-width:1.0;" x1="108.5" x2="108.5" y1="254.6641" y2="288.7969"/><polygon fill="#181818" points="104.5,278.7969,108.5,288.7969,112.5,278.7969,108.5,282.7969" style="stroke:#181818;stroke-width:1.0;"/><line style="stroke:#181818;stroke-width:1.0;" x1="496.5" x2="496.5" y1="240.5313" y2="274.6641"/><polygon fill="#181818" points="492.5,264.6641,496.5,274.6641,500.5,264.6641,496.5,268.6641" style="stroke:#181818;stroke-width:1.0;"/><line style="stroke:#181818;stroke-width:1.0;" x1="364.5" x2="364.5" y1="398.9297" y2="418.9297"/><polygon fill="#181818" points="360.5,408.9297,364.5,418.9297,368.5,408.9297,364.5,412.9297" style="stroke:#181818;stroke-width:1.0;"/><line style="stroke:#181818;stroke-width:1.0;" x1="628.5" x2="628.5" y1="398.9297" y2="418.9297"/><polygon fill="#181818" points="624.5,408.9297,628.5,418.9297,632.5,408.9297,628.5,412.9297" style="stroke:#181818;stroke-width:1.0;"/><line style="stroke:#181818;stroke-width:1.0;" x1="628.5" x2="628.5" y1="453.0625" y2="473.0625"/><polygon fill="#181818" points="624.5,463.0625,628.5,473.0625,632.5,463.0625,628.5,467.0625" style="stroke:#181818;stroke-width:1.0;"/><line style="stroke:#181818;stroke-width:1.0;" x1="628.5" x2="628.5" y1="507.1953" y2="527.1953"/><polygon fill="#181818" points="624.5,517.1953,628.5,527.1953,632.5,517.1953,628.5,521.1953" style="stroke:#181818;stroke-width:1.0;"/><line style="stroke:#181818;stroke-width:1.0;" x1="484.5" x2="364.5" y1="342.7969" y2="342.7969"/><line style="stroke:#181818;stroke-width:1.0;" x1="364.5" x2="364.5" y1="342.7969" y2="364.7969"/><polygon fill="#181818" points="360.5,354.7969,364.5,364.7969,368.5,354.7969,364.5,358.7969" style="stroke:#181818;stroke-width:1.0;"/><line style="stroke:#181818;stroke-width:1.0;" x1="508.5" x2="628.5" y1="342.7969" y2="342.7969"/><line style="stroke:#181818;stroke-width:1.0;" x1="628.5" x2="628.5" y1="342.7969" y2="364.7969"/><polygon fill="#181818" points="624.5,354.7969,628.5,364.7969,632.5,354.7969,628.5,358.7969" style="stroke:#181818;stroke-width:1.0;"/><line style="stroke:#181818;stroke-width:1.0;" x1="496.5" x2="496.5" y1="308.7969" y2="330.7969"/><polygon fill="#181818" points="492.5,320.7969,496.5,330.7969,500.5,320.7969,496.5,324.7969" style="stroke:#181818;stroke-width:1.0;"/><line style="stroke:#181818;stroke-width:1.0;" x1="290.5" x2="108.5" y1="184.3984" y2="184.3984"/><line style="stroke:#181818;stroke-width:1.0;" x1="108.5" x2="108.5" y1="184.3984" y2="206.3984"/><polygon fill="#181818" points="104.5,196.3984,108.5,206.3984,112.5,196.3984,108.5,200.3984" style="stroke:#181818;stroke-width:1.0;"/><line style="stroke:#181818;stroke-width:1.0;" x1="314.5" x2="496.5" y1="184.3984" y2="184.3984"/><line style="stroke:#181818;stroke-width:1.0;" x1="496.5" x2="496.5" y1="184.3984" y2="206.3984"/><polygon fill="#181818" points="492.5,196.3984,496.5,206.3984,500.5,196.3984,496.5,200.3984" style="stroke:#181818;stroke-width:1.0;"/><line style="stroke:#181818;stroke-width:1.0;" x1="302.5" x2="302.5" y1="152.3984" y2="172.3984"/><polygon fill="#181818" points="298.5,162.3984,302.5,172.3984,306.5,162.3984,302.5,166.3984" style="stroke:#181818;stroke-width:1.0;"/><!--SRC=[TLBBRjim4BppAxQd90Vx0-nJaG25WHoA106I1ZtGvCecAYs5tQLhz-kpfEJM3b1TzDYPsPcXlYGAVOa8egSUbsCPUkT4FQjRlGWou153KHHum1uLNzz-tETXy1JNRlNvqtVF4qNP1nNGFG8Rvk198HCkjbumGgA8HzTn7XeYqLWKFE_AWAHhvswUpHIssHRLWvn8_H5YDXUK5QICOsQ5iVSXqQu1GwQOD6M2N5HIR7Ht4vCVR0A_iQ5jcMsQZ2aNqsTFOMyMHD77fNEfWzkxEYUuVT_GmVSfmgOQXg-pmvzt3knQFIGnpHCWSsOOKCJli8tCHPgfOMhc8bu5YERHOIzeI-hjBFaD5VuWvykYe1NrgRr9PdM_n_2h9bxaRh7DXQ9SDD6PhKd2NkoK7fFC-wzIrY9c0qqKpi7E6Omwwrn5NV-bj3ZrOOxK-N-P9iadL4vugFsZdNg6s7wTATkLjGc_gR0aCop-5_TSGZ0tPqkLmgY52UErlGy0]--></g></svg>