<?xml version="1.0" encoding="UTF-8" standalone="no"?><svg xmlns="http://www.w3.org/2000/svg" xmlns:xlink="http://www.w3.org/1999/xlink" contentStyleType="text/css" height="496.5px" preserveAspectRatio="none" style="width:1207px;height:496px;background:#FFFFFF;" version="1.1" viewBox="0 0 1207 496" width="1207px" zoomAndPan="magnify"><defs/><g><ellipse cx="445.6875" cy="10" fill="#222222" rx="5" ry="5" style="stroke:#222222;stroke-width:0.5;"/><rect fill="#F1F1F1" height="28.8672" rx="6.25" ry="6.25" style="stroke:#181818;stroke-width:0.25;" width="307.5" x="291.9375" y="25"/><text fill="#000000" font-family="sans-serif" font-size="15" lengthAdjust="spacing" textLength="297.5" x="296.9375" y="45.5713">User enters command to edit XYZ in XYZ List</text><rect fill="#F1F1F1" height="28.8672" rx="6.25" ry="6.25" style="stroke:#181818;stroke-width:0.25;" width="319.5" x="285.9375" y="63.8672"/><text fill="#000000" font-family="sans-serif" font-size="15" lengthAdjust="spacing" textLength="309.5" x="290.9375" y="84.4385">EditXYZCommandParser parses the user input</text><polygon fill="#F1F1F1" points="445.6875,109.4536,445.6875,109.4536,451.6875,115.4536,445.6875,121.4536,445.6875,121.4536,439.6875,115.4536,445.6875,109.4536" style="stroke:#181818;stroke-width:0.25;"/><text fill="#000000" font-family="sans-serif" font-size="12.5" lengthAdjust="spacing" textLength="142" x="297.6875" y="112.707">[Invalid command format]</text><text fill="#000000" font-family="sans-serif" font-size="12.5" lengthAdjust="spacing" textLength="30.5" x="451.6875" y="112.707">[else]</text><rect fill="#F1F1F1" height="28.8672" rx="6.25" ry="6.25" style="stroke:#181818;stroke-width:0.25;" width="177" x="85.75" y="126.4536"/><text fill="#000000" font-family="sans-serif" font-size="15" lengthAdjust="spacing" textLength="167" x="90.75" y="147.0249">ParseException is thrown</text><rect fill="#F1F1F1" height="28.8672" rx="6.25" ry="6.25" style="stroke:#181818;stroke-width:0.25;" width="337.5" x="5.5" y="172.8208"/><text fill="#000000" font-family="sans-serif" font-size="15" lengthAdjust="spacing" textLength="327.5" x="10.5" y="193.3921">Invalid Command Format error message is shown</text><ellipse cx="174.25" cy="224.688" fill="none" rx="5.5" ry="5.5" style="stroke:#222222;stroke-width:0.5;"/><ellipse cx="174.25" cy="224.688" fill="#222222" rx="3" ry="3" style="stroke:#111111;stroke-width:0.5;"/><rect fill="#F1F1F1" height="47.7344" rx="6.25" ry="6.25" style="stroke:#181818;stroke-width:0.25;" width="262" x="586.125" y="126.4536"/><text fill="#000000" font-family="sans-serif" font-size="15" lengthAdjust="spacing" textLength="252" x="591.125" y="147.0249">EditXYZCommandParser parses input</text><text fill="#000000" font-family="sans-serif" font-size="15" lengthAdjust="spacing" textLength="187.5" x="591.125" y="165.8921">:Check if index given is valid</text><polygon fill="#F1F1F1" points="717.125,195.4106,717.125,195.4106,723.125,201.4106,717.125,207.4106,717.125,207.4106,711.125,201.4106,717.125,195.4106" style="stroke:#181818;stroke-width:0.25;"/><text fill="#000000" font-family="sans-serif" font-size="12.5" lengthAdjust="spacing" textLength="129.5" x="581.625" y="198.6641">[Index is out of bounds]</text><text fill="#000000" font-family="sans-serif" font-size="12.5" lengthAdjust="spacing" textLength="30.5" x="723.125" y="198.6641">[else]</text><rect fill="#F1F1F1" height="28.8672" rx="6.25" ry="6.25" style="stroke:#181818;stroke-width:0.25;" width="215.5" x="393" y="212.4106"/><text fill="#000000" font-family="sans-serif" font-size="15" lengthAdjust="spacing" textLength="205.5" x="398" y="232.9819">CommandExeception is thrown</text><rect fill="#F1F1F1" height="28.8672" rx="6.25" ry="6.25" style="stroke:#181818;stroke-width:0.25;" width="285.5" x="358" y="251.2778"/><text fill="#000000" font-family="sans-serif" font-size="15" lengthAdjust="spacing" textLength="275.5" x="363" y="271.8491">Invalid Item Index error message is shown</text><ellipse cx="500.75" cy="298.6416" fill="none" rx="5.5" ry="5.5" style="stroke:#222222;stroke-width:0.5;"/><ellipse cx="500.75" cy="298.6416" fill="#222222" rx="3" ry="3" style="stroke:#111111;stroke-width:0.5;"/><rect fill="#F1F1F1" height="28.8672" rx="6.25" ry="6.25" style="stroke:#181818;stroke-width:0.25;" width="387.5" x="739.75" y="212.4106"/><text fill="#000000" font-family="sans-serif" font-size="15" lengthAdjust="spacing" textLength="377.5" x="744.75" y="232.9819">Item XYZ at given index retrieved from its filtered XYZ List</text><rect fill="#F1F1F1" height="28.8672" rx="6.25" ry="6.25" style="stroke:#181818;stroke-width:0.25;" width="279" x="794" y="251.2778"/><text fill="#000000" font-family="sans-serif" font-size="15" lengthAdjust="spacing" textLength="269" x="799" y="271.8491">Copy of the item XYZ is made and edited</text><polygon fill="#F1F1F1" points="933.5,312.5869,933.5,312.5869,939.5,318.5869,933.5,324.5869,933.5,324.5869,927.5,318.5869,933.5,312.5869" style="stroke:#181818;stroke-width:0.25;"/><text fill="#000000" font-family="sans-serif" font-size="12.5" lengthAdjust="spacing" textLength="274" x="653.5" y="300.1177">[Edited item is the same as other items in the list</text><text fill="#000000" font-family="sans-serif" font-size="12.5" lengthAdjust="spacing" textLength="205" x="653.5" y="315.8403">or no actual change is made to item]</text><text fill="#000000" font-family="sans-serif" font-size="12.5" lengthAdjust="spacing" textLength="30.5" x="939.5" y="315.8403">[else]</text><rect fill="#F1F1F1" height="28.8672" rx="6.25" ry="6.25" style="stroke:#181818;stroke-width:0.25;" width="207.5" x="692.75" y="329.5869"/><text fill="#000000" font-family="sans-serif" font-size="15" lengthAdjust="spacing" textLength="197.5" x="697.75" y="350.1582">CommandException is thrown</text><rect fill="#F1F1F1" height="28.8672" rx="6.25" ry="6.25" style="stroke:#181818;stroke-width:0.25;" width="265.5" x="663.75" y="375.9541"/><text fill="#000000" font-family="sans-serif" font-size="15" lengthAdjust="spacing" textLength="255.5" x="668.75" y="396.5254">Duplicate Item error message is shown</text><ellipse cx="796.5" cy="427.8213" fill="none" rx="5.5" ry="5.5" style="stroke:#222222;stroke-width:0.5;"/><ellipse cx="796.5" cy="427.8213" fill="#222222" rx="3" ry="3" style="stroke:#111111;stroke-width:0.5;"/><rect fill="#F1F1F1" height="47.7344" rx="6.25" ry="6.25" style="stroke:#181818;stroke-width:0.25;" width="221" x="960" y="329.5869"/><text fill="#000000" font-family="sans-serif" font-size="15" lengthAdjust="spacing" textLength="163" x="965" y="350.1582">Item in XYZ List is edited</text><text fill="#000000" font-family="sans-serif" font-size="15" lengthAdjust="spacing" textLength="211" x="965" y="369.0254">and Filtered XYZ List is updated</text><rect fill="#F1F1F1" height="28.8672" rx="6.25" ry="6.25" style="stroke:#181818;stroke-width:0.25;" width="262.5" x="939.25" y="394.8213"/><text fill="#000000" font-family="sans-serif" font-size="15" lengthAdjust="spacing" textLength="252.5" x="944.25" y="415.3926">Changes made are saved to local data</text><rect fill="#F1F1F1" height="28.8672" rx="6.25" ry="6.25" style="stroke:#181818;stroke-width:0.25;" width="222.5" x="959.25" y="441.1885"/><text fill="#000000" font-family="sans-serif" font-size="15" lengthAdjust="spacing" textLength="212.5" x="964.25" y="461.7598">Edit Success Message is shown</text><ellipse cx="1070.5" cy="485.5557" fill="none" rx="5.5" ry="5.5" style="stroke:#222222;stroke-width:0.5;"/><ellipse cx="1070.5" cy="485.5557" fill="#222222" rx="3" ry="3" style="stroke:#111111;stroke-width:0.5;"/><line style="stroke:#181818;stroke-width:0.5;" x1="445.6875" x2="445.6875" y1="15" y2="25"/><polygon fill="#181818" points="443.6875,20,445.6875,25,447.6875,20,445.6875,22" style="stroke:#181818;stroke-width:0.5;"/><line style="stroke:#181818;stroke-width:0.5;" x1="445.6875" x2="445.6875" y1="53.8672" y2="63.8672"/><polygon fill="#181818" points="443.6875,58.8672,445.6875,63.8672,447.6875,58.8672,445.6875,60.8672" style="stroke:#181818;stroke-width:0.5;"/><line style="stroke:#181818;stroke-width:0.5;" x1="174.25" x2="174.25" y1="155.3208" y2="172.8208"/><polygon fill="#181818" points="172.25,167.8208,174.25,172.8208,176.25,167.8208,174.25,169.8208" style="stroke:#181818;stroke-width:0.5;"/><line style="stroke:#181818;stroke-width:0.5;" x1="174.25" x2="174.25" y1="201.688" y2="219.188"/><polygon fill="#181818" points="172.25,214.188,174.25,219.188,176.25,214.188,174.25,216.188" style="stroke:#181818;stroke-width:0.5;"/><line style="stroke:#181818;stroke-width:0.5;" x1="500.75" x2="500.75" y1="241.2778" y2="251.2778"/><polygon fill="#181818" points="498.75,246.2778,500.75,251.2778,502.75,246.2778,500.75,248.2778" style="stroke:#181818;stroke-width:0.5;"/><line style="stroke:#181818;stroke-width:0.5;" x1="500.75" x2="500.75" y1="280.145" y2="293.1416"/><polygon fill="#181818" points="498.75,288.1416,500.75,293.1416,502.75,288.1416,500.75,290.1416" style="stroke:#181818;stroke-width:0.5;"/><line style="stroke:#181818;stroke-width:0.5;" x1="933.5" x2="933.5" y1="241.2778" y2="251.2778"/><polygon fill="#181818" points="931.5,246.2778,933.5,251.2778,935.5,246.2778,933.5,248.2778" style="stroke:#181818;stroke-width:0.5;"/><line style="stroke:#181818;stroke-width:0.5;" x1="796.5" x2="796.5" y1="358.4541" y2="375.9541"/><polygon fill="#181818" points="794.5,370.9541,796.5,375.9541,798.5,370.9541,796.5,372.9541" style="stroke:#181818;stroke-width:0.5;"/><line style="stroke:#181818;stroke-width:0.5;" x1="796.5" x2="796.5" y1="404.8213" y2="422.3213"/><polygon fill="#181818" points="794.5,417.3213,796.5,422.3213,798.5,417.3213,796.5,419.3213" style="stroke:#181818;stroke-width:0.5;"/><line style="stroke:#181818;stroke-width:0.5;" x1="1070.5" x2="1070.5" y1="377.3213" y2="394.8213"/><polygon fill="#181818" points="1068.5,389.8213,1070.5,394.8213,1072.5,389.8213,1070.5,391.8213" style="stroke:#181818;stroke-width:0.5;"/><line style="stroke:#181818;stroke-width:0.5;" x1="1070.5" x2="1070.5" y1="423.6885" y2="441.1885"/><polygon fill="#181818" points="1068.5,436.1885,1070.5,441.1885,1072.5,436.1885,1070.5,438.1885" style="stroke:#181818;stroke-width:0.5;"/><line style="stroke:#181818;stroke-width:0.5;" x1="1070.5" x2="1070.5" y1="470.0557" y2="480.0557"/><polygon fill="#181818" points="1068.5,475.0557,1070.5,480.0557,1072.5,475.0557,1070.5,477.0557" style="stroke:#181818;stroke-width:0.5;"/><line style="stroke:#181818;stroke-width:0.5;" x1="927.5" x2="796.5" y1="318.5869" y2="318.5869"/><line style="stroke:#181818;stroke-width:0.5;" x1="796.5" x2="796.5" y1="318.5869" y2="329.5869"/><polygon fill="#181818" points="794.5,324.5869,796.5,329.5869,798.5,324.5869,796.5,326.5869" style="stroke:#181818;stroke-width:0.5;"/><line style="stroke:#181818;stroke-width:0.5;" x1="939.5" x2="1070.5" y1="318.5869" y2="318.5869"/><line style="stroke:#181818;stroke-width:0.5;" x1="1070.5" x2="1070.5" y1="318.5869" y2="329.5869"/><polygon fill="#181818" points="1068.5,324.5869,1070.5,329.5869,1072.5,324.5869,1070.5,326.5869" style="stroke:#181818;stroke-width:0.5;"/><line style="stroke:#181818;stroke-width:0.5;" x1="933.5" x2="933.5" y1="280.145" y2="312.5869"/><polygon fill="#181818" points="931.5,307.5869,933.5,312.5869,935.5,307.5869,933.5,309.5869" style="stroke:#181818;stroke-width:0.5;"/><line style="stroke:#181818;stroke-width:0.5;" x1="711.125" x2="500.75" y1="201.4106" y2="201.4106"/><line style="stroke:#181818;stroke-width:0.5;" x1="500.75" x2="500.75" y1="201.4106" y2="212.4106"/><polygon fill="#181818" points="498.75,207.4106,500.75,212.4106,502.75,207.4106,500.75,209.4106" style="stroke:#181818;stroke-width:0.5;"/><line style="stroke:#181818;stroke-width:0.5;" x1="723.125" x2="933.5" y1="201.4106" y2="201.4106"/><line style="stroke:#181818;stroke-width:0.5;" x1="933.5" x2="933.5" y1="201.4106" y2="212.4106"/><polygon fill="#181818" points="931.5,207.4106,933.5,212.4106,935.5,207.4106,933.5,209.4106" style="stroke:#181818;stroke-width:0.5;"/><line style="stroke:#181818;stroke-width:0.5;" x1="717.125" x2="717.125" y1="174.188" y2="195.4106"/><polygon fill="#181818" points="715.125,190.4106,717.125,195.4106,719.125,190.4106,717.125,192.4106" style="stroke:#181818;stroke-width:0.5;"/><line style="stroke:#181818;stroke-width:0.5;" x1="439.6875" x2="174.25" y1="115.4536" y2="115.4536"/><line style="stroke:#181818;stroke-width:0.5;" x1="174.25" x2="174.25" y1="115.4536" y2="126.4536"/><polygon fill="#181818" points="172.25,121.4536,174.25,126.4536,176.25,121.4536,174.25,123.4536" style="stroke:#181818;stroke-width:0.5;"/><line style="stroke:#181818;stroke-width:0.5;" x1="451.6875" x2="717.125" y1="115.4536" y2="115.4536"/><line style="stroke:#181818;stroke-width:0.5;" x1="717.125" x2="717.125" y1="115.4536" y2="126.4536"/><polygon fill="#181818" points="715.125,121.4536,717.125,126.4536,719.125,121.4536,717.125,123.4536" style="stroke:#181818;stroke-width:0.5;"/><line style="stroke:#181818;stroke-width:0.5;" x1="445.6875" x2="445.6875" y1="92.7344" y2="109.4536"/><polygon fill="#181818" points="443.6875,104.4536,445.6875,109.4536,447.6875,104.4536,445.6875,106.4536" style="stroke:#181818;stroke-width:0.5;"/><!--MD5=[4e41aff641a81d170ad5ebb830b7e7f7]
@startuml
skinparam activityFontSize 30
skinparam activityArrowFontSize 25

start
:User enters command to edit XYZ in XYZ List;
:EditXYZCommandParser parses the user input;
if () then ([Invalid command format])
  :ParseException is thrown;
  :Invalid Command Format error message is shown;
  stop
else ([else])
:EditXYZCommandParser parses input
:Check if index given is valid;

if () then ([Index is out of bounds])
    :CommandExeception is thrown;
    :Invalid Item Index error message is shown;
    stop
else ([else])
:Item XYZ at given index retrieved from its filtered XYZ List;
:Copy of the item XYZ is made and edited;

if () then ([Edited item is the same as other items in the list
or no actual change is made to item])
:CommandException is thrown;
:Duplicate Item error message is shown;
stop

else ([else])
:Item in XYZ List is edited
and Filtered XYZ List is updated;
:Changes made are saved to local data;
:Edit Success Message is shown;
stop

@enduml

PlantUML version 1.2022.12(Mon Oct 24 02:12:26 SGT 2022)
(GPL source distribution)
Java Runtime: OpenJDK Runtime Environment
JVM: OpenJDK 64-Bit Server VM
Default Encoding: Cp1252
Language: en
Country: SG
--></g></svg>
