<?xml version="1.0" encoding="UTF-8" standalone="no"?><svg xmlns="http://www.w3.org/2000/svg" xmlns:xlink="http://www.w3.org/1999/xlink" contentStyleType="text/css" height="299px" preserveAspectRatio="none" style="width:375px;height:299px;background:#FFFFFF;" version="1.1" viewBox="0 0 375 299" width="375.5px" zoomAndPan="magnify"><defs/><g><ellipse cx="179.75" cy="10" fill="#222222" rx="5" ry="5" style="stroke:#222222;stroke-width:0.5;"/><rect fill="#F1F1F1" height="35.1563" rx="6.25" ry="6.25" style="stroke:#181818;stroke-width:0.25;" width="111" x="124.25" y="25"/><text fill="#000000" font-family="sans-serif" font-size="10" lengthAdjust="spacing" textLength="96.5" x="129.25" y="40.3809">User enters command</text><text fill="#000000" font-family="sans-serif" font-size="10" lengthAdjust="spacing" textLength="101" x="129.25" y="52.959">to edit XYZ in XYZ List</text><rect fill="#F1F1F1" height="35.1563" rx="6.25" ry="6.25" style="stroke:#181818;stroke-width:0.25;" width="120.5" x="119.5" y="70.1563"/><text fill="#000000" font-family="sans-serif" font-size="10" lengthAdjust="spacing" textLength="110.5" x="124.5" y="85.5371">EditXYZCommandParser</text><text fill="#000000" font-family="sans-serif" font-size="10" lengthAdjust="spacing" textLength="92" x="133.5" y="98.1152">parses the user input</text><polygon fill="#F1F1F1" points="179.75,116.8604,179.75,116.8604,185.75,122.8604,179.75,128.8604,179.75,128.8604,173.75,122.8604,179.75,116.8604" style="stroke:#181818;stroke-width:0.25;"/><text fill="#000000" font-family="sans-serif" font-size="9" lengthAdjust="spacing" textLength="99" x="74.75" y="120.8828">[Invalid command format]</text><text fill="#000000" font-family="sans-serif" font-size="9" lengthAdjust="spacing" textLength="21.5" x="185.75" y="120.8828">[else]</text><rect fill="#F1F1F1" height="35.1563" rx="6.25" ry="6.25" style="stroke:#181818;stroke-width:0.25;" width="154.5" x="5.5" y="133.8604"/><text fill="#000000" font-family="sans-serif" font-size="10" lengthAdjust="spacing" textLength="144.5" x="10.5" y="149.2412">Display Invalid Command Format</text><text fill="#000000" font-family="sans-serif" font-size="10" lengthAdjust="spacing" textLength="64.5" x="49.5" y="161.8193">error message</text><ellipse cx="82.75" cy="184.5166" fill="none" rx="5.5" ry="5.5" style="stroke:#222222;stroke-width:0.5;"/><ellipse cx="82.75" cy="184.5166" fill="#222222" rx="3" ry="3" style="stroke:#111111;stroke-width:0.5;"/><rect fill="#F1F1F1" height="35.1563" rx="6.25" ry="6.25" style="stroke:#181818;stroke-width:0.25;" width="118.5" x="217.5" y="133.8604"/><text fill="#000000" font-family="sans-serif" font-size="10" lengthAdjust="spacing" textLength="108.5" x="222.5" y="149.2412">Change one-based index</text><text fill="#000000" font-family="sans-serif" font-size="10" lengthAdjust="spacing" textLength="86.5" x="231.5" y="161.8193">to zero-based index</text><rect fill="#F1F1F1" height="22.5781" rx="6.25" ry="6.25" style="stroke:#181818;stroke-width:0.25;" width="129" x="212.25" y="179.0166"/><text fill="#000000" font-family="sans-serif" font-size="10" lengthAdjust="spacing" textLength="119" x="217.25" y="194.3975">Check if index given is valid</text><polygon fill="#F1F1F1" points="276.75,213.1426,276.75,213.1426,282.75,219.1426,276.75,225.1426,276.75,225.1426,270.75,219.1426,276.75,213.1426" style="stroke:#181818;stroke-width:0.25;"/><text fill="#000000" font-family="sans-serif" font-size="9" lengthAdjust="spacing" textLength="92" x="178.75" y="217.165">[Index is out of bounds]</text><text fill="#000000" font-family="sans-serif" font-size="9" lengthAdjust="spacing" textLength="21.5" x="282.75" y="217.165">[else]</text><rect fill="#F1F1F1" height="35.1563" rx="6.25" ry="6.25" style="stroke:#181818;stroke-width:0.25;" width="101" x="175" y="230.1426"/><text fill="#000000" font-family="sans-serif" font-size="10" lengthAdjust="spacing" textLength="85" x="180" y="245.5234">Display Invalid Item</text><text fill="#000000" font-family="sans-serif" font-size="10" lengthAdjust="spacing" textLength="91" x="180" y="258.1016">Index error message</text><ellipse cx="225.5" cy="288.2988" fill="none" rx="5.5" ry="5.5" style="stroke:#222222;stroke-width:0.5;"/><ellipse cx="225.5" cy="288.2988" fill="#222222" rx="3" ry="3" style="stroke:#111111;stroke-width:0.5;"/><rect fill="#F1F1F1" height="22.5781" rx="6.25" ry="6.25" style="stroke:#181818;stroke-width:0.25;" width="84" x="286" y="230.1426"/><text fill="#000000" font-family="sans-serif" font-size="10" lengthAdjust="spacing" textLength="61" x="291" y="245.5234">Edit item XYZ</text><path d="M358.5,238.2207 L359.5,238.2207 L359.5,241.2207 L362.5,241.2207 L362.5,245.2207 L361.5,245.2207 L361.5,242.2207 L359.5,242.2207 L359.5,245.2207 L358.5,245.2207 L358.5,242.2207 L356.5,242.2207 L356.5,245.2207 L355.5,245.2207 L355.5,241.2207 L358.5,241.2207 " fill="#181818" style="stroke:;stroke-width:0.0;stroke-dasharray:;"/><ellipse cx="328" cy="275.7207" fill="none" rx="5.5" ry="5.5" style="stroke:#222222;stroke-width:0.5;"/><ellipse cx="328" cy="275.7207" fill="#222222" rx="3" ry="3" style="stroke:#111111;stroke-width:0.5;"/><line style="stroke:#181818;stroke-width:0.5;" x1="179.75" x2="179.75" y1="15" y2="25"/><polygon fill="#181818" points="177.75,20,179.75,25,181.75,20,179.75,22" style="stroke:#181818;stroke-width:0.5;"/><line style="stroke:#181818;stroke-width:0.5;" x1="179.75" x2="179.75" y1="60.1563" y2="70.1563"/><polygon fill="#181818" points="177.75,65.1563,179.75,70.1563,181.75,65.1563,179.75,67.1563" style="stroke:#181818;stroke-width:0.5;"/><line style="stroke:#181818;stroke-width:0.5;" x1="82.75" x2="82.75" y1="169.0166" y2="179.0166"/><polygon fill="#181818" points="80.75,174.0166,82.75,179.0166,84.75,174.0166,82.75,176.0166" style="stroke:#181818;stroke-width:0.5;"/><line style="stroke:#181818;stroke-width:0.5;" x1="276.75" x2="276.75" y1="169.0166" y2="179.0166"/><polygon fill="#181818" points="274.75,174.0166,276.75,179.0166,278.75,174.0166,276.75,176.0166" style="stroke:#181818;stroke-width:0.5;"/><line style="stroke:#181818;stroke-width:0.5;" x1="225.5" x2="225.5" y1="265.2988" y2="282.7988"/><polygon fill="#181818" points="223.5,277.7988,225.5,282.7988,227.5,277.7988,225.5,279.7988" style="stroke:#181818;stroke-width:0.5;"/><line style="stroke:#181818;stroke-width:0.5;" x1="328" x2="328" y1="252.7207" y2="270.2207"/><polygon fill="#181818" points="326,265.2207,328,270.2207,330,265.2207,328,267.2207" style="stroke:#181818;stroke-width:0.5;"/><line style="stroke:#181818;stroke-width:0.5;" x1="270.75" x2="225.5" y1="219.1426" y2="219.1426"/><line style="stroke:#181818;stroke-width:0.5;" x1="225.5" x2="225.5" y1="219.1426" y2="230.1426"/><polygon fill="#181818" points="223.5,225.1426,225.5,230.1426,227.5,225.1426,225.5,227.1426" style="stroke:#181818;stroke-width:0.5;"/><line style="stroke:#181818;stroke-width:0.5;" x1="282.75" x2="328" y1="219.1426" y2="219.1426"/><line style="stroke:#181818;stroke-width:0.5;" x1="328" x2="328" y1="219.1426" y2="230.1426"/><polygon fill="#181818" points="326,225.1426,328,230.1426,330,225.1426,328,227.1426" style="stroke:#181818;stroke-width:0.5;"/><line style="stroke:#181818;stroke-width:0.5;" x1="276.75" x2="276.75" y1="201.5947" y2="213.1426"/><polygon fill="#181818" points="274.75,208.1426,276.75,213.1426,278.75,208.1426,276.75,210.1426" style="stroke:#181818;stroke-width:0.5;"/><line style="stroke:#181818;stroke-width:0.5;" x1="173.75" x2="82.75" y1="122.8604" y2="122.8604"/><line style="stroke:#181818;stroke-width:0.5;" x1="82.75" x2="82.75" y1="122.8604" y2="133.8604"/><polygon fill="#181818" points="80.75,128.8604,82.75,133.8604,84.75,128.8604,82.75,130.8604" style="stroke:#181818;stroke-width:0.5;"/><line style="stroke:#181818;stroke-width:0.5;" x1="185.75" x2="276.75" y1="122.8604" y2="122.8604"/><line style="stroke:#181818;stroke-width:0.5;" x1="276.75" x2="276.75" y1="122.8604" y2="133.8604"/><polygon fill="#181818" points="274.75,128.8604,276.75,133.8604,278.75,128.8604,276.75,130.8604" style="stroke:#181818;stroke-width:0.5;"/><line style="stroke:#181818;stroke-width:0.5;" x1="179.75" x2="179.75" y1="105.3125" y2="116.8604"/><polygon fill="#181818" points="177.75,111.8604,179.75,116.8604,181.75,111.8604,179.75,113.8604" style="stroke:#181818;stroke-width:0.5;"/><!--MD5=[ca13a3e62717c3ab6e079d4a01fe6257]
@startuml
skinparam activityFontSize 20
skinparam activityArrowFontSize 18

'@@author anonymous-reused
'Reused from https://forum.plantuml.net/195/is-there-any-support-for-subactivity-or-the-rake-symbol
sprite $rake <svg width="20" height="20" viewBox="0 0 20 20">
<path
    style="fill:#000000"
    d="M 7,1 H 9 V 7 H 15 V 15 H 13 V 9 H 9 V 15 H 7 V 9 H 3 V 15 H 1 V 7 H 7 Z"
/>
</svg>
'@@author

start
:User enters command
to edit XYZ in XYZ List;
:EditXYZCommandParser
   parses the user input;
if () then ([Invalid command format])
  :Display Invalid Command Format
               error message;
  stop
else ([else])
:Change one-based index
   to zero-based index;
:Check if index given is valid;

if () then ([Index is out of bounds])
    :Display Invalid Item
    Index error message;
    stop
else ([else])
:Edit item XYZ <$rake>;
stop

@enduml

PlantUML version 1.2022.12(Mon Oct 24 02:12:26 SGT 2022)
(GPL source distribution)
Java Runtime: OpenJDK Runtime Environment
JVM: OpenJDK 64-Bit Server VM
Default Encoding: Cp1252
Language: en
Country: SG
--></g></svg>
