<?xml version="1.0" encoding="us-ascii" standalone="no"?>
<svg xmlns="http://www.w3.org/2000/svg" xmlns:xlink="http://www.w3.org/1999/xlink" contentStyleType="text/css"
     height="463px" preserveAspectRatio="none" style="width:590px;height:463px;background:#FFFFFF;" version="1.1"
     viewBox="0 0 590 463" width="590px" zoomAndPan="magnify">
    <defs/>
    <g>
        <ellipse cx="302.25" cy="20" fill="#222222" rx="10" ry="10" style="stroke:#222222;stroke-width:1.0;"/>
        <rect fill="#F1F1F1" height="36.3441" rx="12.5" ry="12.5" style="stroke:#181818;stroke-width:0.5;" width="169"
              x="217.75" y="50"/>
        <text fill="#000000" font-family="sans-serif" font-size="12" lengthAdjust="spacing" textLength="149" x="227.75"
              y="72.8281">User enters edit command
        </text>
        <polygon fill="#F1F1F1"
                 points="82.5,106.3441,82.5,106.3441,94.5,118.3441,82.5,130.3441,82.5,130.3441,70.5,118.3441,82.5,106.3441"
                 style="stroke:#181818;stroke-width:0.5;"/>
        <text fill="#000000" font-family="sans-serif" font-size="11" lengthAdjust="spacing" textLength="104" x="86.5"
              y="142.103">[Invalid arguments]
        </text>
        <rect fill="#F1F1F1" height="36.3441" rx="12.5" ry="12.5" style="stroke:#181818;stroke-width:0.5;" width="143"
              x="11" y="163.603"/>
        <text fill="#000000" font-family="sans-serif" font-size="12" lengthAdjust="spacing" textLength="123" x="21"
              y="186.4311">Error: Message usage
        </text>
        <ellipse cx="82.5" cy="230.9471" fill="none" rx="11" ry="11" style="stroke:#222222;stroke-width:1.0;"/>
        <ellipse cx="82.5" cy="230.9471" fill="#222222" rx="6" ry="6" style="stroke:#111111;stroke-width:1.0;"/>
        <polygon fill="#F1F1F1"
                 points="290,106.3441,290,106.3441,302,118.3441,290,130.3441,290,130.3441,278,118.3441,290,106.3441"
                 style="stroke:#181818;stroke-width:0.5;"/>
        <text fill="#000000" font-family="sans-serif" font-size="11" lengthAdjust="spacing" textLength="76" x="294"
              y="142.103">[Invalid index]
        </text>
        <rect fill="#F1F1F1" height="36.3441" rx="12.5" ry="12.5" style="stroke:#181818;stroke-width:0.5;" width="167"
              x="206.5" y="163.603"/>
        <text fill="#000000" font-family="sans-serif" font-size="12" lengthAdjust="spacing" textLength="147" x="216.5"
              y="186.4311">Error: Invalid person index
        </text>
        <ellipse cx="290" cy="230.9471" fill="none" rx="11" ry="11" style="stroke:#222222;stroke-width:1.0;"/>
        <ellipse cx="290" cy="230.9471" fill="#222222" rx="6" ry="6" style="stroke:#111111;stroke-width:1.0;"/>
        <polygon fill="#F1F1F1"
                 points="468.5,106.3441,468.5,106.3441,480.5,118.3441,468.5,130.3441,468.5,130.3441,456.5,118.3441,468.5,106.3441"
                 style="stroke:#181818;stroke-width:0.5;"/>
        <text fill="#000000" font-family="sans-serif" font-size="11" lengthAdjust="spacing" textLength="70" x="472.5"
              y="142.103">[Name exists]
        </text>
        <text fill="#000000" font-family="sans-serif" font-size="11" lengthAdjust="spacing" textLength="3" x="480.5"
              y="115.1211">&#160;
        </text>
        <rect fill="#F1F1F1" height="36.3441" rx="12.5" ry="12.5" style="stroke:#181818;stroke-width:0.5;" width="150"
              x="393.5" y="163.603"/>
        <text fill="#000000" font-family="sans-serif" font-size="12" lengthAdjust="spacing" textLength="130" x="403.5"
              y="186.4311">Error: Duplicate person
        </text>
        <ellipse cx="468.5" cy="230.9471" fill="none" rx="11" ry="11" style="stroke:#222222;stroke-width:1.0;"/>
        <ellipse cx="468.5" cy="230.9471" fill="#222222" rx="6" ry="6" style="stroke:#111111;stroke-width:1.0;"/>
        <rect fill="#F1F1F1" height="36.3441" rx="12.5" ry="12.5" style="stroke:#181818;stroke-width:0.5;" width="304"
              x="150.25" y="261.9471"/>
        <text fill="#000000" font-family="sans-serif" font-size="12" lengthAdjust="spacing" textLength="284" x="160.25"
              y="284.7752">Common modules and contact index are computed
        </text>
        <rect fill="#F1F1F1" height="36.3441" rx="12.5" ry="12.5" style="stroke:#181818;stroke-width:0.5;" width="214"
              x="195.25" y="318.2913"/>
        <text fill="#000000" font-family="sans-serif" font-size="12" lengthAdjust="spacing" textLength="194" x="205.25"
              y="341.1193">Edited person is added to EduMate
        </text>
        <rect fill="#F1F1F1" height="36.3441" rx="12.5" ry="12.5" style="stroke:#181818;stroke-width:0.5;" width="183"
              x="210.75" y="374.6354"/>
        <text fill="#000000" font-family="sans-serif" font-size="12" lengthAdjust="spacing" textLength="163" x="220.75"
              y="397.4635">Success message is returned
        </text>
        <ellipse cx="302.25" cy="441.9795" fill="none" rx="11" ry="11" style="stroke:#222222;stroke-width:1.0;"/>
        <ellipse cx="302.25" cy="441.9795" fill="#222222" rx="6" ry="6" style="stroke:#111111;stroke-width:1.0;"/>
        <line style="stroke:#181818;stroke-width:1.0;" x1="302.25" x2="302.25" y1="30" y2="50"/>
        <polygon fill="#181818" points="298.25,40,302.25,50,306.25,40,302.25,44"
                 style="stroke:#181818;stroke-width:1.0;"/>
        <line style="stroke:#181818;stroke-width:1.0;" x1="82.5" x2="82.5" y1="199.9471" y2="219.9471"/>
        <polygon fill="#181818" points="78.5,209.9471,82.5,219.9471,86.5,209.9471,82.5,213.9471"
                 style="stroke:#181818;stroke-width:1.0;"/>
        <line style="stroke:#181818;stroke-width:1.0;" x1="290" x2="290" y1="199.9471" y2="219.9471"/>
        <polygon fill="#181818" points="286,209.9471,290,219.9471,294,209.9471,290,213.9471"
                 style="stroke:#181818;stroke-width:1.0;"/>
        <line style="stroke:#181818;stroke-width:1.0;" x1="468.5" x2="468.5" y1="199.9471" y2="219.9471"/>
        <polygon fill="#181818" points="464.5,209.9471,468.5,219.9471,472.5,209.9471,468.5,213.9471"
                 style="stroke:#181818;stroke-width:1.0;"/>
        <line style="stroke:#181818;stroke-width:1.0;" x1="82.5" x2="82.5" y1="130.3441" y2="163.603"/>
        <polygon fill="#181818" points="78.5,153.603,82.5,163.603,86.5,153.603,82.5,157.603"
                 style="stroke:#181818;stroke-width:1.0;"/>
        <line style="stroke:#181818;stroke-width:1.0;" x1="290" x2="290" y1="130.3441" y2="163.603"/>
        <polygon fill="#181818" points="286,153.603,290,163.603,294,153.603,290,157.603"
                 style="stroke:#181818;stroke-width:1.0;"/>
        <line style="stroke:#181818;stroke-width:1.0;" x1="468.5" x2="468.5" y1="130.3441" y2="163.603"/>
        <polygon fill="#181818" points="464.5,153.603,468.5,163.603,472.5,153.603,468.5,157.603"
                 style="stroke:#181818;stroke-width:1.0;"/>
        <line style="stroke:#181818;stroke-width:1.0;" x1="94.5" x2="278" y1="118.3441" y2="118.3441"/>
        <polygon fill="#181818" points="268,114.3441,278,118.3441,268,122.3441,272,118.3441"
                 style="stroke:#181818;stroke-width:1.0;"/>
        <line style="stroke:#181818;stroke-width:1.0;" x1="302" x2="456.5" y1="118.3441" y2="118.3441"/>
        <polygon fill="#181818" points="446.5,114.3441,456.5,118.3441,446.5,122.3441,450.5,118.3441"
                 style="stroke:#181818;stroke-width:1.0;"/>
        <line style="stroke:#181818;stroke-width:1.0;" x1="302.25" x2="302.25" y1="86.3441" y2="91.3441"/>
        <line style="stroke:#181818;stroke-width:1.0;" x1="302.25" x2="82.5" y1="91.3441" y2="91.3441"/>
        <line style="stroke:#181818;stroke-width:1.0;" x1="82.5" x2="82.5" y1="91.3441" y2="106.3441"/>
        <polygon fill="#181818" points="78.5,96.3441,82.5,106.3441,86.5,96.3441,82.5,100.3441"
                 style="stroke:#181818;stroke-width:1.0;"/>
        <line style="stroke:#181818;stroke-width:1.0;" x1="480.5" x2="578.5" y1="118.3441" y2="118.3441"/>
        <line style="stroke:#181818;stroke-width:1.0;" x1="578.5" x2="578.5" y1="118.3441" y2="246.9471"/>
        <line style="stroke:#181818;stroke-width:1.0;" x1="578.5" x2="302.25" y1="246.9471" y2="246.9471"/>
        <line style="stroke:#181818;stroke-width:1.0;" x1="302.25" x2="302.25" y1="246.9471" y2="261.9471"/>
        <polygon fill="#181818" points="298.25,251.9471,302.25,261.9471,306.25,251.9471,302.25,255.9471"
                 style="stroke:#181818;stroke-width:1.0;"/>
        <line style="stroke:#181818;stroke-width:1.0;" x1="302.25" x2="302.25" y1="298.2913" y2="318.2913"/>
        <polygon fill="#181818" points="298.25,308.2913,302.25,318.2913,306.25,308.2913,302.25,312.2913"
                 style="stroke:#181818;stroke-width:1.0;"/>
        <line style="stroke:#181818;stroke-width:1.0;" x1="302.25" x2="302.25" y1="354.6354" y2="374.6354"/>
        <polygon fill="#181818" points="298.25,364.6354,302.25,374.6354,306.25,364.6354,302.25,368.6354"
                 style="stroke:#181818;stroke-width:1.0;"/>
        <line style="stroke:#181818;stroke-width:1.0;" x1="302.25" x2="302.25" y1="410.9795" y2="430.9795"/>
        <polygon fill="#181818" points="298.25,420.9795,302.25,430.9795,306.25,420.9795,302.25,424.9795"
                 style="stroke:#181818;stroke-width:1.0;"/><!--SRC=[VP2nJWCn44HxVyMMoIyu9Ln14Hf4XL9OtacmT5wVl6kKpsUF98eK42uiMJj-CpjggLk8xufE44DN0XUZt6fDmhjGZhJPadr2QFFn8bzfBaofdqPrkHwsWVp4gVVM8-sXcawWiTwxdv5QMm9cnP-W8epp0-GsMpnCaulaFzPhgY2SY_wAypoMkUHakB8UACu842x749zyNVUgZSSC9T_S6n1BsIx-lZ7MJfPXy5BYv1tX7j5_CFlR6aqyzkxechUHi_T1zLgAgpfiT5a9QuXl]-->
    </g>
</svg>
