<?xml version="1.0" encoding="UTF-8" standalone="no"?><svg xmlns="http://www.w3.org/2000/svg" xmlns:xlink="http://www.w3.org/1999/xlink" contentStyleType="text/css" height="224.2px" preserveAspectRatio="none" style="width:556px;height:224px;background:#FFFFFF;" version="1.1" viewBox="0 0 556 224" width="556px" zoomAndPan="magnify"><defs/><g><ellipse cx="187.3375" cy="4" fill="#222222" rx="2" ry="2" style="stroke:#222222;stroke-width:0.20000000000000004;"/><rect fill="#F1F1F1" height="11.5469" rx="2.5" ry="2.5" style="stroke:#181818;stroke-width:0.10000000000000002;" width="123" x="125.8375" y="10"/><text fill="#000000" font-family="sans-serif" font-size="6" lengthAdjust="spacing" textLength="119" x="127.8375" y="18.2285">User enters command to edit XYZ in XYZ List</text><rect fill="#F1F1F1" height="11.5469" rx="2.5" ry="2.5" style="stroke:#181818;stroke-width:0.10000000000000002;" width="169.4" x="102.6375" y="25.5469"/><text fill="#000000" font-family="sans-serif" font-size="6" lengthAdjust="spacing" textLength="165.4" x="104.6375" y="33.7754">EditXYZCommandParser is called upon to parse the user input</text><polygon fill="#F1F1F1" points="187.3375,43.7814,187.3375,43.7814,189.7375,46.1814,187.3375,48.5814,187.3375,48.5814,184.9375,46.1814,187.3375,43.7814" style="stroke:#181818;stroke-width:0.10000000000000002;"/><text fill="#000000" font-family="sans-serif" font-size="5" lengthAdjust="spacing" textLength="56.8" x="128.1375" y="45.0828">[Invalid command format]</text><text fill="#000000" font-family="sans-serif" font-size="5" lengthAdjust="spacing" textLength="12.2" x="189.7375" y="45.0828">[else]</text><rect fill="#F1F1F1" height="11.5469" rx="2.5" ry="2.5" style="stroke:#181818;stroke-width:0.10000000000000002;" width="70.8" x="35.7" y="50.5814"/><text fill="#000000" font-family="sans-serif" font-size="6" lengthAdjust="spacing" textLength="66.8" x="37.7" y="58.81">ParseException is thrown</text><rect fill="#F1F1F1" height="11.5469" rx="2.5" ry="2.5" style="stroke:#181818;stroke-width:0.10000000000000002;" width="137.8" x="2.2" y="69.1283"/><text fill="#000000" font-family="sans-serif" font-size="6" lengthAdjust="spacing" textLength="133.8" x="4.2" y="77.3568">MainWindow catches and handles ParseException</text><rect fill="#F1F1F1" height="11.5469" rx="2.5" ry="2.5" style="stroke:#181818;stroke-width:0.10000000000000002;" width="135" x="3.6" y="87.6752"/><text fill="#000000" font-family="sans-serif" font-size="6" lengthAdjust="spacing" textLength="131" x="5.6" y="95.9037">Invalid Command Format error message is shown</text><ellipse cx="71.1" cy="108.4221" fill="none" rx="2.2" ry="2.2" style="stroke:#222222;stroke-width:0.20000000000000004;"/><ellipse cx="71.1" cy="108.4221" fill="#222222" rx="1.2" ry="1.2" style="stroke:#111111;stroke-width:0.20000000000000004;"/><rect fill="#F1F1F1" height="19.0938" rx="2.5" ry="2.5" style="stroke:#181818;stroke-width:0.10000000000000002;" width="104.8" x="251.175" y="50.5814"/><text fill="#000000" font-family="sans-serif" font-size="6" lengthAdjust="spacing" textLength="100.8" x="253.175" y="58.81">EditXYZCommandParser parses input</text><text fill="#000000" font-family="sans-serif" font-size="6" lengthAdjust="spacing" textLength="89.2" x="253.175" y="66.3568">and returns an EditXYZCommand</text><rect fill="#F1F1F1" height="11.5469" rx="2.5" ry="2.5" style="stroke:#181818;stroke-width:0.10000000000000002;" width="77.4" x="264.875" y="76.6752"/><text fill="#000000" font-family="sans-serif" font-size="6" lengthAdjust="spacing" textLength="73.4" x="266.875" y="84.9037">Check if index given is valid</text><polygon fill="#F1F1F1" points="303.575,96.7111,303.575,96.7111,305.975,99.1111,303.575,101.5111,303.575,101.5111,301.175,99.1111,303.575,96.7111" style="stroke:#181818;stroke-width:0.10000000000000002;"/><text fill="#000000" font-family="sans-serif" font-size="5" lengthAdjust="spacing" textLength="51.8" x="249.375" y="98.0125">[Index is out of bounds]</text><text fill="#000000" font-family="sans-serif" font-size="5" lengthAdjust="spacing" textLength="12.2" x="305.975" y="98.0125">[else]</text><rect fill="#F1F1F1" height="11.5469" rx="2.5" ry="2.5" style="stroke:#181818;stroke-width:0.10000000000000002;" width="86.2" x="160.5" y="103.5111"/><text fill="#000000" font-family="sans-serif" font-size="6" lengthAdjust="spacing" textLength="82.2" x="162.5" y="111.7396">CommandExeception is thrown</text><rect fill="#F1F1F1" height="19.0938" rx="2.5" ry="2.5" style="stroke:#181818;stroke-width:0.10000000000000002;" width="115.2" x="146" y="119.058"/><text fill="#000000" font-family="sans-serif" font-size="6" lengthAdjust="spacing" textLength="111.2" x="148" y="127.2865">MainWindow catches ParseException and</text><text fill="#000000" font-family="sans-serif" font-size="6" lengthAdjust="spacing" textLength="110.2" x="148" y="134.8334">Invalid Item Index error message is shown</text><ellipse cx="203.6" cy="147.3518" fill="none" rx="2.2" ry="2.2" style="stroke:#222222;stroke-width:0.20000000000000004;"/><ellipse cx="203.6" cy="147.3518" fill="#222222" rx="1.2" ry="1.2" style="stroke:#111111;stroke-width:0.20000000000000004;"/><rect fill="#F1F1F1" height="11.5469" rx="2.5" ry="2.5" style="stroke:#181818;stroke-width:0.10000000000000002;" width="173.2" x="316.95" y="103.5111"/><text fill="#000000" font-family="sans-serif" font-size="6" lengthAdjust="spacing" textLength="169.2" x="318.95" y="111.7396">Item XYZ at given index will be retrieved from its filtered XYZ List</text><rect fill="#F1F1F1" height="11.5469" rx="2.5" ry="2.5" style="stroke:#181818;stroke-width:0.10000000000000002;" width="111.6" x="347.75" y="119.058"/><text fill="#000000" font-family="sans-serif" font-size="6" lengthAdjust="spacing" textLength="107.6" x="349.75" y="127.2865">Copy of the item XYZ is made and edited</text><polygon fill="#F1F1F1" points="403.55,145.383,403.55,145.383,405.95,147.783,403.55,150.183,403.55,150.183,401.15,147.783,403.55,145.383" style="stroke:#181818;stroke-width:0.10000000000000002;"/><text fill="#000000" font-family="sans-serif" font-size="5" lengthAdjust="spacing" textLength="109.6" x="291.55" y="140.3953">[Edited item is the same as other items in the list</text><text fill="#000000" font-family="sans-serif" font-size="5" lengthAdjust="spacing" textLength="82" x="291.55" y="146.6844">or no actual change is made to item]</text><text fill="#000000" font-family="sans-serif" font-size="5" lengthAdjust="spacing" textLength="12.2" x="405.95" y="146.6844">[else]</text><rect fill="#F1F1F1" height="11.5469" rx="2.5" ry="2.5" style="stroke:#181818;stroke-width:0.10000000000000002;" width="83" x="289.4" y="152.183"/><text fill="#000000" font-family="sans-serif" font-size="6" lengthAdjust="spacing" textLength="79" x="291.4" y="160.4115">CommandException is thrown</text><rect fill="#F1F1F1" height="19.0938" rx="2.5" ry="2.5" style="stroke:#181818;stroke-width:0.10000000000000002;" width="127.4" x="267.2" y="167.7299"/><text fill="#000000" font-family="sans-serif" font-size="6" lengthAdjust="spacing" textLength="123.4" x="269.2" y="175.9584">MainWindow catches CommandException and</text><text fill="#000000" font-family="sans-serif" font-size="6" lengthAdjust="spacing" textLength="102.2" x="269.2" y="183.5053">Duplicate Item error message is shown</text><ellipse cx="330.9" cy="196.0236" fill="none" rx="2.2" ry="2.2" style="stroke:#222222;stroke-width:0.20000000000000004;"/><ellipse cx="330.9" cy="196.0236" fill="#222222" rx="1.2" ry="1.2" style="stroke:#111111;stroke-width:0.20000000000000004;"/><rect fill="#F1F1F1" height="11.5469" rx="2.5" ry="2.5" style="stroke:#181818;stroke-width:0.10000000000000002;" width="155.2" x="398.6" y="152.183"/><text fill="#000000" font-family="sans-serif" font-size="6" lengthAdjust="spacing" textLength="151.2" x="400.6" y="160.4115">Item in XYZ List is edited and Filtered XYZ List is updated</text><rect fill="#F1F1F1" height="11.5469" rx="2.5" ry="2.5" style="stroke:#181818;stroke-width:0.10000000000000002;" width="119.6" x="416.4" y="167.7299"/><text fill="#000000" font-family="sans-serif" font-size="6" lengthAdjust="spacing" textLength="115.6" x="418.4" y="175.9584">EditXYZCommand returns CommandResult</text><rect fill="#F1F1F1" height="11.5469" rx="2.5" ry="2.5" style="stroke:#181818;stroke-width:0.10000000000000002;" width="105" x="423.7" y="186.2768"/><text fill="#000000" font-family="sans-serif" font-size="6" lengthAdjust="spacing" textLength="101" x="425.7" y="194.5053">Changes made are saved to local data</text><rect fill="#F1F1F1" height="11.5469" rx="2.5" ry="2.5" style="stroke:#181818;stroke-width:0.10000000000000002;" width="89" x="431.7" y="202.2236"/><text fill="#000000" font-family="sans-serif" font-size="6" lengthAdjust="spacing" textLength="85" x="433.7" y="210.4521">Edit Success Message is shown</text><ellipse cx="476.2" cy="219.9705" fill="none" rx="2.2" ry="2.2" style="stroke:#222222;stroke-width:0.20000000000000004;"/><ellipse cx="476.2" cy="219.9705" fill="#222222" rx="1.2" ry="1.2" style="stroke:#111111;stroke-width:0.20000000000000004;"/><line style="stroke:#181818;stroke-width:0.20000000000000004;" x1="187.3375" x2="187.3375" y1="6" y2="10"/><polygon fill="#181818" points="186.5375,8,187.3375,10,188.1375,8,187.3375,8.8" style="stroke:#181818;stroke-width:0.20000000000000004;"/><line style="stroke:#181818;stroke-width:0.20000000000000004;" x1="187.3375" x2="187.3375" y1="21.5469" y2="25.5469"/><polygon fill="#181818" points="186.5375,23.5469,187.3375,25.5469,188.1375,23.5469,187.3375,24.3469" style="stroke:#181818;stroke-width:0.20000000000000004;"/><line style="stroke:#181818;stroke-width:0.20000000000000004;" x1="71.1" x2="71.1" y1="62.1283" y2="69.1283"/><polygon fill="#181818" points="70.3,67.1283,71.1,69.1283,71.9,67.1283,71.1,67.9283" style="stroke:#181818;stroke-width:0.20000000000000004;"/><line style="stroke:#181818;stroke-width:0.20000000000000004;" x1="71.1" x2="71.1" y1="80.6752" y2="87.6752"/><polygon fill="#181818" points="70.3,85.6752,71.1,87.6752,71.9,85.6752,71.1,86.4752" style="stroke:#181818;stroke-width:0.20000000000000004;"/><line style="stroke:#181818;stroke-width:0.20000000000000004;" x1="71.1" x2="71.1" y1="99.2221" y2="106.2221"/><polygon fill="#181818" points="70.3,104.2221,71.1,106.2221,71.9,104.2221,71.1,105.0221" style="stroke:#181818;stroke-width:0.20000000000000004;"/><line style="stroke:#181818;stroke-width:0.20000000000000004;" x1="303.575" x2="303.575" y1="69.6752" y2="76.6752"/><polygon fill="#181818" points="302.775,74.6752,303.575,76.6752,304.375,74.6752,303.575,75.4752" style="stroke:#181818;stroke-width:0.20000000000000004;"/><line style="stroke:#181818;stroke-width:0.20000000000000004;" x1="203.6" x2="203.6" y1="115.058" y2="119.058"/><polygon fill="#181818" points="202.8,117.058,203.6,119.058,204.4,117.058,203.6,117.858" style="stroke:#181818;stroke-width:0.20000000000000004;"/><line style="stroke:#181818;stroke-width:0.20000000000000004;" x1="203.6" x2="203.6" y1="138.1518" y2="145.1518"/><polygon fill="#181818" points="202.8,143.1518,203.6,145.1518,204.4,143.1518,203.6,143.9518" style="stroke:#181818;stroke-width:0.20000000000000004;"/><line style="stroke:#181818;stroke-width:0.20000000000000004;" x1="403.55" x2="403.55" y1="115.058" y2="119.058"/><polygon fill="#181818" points="402.75,117.058,403.55,119.058,404.35,117.058,403.55,117.858" style="stroke:#181818;stroke-width:0.20000000000000004;"/><line style="stroke:#181818;stroke-width:0.20000000000000004;" x1="330.9" x2="330.9" y1="163.7299" y2="167.7299"/><polygon fill="#181818" points="330.1,165.7299,330.9,167.7299,331.7,165.7299,330.9,166.5299" style="stroke:#181818;stroke-width:0.20000000000000004;"/><line style="stroke:#181818;stroke-width:0.20000000000000004;" x1="330.9" x2="330.9" y1="186.8236" y2="193.8236"/><polygon fill="#181818" points="330.1,191.8236,330.9,193.8236,331.7,191.8236,330.9,192.6236" style="stroke:#181818;stroke-width:0.20000000000000004;"/><line style="stroke:#181818;stroke-width:0.20000000000000004;" x1="476.2" x2="476.2" y1="163.7299" y2="167.7299"/><polygon fill="#181818" points="475.4,165.7299,476.2,167.7299,477,165.7299,476.2,166.5299" style="stroke:#181818;stroke-width:0.20000000000000004;"/><line style="stroke:#181818;stroke-width:0.20000000000000004;" x1="476.2" x2="476.2" y1="179.2768" y2="186.2768"/><polygon fill="#181818" points="475.4,184.2768,476.2,186.2768,477,184.2768,476.2,185.0768" style="stroke:#181818;stroke-width:0.20000000000000004;"/><line style="stroke:#181818;stroke-width:0.20000000000000004;" x1="476.2" x2="476.2" y1="197.8236" y2="202.2236"/><polygon fill="#181818" points="475.4,200.2236,476.2,202.2236,477,200.2236,476.2,201.0236" style="stroke:#181818;stroke-width:0.20000000000000004;"/><line style="stroke:#181818;stroke-width:0.20000000000000004;" x1="476.2" x2="476.2" y1="213.7705" y2="217.7705"/><polygon fill="#181818" points="475.4,215.7705,476.2,217.7705,477,215.7705,476.2,216.5705" style="stroke:#181818;stroke-width:0.20000000000000004;"/><line style="stroke:#181818;stroke-width:0.20000000000000004;" x1="401.15" x2="330.9" y1="147.783" y2="147.783"/><line style="stroke:#181818;stroke-width:0.20000000000000004;" x1="330.9" x2="330.9" y1="147.783" y2="152.183"/><polygon fill="#181818" points="330.1,150.183,330.9,152.183,331.7,150.183,330.9,150.983" style="stroke:#181818;stroke-width:0.20000000000000004;"/><line style="stroke:#181818;stroke-width:0.20000000000000004;" x1="405.95" x2="476.2" y1="147.783" y2="147.783"/><line style="stroke:#181818;stroke-width:0.20000000000000004;" x1="476.2" x2="476.2" y1="147.783" y2="152.183"/><polygon fill="#181818" points="475.4,150.183,476.2,152.183,477,150.183,476.2,150.983" style="stroke:#181818;stroke-width:0.20000000000000004;"/><line style="stroke:#181818;stroke-width:0.20000000000000004;" x1="403.55" x2="403.55" y1="130.6049" y2="145.383"/><polygon fill="#181818" points="402.75,143.383,403.55,145.383,404.35,143.383,403.55,144.183" style="stroke:#181818;stroke-width:0.20000000000000004;"/><line style="stroke:#181818;stroke-width:0.20000000000000004;" x1="301.175" x2="203.6" y1="99.1111" y2="99.1111"/><line style="stroke:#181818;stroke-width:0.20000000000000004;" x1="203.6" x2="203.6" y1="99.1111" y2="103.5111"/><polygon fill="#181818" points="202.8,101.5111,203.6,103.5111,204.4,101.5111,203.6,102.3111" style="stroke:#181818;stroke-width:0.20000000000000004;"/><line style="stroke:#181818;stroke-width:0.20000000000000004;" x1="305.975" x2="403.55" y1="99.1111" y2="99.1111"/><line style="stroke:#181818;stroke-width:0.20000000000000004;" x1="403.55" x2="403.55" y1="99.1111" y2="103.5111"/><polygon fill="#181818" points="402.75,101.5111,403.55,103.5111,404.35,101.5111,403.55,102.3111" style="stroke:#181818;stroke-width:0.20000000000000004;"/><line style="stroke:#181818;stroke-width:0.20000000000000004;" x1="303.575" x2="303.575" y1="88.2221" y2="96.7111"/><polygon fill="#181818" points="302.775,94.7111,303.575,96.7111,304.375,94.7111,303.575,95.5111" style="stroke:#181818;stroke-width:0.20000000000000004;"/><line style="stroke:#181818;stroke-width:0.20000000000000004;" x1="184.9375" x2="71.1" y1="46.1814" y2="46.1814"/><line style="stroke:#181818;stroke-width:0.20000000000000004;" x1="71.1" x2="71.1" y1="46.1814" y2="50.5814"/><polygon fill="#181818" points="70.3,48.5814,71.1,50.5814,71.9,48.5814,71.1,49.3814" style="stroke:#181818;stroke-width:0.20000000000000004;"/><line style="stroke:#181818;stroke-width:0.20000000000000004;" x1="189.7375" x2="303.575" y1="46.1814" y2="46.1814"/><line style="stroke:#181818;stroke-width:0.20000000000000004;" x1="303.575" x2="303.575" y1="46.1814" y2="50.5814"/><polygon fill="#181818" points="302.775,48.5814,303.575,50.5814,304.375,48.5814,303.575,49.3814" style="stroke:#181818;stroke-width:0.20000000000000004;"/><line style="stroke:#181818;stroke-width:0.20000000000000004;" x1="187.3375" x2="187.3375" y1="37.0938" y2="43.7814"/><polygon fill="#181818" points="186.5375,41.7814,187.3375,43.7814,188.1375,41.7814,187.3375,42.5814" style="stroke:#181818;stroke-width:0.20000000000000004;"/><!--MD5=[2285867e3fc43a9bd58d645966d187b9]
@startuml
skinparam activityFontSize 30
skinparam activityArrowFontSize 25

start
:User enters command to edit XYZ in XYZ List;
:EditXYZCommandParser is called upon to parse the user input;
if () then ([Invalid command format])
  :ParseException is thrown;
  :MainWindow catches and handles ParseException;
  :Invalid Command Format error message is shown;
  stop
else ([else])
:EditXYZCommandParser parses input
and returns an EditXYZCommand;
:Check if index given is valid;

if () then ([Index is out of bounds])
    :CommandExeception is thrown;
    :MainWindow catches ParseException and
    Invalid Item Index error message is shown;
    stop
else ([else])
:Item XYZ at given index will be retrieved from its filtered XYZ List;
:Copy of the item XYZ is made and edited;

if () then ([Edited item is the same as other items in the list
or no actual change is made to item])
:CommandException is thrown;
:MainWindow catches CommandException and
Duplicate Item error message is shown;
stop

else ([else])
:Item in XYZ List is edited and Filtered XYZ List is updated;
:EditXYZCommand returns CommandResult;
:Changes made are saved to local data;
:Edit Success Message is shown;
stop

@enduml

PlantUML version 1.2022.12(Mon Oct 24 02:12:26 SGT 2022)
(GPL source distribution)
Java Runtime: OpenJDK Runtime Environment
JVM: OpenJDK 64-Bit Server VM
Default Encoding: Cp1252
Language: en
Country: SG
--></g></svg>