<?xml version="1.0" encoding="UTF-8" standalone="no"?><svg xmlns="http://www.w3.org/2000/svg" xmlns:xlink="http://www.w3.org/1999/xlink" contentStyleType="text/css" height="589px" preserveAspectRatio="none" style="width:1414px;height:589px;background:#FFFFFF;" version="1.1" viewBox="0 0 1414 589" width="1414px" zoomAndPan="magnify"><defs/><g><ellipse cx="494.5625" cy="10" fill="#222222" rx="5" ry="5" style="stroke:#222222;stroke-width:0.5;"/><rect fill="#F1F1F1" height="28.8672" rx="6.25" ry="6.25" style="stroke:#181818;stroke-width:0.25;" width="307.5" x="340.8125" y="25"/><text fill="#000000" font-family="sans-serif" font-size="15" lengthAdjust="spacing" textLength="297.5" x="345.8125" y="45.5713">User enters command to edit XYZ in XYZ List</text><rect fill="#F1F1F1" height="28.8672" rx="6.25" ry="6.25" style="stroke:#181818;stroke-width:0.25;" width="423.5" x="282.8125" y="63.8672"/><text fill="#000000" font-family="sans-serif" font-size="15" lengthAdjust="spacing" textLength="413.5" x="287.8125" y="84.4385">EditXYZCommandParser is called upon to parse the user input</text><polygon fill="#F1F1F1" points="494.5625,109.4536,494.5625,109.4536,500.5625,115.4536,494.5625,121.4536,494.5625,121.4536,488.5625,115.4536,494.5625,109.4536" style="stroke:#181818;stroke-width:0.25;"/><text fill="#000000" font-family="sans-serif" font-size="12.5" lengthAdjust="spacing" textLength="142" x="346.5625" y="112.707">[Invalid command format]</text><text fill="#000000" font-family="sans-serif" font-size="12.5" lengthAdjust="spacing" textLength="30.5" x="500.5625" y="112.707">[else]</text><rect fill="#F1F1F1" height="28.8672" rx="6.25" ry="6.25" style="stroke:#181818;stroke-width:0.25;" width="177" x="89.25" y="126.4536"/><text fill="#000000" font-family="sans-serif" font-size="15" lengthAdjust="spacing" textLength="167" x="94.25" y="147.0249">ParseException is thrown</text><rect fill="#F1F1F1" height="28.8672" rx="6.25" ry="6.25" style="stroke:#181818;stroke-width:0.25;" width="344.5" x="5.5" y="172.8208"/><text fill="#000000" font-family="sans-serif" font-size="15" lengthAdjust="spacing" textLength="334.5" x="10.5" y="193.3921">MainWindow catches and handles ParseException</text><rect fill="#F1F1F1" height="28.8672" rx="6.25" ry="6.25" style="stroke:#181818;stroke-width:0.25;" width="337.5" x="9" y="219.188"/><text fill="#000000" font-family="sans-serif" font-size="15" lengthAdjust="spacing" textLength="327.5" x="14" y="239.7593">Invalid Command Format error message is shown</text><ellipse cx="177.75" cy="271.0552" fill="none" rx="5.5" ry="5.5" style="stroke:#222222;stroke-width:0.5;"/><ellipse cx="177.75" cy="271.0552" fill="#222222" rx="3" ry="3" style="stroke:#111111;stroke-width:0.5;"/><rect fill="#F1F1F1" height="47.7344" rx="6.25" ry="6.25" style="stroke:#181818;stroke-width:0.25;" width="262" x="680.375" y="126.4536"/><text fill="#000000" font-family="sans-serif" font-size="15" lengthAdjust="spacing" textLength="252" x="685.375" y="147.0249">EditXYZCommandParser parses input</text><text fill="#000000" font-family="sans-serif" font-size="15" lengthAdjust="spacing" textLength="223" x="685.375" y="165.8921">and returns an EditXYZCommand</text><rect fill="#F1F1F1" height="28.8672" rx="6.25" ry="6.25" style="stroke:#181818;stroke-width:0.25;" width="193.5" x="714.625" y="191.688"/><text fill="#000000" font-family="sans-serif" font-size="15" lengthAdjust="spacing" textLength="183.5" x="719.625" y="212.2593">Check if index given is valid</text><polygon fill="#F1F1F1" points="811.375,241.7778,811.375,241.7778,817.375,247.7778,811.375,253.7778,811.375,253.7778,805.375,247.7778,811.375,241.7778" style="stroke:#181818;stroke-width:0.25;"/><text fill="#000000" font-family="sans-serif" font-size="12.5" lengthAdjust="spacing" textLength="129.5" x="675.875" y="245.0313">[Index is out of bounds]</text><text fill="#000000" font-family="sans-serif" font-size="12.5" lengthAdjust="spacing" textLength="30.5" x="817.375" y="245.0313">[else]</text><rect fill="#F1F1F1" height="28.8672" rx="6.25" ry="6.25" style="stroke:#181818;stroke-width:0.25;" width="215.5" x="429.5" y="258.7778"/><text fill="#000000" font-family="sans-serif" font-size="15" lengthAdjust="spacing" textLength="205.5" x="434.5" y="279.3491">CommandExeception is thrown</text><rect fill="#F1F1F1" height="28.8672" rx="6.25" ry="6.25" style="stroke:#181818;stroke-width:0.25;" width="344.5" x="365" y="297.645"/><text fill="#000000" font-family="sans-serif" font-size="15" lengthAdjust="spacing" textLength="334.5" x="370" y="318.2163">MainWindow catches and handles ParseException</text><rect fill="#F1F1F1" height="28.8672" rx="6.25" ry="6.25" style="stroke:#181818;stroke-width:0.25;" width="285.5" x="394.5" y="339.5088"/><text fill="#000000" font-family="sans-serif" font-size="15" lengthAdjust="spacing" textLength="275.5" x="399.5" y="360.0801">Invalid Item Index error message is shown</text><ellipse cx="537.25" cy="391.376" fill="none" rx="5.5" ry="5.5" style="stroke:#222222;stroke-width:0.5;"/><ellipse cx="537.25" cy="391.376" fill="#222222" rx="3" ry="3" style="stroke:#111111;stroke-width:0.5;"/><rect fill="#F1F1F1" height="28.8672" rx="6.25" ry="6.25" style="stroke:#181818;stroke-width:0.25;" width="433" x="869" y="258.7778"/><text fill="#000000" font-family="sans-serif" font-size="15" lengthAdjust="spacing" textLength="423" x="874" y="279.3491">Item XYZ at given index will be retrieved from its filtered XYZ List</text><rect fill="#F1F1F1" height="28.8672" rx="6.25" ry="6.25" style="stroke:#181818;stroke-width:0.25;" width="279" x="946" y="297.645"/><text fill="#000000" font-family="sans-serif" font-size="15" lengthAdjust="spacing" textLength="269" x="951" y="318.2163">Copy of the item XYZ is made and edited</text><polygon fill="#F1F1F1" points="1085.5,358.9541,1085.5,358.9541,1091.5,364.9541,1085.5,370.9541,1085.5,370.9541,1079.5,364.9541,1085.5,358.9541" style="stroke:#181818;stroke-width:0.25;"/><text fill="#000000" font-family="sans-serif" font-size="12.5" lengthAdjust="spacing" textLength="274" x="805.5" y="346.4849">[Edited item is the same as other items in the list</text><text fill="#000000" font-family="sans-serif" font-size="12.5" lengthAdjust="spacing" textLength="205" x="805.5" y="362.2075">or no actual change is made to item]</text><text fill="#000000" font-family="sans-serif" font-size="12.5" lengthAdjust="spacing" textLength="30.5" x="1091.5" y="362.2075">[else]</text><rect fill="#F1F1F1" height="28.8672" rx="6.25" ry="6.25" style="stroke:#181818;stroke-width:0.25;" width="207.5" x="808.25" y="375.9541"/><text fill="#000000" font-family="sans-serif" font-size="15" lengthAdjust="spacing" textLength="197.5" x="813.25" y="396.5254">CommandException is thrown</text><rect fill="#F1F1F1" height="28.8672" rx="6.25" ry="6.25" style="stroke:#181818;stroke-width:0.25;" width="375" x="724.5" y="422.3213"/><text fill="#000000" font-family="sans-serif" font-size="15" lengthAdjust="spacing" textLength="365" x="729.5" y="442.8926">MainWindow catches and handles CommandException</text><rect fill="#F1F1F1" height="28.8672" rx="6.25" ry="6.25" style="stroke:#181818;stroke-width:0.25;" width="265.5" x="779.25" y="468.6885"/><text fill="#000000" font-family="sans-serif" font-size="15" lengthAdjust="spacing" textLength="255.5" x="784.25" y="489.2598">Duplicate Item error message is shown</text><ellipse cx="912" cy="520.5557" fill="none" rx="5.5" ry="5.5" style="stroke:#222222;stroke-width:0.5;"/><ellipse cx="912" cy="520.5557" fill="#222222" rx="3" ry="3" style="stroke:#111111;stroke-width:0.5;"/><rect fill="#F1F1F1" height="47.7344" rx="6.25" ry="6.25" style="stroke:#181818;stroke-width:0.25;" width="221" x="1148.5" y="375.9541"/><text fill="#000000" font-family="sans-serif" font-size="15" lengthAdjust="spacing" textLength="163" x="1153.5" y="396.5254">Item in XYZ List is edited</text><text fill="#000000" font-family="sans-serif" font-size="15" lengthAdjust="spacing" textLength="211" x="1153.5" y="415.3926">and Filtered XYZ List is updated</text><rect fill="#F1F1F1" height="28.8672" rx="6.25" ry="6.25" style="stroke:#181818;stroke-width:0.25;" width="299" x="1109.5" y="441.1885"/><text fill="#000000" font-family="sans-serif" font-size="15" lengthAdjust="spacing" textLength="289" x="1114.5" y="461.7598">EditXYZCommand returns CommandResult</text><rect fill="#F1F1F1" height="28.8672" rx="6.25" ry="6.25" style="stroke:#181818;stroke-width:0.25;" width="262.5" x="1127.75" y="487.5557"/><text fill="#000000" font-family="sans-serif" font-size="15" lengthAdjust="spacing" textLength="252.5" x="1132.75" y="508.127">Changes made are saved to local data</text><rect fill="#F1F1F1" height="28.8672" rx="6.25" ry="6.25" style="stroke:#181818;stroke-width:0.25;" width="222.5" x="1147.75" y="533.9229"/><text fill="#000000" font-family="sans-serif" font-size="15" lengthAdjust="spacing" textLength="212.5" x="1152.75" y="554.4941">Edit Success Message is shown</text><ellipse cx="1259" cy="578.29" fill="none" rx="5.5" ry="5.5" style="stroke:#222222;stroke-width:0.5;"/><ellipse cx="1259" cy="578.29" fill="#222222" rx="3" ry="3" style="stroke:#111111;stroke-width:0.5;"/><line style="stroke:#181818;stroke-width:0.5;" x1="494.5625" x2="494.5625" y1="15" y2="25"/><polygon fill="#181818" points="492.5625,20,494.5625,25,496.5625,20,494.5625,22" style="stroke:#181818;stroke-width:0.5;"/><line style="stroke:#181818;stroke-width:0.5;" x1="494.5625" x2="494.5625" y1="53.8672" y2="63.8672"/><polygon fill="#181818" points="492.5625,58.8672,494.5625,63.8672,496.5625,58.8672,494.5625,60.8672" style="stroke:#181818;stroke-width:0.5;"/><line style="stroke:#181818;stroke-width:0.5;" x1="177.75" x2="177.75" y1="155.3208" y2="172.8208"/><polygon fill="#181818" points="175.75,167.8208,177.75,172.8208,179.75,167.8208,177.75,169.8208" style="stroke:#181818;stroke-width:0.5;"/><line style="stroke:#181818;stroke-width:0.5;" x1="177.75" x2="177.75" y1="201.688" y2="219.188"/><polygon fill="#181818" points="175.75,214.188,177.75,219.188,179.75,214.188,177.75,216.188" style="stroke:#181818;stroke-width:0.5;"/><line style="stroke:#181818;stroke-width:0.5;" x1="177.75" x2="177.75" y1="248.0552" y2="265.5552"/><polygon fill="#181818" points="175.75,260.5552,177.75,265.5552,179.75,260.5552,177.75,262.5552" style="stroke:#181818;stroke-width:0.5;"/><line style="stroke:#181818;stroke-width:0.5;" x1="811.375" x2="811.375" y1="174.188" y2="191.688"/><polygon fill="#181818" points="809.375,186.688,811.375,191.688,813.375,186.688,811.375,188.688" style="stroke:#181818;stroke-width:0.5;"/><line style="stroke:#181818;stroke-width:0.5;" x1="537.25" x2="537.25" y1="287.645" y2="297.645"/><polygon fill="#181818" points="535.25,292.645,537.25,297.645,539.25,292.645,537.25,294.645" style="stroke:#181818;stroke-width:0.5;"/><line style="stroke:#181818;stroke-width:0.5;" x1="537.25" x2="537.25" y1="326.5122" y2="339.5088"/><polygon fill="#181818" points="535.25,334.5088,537.25,339.5088,539.25,334.5088,537.25,336.5088" style="stroke:#181818;stroke-width:0.5;"/><line style="stroke:#181818;stroke-width:0.5;" x1="537.25" x2="537.25" y1="368.376" y2="385.876"/><polygon fill="#181818" points="535.25,380.876,537.25,385.876,539.25,380.876,537.25,382.876" style="stroke:#181818;stroke-width:0.5;"/><line style="stroke:#181818;stroke-width:0.5;" x1="1085.5" x2="1085.5" y1="287.645" y2="297.645"/><polygon fill="#181818" points="1083.5,292.645,1085.5,297.645,1087.5,292.645,1085.5,294.645" style="stroke:#181818;stroke-width:0.5;"/><line style="stroke:#181818;stroke-width:0.5;" x1="912" x2="912" y1="404.8213" y2="422.3213"/><polygon fill="#181818" points="910,417.3213,912,422.3213,914,417.3213,912,419.3213" style="stroke:#181818;stroke-width:0.5;"/><line style="stroke:#181818;stroke-width:0.5;" x1="912" x2="912" y1="451.1885" y2="468.6885"/><polygon fill="#181818" points="910,463.6885,912,468.6885,914,463.6885,912,465.6885" style="stroke:#181818;stroke-width:0.5;"/><line style="stroke:#181818;stroke-width:0.5;" x1="912" x2="912" y1="497.5557" y2="515.0557"/><polygon fill="#181818" points="910,510.0557,912,515.0557,914,510.0557,912,512.0557" style="stroke:#181818;stroke-width:0.5;"/><line style="stroke:#181818;stroke-width:0.5;" x1="1259" x2="1259" y1="423.6885" y2="441.1885"/><polygon fill="#181818" points="1257,436.1885,1259,441.1885,1261,436.1885,1259,438.1885" style="stroke:#181818;stroke-width:0.5;"/><line style="stroke:#181818;stroke-width:0.5;" x1="1259" x2="1259" y1="470.0557" y2="487.5557"/><polygon fill="#181818" points="1257,482.5557,1259,487.5557,1261,482.5557,1259,484.5557" style="stroke:#181818;stroke-width:0.5;"/><line style="stroke:#181818;stroke-width:0.5;" x1="1259" x2="1259" y1="516.4229" y2="533.9229"/><polygon fill="#181818" points="1257,528.9229,1259,533.9229,1261,528.9229,1259,530.9229" style="stroke:#181818;stroke-width:0.5;"/><line style="stroke:#181818;stroke-width:0.5;" x1="1259" x2="1259" y1="562.79" y2="572.79"/><polygon fill="#181818" points="1257,567.79,1259,572.79,1261,567.79,1259,569.79" style="stroke:#181818;stroke-width:0.5;"/><line style="stroke:#181818;stroke-width:0.5;" x1="1079.5" x2="912" y1="364.9541" y2="364.9541"/><line style="stroke:#181818;stroke-width:0.5;" x1="912" x2="912" y1="364.9541" y2="375.9541"/><polygon fill="#181818" points="910,370.9541,912,375.9541,914,370.9541,912,372.9541" style="stroke:#181818;stroke-width:0.5;"/><line style="stroke:#181818;stroke-width:0.5;" x1="1091.5" x2="1259" y1="364.9541" y2="364.9541"/><line style="stroke:#181818;stroke-width:0.5;" x1="1259" x2="1259" y1="364.9541" y2="375.9541"/><polygon fill="#181818" points="1257,370.9541,1259,375.9541,1261,370.9541,1259,372.9541" style="stroke:#181818;stroke-width:0.5;"/><line style="stroke:#181818;stroke-width:0.5;" x1="1085.5" x2="1085.5" y1="326.5122" y2="358.9541"/><polygon fill="#181818" points="1083.5,353.9541,1085.5,358.9541,1087.5,353.9541,1085.5,355.9541" style="stroke:#181818;stroke-width:0.5;"/><line style="stroke:#181818;stroke-width:0.5;" x1="805.375" x2="537.25" y1="247.7778" y2="247.7778"/><line style="stroke:#181818;stroke-width:0.5;" x1="537.25" x2="537.25" y1="247.7778" y2="258.7778"/><polygon fill="#181818" points="535.25,253.7778,537.25,258.7778,539.25,253.7778,537.25,255.7778" style="stroke:#181818;stroke-width:0.5;"/><line style="stroke:#181818;stroke-width:0.5;" x1="817.375" x2="1085.5" y1="247.7778" y2="247.7778"/><line style="stroke:#181818;stroke-width:0.5;" x1="1085.5" x2="1085.5" y1="247.7778" y2="258.7778"/><polygon fill="#181818" points="1083.5,253.7778,1085.5,258.7778,1087.5,253.7778,1085.5,255.7778" style="stroke:#181818;stroke-width:0.5;"/><line style="stroke:#181818;stroke-width:0.5;" x1="811.375" x2="811.375" y1="220.5552" y2="241.7778"/><polygon fill="#181818" points="809.375,236.7778,811.375,241.7778,813.375,236.7778,811.375,238.7778" style="stroke:#181818;stroke-width:0.5;"/><line style="stroke:#181818;stroke-width:0.5;" x1="488.5625" x2="177.75" y1="115.4536" y2="115.4536"/><line style="stroke:#181818;stroke-width:0.5;" x1="177.75" x2="177.75" y1="115.4536" y2="126.4536"/><polygon fill="#181818" points="175.75,121.4536,177.75,126.4536,179.75,121.4536,177.75,123.4536" style="stroke:#181818;stroke-width:0.5;"/><line style="stroke:#181818;stroke-width:0.5;" x1="500.5625" x2="811.375" y1="115.4536" y2="115.4536"/><line style="stroke:#181818;stroke-width:0.5;" x1="811.375" x2="811.375" y1="115.4536" y2="126.4536"/><polygon fill="#181818" points="809.375,121.4536,811.375,126.4536,813.375,121.4536,811.375,123.4536" style="stroke:#181818;stroke-width:0.5;"/><line style="stroke:#181818;stroke-width:0.5;" x1="494.5625" x2="494.5625" y1="92.7344" y2="109.4536"/><polygon fill="#181818" points="492.5625,104.4536,494.5625,109.4536,496.5625,104.4536,494.5625,106.4536" style="stroke:#181818;stroke-width:0.5;"/><!--MD5=[99662a1da4e9f509224b115bbba3d0e3]
@startuml
skinparam activityFontSize 30
skinparam activityArrowFontSize 25

start
:User enters command to edit XYZ in XYZ List;
:EditXYZCommandParser is called upon to parse the user input;
if () then ([Invalid command format])
  :ParseException is thrown;
  :MainWindow catches and handles ParseException;
  :Invalid Command Format error message is shown;
  stop
else ([else])
:EditXYZCommandParser parses input
and returns an EditXYZCommand;
:Check if index given is valid;

if () then ([Index is out of bounds])
    :CommandExeception is thrown;
    :MainWindow catches and handles ParseException;
    :Invalid Item Index error message is shown;
    stop
else ([else])
:Item XYZ at given index will be retrieved from its filtered XYZ List;
:Copy of the item XYZ is made and edited;

if () then ([Edited item is the same as other items in the list
or no actual change is made to item])
:CommandException is thrown;
:MainWindow catches and handles CommandException;
:Duplicate Item error message is shown;
stop

else ([else])
:Item in XYZ List is edited
and Filtered XYZ List is updated;
:EditXYZCommand returns CommandResult;
:Changes made are saved to local data;
:Edit Success Message is shown;
stop

@enduml

PlantUML version 1.2022.12(Mon Oct 24 02:12:26 SGT 2022)
(GPL source distribution)
Java Runtime: OpenJDK Runtime Environment
JVM: OpenJDK 64-Bit Server VM
Default Encoding: Cp1252
Language: en
Country: SG
--></g></svg>
