<?xml version="1.0" encoding="UTF-8" standalone="no"?><svg xmlns="http://www.w3.org/2000/svg" xmlns:xlink="http://www.w3.org/1999/xlink" contentStyleType="text/css" height="412.8px" preserveAspectRatio="none" style="width:456px;height:412px;background:#FFFFFF;" version="1.1" viewBox="0 0 456 412" width="456.6px" zoomAndPan="magnify"><defs/><g><rect fill="none" height="43.7344" id="_title" style="stroke:none;stroke-width:0.6;" width="163.2" x="146.025" y="9"/><text fill="#000000" font-family="sans-serif" font-size="15" font-weight="bold" lengthAdjust="spacing" textLength="157.2" x="149.025" y="27.5713">Activity: Edit item XYZ</text><text fill="#000000" font-family="sans-serif" font-size="15" font-weight="bold" lengthAdjust="spacing" textLength="4.2" x="225.525" y="46.4385"> </text><ellipse cx="231" cy="62.3344" fill="#222222" rx="6" ry="6" style="stroke:#222222;stroke-width:0.6;"/><rect fill="#F1F1F1" height="42.1875" rx="7.5" ry="7.5" style="stroke:#181818;stroke-width:0.3;" width="186.6" x="137.7" y="80.3344"/><text fill="#000000" font-family="sans-serif" font-size="12" lengthAdjust="spacing" textLength="166.2" x="143.7" y="98.7914">Item XYZ at index (zero-based)</text><text fill="#000000" font-family="sans-serif" font-size="12" lengthAdjust="spacing" textLength="174.6" x="143.7" y="113.8852">retrieved from its FilteredXYZList</text><rect fill="#F1F1F1" height="27.0938" rx="7.5" ry="7.5" style="stroke:#181818;stroke-width:0.3;" width="229.8" x="116.1" y="134.5219"/><text fill="#000000" font-family="sans-serif" font-size="12" lengthAdjust="spacing" textLength="217.8" x="122.1" y="152.9789">Copy of the item XYZ is made and edited</text><polygon fill="#F1F1F1" points="231,216.2262,231,216.2262,238.2,223.4262,231,230.6262,231,230.6262,223.8,223.4262,231,216.2262" style="stroke:#181818;stroke-width:0.3;"/><text fill="#000000" font-family="sans-serif" font-size="10.8" lengthAdjust="spacing" textLength="3" x="6" y="180.3"> </text><text fill="#000000" font-family="sans-serif" font-size="10.8" lengthAdjust="spacing" textLength="211.2" x="6" y="193.8844">[Edited item is considered to be the same as</text><text fill="#000000" font-family="sans-serif" font-size="10.8" lengthAdjust="spacing" textLength="217.8" x="6" y="207.4688">other items in the list or same as original item]</text><text fill="#000000" font-family="sans-serif" font-size="10.8" lengthAdjust="spacing" textLength="3" x="6" y="221.0531"> </text><text fill="#000000" font-family="sans-serif" font-size="10.8" lengthAdjust="spacing" textLength="25.8" x="238.2" y="207.4688">[else]</text><text fill="#000000" font-family="sans-serif" font-size="10.8" lengthAdjust="spacing" textLength="3" x="238.2" y="221.0531"> </text><rect fill="#F1F1F1" height="27.0938" rx="7.5" ry="7.5" style="stroke:#181818;stroke-width:0.3;" width="207.6" x="15.45" y="236.6262"/><text fill="#000000" font-family="sans-serif" font-size="12" lengthAdjust="spacing" textLength="195.6" x="21.45" y="255.0832">Display duplicate item error message</text><ellipse cx="119.25" cy="282.3199" fill="none" rx="6.6" ry="6.6" style="stroke:#222222;stroke-width:0.6;"/><ellipse cx="119.25" cy="282.3199" fill="#222222" rx="3.6" ry="3.6" style="stroke:#111111;stroke-width:0.6;"/><rect fill="#F1F1F1" height="27.0938" rx="7.5" ry="7.5" style="stroke:#181818;stroke-width:0.3;" width="144.6" x="270.45" y="236.6262"/><text fill="#000000" font-family="sans-serif" font-size="12" lengthAdjust="spacing" textLength="132.6" x="276.45" y="255.0832">Item in XYZ List is edited</text><rect fill="#F1F1F1" height="27.0938" rx="7.5" ry="7.5" style="stroke:#181818;stroke-width:0.3;" width="151.8" x="266.85" y="275.7199"/><text fill="#000000" font-family="sans-serif" font-size="12" lengthAdjust="spacing" textLength="139.8" x="272.85" y="294.177">FilteredXYZList is updated</text><rect fill="#F1F1F1" height="27.0938" rx="7.5" ry="7.5" style="stroke:#181818;stroke-width:0.3;" width="215.4" x="235.05" y="314.8137"/><text fill="#000000" font-family="sans-serif" font-size="12" lengthAdjust="spacing" textLength="203.4" x="241.05" y="333.2707">Changes made are saved to local data</text><rect fill="#F1F1F1" height="27.0938" rx="7.5" ry="7.5" style="stroke:#181818;stroke-width:0.3;" width="192" x="246.75" y="353.9074"/><text fill="#000000" font-family="sans-serif" font-size="12" lengthAdjust="spacing" textLength="180" x="252.75" y="372.3645">Edit Success Message is returned</text><ellipse cx="342.75" cy="399.6012" fill="none" rx="6.6" ry="6.6" style="stroke:#222222;stroke-width:0.6;"/><ellipse cx="342.75" cy="399.6012" fill="#222222" rx="3.6" ry="3.6" style="stroke:#111111;stroke-width:0.6;"/><line style="stroke:#181818;stroke-width:0.6;" x1="231" x2="231" y1="68.3344" y2="80.3344"/><polygon fill="#181818" points="228.6,74.3344,231,80.3344,233.4,74.3344,231,76.7344" style="stroke:#181818;stroke-width:0.6;"/><line style="stroke:#181818;stroke-width:0.6;" x1="231" x2="231" y1="122.5219" y2="134.5219"/><polygon fill="#181818" points="228.6,128.5219,231,134.5219,233.4,128.5219,231,130.9219" style="stroke:#181818;stroke-width:0.6;"/><line style="stroke:#181818;stroke-width:0.6;" x1="119.25" x2="119.25" y1="263.7199" y2="275.7199"/><polygon fill="#181818" points="116.85,269.7199,119.25,275.7199,121.65,269.7199,119.25,272.1199" style="stroke:#181818;stroke-width:0.6;"/><line style="stroke:#181818;stroke-width:0.6;" x1="342.75" x2="342.75" y1="263.7199" y2="275.7199"/><polygon fill="#181818" points="340.35,269.7199,342.75,275.7199,345.15,269.7199,342.75,272.1199" style="stroke:#181818;stroke-width:0.6;"/><line style="stroke:#181818;stroke-width:0.6;" x1="342.75" x2="342.75" y1="302.8137" y2="314.8137"/><polygon fill="#181818" points="340.35,308.8137,342.75,314.8137,345.15,308.8137,342.75,311.2137" style="stroke:#181818;stroke-width:0.6;"/><line style="stroke:#181818;stroke-width:0.6;" x1="342.75" x2="342.75" y1="341.9074" y2="353.9074"/><polygon fill="#181818" points="340.35,347.9074,342.75,353.9074,345.15,347.9074,342.75,350.3074" style="stroke:#181818;stroke-width:0.6;"/><line style="stroke:#181818;stroke-width:0.6;" x1="342.75" x2="342.75" y1="381.0012" y2="393.0012"/><polygon fill="#181818" points="340.35,387.0012,342.75,393.0012,345.15,387.0012,342.75,389.4012" style="stroke:#181818;stroke-width:0.6;"/><line style="stroke:#181818;stroke-width:0.6;" x1="223.8" x2="119.25" y1="223.4262" y2="223.4262"/><line style="stroke:#181818;stroke-width:0.6;" x1="119.25" x2="119.25" y1="223.4262" y2="236.6262"/><polygon fill="#181818" points="116.85,230.6262,119.25,236.6262,121.65,230.6262,119.25,233.0262" style="stroke:#181818;stroke-width:0.6;"/><line style="stroke:#181818;stroke-width:0.6;" x1="238.2" x2="342.75" y1="223.4262" y2="223.4262"/><line style="stroke:#181818;stroke-width:0.6;" x1="342.75" x2="342.75" y1="223.4262" y2="236.6262"/><polygon fill="#181818" points="340.35,230.6262,342.75,236.6262,345.15,230.6262,342.75,233.0262" style="stroke:#181818;stroke-width:0.6;"/><line style="stroke:#181818;stroke-width:0.6;" x1="231" x2="231" y1="161.6156" y2="216.2262"/><polygon fill="#181818" points="228.6,210.2262,231,216.2262,233.4,210.2262,231,212.6262" style="stroke:#181818;stroke-width:0.6;"/><!--MD5=[0841b7864900377da44d71c1181ffb6c]
@startuml
skinparam activityFontSize 20
skinparam activityArrowFontSize 18
skinparam titleFontSize 25

title Activity: Edit item XYZ\n

start
:Item XYZ at index (zero-based)
retrieved from its FilteredXYZList;
:Copy of the item XYZ is made and edited;

if () then (
[Edited item is considered to be the same as
other items in the list or same as original item]
)
:Display duplicate item error message;
stop

else ([else]
)
:Item in XYZ List is edited;
:FilteredXYZList is updated;
:Changes made are saved to local data;
:Edit Success Message is returned;
stop

@enduml

PlantUML version 1.2022.12(Mon Oct 24 02:12:26 SGT 2022)
(GPL source distribution)
Java Runtime: OpenJDK Runtime Environment
JVM: OpenJDK 64-Bit Server VM
Default Encoding: Cp1252
Language: en
Country: SG
--></g></svg>
