<?xml version="1.0" encoding="UTF-8" standalone="no"?><svg xmlns="http://www.w3.org/2000/svg" xmlns:xlink="http://www.w3.org/1999/xlink" contentStyleType="text/css" height="542.5px" preserveAspectRatio="none" style="width:1207px;height:542px;background:#FFFFFF;" version="1.1" viewBox="0 0 1207 542" width="1207px" zoomAndPan="magnify"><defs/><g><ellipse cx="445.6875" cy="10" fill="#222222" rx="5" ry="5" style="stroke:#222222;stroke-width:0.5;"/><rect fill="#F1F1F1" height="28.8672" rx="6.25" ry="6.25" style="stroke:#181818;stroke-width:0.25;" width="307.5" x="291.9375" y="25"/><text fill="#000000" font-family="sans-serif" font-size="15" lengthAdjust="spacing" textLength="297.5" x="296.9375" y="45.5713">User enters command to edit XYZ in XYZ List</text><rect fill="#F1F1F1" height="28.8672" rx="6.25" ry="6.25" style="stroke:#181818;stroke-width:0.25;" width="319.5" x="285.9375" y="63.8672"/><text fill="#000000" font-family="sans-serif" font-size="15" lengthAdjust="spacing" textLength="309.5" x="290.9375" y="84.4385">EditXYZCommandParser parses the user input</text><polygon fill="#F1F1F1" points="445.6875,109.4536,445.6875,109.4536,451.6875,115.4536,445.6875,121.4536,445.6875,121.4536,439.6875,115.4536,445.6875,109.4536" style="stroke:#181818;stroke-width:0.25;"/><text fill="#000000" font-family="sans-serif" font-size="12.5" lengthAdjust="spacing" textLength="142" x="297.6875" y="112.707">[Invalid command format]</text><text fill="#000000" font-family="sans-serif" font-size="12.5" lengthAdjust="spacing" textLength="30.5" x="451.6875" y="112.707">[else]</text><rect fill="#F1F1F1" height="28.8672" rx="6.25" ry="6.25" style="stroke:#181818;stroke-width:0.25;" width="177" x="85.75" y="126.4536"/><text fill="#000000" font-family="sans-serif" font-size="15" lengthAdjust="spacing" textLength="167" x="90.75" y="147.0249">ParseException is thrown</text><rect fill="#F1F1F1" height="28.8672" rx="6.25" ry="6.25" style="stroke:#181818;stroke-width:0.25;" width="337.5" x="5.5" y="172.8208"/><text fill="#000000" font-family="sans-serif" font-size="15" lengthAdjust="spacing" textLength="327.5" x="10.5" y="193.3921">Invalid Command Format error message is shown</text><ellipse cx="174.25" cy="224.688" fill="none" rx="5.5" ry="5.5" style="stroke:#222222;stroke-width:0.5;"/><ellipse cx="174.25" cy="224.688" fill="#222222" rx="3" ry="3" style="stroke:#111111;stroke-width:0.5;"/><rect fill="#F1F1F1" height="47.7344" rx="6.25" ry="6.25" style="stroke:#181818;stroke-width:0.25;" width="262" x="586.125" y="126.4536"/><text fill="#000000" font-family="sans-serif" font-size="15" lengthAdjust="spacing" textLength="252" x="591.125" y="147.0249">EditXYZCommandParser parses input</text><text fill="#000000" font-family="sans-serif" font-size="15" lengthAdjust="spacing" textLength="223" x="591.125" y="165.8921">and returns an EditXYZCommand</text><rect fill="#F1F1F1" height="28.8672" rx="6.25" ry="6.25" style="stroke:#181818;stroke-width:0.25;" width="193.5" x="620.375" y="191.688"/><text fill="#000000" font-family="sans-serif" font-size="15" lengthAdjust="spacing" textLength="183.5" x="625.375" y="212.2593">Check if index given is valid</text><polygon fill="#F1F1F1" points="717.125,241.7778,717.125,241.7778,723.125,247.7778,717.125,253.7778,717.125,253.7778,711.125,247.7778,717.125,241.7778" style="stroke:#181818;stroke-width:0.25;"/><text fill="#000000" font-family="sans-serif" font-size="12.5" lengthAdjust="spacing" textLength="129.5" x="581.625" y="245.0313">[Index is out of bounds]</text><text fill="#000000" font-family="sans-serif" font-size="12.5" lengthAdjust="spacing" textLength="30.5" x="723.125" y="245.0313">[else]</text><rect fill="#F1F1F1" height="28.8672" rx="6.25" ry="6.25" style="stroke:#181818;stroke-width:0.25;" width="215.5" x="393" y="258.7778"/><text fill="#000000" font-family="sans-serif" font-size="15" lengthAdjust="spacing" textLength="205.5" x="398" y="279.3491">CommandExeception is thrown</text><rect fill="#F1F1F1" height="28.8672" rx="6.25" ry="6.25" style="stroke:#181818;stroke-width:0.25;" width="285.5" x="358" y="297.645"/><text fill="#000000" font-family="sans-serif" font-size="15" lengthAdjust="spacing" textLength="275.5" x="363" y="318.2163">Invalid Item Index error message is shown</text><ellipse cx="500.75" cy="345.0088" fill="none" rx="5.5" ry="5.5" style="stroke:#222222;stroke-width:0.5;"/><ellipse cx="500.75" cy="345.0088" fill="#222222" rx="3" ry="3" style="stroke:#111111;stroke-width:0.5;"/><rect fill="#F1F1F1" height="28.8672" rx="6.25" ry="6.25" style="stroke:#181818;stroke-width:0.25;" width="433" x="717" y="258.7778"/><text fill="#000000" font-family="sans-serif" font-size="15" lengthAdjust="spacing" textLength="423" x="722" y="279.3491">Item XYZ at given index will be retrieved from its filtered XYZ List</text><rect fill="#F1F1F1" height="28.8672" rx="6.25" ry="6.25" style="stroke:#181818;stroke-width:0.25;" width="279" x="794" y="297.645"/><text fill="#000000" font-family="sans-serif" font-size="15" lengthAdjust="spacing" textLength="269" x="799" y="318.2163">Copy of the item XYZ is made and edited</text><polygon fill="#F1F1F1" points="933.5,358.9541,933.5,358.9541,939.5,364.9541,933.5,370.9541,933.5,370.9541,927.5,364.9541,933.5,358.9541" style="stroke:#181818;stroke-width:0.25;"/><text fill="#000000" font-family="sans-serif" font-size="12.5" lengthAdjust="spacing" textLength="274" x="653.5" y="346.4849">[Edited item is the same as other items in the list</text><text fill="#000000" font-family="sans-serif" font-size="12.5" lengthAdjust="spacing" textLength="205" x="653.5" y="362.2075">or no actual change is made to item]</text><text fill="#000000" font-family="sans-serif" font-size="12.5" lengthAdjust="spacing" textLength="30.5" x="939.5" y="362.2075">[else]</text><rect fill="#F1F1F1" height="28.8672" rx="6.25" ry="6.25" style="stroke:#181818;stroke-width:0.25;" width="207.5" x="692.75" y="375.9541"/><text fill="#000000" font-family="sans-serif" font-size="15" lengthAdjust="spacing" textLength="197.5" x="697.75" y="396.5254">CommandException is thrown</text><rect fill="#F1F1F1" height="28.8672" rx="6.25" ry="6.25" style="stroke:#181818;stroke-width:0.25;" width="265.5" x="663.75" y="422.3213"/><text fill="#000000" font-family="sans-serif" font-size="15" lengthAdjust="spacing" textLength="255.5" x="668.75" y="442.8926">Duplicate Item error message is shown</text><ellipse cx="796.5" cy="474.1885" fill="none" rx="5.5" ry="5.5" style="stroke:#222222;stroke-width:0.5;"/><ellipse cx="796.5" cy="474.1885" fill="#222222" rx="3" ry="3" style="stroke:#111111;stroke-width:0.5;"/><rect fill="#F1F1F1" height="47.7344" rx="6.25" ry="6.25" style="stroke:#181818;stroke-width:0.25;" width="221" x="960" y="375.9541"/><text fill="#000000" font-family="sans-serif" font-size="15" lengthAdjust="spacing" textLength="163" x="965" y="396.5254">Item in XYZ List is edited</text><text fill="#000000" font-family="sans-serif" font-size="15" lengthAdjust="spacing" textLength="211" x="965" y="415.3926">and Filtered XYZ List is updated</text><rect fill="#F1F1F1" height="28.8672" rx="6.25" ry="6.25" style="stroke:#181818;stroke-width:0.25;" width="262.5" x="939.25" y="441.1885"/><text fill="#000000" font-family="sans-serif" font-size="15" lengthAdjust="spacing" textLength="252.5" x="944.25" y="461.7598">Changes made are saved to local data</text><rect fill="#F1F1F1" height="28.8672" rx="6.25" ry="6.25" style="stroke:#181818;stroke-width:0.25;" width="222.5" x="959.25" y="487.5557"/><text fill="#000000" font-family="sans-serif" font-size="15" lengthAdjust="spacing" textLength="212.5" x="964.25" y="508.127">Edit Success Message is shown</text><ellipse cx="1070.5" cy="531.9229" fill="none" rx="5.5" ry="5.5" style="stroke:#222222;stroke-width:0.5;"/><ellipse cx="1070.5" cy="531.9229" fill="#222222" rx="3" ry="3" style="stroke:#111111;stroke-width:0.5;"/><line style="stroke:#181818;stroke-width:0.5;" x1="445.6875" x2="445.6875" y1="15" y2="25"/><polygon fill="#181818" points="443.6875,20,445.6875,25,447.6875,20,445.6875,22" style="stroke:#181818;stroke-width:0.5;"/><line style="stroke:#181818;stroke-width:0.5;" x1="445.6875" x2="445.6875" y1="53.8672" y2="63.8672"/><polygon fill="#181818" points="443.6875,58.8672,445.6875,63.8672,447.6875,58.8672,445.6875,60.8672" style="stroke:#181818;stroke-width:0.5;"/><line style="stroke:#181818;stroke-width:0.5;" x1="174.25" x2="174.25" y1="155.3208" y2="172.8208"/><polygon fill="#181818" points="172.25,167.8208,174.25,172.8208,176.25,167.8208,174.25,169.8208" style="stroke:#181818;stroke-width:0.5;"/><line style="stroke:#181818;stroke-width:0.5;" x1="174.25" x2="174.25" y1="201.688" y2="219.188"/><polygon fill="#181818" points="172.25,214.188,174.25,219.188,176.25,214.188,174.25,216.188" style="stroke:#181818;stroke-width:0.5;"/><line style="stroke:#181818;stroke-width:0.5;" x1="717.125" x2="717.125" y1="174.188" y2="191.688"/><polygon fill="#181818" points="715.125,186.688,717.125,191.688,719.125,186.688,717.125,188.688" style="stroke:#181818;stroke-width:0.5;"/><line style="stroke:#181818;stroke-width:0.5;" x1="500.75" x2="500.75" y1="287.645" y2="297.645"/><polygon fill="#181818" points="498.75,292.645,500.75,297.645,502.75,292.645,500.75,294.645" style="stroke:#181818;stroke-width:0.5;"/><line style="stroke:#181818;stroke-width:0.5;" x1="500.75" x2="500.75" y1="326.5122" y2="339.5088"/><polygon fill="#181818" points="498.75,334.5088,500.75,339.5088,502.75,334.5088,500.75,336.5088" style="stroke:#181818;stroke-width:0.5;"/><line style="stroke:#181818;stroke-width:0.5;" x1="933.5" x2="933.5" y1="287.645" y2="297.645"/><polygon fill="#181818" points="931.5,292.645,933.5,297.645,935.5,292.645,933.5,294.645" style="stroke:#181818;stroke-width:0.5;"/><line style="stroke:#181818;stroke-width:0.5;" x1="796.5" x2="796.5" y1="404.8213" y2="422.3213"/><polygon fill="#181818" points="794.5,417.3213,796.5,422.3213,798.5,417.3213,796.5,419.3213" style="stroke:#181818;stroke-width:0.5;"/><line style="stroke:#181818;stroke-width:0.5;" x1="796.5" x2="796.5" y1="451.1885" y2="468.6885"/><polygon fill="#181818" points="794.5,463.6885,796.5,468.6885,798.5,463.6885,796.5,465.6885" style="stroke:#181818;stroke-width:0.5;"/><line style="stroke:#181818;stroke-width:0.5;" x1="1070.5" x2="1070.5" y1="423.6885" y2="441.1885"/><polygon fill="#181818" points="1068.5,436.1885,1070.5,441.1885,1072.5,436.1885,1070.5,438.1885" style="stroke:#181818;stroke-width:0.5;"/><line style="stroke:#181818;stroke-width:0.5;" x1="1070.5" x2="1070.5" y1="470.0557" y2="487.5557"/><polygon fill="#181818" points="1068.5,482.5557,1070.5,487.5557,1072.5,482.5557,1070.5,484.5557" style="stroke:#181818;stroke-width:0.5;"/><line style="stroke:#181818;stroke-width:0.5;" x1="1070.5" x2="1070.5" y1="516.4229" y2="526.4229"/><polygon fill="#181818" points="1068.5,521.4229,1070.5,526.4229,1072.5,521.4229,1070.5,523.4229" style="stroke:#181818;stroke-width:0.5;"/><line style="stroke:#181818;stroke-width:0.5;" x1="927.5" x2="796.5" y1="364.9541" y2="364.9541"/><line style="stroke:#181818;stroke-width:0.5;" x1="796.5" x2="796.5" y1="364.9541" y2="375.9541"/><polygon fill="#181818" points="794.5,370.9541,796.5,375.9541,798.5,370.9541,796.5,372.9541" style="stroke:#181818;stroke-width:0.5;"/><line style="stroke:#181818;stroke-width:0.5;" x1="939.5" x2="1070.5" y1="364.9541" y2="364.9541"/><line style="stroke:#181818;stroke-width:0.5;" x1="1070.5" x2="1070.5" y1="364.9541" y2="375.9541"/><polygon fill="#181818" points="1068.5,370.9541,1070.5,375.9541,1072.5,370.9541,1070.5,372.9541" style="stroke:#181818;stroke-width:0.5;"/><line style="stroke:#181818;stroke-width:0.5;" x1="933.5" x2="933.5" y1="326.5122" y2="358.9541"/><polygon fill="#181818" points="931.5,353.9541,933.5,358.9541,935.5,353.9541,933.5,355.9541" style="stroke:#181818;stroke-width:0.5;"/><line style="stroke:#181818;stroke-width:0.5;" x1="711.125" x2="500.75" y1="247.7778" y2="247.7778"/><line style="stroke:#181818;stroke-width:0.5;" x1="500.75" x2="500.75" y1="247.7778" y2="258.7778"/><polygon fill="#181818" points="498.75,253.7778,500.75,258.7778,502.75,253.7778,500.75,255.7778" style="stroke:#181818;stroke-width:0.5;"/><line style="stroke:#181818;stroke-width:0.5;" x1="723.125" x2="933.5" y1="247.7778" y2="247.7778"/><line style="stroke:#181818;stroke-width:0.5;" x1="933.5" x2="933.5" y1="247.7778" y2="258.7778"/><polygon fill="#181818" points="931.5,253.7778,933.5,258.7778,935.5,253.7778,933.5,255.7778" style="stroke:#181818;stroke-width:0.5;"/><line style="stroke:#181818;stroke-width:0.5;" x1="717.125" x2="717.125" y1="220.5552" y2="241.7778"/><polygon fill="#181818" points="715.125,236.7778,717.125,241.7778,719.125,236.7778,717.125,238.7778" style="stroke:#181818;stroke-width:0.5;"/><line style="stroke:#181818;stroke-width:0.5;" x1="439.6875" x2="174.25" y1="115.4536" y2="115.4536"/><line style="stroke:#181818;stroke-width:0.5;" x1="174.25" x2="174.25" y1="115.4536" y2="126.4536"/><polygon fill="#181818" points="172.25,121.4536,174.25,126.4536,176.25,121.4536,174.25,123.4536" style="stroke:#181818;stroke-width:0.5;"/><line style="stroke:#181818;stroke-width:0.5;" x1="451.6875" x2="717.125" y1="115.4536" y2="115.4536"/><line style="stroke:#181818;stroke-width:0.5;" x1="717.125" x2="717.125" y1="115.4536" y2="126.4536"/><polygon fill="#181818" points="715.125,121.4536,717.125,126.4536,719.125,121.4536,717.125,123.4536" style="stroke:#181818;stroke-width:0.5;"/><line style="stroke:#181818;stroke-width:0.5;" x1="445.6875" x2="445.6875" y1="92.7344" y2="109.4536"/><polygon fill="#181818" points="443.6875,104.4536,445.6875,109.4536,447.6875,104.4536,445.6875,106.4536" style="stroke:#181818;stroke-width:0.5;"/><!--MD5=[3fd9b27b769be37798fdfdfd537fc317]
@startuml
skinparam activityFontSize 30
skinparam activityArrowFontSize 25

start
:User enters command to edit XYZ in XYZ List;
:EditXYZCommandParser parses the user input;
if () then ([Invalid command format])
  :ParseException is thrown;
  :Invalid Command Format error message is shown;
  stop
else ([else])
:EditXYZCommandParser parses input
and returns an EditXYZCommand;
:Check if index given is valid;

if () then ([Index is out of bounds])
    :CommandExeception is thrown;
    :Invalid Item Index error message is shown;
    stop
else ([else])
:Item XYZ at given index will be retrieved from its filtered XYZ List;
:Copy of the item XYZ is made and edited;

if () then ([Edited item is the same as other items in the list
or no actual change is made to item])
:CommandException is thrown;
:Duplicate Item error message is shown;
stop

else ([else])
:Item in XYZ List is edited
and Filtered XYZ List is updated;
:Changes made are saved to local data;
:Edit Success Message is shown;
stop

@enduml

PlantUML version 1.2022.12(Mon Oct 24 02:12:26 SGT 2022)
(GPL source distribution)
Java Runtime: OpenJDK Runtime Environment
JVM: OpenJDK 64-Bit Server VM
Default Encoding: Cp1252
Language: en
Country: SG
--></g></svg>
