<?xml version="1.0" encoding="UTF-8" standalone="no"?><svg xmlns="http://www.w3.org/2000/svg" xmlns:xlink="http://www.w3.org/1999/xlink" contentStyleType="text/css" height="512px" preserveAspectRatio="none" style="width:1207px;height:512px;background:#FFFFFF;" version="1.1" viewBox="0 0 1207 512" width="1207px" zoomAndPan="magnify"><defs/><g><ellipse cx="445.6875" cy="10" fill="#222222" rx="5" ry="5" style="stroke:#222222;stroke-width:0.5;"/><rect fill="#F1F1F1" height="28.8672" rx="6.25" ry="6.25" style="stroke:#181818;stroke-width:0.25;" width="307.5" x="291.9375" y="25"/><text fill="#000000" font-family="sans-serif" font-size="15" lengthAdjust="spacing" textLength="297.5" x="296.9375" y="45.5713">User enters command to edit XYZ in XYZ List</text><rect fill="#F1F1F1" height="28.8672" rx="6.25" ry="6.25" style="stroke:#181818;stroke-width:0.25;" width="319.5" x="285.9375" y="63.8672"/><text fill="#000000" font-family="sans-serif" font-size="15" lengthAdjust="spacing" textLength="309.5" x="290.9375" y="84.4385">EditXYZCommandParser parses the user input</text><polygon fill="#F1F1F1" points="445.6875,109.4536,445.6875,109.4536,451.6875,115.4536,445.6875,121.4536,445.6875,121.4536,439.6875,115.4536,445.6875,109.4536" style="stroke:#181818;stroke-width:0.25;"/><text fill="#000000" font-family="sans-serif" font-size="12.5" lengthAdjust="spacing" textLength="142" x="297.6875" y="112.707">[Invalid command format]</text><text fill="#000000" font-family="sans-serif" font-size="12.5" lengthAdjust="spacing" textLength="30.5" x="451.6875" y="112.707">[else]</text><rect fill="#F1F1F1" height="28.8672" rx="6.25" ry="6.25" style="stroke:#181818;stroke-width:0.25;" width="177" x="85.75" y="126.4536"/><text fill="#000000" font-family="sans-serif" font-size="15" lengthAdjust="spacing" textLength="167" x="90.75" y="147.0249">ParseException is thrown</text><rect fill="#F1F1F1" height="28.8672" rx="6.25" ry="6.25" style="stroke:#181818;stroke-width:0.25;" width="337.5" x="5.5" y="165.3208"/><text fill="#000000" font-family="sans-serif" font-size="15" lengthAdjust="spacing" textLength="327.5" x="10.5" y="185.8921">Invalid Command Format error message is shown</text><ellipse cx="174.25" cy="212.6846" fill="none" rx="5.5" ry="5.5" style="stroke:#222222;stroke-width:0.5;"/><ellipse cx="174.25" cy="212.6846" fill="#222222" rx="3" ry="3" style="stroke:#111111;stroke-width:0.5;"/><rect fill="#F1F1F1" height="28.8672" rx="6.25" ry="6.25" style="stroke:#181818;stroke-width:0.25;" width="262" x="586.125" y="126.4536"/><text fill="#000000" font-family="sans-serif" font-size="15" lengthAdjust="spacing" textLength="252" x="591.125" y="147.0249">EditXYZCommandParser parses input</text><rect fill="#F1F1F1" height="28.8672" rx="6.25" ry="6.25" style="stroke:#181818;stroke-width:0.25;" width="193.5" x="620.375" y="165.3208"/><text fill="#000000" font-family="sans-serif" font-size="15" lengthAdjust="spacing" textLength="183.5" x="625.375" y="185.8921">Check if index given is valid</text><polygon fill="#F1F1F1" points="717.125,210.9072,717.125,210.9072,723.125,216.9072,717.125,222.9072,717.125,222.9072,711.125,216.9072,717.125,210.9072" style="stroke:#181818;stroke-width:0.25;"/><text fill="#000000" font-family="sans-serif" font-size="12.5" lengthAdjust="spacing" textLength="129.5" x="581.625" y="214.1606">[Index is out of bounds]</text><text fill="#000000" font-family="sans-serif" font-size="12.5" lengthAdjust="spacing" textLength="30.5" x="723.125" y="214.1606">[else]</text><rect fill="#F1F1F1" height="28.8672" rx="6.25" ry="6.25" style="stroke:#181818;stroke-width:0.25;" width="215.5" x="393" y="227.9072"/><text fill="#000000" font-family="sans-serif" font-size="15" lengthAdjust="spacing" textLength="205.5" x="398" y="248.4785">CommandExeception is thrown</text><rect fill="#F1F1F1" height="28.8672" rx="6.25" ry="6.25" style="stroke:#181818;stroke-width:0.25;" width="285.5" x="358" y="266.7744"/><text fill="#000000" font-family="sans-serif" font-size="15" lengthAdjust="spacing" textLength="275.5" x="363" y="287.3457">Invalid Item Index error message is shown</text><ellipse cx="500.75" cy="314.1382" fill="none" rx="5.5" ry="5.5" style="stroke:#222222;stroke-width:0.5;"/><ellipse cx="500.75" cy="314.1382" fill="#222222" rx="3" ry="3" style="stroke:#111111;stroke-width:0.5;"/><rect fill="#F1F1F1" height="28.8672" rx="6.25" ry="6.25" style="stroke:#181818;stroke-width:0.25;" width="387.5" x="739.75" y="227.9072"/><text fill="#000000" font-family="sans-serif" font-size="15" lengthAdjust="spacing" textLength="377.5" x="744.75" y="248.4785">Item XYZ at given index retrieved from its filtered XYZ List</text><rect fill="#F1F1F1" height="28.8672" rx="6.25" ry="6.25" style="stroke:#181818;stroke-width:0.25;" width="279" x="794" y="266.7744"/><text fill="#000000" font-family="sans-serif" font-size="15" lengthAdjust="spacing" textLength="269" x="799" y="287.3457">Copy of the item XYZ is made and edited</text><polygon fill="#F1F1F1" points="933.5,328.0835,933.5,328.0835,939.5,334.0835,933.5,340.0835,933.5,340.0835,927.5,334.0835,933.5,328.0835" style="stroke:#181818;stroke-width:0.25;"/><text fill="#000000" font-family="sans-serif" font-size="12.5" lengthAdjust="spacing" textLength="274" x="653.5" y="315.6143">[Edited item is the same as other items in the list</text><text fill="#000000" font-family="sans-serif" font-size="12.5" lengthAdjust="spacing" textLength="205" x="653.5" y="331.3369">or no actual change is made to item]</text><text fill="#000000" font-family="sans-serif" font-size="12.5" lengthAdjust="spacing" textLength="30.5" x="939.5" y="331.3369">[else]</text><rect fill="#F1F1F1" height="28.8672" rx="6.25" ry="6.25" style="stroke:#181818;stroke-width:0.25;" width="207.5" x="692.75" y="345.0835"/><text fill="#000000" font-family="sans-serif" font-size="15" lengthAdjust="spacing" textLength="197.5" x="697.75" y="365.6548">CommandException is thrown</text><rect fill="#F1F1F1" height="28.8672" rx="6.25" ry="6.25" style="stroke:#181818;stroke-width:0.25;" width="265.5" x="663.75" y="391.4507"/><text fill="#000000" font-family="sans-serif" font-size="15" lengthAdjust="spacing" textLength="255.5" x="668.75" y="412.022">Duplicate Item error message is shown</text><ellipse cx="796.5" cy="443.3179" fill="none" rx="5.5" ry="5.5" style="stroke:#222222;stroke-width:0.5;"/><ellipse cx="796.5" cy="443.3179" fill="#222222" rx="3" ry="3" style="stroke:#111111;stroke-width:0.5;"/><rect fill="#F1F1F1" height="47.7344" rx="6.25" ry="6.25" style="stroke:#181818;stroke-width:0.25;" width="221" x="960" y="345.0835"/><text fill="#000000" font-family="sans-serif" font-size="15" lengthAdjust="spacing" textLength="163" x="965" y="365.6548">Item in XYZ List is edited</text><text fill="#000000" font-family="sans-serif" font-size="15" lengthAdjust="spacing" textLength="211" x="965" y="384.522">and Filtered XYZ List is updated</text><rect fill="#F1F1F1" height="28.8672" rx="6.25" ry="6.25" style="stroke:#181818;stroke-width:0.25;" width="262.5" x="939.25" y="410.3179"/><text fill="#000000" font-family="sans-serif" font-size="15" lengthAdjust="spacing" textLength="252.5" x="944.25" y="430.8892">Changes made are saved to local data</text><rect fill="#F1F1F1" height="28.8672" rx="6.25" ry="6.25" style="stroke:#181818;stroke-width:0.25;" width="222.5" x="959.25" y="456.6851"/><text fill="#000000" font-family="sans-serif" font-size="15" lengthAdjust="spacing" textLength="212.5" x="964.25" y="477.2563">Edit Success Message is shown</text><ellipse cx="1070.5" cy="501.0522" fill="none" rx="5.5" ry="5.5" style="stroke:#222222;stroke-width:0.5;"/><ellipse cx="1070.5" cy="501.0522" fill="#222222" rx="3" ry="3" style="stroke:#111111;stroke-width:0.5;"/><line style="stroke:#181818;stroke-width:0.5;" x1="445.6875" x2="445.6875" y1="15" y2="25"/><polygon fill="#181818" points="443.6875,20,445.6875,25,447.6875,20,445.6875,22" style="stroke:#181818;stroke-width:0.5;"/><line style="stroke:#181818;stroke-width:0.5;" x1="445.6875" x2="445.6875" y1="53.8672" y2="63.8672"/><polygon fill="#181818" points="443.6875,58.8672,445.6875,63.8672,447.6875,58.8672,445.6875,60.8672" style="stroke:#181818;stroke-width:0.5;"/><line style="stroke:#181818;stroke-width:0.5;" x1="174.25" x2="174.25" y1="155.3208" y2="165.3208"/><polygon fill="#181818" points="172.25,160.3208,174.25,165.3208,176.25,160.3208,174.25,162.3208" style="stroke:#181818;stroke-width:0.5;"/><line style="stroke:#181818;stroke-width:0.5;" x1="174.25" x2="174.25" y1="194.188" y2="207.1846"/><polygon fill="#181818" points="172.25,202.1846,174.25,207.1846,176.25,202.1846,174.25,204.1846" style="stroke:#181818;stroke-width:0.5;"/><line style="stroke:#181818;stroke-width:0.5;" x1="717.125" x2="717.125" y1="155.3208" y2="165.3208"/><polygon fill="#181818" points="715.125,160.3208,717.125,165.3208,719.125,160.3208,717.125,162.3208" style="stroke:#181818;stroke-width:0.5;"/><line style="stroke:#181818;stroke-width:0.5;" x1="500.75" x2="500.75" y1="256.7744" y2="266.7744"/><polygon fill="#181818" points="498.75,261.7744,500.75,266.7744,502.75,261.7744,500.75,263.7744" style="stroke:#181818;stroke-width:0.5;"/><line style="stroke:#181818;stroke-width:0.5;" x1="500.75" x2="500.75" y1="295.6416" y2="308.6382"/><polygon fill="#181818" points="498.75,303.6382,500.75,308.6382,502.75,303.6382,500.75,305.6382" style="stroke:#181818;stroke-width:0.5;"/><line style="stroke:#181818;stroke-width:0.5;" x1="933.5" x2="933.5" y1="256.7744" y2="266.7744"/><polygon fill="#181818" points="931.5,261.7744,933.5,266.7744,935.5,261.7744,933.5,263.7744" style="stroke:#181818;stroke-width:0.5;"/><line style="stroke:#181818;stroke-width:0.5;" x1="796.5" x2="796.5" y1="373.9507" y2="391.4507"/><polygon fill="#181818" points="794.5,386.4507,796.5,391.4507,798.5,386.4507,796.5,388.4507" style="stroke:#181818;stroke-width:0.5;"/><line style="stroke:#181818;stroke-width:0.5;" x1="796.5" x2="796.5" y1="420.3179" y2="437.8179"/><polygon fill="#181818" points="794.5,432.8179,796.5,437.8179,798.5,432.8179,796.5,434.8179" style="stroke:#181818;stroke-width:0.5;"/><line style="stroke:#181818;stroke-width:0.5;" x1="1070.5" x2="1070.5" y1="392.8179" y2="410.3179"/><polygon fill="#181818" points="1068.5,405.3179,1070.5,410.3179,1072.5,405.3179,1070.5,407.3179" style="stroke:#181818;stroke-width:0.5;"/><line style="stroke:#181818;stroke-width:0.5;" x1="1070.5" x2="1070.5" y1="439.1851" y2="456.6851"/><polygon fill="#181818" points="1068.5,451.6851,1070.5,456.6851,1072.5,451.6851,1070.5,453.6851" style="stroke:#181818;stroke-width:0.5;"/><line style="stroke:#181818;stroke-width:0.5;" x1="1070.5" x2="1070.5" y1="485.5522" y2="495.5522"/><polygon fill="#181818" points="1068.5,490.5522,1070.5,495.5522,1072.5,490.5522,1070.5,492.5522" style="stroke:#181818;stroke-width:0.5;"/><line style="stroke:#181818;stroke-width:0.5;" x1="927.5" x2="796.5" y1="334.0835" y2="334.0835"/><line style="stroke:#181818;stroke-width:0.5;" x1="796.5" x2="796.5" y1="334.0835" y2="345.0835"/><polygon fill="#181818" points="794.5,340.0835,796.5,345.0835,798.5,340.0835,796.5,342.0835" style="stroke:#181818;stroke-width:0.5;"/><line style="stroke:#181818;stroke-width:0.5;" x1="939.5" x2="1070.5" y1="334.0835" y2="334.0835"/><line style="stroke:#181818;stroke-width:0.5;" x1="1070.5" x2="1070.5" y1="334.0835" y2="345.0835"/><polygon fill="#181818" points="1068.5,340.0835,1070.5,345.0835,1072.5,340.0835,1070.5,342.0835" style="stroke:#181818;stroke-width:0.5;"/><line style="stroke:#181818;stroke-width:0.5;" x1="933.5" x2="933.5" y1="295.6416" y2="328.0835"/><polygon fill="#181818" points="931.5,323.0835,933.5,328.0835,935.5,323.0835,933.5,325.0835" style="stroke:#181818;stroke-width:0.5;"/><line style="stroke:#181818;stroke-width:0.5;" x1="711.125" x2="500.75" y1="216.9072" y2="216.9072"/><line style="stroke:#181818;stroke-width:0.5;" x1="500.75" x2="500.75" y1="216.9072" y2="227.9072"/><polygon fill="#181818" points="498.75,222.9072,500.75,227.9072,502.75,222.9072,500.75,224.9072" style="stroke:#181818;stroke-width:0.5;"/><line style="stroke:#181818;stroke-width:0.5;" x1="723.125" x2="933.5" y1="216.9072" y2="216.9072"/><line style="stroke:#181818;stroke-width:0.5;" x1="933.5" x2="933.5" y1="216.9072" y2="227.9072"/><polygon fill="#181818" points="931.5,222.9072,933.5,227.9072,935.5,222.9072,933.5,224.9072" style="stroke:#181818;stroke-width:0.5;"/><line style="stroke:#181818;stroke-width:0.5;" x1="717.125" x2="717.125" y1="194.188" y2="210.9072"/><polygon fill="#181818" points="715.125,205.9072,717.125,210.9072,719.125,205.9072,717.125,207.9072" style="stroke:#181818;stroke-width:0.5;"/><line style="stroke:#181818;stroke-width:0.5;" x1="439.6875" x2="174.25" y1="115.4536" y2="115.4536"/><line style="stroke:#181818;stroke-width:0.5;" x1="174.25" x2="174.25" y1="115.4536" y2="126.4536"/><polygon fill="#181818" points="172.25,121.4536,174.25,126.4536,176.25,121.4536,174.25,123.4536" style="stroke:#181818;stroke-width:0.5;"/><line style="stroke:#181818;stroke-width:0.5;" x1="451.6875" x2="717.125" y1="115.4536" y2="115.4536"/><line style="stroke:#181818;stroke-width:0.5;" x1="717.125" x2="717.125" y1="115.4536" y2="126.4536"/><polygon fill="#181818" points="715.125,121.4536,717.125,126.4536,719.125,121.4536,717.125,123.4536" style="stroke:#181818;stroke-width:0.5;"/><line style="stroke:#181818;stroke-width:0.5;" x1="445.6875" x2="445.6875" y1="92.7344" y2="109.4536"/><polygon fill="#181818" points="443.6875,104.4536,445.6875,109.4536,447.6875,104.4536,445.6875,106.4536" style="stroke:#181818;stroke-width:0.5;"/><!--MD5=[0c0a39651e194f38999b5a0848a46320]
@startuml
skinparam activityFontSize 30
skinparam activityArrowFontSize 25

start
:User enters command to edit XYZ in XYZ List;
:EditXYZCommandParser parses the user input;
if () then ([Invalid command format])
  :ParseException is thrown;
  :Invalid Command Format error message is shown;
  stop
else ([else])
:EditXYZCommandParser parses input;
:Check if index given is valid;

if () then ([Index is out of bounds])
    :CommandExeception is thrown;
    :Invalid Item Index error message is shown;
    stop
else ([else])
:Item XYZ at given index retrieved from its filtered XYZ List;
:Copy of the item XYZ is made and edited;

if () then ([Edited item is the same as other items in the list
or no actual change is made to item])
:CommandException is thrown;
:Duplicate Item error message is shown;
stop

else ([else])
:Item in XYZ List is edited
and Filtered XYZ List is updated;
:Changes made are saved to local data;
:Edit Success Message is shown;
stop

@enduml

PlantUML version 1.2022.12(Mon Oct 24 02:12:26 SGT 2022)
(GPL source distribution)
Java Runtime: OpenJDK Runtime Environment
JVM: OpenJDK 64-Bit Server VM
Default Encoding: Cp1252
Language: en
Country: SG
--></g></svg>
