<?xml version="1.0" encoding="us-ascii" standalone="no"?><svg xmlns="http://www.w3.org/2000/svg" xmlns:xlink="http://www.w3.org/1999/xlink" contentStyleType="text/css" height="734px" preserveAspectRatio="none" style="width:616px;height:734px;background:#FFFFFF;" version="1.1" viewBox="0 0 616 734" width="616px" zoomAndPan="magnify"><defs/><g><ellipse cx="249.25" cy="20" fill="#222222" rx="10" ry="10" style="stroke:#222222;stroke-width:1.0;"/><rect fill="#F1F1F1" height="35.9609" rx="12.5" ry="12.5" style="stroke:#181818;stroke-width:0.5;" width="206" x="146.25" y="50"/><text fill="#000000" font-family="sans-serif" font-size="12" lengthAdjust="spacing" textLength="186" x="156.25" y="72.9492">User executes FindXYZCommand</text><rect fill="#F1F1F1" height="51.9219" rx="12.5" ry="12.5" style="stroke:#181818;stroke-width:0.5;" width="337" x="80.75" y="105.9609"/><text fill="#000000" font-family="sans-serif" font-size="12" lengthAdjust="spacing" textLength="317" x="90.75" y="128.9102">FindXYZCommandParser extracts the relevant information</text><text fill="#000000" font-family="sans-serif" font-size="12" lengthAdjust="spacing" textLength="131" x="183.75" y="144.8711">from the input argument</text><polygon fill="#F1F1F1" points="249.25,177.8828,249.25,177.8828,261.25,189.8828,249.25,201.8828,249.25,201.8828,237.25,189.8828,249.25,177.8828" style="stroke:#181818;stroke-width:0.5;"/><text fill="#000000" font-family="sans-serif" font-size="11" lengthAdjust="spacing" textLength="112" x="125.25" y="187.1221">[Invalid Input Argument]</text><text fill="#000000" font-family="sans-serif" font-size="11" lengthAdjust="spacing" textLength="3" x="261.25" y="187.1221">&#160;</text><rect fill="#F1F1F1" height="51.9219" rx="12.5" ry="12.5" style="stroke:#181818;stroke-width:0.5;" width="187" x="11" y="211.8828"/><text fill="#000000" font-family="sans-serif" font-size="12" lengthAdjust="spacing" textLength="126" x="41.5" y="234.832">Display error message</text><text fill="#000000" font-family="sans-serif" font-size="12" lengthAdjust="spacing" textLength="167" x="21" y="250.793">on invalid command argument</text><ellipse cx="104.5" cy="309.8047" fill="none" rx="11" ry="11" style="stroke:#222222;stroke-width:1.0;"/><ellipse cx="104.5" cy="309.8047" fill="#222222" rx="6" ry="6" style="stroke:#111111;stroke-width:1.0;"/><rect fill="#F1F1F1" height="35.9609" rx="12.5" ry="12.5" style="stroke:#181818;stroke-width:0.5;" width="230" x="279" y="211.8828"/><text fill="#000000" font-family="sans-serif" font-size="12" lengthAdjust="spacing" textLength="210" x="289" y="234.832">Create XYZContainsKeywordPredicate</text><rect fill="#F1F1F1" height="51.9219" rx="12.5" ry="12.5" style="stroke:#181818;stroke-width:0.5;" width="129" x="329.5" y="340.8047"/><text fill="#000000" font-family="sans-serif" font-size="12" lengthAdjust="spacing" textLength="109" x="339.5" y="363.7539">Check if current XYZ</text><text fill="#000000" font-family="sans-serif" font-size="12" lengthAdjust="spacing" textLength="102" x="343" y="379.7148">matches predicate</text><polygon fill="#F1F1F1" points="394,412.7266,394,412.7266,406,424.7266,394,436.7266,394,436.7266,382,424.7266,394,412.7266" style="stroke:#181818;stroke-width:0.5;"/><text fill="#000000" font-family="sans-serif" font-size="11" lengthAdjust="spacing" textLength="25" x="357" y="421.9658">[true]</text><text fill="#000000" font-family="sans-serif" font-size="11" lengthAdjust="spacing" textLength="30" x="406" y="421.9658">[false]</text><rect fill="#F1F1F1" height="35.9609" rx="12.5" ry="12.5" style="stroke:#181818;stroke-width:0.5;" width="148" x="228" y="446.7266"/><text fill="#000000" font-family="sans-serif" font-size="12" lengthAdjust="spacing" textLength="125" x="241" y="469.6758">Keep XYZ in filtered list</text><rect fill="#F1F1F1" height="35.9609" rx="12.5" ry="12.5" style="stroke:#181818;stroke-width:0.5;" width="180" x="396" y="446.7266"/><text fill="#000000" font-family="sans-serif" font-size="12" lengthAdjust="spacing" textLength="157" x="409" y="469.6758">Remove XYZ from filtered list</text><polygon fill="#F1F1F1" points="394,488.6875,406,500.6875,394,512.6875,382,500.6875,394,488.6875" style="stroke:#181818;stroke-width:0.5;"/><polygon fill="#F1F1F1" points="394,282.8438,406,294.8438,394,306.8438,382,294.8438,394,282.8438" style="stroke:#181818;stroke-width:0.5;"/><polygon fill="#F1F1F1" points="394,532.6875,394,532.6875,406,544.6875,394,556.6875,394,556.6875,382,544.6875,394,532.6875" style="stroke:#181818;stroke-width:0.5;"/><text fill="#000000" font-family="sans-serif" font-size="11" lengthAdjust="spacing" textLength="26" x="398" y="568.5576">[else]</text><text fill="#000000" font-family="sans-serif" font-size="11" lengthAdjust="spacing" textLength="158" x="406" y="541.9268">[Have remaining XYZ in XYZList]</text><rect fill="#F1F1F1" height="35.9609" rx="12.5" ry="12.5" style="stroke:#181818;stroke-width:0.5;" width="232" x="278" y="590.0576"/><text fill="#000000" font-family="sans-serif" font-size="12" lengthAdjust="spacing" textLength="209" x="291" y="613.0068">Show all filtered XYZ in FilteredXYZList</text><rect fill="#F1F1F1" height="35.9609" rx="12.5" ry="12.5" style="stroke:#181818;stroke-width:0.5;" width="189" x="299.5" y="646.0186"/><text fill="#000000" font-family="sans-serif" font-size="12" lengthAdjust="spacing" textLength="166" x="312.5" y="668.9678">Success message is returned</text><ellipse cx="394" cy="712.9795" fill="none" rx="11" ry="11" style="stroke:#222222;stroke-width:1.0;"/><ellipse cx="394" cy="712.9795" fill="#222222" rx="6" ry="6" style="stroke:#111111;stroke-width:1.0;"/><line style="stroke:#181818;stroke-width:1.0;" x1="249.25" x2="249.25" y1="30" y2="50"/><polygon fill="#181818" points="245.25,40,249.25,50,253.25,40,249.25,44" style="stroke:#181818;stroke-width:1.0;"/><line style="stroke:#181818;stroke-width:1.0;" x1="249.25" x2="249.25" y1="85.9609" y2="105.9609"/><polygon fill="#181818" points="245.25,95.9609,249.25,105.9609,253.25,95.9609,249.25,99.9609" style="stroke:#181818;stroke-width:1.0;"/><line style="stroke:#181818;stroke-width:1.0;" x1="104.5" x2="104.5" y1="263.8047" y2="298.8047"/><polygon fill="#181818" points="100.5,288.8047,104.5,298.8047,108.5,288.8047,104.5,292.8047" style="stroke:#181818;stroke-width:1.0;"/><line style="stroke:#181818;stroke-width:1.0;" x1="382" x2="302" y1="424.7266" y2="424.7266"/><line style="stroke:#181818;stroke-width:1.0;" x1="302" x2="302" y1="424.7266" y2="446.7266"/><polygon fill="#181818" points="298,436.7266,302,446.7266,306,436.7266,302,440.7266" style="stroke:#181818;stroke-width:1.0;"/><line style="stroke:#181818;stroke-width:1.0;" x1="406" x2="486" y1="424.7266" y2="424.7266"/><line style="stroke:#181818;stroke-width:1.0;" x1="486" x2="486" y1="424.7266" y2="446.7266"/><polygon fill="#181818" points="482,436.7266,486,446.7266,490,436.7266,486,440.7266" style="stroke:#181818;stroke-width:1.0;"/><line style="stroke:#181818;stroke-width:1.0;" x1="302" x2="302" y1="482.6875" y2="500.6875"/><line style="stroke:#181818;stroke-width:1.0;" x1="302" x2="382" y1="500.6875" y2="500.6875"/><polygon fill="#181818" points="372,496.6875,382,500.6875,372,504.6875,376,500.6875" style="stroke:#181818;stroke-width:1.0;"/><line style="stroke:#181818;stroke-width:1.0;" x1="486" x2="486" y1="482.6875" y2="500.6875"/><line style="stroke:#181818;stroke-width:1.0;" x1="486" x2="406" y1="500.6875" y2="500.6875"/><polygon fill="#181818" points="416,496.6875,406,500.6875,416,504.6875,412,500.6875" style="stroke:#181818;stroke-width:1.0;"/><line style="stroke:#181818;stroke-width:1.0;" x1="394" x2="394" y1="392.7266" y2="412.7266"/><polygon fill="#181818" points="390,402.7266,394,412.7266,398,402.7266,394,406.7266" style="stroke:#181818;stroke-width:1.0;"/><line style="stroke:#181818;stroke-width:1.0;" x1="394" x2="394" y1="306.8438" y2="340.8047"/><polygon fill="#181818" points="390,330.8047,394,340.8047,398,330.8047,394,334.8047" style="stroke:#181818;stroke-width:1.0;"/><line style="stroke:#181818;stroke-width:1.0;" x1="406" x2="590" y1="544.6875" y2="544.6875"/><polygon fill="#181818" points="586,429.2461,590,419.2461,594,429.2461,590,425.2461" style="stroke:#181818;stroke-width:1.0;"/><line style="stroke:#181818;stroke-width:1.0;" x1="590" x2="590" y1="294.8438" y2="544.6875"/><line style="stroke:#181818;stroke-width:1.0;" x1="590" x2="406" y1="294.8438" y2="294.8438"/><polygon fill="#181818" points="416,290.8438,406,294.8438,416,298.8438,412,294.8438" style="stroke:#181818;stroke-width:1.0;"/><line style="stroke:#181818;stroke-width:1.0;" x1="394" x2="394" y1="512.6875" y2="532.6875"/><polygon fill="#181818" points="390,522.6875,394,532.6875,398,522.6875,394,526.6875" style="stroke:#181818;stroke-width:1.0;"/><line style="stroke:#181818;stroke-width:1.0;" x1="394" x2="394" y1="247.8438" y2="282.8438"/><polygon fill="#181818" points="390,272.8438,394,282.8438,398,272.8438,394,276.8438" style="stroke:#181818;stroke-width:1.0;"/><line style="stroke:#181818;stroke-width:1.0;" x1="394" x2="394" y1="556.6875" y2="590.0576"/><polygon fill="#181818" points="390,580.0576,394,590.0576,398,580.0576,394,584.0576" style="stroke:#181818;stroke-width:1.0;"/><line style="stroke:#181818;stroke-width:1.0;" x1="394" x2="394" y1="626.0186" y2="646.0186"/><polygon fill="#181818" points="390,636.0186,394,646.0186,398,636.0186,394,640.0186" style="stroke:#181818;stroke-width:1.0;"/><line style="stroke:#181818;stroke-width:1.0;" x1="394" x2="394" y1="681.9795" y2="701.9795"/><polygon fill="#181818" points="390,691.9795,394,701.9795,398,691.9795,394,695.9795" style="stroke:#181818;stroke-width:1.0;"/><line style="stroke:#181818;stroke-width:1.0;" x1="237.25" x2="104.5" y1="189.8828" y2="189.8828"/><line style="stroke:#181818;stroke-width:1.0;" x1="104.5" x2="104.5" y1="189.8828" y2="211.8828"/><polygon fill="#181818" points="100.5,201.8828,104.5,211.8828,108.5,201.8828,104.5,205.8828" style="stroke:#181818;stroke-width:1.0;"/><line style="stroke:#181818;stroke-width:1.0;" x1="261.25" x2="394" y1="189.8828" y2="189.8828"/><line style="stroke:#181818;stroke-width:1.0;" x1="394" x2="394" y1="189.8828" y2="211.8828"/><polygon fill="#181818" points="390,201.8828,394,211.8828,398,201.8828,394,205.8828" style="stroke:#181818;stroke-width:1.0;"/><line style="stroke:#181818;stroke-width:1.0;" x1="249.25" x2="249.25" y1="157.8828" y2="177.8828"/><polygon fill="#181818" points="245.25,167.8828,249.25,177.8828,253.25,167.8828,249.25,171.8828" style="stroke:#181818;stroke-width:1.0;"/><!--SRC=[TLBDRjim3BxhARXJaqiV83aD7OeLxQ5OCQ1Tq0ChqR4m_HWKbJHlFqhssWJ3V95jyliZzSKd6weZA78AT3tL68mfWYncyxCG0xsJhK85Rdropo-_RdACcDpMR2v_F2BFxS9efO2C14o13fW4V1eoHnIVanaunrxrQQe2oFiQASdMcAidDKEzzaQ2K4v9y1rSLlMK1KgTfim2Kq3hqxutsfoSRxoGgnJlEjnSEOzHAt2atgrYgZIR4gxApvZig1QA4BfhO_m0gtMh9rZjxj81WtTmrnr-NHo-hWtei_dcYtAUW9WpGwHIS4-zf2xy0hNpLCxYjOOYUJ8K2gdOJ7R3X4BGvwXfrT0zdOwPtIEJyrPhCv9fqiRvVGQEP7-3shQLMGKQnKTLHsr7dTfqITAUYw1j5aki3sAu9veQcsQ1mGSX9O7Wovdw764te9x_u7zGp8SU2Vgk_yUXYnlEii5nzA4D1dnHxkzuQ1SewaZQhXS_UZmeo-kwNuZLZcO36tWQyn4mX4-r1N6xV2_8RUkjrkhM_gwkwJ59vKHwhTkA_W00]--></g></svg>