<?xml version="1.0" encoding="us-ascii" standalone="no"?><svg xmlns="http://www.w3.org/2000/svg" xmlns:xlink="http://www.w3.org/1999/xlink" contentStyleType="text/css" height="606px" preserveAspectRatio="none" style="width:1055px;height:606px;background:#FFFFFF;" version="1.1" viewBox="0 0 1055 606" width="1055px" zoomAndPan="magnify"><defs/><g><rect fill="#C8C8FA" height="587.6465" style="stroke:#181818;stroke-width:0.5;" width="723" x="92" y="6"/><text fill="#000000" font-family="sans-serif" font-size="13" font-weight="bold" lengthAdjust="spacing" textLength="35" x="434" y="20.0283">Logic</text><rect fill="#F97181" height="587.6465" style="stroke:#181818;stroke-width:0.5;" width="174" x="875.5" y="6"/><text fill="#000000" font-family="sans-serif" font-size="13" font-weight="bold" lengthAdjust="spacing" textLength="128" x="896.5" y="20.0283">OfficeConnectModel</text><rect fill="#FFFFFF" height="496.4434" style="stroke:#181818;stroke-width:1.0;" width="10" x="155" y="94.2031"/><rect fill="#FFFFFF" height="240.4063" style="stroke:#181818;stroke-width:1.0;" width="10" x="336" y="125.4941"/><rect fill="#FFFFFF" height="33.6211" style="stroke:#181818;stroke-width:1.0;" width="10" x="529.5" y="149.4941"/><rect fill="#FFFFFF" height="106.2031" style="stroke:#181818;stroke-width:1.0;" width="10" x="529.5" y="214.4063"/><rect fill="#FFFFFF" height="50.9121" style="stroke:#181818;stroke-width:1.0;" width="10" x="723.5" y="238.4063"/><rect fill="#FFFFFF" height="193.4551" style="stroke:#181818;stroke-width:1.0;" width="10" x="723.5" y="397.1914"/><rect fill="#FFFFFF" height="31.291" style="stroke:#181818;stroke-width:1.0;" width="10" x="957.5" y="428.4824"/><rect fill="#FFFFFF" height="14" style="stroke:#181818;stroke-width:1.0;" width="10" x="957.5" y="491.0645"/><rect fill="#FFFFFF" height="14" style="stroke:#181818;stroke-width:1.0;" width="10" x="957.5" y="536.3555"/><line style="stroke:#181818;stroke-width:0.5;stroke-dasharray:5.0,5.0;" x1="160" x2="160" y1="60.9121" y2="599.6465"/><line style="stroke:#181818;stroke-width:0.5;stroke-dasharray:5.0,5.0;" x1="341" x2="341" y1="60.9121" y2="599.6465"/><line style="stroke:#181818;stroke-width:0.5;stroke-dasharray:5.0,5.0;" x1="534" x2="534" y1="165.3047" y2="599.6465"/><line style="stroke:#181818;stroke-width:0.5;stroke-dasharray:5.0,5.0;" x1="728" x2="728" y1="254.2168" y2="599.6465"/><line style="stroke:#181818;stroke-width:0.5;stroke-dasharray:5.0,5.0;" x1="962.5" x2="962.5" y1="60.9121" y2="599.6465"/><rect fill="#3333C4" height="32.6211" rx="2.5" ry="2.5" style="stroke:#181818;stroke-width:0.5;" width="108" x="106" y="27.291"/><text fill="#FFFFFF" font-family="sans-serif" font-size="14" lengthAdjust="spacing" textLength="94" x="113" y="49.3984">:LogicManager</text><rect fill="#3333C4" height="32.6211" rx="2.5" ry="2.5" style="stroke:#181818;stroke-width:0.5;" width="144" x="269" y="27.291"/><text fill="#FFFFFF" font-family="sans-serif" font-size="14" lengthAdjust="spacing" textLength="130" x="276" y="49.3984">:AddressBookParser</text><rect fill="#F97181" height="32.6211" rx="2.5" ry="2.5" style="stroke:#181818;stroke-width:0.5;" width="146" x="889.5" y="27.291"/><text fill="#FFFFFF" font-family="sans-serif" font-size="14" lengthAdjust="spacing" textLength="132" x="896.5" y="49.3984">:OfficeConnectModel</text><rect fill="#FFFFFF" height="496.4434" style="stroke:#181818;stroke-width:1.0;" width="10" x="155" y="94.2031"/><rect fill="#FFFFFF" height="240.4063" style="stroke:#181818;stroke-width:1.0;" width="10" x="336" y="125.4941"/><rect fill="#FFFFFF" height="33.6211" style="stroke:#181818;stroke-width:1.0;" width="10" x="529.5" y="149.4941"/><rect fill="#FFFFFF" height="106.2031" style="stroke:#181818;stroke-width:1.0;" width="10" x="529.5" y="214.4063"/><rect fill="#FFFFFF" height="50.9121" style="stroke:#181818;stroke-width:1.0;" width="10" x="723.5" y="238.4063"/><rect fill="#FFFFFF" height="193.4551" style="stroke:#181818;stroke-width:1.0;" width="10" x="723.5" y="397.1914"/><rect fill="#FFFFFF" height="31.291" style="stroke:#181818;stroke-width:1.0;" width="10" x="957.5" y="428.4824"/><rect fill="#FFFFFF" height="14" style="stroke:#181818;stroke-width:1.0;" width="10" x="957.5" y="491.0645"/><rect fill="#FFFFFF" height="14" style="stroke:#181818;stroke-width:1.0;" width="10" x="957.5" y="536.3555"/><polygon fill="#181818" points="143,90.2031,153,94.2031,143,98.2031,147,94.2031" style="stroke:#181818;stroke-width:1.0;"/><line style="stroke:#181818;stroke-width:1.0;" x1="0" x2="149" y1="94.2031" y2="94.2031"/><text fill="#000000" font-family="sans-serif" font-size="13" lengthAdjust="spacing" textLength="136" x="9.5" y="88.9404">execute(commandText)</text><polygon fill="#181818" points="324,121.4941,334,125.4941,324,129.4941,328,125.4941" style="stroke:#181818;stroke-width:1.0;"/><line style="stroke:#181818;stroke-width:1.0;" x1="165" x2="330" y1="125.4941" y2="125.4941"/><text fill="#000000" font-family="sans-serif" font-size="13" lengthAdjust="spacing" textLength="152" x="174.5" y="120.2314">parseCommand(userInput)</text><polygon fill="#181818" points="431,135.4941,441,139.4941,431,143.4941,435,139.4941" style="stroke:#181818;stroke-width:1.0;"/><line style="stroke:#181818;stroke-width:1.0;" x1="346" x2="437" y1="139.4941" y2="139.4941"/><rect fill="#3333C4" height="32.6211" rx="2.5" ry="2.5" style="stroke:#181818;stroke-width:0.5;" width="183" x="443" y="133.4941"/><text fill="#FFFFFF" font-family="sans-serif" font-size="14" lengthAdjust="spacing" textLength="169" x="450" y="155.6016">:FindTaskCommandParser</text><polygon fill="#181818" points="357,179.1152,347,183.1152,357,187.1152,353,183.1152" style="stroke:#181818;stroke-width:1.0;"/><line style="stroke:#181818;stroke-width:1.0;" x1="351" x2="533.5" y1="183.1152" y2="183.1152"/><polygon fill="#181818" points="517.5,210.4063,527.5,214.4063,517.5,218.4063,521.5,214.4063" style="stroke:#181818;stroke-width:1.0;"/><line style="stroke:#181818;stroke-width:1.0;" x1="346" x2="523.5" y1="214.4063" y2="214.4063"/><text fill="#000000" font-family="sans-serif" font-size="13" lengthAdjust="spacing" textLength="65" x="405.25" y="209.1436">parse(args)</text><polygon fill="#181818" points="644,224.4063,654,228.4063,644,232.4063,648,228.4063" style="stroke:#181818;stroke-width:1.0;"/><line style="stroke:#181818;stroke-width:1.0;" x1="539.5" x2="650" y1="228.4063" y2="228.4063"/><rect fill="#3333C4" height="32.6211" rx="2.5" ry="2.5" style="stroke:#181818;stroke-width:0.5;" width="145" x="656" y="222.4063"/><text fill="#FFFFFF" font-family="sans-serif" font-size="14" lengthAdjust="spacing" textLength="131" x="663" y="244.5137">f:FindTaskCommand</text><polygon fill="#181818" points="550.5,285.3184,540.5,289.3184,550.5,293.3184,546.5,289.3184" style="stroke:#181818;stroke-width:1.0;"/><line style="stroke:#181818;stroke-width:1.0;stroke-dasharray:2.0,2.0;" x1="544.5" x2="727.5" y1="289.3184" y2="289.3184"/><text fill="#000000" font-family="sans-serif" font-size="13" lengthAdjust="spacing" textLength="3" x="632.5" y="284.0557">f</text><polygon fill="#181818" points="357,316.6094,347,320.6094,357,324.6094,353,320.6094" style="stroke:#181818;stroke-width:1.0;"/><line style="stroke:#181818;stroke-width:1.0;stroke-dasharray:2.0,2.0;" x1="351" x2="533.5" y1="320.6094" y2="320.6094"/><text fill="#000000" font-family="sans-serif" font-size="13" lengthAdjust="spacing" textLength="3" x="438.75" y="315.3467">f</text><line style="stroke:#A80036;stroke-width:2.0;" x1="525.5" x2="543.5" y1="325.6094" y2="343.6094"/><line style="stroke:#A80036;stroke-width:2.0;" x1="525.5" x2="543.5" y1="343.6094" y2="325.6094"/><polygon fill="#181818" points="176,361.9004,166,365.9004,176,369.9004,172,365.9004" style="stroke:#181818;stroke-width:1.0;"/><line style="stroke:#181818;stroke-width:1.0;stroke-dasharray:2.0,2.0;" x1="170" x2="340" y1="365.9004" y2="365.9004"/><text fill="#000000" font-family="sans-serif" font-size="13" lengthAdjust="spacing" textLength="3" x="251.5" y="360.6377">f</text><polygon fill="#181818" points="711.5,393.1914,721.5,397.1914,711.5,401.1914,715.5,397.1914" style="stroke:#181818;stroke-width:1.0;"/><line style="stroke:#181818;stroke-width:1.0;" x1="165" x2="717.5" y1="397.1914" y2="397.1914"/><text fill="#000000" font-family="sans-serif" font-size="13" lengthAdjust="spacing" textLength="210" x="339.25" y="391.9287">execute(model, officeConnectModel)</text><polygon fill="#181818" points="945.5,424.4824,955.5,428.4824,945.5,432.4824,949.5,428.4824" style="stroke:#181818;stroke-width:1.0;"/><line style="stroke:#181818;stroke-width:1.0;" x1="733.5" x2="951.5" y1="428.4824" y2="428.4824"/><text fill="#000000" font-family="sans-serif" font-size="13" lengthAdjust="spacing" textLength="131" x="780" y="423.2197">filterItemList(predicate)</text><polygon fill="#181818" points="744.5,455.7734,734.5,459.7734,744.5,463.7734,740.5,459.7734" style="stroke:#181818;stroke-width:1.0;"/><line style="stroke:#181818;stroke-width:1.0;stroke-dasharray:2.0,2.0;" x1="738.5" x2="961.5" y1="459.7734" y2="459.7734"/><text fill="#000000" font-family="sans-serif" font-size="13" lengthAdjust="spacing" textLength="169" x="763.5" y="454.5107">ObservableList&lt;AssignTask&gt;</text><polygon fill="#181818" points="945.5,487.0645,955.5,491.0645,945.5,495.0645,949.5,491.0645" style="stroke:#181818;stroke-width:1.0;"/><line style="stroke:#181818;stroke-width:1.0;" x1="733.5" x2="951.5" y1="491.0645" y2="491.0645"/><text fill="#000000" font-family="sans-serif" font-size="13" lengthAdjust="spacing" textLength="205" x="743" y="485.8018">updateFilteredPersonList(predicate)</text><polygon fill="#181818" points="744.5,501.0645,734.5,505.0645,744.5,509.0645,740.5,505.0645" style="stroke:#181818;stroke-width:1.0;"/><line style="stroke:#181818;stroke-width:1.0;stroke-dasharray:2.0,2.0;" x1="738.5" x2="961.5" y1="505.0645" y2="505.0645"/><polygon fill="#181818" points="945.5,532.3555,955.5,536.3555,945.5,540.3555,949.5,536.3555" style="stroke:#181818;stroke-width:1.0;"/><line style="stroke:#181818;stroke-width:1.0;" x1="733.5" x2="951.5" y1="536.3555" y2="536.3555"/><text fill="#000000" font-family="sans-serif" font-size="13" lengthAdjust="spacing" textLength="189" x="751" y="531.0928">updateFilteredItemList(predicate)</text><polygon fill="#181818" points="744.5,546.3555,734.5,550.3555,744.5,554.3555,740.5,550.3555" style="stroke:#181818;stroke-width:1.0;"/><line style="stroke:#181818;stroke-width:1.0;stroke-dasharray:2.0,2.0;" x1="738.5" x2="961.5" y1="550.3555" y2="550.3555"/><polygon fill="#181818" points="176,577.6465,166,581.6465,176,585.6465,172,581.6465" style="stroke:#181818;stroke-width:1.0;"/><line style="stroke:#181818;stroke-width:1.0;stroke-dasharray:2.0,2.0;" x1="170" x2="722.5" y1="581.6465" y2="581.6465"/><text fill="#000000" font-family="sans-serif" font-size="13" lengthAdjust="spacing" textLength="223" x="332.75" y="576.3838">CommandResult(successful message)</text><!--SRC=[jLHDRy8m3BtdLsISYZGcxOec9DQD2Qce276RfYaaBejeaoeV2FxzKc2iD2aV1qvDO_lv-TdE0nSqjmomDjiSdafRv0Wjv0OdSiafJjAFSVmTfqaw-vu_ev8emoalYJ2uqz-vJ8WWIr0TJ3IkNzH36t53nXHe_IhbQagKFWHxjsSGHbomET6hM1O54Qo64hIq8sLDg138IJYuVwVFNgGqopY5M0e1r4maWnnFqhVtf4qntt-NxpBCCMjlSA9o7yC6g3KGqJtNEMnC5n5g-9eOEF55wAG_3icNl8_Bwd0eFBBkRYnAMuVqWX2Y2YfBK7la9t6Pmwx7764p2ZStL0XYS0diUbv_gaH4BNNt8ikm6ktacuvj-5xzk7U6SNP6WbObMsOYkqBE5iJF7yuOYA-M9ccZvFQ63ZN6lyajC9lDcM_a-b-WejgxHoozNUpUqf51O9aTIPuRjqa6YeHh4vKA6ASEi0RjXo4KU1TweHBIXIjrJHOvLF0lGwtvKbGUWxeueGnNyhSbSmYZNHN0fg2q57Uev2vixwJwpLozb_jWcO6skOcqfTIDRcPpNBYlS-cYNm00]--></g></svg>