<?xml version="1.0" encoding="us-ascii" standalone="no"?>
<svg xmlns="http://www.w3.org/2000/svg" xmlns:xlink="http://www.w3.org/1999/xlink" contentStyleType="text/css"
     height="449px" preserveAspectRatio="none" style="width:947px;height:449px;background:#FFFFFF;" version="1.1"
     viewBox="0 0 947 449" width="947px" zoomAndPan="magnify">
    <defs/>
    <g>
        <ellipse cx="484" cy="20" fill="#222222" rx="10" ry="10" style="stroke:#222222;stroke-width:1.0;"/>
        <rect fill="#F1F1F1" height="36.3441" rx="12.5" ry="12.5" style="stroke:#181818;stroke-width:0.5;" width="126"
              x="421" y="50"/>
        <text fill="#000000" font-family="sans-serif" font-size="12" lengthAdjust="spacing" textLength="106" x="431"
              y="72.8281">User presses a key
        </text>
        <polygon fill="#F1F1F1"
                 points="258.5,106.3441,258.5,106.3441,270.5,118.3441,258.5,130.3441,258.5,130.3441,246.5,118.3441,258.5,106.3441"
                 style="stroke:#181818;stroke-width:0.5;"/>
        <text fill="#000000" font-family="sans-serif" font-size="11" lengthAdjust="spacing" textLength="88" x="262.5"
              y="142.103">[UP key pressed]
        </text>
        <rect fill="#F1F1F1" height="36.3441" rx="12.5" ry="12.5" style="stroke:#181818;stroke-width:0.5;" width="235"
              x="141" y="163.603"/>
        <text fill="#000000" font-family="sans-serif" font-size="12" lengthAdjust="spacing" textLength="215" x="151"
              y="186.4311">Checks for existing previous command
        </text>
        <polygon fill="#F1F1F1"
                 points="76,244.9471,76,244.9471,88,256.9471,76,268.9471,76,268.9471,64,256.9471,76,244.9471"
                 style="stroke:#181818;stroke-width:0.5;"/>
        <text fill="#000000" font-family="sans-serif" font-size="11" lengthAdjust="spacing" textLength="141" x="80"
              y="280.7061">[Previous command exists]
        </text>
        <rect fill="#F1F1F1" height="36.3441" rx="12.5" ry="12.5" style="stroke:#181818;stroke-width:0.5;" width="130"
              x="11" y="303.929"/>
        <text fill="#000000" font-family="sans-serif" font-size="12" lengthAdjust="spacing" textLength="110" x="21"
              y="326.7571">Sets text to textfield
        </text>
        <polygon fill="#F1F1F1"
                 points="314,244.9471,314,244.9471,326,256.9471,314,268.9471,314,268.9471,302,256.9471,314,244.9471"
                 style="stroke:#181818;stroke-width:0.5;"/>
        <text fill="#000000" font-family="sans-serif" font-size="11" lengthAdjust="spacing" textLength="142" x="318"
              y="280.7061">[Reached oldest command]
        </text>
        <text fill="#000000" font-family="sans-serif" font-size="11" lengthAdjust="spacing" textLength="28" x="326"
              y="253.7242">[else]
        </text>
        <rect fill="#F1F1F1" height="52.6882" rx="12.5" ry="12.5" style="stroke:#181818;stroke-width:0.5;" width="154"
              x="237" y="303.929"/>
        <text fill="#000000" font-family="sans-serif" font-size="12" lengthAdjust="spacing" textLength="134" x="247"
              y="326.7571">Text in textfield remains
        </text>
        <text fill="#000000" font-family="sans-serif" font-size="12" lengthAdjust="spacing" textLength="130" x="247"
              y="343.1012">as the oldest command
        </text>
        <polygon fill="#F1F1F1"
                 points="601,106.3441,601,106.3441,613,118.3441,601,130.3441,601,130.3441,589,118.3441,601,106.3441"
                 style="stroke:#181818;stroke-width:0.5;"/>
        <text fill="#000000" font-family="sans-serif" font-size="11" lengthAdjust="spacing" textLength="108" x="605"
              y="142.103">[DOWN key pressed]
        </text>
        <rect fill="#F1F1F1" height="36.3441" rx="12.5" ry="12.5" style="stroke:#181818;stroke-width:0.5;" width="120"
              x="541" y="163.603"/>
        <text fill="#000000" font-family="sans-serif" font-size="12" lengthAdjust="spacing" textLength="100" x="551"
              y="186.4311">Checks for history
        </text>
        <rect fill="#F1F1F1" height="36.3441" rx="12.5" ry="12.5" style="stroke:#181818;stroke-width:0.5;" width="130"
              x="536" y="269.4381"/>
        <text fill="#000000" font-family="sans-serif" font-size="12" lengthAdjust="spacing" textLength="110" x="546"
              y="292.2662">Sets text to textfield
        </text>
        <polygon fill="#F1F1F1"
                 points="601,219.9471,601,219.9471,613,231.9471,601,243.9471,601,243.9471,589,231.9471,601,219.9471"
                 style="stroke:#181818;stroke-width:0.5;"/>
        <text fill="#000000" font-family="sans-serif" font-size="11" lengthAdjust="spacing" textLength="129" x="605"
              y="255.7061">[Newer command exists]
        </text>
        <text fill="#000000" font-family="sans-serif" font-size="11" lengthAdjust="spacing" textLength="28" x="613"
              y="228.7242">[else]
        </text>
        <polygon fill="#F1F1F1" points="601,331.2731,613,343.2731,601,355.2731,589,343.2731,601,331.2731"
                 style="stroke:#181818;stroke-width:0.5;"/>
        <polygon fill="#F1F1F1"
                 points="818,106.3441,818,106.3441,830,118.3441,818,130.3441,818,130.3441,806,118.3441,818,106.3441"
                 style="stroke:#181818;stroke-width:0.5;"/>
        <text fill="#000000" font-family="sans-serif" font-size="11" lengthAdjust="spacing" textLength="28" x="822"
              y="142.103">[else]
        </text>
        <text fill="#000000" font-family="sans-serif" font-size="11" lengthAdjust="spacing" textLength="3" x="830"
              y="115.1211">&#160;
        </text>
        <rect fill="#F1F1F1" height="36.3441" rx="12.5" ry="12.5" style="stroke:#181818;stroke-width:0.5;" width="178"
              x="729" y="163.603"/>
        <text fill="#000000" font-family="sans-serif" font-size="12" lengthAdjust="spacing" textLength="158" x="739"
              y="186.4311">Other keys work as intended
        </text>
        <ellipse cx="484" cy="427.6173" fill="none" rx="11" ry="11" style="stroke:#222222;stroke-width:1.0;"/>
        <ellipse cx="484" cy="427.6173" fill="#222222" rx="6" ry="6" style="stroke:#111111;stroke-width:1.0;"/>
        <line style="stroke:#181818;stroke-width:1.0;" x1="484" x2="484" y1="30" y2="50"/>
        <polygon fill="#181818" points="480,40,484,50,488,40,484,44" style="stroke:#181818;stroke-width:1.0;"/>
        <line style="stroke:#181818;stroke-width:1.0;" x1="76" x2="76" y1="268.9471" y2="303.929"/>
        <polygon fill="#181818" points="72,293.929,76,303.929,80,293.929,76,297.929"
                 style="stroke:#181818;stroke-width:1.0;"/>
        <line style="stroke:#181818;stroke-width:1.0;" x1="76" x2="76" y1="340.2731" y2="376.6173"/>
        <polygon fill="#181818" points="72,366.6173,76,376.6173,80,366.6173,76,370.6173"
                 style="stroke:#181818;stroke-width:1.0;"/>
        <line style="stroke:#181818;stroke-width:1.0;" x1="314" x2="314" y1="268.9471" y2="303.929"/>
        <polygon fill="#181818" points="310,293.929,314,303.929,318,293.929,314,297.929"
                 style="stroke:#181818;stroke-width:1.0;"/>
        <line style="stroke:#181818;stroke-width:1.0;" x1="314" x2="314" y1="356.6173" y2="376.6173"/>
        <polygon fill="#181818" points="310,366.6173,314,376.6173,318,366.6173,314,370.6173"
                 style="stroke:#181818;stroke-width:1.0;"/>
        <line style="stroke:#181818;stroke-width:1.0;" x1="88" x2="302" y1="256.9471" y2="256.9471"/>
        <polygon fill="#181818" points="292,252.9471,302,256.9471,292,260.9471,296,256.9471"
                 style="stroke:#181818;stroke-width:1.0;"/>
        <line style="stroke:#181818;stroke-width:1.0;" x1="258.5" x2="258.5" y1="199.9471" y2="219.9471"/>
        <line style="stroke:#181818;stroke-width:1.0;" x1="258.5" x2="76" y1="219.9471" y2="219.9471"/>
        <line style="stroke:#181818;stroke-width:1.0;" x1="76" x2="76" y1="219.9471" y2="244.9471"/>
        <polygon fill="#181818" points="72,234.9471,76,244.9471,80,234.9471,76,238.9471"
                 style="stroke:#181818;stroke-width:1.0;"/>
        <line style="stroke:#181818;stroke-width:1.0;" x1="326" x2="491" y1="256.9471" y2="256.9471"/>
        <line style="stroke:#181818;stroke-width:1.0;" x1="491" x2="491" y1="256.9471" y2="376.6173"/>
        <polygon fill="#181818" points="487,366.6173,491,376.6173,495,366.6173,491,370.6173"
                 style="stroke:#181818;stroke-width:1.0;"/>
        <line style="stroke:#181818;stroke-width:1.0;" x1="76" x2="491" y1="376.6173" y2="376.6173"/>
        <line style="stroke:#181818;stroke-width:1.0;" x1="601" x2="601" y1="243.9471" y2="269.4381"/>
        <polygon fill="#181818" points="597,259.4381,601,269.4381,605,259.4381,601,263.4381"
                 style="stroke:#181818;stroke-width:1.0;"/>
        <line style="stroke:#181818;stroke-width:1.0;" x1="613" x2="676" y1="231.9471" y2="231.9471"/>
        <polygon fill="#181818" points="672,277.6101,676,287.6101,680,277.6101,676,281.6101"
                 style="stroke:#181818;stroke-width:1.0;"/>
        <line style="stroke:#181818;stroke-width:1.0;" x1="676" x2="676" y1="231.9471" y2="343.2731"/>
        <line style="stroke:#181818;stroke-width:1.0;" x1="676" x2="613" y1="343.2731" y2="343.2731"/>
        <polygon fill="#181818" points="623,339.2731,613,343.2731,623,347.2731,619,343.2731"
                 style="stroke:#181818;stroke-width:1.0;"/>
        <line style="stroke:#181818;stroke-width:1.0;" x1="601" x2="601" y1="305.7822" y2="331.2731"/>
        <polygon fill="#181818" points="597,321.2731,601,331.2731,605,321.2731,601,325.2731"
                 style="stroke:#181818;stroke-width:1.0;"/>
        <line style="stroke:#181818;stroke-width:1.0;" x1="601" x2="601" y1="199.9471" y2="219.9471"/>
        <polygon fill="#181818" points="597,209.9471,601,219.9471,605,209.9471,601,213.9471"
                 style="stroke:#181818;stroke-width:1.0;"/>
        <line style="stroke:#181818;stroke-width:1.0;" x1="258.5" x2="258.5" y1="130.3441" y2="163.603"/>
        <polygon fill="#181818" points="254.5,153.603,258.5,163.603,262.5,153.603,258.5,157.603"
                 style="stroke:#181818;stroke-width:1.0;"/>
        <line style="stroke:#181818;stroke-width:1.0;" x1="258.5" x2="258.5" y1="376.6173" y2="396.6173"/>
        <polygon fill="#181818" points="254.5,386.6173,258.5,396.6173,262.5,386.6173,258.5,390.6173"
                 style="stroke:#181818;stroke-width:1.0;"/>
        <line style="stroke:#181818;stroke-width:1.0;" x1="601" x2="601" y1="130.3441" y2="163.603"/>
        <polygon fill="#181818" points="597,153.603,601,163.603,605,153.603,601,157.603"
                 style="stroke:#181818;stroke-width:1.0;"/>
        <line style="stroke:#181818;stroke-width:1.0;" x1="601" x2="601" y1="355.2731" y2="396.6173"/>
        <polygon fill="#181818" points="597,386.6173,601,396.6173,605,386.6173,601,390.6173"
                 style="stroke:#181818;stroke-width:1.0;"/>
        <line style="stroke:#181818;stroke-width:1.0;" x1="818" x2="818" y1="130.3441" y2="163.603"/>
        <polygon fill="#181818" points="814,153.603,818,163.603,822,153.603,818,157.603"
                 style="stroke:#181818;stroke-width:1.0;"/>
        <line style="stroke:#181818;stroke-width:1.0;" x1="818" x2="818" y1="199.9471" y2="396.6173"/>
        <polygon fill="#181818" points="814,386.6173,818,396.6173,822,386.6173,818,390.6173"
                 style="stroke:#181818;stroke-width:1.0;"/>
        <line style="stroke:#181818;stroke-width:1.0;" x1="270.5" x2="589" y1="118.3441" y2="118.3441"/>
        <polygon fill="#181818" points="579,114.3441,589,118.3441,579,122.3441,583,118.3441"
                 style="stroke:#181818;stroke-width:1.0;"/>
        <line style="stroke:#181818;stroke-width:1.0;" x1="613" x2="806" y1="118.3441" y2="118.3441"/>
        <polygon fill="#181818" points="796,114.3441,806,118.3441,796,122.3441,800,118.3441"
                 style="stroke:#181818;stroke-width:1.0;"/>
        <line style="stroke:#181818;stroke-width:1.0;" x1="484" x2="484" y1="86.3441" y2="91.3441"/>
        <line style="stroke:#181818;stroke-width:1.0;" x1="484" x2="258.5" y1="91.3441" y2="91.3441"/>
        <line style="stroke:#181818;stroke-width:1.0;" x1="258.5" x2="258.5" y1="91.3441" y2="106.3441"/>
        <polygon fill="#181818" points="254.5,96.3441,258.5,106.3441,262.5,96.3441,258.5,100.3441"
                 style="stroke:#181818;stroke-width:1.0;"/>
        <line style="stroke:#181818;stroke-width:1.0;" x1="830" x2="921" y1="118.3441" y2="118.3441"/>
        <line style="stroke:#181818;stroke-width:1.0;" x1="921" x2="921" y1="118.3441" y2="396.6173"/>
        <polygon fill="#181818" points="917,386.6173,921,396.6173,925,386.6173,921,390.6173"
                 style="stroke:#181818;stroke-width:1.0;"/>
        <line style="stroke:#181818;stroke-width:1.0;" x1="258.5" x2="921" y1="396.6173" y2="396.6173"/>
        <line style="stroke:#181818;stroke-width:1.0;" x1="484" x2="484" y1="396.6173" y2="416.6173"/>
        <polygon fill="#181818" points="480,406.6173,484,416.6173,488,406.6173,484,410.6173"
                 style="stroke:#181818;stroke-width:1.0;"/><!--SRC=[bP39RiCm34Jl-WeUxLzmZkqv2Te6FHGv2DQu5cnBWSXc-VjINf051OBgGaWQFWw7nIOnrOwHw93032PB7IuhunigIf8MWOgltJO_pXAtBmtfgLvQr1rJ4nFXx5by-CwIeuy_J7KS1XlSQfJUmROFagcP5-exX4bm5f8uriQZLyxuYvvn1tk3hLiuYhq3ou9SM1yPuyCLGmc3zO77RykPyj1wCqZnkSmm1ESRCncupd_TVAwVPDFgTZ5T_aXYZPC6_xyOdfkx6J0hgetUKxR9T8gfovlx8De49MPHKPe9eLOFlm00]-->
    </g>
</svg>
