<?xml version="1.0" encoding="UTF-8" standalone="no"?><svg xmlns="http://www.w3.org/2000/svg" xmlns:xlink="http://www.w3.org/1999/xlink" contentStyleType="text/css" height="353px" preserveAspectRatio="none" style="width:327px;height:353px;background:#FFFFFF;" version="1.1" viewBox="0 0 327 353" width="327px" zoomAndPan="magnify"><defs/><g><ellipse cx="163.5" cy="20" fill="#222222" rx="10" ry="10" style="stroke:#222222;stroke-width:1.0;"/><rect fill="#F1F1F1" height="34.1328" rx="12.5" ry="12.5" style="stroke:#181818;stroke-width:0.5;" width="205" x="61" y="50"/><text fill="#000000" font-family="sans-serif" font-size="12" lengthAdjust="spacing" textLength="185" x="71" y="71.6016">User executes ListXYZCommand</text><rect fill="#F1F1F1" height="34.1328" rx="12.5" ry="12.5" style="stroke:#181818;stroke-width:0.5;" width="155" x="86" y="104.1328"/><text fill="#000000" font-family="sans-serif" font-size="12" lengthAdjust="spacing" textLength="135" x="96" y="125.7344">Retrieve FilteredXYZList</text><rect fill="#F1F1F1" height="34.1328" rx="12.5" ry="12.5" style="stroke:#181818;stroke-width:0.5;" width="305" x="11" y="158.2656"/><text fill="#000000" font-family="sans-serif" font-size="12" lengthAdjust="spacing" textLength="285" x="21" y="179.8672">FilteredXYZList is updated to have all XYZ objects</text><rect fill="#F1F1F1" height="34.1328" rx="12.5" ry="12.5" style="stroke:#181818;stroke-width:0.5;" width="186" x="70.5" y="212.3984"/><text fill="#000000" font-family="sans-serif" font-size="12" lengthAdjust="spacing" textLength="166" x="80.5" y="234">XYZList is shown to the users</text><rect fill="#F1F1F1" height="34.1328" rx="12.5" ry="12.5" style="stroke:#181818;stroke-width:0.5;" width="186" x="70.5" y="266.5313"/><text fill="#000000" font-family="sans-serif" font-size="12" lengthAdjust="spacing" textLength="166" x="80.5" y="288.1328">Success message is returned</text><ellipse cx="163.5" cy="331.6641" fill="none" rx="11" ry="11" style="stroke:#222222;stroke-width:1.0;"/><ellipse cx="163.5" cy="331.6641" fill="#222222" rx="6" ry="6" style="stroke:#111111;stroke-width:1.0;"/><line style="stroke:#181818;stroke-width:1.0;" x1="163.5" x2="163.5" y1="30" y2="50"/><polygon fill="#181818" points="159.5,40,163.5,50,167.5,40,163.5,44" style="stroke:#181818;stroke-width:1.0;"/><line style="stroke:#181818;stroke-width:1.0;" x1="163.5" x2="163.5" y1="84.1328" y2="104.1328"/><polygon fill="#181818" points="159.5,94.1328,163.5,104.1328,167.5,94.1328,163.5,98.1328" style="stroke:#181818;stroke-width:1.0;"/><line style="stroke:#181818;stroke-width:1.0;" x1="163.5" x2="163.5" y1="138.2656" y2="158.2656"/><polygon fill="#181818" points="159.5,148.2656,163.5,158.2656,167.5,148.2656,163.5,152.2656" style="stroke:#181818;stroke-width:1.0;"/><line style="stroke:#181818;stroke-width:1.0;" x1="163.5" x2="163.5" y1="192.3984" y2="212.3984"/><polygon fill="#181818" points="159.5,202.3984,163.5,212.3984,167.5,202.3984,163.5,206.3984" style="stroke:#181818;stroke-width:1.0;"/><line style="stroke:#181818;stroke-width:1.0;" x1="163.5" x2="163.5" y1="246.5313" y2="266.5313"/><polygon fill="#181818" points="159.5,256.5313,163.5,266.5313,167.5,256.5313,163.5,260.5313" style="stroke:#181818;stroke-width:1.0;"/><line style="stroke:#181818;stroke-width:1.0;" x1="163.5" x2="163.5" y1="300.6641" y2="320.6641"/><polygon fill="#181818" points="159.5,310.6641,163.5,320.6641,167.5,310.6641,163.5,314.6641" style="stroke:#181818;stroke-width:1.0;"/><!--MD5=[3600fc3a7826faa11e6911651936ad5e]
@startuml
!include style.puml

 start
 :User executes ListXYZCommand;
 :Retrieve FilteredXYZList;
 :FilteredXYZList is updated to have all XYZ objects;
 :XYZList is shown to the users;
 :Success message is returned;
 stop
 @enduml

@startuml









skinparam BackgroundColor #FFFFFFF

skinparam Shadowing false

skinparam Class {
    FontColor #FFFFFF
    BorderThickness 0
    FontName Arial
}

skinparam Actor {
    BorderColor #000000
    Color #000000
    FontName Arial
}

skinparam Sequence {
    MessageAlign center
    BoxFontSize 15
    BoxPadding 0
    BoxFontColor #FFFFFF
    FontName Arial
}

skinparam Participant {
    FontColor #FFFFFFF
    Padding 20
}

skinparam MinClassWidth 50
skinparam ParticipantPadding 10
skinparam Shadowing false
skinparam DefaultTextAlignment center
skinparam packageStyle Rectangle

hide footbox
hide members
hide circle

 start
 :User executes ListXYZCommand;
 :Retrieve FilteredXYZList;
 :FilteredXYZList is updated to have all XYZ objects;
 :XYZList is shown to the users;
 :Success message is returned;
 stop
 @enduml

PlantUML version 1.2022.7(Tue Aug 23 01:01:30 SGT 2022)
(GPL source distribution)
Java Runtime: OpenJDK Runtime Environment
JVM: OpenJDK 64-Bit Server VM
Default Encoding: UTF-8
Language: en
Country: SG
--></g></svg>
