<?xml version="1.0" encoding="UTF-8" standalone="no"?><svg xmlns="http://www.w3.org/2000/svg" xmlns:xlink="http://www.w3.org/1999/xlink" contentStyleType="text/css" height="245px" preserveAspectRatio="none" style="width:227px;height:245px;background:#FFFFFF;" version="1.1" viewBox="0 0 227 245" width="227px" zoomAndPan="magnify"><defs/><g><ellipse cx="113.5" cy="20" fill="#222222" rx="10" ry="10" style="stroke:#222222;stroke-width:1.0;"/><rect fill="#F1F1F1" height="34.1328" rx="12.5" ry="12.5" style="stroke:#181818;stroke-width:0.5;" width="205" x="11" y="50"/><text fill="#000000" font-family="sans-serif" font-size="12" lengthAdjust="spacing" textLength="185" x="21" y="71.6016">User executes ListXYZCommand</text><rect fill="#F1F1F1" height="34.1328" rx="12.5" ry="12.5" style="stroke:#181818;stroke-width:0.5;" width="155" x="36" y="104.1328"/><text fill="#000000" font-family="sans-serif" font-size="12" lengthAdjust="spacing" textLength="135" x="46" y="125.7344">Retrieve FilteredXYZList</text><rect fill="#F1F1F1" height="34.1328" rx="12.5" ry="12.5" style="stroke:#181818;stroke-width:0.5;" width="186" x="20.5" y="158.2656"/><text fill="#000000" font-family="sans-serif" font-size="12" lengthAdjust="spacing" textLength="166" x="30.5" y="179.8672">Success message is returned</text><ellipse cx="113.5" cy="223.3984" fill="none" rx="11" ry="11" style="stroke:#222222;stroke-width:1.0;"/><ellipse cx="113.5" cy="223.3984" fill="#222222" rx="6" ry="6" style="stroke:#111111;stroke-width:1.0;"/><line style="stroke:#181818;stroke-width:1.0;" x1="113.5" x2="113.5" y1="30" y2="50"/><polygon fill="#181818" points="109.5,40,113.5,50,117.5,40,113.5,44" style="stroke:#181818;stroke-width:1.0;"/><line style="stroke:#181818;stroke-width:1.0;" x1="113.5" x2="113.5" y1="84.1328" y2="104.1328"/><polygon fill="#181818" points="109.5,94.1328,113.5,104.1328,117.5,94.1328,113.5,98.1328" style="stroke:#181818;stroke-width:1.0;"/><line style="stroke:#181818;stroke-width:1.0;" x1="113.5" x2="113.5" y1="138.2656" y2="158.2656"/><polygon fill="#181818" points="109.5,148.2656,113.5,158.2656,117.5,148.2656,113.5,152.2656" style="stroke:#181818;stroke-width:1.0;"/><line style="stroke:#181818;stroke-width:1.0;" x1="113.5" x2="113.5" y1="192.3984" y2="212.3984"/><polygon fill="#181818" points="109.5,202.3984,113.5,212.3984,117.5,202.3984,113.5,206.3984" style="stroke:#181818;stroke-width:1.0;"/><!--MD5=[54e0f3f1e3fd6eaacce65d4f9641afa5]
@startuml

 start
 :User executes ListXYZCommand;
 :Retrieve FilteredXYZList;
 :Success message is returned;
 stop
 @enduml

PlantUML version 1.2022.7(Tue Aug 23 01:01:30 SGT 2022)
(GPL source distribution)
Java Runtime: OpenJDK Runtime Environment
JVM: OpenJDK 64-Bit Server VM
Default Encoding: UTF-8
Language: en
Country: SG

--></g></svg>
