<?xml version="1.0" encoding="UTF-8" standalone="no"?><svg xmlns="http://www.w3.org/2000/svg" xmlns:xlink="http://www.w3.org/1999/xlink" contentStyleType="text/css" height="285px" preserveAspectRatio="none" style="width:690px;height:285px;background:#FFFFFF;" version="1.1" viewBox="0 0 690 285" width="690px" zoomAndPan="magnify"><defs/><g><rect fill="#E6EFF9" height="266.8398" style="stroke:#181818;stroke-width:0.5;" width="488" x="1" y="6"/><text fill="#FFFFFF" font-family="sans-serif" font-size="13" font-weight="bold" lengthAdjust="spacing" textLength="36" x="225" y="18.5684">Logic</text><rect fill="#FFF5E7" height="266.8398" style="stroke:#181818;stroke-width:0.5;" width="99" x="491" y="6"/><text fill="#FFFFFF" font-family="sans-serif" font-size="13" font-weight="bold" lengthAdjust="spacing" textLength="51" x="513" y="18.5684">Storage</text><rect fill="#FBEAE7" height="266.8398" style="stroke:#181818;stroke-width:0.5;" width="92" x="592" y="6"/><text fill="#FFFFFF" font-family="sans-serif" font-size="13" font-weight="bold" lengthAdjust="spacing" textLength="41" x="615.5" y="18.5684">Model</text><rect fill="#FFFFFF" height="203.041" style="stroke:#181818;stroke-width:1.0;" width="10" x="67" y="66.7988"/><rect fill="#FFFFFF" height="100.1094" style="stroke:#181818;stroke-width:1.0;" width="10" x="215" y="88.1094"/><rect fill="#FFFFFF" height="46.7988" style="stroke:#181818;stroke-width:1.0;" width="10" x="388" y="112.1094"/><rect fill="#FFFFFF" height="14" style="stroke:#181818;stroke-width:1.0;" width="10" x="535.5" y="217.5293"/><rect fill="#FFFFFF" height="9" style="stroke:#181818;stroke-width:1.0;" width="10" x="633" y="260.8398"/><line style="stroke:#181818;stroke-width:0.5;stroke-dasharray:5.0,5.0;" x1="72" x2="72" y1="56.7988" y2="278.8398"/><line style="stroke:#181818;stroke-width:0.5;stroke-dasharray:5.0,5.0;" x1="220" x2="220" y1="56.7988" y2="278.8398"/><line style="stroke:#181818;stroke-width:0.5;stroke-dasharray:5.0,5.0;" x1="393" x2="393" y1="126.8535" y2="278.8398"/><line style="stroke:#181818;stroke-width:0.5;stroke-dasharray:5.0,5.0;" x1="540" x2="540" y1="56.7988" y2="278.8398"/><line style="stroke:#181818;stroke-width:0.5;stroke-dasharray:5.0,5.0;" x1="638" x2="638" y1="56.7988" y2="278.8398"/><rect fill="#005EC4" height="30.4883" rx="2.5" ry="2.5" style="stroke:#181818;stroke-width:0.5;" width="114" x="15" y="25.3105"/><text fill="#FFFFFF" font-family="sans-serif" font-size="14" lengthAdjust="spacing" textLength="100" x="22" y="45.8457">:LogicManager</text><rect fill="#005EC4" height="30.4883" rx="2.5" ry="2.5" style="stroke:#181818;stroke-width:0.5;" width="122" x="159" y="25.3105"/><text fill="#FFFFFF" font-family="sans-serif" font-size="14" lengthAdjust="spacing" textLength="108" x="166" y="45.8457">:LoadCommand</text><rect fill="#FA9E0D" height="30.4883" rx="2.5" ry="2.5" style="stroke:#181818;stroke-width:0.5;" width="71" x="505" y="25.3105"/><text fill="#FFFFFF" font-family="sans-serif" font-size="14" lengthAdjust="spacing" textLength="57" x="512" y="45.8457">:Storage</text><rect fill="#D42E12" height="30.4883" rx="2.5" ry="2.5" style="stroke:#181818;stroke-width:0.5;" width="64" x="606" y="25.3105"/><text fill="#FFFFFF" font-family="sans-serif" font-size="14" lengthAdjust="spacing" textLength="46" x="615" y="45.8457">:Model</text><rect fill="#FFFFFF" height="203.041" style="stroke:#181818;stroke-width:1.0;" width="10" x="67" y="66.7988"/><rect fill="#FFFFFF" height="100.1094" style="stroke:#181818;stroke-width:1.0;" width="10" x="215" y="88.1094"/><rect fill="#FFFFFF" height="46.7988" style="stroke:#181818;stroke-width:1.0;" width="10" x="388" y="112.1094"/><rect fill="#FFFFFF" height="14" style="stroke:#181818;stroke-width:1.0;" width="10" x="535.5" y="217.5293"/><rect fill="#FFFFFF" height="9" style="stroke:#181818;stroke-width:1.0;" width="10" x="633" y="260.8398"/><polygon fill="#181818" points="203,84.1094,213,88.1094,203,92.1094,207,88.1094" style="stroke:#181818;stroke-width:1.0;"/><line style="stroke:#181818;stroke-width:1.0;" x1="77" x2="209" y1="88.1094" y2="88.1094"/><text fill="#000000" font-family="sans-serif" font-size="13" lengthAdjust="spacing" textLength="49" x="121.5" y="83.3672">execute</text><polygon fill="#181818" points="299,98.1094,309,102.1094,299,106.1094,303,102.1094" style="stroke:#181818;stroke-width:1.0;"/><line style="stroke:#181818;stroke-width:1.0;" x1="225" x2="305" y1="102.1094" y2="102.1094"/><rect fill="#005EC4" height="30.4883" rx="2.5" ry="2.5" style="stroke:#181818;stroke-width:0.5;" width="164" x="311" y="96.1094"/><text fill="#FFFFFF" font-family="sans-serif" font-size="14" lengthAdjust="spacing" textLength="150" x="318" y="116.6445">:LoadCommandResult</text><polygon fill="#181818" points="236,154.9082,226,158.9082,236,162.9082,232,158.9082" style="stroke:#181818;stroke-width:1.0;"/><line style="stroke:#181818;stroke-width:1.0;stroke-dasharray:2.0,2.0;" x1="230" x2="392" y1="158.9082" y2="158.9082"/><text fill="#000000" font-family="sans-serif" font-size="13" lengthAdjust="spacing" textLength="47" x="285.5" y="154.166">filePath</text><polygon fill="#181818" points="88,184.2188,78,188.2188,88,192.2188,84,188.2188" style="stroke:#181818;stroke-width:1.0;"/><line style="stroke:#181818;stroke-width:1.0;stroke-dasharray:2.0,2.0;" x1="82" x2="219" y1="188.2188" y2="188.2188"/><text fill="#000000" font-family="sans-serif" font-size="13" lengthAdjust="spacing" textLength="47" x="125" y="183.4766">filePath</text><polygon fill="#181818" points="523.5,213.5293,533.5,217.5293,523.5,221.5293,527.5,217.5293" style="stroke:#181818;stroke-width:1.0;"/><line style="stroke:#181818;stroke-width:1.0;" x1="77" x2="529.5" y1="217.5293" y2="217.5293"/><text fill="#000000" font-family="sans-serif" font-size="13" lengthAdjust="spacing" textLength="135" x="238.75" y="212.7871">loadEduMate(filePath)</text><polygon fill="#181818" points="88,227.5293,78,231.5293,88,235.5293,84,231.5293" style="stroke:#181818;stroke-width:1.0;"/><line style="stroke:#181818;stroke-width:1.0;stroke-dasharray:2.0,2.0;" x1="82" x2="539.5" y1="231.5293" y2="231.5293"/><polygon fill="#181818" points="621,256.8398,631,260.8398,621,264.8398,625,260.8398" style="stroke:#181818;stroke-width:1.0;"/><line style="stroke:#181818;stroke-width:1.0;" x1="77" x2="627" y1="260.8398" y2="260.8398"/><text fill="#000000" font-family="sans-serif" font-size="13" lengthAdjust="spacing" textLength="72" x="319" y="256.0977">setEduMate</text><!--SRC=[ZP5DReCm48NtSuffLkqYFG2BIYb1g2hK5MdNaMjFKqlcHs2gzFP5OC26ICdIC-zzppDpfmgXMqdOc3zDZrMRQu2lyen9UL824nQ_XCUG9ImxFk_2rpXZdszxg7Xjb50LBmnkWbwQyeAVgDuWRz0jk8YLZykmp7DUI6kRthUvCcfQRPRUeUeHg2DsGmsJ7KnPTp_3mmVBTd5qRJehxrCkMdrwMahIcB9zb5mZzzAUkpBDJ2wC-kM6lAK2U2lUFdcx2v3E95f3hdbg0uYQ5hLXPU12VAOLNEBP5gmli5tzwrjfUkVc1oJTYB8GPzYhbFLonhC5g3jP9DkqizoFc8TvB2i461tBT3To4Y_ZXci6s92nMND2tuD_]--></g></svg>
