<?xml version="1.0" encoding="UTF-8" standalone="no"?><svg xmlns="http://www.w3.org/2000/svg" xmlns:xlink="http://www.w3.org/1999/xlink" contentStyleType="text/css" height="329px" preserveAspectRatio="none" style="width:522px;height:329px;background:#FFFFFF;" version="1.1" viewBox="0 0 522 329" width="522px" zoomAndPan="magnify"><defs/><g><!--MD5=[44a1b4afaef76c16e6c9ec4990ad0c8d]
class Item--><g id="elem_Item"><rect codeLine="9" fill="#9D0012" height="42.1973" id="Item" rx="2.5" ry="2.5" style="stroke:#181818;stroke-width:0.0;" width="67" x="367.5" y="7"/><text fill="#FFFFFF" font-family="Arial" font-size="14" font-style="italic" lengthAdjust="spacing" textLength="61" x="370.5" y="25.1318">{abstract}</text><text fill="#FFFFFF" font-family="Arial" font-size="14" font-style="italic" lengthAdjust="spacing" textLength="28" x="387" y="41.2305">Item</text></g><!--MD5=[53f6a92bd21ca2f2960392a061f3a1c6]
class Name--><g id="elem_Name"><rect codeLine="10" fill="#9D0012" height="42.1973" id="Name" rx="2.5" ry="2.5" style="stroke:#181818;stroke-width:0.0;" width="67" x="445.5" y="281"/><text fill="#FFFFFF" font-family="Arial" font-size="14" font-style="italic" lengthAdjust="spacing" textLength="61" x="448.5" y="299.1318">{abstract}</text><text fill="#FFFFFF" font-family="Arial" font-size="14" font-style="italic" lengthAdjust="spacing" textLength="38" x="460" y="315.2305">Name</text></g><!--MD5=[0413c2967cbcbb9b55cfe9d1f30bae3b]
class UniqueItemList--><g id="elem_UniqueItemList"><rect codeLine="11" fill="#9D0012" height="26.0986" id="UniqueItemList" rx="2.5" ry="2.5" style="stroke:#181818;stroke-width:0.0;" width="130" x="202" y="15"/><text fill="#FFFFFF" font-family="Arial" font-size="14" lengthAdjust="spacing" textLength="120" x="205" y="33.1318">UniqueItemList&lt;T&gt;</text></g><!--MD5=[a7724e71618d3dacaca1ec2d24889dc2]
class ItemList--><g id="elem_ItemList"><rect codeLine="12" fill="#9D0012" height="26.0986" id="ItemList" rx="2.5" ry="2.5" style="stroke:#181818;stroke-width:0.0;" width="147" x="19.5" y="15"/><text fill="#FFFFFF" font-family="Arial" font-size="14" lengthAdjust="spacing" textLength="50" x="22.5" y="33.1318">ItemList</text><rect fill="#FFFFFF" height="16.1328" style="stroke:#181818;stroke-width:1.0;stroke-dasharray:2.0,2.0;" width="89" x="80.5" y="12"/><text fill="#000000" font-family="sans-serif" font-size="12" font-style="italic" lengthAdjust="spacing" textLength="87" x="81.5" y="24.6016">T extends Item</text></g><!--MD5=[27eb0c30e65d8b262e52e99e862b6c6e]
class MenuItem--><g id="elem_MenuItem"><rect codeLine="15" fill="#9D0012" height="26.0986" id="MenuItem" rx="2.5" ry="2.5" style="stroke:#181818;stroke-width:0.0;" width="70" x="366" y="109"/><text fill="#FFFFFF" font-family="Arial" font-size="14" lengthAdjust="spacing" textLength="64" x="369" y="127.1318">MenuItem</text></g><!--MD5=[05e465591b47418dc8ab9c1f29ea3be6]
class ItemSellingPrice--><g id="elem_ItemSellingPrice"><rect codeLine="23" fill="#9D0012" height="26.0986" id="ItemSellingPrice" rx="2.5" ry="2.5" style="stroke:#181818;stroke-width:0.0;" width="108" x="126" y="195"/><text fill="#FFFFFF" font-family="Arial" font-size="14" lengthAdjust="spacing" textLength="102" x="129" y="213.1318">ItemSellingPrice</text></g><!--MD5=[169e249786b12d4cb6fbbbd9573003c8]
class ItemProfit--><g id="elem_ItemProfit"><rect codeLine="17" fill="#9D0012" height="26.0986" id="ItemProfit" rx="2.5" ry="2.5" style="stroke:#181818;stroke-width:0.0;" width="67" x="269.5" y="195"/><text fill="#FFFFFF" font-family="Arial" font-size="14" lengthAdjust="spacing" textLength="61" x="272.5" y="213.1318">ItemProfit</text></g><!--MD5=[f2b754cb406138a691b0a92760c16c3d]
class ItemPrice--><g id="elem_ItemPrice"><rect codeLine="18" fill="#9D0012" height="26.0986" id="ItemPrice" rx="2.5" ry="2.5" style="stroke:#181818;stroke-width:0.0;" width="66" x="7" y="109"/><text fill="#FFFFFF" font-family="Arial" font-size="14" lengthAdjust="spacing" textLength="60" x="10" y="127.1318">ItemPrice</text></g><!--MD5=[b69496c65f41c32e01d9c6b8a041c2c4]
class ItemCost--><g id="elem_ItemCost"><rect codeLine="24" fill="#9D0012" height="26.0986" id="ItemCost" rx="2.5" ry="2.5" style="stroke:#181818;stroke-width:0.0;" width="63" x="271.5" y="289"/><text fill="#FFFFFF" font-family="Arial" font-size="14" lengthAdjust="spacing" textLength="57" x="274.5" y="307.1318">ItemCost</text></g><!--MD5=[5c2f687bfb1bffdc24db74a639703f1f]
class ItemName--><g id="elem_ItemName"><rect codeLine="20" fill="#9D0012" height="26.0986" id="ItemName" rx="2.5" ry="2.5" style="stroke:#181818;stroke-width:0.0;" width="72" x="443" y="195"/><text fill="#FFFFFF" font-family="Arial" font-size="14" lengthAdjust="spacing" textLength="66" x="446" y="213.1318">ItemName</text></g><!--MD5=[f0268dd29ee89052933f031546cb1cab]
class Menu--><g id="elem_Menu"><rect codeLine="21" fill="#9D0012" height="26.0986" id="Menu" rx="2.5" ry="2.5" style="stroke:#181818;stroke-width:0.0;" width="50" x="108" y="109"/><text fill="#FFFFFF" font-family="Arial" font-size="14" lengthAdjust="spacing" textLength="36" x="115" y="127.1318">Menu</text></g><!--MD5=[cb138f61d904eca326558c805b3e3197]
class UniqueMenuItemList--><g id="elem_UniqueMenuItemList"><rect codeLine="22" fill="#9D0012" height="26.0986" id="UniqueMenuItemList" rx="2.5" ry="2.5" style="stroke:#181818;stroke-width:0.0;" width="137" x="193.5" y="109"/><text fill="#FFFFFF" font-family="Arial" font-size="14" lengthAdjust="spacing" textLength="131" x="196.5" y="127.1318">UniqueMenuItemList</text></g><!--MD5=[6507b60a4344792f1097f877aaeafac1]
reverse link ItemList to Menu--><g id="link_ItemList_Menu"><path d="M106.93,61.05 C114.1,77.53 122.42,96.66 127.69,108.79 " fill="none" id="ItemList-backto-Menu" style="stroke:#9D0012;stroke-width:1.1;"/><polygon fill="none" points="100.55,63.93,99,42.8,113.39,58.35,100.55,63.93" style="stroke:#9D0012;stroke-width:1.1;"/></g><!--MD5=[609090082eea7186b225aa8a6a41ea26]
reverse link UniqueItemList to UniqueMenuItemList--><g id="link_UniqueItemList_UniqueMenuItemList"><path d="M265.17,62.73 C264.29,78.82 263.3,97.07 262.66,108.79 " fill="none" id="UniqueItemList-backto-UniqueMenuItemList" style="stroke:#9D0012;stroke-width:1.1;"/><polygon fill="none" points="258.17,62.51,266.24,42.92,272.15,63.27,258.17,62.51" style="stroke:#9D0012;stroke-width:1.1;"/></g><!--MD5=[6ebdf79d0bcef15c59f84012c93b09b1]
reverse link ItemPrice to ItemSellingPrice--><g id="link_ItemPrice_ItemSellingPrice"><path d="M78.84,146.3 C104.87,161.92 138.13,181.88 159.26,194.55 " fill="none" id="ItemPrice-backto-ItemSellingPrice" style="stroke:#9D0012;stroke-width:1.1;"/><polygon fill="none" points="75.5,152.47,61.96,136.17,82.71,140.46,75.5,152.47" style="stroke:#9D0012;stroke-width:1.1;"/></g><!--MD5=[051441f40ba4673e1b8441aaa7dc2b15]
reverse link ItemPrice to ItemCost--><g id="link_ItemPrice_ItemCost"><path d="M55.43,154.17 C67.3,175.43 85.48,202.91 108,221 C157.64,260.87 229.88,283.5 271.07,293.91 " fill="none" id="ItemPrice-backto-ItemCost" style="stroke:#9D0012;stroke-width:1.1;"/><polygon fill="none" points="49.3,157.55,46.28,136.58,61.72,151.08,49.3,157.55" style="stroke:#9D0012;stroke-width:1.1;"/></g><!--MD5=[4e7777d310d747d2c1947315482d4a2c]
link ItemList to UniqueItemList--><g id="link_ItemList_UniqueItemList"><path codeLine="27" d="M180.26,28 C180.26,28 185.22,28 187.24,28 " fill="none" id="ItemList-UniqueItemList" style="stroke:#9D0012;stroke-width:1.1;"/><polygon fill="#9D0012" points="200.09,28,191.09,24,195.09,28,191.09,32,200.09,28" style="stroke:#9D0012;stroke-width:1.1;"/><line style="stroke:#9D0012;stroke-width:1.1;" x1="195.09" x2="187.09" y1="28" y2="28"/><polygon fill="#9D0012" points="168.26,28,174.26,32,180.26,28,174.26,24,168.26,28" style="stroke:#9D0012;stroke-width:1.1;"/><text fill="#000000" font-family="sans-serif" font-size="13" lengthAdjust="spacing" textLength="8" x="186.0094" y="24.7596">1</text></g><!--MD5=[be517f24292d6b5fd6945ff9c04a4f08]
link UniqueItemList to Item--><g id="link_UniqueItemList_Item"><path codeLine="28" d="M332.43,28 C341.95,28 351.47,28 360.99,28 " fill="none" id="UniqueItemList-to-Item" style="stroke:#9D0012;stroke-width:1.1;"/><polygon fill="#9D0012" points="365.74,28,356.74,24,360.74,28,356.74,32,365.74,28" style="stroke:#9D0012;stroke-width:1.1;"/><text fill="#000000" font-family="sans-serif" font-size="13" lengthAdjust="spacing" textLength="6" x="353.6703" y="24.0332">*</text></g><!--MD5=[379cad8fe7fdefbfd53eed3f6bbb5751]
link Menu to UniqueMenuItemList--><g id="link_Menu_UniqueMenuItemList"><path codeLine="30" d="M171.96,122 C171.96,122 176.89,122 178.9,122 " fill="none" id="Menu-UniqueMenuItemList" style="stroke:#9D0012;stroke-width:1.1;"/><polygon fill="#9D0012" points="191.72,122,182.72,118,186.72,122,182.72,126,191.72,122" style="stroke:#9D0012;stroke-width:1.1;"/><line style="stroke:#9D0012;stroke-width:1.1;" x1="186.72" x2="178.72" y1="122" y2="122"/><polygon fill="#9D0012" points="159.96,122,165.96,126,171.96,122,165.96,118,159.96,122" style="stroke:#9D0012;stroke-width:1.1;"/><text fill="#000000" font-family="sans-serif" font-size="13" lengthAdjust="spacing" textLength="8" x="173.5193" y="118.8058">1</text></g><!--MD5=[410582d0ebd18a798591fcc3a7dd4758]
link UniqueMenuItemList to MenuItem--><g id="link_UniqueMenuItemList_MenuItem"><path codeLine="31" d="M330.96,122 C340.46,122 349.96,122 359.46,122 " fill="none" id="UniqueMenuItemList-to-MenuItem" style="stroke:#9D0012;stroke-width:1.1;"/><polygon fill="#9D0012" points="364.19,122,355.19,118,359.19,122,355.19,126,364.19,122" style="stroke:#9D0012;stroke-width:1.1;"/><text fill="#000000" font-family="sans-serif" font-size="13" lengthAdjust="spacing" textLength="6" x="351.8006" y="118.0433">*</text></g><!--MD5=[ea0a220f61fda9e84ee5f0a262fbb246]
link MenuItem to ItemSellingPrice--><g id="link_MenuItem_ItemSellingPrice"><path codeLine="33" d="M355.7626,140.1926 C355.7626,140.1926 264.01,175.07 226.18,189.45 " fill="none" id="MenuItem-ItemSellingPrice" style="stroke:#9D0012;stroke-width:1.1;"/><polygon fill="#9D0012" points="214.16,194.02,223.9943,194.5559,218.8328,192.2409,221.1478,187.0795,214.16,194.02" style="stroke:#9D0012;stroke-width:1.1;"/><line style="stroke:#9D0012;stroke-width:1.1;" x1="218.8328" x2="226.31" y1="192.2409" y2="189.395"/><polygon fill="#9D0012" points="366.98,135.93,359.9504,134.3222,355.7626,140.1926,362.7922,141.8004,366.98,135.93" style="stroke:#9D0012;stroke-width:1.1;"/><text fill="#000000" font-family="sans-serif" font-size="13" lengthAdjust="spacing" textLength="8" x="214.9346" y="184.1716">1</text></g><!--MD5=[05efcbb34af1c5d1c19394681411c6fa]
link MenuItem to ItemProfit--><g id="link_MenuItem_ItemProfit"><path codeLine="34" d="M376.2826,144.1938 C376.2826,144.1938 342.84,172.85 328.27,185.34 " fill="none" id="MenuItem-ItemProfit" style="stroke:#9D0012;stroke-width:1.1;"/><polygon fill="#9D0012" points="318.67,193.57,328.1071,190.7522,322.4671,190.3169,322.9023,184.6769,318.67,193.57" style="stroke:#9D0012;stroke-width:1.1;"/><line style="stroke:#9D0012;stroke-width:1.1;" x1="322.4671" x2="328.54" y1="190.3169" y2="185.105"/><polygon fill="#9D0012" points="385.39,136.38,378.2317,137.2511,376.2826,144.1938,383.4409,143.3227,385.39,136.38" style="stroke:#9D0012;stroke-width:1.1;"/><text fill="#000000" font-family="sans-serif" font-size="13" lengthAdjust="spacing" textLength="8" x="304.0058" y="184.1716">1</text></g><!--MD5=[76f8c93340352728a69c78a2ebb3345b]
link MenuItem to ItemCost--><g id="link_MenuItem_ItemCost"><path codeLine="35" d="M390.168,147.6476 C390.168,147.6476 367.36,196.96 354,221 C343.31,240.23 329.89,261.18 319.5,276.81 " fill="none" id="MenuItem-ItemCost" style="stroke:#9D0012;stroke-width:1.1;"/><polygon fill="#9D0012" points="312.45,287.28,320.7929,282.0459,315.2412,283.1316,314.1555,277.5799,312.45,287.28" style="stroke:#9D0012;stroke-width:1.1;"/><line style="stroke:#9D0012;stroke-width:1.1;" x1="315.2412" x2="319.705" y1="283.1316" y2="276.5"/><polygon fill="#9D0012" points="395.06,136.69,388.9615,140.5381,390.168,147.6476,396.2665,143.7995,395.06,136.69" style="stroke:#9D0012;stroke-width:1.1;"/><text fill="#000000" font-family="sans-serif" font-size="13" lengthAdjust="spacing" textLength="8" x="301.5551" y="278.1578">1</text></g><!--MD5=[5007d20cad0ceb89f48512510ac8cc3c]
link MenuItem to ItemName--><g id="link_MenuItem_ItemName"><path codeLine="36" d="M421.71,145.2893 C421.71,145.2893 446.71,172.23 457.75,184.12 " fill="none" id="MenuItem-ItemName" style="stroke:#9D0012;stroke-width:1.1;"/><polygon fill="#9D0012" points="466.41,193.45,463.2123,184.1347,463.0058,189.7878,457.3528,189.5813,466.41,193.45" style="stroke:#9D0012;stroke-width:1.1;"/><line style="stroke:#9D0012;stroke-width:1.1;" x1="463.0058" x2="457.565" y1="189.7878" y2="183.92"/><polygon fill="#9D0012" points="413.54,136.5,414.6952,143.618,421.71,145.2893,420.5547,138.1713,413.54,136.5" style="stroke:#9D0012;stroke-width:1.1;"/><text fill="#000000" font-family="sans-serif" font-size="13" lengthAdjust="spacing" textLength="8" x="453.5078" y="184.1716">1</text></g><!--MD5=[2a9c0b5c0acf81b08d6fd357cf855cf7]
reverse link ItemSellingPrice to ItemProfit--><g id="link_ItemSellingPrice_ItemProfit"><path codeLine="38" d="M240.56,208 C250.1,208 259.64,208 269.18,208 " fill="none" id="ItemSellingPrice-backto-ItemProfit" style="stroke:#9D0012;stroke-width:1.1;stroke-dasharray:7.0,7.0;"/><polygon fill="#9D0012" points="235.81,208,244.81,212,240.81,208,244.81,204,235.81,208" style="stroke:#9D0012;stroke-width:1.1;"/><text fill="#000000" font-family="sans-serif" font-size="13" lengthAdjust="spacing" textLength="8" x="249.0656" y="194.1864">1</text></g><!--MD5=[1e6451bda8a983f1a53521c3749249df]
link ItemProfit to ItemCost--><g id="link_ItemProfit_ItemCost"><path codeLine="39" d="M303,221.41 C303,237.13 303,264.38 303,282.54 " fill="none" id="ItemProfit-to-ItemCost" style="stroke:#9D0012;stroke-width:1.1;stroke-dasharray:7.0,7.0;"/><polygon fill="#9D0012" points="303,287.28,307,278.28,303,282.28,299,278.28,303,287.28" style="stroke:#9D0012;stroke-width:1.1;"/><text fill="#000000" font-family="sans-serif" font-size="13" lengthAdjust="spacing" textLength="8" x="319.725" y="278.2455">1</text></g><!--MD5=[d4e0402bab5270c61b711b3d4f545b8c]
reverse link Item to MenuItem--><g id="link_Item_MenuItem"><path codeLine="44" d="M401,70.59 C401,84.38 401,98.71 401,108.55 " fill="none" id="Item-backto-MenuItem" style="stroke:#9D0012;stroke-width:1.1;"/><polygon fill="none" points="394,70.93,401,50.93,408,70.93,394,70.93" style="stroke:#9D0012;stroke-width:1.1;"/></g><!--MD5=[3b071cdf177de05bcb07dfe6af0e434e]
link ItemName to Name--><g id="link_ItemName_Name"><path codeLine="46" d="M479,221.41 C479,231.21 479,245.48 479,259.24 " fill="none" id="ItemName-to-Name" style="stroke:#9D0012;stroke-width:1.1;"/><polygon fill="none" points="486,259.2,479,279.2,472,259.2,486,259.2" style="stroke:#9D0012;stroke-width:1.1;"/></g><!--MD5=[df3cd22bbecb67c1260c7f372bb4f309]
@startuml
!include style.puml
skinparam arrowThickness 1.1
skinparam arrowColor MODEL_COLOR
skinparam classBackgroundColor MODEL_COLOR
skinparam groupInheritance 1

top to bottom direction

Abstract Class "{abstract}\nItem" as Item
Abstract Class "{abstract}\nName" as Name
Class "UniqueItemList<T> " as UniqueItemList
Class ItemList<T extends Item>


Class MenuItem
Class ItemSellingPrice
Class ItemProfit
Class ItemPrice
Class ItemCost
Class ItemName
Class Menu extends ItemList
Class UniqueMenuItemList extends UniqueItemList
Class ItemSellingPrice extends ItemPrice
Class ItemCost extends ItemPrice


ItemList *- -r> "1" UniqueItemList
UniqueItemList -r>"*" Item

Menu *- -r> "1 " UniqueMenuItemList
UniqueMenuItemList -r>"*" MenuItem

MenuItem *- -> " 1" ItemSellingPrice
MenuItem *- -> "1  " ItemProfit
MenuItem *- -> "     1" ItemCost
MenuItem *- -> "1" ItemName

ItemProfit .left.> "            1 " ItemSellingPrice
ItemProfit ..> "   1 " ItemCost




MenuItem -u|> Item

ItemName - -|> Name

@enduml

@startuml









skinparam BackgroundColor #FFFFFFF

skinparam Shadowing false

skinparam Class {
    FontColor #FFFFFF
    BorderThickness 0
    FontName Arial
}

skinparam Actor {
    BorderColor #000000
    Color #000000
    FontName Arial
}

skinparam Sequence {
    MessageAlign center
    BoxFontSize 15
    BoxPadding 0
    BoxFontColor #FFFFFF
    FontName Arial
}

skinparam Participant {
    FontColor #FFFFFFF
    Padding 20
}

skinparam MinClassWidth 50
skinparam ParticipantPadding 10
skinparam Shadowing false
skinparam DefaultTextAlignment center
skinparam packageStyle Rectangle

hide footbox
hide members
hide circle
skinparam arrowThickness 1.1
skinparam arrowColor #9D0012
skinparam classBackgroundColor #9D0012
skinparam groupInheritance 1

top to bottom direction

Abstract Class "{abstract}\nItem" as Item
Abstract Class "{abstract}\nName" as Name
Class "UniqueItemList<T> " as UniqueItemList
Class ItemList<T extends Item>


Class MenuItem
Class ItemSellingPrice
Class ItemProfit
Class ItemPrice
Class ItemCost
Class ItemName
Class Menu extends ItemList
Class UniqueMenuItemList extends UniqueItemList
Class ItemSellingPrice extends ItemPrice
Class ItemCost extends ItemPrice


ItemList *- -r> "1" UniqueItemList
UniqueItemList -r>"*" Item

Menu *- -r> "1 " UniqueMenuItemList
UniqueMenuItemList -r>"*" MenuItem

MenuItem *- -> " 1" ItemSellingPrice
MenuItem *- -> "1  " ItemProfit
MenuItem *- -> "     1" ItemCost
MenuItem *- -> "1" ItemName

ItemProfit .left.> "            1 " ItemSellingPrice
ItemProfit ..> "   1 " ItemCost




MenuItem -u|> Item

ItemName - -|> Name

@enduml

PlantUML version 1.2022.12(Mon Oct 24 02:12:26 SGT 2022)
(GPL source distribution)
Java Runtime: OpenJDK Runtime Environment
JVM: OpenJDK 64-Bit Server VM
Default Encoding: UTF-8
Language: en
Country: US
--></g></svg>