<?xml version="1.0" encoding="UTF-8" standalone="no"?><svg xmlns="http://www.w3.org/2000/svg" xmlns:xlink="http://www.w3.org/1999/xlink" contentStyleType="text/css" height="329px" preserveAspectRatio="none" style="width:510px;height:329px;background:#FFFFFF;" version="1.1" viewBox="0 0 510 329" width="510px" zoomAndPan="magnify"><defs/><g><!--MD5=[44a1b4afaef76c16e6c9ec4990ad0c8d]
class Item--><g id="elem_Item"><rect codeLine="9" fill="#9D0012" height="42.1973" id="Item" rx="2.5" ry="2.5" style="stroke:#181818;stroke-width:0.0;" width="67" x="367.5" y="7"/><text fill="#FFFFFF" font-family="Arial" font-size="14" font-style="italic" lengthAdjust="spacing" textLength="61" x="370.5" y="25.1318">{abstract}</text><text fill="#FFFFFF" font-family="Arial" font-size="14" font-style="italic" lengthAdjust="spacing" textLength="28" x="387" y="41.2305">Item</text></g><!--MD5=[53f6a92bd21ca2f2960392a061f3a1c6]
class Name--><g id="elem_Name"><rect codeLine="10" fill="#9D0012" height="42.1973" id="Name" rx="2.5" ry="2.5" style="stroke:#181818;stroke-width:0.0;" width="67" x="433.5" y="281"/><text fill="#FFFFFF" font-family="Arial" font-size="14" font-style="italic" lengthAdjust="spacing" textLength="61" x="436.5" y="299.1318">{abstract}</text><text fill="#FFFFFF" font-family="Arial" font-size="14" font-style="italic" lengthAdjust="spacing" textLength="38" x="448" y="315.2305">Name</text></g><!--MD5=[0413c2967cbcbb9b55cfe9d1f30bae3b]
class UniqueItemList--><g id="elem_UniqueItemList"><rect codeLine="11" fill="#9D0012" height="26.0986" id="UniqueItemList" rx="2.5" ry="2.5" style="stroke:#181818;stroke-width:0.0;" width="130" x="202" y="15"/><text fill="#FFFFFF" font-family="Arial" font-size="14" lengthAdjust="spacing" textLength="120" x="205" y="33.1318">UniqueItemList&lt;T&gt;</text></g><!--MD5=[a7724e71618d3dacaca1ec2d24889dc2]
class ItemList--><g id="elem_ItemList"><rect codeLine="12" fill="#9D0012" height="26.0986" id="ItemList" rx="2.5" ry="2.5" style="stroke:#181818;stroke-width:0.0;" width="147" x="19.5" y="15"/><text fill="#FFFFFF" font-family="Arial" font-size="14" lengthAdjust="spacing" textLength="50" x="22.5" y="33.1318">ItemList</text><rect fill="#FFFFFF" height="16.1328" style="stroke:#181818;stroke-width:1.0;stroke-dasharray:2.0,2.0;" width="89" x="80.5" y="12"/><text fill="#000000" font-family="sans-serif" font-size="12" font-style="italic" lengthAdjust="spacing" textLength="87" x="81.5" y="24.6016">T extends Item</text></g><!--MD5=[27eb0c30e65d8b262e52e99e862b6c6e]
class MenuItem--><g id="elem_MenuItem"><rect codeLine="15" fill="#9D0012" height="26.0986" id="MenuItem" rx="2.5" ry="2.5" style="stroke:#181818;stroke-width:0.0;" width="70" x="366" y="109"/><text fill="#FFFFFF" font-family="Arial" font-size="14" lengthAdjust="spacing" textLength="64" x="369" y="127.1318">MenuItem</text></g><!--MD5=[05e465591b47418dc8ab9c1f29ea3be6]
class ItemSellingPrice--><g id="elem_ItemSellingPrice"><rect codeLine="23" fill="#9D0012" height="26.0986" id="ItemSellingPrice" rx="2.5" ry="2.5" style="stroke:#181818;stroke-width:0.0;" width="108" x="237" y="289"/><text fill="#FFFFFF" font-family="Arial" font-size="14" lengthAdjust="spacing" textLength="102" x="240" y="307.1318">ItemSellingPrice</text></g><!--MD5=[169e249786b12d4cb6fbbbd9573003c8]
class ItemProfit--><g id="elem_ItemProfit"><rect codeLine="17" fill="#9D0012" height="26.0986" id="ItemProfit" rx="2.5" ry="2.5" style="stroke:#181818;stroke-width:0.0;" width="67" x="257.5" y="195"/><text fill="#FFFFFF" font-family="Arial" font-size="14" lengthAdjust="spacing" textLength="61" x="260.5" y="213.1318">ItemProfit</text></g><!--MD5=[f2b754cb406138a691b0a92760c16c3d]
class ItemPrice--><g id="elem_ItemPrice"><rect codeLine="18" fill="#9D0012" height="26.0986" id="ItemPrice" rx="2.5" ry="2.5" style="stroke:#181818;stroke-width:0.0;" width="66" x="7" y="109"/><text fill="#FFFFFF" font-family="Arial" font-size="14" lengthAdjust="spacing" textLength="60" x="10" y="127.1318">ItemPrice</text></g><!--MD5=[b69496c65f41c32e01d9c6b8a041c2c4]
class ItemCost--><g id="elem_ItemCost"><rect codeLine="24" fill="#9D0012" height="26.0986" id="ItemCost" rx="2.5" ry="2.5" style="stroke:#181818;stroke-width:0.0;" width="63" x="159.5" y="195"/><text fill="#FFFFFF" font-family="Arial" font-size="14" lengthAdjust="spacing" textLength="57" x="162.5" y="213.1318">ItemCost</text></g><!--MD5=[5c2f687bfb1bffdc24db74a639703f1f]
class ItemName--><g id="elem_ItemName"><rect codeLine="20" fill="#9D0012" height="26.0986" id="ItemName" rx="2.5" ry="2.5" style="stroke:#181818;stroke-width:0.0;" width="72" x="431" y="195"/><text fill="#FFFFFF" font-family="Arial" font-size="14" lengthAdjust="spacing" textLength="66" x="434" y="213.1318">ItemName</text></g><!--MD5=[f0268dd29ee89052933f031546cb1cab]
class Menu--><g id="elem_Menu"><rect codeLine="21" fill="#9D0012" height="26.0986" id="Menu" rx="2.5" ry="2.5" style="stroke:#181818;stroke-width:0.0;" width="50" x="108" y="109"/><text fill="#FFFFFF" font-family="Arial" font-size="14" lengthAdjust="spacing" textLength="36" x="115" y="127.1318">Menu</text></g><!--MD5=[cb138f61d904eca326558c805b3e3197]
class UniqueMenuItemList--><g id="elem_UniqueMenuItemList"><rect codeLine="22" fill="#9D0012" height="26.0986" id="UniqueMenuItemList" rx="2.5" ry="2.5" style="stroke:#181818;stroke-width:0.0;" width="137" x="193.5" y="109"/><text fill="#FFFFFF" font-family="Arial" font-size="14" lengthAdjust="spacing" textLength="131" x="196.5" y="127.1318">UniqueMenuItemList</text></g><!--MD5=[6507b60a4344792f1097f877aaeafac1]
reverse link ItemList to Menu--><g id="link_ItemList_Menu"><path d="M106.93,61.05 C114.1,77.53 122.42,96.66 127.69,108.79 " fill="none" id="ItemList-backto-Menu" style="stroke:#9D0012;stroke-width:1.1;"/><polygon fill="none" points="100.55,63.93,99,42.8,113.39,58.35,100.55,63.93" style="stroke:#9D0012;stroke-width:1.1;"/></g><!--MD5=[609090082eea7186b225aa8a6a41ea26]
reverse link UniqueItemList to UniqueMenuItemList--><g id="link_UniqueItemList_UniqueMenuItemList"><path d="M265.17,62.73 C264.29,78.82 263.3,97.07 262.66,108.79 " fill="none" id="UniqueItemList-backto-UniqueMenuItemList" style="stroke:#9D0012;stroke-width:1.1;"/><polygon fill="none" points="258.17,62.51,266.24,42.92,272.15,63.27,258.17,62.51" style="stroke:#9D0012;stroke-width:1.1;"/></g><!--MD5=[6ebdf79d0bcef15c59f84012c93b09b1]
reverse link ItemPrice to ItemSellingPrice--><g id="link_ItemPrice_ItemSellingPrice"><path d="M65.15,151 C84.78,171.86 113.44,200.22 142,221 C181.05,249.42 231.44,274.35 262.47,288.54 " fill="none" id="ItemPrice-backto-ItemSellingPrice" style="stroke:#9D0012;stroke-width:1.1;"/><polygon fill="none" points="60.1,155.85,51.73,136.38,70.41,146.38,60.1,155.85" style="stroke:#9D0012;stroke-width:1.1;"/></g><!--MD5=[051441f40ba4673e1b8441aaa7dc2b15]
reverse link ItemPrice to ItemCost--><g id="link_ItemPrice_ItemCost"><path d="M81.06,145.84 C109.26,161.53 145.62,181.76 168.63,194.55 " fill="none" id="ItemPrice-backto-ItemCost" style="stroke:#9D0012;stroke-width:1.1;"/><polygon fill="none" points="77.68,151.97,63.6,136.13,84.48,139.74,77.68,151.97" style="stroke:#9D0012;stroke-width:1.1;"/></g><!--MD5=[4e7777d310d747d2c1947315482d4a2c]
link ItemList to UniqueItemList--><g id="link_ItemList_UniqueItemList"><path codeLine="27" d="M180.26,28 C180.26,28 185.22,28 187.24,28 " fill="none" id="ItemList-UniqueItemList" style="stroke:#9D0012;stroke-width:1.1;"/><polygon fill="#9D0012" points="200.09,28,191.09,24,195.09,28,191.09,32,200.09,28" style="stroke:#9D0012;stroke-width:1.1;"/><line style="stroke:#9D0012;stroke-width:1.1;" x1="195.09" x2="187.09" y1="28" y2="28"/><polygon fill="#9D0012" points="168.26,28,174.26,32,180.26,28,174.26,24,168.26,28" style="stroke:#9D0012;stroke-width:1.1;"/><text fill="#000000" font-family="sans-serif" font-size="13" lengthAdjust="spacing" textLength="8" x="186.0094" y="24.7596">1</text></g><!--MD5=[be517f24292d6b5fd6945ff9c04a4f08]
link UniqueItemList to Item--><g id="link_UniqueItemList_Item"><path codeLine="28" d="M332.43,28 C341.95,28 351.47,28 360.99,28 " fill="none" id="UniqueItemList-to-Item" style="stroke:#9D0012;stroke-width:1.1;"/><polygon fill="#9D0012" points="365.74,28,356.74,24,360.74,28,356.74,32,365.74,28" style="stroke:#9D0012;stroke-width:1.1;"/><text fill="#000000" font-family="sans-serif" font-size="13" lengthAdjust="spacing" textLength="6" x="353.6703" y="24.0332">*</text></g><!--MD5=[379cad8fe7fdefbfd53eed3f6bbb5751]
link Menu to UniqueMenuItemList--><g id="link_Menu_UniqueMenuItemList"><path codeLine="30" d="M171.96,122 C171.96,122 176.89,122 178.9,122 " fill="none" id="Menu-UniqueMenuItemList" style="stroke:#9D0012;stroke-width:1.1;"/><polygon fill="#9D0012" points="191.72,122,182.72,118,186.72,122,182.72,126,191.72,122" style="stroke:#9D0012;stroke-width:1.1;"/><line style="stroke:#9D0012;stroke-width:1.1;" x1="186.72" x2="178.72" y1="122" y2="122"/><polygon fill="#9D0012" points="159.96,122,165.96,126,171.96,122,165.96,118,159.96,122" style="stroke:#9D0012;stroke-width:1.1;"/><text fill="#000000" font-family="sans-serif" font-size="13" lengthAdjust="spacing" textLength="8" x="173.5193" y="118.8058">1</text></g><!--MD5=[410582d0ebd18a798591fcc3a7dd4758]
link UniqueMenuItemList to MenuItem--><g id="link_UniqueMenuItemList_MenuItem"><path codeLine="31" d="M330.96,122 C340.46,122 349.96,122 359.46,122 " fill="none" id="UniqueMenuItemList-to-MenuItem" style="stroke:#9D0012;stroke-width:1.1;"/><polygon fill="#9D0012" points="364.19,122,355.19,118,359.19,122,355.19,126,364.19,122" style="stroke:#9D0012;stroke-width:1.1;"/><text fill="#000000" font-family="sans-serif" font-size="13" lengthAdjust="spacing" textLength="6" x="351.8006" y="118.0433">*</text></g><!--MD5=[5007d20cad0ceb89f48512510ac8cc3c]
link MenuItem to ItemName--><g id="link_MenuItem_ItemName"><path codeLine="32" d="M419.0856,146.0144 C419.0856,146.0144 439.37,171.84 448.34,183.25 " fill="none" id="MenuItem-ItemName" style="stroke:#9D0012;stroke-width:1.1;"/><polygon fill="#9D0012" points="456.29,193.36,453.8731,183.8123,453.2002,189.429,447.5835,188.756,456.29,193.36" style="stroke:#9D0012;stroke-width:1.1;"/><line style="stroke:#9D0012;stroke-width:1.1;" x1="453.2002" x2="448.255" y1="189.429" y2="183.14"/><polygon fill="#9D0012" points="411.67,136.58,412.233,143.7691,419.0856,146.0144,418.5226,138.8254,411.67,136.58" style="stroke:#9D0012;stroke-width:1.1;"/><text fill="#000000" font-family="sans-serif" font-size="13" lengthAdjust="spacing" textLength="8" x="443.9664" y="184.1716">1</text></g><!--MD5=[ea0a220f61fda9e84ee5f0a262fbb246]
link MenuItem to ItemSellingPrice--><g id="link_MenuItem_ItemSellingPrice"><path codeLine="33" d="M386.7468,147.0543 C386.7468,147.0543 357.38,196.17 342,221 C330.34,239.81 316.87,260.92 306.7,276.73 " fill="none" id="MenuItem-ItemSellingPrice" style="stroke:#9D0012;stroke-width:1.1;"/><polygon fill="#9D0012" points="299.87,287.32,308.1076,281.9217,302.5785,283.1171,301.383,277.5881,299.87,287.32" style="stroke:#9D0012;stroke-width:1.1;"/><line style="stroke:#9D0012;stroke-width:1.1;" x1="302.5785" x2="306.915" y1="283.1171" y2="276.395"/><polygon fill="#9D0012" points="392.88,136.74,386.3753,139.8527,386.7468,147.0543,393.2515,143.9415,392.88,136.74" style="stroke:#9D0012;stroke-width:1.1;"/><text fill="#000000" font-family="sans-serif" font-size="13" lengthAdjust="spacing" textLength="8" x="287.8316" y="278.2268">1</text></g><!--MD5=[76f8c93340352728a69c78a2ebb3345b]
link MenuItem to ItemCost--><g id="link_MenuItem_ItemCost"><path codeLine="34" d="M357.4683,140.4167 C357.4683,140.4167 271.15,174.94 235.5,189.2 " fill="none" id="MenuItem-ItemCost" style="stroke:#9D0012;stroke-width:1.1;"/><polygon fill="#9D0012" points="223.52,193.99,233.3619,194.3614,228.1624,192.133,230.3907,186.9336,223.52,193.99" style="stroke:#9D0012;stroke-width:1.1;"/><line style="stroke:#9D0012;stroke-width:1.1;" x1="228.1624" x2="235.59" y1="192.133" y2="189.165"/><polygon fill="#9D0012" points="368.61,135.96,361.5536,134.4744,357.4683,140.4167,364.5247,141.9023,368.61,135.96" style="stroke:#9D0012;stroke-width:1.1;"/><text fill="#000000" font-family="sans-serif" font-size="13" lengthAdjust="spacing" textLength="8" x="219.6832" y="184.1716">1</text></g><!--MD5=[05efcbb34af1c5d1c19394681411c6fa]
link MenuItem to ItemProfit--><g id="link_MenuItem_ItemProfit"><path codeLine="35" d="M374.0385,143.6004 C374.0385,143.6004 335.34,173.14 318.57,185.95 " fill="none" id="MenuItem-ItemProfit" style="stroke:#9D0012;stroke-width:1.1;"/><polygon fill="#9D0012" points="308.5,193.64,318.0808,191.3578,312.4741,190.6058,313.2261,184.9992,308.5,193.64" style="stroke:#9D0012;stroke-width:1.1;"/><line style="stroke:#9D0012;stroke-width:1.1;" x1="312.4741" x2="318.83" y1="190.6058" y2="185.745"/><polygon fill="#9D0012" points="383.57,136.31,376.3741,136.778,374.0385,143.6004,381.2344,143.1324,383.57,136.31" style="stroke:#9D0012;stroke-width:1.1;"/><text fill="#000000" font-family="sans-serif" font-size="13" lengthAdjust="spacing" textLength="8" x="299.2269" y="184.1716">1</text></g><!--MD5=[8a61752e55f7c835ac60c29706a8c28e]
link ItemProfit to ItemSellingPrice--><g id="link_ItemProfit_ItemSellingPrice"><path codeLine="36" d="M291,221.41 C291,237.13 291,264.38 291,282.54 " fill="none" id="ItemProfit-to-ItemSellingPrice" style="stroke:#9D0012;stroke-width:1.1;"/><polygon fill="#9D0012" points="291,287.28,295,278.28,291,282.28,287,278.28,291,287.28" style="stroke:#9D0012;stroke-width:1.1;"/><text fill="#000000" font-family="sans-serif" font-size="13" lengthAdjust="spacing" textLength="8" x="276.6375" y="278.2455">1</text></g><!--MD5=[048318821e640d0516b5f212310fb710]
reverse link ItemCost to ItemProfit--><g id="link_ItemCost_ItemProfit"><path codeLine="37" d="M229.1,208 C238.43,208 247.76,208 257.09,208 " fill="none" id="ItemCost-backto-ItemProfit" style="stroke:#9D0012;stroke-width:1.1;"/><polygon fill="#9D0012" points="224.15,208,233.15,212,229.15,208,233.15,204,224.15,208" style="stroke:#9D0012;stroke-width:1.1;"/><text fill="#000000" font-family="sans-serif" font-size="13" lengthAdjust="spacing" textLength="8" x="230.4032" y="204.0433">1</text></g><!--MD5=[d4e0402bab5270c61b711b3d4f545b8c]
reverse link Item to MenuItem--><g id="link_Item_MenuItem"><path codeLine="40" d="M401,70.59 C401,84.38 401,98.71 401,108.55 " fill="none" id="Item-backto-MenuItem" style="stroke:#9D0012;stroke-width:1.1;"/><polygon fill="none" points="394,70.93,401,50.93,408,70.93,394,70.93" style="stroke:#9D0012;stroke-width:1.1;"/></g><!--MD5=[3b071cdf177de05bcb07dfe6af0e434e]
link ItemName to Name--><g id="link_ItemName_Name"><path codeLine="42" d="M467,221.41 C467,231.21 467,245.48 467,259.24 " fill="none" id="ItemName-to-Name" style="stroke:#9D0012;stroke-width:1.1;"/><polygon fill="none" points="474,259.2,467,279.2,460,259.2,474,259.2" style="stroke:#9D0012;stroke-width:1.1;"/></g><!--MD5=[f71917fe4dfbb55b98e450078b815162]
@startuml
!include style.puml
skinparam arrowThickness 1.1
skinparam arrowColor MODEL_COLOR
skinparam classBackgroundColor MODEL_COLOR
skinparam groupInheritance 1

top to bottom direction

Abstract Class "{abstract}\nItem" as Item
Abstract Class "{abstract}\nName" as Name
Class "UniqueItemList<T> " as UniqueItemList
Class ItemList<T extends Item>


Class MenuItem
Class ItemSellingPrice
Class ItemProfit
Class ItemPrice
Class ItemCost
Class ItemName
Class Menu extends ItemList
Class UniqueMenuItemList extends UniqueItemList
Class ItemSellingPrice extends ItemPrice
Class ItemCost extends ItemPrice


ItemList *- -r> "1" UniqueItemList
UniqueItemList -r>"*" Item

Menu *- -r> "1 " UniqueMenuItemList
UniqueMenuItemList -r>"*" MenuItem
MenuItem *- -> "1" ItemName
MenuItem *- -> "1 " ItemSellingPrice
MenuItem *- -> "1 " ItemCost
MenuItem *- -> "1 " ItemProfit
ItemProfit - -> "1 " ItemSellingPrice
ItemProfit -left-> "1 " ItemCost


MenuItem -u|> Item

ItemName - -|> Name

@enduml

@startuml









skinparam BackgroundColor #FFFFFFF

skinparam Shadowing false

skinparam Class {
    FontColor #FFFFFF
    BorderThickness 0
    FontName Arial
}

skinparam Actor {
    BorderColor #000000
    Color #000000
    FontName Arial
}

skinparam Sequence {
    MessageAlign center
    BoxFontSize 15
    BoxPadding 0
    BoxFontColor #FFFFFF
    FontName Arial
}

skinparam Participant {
    FontColor #FFFFFFF
    Padding 20
}

skinparam MinClassWidth 50
skinparam ParticipantPadding 10
skinparam Shadowing false
skinparam DefaultTextAlignment center
skinparam packageStyle Rectangle

hide footbox
hide members
hide circle
skinparam arrowThickness 1.1
skinparam arrowColor #9D0012
skinparam classBackgroundColor #9D0012
skinparam groupInheritance 1

top to bottom direction

Abstract Class "{abstract}\nItem" as Item
Abstract Class "{abstract}\nName" as Name
Class "UniqueItemList<T> " as UniqueItemList
Class ItemList<T extends Item>


Class MenuItem
Class ItemSellingPrice
Class ItemProfit
Class ItemPrice
Class ItemCost
Class ItemName
Class Menu extends ItemList
Class UniqueMenuItemList extends UniqueItemList
Class ItemSellingPrice extends ItemPrice
Class ItemCost extends ItemPrice


ItemList *- -r> "1" UniqueItemList
UniqueItemList -r>"*" Item

Menu *- -r> "1 " UniqueMenuItemList
UniqueMenuItemList -r>"*" MenuItem
MenuItem *- -> "1" ItemName
MenuItem *- -> "1 " ItemSellingPrice
MenuItem *- -> "1 " ItemCost
MenuItem *- -> "1 " ItemProfit
ItemProfit - -> "1 " ItemSellingPrice
ItemProfit -left-> "1 " ItemCost


MenuItem -u|> Item

ItemName - -|> Name

@enduml

PlantUML version 1.2022.12(Mon Oct 24 02:12:26 SGT 2022)
(GPL source distribution)
Java Runtime: OpenJDK Runtime Environment
JVM: OpenJDK 64-Bit Server VM
Default Encoding: UTF-8
Language: en
Country: US
--></g></svg>