<?xml version="1.0" encoding="us-ascii" standalone="no"?>
<svg xmlns="http://www.w3.org/2000/svg" contentStyleType="text/css" height="327px" preserveAspectRatio="none"
     style="width:517px;height:327px;background:#FFFFFF;" version="1.1" viewBox="0 0 517 327" width="517px"
     zoomAndPan="magnify">
    <defs/>
    <g><!--class Item-->
        <g id="elem_Item">
            <rect codeLine="9" fill="#9D0012" height="41.2813" id="Item" rx="2.5" ry="2.5"
                  style="stroke:#181818;stroke-width:0.0;" width="67" x="343" y="7"/>
            <text fill="#FFFFFF" font-family="Arial" font-size="14" font-style="italic" lengthAdjust="spacing"
                  textLength="61" x="346" y="24.6738">{abstract}
            </text>
            <text fill="#FFFFFF" font-family="Arial" font-size="14" font-style="italic" lengthAdjust="spacing"
                  textLength="27" x="363" y="40.3145">Item
            </text>
        </g><!--class Name-->
        <g id="elem_Name">
            <rect codeLine="10" fill="#9D0012" height="41.2813" id="Name" rx="2.5" ry="2.5"
                  style="stroke:#181818;stroke-width:0.0;" width="67" x="443" y="280"/>
            <text fill="#FFFFFF" font-family="Arial" font-size="14" font-style="italic" lengthAdjust="spacing"
                  textLength="61" x="446" y="297.6738">{abstract}
            </text>
            <text fill="#FFFFFF" font-family="Arial" font-size="14" font-style="italic" lengthAdjust="spacing"
                  textLength="37" x="458" y="313.3145">Name
            </text>
        </g><!--class UniqueItemList-->
        <g id="elem_UniqueItemList">
            <rect codeLine="11" fill="#9D0012" height="25.6406" id="UniqueItemList" rx="2.5" ry="2.5"
                  style="stroke:#181818;stroke-width:0.0;" width="127" x="181" y="14.5"/>
            <text fill="#FFFFFF" font-family="Arial" font-size="14" lengthAdjust="spacing" textLength="117" x="184"
                  y="32.1738">UniqueItemList&lt;T&gt;
            </text>
        </g><!--class ItemList-->
        <g id="elem_ItemList">
            <rect codeLine="12" fill="#9D0012" height="25.6406" id="ItemList" rx="2.5" ry="2.5"
                  style="stroke:#181818;stroke-width:0.0;" width="139" x="7" y="14.5"/>
            <text fill="#FFFFFF" font-family="Arial" font-size="14" lengthAdjust="spacing" textLength="48" x="10"
                  y="32.1738">ItemList
            </text>
            <rect fill="#FFFFFF" height="17.9609" style="stroke:#181818;stroke-width:1.0;stroke-dasharray:2.0,2.0;"
                  width="83" x="66" y="11.5"/>
            <text fill="#000000" font-family="sans-serif" font-size="12" font-style="italic" lengthAdjust="spacing"
                  textLength="81" x="67" y="25.4492">T extends Item
            </text>
        </g><!--class MenuItem-->
        <g id="elem_MenuItem">
            <rect codeLine="15" fill="#9D0012" height="25.6406" id="MenuItem" rx="2.5" ry="2.5"
                  style="stroke:#181818;stroke-width:0.0;" width="67" x="343" y="108"/>
            <text fill="#FFFFFF" font-family="Arial" font-size="14" lengthAdjust="spacing" textLength="61" x="346"
                  y="125.6738">MenuItem
            </text>
        </g><!--class ItemPrice-->
        <g id="elem_ItemPrice">
            <rect codeLine="16" fill="#9D0012" height="25.6406" id="ItemPrice" rx="2.5" ry="2.5"
                  style="stroke:#181818;stroke-width:0.0;" width="64" x="246.5" y="194"/>
            <text fill="#FFFFFF" font-family="Arial" font-size="14" lengthAdjust="spacing" textLength="58" x="249.5"
                  y="211.6738">ItemPrice
            </text>
        </g><!--class ItemCost-->
        <g id="elem_ItemCost">
            <rect codeLine="17" fill="#9D0012" height="25.6406" id="ItemCost" rx="2.5" ry="2.5"
                  style="stroke:#181818;stroke-width:0.0;" width="61" x="346" y="194"/>
            <text fill="#FFFFFF" font-family="Arial" font-size="14" lengthAdjust="spacing" textLength="55" x="349"
                  y="211.6738">ItemCost
            </text>
        </g><!--class ItemName-->
        <g id="elem_ItemName">
            <rect codeLine="18" fill="#9D0012" height="25.6406" id="ItemName" rx="2.5" ry="2.5"
                  style="stroke:#181818;stroke-width:0.0;" width="68" x="442.5" y="194"/>
            <text fill="#FFFFFF" font-family="Arial" font-size="14" lengthAdjust="spacing" textLength="62" x="445.5"
                  y="211.6738">ItemName
            </text>
        </g><!--class Menu-->
        <g id="elem_Menu">
            <rect codeLine="19" fill="#9D0012" height="25.6406" id="Menu" rx="2.5" ry="2.5"
                  style="stroke:#181818;stroke-width:0.0;" width="50" x="70.5" y="108"/>
            <text fill="#FFFFFF" font-family="Arial" font-size="14" lengthAdjust="spacing" textLength="35" x="78"
                  y="125.6738">Menu
            </text>
        </g><!--class UniqueMenuItemList-->
        <g id="elem_UniqueMenuItemList">
            <rect codeLine="20" fill="#9D0012" height="25.6406" id="UniqueMenuItemList" rx="2.5" ry="2.5"
                  style="stroke:#181818;stroke-width:0.0;" width="133" x="175" y="108"/>
            <text fill="#FFFFFF" font-family="Arial" font-size="14" lengthAdjust="spacing" textLength="127" x="178"
                  y="125.6738">UniqueMenuItemList
            </text>
        </g><!--reverse link ItemList to Menu-->
        <g id="link_ItemList_Menu">
            <path d="M83.38,61.64 C86.7,77.6 90.47,95.79 92.92,107.56 " fill="none" id="ItemList-backto-Menu"
                  style="stroke:#9D0012;stroke-width:1.1;"/>
            <polygon fill="none" points="76.58,63.33,79.37,42.32,90.29,60.48,76.58,63.33"
                     style="stroke:#9D0012;stroke-width:1.1;"/>
        </g><!--reverse link UniqueItemList to UniqueMenuItemList-->
        <g id="link_UniqueItemList_UniqueMenuItemList">
            <path d="M243.4,62.19 C242.88,78.03 242.29,95.93 241.91,107.56 " fill="none"
                  id="UniqueItemList-backto-UniqueMenuItemList" style="stroke:#9D0012;stroke-width:1.1;"/>
            <polygon fill="none" points="236.39,62.11,244.05,42.35,250.39,62.57,236.39,62.11"
                     style="stroke:#9D0012;stroke-width:1.1;"/>
        </g><!--link ItemList to UniqueItemList-->
        <g id="link_ItemList_UniqueItemList">
            <path codeLine="22" d="M160.67,27.5 C162.67,27.5 164.67,27.5 166.67,27.5 " fill="none"
                  id="ItemList-UniqueItemList" style="stroke:#9D0012;stroke-width:1.1;"/>
            <polygon fill="#9D0012" points="147.9,27.5,153.9,31.5,159.9,27.5,153.9,23.5,147.9,27.5"
                     style="stroke:#9D0012;stroke-width:1.1;"/>
            <polygon fill="#9D0012" points="179.37,27.5,170.37,23.5,174.37,27.5,170.37,31.5,179.37,27.5"
                     style="stroke:#9D0012;stroke-width:1.1;"/>
            <line style="stroke:#9D0012;stroke-width:1.1;" x1="174.37" x2="166.37" y1="27.5" y2="27.5"/>
            <text fill="#000000" font-family="sans-serif" font-size="13" lengthAdjust="spacing" textLength="7"
                  x="166.1193" y="23.5831">1
            </text>
        </g><!--link UniqueItemList to Item-->
        <g id="link_UniqueItemList_Item">
            <path codeLine="23" d="M308.44,27.5 C317.73,27.5 327.02,27.5 336.3,27.5 " fill="none"
                  id="UniqueItemList-to-Item" style="stroke:#9D0012;stroke-width:1.1;"/>
            <polygon fill="#9D0012" points="341.22,27.5,332.22,23.5,336.22,27.5,332.22,31.5,341.22,27.5"
                     style="stroke:#9D0012;stroke-width:1.1;"/>
            <text fill="#000000" font-family="sans-serif" font-size="13" lengthAdjust="spacing" textLength="5"
                  x="329.7959" y="22.67">*
            </text>
        </g><!--link Menu to UniqueMenuItemList-->
        <g id="link_Menu_UniqueMenuItemList">
            <path codeLine="25" d="M135.15,121 C143.47,121 151.79,121 160.11,121 " fill="none"
                  id="Menu-UniqueMenuItemList" style="stroke:#9D0012;stroke-width:1.1;"/>
            <polygon fill="#9D0012" points="122.39,121,128.39,125,134.39,121,128.39,117,122.39,121"
                     style="stroke:#9D0012;stroke-width:1.1;"/>
            <polygon fill="#9D0012" points="173.08,121,164.08,117,168.08,121,164.08,125,173.08,121"
                     style="stroke:#9D0012;stroke-width:1.1;"/>
            <line style="stroke:#9D0012;stroke-width:1.1;" x1="168.08" x2="160.08" y1="121" y2="121"/>
            <text fill="#000000" font-family="sans-serif" font-size="13" lengthAdjust="spacing" textLength="7"
                  x="156.1227" y="117.1853">1
            </text>
        </g><!--link UniqueMenuItemList to MenuItem-->
        <g id="link_UniqueMenuItemList_MenuItem">
            <path codeLine="26" d="M308.47,121 C317.76,121 327.04,121 336.32,121 " fill="none"
                  id="UniqueMenuItemList-to-MenuItem" style="stroke:#9D0012;stroke-width:1.1;"/>
            <polygon fill="#9D0012" points="341.24,121,332.24,117,336.24,121,332.24,125,341.24,121"
                     style="stroke:#9D0012;stroke-width:1.1;"/>
            <text fill="#000000" font-family="sans-serif" font-size="13" lengthAdjust="spacing" textLength="5"
                  x="329.8203" y="116.2401">*
            </text>
        </g><!--link MenuItem to ItemName-->
        <g id="link_MenuItem_ItemName">
            <path codeLine="27" d="M402.35,143.71 C417.22,156.2 435.85,171.85 450.71,184.34 " fill="none"
                  id="MenuItem-ItemName" style="stroke:#9D0012;stroke-width:1.1;"/>
            <polygon fill="#9D0012"
                     points="392.41,135.37,394.4294,142.2926,401.5961,143.0911,399.5768,136.1685,392.41,135.37"
                     style="stroke:#9D0012;stroke-width:1.1;"/>
            <polygon fill="#9D0012"
                     points="460.53,192.58,456.2216,183.7235,456.7052,189.3597,451.069,189.8433,460.53,192.58"
                     style="stroke:#9D0012;stroke-width:1.1;"/>
            <line style="stroke:#9D0012;stroke-width:1.1;" x1="456.7052" x2="450.57" y1="189.3597" y2="184.22"/>
            <text fill="#000000" font-family="sans-serif" font-size="13" lengthAdjust="spacing" textLength="7"
                  x="447.9245" y="182.6042">1
            </text>
        </g><!--link MenuItem to ItemPrice-->
        <g id="link_MenuItem_ItemPrice">
            <path codeLine="28" d="M351.17,143.71 C336.59,156.2 318.34,171.85 303.77,184.34 " fill="none"
                  id="MenuItem-ItemPrice" style="stroke:#9D0012;stroke-width:1.1;"/>
            <polygon fill="#9D0012"
                     points="360.89,135.38,353.7317,136.2511,351.7826,143.1938,358.9409,142.3227,360.89,135.38"
                     style="stroke:#9D0012;stroke-width:1.1;"/>
            <polygon fill="#9D0012"
                     points="294.17,192.57,303.6071,189.7522,297.9671,189.3169,298.4023,183.6769,294.17,192.57"
                     style="stroke:#9D0012;stroke-width:1.1;"/>
            <line style="stroke:#9D0012;stroke-width:1.1;" x1="297.9671" x2="304.04" y1="189.3169" y2="184.105"/>
            <text fill="#000000" font-family="sans-serif" font-size="13" lengthAdjust="spacing" textLength="7"
                  x="285.3461" y="182.6042">1
            </text>
        </g><!--link MenuItem to ItemCost-->
        <g id="link_MenuItem_ItemCost">
            <path codeLine="29" d="M376.5,148.58 C376.5,158.34 376.5,169.39 376.5,179.17 " fill="none"
                  id="MenuItem-ItemCost" style="stroke:#9D0012;stroke-width:1.1;"/>
            <polygon fill="#9D0012" points="376.5,135.91,372.5,141.91,376.5,147.91,380.5,141.91,376.5,135.91"
                     style="stroke:#9D0012;stroke-width:1.1;"/>
            <polygon fill="#9D0012" points="376.5,192.04,380.5,183.04,376.5,187.04,372.5,183.04,376.5,192.04"
                     style="stroke:#9D0012;stroke-width:1.1;"/>
            <line style="stroke:#9D0012;stroke-width:1.1;" x1="376.5" x2="376.5" y1="187.04" y2="179.04"/>
            <text fill="#000000" font-family="sans-serif" font-size="13" lengthAdjust="spacing" textLength="7"
                  x="363.4719" y="182.6042">1
            </text>
        </g><!--reverse link Item to MenuItem-->
        <g id="link_Item_MenuItem">
            <path codeLine="30" d="M376.5,69.83 C376.5,83.63 376.5,97.96 376.5,107.76 " fill="none"
                  id="Item-backto-MenuItem" style="stroke:#9D0012;stroke-width:1.1;"/>
            <polygon fill="none" points="369.5,69.87,376.5,49.87,383.5,69.87,369.5,69.87"
                     style="stroke:#9D0012;stroke-width:1.1;"/>
        </g><!--link ItemName to Name-->
        <g id="link_ItemName_Name">
            <path codeLine="32" d="M476.5,220.34 C476.5,230.15 476.5,244.46 476.5,258.23 " fill="none"
                  id="ItemName-to-Name" style="stroke:#9D0012;stroke-width:1.1;"/>
            <polygon fill="none" points="483.5,258.15,476.5,278.15,469.5,258.15,483.5,258.15"
                     style="stroke:#9D0012;stroke-width:1.1;"/>
        </g><!--SRC=[VP1DIyGm48Rl-HLZZWjTw5qAMZqiTAt8UXCacmvkQ9lKVA2Y_dStQTfjoxgt-NZcdNVcIaZUk0h1sAy6rvrh6s9g8JkcMGjCQ_MnEmXUIpG6qdMwREQgKHgsvTrzyPgNHVaq0NZ3ZBbbl7xJoidg4kg9RYCFg8LbaYEaX5ZLWLMmLzQg5YgXaLkX924tUsCrunPolm3eDuk5tnUviTXIO0PyS95yO2q6qWSa0izIl3lqiuKmzdgNGK3cvGYVAC1FYxBgInaX4TYYTC76YN_KWkCapzLCRcB53yzq9vjxEuEyRupamYaPWLMIwECrALqYynIE55tH_dqac1WcWPvPJCvuYHBZ-KFWbNeBuwtB5j39c_vfXf-DlSJzPD7je0f9Sgm5_Jy0]-->
    </g>
</svg>
