<?xml version="1.0" encoding="us-ascii" standalone="no"?>
<svg xmlns="http://www.w3.org/2000/svg" xmlns:xlink="http://www.w3.org/1999/xlink" contentStyleType="text/css"
     height="451px" preserveAspectRatio="none" style="width:544px;height:451px;background:#FFFFFF;" version="1.1"
     viewBox="0 0 544 451" width="544px" zoomAndPan="magnify">
    <defs/>
    <g><!--cluster Model-->
        <g id="cluster_Model">
            <rect fill="none" height="385" rx="2.5" ry="2.5" style="stroke:#181818;stroke-width:1.0;" width="485" x="53"
                  y="60"/>
            <text fill="#000000" font-family="sans-serif" font-size="14" font-weight="bold" lengthAdjust="spacing"
                  textLength="43" x="274" y="76.9659">Model
            </text>
        </g><!--class ReadOnlyEduMate-->
        <g id="elem_ReadOnlyEduMate">
            <rect codeLine="7" fill="#D42E12" height="48.1358" id="ReadOnlyEduMate" rx="2.5" ry="2.5"
                  style="stroke:#FFFFFF;stroke-width:1.0;" width="131" x="211.5" y="106"/>
            <text fill="#FFFFFF" font-family="Arial" font-size="14" lengthAdjust="spacing" textLength="74" x="240"
                  y="125.9659">&#171;interface&#187;
            </text>
            <text fill="#FFFFFF" font-family="Arial" font-size="14" lengthAdjust="spacing" textLength="125" x="214.5"
                  y="145.0339">ReadOnlyEduMate
            </text>
        </g><!--class ReadOnlyUserPrefs-->
        <g id="elem_ReadOnlyUserPrefs">
            <rect codeLine="8" fill="#D42E12" height="48.1358" id="ReadOnlyUserPrefs" rx="2.5" ry="2.5"
                  style="stroke:#FFFFFF;stroke-width:1.0;" width="136" x="378" y="106"/>
            <text fill="#FFFFFF" font-family="Arial" font-size="14" lengthAdjust="spacing" textLength="74" x="409"
                  y="125.9659">&#171;interface&#187;
            </text>
            <text fill="#FFFFFF" font-family="Arial" font-size="14" lengthAdjust="spacing" textLength="130" x="381"
                  y="145.0339">ReadOnlyUserPrefs
            </text>
        </g><!--class Model-->
        <g id="elem_Model">
            <rect codeLine="9" fill="#D42E12" height="48.1358" id="Model" rx="2.5" ry="2.5"
                  style="stroke:#FFFFFF;stroke-width:1.0;" width="80" x="96" y="106"/>
            <text fill="#FFFFFF" font-family="Arial" font-size="14" lengthAdjust="spacing" textLength="74" x="99"
                  y="125.9659">&#171;interface&#187;
            </text>
            <text fill="#FFFFFF" font-family="Arial" font-size="14" lengthAdjust="spacing" textLength="42" x="115"
                  y="145.0339">Model
            </text>
        </g><!--class EduMate-->
        <g id="elem_EduMate">
            <rect codeLine="10" fill="#D42E12" height="29.0679" id="EduMate" rx="2.5" ry="2.5"
                  style="stroke:#FFFFFF;stroke-width:1.0;" width="66" x="244" y="214"/>
            <text fill="#FFFFFF" font-family="Arial" font-size="14" lengthAdjust="spacing" textLength="60" x="247"
                  y="233.9659">EduMate
            </text>
        </g><!--class ModelManager-->
        <g id="elem_ModelManager">
            <rect codeLine="11" fill="#D42E12" height="29.0679" id="ModelManager" rx="2.5" ry="2.5"
                  style="stroke:#FFFFFF;stroke-width:1.0;" width="109" x="99.5" y="214"/>
            <text fill="#FFFFFF" font-family="Arial" font-size="14" lengthAdjust="spacing" textLength="103" x="102.5"
                  y="233.9659">ModelManager
            </text>
        </g><!--class UserPrefs-->
        <g id="elem_UserPrefs">
            <rect codeLine="12" fill="#D42E12" height="29.0679" id="UserPrefs" rx="2.5" ry="2.5"
                  style="stroke:#FFFFFF;stroke-width:1.0;" width="71" x="377.5" y="214"/>
            <text fill="#FFFFFF" font-family="Arial" font-size="14" lengthAdjust="spacing" textLength="65" x="380.5"
                  y="233.9659">UserPrefs
            </text>
        </g><!--class UniquePersonList-->
        <g id="elem_UniquePersonList">
            <rect codeLine="14" fill="#D42E12" height="29.0679" id="UniquePersonList" rx="2.5" ry="2.5"
                  style="stroke:#FFFFFF;stroke-width:1.0;" width="124" x="275" y="303"/>
            <text fill="#FFFFFF" font-family="Arial" font-size="14" lengthAdjust="spacing" textLength="118" x="278"
                  y="322.9659">UniquePersonList
            </text>
        </g><!--class Person-->
        <g id="elem_Person">
            <rect codeLine="15" fill="#D42E12" height="29.0679" id="Person" rx="2.5" ry="2.5"
                  style="stroke:#FFFFFF;stroke-width:1.0;" width="52" x="189" y="392"/>
            <text fill="#FFFFFF" font-family="Arial" font-size="14" lengthAdjust="spacing" textLength="46" x="192"
                  y="411.9659">Person
            </text>
        </g><!--class User-->
        <g id="elem_User">
            <rect codeLine="16" fill="#D42E12" height="29.0679" id="User" rx="2.5" ry="2.5"
                  style="stroke:#FFFFFF;stroke-width:1.0;" width="50" x="190" y="303"/>
            <text fill="#FFFFFF" font-family="Arial" font-size="14" lengthAdjust="spacing" textLength="31" x="199.5"
                  y="322.9659">User
            </text>
        </g><!--class HiddenOutside-->
        <g id="elem_HiddenOutside">
            <rect codeLine="19" fill="#FFFFFF" height="29.0679" id="HiddenOutside" rx="2.5" ry="2.5"
                  style="stroke:#FFFFFF;stroke-width:1.0;" width="108" x="7" y="7"/>
            <text fill="#FFFFFF" font-family="Arial" font-size="14" lengthAdjust="spacing" textLength="102" x="10"
                  y="26.9659">HiddenOutside
            </text>
        </g><!--link HiddenOutside to Model-->
        <g id="link_HiddenOutside_Model">
            <path codeLine="20"
                  d="M61,36.42 C61,39.9725 61,44.0525 61,48.4764 C61,50.6883 61,52.9862 61,55.3472 C61,56.5276 61,57.7239 61,58.933 C61,59.2353 61,59.5383 61,59.8422 "
                  fill="none" id="HiddenOutside-to-Model"
                  style="stroke:#D42E12;stroke-width:1.1;stroke-dasharray:7.0,7.0;"/>
            <polygon fill="#D42E12" points="61,59.8422,65,50.8422,61,54.8422,57,50.8422,61,59.8422"
                     style="stroke:#D42E12;stroke-width:1.1;"/>
        </g><!--reverse link ReadOnlyEduMate to EduMate-->
        <g id="link_ReadOnlyEduMate_EduMate">
            <path codeLine="22" d="M277,175.67 C277,189.43 277,203.57 277,213.6 " fill="none"
                  id="ReadOnlyEduMate-backto-EduMate"
                  style="stroke:#D42E12;stroke-width:1.1;stroke-dasharray:7.0,7.0;"/>
            <polygon fill="none" points="270,175.87,277,155.87,284,175.87,270,175.87"
                     style="stroke:#D42E12;stroke-width:1.1;"/>
        </g><!--reverse link Model to ModelManager-->
        <g id="link_Model_ModelManager">
            <path codeLine="24"
                  d="M61.12,131.15 C62.25,132.64 71.62,144.82 80,154 C99.65,175.54 123.85,199.05 139.11,213.54 "
                  fill="none" id="Model-backto-ModelManager"
                  style="stroke:#D42E12;stroke-width:1.1;stroke-dasharray:7.0,7.0;"/>
            <polygon fill="#FFFFFF" points="61.12,131.15,67.0237,150.5187,78.1786,142.0589,61.12,131.15"
                     style="stroke:#D42E12;stroke-width:1.1;"/>
        </g><!--link Model to ReadOnlyUserPrefs-->
        <g id="link_Model_ReadOnlyUserPrefs">
            <path codeLine="25"
                  d="M69.113,59.8158 C69.1748,59.6861 69.237,59.5567 69.2995,59.4275 C69.5498,58.9106 69.8063,58.3972 70.0691,57.8875 C70.5948,56.8682 71.1459,55.8638 71.7235,54.8767 C74.0339,50.9281 76.7688,47.255 80,44 C85.62,38.34 89.57,40.89 97.5,40 C124.55,36.95 315.45,36.95 342.5,40 C350.43,40.89 353.02,40.14 360,44 C385.55,58.13 408.59,82.09 424.38,101.13 "
                  fill="none" id="Model-to-ReadOnlyUserPrefs"
                  style="stroke:#D42E12;stroke-width:1.1;stroke-dasharray:7.0,7.0;"/>
            <polygon fill="#D42E12"
                     points="427.28,104.69,424.671,95.193,424.1115,100.8221,418.4824,100.2626,427.28,104.69"
                     style="stroke:#D42E12;stroke-width:1.1;"/>
        </g><!--reverse link ReadOnlyEduMate to Model-->
        <g id="link_ReadOnlyEduMate_Model">
            <path codeLine="26"
                  d="M256.34,101.12 C241.2,82.07 218.99,58.11 194,44 C175.31,33.45 118.83,37.59 97.5,40 C89.57,40.89 85.62,38.34 80,44 C76.7688,47.255 74.0339,50.9281 71.7235,54.8767 C71.1459,55.8638 70.5948,56.8682 70.0691,57.8875 C69.8063,58.3972 69.5498,58.9106 69.2995,59.4275 C69.237,59.5567 69.1748,59.6861 69.113,59.8158 "
                  fill="none" id="ReadOnlyEduMate-backto-Model"
                  style="stroke:#D42E12;stroke-width:1.1;stroke-dasharray:7.0,7.0;"/>
            <polygon fill="#D42E12"
                     points="259.1,104.65,256.7079,95.096,256.0204,100.711,250.4055,100.0234,259.1,104.65"
                     style="stroke:#D42E12;stroke-width:1.1;"/>
        </g><!--reverse link EduMate to ModelManager-->
        <g id="link_EduMate_ModelManager">
            <path codeLine="27" d="M237.41,228.5 C227.87,228.5 218.32,228.5 208.77,228.5 " fill="none"
                  id="EduMate-backto-ModelManager" style="stroke:#D42E12;stroke-width:1.1;"/>
            <polygon fill="#D42E12" points="242.17,228.5,233.17,224.5,237.17,228.5,233.17,232.5,242.17,228.5"
                     style="stroke:#D42E12;stroke-width:1.1;"/>
            <text fill="#000000" font-family="sans-serif" font-size="13" lengthAdjust="spacing" textLength="7"
                  x="229.0979" y="223.7097">1
            </text>
        </g><!--link ModelManager to UserPrefs-->
        <g id="link_ModelManager_UserPrefs">
            <path codeLine="28"
                  d="M176.71,213.68 C194.38,203.08 219.94,189.71 244.5,184 C273.07,177.36 281.78,178.03 310.5,184 C335.39,189.17 361.66,200.71 381.38,210.74 "
                  fill="none" id="ModelManager-to-UserPrefs" style="stroke:#D42E12;stroke-width:1.1;"/>
            <polygon fill="#D42E12"
                     points="385.67,212.97,379.5164,205.2802,381.2297,210.6713,375.8386,212.3846,385.67,212.97"
                     style="stroke:#D42E12;stroke-width:1.1;"/>
            <text fill="#000000" font-family="sans-serif" font-size="13" lengthAdjust="spacing" textLength="7"
                  x="369.1493" y="202.068">1
            </text>
        </g><!--reverse link ReadOnlyUserPrefs to UserPrefs-->
        <g id="link_ReadOnlyUserPrefs_UserPrefs">
            <path codeLine="29" d="M431.06,174.68 C426.25,188.74 421.27,203.33 417.75,213.6 " fill="none"
                  id="ReadOnlyUserPrefs-backto-UserPrefs"
                  style="stroke:#D42E12;stroke-width:1.1;stroke-dasharray:7.0,7.0;"/>
            <polygon fill="none" points="424.43,172.45,437.52,155.79,437.67,176.98,424.43,172.45"
                     style="stroke:#D42E12;stroke-width:1.1;"/>
        </g><!--link EduMate to UniquePersonList-->
        <g id="link_EduMate_UniquePersonList">
            <path codeLine="31" d="M294.87,255.41 C302.61,266.64 311.65,279.75 319.37,290.94 " fill="none"
                  id="EduMate-UniquePersonList" style="stroke:#D42E12;stroke-width:1.1;"/>
            <polygon fill="#D42E12" points="287.5,244.72,287.612,251.9302,294.3106,254.6,294.1987,247.3898,287.5,244.72"
                     style="stroke:#D42E12;stroke-width:1.1;"/>
            <polygon fill="#D42E12"
                     points="326.52,301.31,324.7081,291.6292,323.6834,297.1925,318.1201,296.1678,326.52,301.31"
                     style="stroke:#D42E12;stroke-width:1.1;"/>
            <line style="stroke:#D42E12;stroke-width:1.1;" x1="323.6834" x2="319.145" y1="297.1925" y2="290.61"/>
            <text fill="#000000" font-family="sans-serif" font-size="13" lengthAdjust="spacing" textLength="7"
                  x="315.706" y="291.2202">1
            </text>
        </g><!--link EduMate to User-->
        <g id="link_EduMate_User">
            <path codeLine="32" d="M258.87,254.94 C250.82,266.23 241.37,279.5 233.31,290.81 " fill="none"
                  id="EduMate-User" style="stroke:#D42E12;stroke-width:1.1;"/>
            <polygon fill="#D42E12"
                     points="266.16,244.71,259.4206,247.2752,259.1964,254.4828,265.9358,251.9176,266.16,244.71"
                     style="stroke:#D42E12;stroke-width:1.1;"/>
            <polygon fill="#D42E12"
                     points="225.82,301.32,234.2971,296.3062,228.7189,297.2461,227.779,291.6679,225.82,301.32"
                     style="stroke:#D42E12;stroke-width:1.1;"/>
            <line style="stroke:#D42E12;stroke-width:1.1;" x1="228.7189" x2="233.36" y1="297.2461" y2="290.74"/>
            <text fill="#000000" font-family="sans-serif" font-size="13" lengthAdjust="spacing" textLength="7"
                  x="220.2343" y="291.2202">1
            </text>
        </g><!--link User to Person-->
        <g id="link_User_Person">
            <path codeLine="33" d="M215,332.48 C215,342.75 215,357.19 215,370.51 " fill="none" id="User-to-Person"
                  style="stroke:#D42E12;stroke-width:1.1;"/>
            <polygon fill="none" points="222,370.04,215,390.04,208,370.04,222,370.04"
                     style="stroke:#D42E12;stroke-width:1.1;"/>
        </g><!--link UniquePersonList to Person-->
        <g id="link_UniquePersonList_Person">
            <path codeLine="34" d="M317.4,332.48 C296.32,347.51 262.76,371.44 239.85,387.78 " fill="none"
                  id="UniquePersonList-to-Person" style="stroke:#D42E12;stroke-width:1.1;"/>
            <polygon fill="#D42E12"
                     points="235.79,390.68,245.4412,388.7166,239.8625,387.7792,240.7999,382.2006,235.79,390.68"
                     style="stroke:#D42E12;stroke-width:1.1;"/>
            <text fill="#000000" font-family="sans-serif" font-size="13" lengthAdjust="spacing" textLength="23"
                  x="214.4178" y="380.2202">* all
            </text>
        </g><!--link ModelManager to Person-->
        <g id="link_ModelManager_Person">
            <path codeLine="36"
                  d="M155.1,243.49 C157.01,263.59 161.85,301.58 173,332 C180.14,351.49 192.19,371.85 201.55,386.18 "
                  fill="none" id="ModelManager-to-Person" style="stroke:#D42E12;stroke-width:1.1;"/>
            <polygon fill="#D42E12"
                     points="204.29,390.3,202.6644,380.5862,201.533,386.1288,195.9904,384.9974,204.29,390.3"
                     style="stroke:#D42E12;stroke-width:1.1;"/>
            <text fill="#000000" font-family="sans-serif" font-size="13" lengthAdjust="spacing" textLength="52"
                  x="140.3378" y="380.2202">* filtered
            </text>
        </g><!--SRC=[XP9DQyCm38Rl_XLQTYl4q7lmOTt63WqfPRiDXecLrDHrEjjXb7tyzZckqoPfnt8mvjNpIhAK6wbBrGe4wmuAwRxTAMAtKk-vuJlWnZGVpnjPRZLQ2tCwdmONZMeCvCNzm_9jKIoBzG0e5RVsZfVRsZIj5fSeMVaWhn7oHg22B5jZwRYk5J86dsJH-I79CgaTcegNNdxLQ-IYqEhm8DgSEqo0MvXe_pXVB9gLmSgEl2Vr3tVeCJZ2BLBZYY6IS-tVPA9qJjiBMhwtk49Z6xsKraNvA0nCvBjtF4aXK1Ujiz8lwlOnV6IiKifYNoIs1BJTqozsCHioRBA7ZjRZ6gYHzSPHTcKo4L1O3UDzvb7Yj8DI1iayWUj0A1E9SudJRTh_O93z2sTfRv_Ez9Be9jeTaAO-QPpsr0S1_va1LtxL4PgqdR8EgAJo_mQAdle5]-->
    </g>
</svg>
