<?xml version="1.0" encoding="us-ascii" standalone="no"?><svg xmlns="http://www.w3.org/2000/svg" xmlns:xlink="http://www.w3.org/1999/xlink" contentStyleType="text/css" height="327px" preserveAspectRatio="none" style="width:534px;height:327px;background:#FFFFFF;" version="1.1" viewBox="0 0 534 327" width="534px" zoomAndPan="magnify"><defs/><g><!--class ReadOnlyXYZList--><g id="elem_ReadOnlyXYZList"><rect codeLine="9" fill="#9D0012" height="41.2813" id="ReadOnlyXYZList" rx="2.5" ry="2.5" style="stroke:#9D0012;stroke-width:1.0;" width="116" x="132.5" y="7"/><text fill="#FFFFFF" font-family="Arial" font-size="14" lengthAdjust="spacing" textLength="71" x="155" y="24.6738">&#171;interface&#187;</text><text fill="#FFFFFF" font-family="Arial" font-size="14" lengthAdjust="spacing" textLength="110" x="135.5" y="40.3145">ReadOnlyXYZList</text></g><!--class ReadOnlyUserPrefs--><g id="elem_ReadOnlyUserPrefs"><rect codeLine="10" fill="#9D0012" height="41.2813" id="ReadOnlyUserPrefs" rx="2.5" ry="2.5" style="stroke:#9D0012;stroke-width:1.0;" width="131" x="396" y="7"/><text fill="#FFFFFF" font-family="Arial" font-size="14" lengthAdjust="spacing" textLength="71" x="426" y="24.6738">&#171;interface&#187;</text><text fill="#FFFFFF" font-family="Arial" font-size="14" lengthAdjust="spacing" textLength="125" x="399" y="40.3145">ReadOnlyUserPrefs</text></g><!--class Model--><g id="elem_Model"><rect codeLine="11" fill="#9D0012" height="41.2813" id="Model" rx="2.5" ry="2.5" style="stroke:#9D0012;stroke-width:1.0;" width="77" x="284" y="7"/><text fill="#FFFFFF" font-family="Arial" font-size="14" lengthAdjust="spacing" textLength="71" x="287" y="24.6738">&#171;interface&#187;</text><text fill="#FFFFFF" font-family="Arial" font-size="14" lengthAdjust="spacing" textLength="38" x="303.5" y="40.3145">Model</text></g><!--class XYZList--><g id="elem_XYZList"><rect codeLine="12" fill="#9D0012" height="25.6406" id="XYZList" rx="2.5" ry="2.5" style="stroke:#9D0012;stroke-width:1.0;" width="53" x="182" y="108"/><text fill="#FFFFFF" font-family="Arial" font-size="14" lengthAdjust="spacing" textLength="47" x="185" y="125.6738">XYZList</text></g><!--class ModelManager--><g id="elem_ModelManager"><rect codeLine="13" fill="#9D0012" height="25.6406" id="ModelManager" rx="2.5" ry="2.5" style="stroke:#9D0012;stroke-width:1.0;" width="100" x="272.5" y="108"/><text fill="#FFFFFF" font-family="Arial" font-size="14" lengthAdjust="spacing" textLength="94" x="275.5" y="125.6738">ModelManager</text></g><!--class UserPrefs--><g id="elem_UserPrefs"><rect codeLine="14" fill="#9D0012" height="25.6406" id="UserPrefs" rx="2.5" ry="2.5" style="stroke:#9D0012;stroke-width:1.0;" width="68" x="417.5" y="108"/><text fill="#FFFFFF" font-family="Arial" font-size="14" lengthAdjust="spacing" textLength="62" x="420.5" y="125.6738">UserPrefs</text></g><!--class UniqueXYZList--><g id="elem_UniqueXYZList"><rect codeLine="15" fill="#9D0012" height="25.6406" id="UniqueXYZList" rx="2.5" ry="2.5" style="stroke:#9D0012;stroke-width:1.0;" width="97" x="172" y="194"/><text fill="#FFFFFF" font-family="Arial" font-size="14" lengthAdjust="spacing" textLength="91" x="175" y="211.6738">UniqueXYZList</text></g><!--class XYZ--><g id="elem_XYZ"><rect codeLine="16" fill="#9D0012" height="25.6406" id="XYZ" rx="2.5" ry="2.5" style="stroke:#9D0012;stroke-width:1.0;" width="50" x="195.5" y="287.5"/><text fill="#FFFFFF" font-family="Arial" font-size="14" lengthAdjust="spacing" textLength="25" x="208" y="305.1738">XYZ</text></g><!--class Item--><g id="elem_Item"><rect codeLine="17" fill="#9D0012" height="41.2813" id="Item" rx="2.5" ry="2.5" style="stroke:#9D0012;stroke-width:1.0;" width="67" x="67" y="280"/><text fill="#FFFFFF" font-family="Arial" font-size="14" lengthAdjust="spacing" textLength="61" x="70" y="297.6738">{abstract}</text><text fill="#FFFFFF" font-family="Arial" font-size="14" lengthAdjust="spacing" textLength="26" x="87.5" y="313.3145">Item</text></g><!--class ItemList--><g id="elem_ItemList"><rect codeLine="18" fill="#9D0012" height="25.6406" id="ItemList" rx="2.5" ry="2.5" style="stroke:#9D0012;stroke-width:1.0;" width="139" x="7" y="108"/><text fill="#FFFFFF" font-family="Arial" font-size="14" lengthAdjust="spacing" textLength="48" x="10" y="125.6738">ItemList</text><rect fill="#FFFFFF" height="17.9609" style="stroke:#9D0012;stroke-width:1.0;stroke-dasharray:2.0,2.0;" width="83" x="66" y="105"/><text fill="#000000" font-family="sans-serif" font-size="12" font-style="italic" lengthAdjust="spacing" textLength="81" x="67" y="118.9492">T extends Item</text></g><!--class UniqueItemList--><g id="elem_UniqueItemList"><rect codeLine="19" fill="#9D0012" height="25.6406" id="UniqueItemList" rx="2.5" ry="2.5" style="stroke:#9D0012;stroke-width:1.0;" width="127" x="10" y="194"/><text fill="#FFFFFF" font-family="Arial" font-size="14" lengthAdjust="spacing" textLength="117" x="13" y="211.6738">UniqueItemList&lt;T&gt;</text></g><!--reverse link Model to ModelManager--><g id="link_Model_ModelManager"><path codeLine="21" d="M322.5,69.83 C322.5,83.63 322.5,97.96 322.5,107.76 " fill="none" id="Model-backto-ModelManager" style="stroke:#9D0012;stroke-width:1.1;stroke-dasharray:7.0,7.0;"/><polygon fill="none" points="315.5,69.87,322.5,49.87,329.5,69.87,315.5,69.87" style="stroke:#9D0012;stroke-width:1.1;"/></g><!--link Model to ReadOnlyUserPrefs--><g id="link_Model_ReadOnlyUserPrefs"><path codeLine="22" d="M361.32,27.5 C370.65,27.5 379.98,27.5 389.3,27.5 " fill="none" id="Model-to-ReadOnlyUserPrefs" style="stroke:#9D0012;stroke-width:1.1;stroke-dasharray:7.0,7.0;"/><polygon fill="#9D0012" points="394.24,27.5,385.24,23.5,389.24,27.5,385.24,31.5,394.24,27.5" style="stroke:#9D0012;stroke-width:1.1;"/></g><!--reverse link ReadOnlyXYZList to Model--><g id="link_ReadOnlyXYZList_Model"><path codeLine="23" d="M255.03,27.5 C264.56,27.5 274.09,27.5 283.62,27.5 " fill="none" id="ReadOnlyXYZList-backto-Model" style="stroke:#9D0012;stroke-width:1.1;stroke-dasharray:7.0,7.0;"/><polygon fill="#9D0012" points="250.28,27.5,259.28,31.5,255.28,27.5,259.28,23.5,250.28,27.5" style="stroke:#9D0012;stroke-width:1.1;"/></g><!--reverse link XYZList to ModelManager--><g id="link_XYZList_ModelManager"><path codeLine="24" d="M241.55,121 C251.71,121 261.88,121 272.04,121 " fill="none" id="XYZList-backto-ModelManager" style="stroke:#9D0012;stroke-width:1.1;"/><polygon fill="#9D0012" points="236.73,121,245.73,125,241.73,121,245.73,117,236.73,121" style="stroke:#9D0012;stroke-width:1.1;"/><text fill="#000000" font-family="sans-serif" font-size="13" lengthAdjust="spacing" textLength="7" x="247.0736" y="116.0357">1</text></g><!--link ModelManager to UserPrefs--><g id="link_ModelManager_UserPrefs"><path codeLine="25" d="M372.89,121 C385.56,121 398.22,121 410.89,121 " fill="none" id="ModelManager-to-UserPrefs" style="stroke:#9D0012;stroke-width:1.1;"/><polygon fill="#9D0012" points="415.59,121,406.59,117,410.59,121,406.59,125,415.59,121" style="stroke:#9D0012;stroke-width:1.1;"/><text fill="#000000" font-family="sans-serif" font-size="13" lengthAdjust="spacing" textLength="7" x="398.506" y="116.47">1</text></g><!--reverse link ReadOnlyUserPrefs to UserPrefs--><g id="link_ReadOnlyUserPrefs_UserPrefs"><path codeLine="26" d="M458.65,54.55 C456.74,72.02 454.32,94.22 452.84,107.76 " fill="none" id="ReadOnlyUserPrefs-backto-UserPrefs" style="stroke:#9D0012;stroke-width:1.1;stroke-dasharray:7.0,7.0;"/><polygon fill="#9D0012" points="459.17,49.86,454.2167,58.3726,458.6272,54.8305,462.1694,59.241,459.17,49.86" style="stroke:#9D0012;stroke-width:1.1;"/></g><!--reverse link ReadOnlyXYZList to XYZList--><g id="link_ReadOnlyXYZList_XYZList"><path codeLine="28" d="M198.53,69.33 C201.28,83.28 204.14,97.85 206.09,107.76 " fill="none" id="ReadOnlyXYZList-backto-XYZList" style="stroke:#9D0012;stroke-width:1.1;stroke-dasharray:7.0,7.0;"/><polygon fill="none" points="191.69,70.81,194.7,49.84,205.43,68.11,191.69,70.81" style="stroke:#9D0012;stroke-width:1.1;"/></g><!--link XYZList to UniqueXYZList--><g id="link_XYZList_UniqueXYZList"><path codeLine="29" d="M212.3,148.58 C213.71,158.45 215.31,169.65 216.72,179.52 " fill="none" id="XYZList-UniqueXYZList" style="stroke:#9D0012;stroke-width:1.1;"/><polygon fill="#9D0012" points="210.48,135.89,207.3708,142.3963,212.1807,147.7689,215.29,141.2625,210.48,135.89" style="stroke:#9D0012;stroke-width:1.1;"/><polygon fill="#9D0012" points="218.51,192.06,221.1926,182.5835,217.8006,187.1106,213.2735,183.7186,218.51,192.06" style="stroke:#9D0012;stroke-width:1.1;"/><line style="stroke:#9D0012;stroke-width:1.1;" x1="217.8006" x2="216.67" y1="187.1106" y2="179.185"/><text fill="#000000" font-family="sans-serif" font-size="13" lengthAdjust="spacing" textLength="7" x="203.1355" y="182.6042">1</text></g><!--link UniqueXYZList to XYZ--><g id="link_UniqueXYZList_XYZ"><path codeLine="30" d="M220.5,220.34 C220.5,235.89 220.5,262.77 220.5,280.84 " fill="none" id="UniqueXYZList-to-XYZ" style="stroke:#9D0012;stroke-width:1.1;"/><polygon fill="#9D0012" points="220.5,285.55,224.5,276.55,220.5,280.55,216.5,276.55,220.5,285.55" style="stroke:#9D0012;stroke-width:1.1;"/><text fill="#000000" font-family="sans-serif" font-size="13" lengthAdjust="spacing" textLength="22" x="225.2938" y="276.1179">* all</text></g><!--link ModelManager to XYZ--><g id="link_ModelManager_XYZ"><path codeLine="32" d="M319.43,134.35 C314.34,153.53 303.05,191.26 286.5,220 C272.87,243.67 252.11,267.3 237.52,282.57 " fill="none" id="ModelManager-to-XYZ" style="stroke:#9D0012;stroke-width:1.1;"/><polygon fill="#9D0012" points="234.26,285.95,243.3866,282.2479,237.7307,282.3508,237.6278,276.6949,234.26,285.95" style="stroke:#9D0012;stroke-width:1.1;"/><text fill="#000000" font-family="sans-serif" font-size="13" lengthAdjust="spacing" textLength="47" x="180.9275" y="276.3474">* filtered</text></g><!--link ItemList to UniqueItemList--><g id="link_ItemList_UniqueItemList"><path codeLine="34" d="M75.55,148.58 C75.2,158.34 74.81,169.39 74.46,179.17 " fill="none" id="ItemList-UniqueItemList" style="stroke:#9D0012;stroke-width:1.1;"/><polygon fill="#9D0012" points="76,135.91,71.7916,141.7657,75.5783,147.9026,79.7867,142.0469,76,135.91" style="stroke:#9D0012;stroke-width:1.1;"/><polygon fill="#9D0012" points="74,192.04,78.3142,183.1863,74.1759,187.0431,70.3191,182.9048,74,192.04" style="stroke:#9D0012;stroke-width:1.1;"/><line style="stroke:#9D0012;stroke-width:1.1;" x1="74.1759" x2="74.465" y1="187.0431" y2="179.05"/><text fill="#000000" font-family="sans-serif" font-size="13" lengthAdjust="spacing" textLength="7" x="61.0741" y="182.6042">1</text></g><!--link UniqueItemList to Item--><g id="link_UniqueItemList_Item"><path codeLine="35" d="M77.14,220.34 C81.14,233.89 87.68,256.05 92.82,273.48 " fill="none" id="UniqueItemList-to-Item" style="stroke:#9D0012;stroke-width:1.1;"/><polygon fill="#9D0012" points="94.22,278.22,95.4786,268.4519,92.7898,273.4289,87.8128,270.7402,94.22,278.22" style="stroke:#9D0012;stroke-width:1.1;"/><text fill="#000000" font-family="sans-serif" font-size="13" lengthAdjust="spacing" textLength="5" x="79.8809" y="268.8172">*</text></g><!--reverse link UniqueItemList to UniqueXYZList--><g id="link_UniqueItemList_UniqueXYZList"><path codeLine="37" d="M158.52,207 C162.92,207 167.31,207 171.71,207 " fill="none" id="UniqueItemList-backto-UniqueXYZList" style="stroke:#9D0012;stroke-width:1.1;"/><polygon fill="none" points="158.75,214,138.75,207,158.75,200,158.75,214" style="stroke:#9D0012;stroke-width:1.1;"/></g><!--reverse link ItemList to XYZList--><g id="link_ItemList_XYZList"><path codeLine="38" d="M167.68,121 C172.39,121 177.1,121 181.8,121 " fill="none" id="ItemList-backto-XYZList" style="stroke:#9D0012;stroke-width:1.1;"/><polygon fill="none" points="167.88,128,147.88,121,167.88,114,167.88,128" style="stroke:#9D0012;stroke-width:1.1;"/></g><!--reverse link Item to XYZ--><g id="link_Item_XYZ"><path codeLine="39" d="M140.44,300.5 C158.71,300.5 176.97,300.5 195.23,300.5 " fill="none" id="Item-backto-XYZ" style="stroke:#9D0012;stroke-width:1.1;"/><polygon fill="#9D0012" points="135.76,300.5,144.76,304.5,140.76,300.5,144.76,296.5,135.76,300.5" style="stroke:#9D0012;stroke-width:1.1;"/></g><!--SRC=[XL9TQy8m57tFhxZhez22xvA7kJqCb0vHs8OmOdDrmJHnISec-_ZjIzDMJLNMXt9pxZdddjpsHgX2LXp1kht4R5ULajYjK3jcM0dC6FqnVnF5Lg6rCCo6_UPOIsrWcj_TJrx7-IIVdH0AoQozPSLsOtIb-3cLEBq3fs6bdTCbS66mS48hGiYura8o6WdbqAnPWPGkrGmPpvNSFps_J8Hr2J0BFUmVvSAYUJIujf7sW5vHJpL76HIXQbdnnD2PCiKsQ5geRxjGuht2MEPFtT0ljhBEiCBzBDM3mp8Ch8kMK9UrSZG7_7IeU0FHJj_O7raKWaCC4t8Q5BAi-gRjhSBR8uPUM4pNbFHiuv5XcifwxZ21AstldWmzusXzgEeqbsQJrgfDsv_VTGTfoklPtUCpn1kFJZwA9_yEW4a98ItfHqsfD_ECjP3-Pq3UihfL-e6ykqoyu_W8SQpm39Bcovvbalw2FRUuUGetswwHFm00]--></g></svg>