<?xml version="1.0" encoding="us-ascii" standalone="no"?>
<svg xmlns="http://www.w3.org/2000/svg" xmlns:xlink="http://www.w3.org/1999/xlink" contentStyleType="text/css"
     height="433px" preserveAspectRatio="none" style="width:676px;height:433px;background:#FFFFFF;" version="1.1"
     viewBox="0 0 676 433" width="676px" zoomAndPan="magnify">
    <defs/>
    <g><!--cluster Model-->
        <g id="cluster_Model">
            <rect fill="none" height="369" rx="2.5" ry="2.5" style="stroke:#181818;stroke-width:1.0;" width="663" x="7"
                  y="58"/>
            <text fill="#000000" font-family="sans-serif" font-size="14" font-weight="bold" lengthAdjust="spacing"
                  textLength="43" x="317" y="74.9659">Model
            </text>
        </g><!--class ReadOnlyEduMate-->
        <g id="elem_ReadOnlyEduMate">
            <rect codeLine="7" fill="#D42E12" height="48.1358" id="ReadOnlyEduMate" rx="2.5" ry="2.5"
                  style="stroke:#FFFFFF;stroke-width:1.0;" width="131" x="236.5" y="96"/>
            <text fill="#FFFFFF" font-family="Arial" font-size="14" lengthAdjust="spacing" textLength="74" x="265"
                  y="115.9659">&#171;interface&#187;
            </text>
            <text fill="#FFFFFF" font-family="Arial" font-size="14" lengthAdjust="spacing" textLength="125" x="239.5"
                  y="135.0339">ReadOnlyEduMate
            </text>
        </g><!--class ReadOnlyEduMateHistory-->
        <g id="elem_ReadOnlyEduMateHistory">
            <rect codeLine="8" fill="#D42E12" height="48.1358" id="ReadOnlyEduMateHistory" rx="2.5" ry="2.5"
                  style="stroke:#FFFFFF;stroke-width:1.0;" width="178" x="23" y="96"/>
            <text fill="#FFFFFF" font-family="Arial" font-size="14" lengthAdjust="spacing" textLength="74" x="75"
                  y="115.9659">&#171;interface&#187;
            </text>
            <text fill="#FFFFFF" font-family="Arial" font-size="14" lengthAdjust="spacing" textLength="172" x="26"
                  y="135.0339">ReadOnlyEduMateHistory
            </text>
        </g><!--class ReadOnlyUserPrefs-->
        <g id="elem_ReadOnlyUserPrefs">
            <rect codeLine="9" fill="#D42E12" height="48.1358" id="ReadOnlyUserPrefs" rx="2.5" ry="2.5"
                  style="stroke:#FFFFFF;stroke-width:1.0;" width="136" x="518" y="96"/>
            <text fill="#FFFFFF" font-family="Arial" font-size="14" lengthAdjust="spacing" textLength="74" x="549"
                  y="115.9659">&#171;interface&#187;
            </text>
            <text fill="#FFFFFF" font-family="Arial" font-size="14" lengthAdjust="spacing" textLength="130" x="521"
                  y="135.0339">ReadOnlyUserPrefs
            </text>
        </g><!--class Model1-->
        <g id="elem_Model1">
            <rect codeLine="10" fill="#D42E12" height="48.1358" id="Model1" rx="2.5" ry="2.5"
                  style="stroke:#FFFFFF;stroke-width:1.0;" width="80" x="403" y="96"/>
            <text fill="#FFFFFF" font-family="Arial" font-size="14" lengthAdjust="spacing" textLength="74" x="406"
                  y="115.9659">&#171;interface&#187;
            </text>
            <text fill="#FFFFFF" font-family="Arial" font-size="14" lengthAdjust="spacing" textLength="42" x="422"
                  y="135.0339">Model
            </text>
        </g><!--class EduMate-->
        <g id="elem_EduMate">
            <rect codeLine="11" fill="#D42E12" height="29.0679" id="EduMate" rx="2.5" ry="2.5"
                  style="stroke:#FFFFFF;stroke-width:1.0;" width="66" x="273" y="204"/>
            <text fill="#FFFFFF" font-family="Arial" font-size="14" lengthAdjust="spacing" textLength="60" x="276"
                  y="223.9659">EduMate
            </text>
        </g><!--class EduMateHistory-->
        <g id="elem_EduMateHistory">
            <rect codeLine="12" fill="#D42E12" height="29.0679" id="EduMateHistory" rx="2.5" ry="2.5"
                  style="stroke:#FFFFFF;stroke-width:1.0;" width="113" x="87.5" y="204"/>
            <text fill="#FFFFFF" font-family="Arial" font-size="14" lengthAdjust="spacing" textLength="107" x="90.5"
                  y="223.9659">EduMateHistory
            </text>
        </g><!--class ModelManager-->
        <g id="elem_ModelManager">
            <rect codeLine="13" fill="#D42E12" height="29.0679" id="ModelManager" rx="2.5" ry="2.5"
                  style="stroke:#FFFFFF;stroke-width:1.0;" width="109" x="383.5" y="204"/>
            <text fill="#FFFFFF" font-family="Arial" font-size="14" lengthAdjust="spacing" textLength="103" x="386.5"
                  y="223.9659">ModelManager
            </text>
        </g><!--class UserPrefs-->
        <g id="elem_UserPrefs">
            <rect codeLine="14" fill="#D42E12" height="29.0679" id="UserPrefs" rx="2.5" ry="2.5"
                  style="stroke:#FFFFFF;stroke-width:1.0;" width="71" x="540.5" y="204"/>
            <text fill="#FFFFFF" font-family="Arial" font-size="14" lengthAdjust="spacing" textLength="65" x="543.5"
                  y="223.9659">UserPrefs
            </text>
        </g><!--class UniquePersonList-->
        <g id="elem_UniquePersonList">
            <rect codeLine="16" fill="#D42E12" height="29.0679" id="UniquePersonList" rx="2.5" ry="2.5"
                  style="stroke:#FFFFFF;stroke-width:1.0;" width="124" x="193" y="293"/>
            <text fill="#FFFFFF" font-family="Arial" font-size="14" lengthAdjust="spacing" textLength="118" x="196"
                  y="312.9659">UniquePersonList
            </text>
        </g><!--class Person-->
        <g id="elem_Person">
            <rect codeLine="17" fill="#D42E12" height="29.0679" id="Person" rx="2.5" ry="2.5"
                  style="stroke:#FFFFFF;stroke-width:1.0;" width="52" x="351" y="382"/>
            <text fill="#FFFFFF" font-family="Arial" font-size="14" lengthAdjust="spacing" textLength="46" x="354"
                  y="401.9659">Person
            </text>
        </g><!--class User-->
        <g id="elem_User">
            <rect codeLine="18" fill="#D42E12" height="29.0679" id="User" rx="2.5" ry="2.5"
                  style="stroke:#FFFFFF;stroke-width:1.0;" width="50" x="352" y="293"/>
            <text fill="#FFFFFF" font-family="Arial" font-size="14" lengthAdjust="spacing" textLength="31" x="361.5"
                  y="312.9659">User
            </text>
        </g><!--class HiddenOutside-->
        <g id="elem_HiddenOutside">
            <rect codeLine="21" fill="#FFFFFF" height="29.0679" id="HiddenOutside" rx="2.5" ry="2.5"
                  style="stroke:#FFFFFF;stroke-width:1.0;" width="108" x="389" y="7"/>
            <text fill="#FFFFFF" font-family="Arial" font-size="14" lengthAdjust="spacing" textLength="102" x="392"
                  y="26.9659">HiddenOutside
            </text>
        </g><!--link HiddenOutside to Model1-->
        <g id="link_HiddenOutside_Model1">
            <path codeLine="22" d="M443,36.33 C443,50.07 443,71.57 443,89.21 " fill="none" id="HiddenOutside-to-Model1"
                  style="stroke:#D42E12;stroke-width:1.1;stroke-dasharray:7.0,7.0;"/>
            <polygon fill="#D42E12" points="443,94,447,85,443,89,439,85,443,94"
                     style="stroke:#D42E12;stroke-width:1.1;"/>
        </g><!--reverse link ReadOnlyEduMate to EduMate-->
        <g id="link_ReadOnlyEduMate_EduMate">
            <path codeLine="24" d="M303.85,165.67 C304.42,179.43 305.01,193.57 305.42,203.6 " fill="none"
                  id="ReadOnlyEduMate-backto-EduMate"
                  style="stroke:#D42E12;stroke-width:1.1;stroke-dasharray:7.0,7.0;"/>
            <polygon fill="none" points="296.87,166.14,303.03,145.87,310.85,165.57,296.87,166.14"
                     style="stroke:#D42E12;stroke-width:1.1;"/>
        </g><!--reverse link ReadOnlyEduMateHistory to EduMateHistory-->
        <g id="link_ReadOnlyEduMateHistory_EduMateHistory">
            <path codeLine="26" d="M126.48,164.68 C131.15,178.74 135.99,193.33 139.39,203.6 " fill="none"
                  id="ReadOnlyEduMateHistory-backto-EduMateHistory"
                  style="stroke:#D42E12;stroke-width:1.1;stroke-dasharray:7.0,7.0;"/>
            <polygon fill="none" points="119.87,166.98,120.22,145.8,133.16,162.58,119.87,166.98"
                     style="stroke:#D42E12;stroke-width:1.1;"/>
        </g><!--reverse link Model1 to ModelManager-->
        <g id="link_Model1_ModelManager">
            <path codeLine="28" d="M440.69,165.67 C439.97,179.43 439.24,193.57 438.72,203.6 " fill="none"
                  id="Model1-backto-ModelManager" style="stroke:#D42E12;stroke-width:1.1;stroke-dasharray:7.0,7.0;"/>
            <polygon fill="none" points="433.69,165.48,441.71,145.87,447.67,166.21,433.69,165.48"
                     style="stroke:#D42E12;stroke-width:1.1;"/>
        </g><!--link Model1 to ReadOnlyUserPrefs-->
        <g id="link_Model1_ReadOnlyUserPrefs">
            <path codeLine="29" d="M483.5,120 C492.72,120 501.93,120 511.15,120 " fill="none"
                  id="Model1-to-ReadOnlyUserPrefs" style="stroke:#D42E12;stroke-width:1.1;stroke-dasharray:7.0,7.0;"/>
            <polygon fill="#D42E12" points="516.02,120,507.02,116,511.02,120,507.02,124,516.02,120"
                     style="stroke:#D42E12;stroke-width:1.1;"/>
        </g><!--reverse link ReadOnlyEduMate to Model1-->
        <g id="link_ReadOnlyEduMate_Model1">
            <path codeLine="30" d="M374.1,120 C383.65,120 393.21,120 402.77,120 " fill="none"
                  id="ReadOnlyEduMate-backto-Model1" style="stroke:#D42E12;stroke-width:1.1;stroke-dasharray:7.0,7.0;"/>
            <polygon fill="#D42E12" points="369.33,120,378.33,124,374.33,120,378.33,116,369.33,120"
                     style="stroke:#D42E12;stroke-width:1.1;"/>
        </g><!--reverse link ReadOnlyEduMateHistory to Model1-->
        <g id="link_ReadOnlyEduMateHistory_Model1">
            <path codeLine="31"
                  d="M143.04,91.81 C166.68,72.74 201.09,49.82 236.5,43 C268.94,36.75 358.3,30.54 385,50 C401.96,62.36 416.96,80.77 427.45,95.61 "
                  fill="none" id="ReadOnlyEduMateHistory-backto-Model1"
                  style="stroke:#D42E12;stroke-width:1.1;stroke-dasharray:7.0,7.0;"/>
            <polygon fill="#D42E12" points="139.34,94.86,148.837,92.251,143.2079,91.6915,143.7674,86.0624,139.34,94.86"
                     style="stroke:#D42E12;stroke-width:1.1;"/>
        </g><!--reverse link EduMate to ModelManager-->
        <g id="link_EduMate_ModelManager">
            <path codeLine="32" d="M345.44,218.5 C358.04,218.5 370.63,218.5 383.23,218.5 " fill="none"
                  id="EduMate-backto-ModelManager" style="stroke:#D42E12;stroke-width:1.1;"/>
            <polygon fill="#D42E12" points="340.77,218.5,349.77,222.5,345.77,218.5,349.77,214.5,340.77,218.5"
                     style="stroke:#D42E12;stroke-width:1.1;"/>
            <text fill="#000000" font-family="sans-serif" font-size="13" lengthAdjust="spacing" textLength="7"
                  x="346.8418" y="213.7097">1
            </text>
        </g><!--link ModelManager to UserPrefs-->
        <g id="link_ModelManager_UserPrefs">
            <path codeLine="33" d="M492.98,218.5 C506.58,218.5 520.17,218.5 533.76,218.5 " fill="none"
                  id="ModelManager-to-UserPrefs" style="stroke:#D42E12;stroke-width:1.1;"/>
            <polygon fill="#D42E12" points="538.49,218.5,529.49,214.5,533.49,218.5,529.49,222.5,538.49,218.5"
                     style="stroke:#D42E12;stroke-width:1.1;"/>
            <text fill="#000000" font-family="sans-serif" font-size="13" lengthAdjust="spacing" textLength="7"
                  x="525.4703" y="213.8375">1
            </text>
        </g><!--reverse link EduMateHistory to ModelManager-->
        <g id="link_EduMateHistory_ModelManager">
            <path codeLine="34"
                  d="M179.15,201.07 C218.05,183.98 282.64,162.08 338.5,174 C365.15,179.69 393.3,193.06 412.83,203.67 "
                  fill="none" id="EduMateHistory-backto-ModelManager" style="stroke:#D42E12;stroke-width:1.1;"/>
            <polygon fill="#D42E12"
                     points="174.98,202.94,184.8288,202.9085,179.5425,200.8947,181.5564,195.6085,174.98,202.94"
                     style="stroke:#D42E12;stroke-width:1.1;"/>
            <text fill="#000000" font-family="sans-serif" font-size="13" lengthAdjust="spacing" textLength="7"
                  x="175.8981" y="192.2202">1
            </text>
        </g><!--reverse link ReadOnlyUserPrefs to UserPrefs-->
        <g id="link_ReadOnlyUserPrefs_UserPrefs">
            <path codeLine="35" d="M581.37,165.67 C579.95,179.43 578.48,193.57 577.44,203.6 " fill="none"
                  id="ReadOnlyUserPrefs-backto-UserPrefs"
                  style="stroke:#D42E12;stroke-width:1.1;stroke-dasharray:7.0,7.0;"/>
            <polygon fill="none" points="574.4,165.04,583.42,145.87,588.32,166.48,574.4,165.04"
                     style="stroke:#D42E12;stroke-width:1.1;"/>
        </g><!--link EduMate to UniquePersonList-->
        <g id="link_EduMate_UniquePersonList">
            <path codeLine="37" d="M290.54,245.87 C284.13,256.8 276.72,269.44 270.33,280.35 " fill="none"
                  id="EduMate-UniquePersonList" style="stroke:#D42E12;stroke-width:1.1;"/>
            <polygon fill="#D42E12"
                     points="297.04,234.78,290.5554,237.9344,290.9731,245.1334,297.4577,241.979,297.04,234.78"
                     style="stroke:#D42E12;stroke-width:1.1;"/>
            <polygon fill="#D42E12"
                     points="263.94,291.25,271.9468,285.5149,266.472,286.9385,265.0484,281.4637,263.94,291.25"
                     style="stroke:#D42E12;stroke-width:1.1;"/>
            <line style="stroke:#D42E12;stroke-width:1.1;" x1="266.472" x2="270.515" y1="286.9385" y2="280.035"/>
            <text fill="#000000" font-family="sans-serif" font-size="13" lengthAdjust="spacing" textLength="7"
                  x="257.8337" y="281.2202">1
            </text>
        </g><!--link EduMate to User-->
        <g id="link_EduMate_User">
            <path codeLine="38" d="M326.39,244.48 C335.85,256.07 347.07,269.82 356.53,281.42 " fill="none"
                  id="EduMate-User" style="stroke:#D42E12;stroke-width:1.1;"/>
            <polygon fill="#D42E12"
                     points="318.36,234.65,319.0525,241.8278,325.9445,243.9492,325.252,236.7715,318.36,234.65"
                     style="stroke:#D42E12;stroke-width:1.1;"/>
            <polygon fill="#D42E12"
                     points="364.66,291.38,362.0714,281.8774,361.4998,287.5053,355.8719,286.9337,364.66,291.38"
                     style="stroke:#D42E12;stroke-width:1.1;"/>
            <line style="stroke:#D42E12;stroke-width:1.1;" x1="361.4998" x2="356.445" y1="287.5053" y2="281.315"/>
            <text fill="#000000" font-family="sans-serif" font-size="13" lengthAdjust="spacing" textLength="7"
                  x="353.319" y="281.2202">1
            </text>
        </g><!--link User to Person-->
        <g id="link_User_Person">
            <path codeLine="39" d="M377,322.48 C377,332.75 377,347.19 377,360.51 " fill="none" id="User-to-Person"
                  style="stroke:#D42E12;stroke-width:1.1;"/>
            <polygon fill="none" points="384,360.04,377,380.04,370,360.04,384,360.04"
                     style="stroke:#D42E12;stroke-width:1.1;"/>
        </g><!--link UniquePersonList to Person-->
        <g id="link_UniquePersonList_Person">
            <path codeLine="40" d="M274.6,322.48 C295.68,337.51 329.24,361.44 352.15,377.78 " fill="none"
                  id="UniquePersonList-to-Person" style="stroke:#D42E12;stroke-width:1.1;"/>
            <polygon fill="#D42E12"
                     points="356.21,380.68,351.2001,372.2006,352.1375,377.7792,346.5588,378.7166,356.21,380.68"
                     style="stroke:#D42E12;stroke-width:1.1;"/>
            <text fill="#000000" font-family="sans-serif" font-size="13" lengthAdjust="spacing" textLength="23"
                  x="323.3884" y="370.2202">* all
            </text>
        </g><!--link ModelManager to Person-->
        <g id="link_ModelManager_Person">
            <path codeLine="42"
                  d="M436.9,233.49 C434.99,253.59 430.15,291.58 419,322 C411.86,341.49 399.81,361.85 390.45,376.18 "
                  fill="none" id="ModelManager-to-Person" style="stroke:#D42E12;stroke-width:1.1;"/>
            <polygon fill="#D42E12"
                     points="387.71,380.3,396.0096,374.9974,390.467,376.1288,389.3356,370.5862,387.71,380.3"
                     style="stroke:#D42E12;stroke-width:1.1;"/>
            <text fill="#000000" font-family="sans-serif" font-size="13" lengthAdjust="spacing" textLength="52"
                  x="399.6623" y="370.2202">* filtered
            </text>
        </g><!--SRC=[ZP9DRuCm38Rl-HKUkrKY4dV4OLsh7egegkqsQOg8eL7Jq2MWgTh7Rr-WIGVqO-C0o7vU-usTEw5osN04KnyaqdspayHiXTeppNR0jAxUdpOYtoeq1Y8QZPFJIbOQqknnjdoTPijitGDooOnvOFcsr5MZ-3bALZR9IeIquYWXZjUOrqoL4fC4FiYqrKCGnqBLg0kMs_2BMYFZcPA76MzILcC0pC0ezZ_bGfYwqeTB1LpgZphF1lLAOs469KxHA-hkh9sY-uiSDhH-qKV7fqpPYMaN-ctc0qgyDRX2RIgrj6eNFWPw8lBb5Gl1EQgigOsmr-1-tZra6AKqyMw9imQqsTFFv6pqP6Zz2kOFHlfdygphTFm0rQBSr3IvC61FI2pwWBToE-qj31o4BHic44G13CgSWCwD8qPERXJnpKwAyLnwY_G3deI-pNYdvqIxqVO5OMYBkcsFTT3XtnDWqbv01usiXqaB54BQ6ulSKpy0]-->
    </g>
</svg>
