<?xml version="1.0" encoding="us-ascii" standalone="no"?><svg xmlns="http://www.w3.org/2000/svg" xmlns:xlink="http://www.w3.org/1999/xlink" contentStyleType="text/css" height="327px" preserveAspectRatio="none" style="width:531px;height:327px;background:#FFFFFF;" version="1.1" viewBox="0 0 531 327" width="531px" zoomAndPan="magnify"><defs/><g><!--class ReadOnlyXYZList--><g id="elem_ReadOnlyXYZList"><rect codeLine="9" fill="#9D0012" height="41.2813" id="ReadOnlyXYZList" rx="2.5" ry="2.5" style="stroke:#9D0012;stroke-width:1.0;" width="116" x="129.5" y="7"/><text fill="#FFFFFF" font-family="Arial" font-size="14" lengthAdjust="spacing" textLength="71" x="152" y="24.6738">&#171;interface&#187;</text><text fill="#FFFFFF" font-family="Arial" font-size="14" lengthAdjust="spacing" textLength="110" x="132.5" y="40.3145">ReadOnlyXYZList</text></g><!--class ReadOnlyUserPrefs--><g id="elem_ReadOnlyUserPrefs"><rect codeLine="10" fill="#9D0012" height="41.2813" id="ReadOnlyUserPrefs" rx="2.5" ry="2.5" style="stroke:#9D0012;stroke-width:1.0;" width="131" x="393" y="7"/><text fill="#FFFFFF" font-family="Arial" font-size="14" lengthAdjust="spacing" textLength="71" x="423" y="24.6738">&#171;interface&#187;</text><text fill="#FFFFFF" font-family="Arial" font-size="14" lengthAdjust="spacing" textLength="125" x="396" y="40.3145">ReadOnlyUserPrefs</text></g><!--class Model--><g id="elem_Model"><rect codeLine="11" fill="#9D0012" height="41.2813" id="Model" rx="2.5" ry="2.5" style="stroke:#9D0012;stroke-width:1.0;" width="77" x="281" y="7"/><text fill="#FFFFFF" font-family="Arial" font-size="14" lengthAdjust="spacing" textLength="71" x="284" y="24.6738">&#171;interface&#187;</text><text fill="#FFFFFF" font-family="Arial" font-size="14" lengthAdjust="spacing" textLength="38" x="300.5" y="40.3145">Model</text></g><!--class XYZList--><g id="elem_XYZList"><rect codeLine="12" fill="#9D0012" height="25.6406" id="XYZList" rx="2.5" ry="2.5" style="stroke:#9D0012;stroke-width:1.0;" width="53" x="181" y="108"/><text fill="#FFFFFF" font-family="Arial" font-size="14" lengthAdjust="spacing" textLength="47" x="184" y="125.6738">XYZList</text></g><!--class ModelManager--><g id="elem_ModelManager"><rect codeLine="13" fill="#9D0012" height="25.6406" id="ModelManager" rx="2.5" ry="2.5" style="stroke:#9D0012;stroke-width:1.0;" width="100" x="269.5" y="108"/><text fill="#FFFFFF" font-family="Arial" font-size="14" lengthAdjust="spacing" textLength="94" x="272.5" y="125.6738">ModelManager</text></g><!--class UserPrefs--><g id="elem_UserPrefs"><rect codeLine="14" fill="#9D0012" height="25.6406" id="UserPrefs" rx="2.5" ry="2.5" style="stroke:#9D0012;stroke-width:1.0;" width="68" x="414.5" y="108"/><text fill="#FFFFFF" font-family="Arial" font-size="14" lengthAdjust="spacing" textLength="62" x="417.5" y="125.6738">UserPrefs</text></g><!--class UniqueXYZList--><g id="elem_UniqueXYZList"><rect codeLine="15" fill="#9D0012" height="25.6406" id="UniqueXYZList" rx="2.5" ry="2.5" style="stroke:#9D0012;stroke-width:1.0;" width="97" x="166" y="194"/><text fill="#FFFFFF" font-family="Arial" font-size="14" lengthAdjust="spacing" textLength="91" x="169" y="211.6738">UniqueXYZList</text></g><!--class XYZ--><g id="elem_XYZ"><rect codeLine="16" fill="#9D0012" height="25.6406" id="XYZ" rx="2.5" ry="2.5" style="stroke:#9D0012;stroke-width:1.0;" width="50" x="189.5" y="287.5"/><text fill="#FFFFFF" font-family="Arial" font-size="14" lengthAdjust="spacing" textLength="25" x="202" y="305.1738">XYZ</text></g><!--class Item--><g id="elem_Item"><rect codeLine="17" fill="#9D0012" height="41.2813" id="Item" rx="2.5" ry="2.5" style="stroke:#9D0012;stroke-width:1.0;" width="67" x="65" y="280"/><text fill="#FFFFFF" font-family="Arial" font-size="14" lengthAdjust="spacing" textLength="61" x="68" y="297.6738">{abstract}</text><text fill="#FFFFFF" font-family="Arial" font-size="14" lengthAdjust="spacing" textLength="26" x="85.5" y="313.3145">Item</text></g><!--class ItemList--><g id="elem_ItemList"><rect codeLine="18" fill="#9D0012" height="25.6406" id="ItemList" rx="2.5" ry="2.5" style="stroke:#9D0012;stroke-width:1.0;" width="139" x="7" y="108"/><text fill="#FFFFFF" font-family="Arial" font-size="14" lengthAdjust="spacing" textLength="48" x="10" y="125.6738">ItemList</text><rect fill="#FFFFFF" height="17.9609" style="stroke:#9D0012;stroke-width:1.0;stroke-dasharray:2.0,2.0;" width="83" x="66" y="105"/><text fill="#000000" font-family="sans-serif" font-size="12" font-style="italic" lengthAdjust="spacing" textLength="81" x="67" y="118.9492">T extends Item</text></g><!--class UniqueItemList--><g id="elem_UniqueItemList"><rect codeLine="19" fill="#9D0012" height="25.6406" id="UniqueItemList" rx="2.5" ry="2.5" style="stroke:#9D0012;stroke-width:1.0;" width="109" x="22" y="194"/><text fill="#FFFFFF" font-family="Arial" font-size="14" lengthAdjust="spacing" textLength="92" x="25" y="211.6738">UniqueItemList</text><rect fill="#FFFFFF" height="17.9609" style="stroke:#9D0012;stroke-width:1.0;stroke-dasharray:2.0,2.0;" width="9" x="125" y="191"/><text fill="#000000" font-family="sans-serif" font-size="12" font-style="italic" lengthAdjust="spacing" textLength="7" x="126" y="204.9492">T</text></g><!--reverse link Model to ModelManager--><g id="link_Model_ModelManager"><path codeLine="21" d="M319.5,69.83 C319.5,83.63 319.5,97.96 319.5,107.76 " fill="none" id="Model-backto-ModelManager" style="stroke:#9D0012;stroke-width:1.1;stroke-dasharray:7.0,7.0;"/><polygon fill="none" points="312.5,69.87,319.5,49.87,326.5,69.87,312.5,69.87" style="stroke:#9D0012;stroke-width:1.1;"/></g><!--link Model to ReadOnlyUserPrefs--><g id="link_Model_ReadOnlyUserPrefs"><path codeLine="22" d="M358.32,27.5 C367.65,27.5 376.98,27.5 386.3,27.5 " fill="none" id="Model-to-ReadOnlyUserPrefs" style="stroke:#9D0012;stroke-width:1.1;stroke-dasharray:7.0,7.0;"/><polygon fill="#9D0012" points="391.24,27.5,382.24,23.5,386.24,27.5,382.24,31.5,391.24,27.5" style="stroke:#9D0012;stroke-width:1.1;"/></g><!--reverse link ReadOnlyXYZList to Model--><g id="link_ReadOnlyXYZList_Model"><path codeLine="23" d="M252.03,27.5 C261.56,27.5 271.09,27.5 280.62,27.5 " fill="none" id="ReadOnlyXYZList-backto-Model" style="stroke:#9D0012;stroke-width:1.1;stroke-dasharray:7.0,7.0;"/><polygon fill="#9D0012" points="247.28,27.5,256.28,31.5,252.28,27.5,256.28,23.5,247.28,27.5" style="stroke:#9D0012;stroke-width:1.1;"/></g><!--reverse link XYZList to ModelManager--><g id="link_XYZList_ModelManager"><path codeLine="24" d="M240.48,121 C250.04,121 259.61,121 269.18,121 " fill="none" id="XYZList-backto-ModelManager" style="stroke:#9D0012;stroke-width:1.1;"/><polygon fill="#9D0012" points="235.7,121,244.7,125,240.7,121,244.7,117,235.7,121" style="stroke:#9D0012;stroke-width:1.1;"/><text fill="#000000" font-family="sans-serif" font-size="13" lengthAdjust="spacing" textLength="7" x="246.0363" y="116.0357">1</text></g><!--link ModelManager to UserPrefs--><g id="link_ModelManager_UserPrefs"><path codeLine="25" d="M369.89,121 C382.56,121 395.22,121 407.89,121 " fill="none" id="ModelManager-to-UserPrefs" style="stroke:#9D0012;stroke-width:1.1;"/><polygon fill="#9D0012" points="412.59,121,403.59,117,407.59,121,403.59,125,412.59,121" style="stroke:#9D0012;stroke-width:1.1;"/><text fill="#000000" font-family="sans-serif" font-size="13" lengthAdjust="spacing" textLength="7" x="395.506" y="116.47">1</text></g><!--reverse link ReadOnlyUserPrefs to UserPrefs--><g id="link_ReadOnlyUserPrefs_UserPrefs"><path codeLine="26" d="M455.65,54.55 C453.74,72.02 451.32,94.22 449.84,107.76 " fill="none" id="ReadOnlyUserPrefs-backto-UserPrefs" style="stroke:#9D0012;stroke-width:1.1;stroke-dasharray:7.0,7.0;"/><polygon fill="#9D0012" points="456.17,49.86,451.2167,58.3726,455.6272,54.8305,459.1694,59.241,456.17,49.86" style="stroke:#9D0012;stroke-width:1.1;"/></g><!--reverse link ReadOnlyXYZList to XYZList--><g id="link_ReadOnlyXYZList_XYZList"><path codeLine="28" d="M196.43,69.33 C199.47,83.28 202.66,97.85 204.82,107.76 " fill="none" id="ReadOnlyXYZList-backto-XYZList" style="stroke:#9D0012;stroke-width:1.1;stroke-dasharray:7.0,7.0;"/><polygon fill="none" points="189.6,70.87,192.16,49.83,203.27,67.88,189.6,70.87" style="stroke:#9D0012;stroke-width:1.1;"/></g><!--link XYZList to UniqueXYZList--><g id="link_XYZList_UniqueXYZList"><path codeLine="29" d="M209.71,148.58 C210.53,158.34 211.45,169.39 212.26,179.17 " fill="none" id="XYZList-UniqueXYZList" style="stroke:#9D0012;stroke-width:1.1;"/><polygon fill="#9D0012" points="208.66,135.9,205.175,142.213,209.662,147.8581,213.147,141.545,208.66,135.9" style="stroke:#9D0012;stroke-width:1.1;"/><polygon fill="#9D0012" points="213.34,192.05,216.5745,182.7474,212.9225,187.0675,208.6025,183.4154,213.34,192.05" style="stroke:#9D0012;stroke-width:1.1;"/><line style="stroke:#9D0012;stroke-width:1.1;" x1="212.9225" x2="212.255" y1="187.0675" y2="179.09"/><text fill="#000000" font-family="sans-serif" font-size="13" lengthAdjust="spacing" textLength="7" x="198.1484" y="182.6042">1</text></g><!--link UniqueXYZList to XYZ--><g id="link_UniqueXYZList_XYZ"><path codeLine="30" d="M214.5,220.34 C214.5,235.89 214.5,262.77 214.5,280.84 " fill="none" id="UniqueXYZList-to-XYZ" style="stroke:#9D0012;stroke-width:1.1;"/><polygon fill="#9D0012" points="214.5,285.55,218.5,276.55,214.5,280.55,210.5,276.55,214.5,285.55" style="stroke:#9D0012;stroke-width:1.1;"/><text fill="#000000" font-family="sans-serif" font-size="13" lengthAdjust="spacing" textLength="22" x="183.7063" y="276.1179">* all</text></g><!--link ModelManager to XYZ--><g id="link_ModelManager_XYZ"><path codeLine="32" d="M315.97,134.33 C310.19,153.49 297.61,191.19 280.5,220 C266.47,243.62 245.61,267.44 231.11,282.76 " fill="none" id="ModelManager-to-XYZ" style="stroke:#9D0012;stroke-width:1.1;"/><polygon fill="#9D0012" points="227.87,286.13,236.9816,282.3911,231.3261,282.5168,231.2004,276.8613,227.87,286.13" style="stroke:#9D0012;stroke-width:1.1;"/><text fill="#000000" font-family="sans-serif" font-size="13" lengthAdjust="spacing" textLength="47" x="249.5036" y="276.3505">* filtered</text></g><!--link ItemList to UniqueItemList--><g id="link_ItemList_UniqueItemList"><path codeLine="34" d="M76.5,148.58 C76.5,158.34 76.5,169.39 76.5,179.17 " fill="none" id="ItemList-UniqueItemList" style="stroke:#9D0012;stroke-width:1.1;"/><polygon fill="#9D0012" points="76.5,135.91,72.5,141.91,76.5,147.91,80.5,141.91,76.5,135.91" style="stroke:#9D0012;stroke-width:1.1;"/><polygon fill="#9D0012" points="76.5,192.04,80.5,183.04,76.5,187.04,72.5,183.04,76.5,192.04" style="stroke:#9D0012;stroke-width:1.1;"/><line style="stroke:#9D0012;stroke-width:1.1;" x1="76.5" x2="76.5" y1="187.04" y2="179.04"/><text fill="#000000" font-family="sans-serif" font-size="13" lengthAdjust="spacing" textLength="7" x="63.4719" y="182.6042">1</text></g><!--link UniqueItemList to Item--><g id="link_UniqueItemList_Item"><path codeLine="35" d="M79.47,220.34 C82.73,233.89 88.05,256.05 92.24,273.48 " fill="none" id="UniqueItemList-to-Item" style="stroke:#9D0012;stroke-width:1.1;"/><polygon fill="#9D0012" points="93.38,278.2,95.1584,268.513,92.2077,273.3394,87.3814,270.3887,93.38,278.2" style="stroke:#9D0012;stroke-width:1.1;"/><text fill="#000000" font-family="sans-serif" font-size="13" lengthAdjust="spacing" textLength="5" x="79.2512" y="268.8172">*</text></g><!--reverse link UniqueItemList to UniqueXYZList--><g id="link_UniqueItemList_UniqueXYZList"><path codeLine="37" d="M152.77,207 C157.02,207 161.28,207 165.53,207 " fill="none" id="UniqueItemList-backto-UniqueXYZList" style="stroke:#9D0012;stroke-width:1.1;"/><polygon fill="none" points="153,214,133,207,153,200,153,214" style="stroke:#9D0012;stroke-width:1.1;"/></g><!--reverse link ItemList to XYZList--><g id="link_ItemList_XYZList"><path codeLine="38" d="M167.85,121 C172.15,121 176.45,121 180.75,121 " fill="none" id="ItemList-backto-XYZList" style="stroke:#9D0012;stroke-width:1.1;"/><polygon fill="none" points="167.86,128,147.86,121,167.86,114,167.86,128" style="stroke:#9D0012;stroke-width:1.1;"/></g><!--reverse link Item to XYZ--><g id="link_Item_XYZ"><path codeLine="39" d="M138.69,300.5 C155.52,300.5 172.36,300.5 189.19,300.5 " fill="none" id="Item-backto-XYZ" style="stroke:#9D0012;stroke-width:1.1;"/><polygon fill="#9D0012" points="134,300.5,143,304.5,139,300.5,143,296.5,134,300.5" style="stroke:#9D0012;stroke-width:1.1;"/></g><!--SRC=[XL5TQy8m57tFhxZhez12toKFStiOA1sYi0rXnEJgWcdYafHDzl7RbzPMJLMMXt9pxZdddjpUICrL9H2StodCjbMfYDj8lMMMbS2iDH-pDyat6fs3FClxpP5HniAakBiVluwASJ4z8N35dBjbVBEsfjBYd4gysO8ti3JUcnA4jCYzD9eGCggra0o7KdkqAyQHqeMU8XE5LhkdvvUnT3u1vg27_QESExIF5bSkqXxGA-g94QWQHLErh7XYqvampTPeMwXlEzVolS9O5cxTq2-sTDuoxdyM-i5ZsGoiYvPGbxLoE0FyzAZ57gAH-v542JdD15bMVTFs0Sqt89PUs47NLFHikP5XcWP60da2Lzh1FSa3usXzgEeqbsQJrgfDsv_VTGTfAkhPtGaPukL6jn0ba7y7m9I29YtfHqrfC0kCbLJXlwDeMTqsmq3HFIPQCucl4CTgpY3P_yIpJ2eyiESMDq_X_RPhv0y0]--></g></svg>