<?xml version="1.0" encoding="UTF-8" standalone="no"?><svg xmlns="http://www.w3.org/2000/svg" xmlns:xlink="http://www.w3.org/1999/xlink" contentStyleType="text/css" height="587px" preserveAspectRatio="none" style="width:656px;height:587px;background:#FFFFFF;" version="1.1" viewBox="0 0 656 587" width="656px" zoomAndPan="magnify"><defs/><g><!--cluster Model--><g id="cluster_Model"><rect fill="none" height="523" rx="2.5" ry="2.5" style="stroke:#181818;stroke-width:1.0;" width="643" x="7" y="58"/><text fill="#000000" font-family="sans-serif" font-size="14" font-weight="bold" lengthAdjust="spacing" textLength="44" x="306.5" y="73.5352">Model</text></g><!--class ReadOnlyEduMate--><g id="elem_ReadOnlyEduMate"><rect codeLine="7" fill="#D42E12" height="42.1973" id="ReadOnlyEduMate" rx="2.5" ry="2.5" style="stroke:#FFFFFF;stroke-width:1.0;" width="126" x="228" y="93"/><text fill="#FFFFFF" font-family="Arial" font-size="14" lengthAdjust="spacing" textLength="71" x="255.5" y="111.1318">«interface»</text><text fill="#FFFFFF" font-family="Arial" font-size="14" lengthAdjust="spacing" textLength="120" x="231" y="127.2305">ReadOnlyEduMate</text></g><!--class ReadOnlyEduMateHistory--><g id="elem_ReadOnlyEduMateHistory"><rect codeLine="8" fill="#D42E12" height="42.1973" id="ReadOnlyEduMateHistory" rx="2.5" ry="2.5" style="stroke:#FFFFFF;stroke-width:1.0;" width="170" x="23" y="93"/><text fill="#FFFFFF" font-family="Arial" font-size="14" lengthAdjust="spacing" textLength="71" x="72.5" y="111.1318">«interface»</text><text fill="#FFFFFF" font-family="Arial" font-size="14" lengthAdjust="spacing" textLength="164" x="26" y="127.2305">ReadOnlyEduMateHistory</text></g><!--class ReadOnlyUserPrefs--><g id="elem_ReadOnlyUserPrefs"><rect codeLine="9" fill="#D42E12" height="42.1973" id="ReadOnlyUserPrefs" rx="2.5" ry="2.5" style="stroke:#FFFFFF;stroke-width:1.0;" width="132" x="502" y="93"/><text fill="#FFFFFF" font-family="Arial" font-size="14" lengthAdjust="spacing" textLength="71" x="532.5" y="111.1318">«interface»</text><text fill="#FFFFFF" font-family="Arial" font-size="14" lengthAdjust="spacing" textLength="126" x="505" y="127.2305">ReadOnlyUserPrefs</text></g><!--class Model1--><g id="elem_Model1"><rect codeLine="10" fill="#D42E12" height="42.1973" id="Model1" rx="2.5" ry="2.5" style="stroke:#FFFFFF;stroke-width:1.0;" width="77" x="389.5" y="93"/><text fill="#FFFFFF" font-family="Arial" font-size="14" lengthAdjust="spacing" textLength="71" x="392.5" y="111.1318">«interface»</text><text fill="#FFFFFF" font-family="Arial" font-size="14" lengthAdjust="spacing" textLength="39" x="408.5" y="127.2305">Model</text></g><!--class EduMate--><g id="elem_EduMate"><rect codeLine="11" fill="#D42E12" height="26.0986" id="EduMate" rx="2.5" ry="2.5" style="stroke:#FFFFFF;stroke-width:1.0;" width="63" x="268.5" y="195"/><text fill="#FFFFFF" font-family="Arial" font-size="14" lengthAdjust="spacing" textLength="57" x="271.5" y="213.1318">EduMate</text></g><!--class EduMateHistory--><g id="elem_EduMateHistory"><rect codeLine="12" fill="#D42E12" height="26.0986" id="EduMateHistory" rx="2.5" ry="2.5" style="stroke:#FFFFFF;stroke-width:1.0;" width="107" x="85.5" y="195"/><text fill="#FFFFFF" font-family="Arial" font-size="14" lengthAdjust="spacing" textLength="101" x="88.5" y="213.1318">EduMateHistory</text></g><!--class ModelManager--><g id="elem_ModelManager"><rect codeLine="13" fill="#D42E12" height="26.0986" id="ModelManager" rx="2.5" ry="2.5" style="stroke:#FFFFFF;stroke-width:1.0;" width="102" x="377" y="195"/><text fill="#FFFFFF" font-family="Arial" font-size="14" lengthAdjust="spacing" textLength="96" x="380" y="213.1318">ModelManager</text></g><!--class UserPrefs--><g id="elem_UserPrefs"><rect codeLine="14" fill="#D42E12" height="26.0986" id="UserPrefs" rx="2.5" ry="2.5" style="stroke:#FFFFFF;stroke-width:1.0;" width="69" x="523.5" y="195"/><text fill="#FFFFFF" font-family="Arial" font-size="14" lengthAdjust="spacing" textLength="63" x="526.5" y="213.1318">UserPrefs</text></g><!--class UniqueMeetUpList--><g id="elem_UniqueMeetUpList"><rect codeLine="16" fill="#D42E12" height="26.0986" id="UniqueMeetUpList" rx="2.5" ry="2.5" style="stroke:#FFFFFF;stroke-width:1.0;" width="123" x="23.5" y="281"/><text fill="#FFFFFF" font-family="Arial" font-size="14" lengthAdjust="spacing" textLength="117" x="26.5" y="299.1318">UniqueMeetUpList</text></g><!--class UniqueRecommendationList--><g id="elem_UniqueRecommendationList"><rect codeLine="17" fill="#D42E12" height="26.0986" id="UniqueRecommendationList" rx="2.5" ry="2.5" style="stroke:#FFFFFF;stroke-width:1.0;" width="185" x="181.5" y="281"/><text fill="#FFFFFF" font-family="Arial" font-size="14" lengthAdjust="spacing" textLength="179" x="184.5" y="299.1318">UniqueRecommendationList</text></g><!--class UniquePersonList--><g id="elem_UniquePersonList"><rect codeLine="18" fill="#D42E12" height="26.0986" id="UniquePersonList" rx="2.5" ry="2.5" style="stroke:#FFFFFF;stroke-width:1.0;" width="118" x="322" y="453"/><text fill="#FFFFFF" font-family="Arial" font-size="14" lengthAdjust="spacing" textLength="112" x="325" y="471.1318">UniquePersonList</text></g><!--class Participants--><g id="elem_Participants"><rect codeLine="20" fill="#D42E12" height="26.0986" id="Participants" rx="2.5" ry="2.5" style="stroke:#FFFFFF;stroke-width:1.0;" width="80" x="149" y="453"/><text fill="#FFFFFF" font-family="Arial" font-size="14" lengthAdjust="spacing" textLength="74" x="152" y="471.1318">Participants</text></g><!--class Person--><g id="elem_Person"><rect codeLine="21" fill="#D42E12" height="26.0986" id="Person" rx="2.5" ry="2.5" style="stroke:#FFFFFF;stroke-width:1.0;" width="51" x="402.5" y="539"/><text fill="#FFFFFF" font-family="Arial" font-size="14" lengthAdjust="spacing" textLength="45" x="405.5" y="557.1318">Person</text></g><!--class User--><g id="elem_User"><rect codeLine="22" fill="#D42E12" height="26.0986" id="User" rx="2.5" ry="2.5" style="stroke:#FFFFFF;stroke-width:1.0;" width="50" x="439" y="367"/><text fill="#FFFFFF" font-family="Arial" font-size="14" lengthAdjust="spacing" textLength="30" x="449" y="385.1318">User</text></g><!--class Recommendation--><g id="elem_Recommendation"><rect codeLine="23" fill="#D42E12" height="26.0986" id="Recommendation" rx="2.5" ry="2.5" style="stroke:#FFFFFF;stroke-width:1.0;" width="118" x="215" y="367"/><text fill="#FFFFFF" font-family="Arial" font-size="14" lengthAdjust="spacing" textLength="112" x="218" y="385.1318">Recommendation</text></g><!--class MeetUp--><g id="elem_MeetUp"><rect codeLine="24" fill="#D42E12" height="26.0986" id="MeetUp" rx="2.5" ry="2.5" style="stroke:#FFFFFF;stroke-width:1.0;" width="56" x="91" y="367"/><text fill="#FFFFFF" font-family="Arial" font-size="14" lengthAdjust="spacing" textLength="50" x="94" y="385.1318">MeetUp</text></g><!--class HiddenOutside--><g id="elem_HiddenOutside"><rect codeLine="27" fill="#FFFFFF" height="26.0986" id="HiddenOutside" rx="2.5" ry="2.5" style="stroke:#FFFFFF;stroke-width:1.0;" width="100" x="378" y="7"/><text fill="#FFFFFF" font-family="Arial" font-size="14" lengthAdjust="spacing" textLength="94" x="381" y="25.1318">HiddenOutside</text></g><!--link HiddenOutside to Model1--><g id="link_HiddenOutside_Model1"><path codeLine="28" d="M428,33.41 C428,46.95 428,69.03 428,86.5 " fill="none" id="HiddenOutside-to-Model1" style="stroke:#D42E12;stroke-width:1.1;stroke-dasharray:7.0,7.0;"/><polygon fill="#D42E12" points="428,91.2,432,82.2,428,86.2,424,82.2,428,91.2" style="stroke:#D42E12;stroke-width:1.1;"/></g><!--reverse link ReadOnlyEduMate to EduMate--><g id="link_ReadOnlyEduMate_EduMate"><path codeLine="30" d="M295.07,156.59 C296.42,170.38 297.82,184.71 298.78,194.55 " fill="none" id="ReadOnlyEduMate-backto-EduMate" style="stroke:#D42E12;stroke-width:1.1;stroke-dasharray:7.0,7.0;"/><polygon fill="none" points="288.13,157.51,293.14,136.92,302.06,156.15,288.13,157.51" style="stroke:#D42E12;stroke-width:1.1;"/></g><!--reverse link ReadOnlyEduMateHistory to EduMateHistory--><g id="link_ReadOnlyEduMateHistory_EduMateHistory"><path codeLine="32" d="M121.68,155.59 C126.43,169.69 131.41,184.48 134.81,194.55 " fill="none" id="ReadOnlyEduMateHistory-backto-EduMateHistory" style="stroke:#D42E12;stroke-width:1.1;stroke-dasharray:7.0,7.0;"/><polygon fill="none" points="115.12,158.04,115.36,136.85,128.38,153.57,115.12,158.04" style="stroke:#D42E12;stroke-width:1.1;"/></g><!--reverse link Model1 to ModelManager--><g id="link_Model1_ModelManager"><path codeLine="34" d="M428,156.59 C428,170.38 428,184.71 428,194.55 " fill="none" id="Model1-backto-ModelManager" style="stroke:#D42E12;stroke-width:1.1;stroke-dasharray:7.0,7.0;"/><polygon fill="none" points="421,156.93,428,136.93,435,156.93,421,156.93" style="stroke:#D42E12;stroke-width:1.1;"/></g><!--link Model1 to ReadOnlyUserPrefs--><g id="link_Model1_ReadOnlyUserPrefs"><path codeLine="35" d="M466.83,114 C476.34,114 485.85,114 495.36,114 " fill="none" id="Model1-to-ReadOnlyUserPrefs" style="stroke:#D42E12;stroke-width:1.1;stroke-dasharray:7.0,7.0;"/><polygon fill="#D42E12" points="500.09,114,491.09,110,495.09,114,491.09,118,500.09,114" style="stroke:#D42E12;stroke-width:1.1;"/></g><!--reverse link ReadOnlyEduMate to Model1--><g id="link_ReadOnlyEduMate_Model1"><path codeLine="36" d="M360.67,114 C370.18,114 379.69,114 389.2,114 " fill="none" id="ReadOnlyEduMate-backto-Model1" style="stroke:#D42E12;stroke-width:1.1;stroke-dasharray:7.0,7.0;"/><polygon fill="#D42E12" points="355.93,114,364.93,118,360.93,114,364.93,110,355.93,114" style="stroke:#D42E12;stroke-width:1.1;"/></g><!--reverse link ReadOnlyEduMateHistory to Model1--><g id="link_ReadOnlyEduMateHistory_Model1"><path codeLine="37" d="M137.45,88.7 C160.28,71.04 193.64,49.29 227.5,41.5 C254.79,35.22 326.21,35.22 353.5,41.5 C361.93,43.44 364.1,44.78 371,50 C387.02,62.12 401.99,79.25 412.57,92.74 " fill="none" id="ReadOnlyEduMateHistory-backto-Model1" style="stroke:#D42E12;stroke-width:1.1;stroke-dasharray:7.0,7.0;"/><polygon fill="#D42E12" points="133.64,91.7,143.1885,89.2864,137.5721,88.6115,138.247,82.9951,133.64,91.7" style="stroke:#D42E12;stroke-width:1.1;"/></g><!--reverse link EduMate to ModelManager--><g id="link_EduMate_ModelManager"><path codeLine="38" d="M338.28,208 C351.06,208 363.84,208 376.62,208 " fill="none" id="EduMate-backto-ModelManager" style="stroke:#D42E12;stroke-width:1.1;"/><polygon fill="#D42E12" points="333.51,208,342.51,212,338.51,208,342.51,204,333.51,208" style="stroke:#D42E12;stroke-width:1.1;"/><text fill="#000000" font-family="sans-serif" font-size="13" lengthAdjust="spacing" textLength="8" x="339.425" y="204.0433">1</text></g><!--link ModelManager to UserPrefs--><g id="link_ModelManager_UserPrefs"><path codeLine="39" d="M479.29,208 C491.88,208 504.48,208 517.07,208 " fill="none" id="ModelManager-to-UserPrefs" style="stroke:#D42E12;stroke-width:1.1;"/><polygon fill="#D42E12" points="521.74,208,512.74,204,516.74,208,512.74,212,521.74,208" style="stroke:#D42E12;stroke-width:1.1;"/><text fill="#000000" font-family="sans-serif" font-size="13" lengthAdjust="spacing" textLength="8" x="507.2699" y="204.0433">1</text></g><!--reverse link EduMateHistory to ModelManager--><g id="link_EduMateHistory_ModelManager"><path codeLine="40" d="M171.65,192.01 C209.9,175.29 275.23,153.03 331.5,165 C358.05,170.65 386.16,184.14 405.14,194.51 " fill="none" id="EduMateHistory-backto-ModelManager" style="stroke:#D42E12;stroke-width:1.1;"/><polygon fill="#D42E12" points="167.13,194.02,176.9788,194,171.6949,191.98,173.7149,186.6961,167.13,194.02" style="stroke:#D42E12;stroke-width:1.1;"/><text fill="#000000" font-family="sans-serif" font-size="13" lengthAdjust="spacing" textLength="8" x="166.4096" y="184.2959">1</text></g><!--reverse link ReadOnlyUserPrefs to UserPrefs--><g id="link_ReadOnlyUserPrefs_UserPrefs"><path codeLine="41" d="M563.48,156.59 C561.98,170.38 560.42,184.71 559.35,194.55 " fill="none" id="ReadOnlyUserPrefs-backto-UserPrefs" style="stroke:#D42E12;stroke-width:1.1;stroke-dasharray:7.0,7.0;"/><polygon fill="none" points="556.5,156.05,565.62,136.92,570.41,157.56,556.5,156.05" style="stroke:#D42E12;stroke-width:1.1;"/></g><!--link EduMate to UniqueMeetUpList--><g id="link_EduMate_UniqueMeetUpList"><path codeLine="43" d="M255.6931,226.3178 C255.6931,226.3178 166.72,261.07 130.1,275.38 " fill="none" id="EduMate-UniqueMeetUpList" style="stroke:#D42E12;stroke-width:1.1;"/><polygon fill="#D42E12" points="266.87,221.95,259.8256,220.4083,255.6931,226.3178,262.7375,227.8595,266.87,221.95" style="stroke:#D42E12;stroke-width:1.1;"/><polygon fill="#D42E12" points="118.26,280,128.0984,280.4537,122.9178,278.1819,125.1895,273.0013,118.26,280" style="stroke:#D42E12;stroke-width:1.1;"/><line style="stroke:#D42E12;stroke-width:1.1;" x1="122.9178" x2="130.375" y1="278.1819" y2="275.27"/><text fill="#000000" font-family="sans-serif" font-size="13" lengthAdjust="spacing" textLength="8" x="119.4678" y="270.1716">1</text></g><!--link EduMate to UniqueRecommendationList--><g id="link_EduMate_UniqueRecommendationList"><path codeLine="44" d="M292.1715,234.3033 C292.1715,234.3033 285.25,256.64 282.14,266.72 " fill="none" id="EduMate-UniqueRecommendationList" style="stroke:#D42E12;stroke-width:1.1;"/><polygon fill="#D42E12" points="295.72,222.84,290.1246,227.3888,292.1715,234.3033,297.7669,229.7545,295.72,222.84" style="stroke:#D42E12;stroke-width:1.1;"/><polygon fill="#D42E12" points="278.3,279.11,284.7903,271.7021,279.7836,274.3352,277.1505,269.3285,278.3,279.11" style="stroke:#D42E12;stroke-width:1.1;"/><line style="stroke:#D42E12;stroke-width:1.1;" x1="279.7836" x2="282.145" y1="274.3352" y2="266.69"/><text fill="#000000" font-family="sans-serif" font-size="13" lengthAdjust="spacing" textLength="8" x="269.7928" y="270.1716">1</text></g><!--link EduMate to UniquePersonList--><g id="link_EduMate_UniquePersonList"><path codeLine="45" d="M334.8825,228.6604 C334.8825,228.6604 373.96,259.17 384,281 C407.78,332.7 397.02,401.52 388.27,438.62 " fill="none" id="EduMate-UniquePersonList" style="stroke:#D42E12;stroke-width:1.1;"/><polygon fill="#D42E12" points="324.77,222.2,327.6728,228.801,334.8825,228.6604,331.9797,222.0594,324.77,222.2" style="stroke:#D42E12;stroke-width:1.1;"/><polygon fill="#D42E12" points="385.07,451.17,391.1705,443.438,386.3059,446.3252,383.4188,441.4605,385.07,451.17" style="stroke:#D42E12;stroke-width:1.1;"/><line style="stroke:#D42E12;stroke-width:1.1;" x1="386.3059" x2="388.28" y1="446.3252" y2="438.575"/><text fill="#000000" font-family="sans-serif" font-size="13" lengthAdjust="spacing" textLength="8" x="376.5718" y="442.2959">1</text></g><!--link EduMate to User--><g id="link_EduMate_User"><path codeLine="46" d="M339.1993,227.7103 C339.1993,227.7103 391.63,258.85 412,281 C431.51,302.21 445.97,332.09 454.63,353.27 " fill="none" id="EduMate-User" style="stroke:#D42E12;stroke-width:1.1;"/><polygon fill="#D42E12" points="328.56,222.16,332.0295,228.4816,339.1993,227.7103,335.7297,221.3888,328.56,222.16" style="stroke:#D42E12;stroke-width:1.1;"/><polygon fill="#D42E12" points="459.24,365.21,459.7278,355.3732,457.4381,360.546,452.2654,358.2563,459.24,365.21" style="stroke:#D42E12;stroke-width:1.1;"/><line style="stroke:#D42E12;stroke-width:1.1;" x1="457.4381" x2="454.555" y1="360.546" y2="353.08"/><text fill="#000000" font-family="sans-serif" font-size="13" lengthAdjust="spacing" textLength="8" x="448.6599" y="356.2683">1</text></g><!--link User to Person--><g id="link_User_Person"><path codeLine="47" d="M464.54,393.26 C465.09,412 465.01,448.78 458,479 C454.82,492.69 449.3,507.1 443.84,519.41 " fill="none" id="User-to-Person" style="stroke:#D42E12;stroke-width:1.1;"/><polygon fill="none" points="450.23,522.29,435.29,537.31,437.6,516.25,450.23,522.29" style="stroke:#D42E12;stroke-width:1.1;"/></g><!--link UniquePersonList to Person--><g id="link_UniquePersonList_Person"><path codeLine="48" d="M387.94,479.39 C395.85,493.54 408.86,516.8 417.9,532.95 " fill="none" id="UniquePersonList-to-Person" style="stroke:#D42E12;stroke-width:1.1;"/><polygon fill="#D42E12" points="420.3,537.23,419.4122,527.4212,417.8657,532.8626,412.4244,531.3161,420.3,537.23" style="stroke:#D42E12;stroke-width:1.1;"/><text fill="#000000" font-family="sans-serif" font-size="13" lengthAdjust="spacing" textLength="25" x="388.6209" y="528.1716">* all</text></g><!--link UniqueMeetUpList to MeetUp--><g id="link_UniqueMeetUpList_MeetUp"><path codeLine="49" d="M90.02,307.39 C95.69,321.41 104.99,344.39 111.52,360.53 " fill="none" id="UniqueMeetUpList-to-MeetUp" style="stroke:#D42E12;stroke-width:1.1;"/><polygon fill="#D42E12" points="113.39,365.15,113.7248,355.3068,111.5158,360.5146,106.3081,358.3056,113.39,365.15" style="stroke:#D42E12;stroke-width:1.1;"/><text fill="#000000" font-family="sans-serif" font-size="13" lengthAdjust="spacing" textLength="25" x="82.2729" y="356.1716">* all</text></g><!--link UniqueRecommendationList to Recommendation--><g id="link_UniqueRecommendationList_Recommendation"><path codeLine="50" d="M274,307.39 C274,321.29 274,343.99 274,360.1 " fill="none" id="UniqueRecommendationList-to-Recommendation" style="stroke:#D42E12;stroke-width:1.1;"/><polygon fill="#D42E12" points="274,365.04,278,356.04,274,360.04,270,356.04,274,365.04" style="stroke:#D42E12;stroke-width:1.1;"/><text fill="#000000" font-family="sans-serif" font-size="13" lengthAdjust="spacing" textLength="25" x="244.2344" y="356.1716">* all</text></g><!--link Participants to Person--><g id="link_Participants_Person"><path codeLine="52" d="M224.52,479.48 C270.97,495.81 351.65,524.16 396.18,539.82 " fill="none" id="Participants-to-Person" style="stroke:#D42E12;stroke-width:1.1;"/><polygon fill="#D42E12" points="400.79,541.44,393.6258,534.6817,396.0729,539.7819,390.9728,542.229,400.79,541.44" style="stroke:#D42E12;stroke-width:1.1;"/></g><!--link MeetUp to Participants--><g id="link_MeetUp_Participants"><path codeLine="53" d="M129.33,393.39 C141.32,407.79 161.18,431.62 174.66,447.8 " fill="none" id="MeetUp-to-Participants" style="stroke:#D42E12;stroke-width:1.1;"/><polygon fill="#D42E12" points="177.66,451.39,174.9747,441.9143,174.4605,447.5477,168.827,447.0335,177.66,451.39" style="stroke:#D42E12;stroke-width:1.1;"/></g><!--link ModelManager to Person--><g id="link_ModelManager_Person"><path codeLine="55" d="M436.71,221.33 C454.22,246.96 493.19,308.5 507,367 C522.24,431.55 470.88,502.09 443.73,533.83 " fill="none" id="ModelManager-to-Person" style="stroke:#D42E12;stroke-width:1.1;"/><polygon fill="#D42E12" points="440.59,537.45,449.5179,533.2916,443.8744,533.68,443.486,528.0365,440.59,537.45" style="stroke:#D42E12;stroke-width:1.1;"/><text fill="#000000" font-family="sans-serif" font-size="13" lengthAdjust="spacing" textLength="55" x="454.5069" y="528.2268">* filtered</text></g><!--SRC=[ZPDDJyCm38Rl-HLct2QrqkvJ3mmGXrMT9hWXeQZnIhGiBKagDF7nsqcpP6kw5TYXgru_jjywpXMNfMWPWZPxWMdJxWJHMouRgkWEg5Br- -ChBxSIjOPPEXi65xMe5UJ5xTtoPL4iYtKFA0NL-eQMsqhLhMJdA5dP8AqGyfgXWFbyZQMXiXAOPV115bq-JEPpBWsg3Isj_2pNI5aXnVwEjJarE06gOQ3zB_E1QrEh_QK2FlH7dIUDQgLmewCIHtKastshot1lCu_5rY_wS7nEfPsOyjAfMH0aVsinHpHFpT9cHx8TRxtReMJKy5gUXLUej9UzlgBAy98tL9hmEGUerzw_nhM3O-U3V8Lw3vmnb4LhDBShTttlVYHMqpGBao5-392sJVgPdHqpYSSqWeKXalxy0kix7VuWLRnwDMbsuJ038N3J1uALtyF1GkGWwTWaWybi0b6P8-3SU6BWv9SYeTanOpYNtjA40K-Jq6QuFoF4XLKQ8NjRTKvq-zCz84ciGRzRmpnm-FSKgB0N9u9EHcF8BzwOrnWUh2xfRxqZVSj3qOFIlnY34qcohlA62tlfaGN3Fm00]--></g></svg>
