<?xml version="1.0" encoding="us-ascii" standalone="no"?>
<svg xmlns="http://www.w3.org/2000/svg" xmlns:xlink="http://www.w3.org/1999/xlink" contentStyleType="text/css"
     height="433px" preserveAspectRatio="none" style="width:463px;height:433px;background:#FFFFFF;" version="1.1"
     viewBox="0 0 463 433" width="463px" zoomAndPan="magnify">
    <defs/>
    <g><!--cluster Model-->
        <g id="cluster_Model">
            <rect fill="none" height="369" rx="2.5" ry="2.5" style="stroke:#181818;stroke-width:1.0;" width="450" x="7"
                  y="58"/>
            <text fill="#000000" font-family="sans-serif" font-size="14" font-weight="bold" lengthAdjust="spacing"
                  textLength="43" x="210.5" y="74.9659">Model
            </text>
        </g><!--class ReadOnlyEduMate-->
        <g id="elem_ReadOnlyEduMate">
            <rect codeLine="7" fill="#D42E12" height="48.1358" id="ReadOnlyEduMate" rx="2.5" ry="2.5"
                  style="stroke:#FFFFFF;stroke-width:1.0;" width="131" x="23.5" y="96"/>
            <text fill="#FFFFFF" font-family="Arial" font-size="14" lengthAdjust="spacing" textLength="74" x="52"
                  y="115.9659">&#171;interface&#187;
            </text>
            <text fill="#FFFFFF" font-family="Arial" font-size="14" lengthAdjust="spacing" textLength="125" x="26.5"
                  y="135.0339">ReadOnlyEduMate
            </text>
        </g><!--class ReadOnlyUserPrefs-->
        <g id="elem_ReadOnlyUserPrefs">
            <rect codeLine="8" fill="#D42E12" height="48.1358" id="ReadOnlyUserPrefs" rx="2.5" ry="2.5"
                  style="stroke:#FFFFFF;stroke-width:1.0;" width="136" x="305" y="96"/>
            <text fill="#FFFFFF" font-family="Arial" font-size="14" lengthAdjust="spacing" textLength="74" x="336"
                  y="115.9659">&#171;interface&#187;
            </text>
            <text fill="#FFFFFF" font-family="Arial" font-size="14" lengthAdjust="spacing" textLength="130" x="308"
                  y="135.0339">ReadOnlyUserPrefs
            </text>
        </g><!--class Model1-->
        <g id="elem_Model1">
            <rect codeLine="9" fill="#D42E12" height="48.1358" id="Model1" rx="2.5" ry="2.5"
                  style="stroke:#FFFFFF;stroke-width:1.0;" width="80" x="190" y="96"/>
            <text fill="#FFFFFF" font-family="Arial" font-size="14" lengthAdjust="spacing" textLength="74" x="193"
                  y="115.9659">&#171;interface&#187;
            </text>
            <text fill="#FFFFFF" font-family="Arial" font-size="14" lengthAdjust="spacing" textLength="42" x="209"
                  y="135.0339">Model
            </text>
        </g><!--class EduMate-->
        <g id="elem_EduMate">
            <rect codeLine="10" fill="#D42E12" height="29.0679" id="EduMate" rx="2.5" ry="2.5"
                  style="stroke:#FFFFFF;stroke-width:1.0;" width="66" x="65" y="204"/>
            <text fill="#FFFFFF" font-family="Arial" font-size="14" lengthAdjust="spacing" textLength="60" x="68"
                  y="223.9659">EduMate
            </text>
        </g><!--class ModelManager-->
        <g id="elem_ModelManager">
            <rect codeLine="11" fill="#D42E12" height="29.0679" id="ModelManager" rx="2.5" ry="2.5"
                  style="stroke:#FFFFFF;stroke-width:1.0;" width="109" x="179.5" y="204"/>
            <text fill="#FFFFFF" font-family="Arial" font-size="14" lengthAdjust="spacing" textLength="103" x="182.5"
                  y="223.9659">ModelManager
            </text>
        </g><!--class UserPrefs-->
        <g id="elem_UserPrefs">
            <rect codeLine="12" fill="#D42E12" height="29.0679" id="UserPrefs" rx="2.5" ry="2.5"
                  style="stroke:#FFFFFF;stroke-width:1.0;" width="71" x="332.5" y="204"/>
            <text fill="#FFFFFF" font-family="Arial" font-size="14" lengthAdjust="spacing" textLength="65" x="335.5"
                  y="223.9659">UserPrefs
            </text>
        </g><!--class UniquePersonList-->
        <g id="elem_UniquePersonList">
            <rect codeLine="14" fill="#D42E12" height="29.0679" id="UniquePersonList" rx="2.5" ry="2.5"
                  style="stroke:#FFFFFF;stroke-width:1.0;" width="124" x="23" y="293"/>
            <text fill="#FFFFFF" font-family="Arial" font-size="14" lengthAdjust="spacing" textLength="118" x="26"
                  y="312.9659">UniquePersonList
            </text>
        </g><!--class Person-->
        <g id="elem_Person">
            <rect codeLine="15" fill="#D42E12" height="29.0679" id="Person" rx="2.5" ry="2.5"
                  style="stroke:#FFFFFF;stroke-width:1.0;" width="52" x="181" y="382"/>
            <text fill="#FFFFFF" font-family="Arial" font-size="14" lengthAdjust="spacing" textLength="46" x="184"
                  y="401.9659">Person
            </text>
        </g><!--class User-->
        <g id="elem_User">
            <rect codeLine="16" fill="#D42E12" height="29.0679" id="User" rx="2.5" ry="2.5"
                  style="stroke:#FFFFFF;stroke-width:1.0;" width="50" x="182" y="293"/>
            <text fill="#FFFFFF" font-family="Arial" font-size="14" lengthAdjust="spacing" textLength="31" x="191.5"
                  y="312.9659">User
            </text>
        </g><!--class HiddenOutside-->
        <g id="elem_HiddenOutside">
            <rect codeLine="19" fill="#FFFFFF" height="29.0679" id="HiddenOutside" rx="2.5" ry="2.5"
                  style="stroke:#FFFFFF;stroke-width:1.0;" width="108" x="176" y="7"/>
            <text fill="#FFFFFF" font-family="Arial" font-size="14" lengthAdjust="spacing" textLength="102" x="179"
                  y="26.9659">HiddenOutside
            </text>
        </g><!--link HiddenOutside to Model1-->
        <g id="link_HiddenOutside_Model1">
            <path codeLine="20" d="M230,36.33 C230,50.07 230,71.57 230,89.21 " fill="none" id="HiddenOutside-to-Model1"
                  style="stroke:#D42E12;stroke-width:1.1;stroke-dasharray:7.0,7.0;"/>
            <polygon fill="#D42E12" points="230,94,234,85,230,89,226,85,230,94"
                     style="stroke:#D42E12;stroke-width:1.1;"/>
        </g><!--reverse link ReadOnlyEduMate to EduMate-->
        <g id="link_ReadOnlyEduMate_EduMate">
            <path codeLine="22" d="M93.17,165.67 C94.45,179.43 95.77,193.57 96.7,203.6 " fill="none"
                  id="ReadOnlyEduMate-backto-EduMate"
                  style="stroke:#D42E12;stroke-width:1.1;stroke-dasharray:7.0,7.0;"/>
            <polygon fill="none" points="86.21,166.43,91.32,145.87,100.15,165.13,86.21,166.43"
                     style="stroke:#D42E12;stroke-width:1.1;"/>
        </g><!--reverse link Model1 to ModelManager-->
        <g id="link_Model1_ModelManager">
            <path codeLine="24" d="M231.85,165.67 C232.42,179.43 233.01,193.57 233.42,203.6 " fill="none"
                  id="Model1-backto-ModelManager" style="stroke:#D42E12;stroke-width:1.1;stroke-dasharray:7.0,7.0;"/>
            <polygon fill="none" points="224.87,166.14,231.03,145.87,238.85,165.57,224.87,166.14"
                     style="stroke:#D42E12;stroke-width:1.1;"/>
        </g><!--link Model1 to ReadOnlyUserPrefs-->
        <g id="link_Model1_ReadOnlyUserPrefs">
            <path codeLine="25" d="M270.5,120 C279.72,120 288.93,120 298.15,120 " fill="none"
                  id="Model1-to-ReadOnlyUserPrefs" style="stroke:#D42E12;stroke-width:1.1;stroke-dasharray:7.0,7.0;"/>
            <polygon fill="#D42E12" points="303.02,120,294.02,116,298.02,120,294.02,124,303.02,120"
                     style="stroke:#D42E12;stroke-width:1.1;"/>
        </g><!--reverse link ReadOnlyEduMate to Model1-->
        <g id="link_ReadOnlyEduMate_Model1">
            <path codeLine="26" d="M161.1,120 C170.65,120 180.21,120 189.77,120 " fill="none"
                  id="ReadOnlyEduMate-backto-Model1" style="stroke:#D42E12;stroke-width:1.1;stroke-dasharray:7.0,7.0;"/>
            <polygon fill="#D42E12" points="156.33,120,165.33,124,161.33,120,165.33,116,156.33,120"
                     style="stroke:#D42E12;stroke-width:1.1;"/>
        </g><!--reverse link EduMate to ModelManager-->
        <g id="link_EduMate_ModelManager">
            <path codeLine="27" d="M137.8,218.5 C151.58,218.5 165.35,218.5 179.13,218.5 " fill="none"
                  id="EduMate-backto-ModelManager" style="stroke:#D42E12;stroke-width:1.1;"/>
            <polygon fill="#D42E12" points="132.98,218.5,141.98,222.5,137.98,218.5,141.98,214.5,132.98,218.5"
                     style="stroke:#D42E12;stroke-width:1.1;"/>
            <text fill="#000000" font-family="sans-serif" font-size="13" lengthAdjust="spacing" textLength="7"
                  x="139.0951" y="213.7097">1
            </text>
        </g><!--link ModelManager to UserPrefs-->
        <g id="link_ModelManager_UserPrefs">
            <path codeLine="28" d="M288.96,218.5 C301.23,218.5 313.5,218.5 325.77,218.5 " fill="none"
                  id="ModelManager-to-UserPrefs" style="stroke:#D42E12;stroke-width:1.1;"/>
            <polygon fill="#D42E12" points="330.67,218.5,321.67,214.5,325.67,218.5,321.67,222.5,330.67,218.5"
                     style="stroke:#D42E12;stroke-width:1.1;"/>
            <text fill="#000000" font-family="sans-serif" font-size="13" lengthAdjust="spacing" textLength="7"
                  x="317.4508" y="213.7864">1
            </text>
        </g><!--reverse link ReadOnlyUserPrefs to UserPrefs-->
        <g id="link_ReadOnlyUserPrefs_UserPrefs">
            <path codeLine="29" d="M370.69,165.67 C369.97,179.43 369.24,193.57 368.72,203.6 " fill="none"
                  id="ReadOnlyUserPrefs-backto-UserPrefs"
                  style="stroke:#D42E12;stroke-width:1.1;stroke-dasharray:7.0,7.0;"/>
            <polygon fill="none" points="363.69,165.48,371.71,145.87,377.67,166.21,363.69,165.48"
                     style="stroke:#D42E12;stroke-width:1.1;"/>
        </g><!--link EduMate to UniquePersonList-->
        <g id="link_EduMate_UniquePersonList">
            <path codeLine="31" d="M93.78,247.75 C92.31,257.59 90.66,268.63 89.19,278.46 " fill="none"
                  id="EduMate-UniquePersonList" style="stroke:#D42E12;stroke-width:1.1;"/>
            <polygon fill="#D42E12" points="95.69,234.97,90.85,240.3155,93.9228,246.8392,98.7628,241.4936,95.69,234.97"
                     style="stroke:#D42E12;stroke-width:1.1;"/>
            <polygon fill="#D42E12" points="87.31,291.06,92.5918,282.7472,88.0463,286.1145,84.679,281.5691,87.31,291.06"
                     style="stroke:#D42E12;stroke-width:1.1;"/>
            <line style="stroke:#D42E12;stroke-width:1.1;" x1="88.0463" x2="89.23" y1="286.1145" y2="278.2"/>
            <text fill="#000000" font-family="sans-serif" font-size="13" lengthAdjust="spacing" textLength="7"
                  x="79.5741" y="281.2202">1
            </text>
        </g><!--link EduMate to User-->
        <g id="link_EduMate_User">
            <path codeLine="32" d="M126.74,242.44 C142.64,255.13 162.33,270.85 178.24,283.54 " fill="none"
                  id="EduMate-User" style="stroke:#D42E12;stroke-width:1.1;"/>
            <polygon fill="#D42E12"
                     points="116.7,234.42,118.8971,241.2883,126.082,241.9018,123.8849,235.0336,116.7,234.42"
                     style="stroke:#D42E12;stroke-width:1.1;"/>
            <polygon fill="#D42E12"
                     points="188.35,291.61,183.815,282.8674,184.4435,288.4892,178.8217,289.1178,188.35,291.61"
                     style="stroke:#D42E12;stroke-width:1.1;"/>
            <line style="stroke:#D42E12;stroke-width:1.1;" x1="184.4435" x2="178.19" y1="288.4892" y2="283.505"/>
            <text fill="#000000" font-family="sans-serif" font-size="13" lengthAdjust="spacing" textLength="7"
                  x="175.0594" y="281.2202">1
            </text>
        </g><!--link User to Person-->
        <g id="link_User_Person">
            <path codeLine="33" d="M207,322.48 C207,332.75 207,347.19 207,360.51 " fill="none" id="User-to-Person"
                  style="stroke:#D42E12;stroke-width:1.1;"/>
            <polygon fill="none" points="214,360.04,207,380.04,200,360.04,214,360.04"
                     style="stroke:#D42E12;stroke-width:1.1;"/>
        </g><!--link UniquePersonList to Person-->
        <g id="link_UniquePersonList_Person">
            <path codeLine="34" d="M104.6,322.48 C125.68,337.51 159.24,361.44 182.15,377.78 " fill="none"
                  id="UniquePersonList-to-Person" style="stroke:#D42E12;stroke-width:1.1;"/>
            <polygon fill="#D42E12"
                     points="186.21,380.68,181.2001,372.2006,182.1375,377.7792,176.5588,378.7166,186.21,380.68"
                     style="stroke:#D42E12;stroke-width:1.1;"/>
            <text fill="#000000" font-family="sans-serif" font-size="13" lengthAdjust="spacing" textLength="23"
                  x="153.3884" y="370.2202">* all
            </text>
        </g><!--link ModelManager to Person-->
        <g id="link_ModelManager_Person">
            <path codeLine="36"
                  d="M239.76,233.3 C247.25,253.17 258.43,290.88 250,322 C244.52,342.21 231.95,362.55 221.8,376.69 "
                  fill="none" id="ModelManager-to-Person" style="stroke:#D42E12;stroke-width:1.1;"/>
            <polygon fill="#D42E12"
                     points="219.09,380.39,227.6514,375.5214,222.0579,376.3662,221.2132,370.7727,219.09,380.39"
                     style="stroke:#D42E12;stroke-width:1.1;"/>
            <text fill="#000000" font-family="sans-serif" font-size="13" lengthAdjust="spacing" textLength="52"
                  x="231.4389" y="370.288">* filtered
            </text>
        </g><!--SRC=[XP9TQuCm58RlyolEt5t1WFVYnRgENLGiPRiRZ62EDZIDNQACie_VlfWchTgMUQ7XFSzxlkATKANiE89f3nBfljj9OhP2xPbcEs1QDvyl6r5k5He32KscmNaZ6mrvyRXOli-BPR4U0ALanZomSblhfbFy4YKh6sGrGjvmb92cQonRfcg9MGPVPDxx8KfJeLhK5Ikj_ARMo7YXv671kvor604pCD7-SRuQr2kDbHbvJ-eDj-lHETmfyTYuf0lbJDcXj9VEUOEWn4U7AzIcKKjXMYyVXO69_0J7i-0SLT6rHjYRkdzo3nchb6QXCU9x0jhjwNTsiHqox390tdly0DMYthGqkxATG4YiXa18FieTzr2SGPH4S1rmTJnnhd4wJKSOB3CCEOk3VRhNIwBVQl-2EBP9_SQdFd3uxmoOjFVjeKdRSTO3bP3s1q4Ug3y0]-->
    </g>
</svg>
