<?xml version="1.0" encoding="us-ascii" standalone="no"?>
<svg xmlns="http://www.w3.org/2000/svg" contentStyleType="text/css" height="434px" preserveAspectRatio="none"
     style="width:555px;height:434px;background:#FFFFFF;" version="1.1" viewBox="0 0 555 434" width="555px"
     zoomAndPan="magnify">
    <defs/>
    <g><!--class ReadOnlyXYZList-->
        <g id="elem_ReadOnlyXYZList">
            <rect codeLine="9" fill="#9D0012" height="41.2813" id="ReadOnlyXYZList" rx="2.5" ry="2.5"
                  style="stroke:#FFFFFF;stroke-width:1.0;" width="116" x="154.4637" y="7"/>
            <text fill="#FFFFFF" font-family="Arial" font-size="14" lengthAdjust="spacing" textLength="71" x="176.9637"
                  y="24.6738">&#171;interface&#187;
            </text>
            <text fill="#FFFFFF" font-family="Arial" font-size="14" lengthAdjust="spacing" textLength="110" x="157.4637"
                  y="40.3145">ReadOnlyXYZList
            </text>
        </g><!--class ReadOnlyUserPrefs-->
        <g id="elem_ReadOnlyUserPrefs">
            <rect codeLine="10" fill="#9D0012" height="41.2813" id="ReadOnlyUserPrefs" rx="2.5" ry="2.5"
                  style="stroke:#FFFFFF;stroke-width:1.0;" width="131" x="417.9637" y="7"/>
            <text fill="#FFFFFF" font-family="Arial" font-size="14" lengthAdjust="spacing" textLength="71" x="447.9637"
                  y="24.6738">&#171;interface&#187;
            </text>
            <text fill="#FFFFFF" font-family="Arial" font-size="14" lengthAdjust="spacing" textLength="125" x="420.9637"
                  y="40.3145">ReadOnlyUserPrefs
            </text>
        </g><!--class Model-->
        <g id="elem_Model">
            <rect codeLine="11" fill="#9D0012" height="41.2813" id="Model" rx="2.5" ry="2.5"
                  style="stroke:#FFFFFF;stroke-width:1.0;" width="77" x="305.9637" y="7"/>
            <text fill="#FFFFFF" font-family="Arial" font-size="14" lengthAdjust="spacing" textLength="71" x="308.9637"
                  y="24.6738">&#171;interface&#187;
            </text>
            <text fill="#FFFFFF" font-family="Arial" font-size="14" lengthAdjust="spacing" textLength="38" x="325.4637"
                  y="40.3145">Model
            </text>
        </g><!--class XYZList-->
        <g id="elem_XYZList">
            <rect codeLine="12" fill="#9D0012" height="25.6406" id="XYZList" rx="2.5" ry="2.5"
                  style="stroke:#FFFFFF;stroke-width:1.0;" width="53" x="195.9637" y="109"/>
            <text fill="#FFFFFF" font-family="Arial" font-size="14" lengthAdjust="spacing" textLength="47" x="198.9637"
                  y="126.6738">XYZList
            </text>
        </g><!--class ModelManager-->
        <g id="elem_ModelManager">
            <rect codeLine="13" fill="#9D0012" height="25.6406" id="ModelManager" rx="2.5" ry="2.5"
                  style="stroke:#FFFFFF;stroke-width:1.0;" width="100" x="294.4637" y="109"/>
            <text fill="#FFFFFF" font-family="Arial" font-size="14" lengthAdjust="spacing" textLength="94" x="297.4637"
                  y="126.6738">ModelManager
            </text>
        </g><!--class UserPrefs-->
        <g id="elem_UserPrefs">
            <rect codeLine="14" fill="#9D0012" height="25.6406" id="UserPrefs" rx="2.5" ry="2.5"
                  style="stroke:#FFFFFF;stroke-width:1.0;" width="68" x="439.4637" y="109"/>
            <text fill="#FFFFFF" font-family="Arial" font-size="14" lengthAdjust="spacing" textLength="62" x="442.4637"
                  y="126.6738">UserPrefs
            </text>
        </g><!--class UniqueXYZList-->
        <g id="elem_UniqueXYZList">
            <rect codeLine="15" fill="#9D0012" height="25.6406" id="UniqueXYZList" rx="2.5" ry="2.5"
                  style="stroke:#FFFFFF;stroke-width:1.0;" width="97" x="175.9637" y="196"/>
            <text fill="#FFFFFF" font-family="Arial" font-size="14" lengthAdjust="spacing" textLength="91" x="178.9637"
                  y="213.6738">UniqueXYZList
            </text>
        </g><!--class XYZ-->
        <g id="elem_XYZ">
            <rect codeLine="16" fill="#9D0012" height="25.6406" id="XYZ" rx="2.5" ry="2.5"
                  style="stroke:#FFFFFF;stroke-width:1.0;" width="50" x="185.4637" y="403"/>
            <text fill="#FFFFFF" font-family="Arial" font-size="14" lengthAdjust="spacing" textLength="25" x="197.9637"
                  y="420.6738">XYZ
            </text>
        </g><!--class Item-->
        <g id="elem_Item">
            <rect codeLine="17" fill="#9D0012" height="41.2813" id="Item" rx="2.5" ry="2.5"
                  style="stroke:#FFFFFF;stroke-width:1.0;" width="67" x="47.9637" y="252"/>
            <text fill="#FFFFFF" font-family="Arial" font-size="14" lengthAdjust="spacing" textLength="61" x="50.9637"
                  y="269.6738">{abstract}
            </text>
            <text fill="#FFFFFF" font-family="Arial" font-size="14" lengthAdjust="spacing" textLength="26" x="68.4637"
                  y="285.3145">Item
            </text>
        </g><!--class ItemList-->
        <g id="elem_ItemList">
            <rect codeLine="18" fill="#9D0012" height="25.6406" id="ItemList" rx="2.5" ry="2.5"
                  style="stroke:#FFFFFF;stroke-width:1.0;" width="139" x="13.9637" y="109"/>
            <text fill="#FFFFFF" font-family="Arial" font-size="14" lengthAdjust="spacing" textLength="48" x="16.9637"
                  y="126.6738">ItemList
            </text>
            <rect fill="#FFFFFF" height="17.9609" style="stroke:#FFFFFF;stroke-width:1.0;stroke-dasharray:2.0,2.0;"
                  width="83" x="72.9637" y="106"/>
            <text fill="#000000" font-family="sans-serif" font-size="12" font-style="italic" lengthAdjust="spacing"
                  textLength="81" x="73.9637" y="119.9492">T extends Item
            </text>
        </g><!--class UniqueItemList-->
        <g id="elem_UniqueItemList">
            <rect codeLine="19" fill="#9D0012" height="25.6406" id="UniqueItemList" rx="2.5" ry="2.5"
                  style="stroke:#FFFFFF;stroke-width:1.0;" width="127" x="13.9637" y="196"/>
            <text fill="#FFFFFF" font-family="Arial" font-size="14" lengthAdjust="spacing" textLength="117" x="16.9637"
                  y="213.6738">UniqueItemList&lt;T&gt;
            </text>
        </g><!--reverse link Model to ModelManager-->
        <g id="link_Model_ModelManager">
            <path codeLine="21" d="M344.4637,69.62 C344.4637,83.71 344.4637,98.44 344.4637,108.5 " fill="none"
                  id="Model-backto-ModelManager" style="stroke:#9D0012;stroke-width:1.1;stroke-dasharray:7.0,7.0;"/>
            <polygon fill="none" points="337.4637,69.63,344.4637,49.63,351.4637,69.63,337.4637,69.63"
                     style="stroke:#9D0012;stroke-width:1.1;"/>
        </g><!--link Model to ReadOnlyUserPrefs-->
        <g id="link_Model_ReadOnlyUserPrefs">
            <path codeLine="22" d="M383.2837,27.5 C392.6137,27.5 401.9437,27.5 411.2637,27.5 " fill="none"
                  id="Model-to-ReadOnlyUserPrefs" style="stroke:#9D0012;stroke-width:1.1;stroke-dasharray:7.0,7.0;"/>
            <polygon fill="#9D0012" points="416.2037,27.5,407.2037,23.5,411.2037,27.5,407.2037,31.5,416.2037,27.5"
                     style="stroke:#9D0012;stroke-width:1.1;"/>
        </g><!--reverse link ReadOnlyXYZList to Model-->
        <g id="link_ReadOnlyXYZList_Model">
            <path codeLine="23" d="M276.9937,27.5 C286.5237,27.5 296.0537,27.5 305.5837,27.5 " fill="none"
                  id="ReadOnlyXYZList-backto-Model" style="stroke:#9D0012;stroke-width:1.1;stroke-dasharray:7.0,7.0;"/>
            <polygon fill="#9D0012" points="272.2437,27.5,281.2437,31.5,277.2437,27.5,281.2437,23.5,272.2437,27.5"
                     style="stroke:#9D0012;stroke-width:1.1;"/>
        </g><!--reverse link XYZList to ModelManager-->
        <g id="link_XYZList_ModelManager">
            <path codeLine="24" d="M255.4837,122 C268.3937,122 281.2937,122 294.2037,122 " fill="none"
                  id="XYZList-backto-ModelManager" style="stroke:#9D0012;stroke-width:1.1;"/>
            <polygon fill="#9D0012" points="250.6637,122,259.6637,126,255.6637,122,259.6637,118,250.6637,122"
                     style="stroke:#9D0012;stroke-width:1.1;"/>
            <text fill="#000000" font-family="sans-serif" font-size="13" lengthAdjust="spacing" textLength="7" x="261"
                  y="117.0357">1
            </text>
        </g><!--link ModelManager to UserPrefs-->
        <g id="link_ModelManager_UserPrefs">
            <path codeLine="25" d="M394.8537,122 C407.5237,122 420.1837,122 432.8537,122 " fill="none"
                  id="ModelManager-to-UserPrefs" style="stroke:#9D0012;stroke-width:1.1;"/>
            <polygon fill="#9D0012" points="437.5537,122,428.5537,118,432.5537,122,428.5537,126,437.5537,122"
                     style="stroke:#9D0012;stroke-width:1.1;"/>
            <text fill="#000000" font-family="sans-serif" font-size="13" lengthAdjust="spacing" textLength="7"
                  x="420.4696" y="117.47">1
            </text>
        </g><!--reverse link ReadOnlyUserPrefs to UserPrefs-->
        <g id="link_ReadOnlyUserPrefs_UserPrefs">
            <path codeLine="26" d="M480.6637,54.38 C478.7537,72.05 476.3037,94.69 474.8137,108.5 " fill="none"
                  id="ReadOnlyUserPrefs-backto-UserPrefs"
                  style="stroke:#9D0012;stroke-width:1.1;stroke-dasharray:7.0,7.0;"/>
            <polygon fill="#9D0012"
                     points="481.1837,49.62,476.2303,58.1326,480.6409,54.5905,484.1831,59.001,481.1837,49.62"
                     style="stroke:#9D0012;stroke-width:1.1;"/>
        </g><!--reverse link ReadOnlyXYZList to XYZList-->
        <g id="link_ReadOnlyXYZList_XYZList">
            <path codeLine="28" d="M216.8837,69.37 C218.4137,83.53 220.0137,98.38 221.1137,108.5 " fill="none"
                  id="ReadOnlyXYZList-backto-XYZList"
                  style="stroke:#9D0012;stroke-width:1.1;stroke-dasharray:7.0,7.0;"/>
            <polygon fill="none" points="209.9337,70.26,214.7437,49.62,223.8537,68.75,209.9337,70.26"
                     style="stroke:#9D0012;stroke-width:1.1;"/>
        </g><!--link XYZList to UniqueXYZList-->
        <g id="link_XYZList_UniqueXYZList">
            <path codeLine="29" d="M223.0937,149.6 C223.3237,159.68 223.5937,171.15 223.8337,181.24 " fill="none"
                  id="XYZList-UniqueXYZList" style="stroke:#9D0012;stroke-width:1.1;"/>
            <polygon fill="#9D0012"
                     points="222.7837,136.69,218.9298,142.7849,223.0737,148.6865,226.9275,142.5916,222.7837,136.69"
                     style="stroke:#9D0012;stroke-width:1.1;"/>
            <polygon fill="#9D0012"
                     points="224.1337,194.05,227.9147,184.9559,224.0127,189.0515,219.9171,185.1494,224.1337,194.05"
                     style="stroke:#9D0012;stroke-width:1.1;"/>
            <line style="stroke:#9D0012;stroke-width:1.1;" x1="224.0127" x2="223.8287" y1="189.0515" y2="181.06"/>
            <text fill="#000000" font-family="sans-serif" font-size="13" lengthAdjust="spacing" textLength="7"
                  x="209.1386" y="184.6315">1
            </text>
        </g><!--link UniqueXYZList to XYZ-->
        <g id="link_UniqueXYZList_XYZ">
            <path codeLine="30" d="M223.6337,222.21 C221.2737,256.67 214.5737,354.84 211.7437,396.23 " fill="none"
                  id="UniqueXYZList-to-XYZ" style="stroke:#9D0012;stroke-width:1.1;"/>
            <polygon fill="#9D0012"
                     points="211.4137,401.08,216.0217,392.3756,211.7567,396.0918,208.0405,391.8268,211.4137,401.08"
                     style="stroke:#9D0012;stroke-width:1.1;"/>
            <polygon fill="#000000" points="221.1228,337.6339,224.6715,328.8102,218.8073,328.4095,221.1228,337.6339"
                     style="stroke:#000000;stroke-width:1.0;"/>
            <text fill="#000000" font-family="sans-serif" font-size="13" lengthAdjust="spacing" textLength="66"
                  x="230.4637" y="338.0283">contains all
            </text>
            <text fill="#000000" font-family="sans-serif" font-size="13" lengthAdjust="spacing" textLength="5"
                  x="205.7052" y="391.6726">*
            </text>
        </g><!--link ModelManager to XYZ-->
        <g id="link_ModelManager_XYZ">
            <path codeLine="32"
                  d="M345.2437,135.46 C346.8437,170.7 347.3737,273.02 305.4637,342 C290.1937,367.13 262.8237,386.77 241.3637,399.31 "
                  fill="none" id="ModelManager-to-XYZ" style="stroke:#9D0012;stroke-width:1.1;"/>
            <polygon fill="#9D0012"
                     points="237.0837,401.76,246.8841,400.7851,241.4293,399.287,242.9274,393.8321,237.0837,401.76"
                     style="stroke:#9D0012;stroke-width:1.1;"/>
            <polygon fill="#000000" points="339.632,277.2979,345.6801,269.9583,340.2109,267.805,339.632,277.2979"
                     style="stroke:#000000;stroke-width:1.0;"/>
            <text fill="#000000" font-family="sans-serif" font-size="13" lengthAdjust="spacing" textLength="91"
                  x="350.4637" y="278.0283">contains filtered
            </text>
            <text fill="#000000" font-family="sans-serif" font-size="13" lengthAdjust="spacing" textLength="5"
                  x="238.8997" y="391.8202">*
            </text>
        </g><!--link ItemList to UniqueItemList-->
        <g id="link_ItemList_UniqueItemList">
            <path codeLine="34" d="M81.5837,149.6 C80.8737,159.68 80.0637,171.15 79.3537,181.24 " fill="none"
                  id="ItemList-UniqueItemList" style="stroke:#9D0012;stroke-width:1.1;"/>
            <polygon fill="#9D0012"
                     points="82.4937,136.69,78.0817,142.3939,81.6499,148.6603,86.0619,142.9564,82.4937,136.69"
                     style="stroke:#9D0012;stroke-width:1.1;"/>
            <polygon fill="#9D0012"
                     points="78.4437,194.06,83.0666,185.3635,78.7952,189.0724,75.0863,184.801,78.4437,194.06"
                     style="stroke:#9D0012;stroke-width:1.1;"/>
            <line style="stroke:#9D0012;stroke-width:1.1;" x1="78.7952" x2="79.3637" y1="189.0724" y2="181.09"/>
            <text fill="#000000" font-family="sans-serif" font-size="13" lengthAdjust="spacing" textLength="7" x="65.64"
                  y="184.6315">1
            </text>
        </g><!--link UniqueItemList to Item-->
        <g id="link_UniqueItemList_Item">
            <path codeLine="35" d="M78.2737,222.45 C78.7137,229.16 79.2637,237.7 79.7937,245.77 " fill="none"
                  id="UniqueItemList-to-Item" style="stroke:#9D0012;stroke-width:1.1;"/>
            <polygon fill="#9D0012"
                     points="80.0837,250.3,83.5095,241.0662,79.7691,245.3099,75.5254,241.5695,80.0837,250.3"
                     style="stroke:#9D0012;stroke-width:1.1;"/>
            <text fill="#000000" font-family="sans-serif" font-size="13" lengthAdjust="spacing" textLength="5" x="62"
                  y="243.6856">*
            </text>
        </g><!--reverse link UniqueItemList to UniqueXYZList-->
        <g id="link_UniqueItemList_UniqueXYZList">
            <path codeLine="37" d="M162.4837,209 C166.8837,209 171.2737,209 175.6737,209 " fill="none"
                  id="UniqueItemList-backto-UniqueXYZList" style="stroke:#9D0012;stroke-width:1.1;"/>
            <polygon fill="none" points="162.7137,216,142.7137,209,162.7137,202,162.7137,216"
                     style="stroke:#9D0012;stroke-width:1.1;"/>
        </g><!--reverse link ItemList to XYZList-->
        <g id="link_ItemList_XYZList">
            <path codeLine="38" d="M174.4637,122 C181.5437,122 188.6137,122 195.6937,122 " fill="none"
                  id="ItemList-backto-XYZList" style="stroke:#9D0012;stroke-width:1.1;"/>
            <polygon fill="none" points="174.7537,129,154.7537,122,174.7437,115,174.7537,129"
                     style="stroke:#9D0012;stroke-width:1.1;"/>
        </g><!--reverse link Item to XYZ-->
        <g id="link_Item_XYZ">
            <path codeLine="39" d="M103.9737,298.19 C131.7737,328.69 177.9937,379.39 199.2037,402.65 " fill="none"
                  id="Item-backto-XYZ" style="stroke:#9D0012;stroke-width:1.1;"/>
            <polygon fill="#9D0012"
                     points="100.6937,294.59,103.7987,303.9366,104.0613,298.2858,109.712,298.5484,100.6937,294.59"
                     style="stroke:#9D0012;stroke-width:1.1;"/>
        </g><!--SRC=[XLBHQi8m57tFLzprKMYXhqFoCBU7WT8X2jiGHaoY2wQ9Ir8ssVRlIsAhfYhBGqdEFUUUavlU24LbmpXOjvEys3QrH7OZr9OOKWCnHd_EtWNTA6ujb4NPBuwqr0OcrVt3-6rKZQlf2O5AOkqTePkrqOrYvrJaz1QSXgLsJjV0XE7K2QqGGgEWXMmu5CfnioAKOxnGKqvOfUJk-ULrBApBW5ZeOVyevvQR9yDNDj4Uq2lgYMPSHaNSjQpKCLOcH94rDotKRpjNugFXgSoVEjDlihJE4Ef-5-hHyJeQXarB2DkW7Cw0Vpcks1x2dNxV_iZ243kaC4AdGQ4ecX_StYf-FMBmXS5qHOdF9fuqp7CPVCiChfHzzwpqZ6FhmowakUIDsbPjshv_LntaEGlUtV8Pqead9n_5amSn9zm2rSeHeImGAG6ZVkehv9MG_ZVXB2Yw2ViShBjZElhq26dQkBn3VF2pgDBVkzSjBPx2-qS8o1y0]-->
    </g>
</svg>
