<?xml version="1.0" encoding="us-ascii" standalone="no"?><svg xmlns="http://www.w3.org/2000/svg" xmlns:xlink="http://www.w3.org/1999/xlink" contentStyleType="text/css" height="198px" preserveAspectRatio="none" style="width:814px;height:198px;background:#FFFFFF;" version="1.1" viewBox="0 0 814 198" width="814px" zoomAndPan="magnify"><defs/><g><!--cluster guihandles--><g id="cluster_guihandles"><rect fill="#E6F5EC" height="151" rx="2.5" ry="2.5" style="stroke:#181818;stroke-width:1.0;" width="794" x="14" y="41"/><text fill="#000000" font-family="sans-serif" font-size="14" font-weight="bold" lengthAdjust="spacing" textLength="76" x="373" y="57.9659">guihandles</text></g><!--class GuiRobot--><g id="elem_GuiRobot"><rect fill="#009645" height="29.0679" id="GuiRobot" rx="2.5" ry="2.5" style="stroke:#FFFFFF;stroke-width:1.0;" width="68" x="358" y="4"/><text fill="#FFFFFF" font-family="Arial" font-size="14" lengthAdjust="spacing" textLength="62" x="361" y="23.9659">GuiRobot</text></g><!--class FxRobot--><g id="elem_FxRobot"><rect fill="#009645" height="29.0679" id="FxRobot" rx="2.5" ry="2.5" style="stroke:#FFFFFF;stroke-width:1.0;" width="59" x="444.5" y="4"/><text fill="#FFFFFF" font-family="Arial" font-size="14" lengthAdjust="spacing" textLength="53" x="447.5" y="23.9659">FxRobot</text></g><!--class NodeHandle--><g id="elem_NodeHandle"><rect codeLine="8" fill="#009645" height="48.1358" id="NodeHandle" rx="2.5" ry="2.5" style="stroke:#FFFFFF;stroke-width:1.0;" width="90" x="347" y="71"/><text fill="#FFFFFF" font-family="Arial" font-size="14" lengthAdjust="spacing" textLength="65" x="359.5" y="90.9659">{abstract}</text><text fill="#FFFFFF" font-family="Arial" font-size="14" lengthAdjust="spacing" textLength="84" x="350" y="110.0339">NodeHandle</text></g><!--class CommandBoxHandle--><g id="elem_CommandBoxHandle"><rect codeLine="9" fill="#009645" height="29.0679" id="CommandBoxHandle" rx="2.5" ry="2.5" style="stroke:#FFFFFF;stroke-width:1.0;" width="147" x="181.5" y="80.5"/><text fill="#FFFFFF" font-family="Arial" font-size="14" lengthAdjust="spacing" textLength="141" x="184.5" y="100.4659">CommandBoxHandle</text></g><!--class MainMenuHandle--><g id="elem_MainMenuHandle"><rect codeLine="10" fill="#009645" height="29.0679" id="MainMenuHandle" rx="2.5" ry="2.5" style="stroke:#FFFFFF;stroke-width:1.0;" width="127" x="455.5" y="80.5"/><text fill="#FFFFFF" font-family="Arial" font-size="14" lengthAdjust="spacing" textLength="121" x="458.5" y="100.4659">MainMenuHandle</text></g><!--class MeetCardHandle--><g id="elem_MeetCardHandle"><rect codeLine="11" fill="#009645" height="29.0679" id="MeetCardHandle" rx="2.5" ry="2.5" style="stroke:#FFFFFF;stroke-width:1.0;" width="120" x="22" y="155"/><text fill="#FFFFFF" font-family="Arial" font-size="14" lengthAdjust="spacing" textLength="114" x="25" y="174.9659">MeetCardHandle</text></g><!--class MeetListPanelHandle--><g id="elem_MeetListPanelHandle"><rect codeLine="12" fill="#009645" height="29.0679" id="MeetListPanelHandle" rx="2.5" ry="2.5" style="stroke:#FFFFFF;stroke-width:1.0;" width="148" x="160" y="155"/><text fill="#FFFFFF" font-family="Arial" font-size="14" lengthAdjust="spacing" textLength="142" x="163" y="174.9659">MeetListPanelHandle</text></g><!--class PersonCardHandle--><g id="elem_PersonCardHandle"><rect codeLine="13" fill="#009645" height="29.0679" id="PersonCardHandle" rx="2.5" ry="2.5" style="stroke:#FFFFFF;stroke-width:1.0;" width="132" x="326" y="155"/><text fill="#FFFFFF" font-family="Arial" font-size="14" lengthAdjust="spacing" textLength="126" x="329" y="174.9659">PersonCardHandle</text></g><!--class PersonListPanelHandle--><g id="elem_PersonListPanelHandle"><rect codeLine="14" fill="#009645" height="29.0679" id="PersonListPanelHandle" rx="2.5" ry="2.5" style="stroke:#FFFFFF;stroke-width:1.0;" width="160" x="476" y="155"/><text fill="#FFFFFF" font-family="Arial" font-size="14" lengthAdjust="spacing" textLength="154" x="479" y="174.9659">PersonListPanelHandle</text></g><!--class ResultDisplayHandle--><g id="elem_ResultDisplayHandle"><rect codeLine="15" fill="#009645" height="29.0679" id="ResultDisplayHandle" rx="2.5" ry="2.5" style="stroke:#FFFFFF;stroke-width:1.0;" width="145" x="654.5" y="155"/><text fill="#FFFFFF" font-family="Arial" font-size="14" lengthAdjust="spacing" textLength="139" x="657.5" y="174.9659">ResultDisplayHandle</text></g><path d="M328.584,95 C334.6944,95 340.8048,95 346.9152,95 " fill="none" style="stroke:#006930;stroke-width:1.1;stroke-dasharray:7.0,7.0;"/><polygon fill="#FFFFFF" points="346.9152,95,330.9152,89,330.9152,101,346.9152,95" style="stroke:#006930;stroke-width:1.0;"/><path d="M437.1445,95 C443.2197,95 449.295,95 455.3702,95 " fill="none" style="stroke:#006930;stroke-width:1.1;stroke-dasharray:7.0,7.0;"/><polygon fill="#FFFFFF" points="437.1445,95,453.1445,101,453.1445,89,437.1445,95" style="stroke:#006930;stroke-width:1.0;"/><path d="M346.8867,116.0387 C343.9037,117.1075 340.9237,118.1071 338,119 C257.054,143.7224 234.0868,138.8743 151,155 C148.1242,155.5582 145.1811,156.1303 142.2087,156.7089 " fill="none" style="stroke:#006930;stroke-width:1.1;stroke-dasharray:7.0,7.0;"/><polygon fill="#FFFFFF" points="346.8867,116.0387,329.8005,115.7874,333.8483,127.0841,346.8867,116.0387" style="stroke:#006930;stroke-width:1.0;"/><path d="M346.7235,116.7756 C320.0964,128.9937 287.1768,144.0993 263.8027,154.8247 " fill="none" style="stroke:#006930;stroke-width:1.1;stroke-dasharray:7.0,7.0;"/><polygon fill="#FFFFFF" points="346.7235,116.7756,329.6791,117.9951,334.6837,128.9017,346.7235,116.7756" style="stroke:#006930;stroke-width:1.0;"/><path d="M392,119.3385 C392,131.0946 392,144.9347 392,154.9298 " fill="none" style="stroke:#006930;stroke-width:1.1;stroke-dasharray:7.0,7.0;"/><polygon fill="#FFFFFF" points="392,119.3385,386,135.3385,398,135.3385,392,119.3385" style="stroke:#006930;stroke-width:1.0;"/><path d="M437.2479,116.0029 C465.3118,128.4092 500.6172,144.0167 525.4113,154.9775 " fill="none" style="stroke:#006930;stroke-width:1.1;stroke-dasharray:7.0,7.0;"/><polygon fill="#FFFFFF" points="437.2479,116.0029,449.4557,127.9598,454.3076,116.9844,437.2479,116.0029" style="stroke:#006930;stroke-width:1.0;"/><path d="M437.0336,115.762 C440.3766,116.9418 443.7228,118.038 447,119 C466.6274,124.7616 578.2164,143.8131 654.4561,156.5298 " fill="none" style="stroke:#006930;stroke-width:1.1;stroke-dasharray:7.0,7.0;"/><polygon fill="#FFFFFF" points="437.0336,115.762,450.1248,126.7447,454.1184,115.4287,437.0336,115.762" style="stroke:#006930;stroke-width:1.0;"/><path d="M392,33.1644 C392,43.6662 392,58.4166 392,70.7629 " fill="none" style="stroke:#006930;stroke-width:1.1;"/><polygon fill="#006930" points="392,33.1644,388,42.1644,392,38.1644,396,42.1644,392,33.1644" style="stroke:#006930;stroke-width:1.0;"/><text fill="#000000" font-family="sans-serif" font-size="13" lengthAdjust="spacing" textLength="7" x="384" y="48.0615">1</text><path d="M426.2734,18.5 C432.2393,18.5 438.2051,18.5 444.1709,18.5 " fill="none" style="stroke:#006930;stroke-width:1.1;stroke-dasharray:7.0,7.0;"/><polygon fill="#FFFFFF" points="444.1709,18.5,428.1709,12.5,428.1709,24.5,444.1709,18.5" style="stroke:#006930;stroke-width:1.0;"/><!--SRC=[XP5FQy904CNl-od6t2Dubu16Qej_2VLMa36PniNDRjZPfOhrkpTMYoP6UjjvxpV3Usodj9WN20eFnZlWWXng51sfK-Kp0dO7HTtI5qhmJkeIBHQ0rfglzwrCTvgOeTVjDStOA6DXzRQE5zD5iXuDaiaTaYfa7cAwowtnEgl3GfILWpb1xkKMTQQ8eTzFAAsIvOgYw7PtE8WdusInce_WAEBpLGYEk65dCNMd3pqt6Rt-dWW06MxZ5OvDKLJpqEnhyWobdf7sTP78nMYp1t4gsIrHawevIx9izCF2HMvVIOYzSYF9PVKRL-SaX6YcXD3AVEkwtz5zetfe21LzFY2r2X3wiWLeP6kXcjMU8l-VQgdSGjsUPpECWbu0OoyJip5E_3tWlFIoluZY1m00]--></g></svg>