<?xml version="1.0" encoding="UTF-8" standalone="no"?><svg xmlns="http://www.w3.org/2000/svg" xmlns:xlink="http://www.w3.org/1999/xlink" contentStyleType="text/css" height="329px" preserveAspectRatio="none" style="width:667px;height:329px;background:#FFFFFF;" version="1.1" viewBox="0 0 667 329" width="667px" zoomAndPan="magnify"><defs/><g><!--MD5=[44a1b4afaef76c16e6c9ec4990ad0c8d]
class Item--><g id="elem_Item"><rect codeLine="39" fill="#9D0012" height="42.1973" id="Item" rx="2.5" ry="2.5" style="stroke:#9D0012;stroke-width:1.0;" width="67" x="355" y="7"/><text fill="#FFFFFF" font-family="Arial" font-size="14" font-style="italic" lengthAdjust="spacing" textLength="61" x="358" y="25.1318">{abstract}</text><text fill="#FFFFFF" font-family="Arial" font-size="14" font-style="italic" lengthAdjust="spacing" textLength="28" x="374.5" y="41.2305">Item</text></g><!--MD5=[007886e900a243ece686dc981ec5213f]
class Deadline--><g id="elem_Deadline"><rect codeLine="40" fill="#9D0012" height="42.1973" id="Deadline" rx="2.5" ry="2.5" style="stroke:#9D0012;stroke-width:1.0;" width="67" x="577" y="281"/><text fill="#FFFFFF" font-family="Arial" font-size="14" font-style="italic" lengthAdjust="spacing" textLength="61" x="580" y="299.1318">{abstract}</text><text fill="#FFFFFF" font-family="Arial" font-size="14" font-style="italic" lengthAdjust="spacing" textLength="56" x="582.5" y="315.2305">Deadline</text></g><!--MD5=[e3d83ec5fd90ea9f3f2bfe265cb53458]
class Status--><g id="elem_Status"><rect codeLine="41" fill="#9D0012" height="42.1973" id="Status" rx="2.5" ry="2.5" style="stroke:#9D0012;stroke-width:1.0;" width="67" x="451" y="281"/><text fill="#FFFFFF" font-family="Arial" font-size="14" font-style="italic" lengthAdjust="spacing" textLength="61" x="454" y="299.1318">{abstract}</text><text fill="#FFFFFF" font-family="Arial" font-size="14" font-style="italic" lengthAdjust="spacing" textLength="40" x="464.5" y="315.2305">Status</text></g><!--MD5=[0413c2967cbcbb9b55cfe9d1f30bae3b]
class UniqueItemList--><g id="elem_UniqueItemList"><rect codeLine="42" fill="#9D0012" height="26.0986" id="UniqueItemList" rx="2.5" ry="2.5" style="stroke:#9D0012;stroke-width:1.0;" width="130" x="189.5" y="15"/><text fill="#FFFFFF" font-family="Arial" font-size="14" lengthAdjust="spacing" textLength="120" x="192.5" y="33.1318">UniqueItemList&lt;T&gt;</text></g><!--MD5=[a7724e71618d3dacaca1ec2d24889dc2]
class ItemList--><g id="elem_ItemList"><rect codeLine="53" fill="#9D0012" height="26.0986" id="ItemList" rx="2.5" ry="2.5" style="stroke:#9D0012;stroke-width:1.0;" width="147" x="7" y="15"/><text fill="#FFFFFF" font-family="Arial" font-size="14" lengthAdjust="spacing" textLength="50" x="10" y="33.1318">ItemList</text><rect fill="#FFFFFF" height="16.1328" style="stroke:#9D0012;stroke-width:1.0;stroke-dasharray:2.0,2.0;" width="89" x="68" y="12"/><text fill="#000000" font-family="sans-serif" font-size="12" font-style="italic" lengthAdjust="spacing" textLength="87" x="69" y="24.6016">T extends Item</text></g><!--MD5=[cf4d6237fcae255cd2e1656cf84a30e2]
class Order--><g id="elem_Order"><rect codeLine="45" fill="#9D0012" height="26.0986" id="Order" rx="2.5" ry="2.5" style="stroke:#9D0012;stroke-width:1.0;" width="50" x="353.5" y="109"/><text fill="#FFFFFF" font-family="Arial" font-size="14" lengthAdjust="spacing" textLength="37" x="360" y="127.1318">Order</text></g><!--MD5=[27eb0c30e65d8b262e52e99e862b6c6e]
class MenuItem--><g id="elem_MenuItem"><rect codeLine="46" fill="#9D0012" height="26.0986" id="MenuItem" rx="2.5" ry="2.5" style="stroke:#9D0012;stroke-width:1.0;" width="70" x="140.5" y="195"/><text fill="#FFFFFF" font-family="Arial" font-size="14" lengthAdjust="spacing" textLength="64" x="143.5" y="213.1318">MenuItem</text></g><!--MD5=[2ce0c9fb7f55b1e256ab28a8ea6b25ec]
class Customer--><g id="elem_Customer"><rect codeLine="47" fill="#9D0012" height="26.0986" id="Customer" rx="2.5" ry="2.5" style="stroke:#9D0012;stroke-width:1.0;" width="68" x="245.5" y="195"/><text fill="#FFFFFF" font-family="Arial" font-size="14" lengthAdjust="spacing" textLength="62" x="248.5" y="213.1318">Customer</text></g><!--MD5=[c10c36ce2c02dedc3d02a76c5154070d]
class Quantity--><g id="elem_Quantity"><rect codeLine="48" fill="#9D0012" height="26.0986" id="Quantity" rx="2.5" ry="2.5" style="stroke:#9D0012;stroke-width:1.0;" width="59" x="349" y="195"/><text fill="#FFFFFF" font-family="Arial" font-size="14" lengthAdjust="spacing" textLength="53" x="352" y="213.1318">Quantity</text></g><!--MD5=[de626c0cb0f072ae90ffb25031374c19]
class OrderStatus--><g id="elem_OrderStatus"><rect codeLine="49" fill="#9D0012" height="26.0986" id="OrderStatus" rx="2.5" ry="2.5" style="stroke:#9D0012;stroke-width:1.0;" width="83" x="443" y="195"/><text fill="#FFFFFF" font-family="Arial" font-size="14" lengthAdjust="spacing" textLength="77" x="446" y="213.1318">OrderStatus</text></g><!--MD5=[d27b1d35a6111a034c522a62556c48ac]
class OrderDeadline--><g id="elem_OrderDeadline"><rect codeLine="50" fill="#9D0012" height="26.0986" id="OrderDeadline" rx="2.5" ry="2.5" style="stroke:#9D0012;stroke-width:1.0;" width="99" x="561" y="195"/><text fill="#FFFFFF" font-family="Arial" font-size="14" lengthAdjust="spacing" textLength="93" x="564" y="213.1318">OrderDeadline</text></g><!--MD5=[641de0088b7653c4b5bc197ac36ace7f]
class OrderList--><g id="elem_OrderList"><rect codeLine="51" fill="#9D0012" height="26.0986" id="OrderList" rx="2.5" ry="2.5" style="stroke:#9D0012;stroke-width:1.0;" width="65" x="74" y="109"/><text fill="#FFFFFF" font-family="Arial" font-size="14" lengthAdjust="spacing" textLength="59" x="77" y="127.1318">OrderList</text></g><!--MD5=[a5127b499828c09889c8715fca3202ad]
class UniqueOrderList--><g id="elem_UniqueOrderList"><rect codeLine="52" fill="#9D0012" height="26.0986" id="UniqueOrderList" rx="2.5" ry="2.5" style="stroke:#9D0012;stroke-width:1.0;" width="110" x="199.5" y="109"/><text fill="#FFFFFF" font-family="Arial" font-size="14" lengthAdjust="spacing" textLength="104" x="202.5" y="127.1318">UniqueOrderList</text></g><!--MD5=[946853a062e13709c59583e6dd79092e]
reverse link ItemList to OrderList--><g id="link_ItemList_OrderList"><path d="M89.79,61.89 C94.4,78.18 99.68,96.86 103.05,108.79 " fill="none" id="ItemList-backto-OrderList" style="stroke:#9D0012;stroke-width:1.1;"/><polygon fill="none" points="83.12,64.01,84.42,42.86,96.59,60.21,83.12,64.01" style="stroke:#9D0012;stroke-width:1.1;"/></g><!--MD5=[5841f03205553e74240bed55d1e4d784]
reverse link UniqueItemList to UniqueOrderList--><g id="link_UniqueItemList_UniqueOrderList"><path d="M254.5,62.73 C254.5,78.82 254.5,97.07 254.5,108.79 " fill="none" id="UniqueItemList-backto-UniqueOrderList" style="stroke:#9D0012;stroke-width:1.1;"/><polygon fill="none" points="247.5,62.92,254.5,42.92,261.5,62.92,247.5,62.92" style="stroke:#9D0012;stroke-width:1.1;"/></g><!--MD5=[4e7777d310d747d2c1947315482d4a2c]
link ItemList to UniqueItemList--><g id="link_ItemList_UniqueItemList"><path codeLine="56" d="M167.76,28 C167.76,28 172.72,28 174.74,28 " fill="none" id="ItemList-UniqueItemList" style="stroke:#9D0012;stroke-width:1.1;"/><polygon fill="#9D0012" points="187.59,28,178.59,24,182.59,28,178.59,32,187.59,28" style="stroke:#9D0012;stroke-width:1.1;"/><line style="stroke:#9D0012;stroke-width:1.1;" x1="182.59" x2="174.59" y1="28" y2="28"/><polygon fill="#9D0012" points="155.76,28,161.76,32,167.76,28,161.76,24,155.76,28" style="stroke:#9D0012;stroke-width:1.1;"/><text fill="#000000" font-family="sans-serif" font-size="13" lengthAdjust="spacing" textLength="8" x="169.2906" y="24.7596">1</text></g><!--MD5=[be517f24292d6b5fd6945ff9c04a4f08]
link UniqueItemList to Item--><g id="link_UniqueItemList_Item"><path codeLine="57" d="M319.93,28 C329.45,28 338.97,28 348.49,28 " fill="none" id="UniqueItemList-to-Item" style="stroke:#9D0012;stroke-width:1.1;"/><polygon fill="#9D0012" points="353.24,28,344.24,24,348.24,28,344.24,32,353.24,28" style="stroke:#9D0012;stroke-width:1.1;"/><text fill="#000000" font-family="sans-serif" font-size="13" lengthAdjust="spacing" textLength="6" x="341.1703" y="24.0332">*</text></g><!--MD5=[1c0b72a97af6de6a22b0f5a92f97809e]
link OrderList to UniqueOrderList--><g id="link_OrderList_UniqueOrderList"><path codeLine="59" d="M152.97,122 C152.97,122 174.45,122 184.72,122 " fill="none" id="OrderList-UniqueOrderList" style="stroke:#9D0012;stroke-width:1.1;"/><polygon fill="#9D0012" points="197.71,122,188.71,118,192.71,122,188.71,126,197.71,122" style="stroke:#9D0012;stroke-width:1.1;"/><line style="stroke:#9D0012;stroke-width:1.1;" x1="192.71" x2="184.71" y1="122" y2="122"/><polygon fill="#9D0012" points="140.97,122,146.97,126,152.97,122,146.97,118,140.97,122" style="stroke:#9D0012;stroke-width:1.1;"/><text fill="#000000" font-family="sans-serif" font-size="13" lengthAdjust="spacing" textLength="8" x="179.3685" y="118.621">1</text></g><!--MD5=[07a9a40e155cf7ba8fa563215030c51a]
link UniqueOrderList to Order--><g id="link_UniqueOrderList_Order"><path codeLine="60" d="M309.72,122 C322.07,122 334.43,122 346.78,122 " fill="none" id="UniqueOrderList-to-Order" style="stroke:#9D0012;stroke-width:1.1;"/><polygon fill="#9D0012" points="351.73,122,342.73,118,346.73,122,342.73,126,351.73,122" style="stroke:#9D0012;stroke-width:1.1;"/><text fill="#000000" font-family="sans-serif" font-size="13" lengthAdjust="spacing" textLength="6" x="339.6451" y="117.5812">*</text></g><!--MD5=[abfcf310237b8a1e0f90f16bd70b775b]
link Order to MenuItem--><g id="link_Order_MenuItem"><path codeLine="61" d="M340.7118,138.6382 C340.7118,138.6382 254.3,174.39 218.38,189.26 " fill="none" id="Order-MenuItem" style="stroke:#9D0012;stroke-width:1.1;"/><polygon fill="#9D0012" points="206.81,194.04,216.6556,194.2949,211.4301,192.1282,213.5967,186.9028,206.81,194.04" style="stroke:#9D0012;stroke-width:1.1;"/><line style="stroke:#9D0012;stroke-width:1.1;" x1="211.4301" x2="218.82" y1="192.1282" y2="189.075"/><polygon fill="#9D0012" points="351.8,134.05,344.7265,132.648,340.7118,138.6382,347.7853,140.0402,351.8,134.05" style="stroke:#9D0012;stroke-width:1.1;"/><text fill="#000000" font-family="sans-serif" font-size="13" lengthAdjust="spacing" textLength="8" x="207.2882" y="184.2683">1</text></g><!--MD5=[a66735e8c8f59b32294c5870e4d78d4b]
link Order to OrderDeadline--><g id="link_Order_OrderDeadline"><path codeLine="62" d="M416.4729,136.7461 C416.4729,136.7461 519.68,174.12 562.74,189.71 " fill="none" id="Order-OrderDeadline" style="stroke:#9D0012;stroke-width:1.1;"/><polygon fill="#9D0012" points="574.84,194.09,567.7399,187.2645,570.1388,192.3875,565.0158,194.7864,574.84,194.09" style="stroke:#9D0012;stroke-width:1.1;"/><line style="stroke:#9D0012;stroke-width:1.1;" x1="570.1388" x2="562.62" y1="192.3875" y2="189.66"/><polygon fill="#9D0012" points="405.19,132.66,409.4694,138.464,416.4729,136.7461,412.1935,130.9421,405.19,132.66" style="stroke:#9D0012;stroke-width:1.1;"/><text fill="#000000" font-family="sans-serif" font-size="13" lengthAdjust="spacing" textLength="8" x="553.681" y="184.2406">1</text></g><!--MD5=[d7a12ed011a57068e70e07d9626e1fb6]
link Order to OrderStatus--><g id="link_Order_OrderStatus"><path codeLine="63" d="M404.7351,143.7828 C404.7351,143.7828 441.52,172.94 457.52,185.62 " fill="none" id="Order-OrderStatus" style="stroke:#9D0012;stroke-width:1.1;"/><polygon fill="#9D0012" points="467.61,193.61,463.042,184.8845,463.6918,190.504,458.0724,191.1537,467.61,193.61" style="stroke:#9D0012;stroke-width:1.1;"/><line style="stroke:#9D0012;stroke-width:1.1;" x1="463.6918" x2="457.42" y1="190.504" y2="185.54"/><polygon fill="#9D0012" points="395.33,136.33,397.5483,143.1914,404.7351,143.7828,402.5168,136.9214,395.33,136.33" style="stroke:#9D0012;stroke-width:1.1;"/><text fill="#000000" font-family="sans-serif" font-size="13" lengthAdjust="spacing" textLength="8" x="448.5269" y="184.1716">1</text></g><!--MD5=[65622aaf8fcfd7b10df86db327daabc8]
link Order to Customer--><g id="link_Order_Customer"><path codeLine="64" d="M353.5964,144.1414 C353.5964,144.1414 319.74,172.85 305.03,185.34 " fill="none" id="Order-Customer" style="stroke:#9D0012;stroke-width:1.1;"/><polygon fill="#9D0012" points="295.32,193.58,304.7682,190.7993,299.1298,190.3419,299.5872,184.7036,295.32,193.58" style="stroke:#9D0012;stroke-width:1.1;"/><line style="stroke:#9D0012;stroke-width:1.1;" x1="299.1298" x2="305.235" y1="190.3419" y2="185.165"/><polygon fill="#9D0012" points="362.74,136.37,355.5777,137.2078,353.5964,144.1414,360.7587,143.3036,362.74,136.37" style="stroke:#9D0012;stroke-width:1.1;"/><text fill="#000000" font-family="sans-serif" font-size="13" lengthAdjust="spacing" textLength="8" x="285.4754" y="184.1716">1</text></g><!--MD5=[0c1b978bff753f7bd75d6d5b93ce7da7]
link Order to Quantity--><g id="link_Order_Quantity"><path codeLine="65" d="M378.5,148.91 C378.5,148.91 378.5,170.39 378.5,180.17 " fill="none" id="Order-Quantity" style="stroke:#9D0012;stroke-width:1.1;"/><polygon fill="#9D0012" points="378.5,193.04,382.5,184.04,378.5,188.04,374.5,184.04,378.5,193.04" style="stroke:#9D0012;stroke-width:1.1;"/><line style="stroke:#9D0012;stroke-width:1.1;" x1="378.5" x2="378.5" y1="188.04" y2="180.04"/><polygon fill="#9D0012" points="378.5,136.91,374.5,142.91,378.5,148.91,382.5,142.91,378.5,136.91" style="stroke:#9D0012;stroke-width:1.1;"/><text fill="#000000" font-family="sans-serif" font-size="13" lengthAdjust="spacing" textLength="8" x="364.2125" y="184.1716">1</text></g><!--MD5=[4b7862dcaf576e5c0b7cfedfde91f52b]
reverse link Item to Order--><g id="link_Item_Order"><path codeLine="66" d="M383.98,70.59 C382.48,84.38 380.92,98.71 379.85,108.55 " fill="none" id="Item-backto-Order" style="stroke:#9D0012;stroke-width:1.1;"/><polygon fill="none" points="377,70.05,386.12,50.92,390.91,71.56,377,70.05" style="stroke:#9D0012;stroke-width:1.1;"/></g><!--MD5=[0a6e52d95c2fa1e03219cbfd7d4aada4]
link OrderDeadline to Deadline--><g id="link_OrderDeadline_Deadline"><path codeLine="68" d="M610.5,221.41 C610.5,231.21 610.5,245.48 610.5,259.24 " fill="none" id="OrderDeadline-to-Deadline" style="stroke:#9D0012;stroke-width:1.1;"/><polygon fill="none" points="617.5,259.2,610.5,279.2,603.5,259.2,617.5,259.2" style="stroke:#9D0012;stroke-width:1.1;"/></g><!--MD5=[1b6f69cf80af49263a9c150b9e050f8c]
link OrderStatus to Status--><g id="link_OrderStatus_Status"><path codeLine="69" d="M484.5,221.41 C484.5,231.21 484.5,245.48 484.5,259.24 " fill="none" id="OrderStatus-to-Status" style="stroke:#9D0012;stroke-width:1.1;"/><polygon fill="none" points="491.5,259.2,484.5,279.2,477.5,259.2,491.5,259.2" style="stroke:#9D0012;stroke-width:1.1;"/></g><!--MD5=[fe4c940364026a7ffcfd6be278dfa6c9]
@startuml
 !include style.puml
 skinparam arrowThickness 1.1
 skinparam arrowColor MODEL_COLOR
 skinparam classBackgroundColor MODEL_COLOR
 skinparam groupInheritance 1

 top to bottom direction

 Abstract Class "{abstract}\nItem" as Item
 Abstract Class "{abstract}\nDeadline" as Deadline
 Abstract Class "{abstract}\nStatus" as Status
 Class "UniqueItemList<T> " as UniqueItemList
  Class ItemList<T extends Item>

 Class Order
 Class MenuItem
 Class Customer
 Class Quantity
 Class OrderStatus
 Class OrderDeadline
 Class OrderList extends ItemList
 Class UniqueOrderList extends UniqueItemList
 Class ItemList<T extends Item>


 ItemList *- -r> "1 " UniqueItemList
 UniqueItemList -r>"*" Item

 OrderList *- -r> "1 " UniqueOrderList
 UniqueOrderList ->"*" Order
 Order *- -> "1" MenuItem
 Order *- -> "1" OrderDeadline
 Order *- -> "1 " OrderStatus
 Order *- -> "1 " Customer
 Order *- -> "1 " Quantity
 Order -u|> Item

 OrderDeadline - -|> Deadline
 OrderStatus - -|> Status

 @enduml

@startuml








skinparam BackgroundColor #FFFFFFF

skinparam Shadowing false

skinparam Class {
    FontColor #FFFFFF
    BorderThickness 1
    BorderColor #9D0012
    FontName Arial
}

skinparam Actor {
    BorderColor #000000
    Color #000000
    FontName Arial
}

skinparam Sequence {
    MessageAlign center
    BoxFontSize 15
    BoxPadding 0
    BoxFontColor #FFFFFF
    FontName Arial
}

skinparam Participant {
    FontColor #FFFFFFF
    Padding 20
}

skinparam MinClassWidth 50
skinparam ParticipantPadding 10
skinparam Shadowing false
skinparam DefaultTextAlignment center
skinparam packageStyle Rectangle

hide footbox
hide members
hide circle
 skinparam arrowThickness 1.1
 skinparam arrowColor #9D0012
 skinparam classBackgroundColor #9D0012
 skinparam groupInheritance 1

 top to bottom direction

 Abstract Class "{abstract}\nItem" as Item
 Abstract Class "{abstract}\nDeadline" as Deadline
 Abstract Class "{abstract}\nStatus" as Status
 Class "UniqueItemList<T> " as UniqueItemList
  Class ItemList<T extends Item>

 Class Order
 Class MenuItem
 Class Customer
 Class Quantity
 Class OrderStatus
 Class OrderDeadline
 Class OrderList extends ItemList
 Class UniqueOrderList extends UniqueItemList
 Class ItemList<T extends Item>


 ItemList *- -r> "1 " UniqueItemList
 UniqueItemList -r>"*" Item

 OrderList *- -r> "1 " UniqueOrderList
 UniqueOrderList ->"*" Order
 Order *- -> "1" MenuItem
 Order *- -> "1" OrderDeadline
 Order *- -> "1 " OrderStatus
 Order *- -> "1 " Customer
 Order *- -> "1 " Quantity
 Order -u|> Item

 OrderDeadline - -|> Deadline
 OrderStatus - -|> Status

 @enduml

PlantUML version 1.2022.12(Mon Oct 24 02:12:26 SGT 2022)
(GPL source distribution)
Java Runtime: OpenJDK Runtime Environment
JVM: OpenJDK 64-Bit Server VM
Default Encoding: UTF-8
Language: en
Country: US
--></g></svg>