<?xml version="1.0" encoding="us-ascii" standalone="no"?>
<svg xmlns="http://www.w3.org/2000/svg" contentStyleType="text/css" height="327px" preserveAspectRatio="none"
     style="width:705px;height:327px;background:#FFFFFF;" version="1.1" viewBox="0 0 705 327" width="705px"
     zoomAndPan="magnify">
    <defs/>
    <g><!--class Item-->
        <g id="elem_Item">
            <rect codeLine="9" fill="#9D0012" height="41.2813" id="Item" rx="2.5" ry="2.5"
                  style="stroke:#181818;stroke-width:0.0;" width="67" x="343" y="7"/>
            <text fill="#FFFFFF" font-family="Arial" font-size="14" font-style="italic" lengthAdjust="spacing"
                  textLength="61" x="346" y="24.6738">{abstract}
            </text>
            <text fill="#FFFFFF" font-family="Arial" font-size="14" font-style="italic" lengthAdjust="spacing"
                  textLength="27" x="363" y="40.3145">Item
            </text>
        </g><!--class Deadline-->
        <g id="elem_Deadline">
            <rect codeLine="10" fill="#9D0012" height="41.2813" id="Deadline" rx="2.5" ry="2.5"
                  style="stroke:#181818;stroke-width:0.0;" width="67" x="615" y="280"/>
            <text fill="#FFFFFF" font-family="Arial" font-size="14" font-style="italic" lengthAdjust="spacing"
                  textLength="61" x="618" y="297.6738">{abstract}
            </text>
            <text fill="#FFFFFF" font-family="Arial" font-size="14" font-style="italic" lengthAdjust="spacing"
                  textLength="56" x="620.5" y="313.3145">Deadline
            </text>
        </g><!--class Status-->
        <g id="elem_Status">
            <rect codeLine="11" fill="#9D0012" height="41.2813" id="Status" rx="2.5" ry="2.5"
                  style="stroke:#181818;stroke-width:0.0;" width="67" x="489" y="280"/>
            <text fill="#FFFFFF" font-family="Arial" font-size="14" font-style="italic" lengthAdjust="spacing"
                  textLength="61" x="492" y="297.6738">{abstract}
            </text>
            <text fill="#FFFFFF" font-family="Arial" font-size="14" font-style="italic" lengthAdjust="spacing"
                  textLength="40" x="502.5" y="313.3145">Status
            </text>
        </g><!--class UniqueItemList-->
        <g id="elem_UniqueItemList">
            <rect codeLine="12" fill="#9D0012" height="25.6406" id="UniqueItemList" rx="2.5" ry="2.5"
                  style="stroke:#181818;stroke-width:0.0;" width="127" x="181" y="14.5"/>
            <text fill="#FFFFFF" font-family="Arial" font-size="14" lengthAdjust="spacing" textLength="117" x="184"
                  y="32.1738">UniqueItemList&lt;T&gt;
            </text>
        </g><!--class ItemList-->
        <g id="elem_ItemList">
            <rect codeLine="24" fill="#9D0012" height="25.6406" id="ItemList" rx="2.5" ry="2.5"
                  style="stroke:#181818;stroke-width:0.0;" width="139" x="7" y="14.5"/>
            <text fill="#FFFFFF" font-family="Arial" font-size="14" lengthAdjust="spacing" textLength="48" x="10"
                  y="32.1738">ItemList
            </text>
            <rect fill="#FFFFFF" height="17.9609" style="stroke:#181818;stroke-width:1.0;stroke-dasharray:2.0,2.0;"
                  width="83" x="66" y="11.5"/>
            <text fill="#000000" font-family="sans-serif" font-size="12" font-style="italic" lengthAdjust="spacing"
                  textLength="81" x="67" y="25.4492">T extends Item
            </text>
        </g><!--class LocalDateTime-->
        <g id="elem_LocalDateTime">
            <rect codeLine="15" fill="#9D0012" height="25.6406" id="LocalDateTime" rx="2.5" ry="2.5"
                  style="stroke:#181818;stroke-width:0.0;" width="101" x="47" y="194"/>
            <text fill="#FFFFFF" font-family="Arial" font-size="14" lengthAdjust="spacing" textLength="95" x="50"
                  y="211.6738">LocalDateTime
            </text>
        </g><!--class Order-->
        <g id="elem_Order">
            <rect codeLine="16" fill="#9D0012" height="25.6406" id="Order" rx="2.5" ry="2.5"
                  style="stroke:#181818;stroke-width:0.0;" width="50" x="342.5" y="108"/>
            <text fill="#FFFFFF" font-family="Arial" font-size="14" lengthAdjust="spacing" textLength="37" x="349"
                  y="125.6738">Order
            </text>
        </g><!--class MenuItem-->
        <g id="elem_MenuItem">
            <rect codeLine="17" fill="#9D0012" height="25.6406" id="MenuItem" rx="2.5" ry="2.5"
                  style="stroke:#181818;stroke-width:0.0;" width="67" x="183" y="194"/>
            <text fill="#FFFFFF" font-family="Arial" font-size="14" lengthAdjust="spacing" textLength="61" x="186"
                  y="211.6738">MenuItem
            </text>
        </g><!--class Customer-->
        <g id="elem_Customer">
            <rect codeLine="18" fill="#9D0012" height="25.6406" id="Customer" rx="2.5" ry="2.5"
                  style="stroke:#181818;stroke-width:0.0;" width="67" x="285" y="194"/>
            <text fill="#FFFFFF" font-family="Arial" font-size="14" lengthAdjust="spacing" textLength="61" x="288"
                  y="211.6738">Customer
            </text>
        </g><!--class Quantity-->
        <g id="elem_Quantity">
            <rect codeLine="19" fill="#9D0012" height="25.6406" id="Quantity" rx="2.5" ry="2.5"
                  style="stroke:#181818;stroke-width:0.0;" width="59" x="387" y="194"/>
            <text fill="#FFFFFF" font-family="Arial" font-size="14" lengthAdjust="spacing" textLength="53" x="390"
                  y="211.6738">Quantity
            </text>
        </g><!--class OrderStatus-->
        <g id="elem_OrderStatus">
            <rect codeLine="20" fill="#9D0012" height="25.6406" id="OrderStatus" rx="2.5" ry="2.5"
                  style="stroke:#181818;stroke-width:0.0;" width="83" x="481" y="194"/>
            <text fill="#FFFFFF" font-family="Arial" font-size="14" lengthAdjust="spacing" textLength="77" x="484"
                  y="211.6738">OrderStatus
            </text>
        </g><!--class OrderDeadline-->
        <g id="elem_OrderDeadline">
            <rect codeLine="21" fill="#9D0012" height="25.6406" id="OrderDeadline" rx="2.5" ry="2.5"
                  style="stroke:#181818;stroke-width:0.0;" width="99" x="599" y="194"/>
            <text fill="#FFFFFF" font-family="Arial" font-size="14" lengthAdjust="spacing" textLength="93" x="602"
                  y="211.6738">OrderDeadline
            </text>
        </g><!--class OrderList-->
        <g id="elem_OrderList">
            <rect codeLine="22" fill="#9D0012" height="25.6406" id="OrderList" rx="2.5" ry="2.5"
                  style="stroke:#181818;stroke-width:0.0;" width="65" x="67" y="108"/>
            <text fill="#FFFFFF" font-family="Arial" font-size="14" lengthAdjust="spacing" textLength="59" x="70"
                  y="125.6738">OrderList
            </text>
        </g><!--class UniqueOrderList-->
        <g id="elem_UniqueOrderList">
            <rect codeLine="23" fill="#9D0012" height="25.6406" id="UniqueOrderList" rx="2.5" ry="2.5"
                  style="stroke:#181818;stroke-width:0.0;" width="109" x="190" y="108"/>
            <text fill="#FFFFFF" font-family="Arial" font-size="14" lengthAdjust="spacing" textLength="103" x="193"
                  y="125.6738">UniqueOrderList
            </text>
        </g><!--reverse link ItemList to OrderList-->
        <g id="link_ItemList_OrderList">
            <path d="M84.83,61.64 C88.84,77.6 93.42,95.79 96.37,107.56 " fill="none" id="ItemList-backto-OrderList"
                  style="stroke:#9D0012;stroke-width:1.1;"/>
            <polygon fill="none" points="78.06,63.41,79.97,42.31,91.64,60,78.06,63.41"
                     style="stroke:#9D0012;stroke-width:1.1;"/>
        </g><!--reverse link UniqueItemList to UniqueOrderList-->
        <g id="link_UniqueItemList_UniqueOrderList">
            <path d="M244.5,62.19 C244.5,78.03 244.5,95.93 244.5,107.56 " fill="none"
                  id="UniqueItemList-backto-UniqueOrderList" style="stroke:#9D0012;stroke-width:1.1;"/>
            <polygon fill="none" points="237.5,62.35,244.5,42.35,251.5,62.35,237.5,62.35"
                     style="stroke:#9D0012;stroke-width:1.1;"/>
        </g><!--link ItemList to UniqueItemList-->
        <g id="link_ItemList_UniqueItemList">
            <path codeLine="27" d="M160.67,27.5 C162.67,27.5 164.67,27.5 166.67,27.5 " fill="none"
                  id="ItemList-UniqueItemList" style="stroke:#9D0012;stroke-width:1.1;"/>
            <polygon fill="#9D0012" points="147.9,27.5,153.9,31.5,159.9,27.5,153.9,23.5,147.9,27.5"
                     style="stroke:#9D0012;stroke-width:1.1;"/>
            <polygon fill="#9D0012" points="179.37,27.5,170.37,23.5,174.37,27.5,170.37,31.5,179.37,27.5"
                     style="stroke:#9D0012;stroke-width:1.1;"/>
            <line style="stroke:#9D0012;stroke-width:1.1;" x1="174.37" x2="166.37" y1="27.5" y2="27.5"/>
            <text fill="#000000" font-family="sans-serif" font-size="13" lengthAdjust="spacing" textLength="7"
                  x="166.1193" y="23.5831">1
            </text>
        </g><!--link UniqueItemList to Item-->
        <g id="link_UniqueItemList_Item">
            <path codeLine="28" d="M308.44,27.5 C317.73,27.5 327.02,27.5 336.3,27.5 " fill="none"
                  id="UniqueItemList-to-Item" style="stroke:#9D0012;stroke-width:1.1;"/>
            <polygon fill="#9D0012" points="341.22,27.5,332.22,23.5,336.22,27.5,332.22,31.5,341.22,27.5"
                     style="stroke:#9D0012;stroke-width:1.1;"/>
            <text fill="#000000" font-family="sans-serif" font-size="13" lengthAdjust="spacing" textLength="5"
                  x="329.7959" y="22.67">*
            </text>
        </g><!--link OrderList to UniqueOrderList-->
        <g id="link_OrderList_UniqueOrderList">
            <path codeLine="30" d="M146.7,121 C156.23,121 165.75,121 175.28,121 " fill="none"
                  id="OrderList-UniqueOrderList" style="stroke:#9D0012;stroke-width:1.1;"/>
            <polygon fill="#9D0012" points="133.87,121,139.87,125,145.87,121,139.87,117,133.87,121"
                     style="stroke:#9D0012;stroke-width:1.1;"/>
            <polygon fill="#9D0012" points="188.23,121,179.23,117,183.23,121,179.23,125,188.23,121"
                     style="stroke:#9D0012;stroke-width:1.1;"/>
            <line style="stroke:#9D0012;stroke-width:1.1;" x1="183.23" x2="175.23" y1="121" y2="121"/>
            <text fill="#000000" font-family="sans-serif" font-size="13" lengthAdjust="spacing" textLength="7"
                  x="171.0192" y="116.9809">1
            </text>
        </g><!--link UniqueOrderList to Order-->
        <g id="link_UniqueOrderList_Order">
            <path codeLine="31" d="M299.27,121 C311.45,121 323.63,121 335.81,121 " fill="none"
                  id="UniqueOrderList-to-Order" style="stroke:#9D0012;stroke-width:1.1;"/>
            <polygon fill="#9D0012" points="340.67,121,331.67,117,335.67,121,331.67,125,340.67,121"
                     style="stroke:#9D0012;stroke-width:1.1;"/>
            <text fill="#000000" font-family="sans-serif" font-size="13" lengthAdjust="spacing" textLength="5"
                  x="329.3556" y="115.7292">*
            </text>
        </g><!--link Order to MenuItem-->
        <g id="link_Order_MenuItem">
            <path codeLine="32" d="M332.85,141.28 C308.48,154.83 275.98,172.91 251.53,186.51 " fill="none"
                  id="Order-MenuItem" style="stroke:#9D0012;stroke-width:1.1;"/>
            <polygon fill="#9D0012"
                     points="343.9,135.13,336.7121,134.5526,333.4145,140.9655,340.6024,141.5429,343.9,135.13"
                     style="stroke:#9D0012;stroke-width:1.1;"/>
            <polygon fill="#9D0012"
                     points="240.19,192.82,249.9993,191.9385,244.559,190.3885,246.109,184.9482,240.19,192.82"
                     style="stroke:#9D0012;stroke-width:1.1;"/>
            <line style="stroke:#9D0012;stroke-width:1.1;" x1="244.559" x2="251.555" y1="190.3885" y2="186.5"/>
            <text fill="#000000" font-family="sans-serif" font-size="13" lengthAdjust="spacing" textLength="7"
                  x="238.8283" y="182.6042">1
            </text>
        </g><!--link Order to OrderDeadline-->
        <g id="link_Order_OrderDeadline">
            <path codeLine="33" d="M406.69,133.71 C455.3,148.25 538.49,173.11 593.48,189.55 " fill="none"
                  id="Order-OrderDeadline" style="stroke:#9D0012;stroke-width:1.1;"/>
            <polygon fill="#9D0012"
                     points="394.38,130.04,398.9811,135.5925,405.8761,133.4809,401.275,127.9284,394.38,130.04"
                     style="stroke:#9D0012;stroke-width:1.1;"/>
            <polygon fill="#9D0012"
                     points="605.71,193.21,598.2369,186.7949,600.9204,191.7748,595.9406,194.4583,605.71,193.21"
                     style="stroke:#9D0012;stroke-width:1.1;"/>
            <line style="stroke:#9D0012;stroke-width:1.1;" x1="600.9204" x2="593.255" y1="191.7748" y2="189.485"/>
            <text fill="#000000" font-family="sans-serif" font-size="13" lengthAdjust="spacing" textLength="7"
                  x="584.1858" y="182.9965">1
            </text>
        </g><!--link Order to OrderStatus-->
        <g id="link_Order_OrderStatus">
            <path codeLine="34" d="M403.07,141.28 C428.2,154.9 461.75,173.08 486.89,186.7 " fill="none"
                  id="Order-OrderStatus" style="stroke:#9D0012;stroke-width:1.1;"/>
            <polygon fill="#9D0012"
                     points="391.7,135.12,395.0665,141.497,402.2478,140.8422,398.8813,134.4652,391.7,135.12"
                     style="stroke:#9D0012;stroke-width:1.1;"/>
            <polygon fill="#9D0012" points="498.2,192.83,492.189,185.0282,493.8028,190.45,488.381,192.0638,498.2,192.83"
                     style="stroke:#9D0012;stroke-width:1.1;"/>
            <line style="stroke:#9D0012;stroke-width:1.1;" x1="493.8028" x2="486.775" y1="190.45" y2="186.64"/>
            <text fill="#000000" font-family="sans-serif" font-size="13" lengthAdjust="spacing" textLength="7"
                  x="478.0454" y="182.6042">1
            </text>
        </g><!--link Order to Customer-->
        <g id="link_Order_Customer">
            <path codeLine="35" d="M353.1,146.69 C346.78,157.52 339.38,170.21 333.05,181.06 " fill="none"
                  id="Order-Customer" style="stroke:#9D0012;stroke-width:1.1;"/>
            <polygon fill="#9D0012"
                     points="359.51,135.7,353.0332,138.8703,353.4685,146.0682,359.9453,142.898,359.51,135.7"
                     style="stroke:#9D0012;stroke-width:1.1;"/>
            <polygon fill="#9D0012"
                     points="326.52,192.25,334.5072,186.4877,329.0373,187.9299,327.5951,182.46,326.52,192.25"
                     style="stroke:#9D0012;stroke-width:1.1;"/>
            <line style="stroke:#9D0012;stroke-width:1.1;" x1="329.0373" x2="333.07" y1="187.9299" y2="181.02"/>
            <text fill="#000000" font-family="sans-serif" font-size="13" lengthAdjust="spacing" textLength="7"
                  x="315.409" y="182.6042">1
            </text>
        </g><!--link Order to Quantity-->
        <g id="link_Order_Quantity">
            <path codeLine="36" d="M381.9,146.69 C388.22,157.52 395.62,170.21 401.95,181.06 " fill="none"
                  id="Order-Quantity" style="stroke:#9D0012;stroke-width:1.1;"/>
            <polygon fill="#9D0012"
                     points="375.49,135.7,375.0547,142.898,381.5315,146.0682,381.9668,138.8703,375.49,135.7"
                     style="stroke:#9D0012;stroke-width:1.1;"/>
            <polygon fill="#9D0012"
                     points="408.48,192.25,407.4049,182.46,405.9627,187.9299,400.4928,186.4877,408.48,192.25"
                     style="stroke:#9D0012;stroke-width:1.1;"/>
            <line style="stroke:#9D0012;stroke-width:1.1;" x1="405.9627" x2="401.93" y1="187.9299" y2="181.02"/>
            <text fill="#000000" font-family="sans-serif" font-size="13" lengthAdjust="spacing" textLength="7"
                  x="388.7973" y="182.6042">1
            </text>
        </g><!--link Order to LocalDateTime-->
        <g id="link_Order_LocalDateTime">
            <path codeLine="37" d="M328.48,134.14 C281.79,148.66 203.37,173.06 151.04,189.34 " fill="none"
                  id="Order-LocalDateTime" style="stroke:#9D0012;stroke-width:1.1;"/>
            <polygon fill="#9D0012"
                     points="340.65,130.35,333.7334,128.3104,329.1904,133.9105,336.107,135.9501,340.65,130.35"
                     style="stroke:#9D0012;stroke-width:1.1;"/>
            <polygon fill="#9D0012"
                     points="138.79,193.15,148.5727,194.2892,143.5633,191.6614,146.1911,186.652,138.79,193.15"
                     style="stroke:#9D0012;stroke-width:1.1;"/>
            <line style="stroke:#9D0012;stroke-width:1.1;" x1="143.5633" x2="151.205" y1="191.6614" y2="189.295"/>
            <text fill="#000000" font-family="sans-serif" font-size="13" lengthAdjust="spacing" textLength="7"
                  x="143.7541" y="182.6726">1
            </text>
        </g><!--reverse link Item to Order-->
        <g id="link_Item_Order">
            <path codeLine="38" d="M372.46,69.58 C371.09,83.45 369.67,97.91 368.7,107.76 " fill="none"
                  id="Item-backto-Order" style="stroke:#9D0012;stroke-width:1.1;"/>
            <polygon fill="none" points="365.47,69.08,374.4,49.86,379.41,70.45,365.47,69.08"
                     style="stroke:#9D0012;stroke-width:1.1;"/>
        </g><!--link OrderDeadline to Deadline-->
        <g id="link_OrderDeadline_Deadline">
            <path codeLine="40" d="M648.5,220.34 C648.5,230.15 648.5,244.46 648.5,258.23 " fill="none"
                  id="OrderDeadline-to-Deadline" style="stroke:#9D0012;stroke-width:1.1;"/>
            <polygon fill="none" points="655.5,258.15,648.5,278.15,641.5,258.15,655.5,258.15"
                     style="stroke:#9D0012;stroke-width:1.1;"/>
        </g><!--link OrderStatus to Status-->
        <g id="link_OrderStatus_Status">
            <path codeLine="41" d="M522.5,220.34 C522.5,230.15 522.5,244.46 522.5,258.23 " fill="none"
                  id="OrderStatus-to-Status" style="stroke:#9D0012;stroke-width:1.1;"/>
            <polygon fill="none" points="529.5,258.15,522.5,278.15,515.5,258.15,529.5,258.15"
                     style="stroke:#9D0012;stroke-width:1.1;"/>
        </g><!--SRC=[bL71QiCm3BtxAxGS2odaFWfRkaCX9MphReFXEc8rJUpCbjdAjdzV4YTfd49X5oEzzsGzIJTIYT8L29PE9IvhLvNC7gMgkU4LS6Fqv-uWnL6XjP0iapcPwb8RsERhX-mjpRFyQI8G9RVsdelZkz5E5TUahQBUg0CQILm9X8GnqZMGXhqcqXKKqg0WgHLZTtjBXWk2j6q0qJVlWTzNjI6i8k0Msk2gSesyAAN2JZqaLokUYPEpdTw7h1UzAFdXiEsOIKktknLqeX3knMSLu1UXAZoqOZsVQS7BDIVSoGfxB3S5cZxUedBTR3vDdMssCxAFZYkIT9eM1buxP9nsWhMU0aSJptwGIza_1sG31OiuDisIacZ-HPX2eueMaRybE_SVoY6QMsDpgt7tWLzWzxR5llMuoHaUhYWW8GfMEkV6OuH4muntcVKAh-t9sFsifYCFLY2E6o8qverufZVr1m00]-->
    </g>
</svg>
