<?xml version="1.0" encoding="us-ascii" standalone="no"?>
<svg xmlns="http://www.w3.org/2000/svg" contentStyleType="text/css" height="327px" preserveAspectRatio="none"
     style="width:656px;height:327px;background:#FFFFFF;" version="1.1" viewBox="0 0 656 327" width="656px"
     zoomAndPan="magnify">
    <defs/>
    <g><!--class Item-->
        <g id="elem_Item">
            <rect codeLine="9" fill="#9D0012" height="41.2813" id="Item" rx="2.5" ry="2.5"
                  style="stroke:#181818;stroke-width:0.0;" width="67" x="343" y="7"/>
            <text fill="#FFFFFF" font-family="Arial" font-size="14" font-style="italic" lengthAdjust="spacing"
                  textLength="61" x="346" y="24.6738">{abstract}
            </text>
            <text fill="#FFFFFF" font-family="Arial" font-size="14" font-style="italic" lengthAdjust="spacing"
                  textLength="27" x="363" y="40.3145">Item
            </text>
        </g><!--class Deadline-->
        <g id="elem_Deadline">
            <rect codeLine="10" fill="#9D0012" height="41.2813" id="Deadline" rx="2.5" ry="2.5"
                  style="stroke:#181818;stroke-width:0.0;" width="67" x="566" y="280"/>
            <text fill="#FFFFFF" font-family="Arial" font-size="14" font-style="italic" lengthAdjust="spacing"
                  textLength="61" x="569" y="297.6738">{abstract}
            </text>
            <text fill="#FFFFFF" font-family="Arial" font-size="14" font-style="italic" lengthAdjust="spacing"
                  textLength="56" x="571.5" y="313.3145">Deadline
            </text>
        </g><!--class Status-->
        <g id="elem_Status">
            <rect codeLine="11" fill="#9D0012" height="41.2813" id="Status" rx="2.5" ry="2.5"
                  style="stroke:#181818;stroke-width:0.0;" width="67" x="440" y="280"/>
            <text fill="#FFFFFF" font-family="Arial" font-size="14" font-style="italic" lengthAdjust="spacing"
                  textLength="61" x="443" y="297.6738">{abstract}
            </text>
            <text fill="#FFFFFF" font-family="Arial" font-size="14" font-style="italic" lengthAdjust="spacing"
                  textLength="40" x="453.5" y="313.3145">Status
            </text>
        </g><!--class UniqueItemList-->
        <g id="elem_UniqueItemList">
            <rect codeLine="12" fill="#9D0012" height="25.6406" id="UniqueItemList" rx="2.5" ry="2.5"
                  style="stroke:#181818;stroke-width:0.0;" width="127" x="181" y="14.5"/>
            <text fill="#FFFFFF" font-family="Arial" font-size="14" lengthAdjust="spacing" textLength="117" x="184"
                  y="32.1738">UniqueItemList&lt;T&gt;
            </text>
        </g><!--class ItemList-->
        <g id="elem_ItemList">
            <rect codeLine="23" fill="#9D0012" height="25.6406" id="ItemList" rx="2.5" ry="2.5"
                  style="stroke:#181818;stroke-width:0.0;" width="139" x="7" y="14.5"/>
            <text fill="#FFFFFF" font-family="Arial" font-size="14" lengthAdjust="spacing" textLength="48" x="10"
                  y="32.1738">ItemList
            </text>
            <rect fill="#FFFFFF" height="17.9609" style="stroke:#181818;stroke-width:1.0;stroke-dasharray:2.0,2.0;"
                  width="83" x="66" y="11.5"/>
            <text fill="#000000" font-family="sans-serif" font-size="12" font-style="italic" lengthAdjust="spacing"
                  textLength="81" x="67" y="25.4492">T extends Item
            </text>
        </g><!--class Order-->
        <g id="elem_Order">
            <rect codeLine="15" fill="#9D0012" height="25.6406" id="Order" rx="2.5" ry="2.5"
                  style="stroke:#181818;stroke-width:0.0;" width="50" x="342.5" y="108"/>
            <text fill="#FFFFFF" font-family="Arial" font-size="14" lengthAdjust="spacing" textLength="37" x="349"
                  y="125.6738">Order
            </text>
        </g><!--class MenuItem-->
        <g id="elem_MenuItem">
            <rect codeLine="16" fill="#9D0012" height="25.6406" id="MenuItem" rx="2.5" ry="2.5"
                  style="stroke:#181818;stroke-width:0.0;" width="67" x="134" y="194"/>
            <text fill="#FFFFFF" font-family="Arial" font-size="14" lengthAdjust="spacing" textLength="61" x="137"
                  y="211.6738">MenuItem
            </text>
        </g><!--class Customer-->
        <g id="elem_Customer">
            <rect codeLine="17" fill="#9D0012" height="25.6406" id="Customer" rx="2.5" ry="2.5"
                  style="stroke:#181818;stroke-width:0.0;" width="67" x="236" y="194"/>
            <text fill="#FFFFFF" font-family="Arial" font-size="14" lengthAdjust="spacing" textLength="61" x="239"
                  y="211.6738">Customer
            </text>
        </g><!--class Quantity-->
        <g id="elem_Quantity">
            <rect codeLine="18" fill="#9D0012" height="25.6406" id="Quantity" rx="2.5" ry="2.5"
                  style="stroke:#181818;stroke-width:0.0;" width="59" x="338" y="194"/>
            <text fill="#FFFFFF" font-family="Arial" font-size="14" lengthAdjust="spacing" textLength="53" x="341"
                  y="211.6738">Quantity
            </text>
        </g><!--class OrderStatus-->
        <g id="elem_OrderStatus">
            <rect codeLine="19" fill="#9D0012" height="25.6406" id="OrderStatus" rx="2.5" ry="2.5"
                  style="stroke:#181818;stroke-width:0.0;" width="83" x="432" y="194"/>
            <text fill="#FFFFFF" font-family="Arial" font-size="14" lengthAdjust="spacing" textLength="77" x="435"
                  y="211.6738">OrderStatus
            </text>
        </g><!--class OrderDeadline-->
        <g id="elem_OrderDeadline">
            <rect codeLine="20" fill="#9D0012" height="25.6406" id="OrderDeadline" rx="2.5" ry="2.5"
                  style="stroke:#181818;stroke-width:0.0;" width="99" x="550" y="194"/>
            <text fill="#FFFFFF" font-family="Arial" font-size="14" lengthAdjust="spacing" textLength="93" x="553"
                  y="211.6738">OrderDeadline
            </text>
        </g><!--class OrderList-->
        <g id="elem_OrderList">
            <rect codeLine="21" fill="#9D0012" height="25.6406" id="OrderList" rx="2.5" ry="2.5"
                  style="stroke:#181818;stroke-width:0.0;" width="65" x="67" y="108"/>
            <text fill="#FFFFFF" font-family="Arial" font-size="14" lengthAdjust="spacing" textLength="59" x="70"
                  y="125.6738">OrderList
            </text>
        </g><!--class UniqueOrderList-->
        <g id="elem_UniqueOrderList">
            <rect codeLine="22" fill="#9D0012" height="25.6406" id="UniqueOrderList" rx="2.5" ry="2.5"
                  style="stroke:#181818;stroke-width:0.0;" width="109" x="190" y="108"/>
            <text fill="#FFFFFF" font-family="Arial" font-size="14" lengthAdjust="spacing" textLength="103" x="193"
                  y="125.6738">UniqueOrderList
            </text>
        </g><!--reverse link ItemList to OrderList-->
        <g id="link_ItemList_OrderList">
            <path d="M84.83,61.64 C88.84,77.6 93.42,95.79 96.37,107.56 " fill="none" id="ItemList-backto-OrderList"
                  style="stroke:#9D0012;stroke-width:1.1;"/>
            <polygon fill="none" points="78.06,63.41,79.97,42.31,91.64,60,78.06,63.41"
                     style="stroke:#9D0012;stroke-width:1.1;"/>
        </g><!--reverse link UniqueItemList to UniqueOrderList-->
        <g id="link_UniqueItemList_UniqueOrderList">
            <path d="M244.5,62.19 C244.5,78.03 244.5,95.93 244.5,107.56 " fill="none"
                  id="UniqueItemList-backto-UniqueOrderList" style="stroke:#9D0012;stroke-width:1.1;"/>
            <polygon fill="none" points="237.5,62.35,244.5,42.35,251.5,62.35,237.5,62.35"
                     style="stroke:#9D0012;stroke-width:1.1;"/>
        </g><!--link ItemList to UniqueItemList-->
        <g id="link_ItemList_UniqueItemList">
            <path codeLine="26" d="M160.67,27.5 C162.67,27.5 164.67,27.5 166.67,27.5 " fill="none"
                  id="ItemList-UniqueItemList" style="stroke:#9D0012;stroke-width:1.1;"/>
            <polygon fill="#9D0012" points="147.9,27.5,153.9,31.5,159.9,27.5,153.9,23.5,147.9,27.5"
                     style="stroke:#9D0012;stroke-width:1.1;"/>
            <polygon fill="#9D0012" points="179.37,27.5,170.37,23.5,174.37,27.5,170.37,31.5,179.37,27.5"
                     style="stroke:#9D0012;stroke-width:1.1;"/>
            <line style="stroke:#9D0012;stroke-width:1.1;" x1="174.37" x2="166.37" y1="27.5" y2="27.5"/>
            <text fill="#000000" font-family="sans-serif" font-size="13" lengthAdjust="spacing" textLength="7"
                  x="166.1193" y="23.5831">1
            </text>
        </g><!--link UniqueItemList to Item-->
        <g id="link_UniqueItemList_Item">
            <path codeLine="27" d="M308.44,27.5 C317.73,27.5 327.02,27.5 336.3,27.5 " fill="none"
                  id="UniqueItemList-to-Item" style="stroke:#9D0012;stroke-width:1.1;"/>
            <polygon fill="#9D0012" points="341.22,27.5,332.22,23.5,336.22,27.5,332.22,31.5,341.22,27.5"
                     style="stroke:#9D0012;stroke-width:1.1;"/>
            <text fill="#000000" font-family="sans-serif" font-size="13" lengthAdjust="spacing" textLength="5"
                  x="329.7959" y="22.67">*
            </text>
        </g><!--link OrderList to UniqueOrderList-->
        <g id="link_OrderList_UniqueOrderList">
            <path codeLine="29" d="M146.7,121 C156.23,121 165.75,121 175.28,121 " fill="none"
                  id="OrderList-UniqueOrderList" style="stroke:#9D0012;stroke-width:1.1;"/>
            <polygon fill="#9D0012" points="133.87,121,139.87,125,145.87,121,139.87,117,133.87,121"
                     style="stroke:#9D0012;stroke-width:1.1;"/>
            <polygon fill="#9D0012" points="188.23,121,179.23,117,183.23,121,179.23,125,188.23,121"
                     style="stroke:#9D0012;stroke-width:1.1;"/>
            <line style="stroke:#9D0012;stroke-width:1.1;" x1="183.23" x2="175.23" y1="121" y2="121"/>
            <text fill="#000000" font-family="sans-serif" font-size="13" lengthAdjust="spacing" textLength="7"
                  x="171.0192" y="116.9809">1
            </text>
        </g><!--link UniqueOrderList to Order-->
        <g id="link_UniqueOrderList_Order">
            <path codeLine="30" d="M299.27,121 C311.45,121 323.63,121 335.81,121 " fill="none"
                  id="UniqueOrderList-to-Order" style="stroke:#9D0012;stroke-width:1.1;"/>
            <polygon fill="#9D0012" points="340.67,121,331.67,117,335.67,121,331.67,125,340.67,121"
                     style="stroke:#9D0012;stroke-width:1.1;"/>
            <text fill="#000000" font-family="sans-serif" font-size="13" lengthAdjust="spacing" textLength="5"
                  x="329.3556" y="115.7292">*
            </text>
        </g><!--link Order to MenuItem-->
        <g id="link_Order_MenuItem">
            <path codeLine="31" d="M328.97,138.18 C295.01,152.45 245.58,173.21 210.37,187.99 " fill="none"
                  id="Order-MenuItem" style="stroke:#9D0012;stroke-width:1.1;"/>
            <polygon fill="#9D0012"
                     points="340.77,133.22,333.6897,131.8527,329.7044,137.8625,336.7847,139.2298,340.77,133.22"
                     style="stroke:#9D0012;stroke-width:1.1;"/>
            <polygon fill="#9D0012"
                     points="198.57,192.95,208.4169,193.1467,203.1787,191.0109,205.3144,185.7727,198.57,192.95"
                     style="stroke:#9D0012;stroke-width:1.1;"/>
            <line style="stroke:#9D0012;stroke-width:1.1;" x1="203.1787" x2="210.555" y1="191.0109" y2="187.915"/>
            <text fill="#000000" font-family="sans-serif" font-size="13" lengthAdjust="spacing" textLength="7"
                  x="199.4931" y="182.8609">1
            </text>
        </g><!--link Order to OrderDeadline-->
        <g id="link_Order_OrderDeadline">
            <path codeLine="32" d="M406.14,135.99 C446.14,150.47 508.68,173.12 551.74,188.71 " fill="none"
                  id="Order-OrderDeadline" style="stroke:#9D0012;stroke-width:1.1;"/>
            <polygon fill="#9D0012"
                     points="394.19,131.66,398.4694,137.464,405.4729,135.7461,401.1935,129.9421,394.19,131.66"
                     style="stroke:#9D0012;stroke-width:1.1;"/>
            <polygon fill="#9D0012"
                     points="563.84,193.09,556.7399,186.2645,559.1388,191.3875,554.0158,193.7864,563.84,193.09"
                     style="stroke:#9D0012;stroke-width:1.1;"/>
            <line style="stroke:#9D0012;stroke-width:1.1;" x1="559.1388" x2="551.62" y1="191.3875" y2="188.66"/>
            <text fill="#000000" font-family="sans-serif" font-size="13" lengthAdjust="spacing" textLength="7"
                  x="544.3434" y="182.6726">1
            </text>
        </g><!--link Order to OrderStatus-->
        <g id="link_Order_OrderStatus">
            <path codeLine="33" d="M394.33,143.26 C410.31,155.92 430.52,171.94 446.52,184.62 " fill="none"
                  id="Order-OrderStatus" style="stroke:#9D0012;stroke-width:1.1;"/>
            <polygon fill="#9D0012"
                     points="384.33,135.33,386.5483,142.1914,393.7351,142.7828,391.5168,135.9214,384.33,135.33"
                     style="stroke:#9D0012;stroke-width:1.1;"/>
            <polygon fill="#9D0012"
                     points="456.61,192.61,452.042,183.8845,452.6918,189.504,447.0724,190.1537,456.61,192.61"
                     style="stroke:#9D0012;stroke-width:1.1;"/>
            <line style="stroke:#9D0012;stroke-width:1.1;" x1="452.6918" x2="446.42" y1="189.504" y2="184.54"/>
            <text fill="#000000" font-family="sans-serif" font-size="13" lengthAdjust="spacing" textLength="7"
                  x="438.9825" y="182.6042">1
            </text>
        </g><!--link Order to Customer-->
        <g id="link_Order_Customer">
            <path codeLine="34" d="M342.17,143.71 C327.59,156.2 309.34,171.85 294.77,184.34 " fill="none"
                  id="Order-Customer" style="stroke:#9D0012;stroke-width:1.1;"/>
            <polygon fill="#9D0012"
                     points="351.89,135.38,344.7317,136.2511,342.7826,143.1938,349.9409,142.3227,351.89,135.38"
                     style="stroke:#9D0012;stroke-width:1.1;"/>
            <polygon fill="#9D0012"
                     points="285.17,192.57,294.6071,189.7522,288.9671,189.3169,289.4023,183.6769,285.17,192.57"
                     style="stroke:#9D0012;stroke-width:1.1;"/>
            <line style="stroke:#9D0012;stroke-width:1.1;" x1="288.9671" x2="295.04" y1="189.3169" y2="184.105"/>
            <text fill="#000000" font-family="sans-serif" font-size="13" lengthAdjust="spacing" textLength="7"
                  x="276.3461" y="182.6042">1
            </text>
        </g><!--link Order to Quantity-->
        <g id="link_Order_Quantity">
            <path codeLine="35" d="M367.5,148.58 C367.5,158.34 367.5,169.39 367.5,179.17 " fill="none"
                  id="Order-Quantity" style="stroke:#9D0012;stroke-width:1.1;"/>
            <polygon fill="#9D0012" points="367.5,135.91,363.5,141.91,367.5,147.91,371.5,141.91,367.5,135.91"
                     style="stroke:#9D0012;stroke-width:1.1;"/>
            <polygon fill="#9D0012" points="367.5,192.04,371.5,183.04,367.5,187.04,363.5,183.04,367.5,192.04"
                     style="stroke:#9D0012;stroke-width:1.1;"/>
            <line style="stroke:#9D0012;stroke-width:1.1;" x1="367.5" x2="367.5" y1="187.04" y2="179.04"/>
            <text fill="#000000" font-family="sans-serif" font-size="13" lengthAdjust="spacing" textLength="7"
                  x="354.4719" y="182.6042">1
            </text>
        </g><!--reverse link Item to Order-->
        <g id="link_Item_Order">
            <path codeLine="36" d="M372.46,69.58 C371.09,83.45 369.67,97.91 368.7,107.76 " fill="none"
                  id="Item-backto-Order" style="stroke:#9D0012;stroke-width:1.1;"/>
            <polygon fill="none" points="365.47,69.08,374.4,49.86,379.41,70.45,365.47,69.08"
                     style="stroke:#9D0012;stroke-width:1.1;"/>
        </g><!--link OrderDeadline to Deadline-->
        <g id="link_OrderDeadline_Deadline">
            <path codeLine="38" d="M599.5,220.34 C599.5,230.15 599.5,244.46 599.5,258.23 " fill="none"
                  id="OrderDeadline-to-Deadline" style="stroke:#9D0012;stroke-width:1.1;"/>
            <polygon fill="none" points="606.5,258.15,599.5,278.15,592.5,258.15,606.5,258.15"
                     style="stroke:#9D0012;stroke-width:1.1;"/>
        </g><!--link OrderStatus to Status-->
        <g id="link_OrderStatus_Status">
            <path codeLine="39" d="M473.5,220.34 C473.5,230.15 473.5,244.46 473.5,258.23 " fill="none"
                  id="OrderStatus-to-Status" style="stroke:#9D0012;stroke-width:1.1;"/>
            <polygon fill="none" points="480.5,258.15,473.5,278.15,466.5,258.15,480.5,258.15"
                     style="stroke:#9D0012;stroke-width:1.1;"/>
        </g><!--SRC=[bL5TIyCm57tFhxZcSL2XxpBGpeV1Hb7dco1P6bnOczJa1XtgVxTDsgw9CF0bt7lEkJdtuqegNhjAWCLJBQvRrzJ47gLgcM4DC6Fqn-uW-L49Qo6_pbEoqBKsi2rNzvlNejoKZpC1hvcrTumVtunsgheaxHNjMXs4aSWK5v0JWhe5rB3NYBg1IXh1KMf5oEtUec4SeUWDW7wn0VXvKMiK3GLceGykAbU2LRLKmgl7v6B54p9qrkj3I0RHivBlJlIE6sdnPhS4BuhXGNnMWVX4eQe0BSd0bwOIPeYtGZa_HqWBPxjDJEo3OmebdkQ5KLyUcIQRORr_v3xhBpJzL_RFOSX8mIBBJBUGdAPVn2bqAhgWuMxax3-M0qrR8schcVyWBD2_VN6mdZQPuF6A8X9ejDAKcuwH4jDP0f6vx-LygD4CigmZOkjW5PZ1zXS0]-->
    </g>
</svg>
