<?xml version="1.0" encoding="us-ascii" standalone="no"?>
<svg xmlns="http://www.w3.org/2000/svg" xmlns:xlink="http://www.w3.org/1999/xlink" contentStyleType="text/css"
     height="414px" preserveAspectRatio="none" style="width:630px;height:414px;background:#FFFFFF;" version="1.1"
     viewBox="0 0 630 414" width="630px" zoomAndPan="magnify">
    <defs/>
    <g><!--cluster Model-->
        <g id="cluster_Model">
            <rect fill="none" height="350" rx="2.5" ry="2.5" style="stroke:#181818;stroke-width:1.0;" width="617" x="7"
                  y="58"/>
            <text fill="#000000" font-family="sans-serif" font-size="14" font-weight="bold" lengthAdjust="spacing"
                  textLength="43" x="294" y="74.9659">Model
            </text>
        </g><!--class Person-->
        <g id="elem_Person">
            <rect codeLine="7" fill="#D42E12" height="29.0679" id="Person" rx="2.5" ry="2.5"
                  style="stroke:#FFFFFF;stroke-width:1.0;" width="52" x="246" y="96"/>
            <text fill="#FFFFFF" font-family="Arial" font-size="14" lengthAdjust="spacing" textLength="46" x="249"
                  y="115.9659">Person
            </text>
        </g><!--class Station-->
        <g id="elem_Station">
            <rect codeLine="8" fill="#D42E12" height="29.0679" id="Station" rx="2.5" ry="2.5"
                  style="stroke:#FFFFFF;stroke-width:1.0;" width="61" x="23.5" y="185"/>
            <text fill="#FFFFFF" font-family="Arial" font-size="14" lengthAdjust="spacing" textLength="55" x="26.5"
                  y="204.9659">Station
            </text>
        </g><!--class Email-->
        <g id="elem_Email">
            <rect codeLine="9" fill="#D42E12" height="29.0679" id="Email" rx="2.5" ry="2.5"
                  style="stroke:#FFFFFF;stroke-width:1.0;" width="50" x="120" y="185"/>
            <text fill="#FFFFFF" font-family="Arial" font-size="14" lengthAdjust="spacing" textLength="37" x="126.5"
                  y="204.9659">Email
            </text>
        </g><!--class Name-->
        <g id="elem_Name">
            <rect codeLine="10" fill="#D42E12" height="29.0679" id="Name" rx="2.5" ry="2.5"
                  style="stroke:#FFFFFF;stroke-width:1.0;" width="50" x="205" y="185"/>
            <text fill="#FFFFFF" font-family="Arial" font-size="14" lengthAdjust="spacing" textLength="40" x="210"
                  y="204.9659">Name
            </text>
        </g><!--class Phone-->
        <g id="elem_Phone">
            <rect codeLine="11" fill="#D42E12" height="29.0679" id="Phone" rx="2.5" ry="2.5"
                  style="stroke:#FFFFFF;stroke-width:1.0;" width="50" x="290" y="185"/>
            <text fill="#FFFFFF" font-family="Arial" font-size="14" lengthAdjust="spacing" textLength="42" x="294"
                  y="204.9659">Phone
            </text>
        </g><!--class GroupTagSet-->
        <g id="elem_GroupTagSet">
            <rect codeLine="12" fill="#D42E12" height="29.0679" id="GroupTagSet" rx="2.5" ry="2.5"
                  style="stroke:#FFFFFF;stroke-width:1.0;" width="94" x="375" y="185"/>
            <text fill="#FFFFFF" font-family="Arial" font-size="14" lengthAdjust="spacing" textLength="88" x="378"
                  y="204.9659">GroupTagSet
            </text>
        </g><!--class GroupTag-->
        <g id="elem_GroupTag">
            <rect codeLine="13" fill="#D42E12" height="29.0679" id="GroupTag" rx="2.5" ry="2.5"
                  style="stroke:#FFFFFF;stroke-width:1.0;" width="73" x="390.5" y="274"/>
            <text fill="#FFFFFF" font-family="Arial" font-size="14" lengthAdjust="spacing" textLength="67" x="393.5"
                  y="293.9659">GroupTag
            </text>
        </g><!--class ModuleTagSet-->
        <g id="elem_ModuleTagSet">
            <rect codeLine="14" fill="#D42E12" height="29.0679" id="ModuleTagSet" rx="2.5" ry="2.5"
                  style="stroke:#FFFFFF;stroke-width:1.0;" width="103" x="504.5" y="185"/>
            <text fill="#FFFFFF" font-family="Arial" font-size="14" lengthAdjust="spacing" textLength="97" x="507.5"
                  y="204.9659">ModuleTagSet
            </text>
        </g><!--class ModuleTag-->
        <g id="elem_ModuleTag">
            <rect codeLine="15" fill="#D42E12" height="29.0679" id="ModuleTag" rx="2.5" ry="2.5"
                  style="stroke:#FFFFFF;stroke-width:1.0;" width="82" x="509" y="274"/>
            <text fill="#FFFFFF" font-family="Arial" font-size="14" lengthAdjust="spacing" textLength="76" x="512"
                  y="293.9659">ModuleTag
            </text>
        </g><!--class Tag-->
        <g id="elem_Tag">
            <rect codeLine="16" fill="#D42E12" height="29.0679" id="Tag" rx="2.5" ry="2.5"
                  style="stroke:#FFFFFF;stroke-width:1.0;" width="50" x="463" y="363"/>
            <text fill="#FFFFFF" font-family="Arial" font-size="14" lengthAdjust="spacing" textLength="25" x="475.5"
                  y="382.9659">Tag
            </text>
        </g><!--class Location-->
        <g id="elem_Location">
            <rect codeLine="17" fill="#D42E12" height="29.0679" id="Location" rx="2.5" ry="2.5"
                  style="stroke:#FFFFFF;stroke-width:1.0;" width="62" x="23" y="274"/>
            <text fill="#FFFFFF" font-family="Arial" font-size="14" lengthAdjust="spacing" textLength="56" x="26"
                  y="293.9659">Location
            </text>
        </g><!--class HiddenOutside-->
        <g id="elem_HiddenOutside">
            <rect codeLine="20" fill="#FFFFFF" height="29.0679" id="HiddenOutside" rx="2.5" ry="2.5"
                  style="stroke:#FFFFFF;stroke-width:1.0;" width="108" x="218" y="7"/>
            <text fill="#FFFFFF" font-family="Arial" font-size="14" lengthAdjust="spacing" textLength="102" x="221"
                  y="26.9659">HiddenOutside
            </text>
        </g><!--link HiddenOutside to Person-->
        <g id="link_HiddenOutside_Person">
            <path codeLine="21" d="M272,36.48 C272,50.81 272,73.24 272,89.46 " fill="none" id="HiddenOutside-to-Person"
                  style="stroke:#D42E12;stroke-width:1.1;stroke-dasharray:7.0,7.0;"/>
            <polygon fill="#D42E12" points="272,94.04,276,85.04,272,89.04,268,85.04,272,94.04"
                     style="stroke:#D42E12;stroke-width:1.1;"/>
        </g><!--link Person to Name-->
        <g id="link_Person_Name">
            <path codeLine="23" d="M259.04,138.34 C253.91,148.96 248.03,161.15 242.9,171.77 " fill="none"
                  id="Person-Name" style="stroke:#D42E12;stroke-width:1.1;"/>
            <polygon fill="#D42E12"
                     points="264.59,126.84,258.3788,130.5035,259.3715,137.6459,265.5827,133.9824,264.59,126.84"
                     style="stroke:#D42E12;stroke-width:1.1;"/>
            <polygon fill="#D42E12"
                     points="237.39,183.19,244.8995,176.8176,239.5599,178.6854,237.6921,173.3458,237.39,183.19"
                     style="stroke:#D42E12;stroke-width:1.1;"/>
            <line style="stroke:#D42E12;stroke-width:1.1;" x1="239.5599" x2="243.04" y1="178.6854" y2="171.485"/>
        </g><!--link Person to Phone-->
        <g id="link_Person_Phone">
            <path codeLine="24" d="M285.26,138.34 C290.52,148.96 296.54,161.15 301.79,171.77 " fill="none"
                  id="Person-Phone" style="stroke:#D42E12;stroke-width:1.1;"/>
            <polygon fill="#D42E12"
                     points="279.58,126.83,278.6575,133.9818,284.9043,137.5841,285.8269,130.4323,279.58,126.83"
                     style="stroke:#D42E12;stroke-width:1.1;"/>
            <polygon fill="#D42E12"
                     points="307.44,183.2,307.0411,173.3592,305.2259,178.7169,299.8682,176.9017,307.44,183.2"
                     style="stroke:#D42E12;stroke-width:1.1;"/>
            <line style="stroke:#D42E12;stroke-width:1.1;" x1="305.2259" x2="301.68" y1="178.7169" y2="171.545"/>
        </g><!--link Person to Email-->
        <g id="link_Person_Email">
            <path codeLine="25" d="M239.82,133.55 C220.61,146.7 196.31,163.35 177.12,176.49 " fill="none"
                  id="Person-Email" style="stroke:#D42E12;stroke-width:1.1;"/>
            <polygon fill="#D42E12"
                     points="250.35,126.33,243.1395,126.4224,240.4515,133.1138,247.662,133.0214,250.35,126.33"
                     style="stroke:#D42E12;stroke-width:1.1;"/>
            <polygon fill="#D42E12"
                     points="166.6,183.7,176.2862,181.9177,170.7261,180.876,171.7678,175.3159,166.6,183.7"
                     style="stroke:#D42E12;stroke-width:1.1;"/>
            <line style="stroke:#D42E12;stroke-width:1.1;" x1="170.7261" x2="177.33" y1="180.876" y2="176.355"/>
        </g><!--link Person to Station-->
        <g id="link_Person_Station">
            <path codeLine="26" d="M232.32,127.34 C194.49,142.43 137.61,165.13 98.32,180.81 " fill="none"
                  id="Person-Station" style="stroke:#D42E12;stroke-width:1.1;"/>
            <polygon fill="#D42E12"
                     points="244.3,122.56,237.2451,121.0672,233.1537,127.0053,240.2086,128.4981,244.3,122.56"
                     style="stroke:#D42E12;stroke-width:1.1;"/>
            <polygon fill="#D42E12"
                     points="86.36,185.59,96.2015,185.9714,91.0043,183.7378,93.2379,178.5406,86.36,185.59"
                     style="stroke:#D42E12;stroke-width:1.1;"/>
            <line style="stroke:#D42E12;stroke-width:1.1;" x1="91.0043" x2="98.435" y1="183.7378" y2="180.765"/>
        </g><!--link Person to ModuleTagSet-->
        <g id="link_Person_ModuleTagSet">
            <path codeLine="28" d="M312.12,123.79 C360.22,138.53 441.28,163.36 496.64,180.31 " fill="none"
                  id="Person-ModuleTagSet" style="stroke:#D42E12;stroke-width:1.1;"/>
            <polygon fill="#D42E12"
                     points="299.91,120.05,304.4783,125.6295,311.3856,123.5586,306.8173,117.9791,299.91,120.05"
                     style="stroke:#D42E12;stroke-width:1.1;"/>
            <polygon fill="#D42E12"
                     points="509.02,184.11,501.5828,177.6533,504.2385,182.6481,499.2438,185.3037,509.02,184.11"
                     style="stroke:#D42E12;stroke-width:1.1;"/>
            <line style="stroke:#D42E12;stroke-width:1.1;" x1="504.2385" x2="496.59" y1="182.6481" y2="180.3"/>
        </g><!--link ModuleTagSet to ModuleTag-->
        <g id="link_ModuleTagSet_ModuleTag">
            <path codeLine="29" d="M554.05,228.75 C553.38,238.48 552.63,249.37 551.96,259.1 " fill="none"
                  id="ModuleTagSet-ModuleTag" style="stroke:#D42E12;stroke-width:1.1;"/>
            <polygon fill="#D42E12"
                     points="554.93,215.99,550.5243,221.6987,554.0994,227.9612,558.5051,222.2525,554.93,215.99"
                     style="stroke:#D42E12;stroke-width:1.1;"/>
            <polygon fill="#D42E12"
                     points="551.07,272.05,555.6834,263.3485,551.4161,267.062,547.7025,262.7947,551.07,272.05"
                     style="stroke:#D42E12;stroke-width:1.1;"/>
            <line style="stroke:#D42E12;stroke-width:1.1;" x1="551.4161" x2="551.96" y1="267.062" y2="259.075"/>
            <text fill="#000000" font-family="sans-serif" font-size="13" lengthAdjust="spacing" textLength="7"
                  x="543.0551" y="262.2202">*
            </text>
        </g><!--link Person to GroupTagSet-->
        <g id="link_Person_GroupTagSet">
            <path codeLine="30" d="M308.49,132.67 C331.85,146.21 362.05,163.73 385.43,177.29 " fill="none"
                  id="Person-GroupTagSet" style="stroke:#D42E12;stroke-width:1.1;"/>
            <polygon fill="#D42E12"
                     points="297.41,126.24,300.5936,132.7103,307.7906,132.2602,304.607,125.7899,297.41,126.24"
                     style="stroke:#D42E12;stroke-width:1.1;"/>
            <polygon fill="#D42E12"
                     points="396.65,183.8,390.8757,175.8214,392.3261,181.2892,386.8584,182.7396,396.65,183.8"
                     style="stroke:#D42E12;stroke-width:1.1;"/>
            <line style="stroke:#D42E12;stroke-width:1.1;" x1="392.3261" x2="385.405" y1="181.2892" y2="177.275"/>
        </g><!--link GroupTagSet to GroupTag-->
        <g id="link_GroupTagSet_GroupTag">
            <path codeLine="31" d="M423.62,228.75 C424.18,238.48 424.81,249.37 425.37,259.1 " fill="none"
                  id="GroupTagSet-GroupTag" style="stroke:#D42E12;stroke-width:1.1;"/>
            <polygon fill="#D42E12"
                     points="422.89,215.99,419.2392,222.2087,423.5753,227.9704,427.2261,221.7518,422.89,215.99"
                     style="stroke:#D42E12;stroke-width:1.1;"/>
            <polygon fill="#D42E12"
                     points="426.11,272.05,429.5895,262.8362,425.8244,267.0582,421.6025,263.2931,426.11,272.05"
                     style="stroke:#D42E12;stroke-width:1.1;"/>
            <line style="stroke:#D42E12;stroke-width:1.1;" x1="425.8244" x2="425.365" y1="267.0582" y2="259.07"/>
            <text fill="#000000" font-family="sans-serif" font-size="13" lengthAdjust="spacing" textLength="7"
                  x="417.6681" y="262.2202">*
            </text>
        </g><!--link GroupTag to Tag-->
        <g id="link_GroupTag_Tag">
            <path codeLine="32" d="M436.8,303.48 C444.72,314.77 456.15,331.08 466.21,345.42 " fill="none"
                  id="GroupTag-to-Tag" style="stroke:#D42E12;stroke-width:1.1;stroke-dasharray:7.0,7.0;"/>
            <polygon fill="none" points="471.6,340.92,477.35,361.32,460.14,348.96,471.6,340.92"
                     style="stroke:#D42E12;stroke-width:1.1;"/>
        </g><!--link ModuleTag to Tag-->
        <g id="link_ModuleTag_Tag">
            <path codeLine="33" d="M540.04,303.48 C531.99,314.77 520.37,331.08 510.15,345.42 " fill="none"
                  id="ModuleTag-to-Tag" style="stroke:#D42E12;stroke-width:1.1;stroke-dasharray:7.0,7.0;"/>
            <polygon fill="none" points="516.12,349.1,498.82,361.32,504.72,340.97,516.12,349.1"
                     style="stroke:#D42E12;stroke-width:1.1;"/>
        </g><!--link Station to Location-->
        <g id="link_Station_Location">
            <path codeLine="34" d="M54,214.48 C54,228.81 54,251.24 54,267.46 " fill="none" id="Station-to-Location"
                  style="stroke:#D42E12;stroke-width:1.1;"/>
            <polygon fill="#D42E12" points="54,272.04,58,263.04,54,267.04,50,263.04,54,272.04"
                     style="stroke:#D42E12;stroke-width:1.1;"/>
        </g><!--SRC=[PL11RiCW4Bpp2fhU8iLIxX5IwwRDmOcZDFTg1Ii76OC5HbNLzkybCRPnoeNPsHsOdGUfkV82gUk-56QjRnHnjTGjM6WeM6i-pnV9QutEqNMslc_cHXbBz-NBjlZ8ow8y9GDSWNFFmElA6g_5_r5o34seaEwDG4KtcnFo3dIba37wJVAhdXxHEgDZyII43KvYjMr0geWFqE2Wk1WzuBVmTNk6wXsxEoQMuMklS3OnKh6UK64uT3Au-IMHsKaXK9U-SpA4-FXwEsJEPXaRjY3zJPUh5UijfqHlF6Nw3LDcI616pfP8YxwzM2wIfL9X6a-29zcOrW32DZ_i5iduuaH5S_Ig7hFw0m00]-->
    </g>
</svg>
