<?xml version="1.0" encoding="UTF-8" standalone="no"?><svg xmlns="http://www.w3.org/2000/svg" xmlns:xlink="http://www.w3.org/1999/xlink" contentStyleType="text/css" height="262px" preserveAspectRatio="none" style="width:671px;height:262px;background:#FFFFFF;" version="1.1" viewBox="0 0 671 262" width="671px" zoomAndPan="magnify"><defs/><g><!--cluster Recommender--><g id="cluster_Recommender"><rect fill="#E6EFF9" height="249" rx="2.5" ry="2.5" style="stroke:#000000;stroke-width:1.5;" width="277" x="126" y="7"/><text fill="#000000" font-family="sans-serif" font-size="14" font-weight="bold" lengthAdjust="spacing" textLength="102" x="213.5" y="22.5352">Recommender</text></g><!--cluster Model--><g id="cluster_Model"><rect fill="#FBEAE7" height="249" rx="2.5" ry="2.5" style="stroke:#000000;stroke-width:1.5;" width="188" x="477" y="7"/><text fill="#000000" font-family="sans-serif" font-size="14" font-weight="bold" lengthAdjust="spacing" textLength="44" x="549" y="22.5352">Model</text></g><!--class Recommender--><g id="elem_Recommender"><rect codeLine="6" fill="#005EC4" height="26.0986" id="Recommender" rx="2.5" ry="2.5" style="stroke:#FFFFFF;stroke-width:1.0;" width="100" x="142" y="128"/><text fill="#FFFFFF" font-family="Arial" font-size="14" lengthAdjust="spacing" textLength="94" x="145" y="146.1318">Recommender</text></g><!--class TimingRecommender--><g id="elem_TimingRecommender"><rect codeLine="7" fill="#005EC4" height="26.0986" id="TimingRecommender" rx="2.5" ry="2.5" style="stroke:#FFFFFF;stroke-width:1.0;" width="143" x="243.5" y="42"/><text fill="#FFFFFF" font-family="Arial" font-size="14" lengthAdjust="spacing" textLength="137" x="246.5" y="60.1318">TimingRecommender</text></g><!--class LocationRecommender--><g id="elem_LocationRecommender"><rect codeLine="8" fill="#005EC4" height="26.0986" id="LocationRecommender" rx="2.5" ry="2.5" style="stroke:#FFFFFF;stroke-width:1.0;" width="154" x="233" y="214"/><text fill="#FFFFFF" font-family="Arial" font-size="14" lengthAdjust="spacing" textLength="148" x="236" y="232.1318">LocationRecommender</text></g><!--class LocationTracker--><g id="elem_LocationTracker"><rect codeLine="9" fill="#005EC4" height="26.0986" id="LocationTracker" rx="2.5" ry="2.5" style="stroke:#FFFFFF;stroke-width:1.0;" width="109" x="277.5" y="128"/><text fill="#FFFFFF" font-family="Arial" font-size="14" lengthAdjust="spacing" textLength="103" x="280.5" y="146.1318">LocationTracker</text></g><!--class Person--><g id="elem_Person"><rect codeLine="13" fill="#D42E12" height="26.0986" id="Person" rx="2.5" ry="2.5" style="stroke:#FFFFFF;stroke-width:1.0;" width="51" x="493.5" y="128"/><text fill="#FFFFFF" font-family="Arial" font-size="14" lengthAdjust="spacing" textLength="45" x="496.5" y="146.1318">Person</text></g><!--class Location--><g id="elem_Location"><rect codeLine="14" fill="#D42E12" height="26.0986" id="Location" rx="2.5" ry="2.5" style="stroke:#FFFFFF;stroke-width:1.0;" width="60" x="493" y="214"/><text fill="#FFFFFF" font-family="Arial" font-size="14" lengthAdjust="spacing" textLength="54" x="496" y="232.1318">Location</text></g><!--class TimePeriod--><g id="elem_TimePeriod"><rect codeLine="15" fill="#D42E12" height="26.0986" id="TimePeriod" rx="2.5" ry="2.5" style="stroke:#FFFFFF;stroke-width:1.0;" width="79" x="493.5" y="42"/><text fill="#FFFFFF" font-family="Arial" font-size="14" lengthAdjust="spacing" textLength="73" x="496.5" y="60.1318">TimePeriod</text></g><!--class Timetable--><g id="elem_Timetable"><rect codeLine="16" fill="#D42E12" height="26.0986" id="Timetable" rx="2.5" ry="2.5" style="stroke:#FFFFFF;stroke-width:1.0;" width="69" x="579.5" y="128"/><text fill="#FFFFFF" font-family="Arial" font-size="14" lengthAdjust="spacing" textLength="63" x="582.5" y="146.1318">Timetable</text></g><!--class HiddenOutside--><g id="elem_HiddenOutside"><rect codeLine="19" fill="#FFFFFF" height="26.0986" id="HiddenOutside" rx="2.5" ry="2.5" style="stroke:#FFFFFF;stroke-width:1.0;" width="100" x="7" y="128"/><text fill="#FFFFFF" font-family="Arial" font-size="14" lengthAdjust="spacing" textLength="94" x="10" y="146.1318">HiddenOutside</text></g><!--link HiddenOutside to Recommender--><g id="link_HiddenOutside_Recommender"><path codeLine="20" d="M107.36,141 C116.67,141 125.99,141 135.3,141 " fill="none" id="HiddenOutside-to-Recommender" style="stroke:#181818;stroke-width:1.1;stroke-dasharray:7.0,7.0;"/><polygon fill="#181818" points="140.23,141,131.23,137,135.23,141,131.23,145,140.23,141" style="stroke:#181818;stroke-width:1.1;"/></g><!--link Recommender to LocationRecommender--><g id="link_Recommender_LocationRecommender"><path codeLine="22" d="M209.41,154.39 C230.07,169.1 264.55,193.65 287.29,209.83 " fill="none" id="Recommender-to-LocationRecommender" style="stroke:#005EC4;stroke-width:1.1;"/><polygon fill="#005EC4" points="291.28,212.68,286.2701,204.2006,287.2075,209.7792,281.6288,210.7166,291.28,212.68" style="stroke:#005EC4;stroke-width:1.1;"/></g><!--reverse link TimingRecommender to Recommender--><g id="link_TimingRecommender_Recommender"><path codeLine="23" d="M291.71,71.91 C268.04,88.07 231.88,112.77 210.22,127.55 " fill="none" id="TimingRecommender-backto-Recommender" style="stroke:#005EC4;stroke-width:1.1;"/><polygon fill="#005EC4" points="295.6,69.25,285.9104,71.0141,291.4686,72.0662,290.4164,77.6244,295.6,69.25" style="stroke:#005EC4;stroke-width:1.1;"/></g><!--link Recommender to LocationTracker--><g id="link_Recommender_LocationTracker"><path codeLine="24" d="M242.31,141 C251.89,141 261.47,141 271.05,141 " fill="none" id="Recommender-to-LocationTracker" style="stroke:#005EC4;stroke-width:1.1;"/><polygon fill="#005EC4" points="275.83,141,266.83,137,270.83,141,266.83,145,275.83,141" style="stroke:#005EC4;stroke-width:1.1;"/><text fill="#000000" font-family="sans-serif" font-size="13" lengthAdjust="spacing" textLength="6" x="263.6033" y="137.5748">*</text></g><!--reverse link TimingRecommender to LocationTracker--><!--link LocationTracker to LocationRecommender--><!--reverse link Person to LocationTracker--><g id="link_Person_LocationTracker"><path codeLine="29" d="M486.94,141 C453.56,141 420.17,141 386.79,141 " fill="none" id="Person-backto-LocationTracker" style="stroke:#005EC4;stroke-width:1.1;"/><polygon fill="#005EC4" points="491.66,141,482.66,137,486.66,141,482.66,145,491.66,141" style="stroke:#005EC4;stroke-width:1.1;"/><text fill="#000000" font-family="sans-serif" font-size="13" lengthAdjust="spacing" textLength="8" x="477.5386" y="136.6736">1</text></g><!--link LocationTracker to Location--><g id="link_LocationTracker_Location"><path codeLine="30" d="M360.18,154.39 C394.46,169.47 452.28,194.9 489,211.05 " fill="none" id="LocationTracker-to-Location" style="stroke:#005EC4;stroke-width:1.1;"/><polygon fill="#005EC4" points="493.32,212.95,486.6969,205.6606,488.7445,210.9339,483.4712,212.9815,493.32,212.95" style="stroke:#005EC4;stroke-width:1.1;"/><text fill="#000000" font-family="sans-serif" font-size="13" lengthAdjust="spacing" textLength="6" x="479.1144" y="204.7349">*</text></g><!--link LocationTracker to TimePeriod--><g id="link_LocationTracker_TimePeriod"><path codeLine="31" d="M361.78,127.55 C397.91,112.46 458.76,87.03 497.35,70.9 " fill="none" id="LocationTracker-to-TimePeriod" style="stroke:#005EC4;stroke-width:1.1;stroke-dasharray:7.0,7.0;"/><polygon fill="#005EC4" points="501.95,68.98,492.1036,68.76,497.3367,70.9081,495.1886,76.1413,501.95,68.98" style="stroke:#005EC4;stroke-width:1.1;"/></g><!--reverse link TimePeriod to TimingRecommender--><g id="link_TimePeriod_TimingRecommender"><path codeLine="33" d="M486.85,55 C453.55,55 420.25,55 386.96,55 " fill="none" id="TimePeriod-backto-TimingRecommender" style="stroke:#005EC4;stroke-width:1.1;stroke-dasharray:7.0,7.0;"/><polygon fill="#005EC4" points="491.55,55,482.55,51,486.55,55,482.55,59,491.55,55" style="stroke:#005EC4;stroke-width:1.1;"/></g><!--link TimingRecommender to Person--><g id="link_TimingRecommender_Person"><path codeLine="34" d="M345.1,68.39 C383.18,84.08 448.48,110.96 487.3,126.95 " fill="none" id="TimingRecommender-to-Person" style="stroke:#005EC4;stroke-width:1.1;"/><polygon fill="#005EC4" points="491.9,128.84,485.0932,121.7219,487.2745,126.9413,482.0552,129.1227,491.9,128.84" style="stroke:#005EC4;stroke-width:1.1;"/><text fill="#000000" font-family="sans-serif" font-size="13" lengthAdjust="spacing" textLength="8" x="482.1788" y="117.2642">1</text></g><!--link LocationRecommender to TimePeriod--><g id="link_LocationRecommender_TimePeriod"><path codeLine="36" d="M326.19,213.66 C365.8,183.47 467.54,105.9 511.85,72.12 " fill="none" id="LocationRecommender-to-TimePeriod" style="stroke:#005EC4;stroke-width:1.1;stroke-dasharray:7.0,7.0;"/><polygon fill="#005EC4" points="515.76,69.14,506.174,71.4002,511.7789,72.1651,511.0141,77.77,515.76,69.14" style="stroke:#005EC4;stroke-width:1.1;"/></g><!--reverse link Location to LocationRecommender--><g id="link_Location_LocationRecommender"><path codeLine="37" d="M486.38,227 C453.38,227 420.38,227 387.38,227 " fill="none" id="Location-backto-LocationRecommender" style="stroke:#005EC4;stroke-width:1.1;"/><polygon fill="#005EC4" points="491.02,227,482.02,223,486.02,227,482.02,231,491.02,227" style="stroke:#005EC4;stroke-width:1.1;"/><text fill="#000000" font-family="sans-serif" font-size="13" lengthAdjust="spacing" textLength="6" x="478.8024" y="241.3272">*</text></g><!--reverse link TimePeriod to Person--><!--link Person to Location--><!--link Person to Timetable--><g id="link_Person_Timetable"><path codeLine="42" d="M544.98,141 C554.25,141 563.52,141 572.8,141 " fill="none" id="Person-to-Timetable" style="stroke:#D42E12;stroke-width:1.1;"/><polygon fill="#D42E12" points="577.71,141,568.71,137,572.71,141,568.71,145,577.71,141" style="stroke:#D42E12;stroke-width:1.1;"/></g><!--reverse link TimePeriod to Timetable--><g id="link_TimePeriod_Timetable"><path codeLine="43" d="M549.13,72.73 C564.72,88.9 587.98,113.02 602,127.55 " fill="none" id="TimePeriod-backto-Timetable" style="stroke:#D42E12;stroke-width:1.1;"/><polygon fill="#D42E12" points="546,69.48,549.3678,78.7351,549.4707,73.0792,555.1266,73.1821,546,69.48" style="stroke:#D42E12;stroke-width:1.1;"/><text fill="#000000" font-family="sans-serif" font-size="13" lengthAdjust="spacing" textLength="6" x="542.2503" y="88.7006">*</text></g><!--link Timetable to Location--><g id="link_Timetable_Location"><path codeLine="44" d="M600.57,154.39 C584.85,168.91 558.72,193.03 541.18,209.21 " fill="none" id="Timetable-to-Location" style="stroke:#D42E12;stroke-width:1.1;"/><polygon fill="#D42E12" points="537.59,212.53,546.9112,209.3496,541.2585,209.1327,541.4755,203.48,537.59,212.53" style="stroke:#D42E12;stroke-width:1.1;"/><text fill="#000000" font-family="sans-serif" font-size="13" lengthAdjust="spacing" textLength="6" x="534.4755" y="203.1716">*</text></g><!--SRC=[ZPDHIyCm58NVxw-8zK4Gch5N7mRQwHGxAsC-ZJ5Y4zgmD2bDoX3nlnlAtD8sxUnZxtUJS-x9lScDAVNTP58A8arT29ogOf8AedL8ESagKi0LbwceAKFQV0c6Iqk1tdDP4bj5fAhKOPtpT2-PrcYAfm0bIVSaOsZ5x6a5avHLA4uMBz4kIk9ajNkuZruNg-JZROw-0TclkN08TuWrBxZCBdEnIedXIlwVN5TMSuVwEJjPAie4MYRpntZSmpkhj98kwRbie6pTCTlF5Hq13FaKh5MtCgEc_CmfPJAfZUOshUkdveFsNrpnB3TuvWuRm9rJk75ci0rdlc6EDDIbRUdbDDBG2B8zmMtGJGEW6q-uoHixGzSCybGTv80NJrFFK30DZj5Ue3j6UZHkqNZcX0xGVzwu8wNTqEVxOix2mRSLOtfyl6yshbyuBa0lgBz3k_LECCu1pXi_FPBJ1i1v5zhaIL9xJbxsU7VBm2y0]--></g></svg>
