<?xml version="1.0" encoding="UTF-8" standalone="no"?><svg xmlns="http://www.w3.org/2000/svg" xmlns:xlink="http://www.w3.org/1999/xlink" contentStyleType="text/css" height="392px" preserveAspectRatio="none" style="width:735px;height:392px;background:#FFFFFF;" version="1.1" viewBox="0 0 735 392" width="735px" zoomAndPan="magnify"><defs/><g><rect fill="#E6EFF9" height="373.2832" style="stroke:#181818;stroke-width:0.5;" width="728" x="1" y="6"/><text fill="#FFFFFF" font-family="sans-serif" font-size="13" font-weight="bold" lengthAdjust="spacing" textLength="36" x="345" y="18.5684">Logic</text><rect fill="#FFFFFF" height="303.4844" style="stroke:#181818;stroke-width:1.0;" width="10" x="68.5" y="72.7988"/><rect fill="#FFFFFF" height="30" style="stroke:#181818;stroke-width:1.0;" width="10" x="269.5" y="102.1094"/><rect fill="#FFFFFF" height="29.3105" style="stroke:#181818;stroke-width:1.0;" width="10" x="269.5" y="337.9727"/><rect fill="#FFFFFF" height="30" style="stroke:#181818;stroke-width:1.0;" width="10" x="469.5" y="161.4199"/><rect fill="#FFFFFF" height="29.3105" style="stroke:#181818;stroke-width:1.0;" width="10" x="469.5" y="220.7305"/><rect fill="#FFFFFF" height="29.3105" style="stroke:#181818;stroke-width:1.0;" width="10" x="646" y="279.3516"/><line style="stroke:#181818;stroke-width:0.5;stroke-dasharray:5.0,5.0;" x1="73" x2="73" y1="56.7988" y2="385.2832"/><line style="stroke:#181818;stroke-width:0.5;stroke-dasharray:5.0,5.0;" x1="274" x2="274" y1="56.7988" y2="385.2832"/><line style="stroke:#181818;stroke-width:0.5;stroke-dasharray:5.0,5.0;" x1="474" x2="474" y1="56.7988" y2="385.2832"/><line style="stroke:#181818;stroke-width:0.5;stroke-dasharray:5.0,5.0;" x1="651" x2="651" y1="56.7988" y2="385.2832"/><rect fill="#005EC4" height="30.4883" rx="2.5" ry="2.5" style="stroke:#181818;stroke-width:0.5;" width="117" x="15" y="25.3105"/><text fill="#FFFFFF" font-family="sans-serif" font-size="14" lengthAdjust="spacing" textLength="103" x="22" y="45.8457">:Recommender</text><rect fill="#005EC4" height="30.4883" rx="2.5" ry="2.5" style="stroke:#181818;stroke-width:0.5;" width="175" x="187" y="25.3105"/><text fill="#FFFFFF" font-family="sans-serif" font-size="14" lengthAdjust="spacing" textLength="161" x="194" y="45.8457">:LocationRecommender</text><rect fill="#005EC4" height="30.4883" rx="2.5" ry="2.5" style="stroke:#181818;stroke-width:0.5;" width="165" x="392" y="25.3105"/><text fill="#FFFFFF" font-family="sans-serif" font-size="14" lengthAdjust="spacing" textLength="151" x="399" y="45.8457">:TimingRecommender</text><rect fill="#005EC4" height="30.4883" rx="2.5" ry="2.5" style="stroke:#181818;stroke-width:0.5;" width="128" x="587" y="25.3105"/><text fill="#FFFFFF" font-family="sans-serif" font-size="14" lengthAdjust="spacing" textLength="114" x="594" y="45.8457">:LocationTracker</text><rect fill="#FFFFFF" height="303.4844" style="stroke:#181818;stroke-width:1.0;" width="10" x="68.5" y="72.7988"/><rect fill="#FFFFFF" height="30" style="stroke:#181818;stroke-width:1.0;" width="10" x="269.5" y="102.1094"/><rect fill="#FFFFFF" height="29.3105" style="stroke:#181818;stroke-width:1.0;" width="10" x="269.5" y="337.9727"/><rect fill="#FFFFFF" height="30" style="stroke:#181818;stroke-width:1.0;" width="10" x="469.5" y="161.4199"/><rect fill="#FFFFFF" height="29.3105" style="stroke:#181818;stroke-width:1.0;" width="10" x="469.5" y="220.7305"/><rect fill="#FFFFFF" height="29.3105" style="stroke:#181818;stroke-width:1.0;" width="10" x="646" y="279.3516"/><polygon fill="#181818" points="56.5,68.7988,66.5,72.7988,56.5,76.7988,60.5,72.7988" style="stroke:#181818;stroke-width:1.0;"/><line style="stroke:#181818;stroke-width:1.0;" x1="0" x2="62.5" y1="72.7988" y2="72.7988"/><polygon fill="#181818" points="257.5,98.1094,267.5,102.1094,257.5,106.1094,261.5,102.1094" style="stroke:#181818;stroke-width:1.0;"/><line style="stroke:#181818;stroke-width:1.0;" x1="78.5" x2="263.5" y1="102.1094" y2="102.1094"/><text fill="#000000" font-family="sans-serif" font-size="13" lengthAdjust="spacing" textLength="140" x="104" y="97.3672">initialise(destinations)</text><polygon fill="#181818" points="457.5,157.4199,467.5,161.4199,457.5,165.4199,461.5,161.4199" style="stroke:#181818;stroke-width:1.0;"/><line style="stroke:#181818;stroke-width:1.0;" x1="78.5" x2="463.5" y1="161.4199" y2="161.4199"/><text fill="#000000" font-family="sans-serif" font-size="13" lengthAdjust="spacing" textLength="175" x="186.5" y="156.6777">initialise(participantIndices)</text><polygon fill="#181818" points="457.5,216.7305,467.5,220.7305,457.5,224.7305,461.5,220.7305" style="stroke:#181818;stroke-width:1.0;"/><line style="stroke:#181818;stroke-width:1.0;" x1="78.5" x2="463.5" y1="220.7305" y2="220.7305"/><text fill="#000000" font-family="sans-serif" font-size="13" lengthAdjust="spacing" textLength="244" x="152" y="215.9883">giveLongestTimingRecommendations()</text><polygon fill="#181818" points="89.5,246.041,79.5,250.041,89.5,254.041,85.5,250.041" style="stroke:#181818;stroke-width:1.0;"/><line style="stroke:#181818;stroke-width:1.0;stroke-dasharray:2.0,2.0;" x1="83.5" x2="473.5" y1="250.041" y2="250.041"/><text fill="#000000" font-family="sans-serif" font-size="13" lengthAdjust="spacing" textLength="48" x="252.5" y="245.2988">timings</text><polygon fill="#181818" points="634,275.3516,644,279.3516,634,283.3516,638,279.3516" style="stroke:#181818;stroke-width:1.0;"/><line style="stroke:#181818;stroke-width:1.0;" x1="78.5" x2="640" y1="279.3516" y2="279.3516"/><text fill="#000000" font-family="sans-serif" font-size="13" lengthAdjust="spacing" textLength="239" x="242.75" y="274.6094">getLocationsFromTimePeriod(timings)</text><polygon fill="#181818" points="89.5,304.6621,79.5,308.6621,89.5,312.6621,85.5,308.6621" style="stroke:#181818;stroke-width:1.0;"/><line style="stroke:#181818;stroke-width:1.0;stroke-dasharray:2.0,2.0;" x1="83.5" x2="650" y1="308.6621" y2="308.6621"/><text fill="#000000" font-family="sans-serif" font-size="13" lengthAdjust="spacing" textLength="58" x="335.75" y="303.9199">locations</text><polygon fill="#181818" points="257.5,333.9727,267.5,337.9727,257.5,341.9727,261.5,337.9727" style="stroke:#181818;stroke-width:1.0;"/><line style="stroke:#181818;stroke-width:1.0;" x1="78.5" x2="263.5" y1="337.9727" y2="337.9727"/><text fill="#000000" font-family="sans-serif" font-size="13" lengthAdjust="spacing" textLength="140" x="104" y="333.2305">recommend(locations)</text><polygon fill="#181818" points="89.5,363.2832,79.5,367.2832,89.5,371.2832,85.5,367.2832" style="stroke:#181818;stroke-width:1.0;"/><line style="stroke:#181818;stroke-width:1.0;stroke-dasharray:2.0,2.0;" x1="83.5" x2="273.5" y1="367.2832" y2="367.2832"/><text fill="#000000" font-family="sans-serif" font-size="13" lengthAdjust="spacing" textLength="167" x="93" y="362.541">locationRecommendations</text><!--SRC=[bP91JiCm44NtSmhJLLYK0tI1145K5H51KLbNnXv58n8xijqARezLak8u9eIbn_xl_vdn5IdH72KowpuRlEcERGFmfZzOeMiIh2Ytk_oGbqLP7UxlygTjLRu-Fq37ZID17LUEhJOL2jssg2IQ5UEM1USG4AaABRWZhM9reZv3sLDBgeuPa-g277l3nNkKeQ-Dr9x7_800rhTXfy25enDtE2f2cC4BKirj62bon1koc4cqZjJvZRt-OIPq01BdxoFlwL16pi5KTagImD1_eXsv9suNUDTqmaAhsdSSNN-tdytxJv7hyKQyXJk_iV_B6Y_V9qKt5EsZqQrdu0iQqZBh7HAhwkK0CMyQindWgPLUE8k-aXbEsGNwrpTAWNxF62qfI0nV]--></g></svg>
