<?xml version="1.0" encoding="UTF-8" standalone="no"?><svg xmlns="http://www.w3.org/2000/svg" xmlns:xlink="http://www.w3.org/1999/xlink" contentStyleType="text/css" height="330.4px" preserveAspectRatio="none" style="width:502px;height:330px;background:#FFFFFF;" version="1.1" viewBox="0 0 502 330" width="502.6px" zoomAndPan="magnify"><defs/><g><ellipse cx="231.7" cy="14" fill="#222222" rx="7" ry="7" style="stroke:#222222;stroke-width:0.6999999999999998;"/><rect fill="#F1F1F1" height="29.8484" rx="8.75" ry="8.75" style="stroke:#181818;stroke-width:0.3499999999999999;" width="225.4" x="119" y="35"/><text fill="#000000" font-family="sans-serif" font-size="12.6" lengthAdjust="spacing" textLength="211.4" x="126" y="55.0799">User enters command to sort XYZ List</text><rect fill="#F1F1F1" height="45.6969" rx="8.75" ry="8.75" style="stroke:#181818;stroke-width:0.3499999999999999;" width="154.7" x="154.35" y="78.8484"/><text fill="#000000" font-family="sans-serif" font-size="12.6" lengthAdjust="spacing" textLength="140.7" x="161.35" y="98.9283">SortXYZCommandParser</text><text fill="#000000" font-family="sans-serif" font-size="12.6" lengthAdjust="spacing" textLength="117.6" x="171.85" y="114.7768">parses the user input</text><polygon fill="#F1F1F1" points="231.7,140.7123,231.7,140.7123,240.1,149.1123,231.7,157.5123,231.7,157.5123,223.3,149.1123,231.7,140.7123" style="stroke:#181818;stroke-width:0.3499999999999999;"/><text fill="#000000" font-family="sans-serif" font-size="12.6" lengthAdjust="spacing" textLength="138.6" x="84.7" y="146.3437">[Invalid command format]</text><text fill="#000000" font-family="sans-serif" font-size="12.6" lengthAdjust="spacing" textLength="30.1" x="240.1" y="146.3437">[else]</text><rect fill="#F1F1F1" height="45.6969" rx="8.75" ry="8.75" style="stroke:#181818;stroke-width:0.3499999999999999;" width="197.4" x="7.7" y="164.5123"/><text fill="#000000" font-family="sans-serif" font-size="12.6" lengthAdjust="spacing" textLength="183.4" x="14.7" y="184.5922">Display Invalid Command Format</text><text fill="#000000" font-family="sans-serif" font-size="12.6" lengthAdjust="spacing" textLength="80.5" x="60.2" y="200.4406">error message</text><ellipse cx="106.4" cy="242.4092" fill="none" rx="7.7" ry="7.7" style="stroke:#222222;stroke-width:0.6999999999999998;"/><ellipse cx="106.4" cy="242.4092" fill="#222222" rx="4.2" ry="4.2" style="stroke:#111111;stroke-width:0.6999999999999998;"/><rect fill="#F1F1F1" height="29.8484" rx="8.75" ry="8.75" style="stroke:#181818;stroke-width:0.3499999999999999;" width="168" x="273" y="164.5123"/><text fill="#000000" font-family="sans-serif" font-size="12.6" lengthAdjust="spacing" textLength="154" x="280" y="184.5922">Create SortXYZComparator</text><rect fill="#F1F1F1" height="29.8484" rx="8.75" ry="8.75" style="stroke:#181818;stroke-width:0.3499999999999999;" width="275.8" x="219.1" y="218.8607"/><text fill="#000000" font-family="sans-serif" font-size="12.6" lengthAdjust="spacing" textLength="261.8" x="226.1" y="238.9406">Sort FilteredXYZList using SortXYZComparator</text><rect fill="#F1F1F1" height="29.8484" rx="8.75" ry="8.75" style="stroke:#181818;stroke-width:0.3499999999999999;" width="178.5" x="267.75" y="264.1092"/><text fill="#000000" font-family="sans-serif" font-size="12.6" lengthAdjust="spacing" textLength="164.5" x="274.75" y="284.1891">Success message is returned</text><ellipse cx="357" cy="315.6576" fill="none" rx="7.7" ry="7.7" style="stroke:#222222;stroke-width:0.6999999999999998;"/><ellipse cx="357" cy="315.6576" fill="#222222" rx="4.2" ry="4.2" style="stroke:#111111;stroke-width:0.6999999999999998;"/><line style="stroke:#181818;stroke-width:0.6999999999999998;" x1="231.7" x2="231.7" y1="21" y2="35"/><polygon fill="#181818" points="228.9,28,231.7,35,234.5,28,231.7,30.8" style="stroke:#181818;stroke-width:0.6999999999999998;"/><line style="stroke:#181818;stroke-width:0.6999999999999998;" x1="231.7" x2="231.7" y1="64.8484" y2="78.8484"/><polygon fill="#181818" points="228.9,71.8484,231.7,78.8484,234.5,71.8484,231.7,74.6484" style="stroke:#181818;stroke-width:0.6999999999999998;"/><line style="stroke:#181818;stroke-width:0.6999999999999998;" x1="106.4" x2="106.4" y1="210.2092" y2="234.7092"/><polygon fill="#181818" points="103.6,227.7092,106.4,234.7092,109.2,227.7092,106.4,230.5092" style="stroke:#181818;stroke-width:0.6999999999999998;"/><line style="stroke:#181818;stroke-width:0.6999999999999998;" x1="357" x2="357" y1="194.3607" y2="218.8607"/><polygon fill="#181818" points="354.2,211.8607,357,218.8607,359.8,211.8607,357,214.6607" style="stroke:#181818;stroke-width:0.6999999999999998;"/><line style="stroke:#181818;stroke-width:0.6999999999999998;" x1="357" x2="357" y1="248.7092" y2="264.1092"/><polygon fill="#181818" points="354.2,257.1092,357,264.1092,359.8,257.1092,357,259.9092" style="stroke:#181818;stroke-width:0.6999999999999998;"/><line style="stroke:#181818;stroke-width:0.6999999999999998;" x1="357" x2="357" y1="293.9576" y2="307.9576"/><polygon fill="#181818" points="354.2,300.9576,357,307.9576,359.8,300.9576,357,303.7576" style="stroke:#181818;stroke-width:0.6999999999999998;"/><line style="stroke:#181818;stroke-width:0.6999999999999998;" x1="223.3" x2="106.4" y1="149.1123" y2="149.1123"/><line style="stroke:#181818;stroke-width:0.6999999999999998;" x1="106.4" x2="106.4" y1="149.1123" y2="164.5123"/><polygon fill="#181818" points="103.6,157.5123,106.4,164.5123,109.2,157.5123,106.4,160.3123" style="stroke:#181818;stroke-width:0.6999999999999998;"/><line style="stroke:#181818;stroke-width:0.6999999999999998;" x1="240.1" x2="357" y1="149.1123" y2="149.1123"/><line style="stroke:#181818;stroke-width:0.6999999999999998;" x1="357" x2="357" y1="149.1123" y2="164.5123"/><polygon fill="#181818" points="354.2,157.5123,357,164.5123,359.8,157.5123,357,160.3123" style="stroke:#181818;stroke-width:0.6999999999999998;"/><line style="stroke:#181818;stroke-width:0.6999999999999998;" x1="231.7" x2="231.7" y1="124.5453" y2="140.7123"/><polygon fill="#181818" points="228.9,133.7123,231.7,140.7123,234.5,133.7123,231.7,136.5123" style="stroke:#181818;stroke-width:0.6999999999999998;"/><!--MD5=[1f92b6614ec47160e54a1fc801bfe176]
@startuml
skinparam activityFontSize 18
skinparam activityArrowFontSize 18

start
:User enters command to sort XYZ List;
:SortXYZCommandParser
   parses the user input;
if () then ([Invalid command format])
  :Display Invalid Command Format
               error message;
  stop
else ([else])
:Create SortXYZComparator;
:Sort FilteredXYZList using SortXYZComparator;
:Success message is returned;
stop

@enduml

PlantUML version 1.2022.12(Mon Oct 24 02:12:26 SGT 2022)
(GPL source distribution)
Java Runtime: OpenJDK Runtime Environment
JVM: OpenJDK 64-Bit Server VM
Default Encoding: Cp1252
Language: en
Country: SG
--></g></svg>
