<?xml version="1.0" encoding="UTF-8" standalone="no"?><svg xmlns="http://www.w3.org/2000/svg" xmlns:xlink="http://www.w3.org/1999/xlink" contentStyleType="text/css" height="560px" preserveAspectRatio="none" style="width:1077px;height:560px;background:#FFFFFF;" version="1.1" viewBox="0 0 1077 560" width="1077px" zoomAndPan="magnify"><defs/><g><!--cluster Storage--><g id="cluster_Storage"><rect fill="none" height="547" rx="2.5" ry="2.5" style="stroke:#000000;stroke-width:1.5;" width="1064" x="7" y="7"/><text fill="#000000" font-family="sans-serif" font-size="14" font-weight="bold" lengthAdjust="spacing" textLength="54" x="512" y="22.5352">Storage</text></g><!--cluster UserPrefs Storage--><g id="cluster_UserPrefs Storage"><rect fill="#F1F3F1" height="179" rx="2.5" ry="2.5" style="stroke:#000000;stroke-width:1.5;" width="182" x="865" y="93"/><text fill="#000000" font-family="sans-serif" font-size="14" font-weight="bold" lengthAdjust="spacing" textLength="128" x="892" y="108.5352">UserPrefs Storage</text></g><!--cluster EduMate Storage--><g id="cluster_EduMate Storage"><rect fill="#F1F3F1" height="437" rx="2.5" ry="2.5" style="stroke:#000000;stroke-width:1.5;" width="686" x="31" y="93"/><text fill="#000000" font-family="sans-serif" font-size="14" font-weight="bold" lengthAdjust="spacing" textLength="120" x="314" y="108.5352">EduMate Storage</text></g><!--class Storage1--><g id="elem_Storage1"><rect codeLine="13" fill="#FA9E0D" height="42.1973" id="Storage1" rx="2.5" ry="2.5" style="stroke:#FFFFFF;stroke-width:1.0;" width="77" x="751.5" y="128"/><text fill="#FFFFFF" font-family="Arial" font-size="14" lengthAdjust="spacing" textLength="71" x="754.5" y="146.1318">«interface»</text><text fill="#FFFFFF" font-family="Arial" font-size="14" lengthAdjust="spacing" textLength="50" x="765" y="162.2305">Storage</text></g><!--class StorageManager--><g id="elem_StorageManager"><rect codeLine="14" fill="#FA9E0D" height="26.0986" id="StorageManager" rx="2.5" ry="2.5" style="stroke:#FFFFFF;stroke-width:1.0;" width="113" x="733.5" y="230"/><text fill="#FFFFFF" font-family="Arial" font-size="14" lengthAdjust="spacing" textLength="107" x="736.5" y="248.1318">StorageManager</text></g><!--class HiddenOutside--><g id="elem_HiddenOutside"><rect codeLine="32" fill="#FFFFFF" height="26.0986" id="HiddenOutside" rx="2.5" ry="2.5" style="stroke:#FFFFFF;stroke-width:1.0;" width="100" x="740" y="42"/><text fill="#FFFFFF" font-family="Arial" font-size="14" lengthAdjust="spacing" textLength="94" x="743" y="60.1318">HiddenOutside</text></g><!--class UserPrefsStorage--><g id="elem_UserPrefsStorage"><rect codeLine="9" fill="#FA9E0D" height="42.1973" id="UserPrefsStorage" rx="2.5" ry="2.5" style="stroke:#FFFFFF;stroke-width:1.0;" width="119" x="881.5" y="128"/><text fill="#FFFFFF" font-family="Arial" font-size="14" lengthAdjust="spacing" textLength="71" x="905.5" y="146.1318">«interface»</text><text fill="#FFFFFF" font-family="Arial" font-size="14" lengthAdjust="spacing" textLength="113" x="884.5" y="162.2305">UserPrefsStorage</text></g><!--class JsonUserPrefsStorage--><g id="elem_JsonUserPrefsStorage"><rect codeLine="10" fill="#FA9E0D" height="26.0986" id="JsonUserPrefsStorage" rx="2.5" ry="2.5" style="stroke:#FFFFFF;stroke-width:1.0;" width="149" x="881.5" y="230"/><text fill="#FFFFFF" font-family="Arial" font-size="14" lengthAdjust="spacing" textLength="143" x="884.5" y="248.1318">JsonUserPrefsStorage</text></g><!--class EduMateStorage--><g id="elem_EduMateStorage"><rect codeLine="17" fill="#FA9E0D" height="42.1973" id="EduMateStorage" rx="2.5" ry="2.5" style="stroke:#FFFFFF;stroke-width:1.0;" width="113" x="587.5" y="128"/><text fill="#FFFFFF" font-family="Arial" font-size="14" lengthAdjust="spacing" textLength="71" x="608.5" y="146.1318">«interface»</text><text fill="#FFFFFF" font-family="Arial" font-size="14" lengthAdjust="spacing" textLength="107" x="590.5" y="162.2305">EduMateStorage</text></g><!--class EduMateStorageManager--><g id="elem_EduMateStorageManager"><rect codeLine="18" fill="#FA9E0D" height="26.0986" id="EduMateStorageManager" rx="2.5" ry="2.5" style="stroke:#FFFFFF;stroke-width:1.0;" width="170" x="528" y="230"/><text fill="#FFFFFF" font-family="Arial" font-size="14" lengthAdjust="spacing" textLength="164" x="531" y="248.1318">EduMateStorageManager</text></g><!--class JsonSerializableEduMate--><g id="elem_JsonSerializableEduMate"><rect codeLine="19" fill="#FA9E0D" height="26.0986" id="JsonSerializableEduMate" rx="2.5" ry="2.5" style="stroke:#FFFFFF;stroke-width:1.0;" width="166" x="213" y="316"/><text fill="#FFFFFF" font-family="Arial" font-size="14" lengthAdjust="spacing" textLength="160" x="216" y="334.1318">JsonSerializableEduMate</text></g><!--class JsonAdaptedPerson--><g id="elem_JsonAdaptedPerson"><rect codeLine="20" fill="#FA9E0D" height="26.0986" id="JsonAdaptedPerson" rx="2.5" ry="2.5" style="stroke:#FFFFFF;stroke-width:1.0;" width="134" x="210" y="230"/><text fill="#FFFFFF" font-family="Arial" font-size="14" lengthAdjust="spacing" textLength="128" x="213" y="248.1318">JsonAdaptedPerson</text></g><!--class JsonAdaptedUser--><g id="elem_JsonAdaptedUser"><rect codeLine="21" fill="#FA9E0D" height="26.0986" id="JsonAdaptedUser" rx="2.5" ry="2.5" style="stroke:#FFFFFF;stroke-width:1.0;" width="119" x="47.5" y="136"/><text fill="#FFFFFF" font-family="Arial" font-size="14" lengthAdjust="spacing" textLength="113" x="50.5" y="154.1318">JsonAdaptedUser</text></g><!--class JsonAdaptedTag--><g id="elem_JsonAdaptedTag"><rect codeLine="22" fill="#FA9E0D" height="26.0986" id="JsonAdaptedTag" rx="2.5" ry="2.5" style="stroke:#FFFFFF;stroke-width:1.0;" width="114" x="379" y="230"/><text fill="#FFFFFF" font-family="Arial" font-size="14" lengthAdjust="spacing" textLength="108" x="382" y="248.1318">JsonAdaptedTag</text></g><!--class JsonAdaptedParticipants--><g id="elem_JsonAdaptedParticipants"><rect codeLine="23" fill="#FA9E0D" height="26.0986" id="JsonAdaptedParticipants" rx="2.5" ry="2.5" style="stroke:#FFFFFF;stroke-width:1.0;" width="163" x="71.5" y="402"/><text fill="#FFFFFF" font-family="Arial" font-size="14" lengthAdjust="spacing" textLength="157" x="74.5" y="420.1318">JsonAdaptedParticipants</text></g><!--class JsonAdaptedRecommendation--><g id="elem_JsonAdaptedRecommendation"><rect codeLine="24" fill="#FA9E0D" height="26.0986" id="JsonAdaptedRecommendation" rx="2.5" ry="2.5" style="stroke:#FFFFFF;stroke-width:1.0;" width="201" x="443.5" y="402"/><text fill="#FFFFFF" font-family="Arial" font-size="14" lengthAdjust="spacing" textLength="195" x="446.5" y="420.1318">JsonAdaptedRecommendation</text></g><!--class JsonAdaptedMeetUp--><g id="elem_JsonAdaptedMeetUp"><rect codeLine="25" fill="#FA9E0D" height="26.0986" id="JsonAdaptedMeetUp" rx="2.5" ry="2.5" style="stroke:#FFFFFF;stroke-width:1.0;" width="139" x="269.5" y="402"/><text fill="#FFFFFF" font-family="Arial" font-size="14" lengthAdjust="spacing" textLength="133" x="272.5" y="420.1318">JsonAdaptedMeetUp</text></g><!--class JsonAdaptedLocation--><g id="elem_JsonAdaptedLocation"><rect codeLine="26" fill="#FA9E0D" height="26.0986" id="JsonAdaptedLocation" rx="2.5" ry="2.5" style="stroke:#FFFFFF;stroke-width:1.0;" width="143" x="271.5" y="488"/><text fill="#FFFFFF" font-family="Arial" font-size="14" lengthAdjust="spacing" textLength="137" x="274.5" y="506.1318">JsonAdaptedLocation</text></g><!--class JsonAdaptedTimePeriod--><g id="elem_JsonAdaptedTimePeriod"><rect codeLine="27" fill="#FA9E0D" height="26.0986" id="JsonAdaptedTimePeriod" rx="2.5" ry="2.5" style="stroke:#FFFFFF;stroke-width:1.0;" width="162" x="458" y="488"/><text fill="#FFFFFF" font-family="Arial" font-size="14" lengthAdjust="spacing" textLength="156" x="461" y="506.1318">JsonAdaptedTimePeriod</text></g><!--class JsonAdaptedModuleTag--><g id="elem_JsonAdaptedModuleTag"><rect codeLine="28" fill="#FA9E0D" height="26.0986" id="JsonAdaptedModuleTag" rx="2.5" ry="2.5" style="stroke:#FFFFFF;stroke-width:1.0;" width="161" x="391.5" y="136"/><text fill="#FFFFFF" font-family="Arial" font-size="14" lengthAdjust="spacing" textLength="155" x="394.5" y="154.1318">JsonAdaptedModuleTag</text></g><!--class JsonAdaptedGroupTag--><g id="elem_JsonAdaptedGroupTag"><rect codeLine="29" fill="#FA9E0D" height="26.0986" id="JsonAdaptedGroupTag" rx="2.5" ry="2.5" style="stroke:#FFFFFF;stroke-width:1.0;" width="154" x="202" y="136"/><text fill="#FFFFFF" font-family="Arial" font-size="14" lengthAdjust="spacing" textLength="148" x="205" y="154.1318">JsonAdaptedGroupTag</text></g><!--link HiddenOutside to Storage1--><g id="link_HiddenOutside_Storage1"><path codeLine="33" d="M790,68.41 C790,81.95 790,104.03 790,121.5 " fill="none" id="HiddenOutside-to-Storage1" style="stroke:#FA9E0D;stroke-width:1.1;stroke-dasharray:7.0,7.0;"/><polygon fill="#FA9E0D" points="790,126.2,794,117.2,790,121.2,786,117.2,790,126.2" style="stroke:#FA9E0D;stroke-width:1.1;"/></g><!--reverse link Storage1 to StorageManager--><g id="link_Storage1_StorageManager"><path codeLine="35" d="M790,191.59 C790,205.38 790,219.71 790,229.55 " fill="none" id="Storage1-backto-StorageManager" style="stroke:#FA9E0D;stroke-width:1.1;stroke-dasharray:7.0,7.0;"/><polygon fill="none" points="783,191.93,790,171.93,797,191.93,783,191.93" style="stroke:#FA9E0D;stroke-width:1.1;"/></g><!--reverse link UserPrefsStorage to StorageManager--><g id="link_UserPrefsStorage_StorageManager"><path codeLine="36" d="M902.14,173.68 C872.86,191.52 833.88,215.27 810.43,229.55 " fill="none" id="UserPrefsStorage-backto-StorageManager" style="stroke:#FA9E0D;stroke-width:1.1;"/><polygon fill="#FA9E0D" points="906.2,171.21,896.4324,172.4727,901.929,173.8097,900.592,179.3063,906.2,171.21" style="stroke:#FA9E0D;stroke-width:1.1;"/><text fill="#000000" font-family="sans-serif" font-size="13" lengthAdjust="spacing" textLength="8" x="889.4092" y="190.7758">1</text></g><!--reverse link EduMateStorage to StorageManager--><g id="link_EduMateStorage_StorageManager"><path codeLine="37" d="M681.57,173.68 C709.88,191.52 747.58,215.27 770.25,229.55 " fill="none" id="EduMateStorage-backto-StorageManager" style="stroke:#FA9E0D;stroke-width:1.1;"/><polygon fill="#FA9E0D" points="677.68,171.22,683.1524,179.4086,681.9071,173.8905,687.4252,172.6452,677.68,171.22" style="stroke:#FA9E0D;stroke-width:1.1;"/><text fill="#000000" font-family="sans-serif" font-size="13" lengthAdjust="spacing" textLength="8" x="676.0325" y="190.7758">1</text></g><!--reverse link UserPrefsStorage to Storage1--><g id="link_UserPrefsStorage_Storage1"><path codeLine="39" d="M859.86,149 C849.55,149 839.24,149 828.93,149 " fill="none" id="UserPrefsStorage-backto-Storage1" style="stroke:#FA9E0D;stroke-width:1.1;"/><polygon fill="none" points="859.51,142,879.51,149,859.51,156,859.51,142" style="stroke:#FA9E0D;stroke-width:1.1;"/></g><!--link Storage1 to EduMateStorage--><g id="link_Storage1_EduMateStorage"><path codeLine="40" d="M751.3,149 C741.56,149 731.82,149 722.07,149 " fill="none" id="Storage1-to-EduMateStorage" style="stroke:#FA9E0D;stroke-width:1.1;"/><polygon fill="none" points="722.26,156,702.26,149,722.26,142,722.26,156" style="stroke:#FA9E0D;stroke-width:1.1;"/></g><!--reverse link UserPrefsStorage to JsonUserPrefsStorage--><g id="link_UserPrefsStorage_JsonUserPrefsStorage"><path codeLine="42" d="M947.78,191.59 C950.03,205.38 952.37,219.71 953.97,229.55 " fill="none" id="UserPrefsStorage-backto-JsonUserPrefsStorage" style="stroke:#FA9E0D;stroke-width:1.1;stroke-dasharray:7.0,7.0;"/><polygon fill="none" points="940.88,192.78,944.57,171.91,954.7,190.52,940.88,192.78" style="stroke:#FA9E0D;stroke-width:1.1;"/></g><!--reverse link EduMateStorage to EduMateStorageManager--><g id="link_EduMateStorage_EduMateStorageManager"><path codeLine="43" d="M630.32,190.59 C625.57,204.69 620.59,219.48 617.19,229.55 " fill="none" id="EduMateStorage-backto-EduMateStorageManager" style="stroke:#FA9E0D;stroke-width:1.1;stroke-dasharray:7.0,7.0;"/><polygon fill="none" points="623.62,188.57,636.64,171.85,636.88,193.04,623.62,188.57" style="stroke:#FA9E0D;stroke-width:1.1;"/></g><!--link EduMateStorageManager to JsonSerializableEduMate--><g id="link_EduMateStorageManager_JsonSerializableEduMate"><path codeLine="44" d="M581.16,256.34 C561.2,263.8 534.83,273.16 511,280 C463.8,293.55 409.85,305.58 367.81,314.21 " fill="none" id="EduMateStorageManager-to-JsonSerializableEduMate" style="stroke:#FA9E0D;stroke-width:1.1;stroke-dasharray:7.0,7.0;"/><polygon fill="#FA9E0D" points="362.91,315.21,372.5281,317.3296,367.809,314.2102,370.9284,309.4911,362.91,315.21" style="stroke:#FA9E0D;stroke-width:1.1;"/></g><!--reverse link JsonAdaptedPerson to JsonSerializableEduMate--><g id="link_JsonAdaptedPerson_JsonSerializableEduMate"><path codeLine="45" d="M281.17,262.41 C284.81,278.53 290.01,301.51 293.18,315.55 " fill="none" id="JsonAdaptedPerson-backto-JsonSerializableEduMate" style="stroke:#FA9E0D;stroke-width:1.1;"/><polygon fill="#FA9E0D" points="280.14,257.87,278.2145,267.5288,281.2382,262.7479,286.0191,265.7716,280.14,257.87" style="stroke:#FA9E0D;stroke-width:1.1;"/><text fill="#000000" font-family="sans-serif" font-size="13" lengthAdjust="spacing" textLength="6" x="273.7263" y="276.7006">*</text></g><!--reverse link JsonAdaptedUser to JsonSerializableEduMate--><g id="link_JsonAdaptedUser_JsonSerializableEduMate"><path codeLine="46" d="M115,168.15 C127.9,195.58 155.64,247.81 193,280 C211.46,295.9 236.08,307.63 256.62,315.52 " fill="none" id="JsonAdaptedUser-backto-JsonSerializableEduMate" style="stroke:#FA9E0D;stroke-width:1.1;"/><polygon fill="#FA9E0D" points="112.97,163.74,113.1156,173.5878,115.068,168.2785,120.3772,170.231,112.97,163.74" style="stroke:#FA9E0D;stroke-width:1.1;"/><text fill="#000000" font-family="sans-serif" font-size="13" lengthAdjust="spacing" textLength="8" x="104.8341" y="182.6732">1</text></g><!--reverse link JsonAdaptedGroupTag to JsonAdaptedPerson--><g id="link_JsonAdaptedGroupTag_JsonAdaptedPerson"><path codeLine="47" d="M278.59,168.68 C278.2,186.93 277.61,214.16 277.27,229.79 " fill="none" id="JsonAdaptedGroupTag-backto-JsonAdaptedPerson" style="stroke:#FA9E0D;stroke-width:1.1;"/><polygon fill="#FA9E0D" points="278.7,163.92,274.4954,172.8262,278.5857,168.9187,282.4933,173.0091,278.7,163.92" style="stroke:#FA9E0D;stroke-width:1.1;"/><text fill="#000000" font-family="sans-serif" font-size="13" lengthAdjust="spacing" textLength="6" x="271.5242" y="182.728">*</text></g><!--reverse link JsonAdaptedModuleTag to JsonAdaptedPerson--><g id="link_JsonAdaptedModuleTag_JsonAdaptedPerson"><path codeLine="48" d="M440.26,164.98 C402.08,182.99 338.71,212.89 303.19,229.64 " fill="none" id="JsonAdaptedModuleTag-backto-JsonAdaptedPerson" style="stroke:#FA9E0D;stroke-width:1.1;"/><polygon fill="#FA9E0D" points="444.33,163.05,434.4839,163.2838,439.8104,165.1886,437.9057,170.5151,444.33,163.05" style="stroke:#FA9E0D;stroke-width:1.1;"/><text fill="#000000" font-family="sans-serif" font-size="13" lengthAdjust="spacing" textLength="6" x="428.8956" y="182.728">*</text></g><!--link JsonAdaptedUser to JsonAdaptedPerson--><g id="link_JsonAdaptedUser_JsonAdaptedPerson"><path codeLine="49" d="M129.93,162.41 C156.87,176.99 202.11,201.47 235.32,219.44 " fill="none" id="JsonAdaptedUser-to-JsonAdaptedPerson" style="stroke:#FA9E0D;stroke-width:1.1;"/><polygon fill="none" points="238.58,213.25,252.83,228.92,231.91,225.56,238.58,213.25" style="stroke:#FA9E0D;stroke-width:1.1;"/></g><!--link JsonSerializableEduMate to JsonAdaptedParticipants--><g id="link_JsonSerializableEduMate_JsonAdaptedParticipants"><path codeLine="50" d="M274.9,342.39 C249.55,357.28 207.01,382.27 179.48,398.44 " fill="none" id="JsonSerializableEduMate-to-JsonAdaptedParticipants" style="stroke:#FA9E0D;stroke-width:1.1;"/><polygon fill="#FA9E0D" points="175.49,400.79,185.2757,399.676,179.8,398.2555,181.2205,392.7799,175.49,400.79" style="stroke:#FA9E0D;stroke-width:1.1;"/><text fill="#000000" font-family="sans-serif" font-size="13" lengthAdjust="spacing" textLength="8" x="172.7437" y="391.1716">1</text></g><!--link JsonSerializableEduMate to JsonAdaptedRecommendation--><g id="link_JsonSerializableEduMate_JsonAdaptedRecommendation"><path codeLine="51" d="M332.86,342.48 C377.89,357.74 453.92,383.49 501.41,399.57 " fill="none" id="JsonSerializableEduMate-to-JsonAdaptedRecommendation" style="stroke:#FA9E0D;stroke-width:1.1;"/><polygon fill="#FA9E0D" points="505.91,401.1,498.6669,394.4264,501.1738,399.4974,496.1027,402.0043,505.91,401.1" style="stroke:#FA9E0D;stroke-width:1.1;"/><text fill="#000000" font-family="sans-serif" font-size="13" lengthAdjust="spacing" textLength="6" x="486.2196" y="391.213">*</text></g><!--link JsonSerializableEduMate to JsonAdaptedMeetUp--><g id="link_JsonSerializableEduMate_JsonAdaptedMeetUp"><path codeLine="52" d="M302.34,342.39 C309.59,356.54 321.49,379.8 329.76,395.95 " fill="none" id="JsonSerializableEduMate-to-JsonAdaptedMeetUp" style="stroke:#FA9E0D;stroke-width:1.1;"/><polygon fill="#FA9E0D" points="331.94,400.21,331.4174,390.375,329.6697,395.7551,324.2896,394.0074,331.94,400.21" style="stroke:#FA9E0D;stroke-width:1.1;"/><text fill="#000000" font-family="sans-serif" font-size="13" lengthAdjust="spacing" textLength="6" x="323.0577" y="391.1716">*</text></g><!--link JsonAdaptedGroupTag to JsonAdaptedTag--><g id="link_JsonAdaptedGroupTag_JsonAdaptedTag"><path codeLine="54" d="M300.17,162.41 C324.82,176.85 366.05,201.01 396.63,218.93 " fill="none" id="JsonAdaptedGroupTag-to-JsonAdaptedTag" style="stroke:#FA9E0D;stroke-width:1.1;stroke-dasharray:7.0,7.0;"/><polygon fill="none" points="399.89,212.73,413.61,228.88,392.81,224.81,399.89,212.73" style="stroke:#FA9E0D;stroke-width:1.1;"/></g><!--link JsonAdaptedModuleTag to JsonAdaptedTag--><g id="link_JsonAdaptedModuleTag_JsonAdaptedTag"><path codeLine="55" d="M467.14,162.41 C462.39,174.55 454.96,193.55 448.54,209.94 " fill="none" id="JsonAdaptedModuleTag-to-JsonAdaptedTag" style="stroke:#FA9E0D;stroke-width:1.1;stroke-dasharray:7.0,7.0;"/><polygon fill="none" points="455.14,212.31,441.33,228.38,442.1,207.2,455.14,212.31" style="stroke:#FA9E0D;stroke-width:1.1;"/></g><!--link JsonAdaptedMeetUp to JsonAdaptedRecommendation--><!--reverse link JsonAdaptedParticipants to JsonAdaptedMeetUp--><!--reverse link JsonAdaptedParticipants to JsonAdaptedMeetUp--><g id="link_JsonAdaptedParticipants_JsonAdaptedMeetUp"><path codeLine="66" d="M241.23,405.28 C250.6,405.17 259.98,405.37 269.36,405.86 " fill="none" id="JsonAdaptedParticipants-backto-JsonAdaptedMeetUp-1" style="stroke:#FA9E0D;stroke-width:1.1;"/><polygon fill="#FA9E0D" points="236.25,405.37,245.3174,409.2147,241.2493,405.2841,245.1799,401.2159,236.25,405.37" style="stroke:#FA9E0D;stroke-width:1.1;"/><text fill="#000000" font-family="sans-serif" font-size="13" lengthAdjust="spacing" textLength="8" x="242.3762" y="401.4439">1</text></g><!--link JsonAdaptedRecommendation to JsonAdaptedLocation--><g id="link_JsonAdaptedRecommendation_JsonAdaptedLocation"><path codeLine="60" d="M514.34,428.39 C478.27,443.47 417.42,468.9 378.78,485.05 " fill="none" id="JsonAdaptedRecommendation-to-JsonAdaptedLocation" style="stroke:#FA9E0D;stroke-width:1.1;"/><polygon fill="#FA9E0D" points="374.18,486.97,384.0264,487.19,378.7933,485.0419,380.9414,479.8087,374.18,486.97" style="stroke:#FA9E0D;stroke-width:1.1;"/><text fill="#000000" font-family="sans-serif" font-size="13" lengthAdjust="spacing" textLength="8" x="374.6086" y="477.1716">1</text></g><!--link JsonAdaptedRecommendation to JsonAdaptedTimePeriod--><g id="link_JsonAdaptedRecommendation_JsonAdaptedTimePeriod"><path codeLine="61" d="M543.26,428.39 C542.44,442.29 541.08,464.99 540.13,481.1 " fill="none" id="JsonAdaptedRecommendation-to-JsonAdaptedTimePeriod" style="stroke:#FA9E0D;stroke-width:1.1;"/><polygon fill="#FA9E0D" points="539.83,486.04,544.3633,477.2965,540.1303,481.049,536.3778,476.816,539.83,486.04" style="stroke:#FA9E0D;stroke-width:1.1;"/><text fill="#000000" font-family="sans-serif" font-size="13" lengthAdjust="spacing" textLength="8" x="530.4971" y="477.1716">1</text></g><!--link JsonAdaptedMeetUp to JsonAdaptedLocation--><g id="link_JsonAdaptedMeetUp_JsonAdaptedLocation"><path codeLine="63" d="M339.59,428.39 C340.25,442.29 341.33,464.99 342.1,481.1 " fill="none" id="JsonAdaptedMeetUp-to-JsonAdaptedLocation" style="stroke:#FA9E0D;stroke-width:1.1;"/><polygon fill="#FA9E0D" points="342.34,486.04,345.9248,476.8667,342.1117,481.0452,337.9332,477.2321,342.34,486.04" style="stroke:#FA9E0D;stroke-width:1.1;"/><text fill="#000000" font-family="sans-serif" font-size="13" lengthAdjust="spacing" textLength="8" x="332.6601" y="477.1716">1</text></g><!--link JsonAdaptedMeetUp to JsonAdaptedTimePeriod--><g id="link_JsonAdaptedMeetUp_JsonAdaptedTimePeriod"><path codeLine="64" d="M368.51,428.39 C404.4,443.47 464.95,468.9 503.39,485.05 " fill="none" id="JsonAdaptedMeetUp-to-JsonAdaptedTimePeriod" style="stroke:#FA9E0D;stroke-width:1.1;"/><polygon fill="#FA9E0D" points="507.97,486.97,501.2086,479.8087,503.3567,485.0419,498.1236,487.19,507.97,486.97" style="stroke:#FA9E0D;stroke-width:1.1;"/><text fill="#000000" font-family="sans-serif" font-size="13" lengthAdjust="spacing" textLength="8" x="488.5486" y="477.1716">1</text></g><!--reverse link JsonAdaptedPerson to JsonAdaptedParticipants--><g id="link_JsonAdaptedPerson_JsonAdaptedParticipants"><path codeLine="67" d="M254.36,259.83 C236.62,273.17 212.29,293.61 196,316 C175.89,343.65 162.48,382.18 156.52,401.67 " fill="none" id="JsonAdaptedPerson-backto-JsonAdaptedParticipants" style="stroke:#FA9E0D;stroke-width:1.1;"/><polygon fill="#FA9E0D" points="257.96,257.17,248.3463,259.3095,253.9412,260.1448,253.106,265.7396,257.96,257.17" style="stroke:#FA9E0D;stroke-width:1.1;"/><text fill="#000000" font-family="sans-serif" font-size="13" lengthAdjust="spacing" textLength="6" x="245.2424" y="276.7973">*</text></g><!--SRC=[dLJRRgCm47tdAxpqhH98l5T8QRQRxhOfLIvFtLNbnPF42jZ8DghszkzhKY3WIzCq3qcOEUVCU7o6JvJbHKq0IVMhWBYgooAGUyegB729i13yPRMZ-Pw1b2Y94pCvvGKNQBdA5fFPpVCqkyyM0qXUO2clSRxV2bupuW87bKxZBQ2bugBv_NCCXMi9ub70HdRP4CqdNnzUgS_Na-dTR96j7pvhqhGfXSAhAyeKY0tE8Ks_irwWvsE9p63B_IQvXG_-1HxbeM3xFscXxUCSC_qj1iUv8VKSA_ZeOLhwiF8urFB6mQwDuo6N82Wkw6_yiu0MEyXE2AuKa4SG-i6EDnEoeokyTKXWeMXEAyoKjBCBo7bP0YDOKLUXEO1QLtRydkSUnegMeDkcd3ZKEAaBSBOvqzwican_rxUK461PhIJLct7nvV09nj4uJe_t7endZUAwYlyEyaOwggieHM4IsbRq8esRxe09YWhOg4XNysbfYA3RtG5ZghWyttLlwJbzrQ4DPGzM3ytdG4-y6y5bw73d2KuIMiwrDDpwlIVUYJ_QooY8ecRiPtHkzprQepTvuvwC1Jk3sQvUu1Y8liBnUOmpzuDm0WEh28gUTeUz-l7gqVJ42Jpammwatga5Nb7NmFitp5cimTl7rUdxolZH9-JR0PooZYF-veBz1m00]--></g></svg>