<?xml version="1.0" encoding="UTF-8" standalone="no"?><svg xmlns="http://www.w3.org/2000/svg" xmlns:xlink="http://www.w3.org/1999/xlink" contentStyleType="text/css" height="560px" preserveAspectRatio="none" style="width:1077px;height:560px;background:#FFFFFF;" version="1.1" viewBox="0 0 1077 560" width="1077px" zoomAndPan="magnify"><defs/><g><!--cluster Storage--><g id="cluster_Storage"><rect fill="none" height="547" rx="2.5" ry="2.5" style="stroke:#000000;stroke-width:1.5;" width="1064" x="7" y="7"/><text fill="#000000" font-family="sans-serif" font-size="14" font-weight="bold" lengthAdjust="spacing" textLength="54" x="512" y="22.5352">Storage</text></g><!--cluster UserPrefs Storage--><g id="cluster_UserPrefs Storage"><rect fill="#F1F3F1" height="179" rx="2.5" ry="2.5" style="stroke:#000000;stroke-width:1.5;" width="182" x="865" y="93"/><text fill="#000000" font-family="sans-serif" font-size="14" font-weight="bold" lengthAdjust="spacing" textLength="128" x="892" y="108.5352">UserPrefs Storage</text></g><!--cluster EduMate Storage--><g id="cluster_EduMate Storage"><rect fill="#F1F3F1" height="437" rx="2.5" ry="2.5" style="stroke:#000000;stroke-width:1.5;" width="686" x="31" y="93"/><text fill="#000000" font-family="sans-serif" font-size="14" font-weight="bold" lengthAdjust="spacing" textLength="120" x="314" y="108.5352">EduMate Storage</text></g><!--class Storage1--><g id="elem_Storage1"><rect codeLine="13" fill="#FA9E0D" height="42.1973" id="Storage1" rx="2.5" ry="2.5" style="stroke:#FFFFFF;stroke-width:1.0;" width="77" x="751.5" y="128"/><text fill="#FFFFFF" font-family="Arial" font-size="14" lengthAdjust="spacing" textLength="71" x="754.5" y="146.1318">«interface»</text><text fill="#FFFFFF" font-family="Arial" font-size="14" lengthAdjust="spacing" textLength="50" x="765" y="162.2305">Storage</text></g><!--class StorageManager--><g id="elem_StorageManager"><rect codeLine="14" fill="#FA9E0D" height="26.0986" id="StorageManager" rx="2.5" ry="2.5" style="stroke:#FFFFFF;stroke-width:1.0;" width="113" x="733.5" y="230"/><text fill="#FFFFFF" font-family="Arial" font-size="14" lengthAdjust="spacing" textLength="107" x="736.5" y="248.1318">StorageManager</text></g><!--class HiddenOutside--><g id="elem_HiddenOutside"><rect codeLine="33" fill="#FFFFFF" height="26.0986" id="HiddenOutside" rx="2.5" ry="2.5" style="stroke:#FFFFFF;stroke-width:1.0;" width="100" x="740" y="42"/><text fill="#FFFFFF" font-family="Arial" font-size="14" lengthAdjust="spacing" textLength="94" x="743" y="60.1318">HiddenOutside</text></g><!--class UserPrefsStorage--><g id="elem_UserPrefsStorage"><rect codeLine="9" fill="#FA9E0D" height="42.1973" id="UserPrefsStorage" rx="2.5" ry="2.5" style="stroke:#FFFFFF;stroke-width:1.0;" width="119" x="881.5" y="128"/><text fill="#FFFFFF" font-family="Arial" font-size="14" lengthAdjust="spacing" textLength="71" x="905.5" y="146.1318">«interface»</text><text fill="#FFFFFF" font-family="Arial" font-size="14" lengthAdjust="spacing" textLength="113" x="884.5" y="162.2305">UserPrefsStorage</text></g><!--class JsonUserPrefsStorage--><g id="elem_JsonUserPrefsStorage"><rect codeLine="10" fill="#FA9E0D" height="26.0986" id="JsonUserPrefsStorage" rx="2.5" ry="2.5" style="stroke:#FFFFFF;stroke-width:1.0;" width="149" x="881.5" y="230"/><text fill="#FFFFFF" font-family="Arial" font-size="14" lengthAdjust="spacing" textLength="143" x="884.5" y="248.1318">JsonUserPrefsStorage</text></g><!--class EduMateStorage--><g id="elem_EduMateStorage"><rect codeLine="17" fill="#FA9E0D" height="42.1973" id="EduMateStorage" rx="2.5" ry="2.5" style="stroke:#FFFFFF;stroke-width:1.0;" width="113" x="587.5" y="128"/><text fill="#FFFFFF" font-family="Arial" font-size="14" lengthAdjust="spacing" textLength="71" x="608.5" y="146.1318">«interface»</text><text fill="#FFFFFF" font-family="Arial" font-size="14" lengthAdjust="spacing" textLength="107" x="590.5" y="162.2305">EduMateStorage</text></g><!--class EduMateStorageManager--><g id="elem_EduMateStorageManager"><rect codeLine="18" fill="#FA9E0D" height="26.0986" id="EduMateStorageManager" rx="2.5" ry="2.5" style="stroke:#FFFFFF;stroke-width:1.0;" width="170" x="528" y="230"/><text fill="#FFFFFF" font-family="Arial" font-size="14" lengthAdjust="spacing" textLength="164" x="531" y="248.1318">EduMateStorageManager</text></g><!--class JsonSerializableEduMate--><g id="elem_JsonSerializableEduMate"><rect codeLine="19" fill="#FA9E0D" height="26.0986" id="JsonSerializableEduMate" rx="2.5" ry="2.5" style="stroke:#FFFFFF;stroke-width:1.0;" width="166" x="246" y="316"/><text fill="#FFFFFF" font-family="Arial" font-size="14" lengthAdjust="spacing" textLength="160" x="249" y="334.1318">JsonSerializableEduMate</text></g><!--class JsonAdaptedPerson--><g id="elem_JsonAdaptedPerson"><rect codeLine="20" fill="#FA9E0D" height="26.0986" id="JsonAdaptedPerson" rx="2.5" ry="2.5" style="stroke:#FFFFFF;stroke-width:1.0;" width="134" x="173" y="230"/><text fill="#FFFFFF" font-family="Arial" font-size="14" lengthAdjust="spacing" textLength="128" x="176" y="248.1318">JsonAdaptedPerson</text></g><!--class JsonAdaptedUser--><g id="elem_JsonAdaptedUser"><rect codeLine="21" fill="#FA9E0D" height="26.0986" id="JsonAdaptedUser" rx="2.5" ry="2.5" style="stroke:#FFFFFF;stroke-width:1.0;" width="119" x="47.5" y="136"/><text fill="#FFFFFF" font-family="Arial" font-size="14" lengthAdjust="spacing" textLength="113" x="50.5" y="154.1318">JsonAdaptedUser</text></g><!--class JsonAdaptedTag--><g id="elem_JsonAdaptedTag"><rect codeLine="22" fill="#FA9E0D" height="26.0986" id="JsonAdaptedTag" rx="2.5" ry="2.5" style="stroke:#FFFFFF;stroke-width:1.0;" width="114" x="342" y="230"/><text fill="#FFFFFF" font-family="Arial" font-size="14" lengthAdjust="spacing" textLength="108" x="345" y="248.1318">JsonAdaptedTag</text></g><!--class JsonAdaptedParticipants--><g id="elem_JsonAdaptedParticipants"><rect codeLine="23" fill="#FA9E0D" height="26.0986" id="JsonAdaptedParticipants" rx="2.5" ry="2.5" style="stroke:#FFFFFF;stroke-width:1.0;" width="163" x="47.5" y="316"/><text fill="#FFFFFF" font-family="Arial" font-size="14" lengthAdjust="spacing" textLength="157" x="50.5" y="334.1318">JsonAdaptedParticipants</text></g><!--class JsonAdaptedRecommendation--><g id="elem_JsonAdaptedRecommendation"><rect codeLine="24" fill="#FA9E0D" height="26.0986" id="JsonAdaptedRecommendation" rx="2.5" ry="2.5" style="stroke:#FFFFFF;stroke-width:1.0;" width="201" x="233.5" y="402"/><text fill="#FFFFFF" font-family="Arial" font-size="14" lengthAdjust="spacing" textLength="195" x="236.5" y="420.1318">JsonAdaptedRecommendation</text></g><!--class JsonAdaptedMeetUp--><g id="elem_JsonAdaptedMeetUp"><rect codeLine="25" fill="#FA9E0D" height="26.0986" id="JsonAdaptedMeetUp" rx="2.5" ry="2.5" style="stroke:#FFFFFF;stroke-width:1.0;" width="139" x="59.5" y="402"/><text fill="#FFFFFF" font-family="Arial" font-size="14" lengthAdjust="spacing" textLength="133" x="62.5" y="420.1318">JsonAdaptedMeetUp</text></g><!--class JsonAdaptedLocation--><g id="elem_JsonAdaptedLocation"><rect codeLine="26" fill="#FA9E0D" height="26.0986" id="JsonAdaptedLocation" rx="2.5" ry="2.5" style="stroke:#FFFFFF;stroke-width:1.0;" width="143" x="356.5" y="488"/><text fill="#FFFFFF" font-family="Arial" font-size="14" lengthAdjust="spacing" textLength="137" x="359.5" y="506.1318">JsonAdaptedLocation</text></g><!--class JsonAdaptedTimePeriod--><g id="elem_JsonAdaptedTimePeriod"><rect codeLine="27" fill="#FA9E0D" height="26.0986" id="JsonAdaptedTimePeriod" rx="2.5" ry="2.5" style="stroke:#FFFFFF;stroke-width:1.0;" width="162" x="159" y="488"/><text fill="#FFFFFF" font-family="Arial" font-size="14" lengthAdjust="spacing" textLength="156" x="162" y="506.1318">JsonAdaptedTimePeriod</text></g><!--class JsonAdaptedModuleTag--><g id="elem_JsonAdaptedModuleTag"><rect codeLine="28" fill="#FA9E0D" height="26.0986" id="JsonAdaptedModuleTag" rx="2.5" ry="2.5" style="stroke:#FFFFFF;stroke-width:1.0;" width="161" x="391.5" y="136"/><text fill="#FFFFFF" font-family="Arial" font-size="14" lengthAdjust="spacing" textLength="155" x="394.5" y="154.1318">JsonAdaptedModuleTag</text></g><!--class JsonAdaptedGroupTag--><g id="elem_JsonAdaptedGroupTag"><rect codeLine="29" fill="#FA9E0D" height="26.0986" id="JsonAdaptedGroupTag" rx="2.5" ry="2.5" style="stroke:#FFFFFF;stroke-width:1.0;" width="154" x="202" y="136"/><text fill="#FFFFFF" font-family="Arial" font-size="14" lengthAdjust="spacing" textLength="148" x="205" y="154.1318">JsonAdaptedGroupTag</text></g><!--class JsonAdaptedLesson--><g id="elem_JsonAdaptedLesson"><rect codeLine="30" fill="#FA9E0D" height="26.0986" id="JsonAdaptedLesson" rx="2.5" ry="2.5" style="stroke:#FFFFFF;stroke-width:1.0;" width="135" x="469.5" y="402"/><text fill="#FFFFFF" font-family="Arial" font-size="14" lengthAdjust="spacing" textLength="129" x="472.5" y="420.1318">JsonAdaptedLesson</text></g><!--link HiddenOutside to Storage1--><g id="link_HiddenOutside_Storage1"><path codeLine="34" d="M790,68.41 C790,81.95 790,104.03 790,121.5 " fill="none" id="HiddenOutside-to-Storage1" style="stroke:#FA9E0D;stroke-width:1.1;stroke-dasharray:7.0,7.0;"/><polygon fill="#FA9E0D" points="790,126.2,794,117.2,790,121.2,786,117.2,790,126.2" style="stroke:#FA9E0D;stroke-width:1.1;"/></g><!--reverse link Storage1 to StorageManager--><g id="link_Storage1_StorageManager"><path codeLine="36" d="M790,191.59 C790,205.38 790,219.71 790,229.55 " fill="none" id="Storage1-backto-StorageManager" style="stroke:#FA9E0D;stroke-width:1.1;stroke-dasharray:7.0,7.0;"/><polygon fill="none" points="783,191.93,790,171.93,797,191.93,783,191.93" style="stroke:#FA9E0D;stroke-width:1.1;"/></g><!--reverse link UserPrefsStorage to StorageManager--><g id="link_UserPrefsStorage_StorageManager"><path codeLine="37" d="M902.14,173.68 C872.86,191.52 833.88,215.27 810.43,229.55 " fill="none" id="UserPrefsStorage-backto-StorageManager" style="stroke:#FA9E0D;stroke-width:1.1;"/><polygon fill="#FA9E0D" points="906.2,171.21,896.4324,172.4727,901.929,173.8097,900.592,179.3063,906.2,171.21" style="stroke:#FA9E0D;stroke-width:1.1;"/><text fill="#000000" font-family="sans-serif" font-size="13" lengthAdjust="spacing" textLength="8" x="889.4092" y="190.7758">1</text></g><!--reverse link EduMateStorage to StorageManager--><g id="link_EduMateStorage_StorageManager"><path codeLine="38" d="M681.57,173.68 C709.88,191.52 747.58,215.27 770.25,229.55 " fill="none" id="EduMateStorage-backto-StorageManager" style="stroke:#FA9E0D;stroke-width:1.1;"/><polygon fill="#FA9E0D" points="677.68,171.22,683.1524,179.4086,681.9071,173.8905,687.4252,172.6452,677.68,171.22" style="stroke:#FA9E0D;stroke-width:1.1;"/><text fill="#000000" font-family="sans-serif" font-size="13" lengthAdjust="spacing" textLength="8" x="676.0325" y="190.7758">1</text></g><!--reverse link UserPrefsStorage to Storage1--><g id="link_UserPrefsStorage_Storage1"><path codeLine="40" d="M859.86,149 C849.55,149 839.24,149 828.93,149 " fill="none" id="UserPrefsStorage-backto-Storage1" style="stroke:#FA9E0D;stroke-width:1.1;"/><polygon fill="none" points="859.51,142,879.51,149,859.51,156,859.51,142" style="stroke:#FA9E0D;stroke-width:1.1;"/></g><!--link Storage1 to EduMateStorage--><g id="link_Storage1_EduMateStorage"><path codeLine="41" d="M751.3,149 C741.56,149 731.82,149 722.07,149 " fill="none" id="Storage1-to-EduMateStorage" style="stroke:#FA9E0D;stroke-width:1.1;"/><polygon fill="none" points="722.26,156,702.26,149,722.26,142,722.26,156" style="stroke:#FA9E0D;stroke-width:1.1;"/></g><!--reverse link UserPrefsStorage to JsonUserPrefsStorage--><g id="link_UserPrefsStorage_JsonUserPrefsStorage"><path codeLine="43" d="M947.78,191.59 C950.03,205.38 952.37,219.71 953.97,229.55 " fill="none" id="UserPrefsStorage-backto-JsonUserPrefsStorage" style="stroke:#FA9E0D;stroke-width:1.1;stroke-dasharray:7.0,7.0;"/><polygon fill="none" points="940.88,192.78,944.57,171.91,954.7,190.52,940.88,192.78" style="stroke:#FA9E0D;stroke-width:1.1;"/></g><!--reverse link EduMateStorage to EduMateStorageManager--><g id="link_EduMateStorage_EduMateStorageManager"><path codeLine="44" d="M630.32,190.59 C625.57,204.69 620.59,219.48 617.19,229.55 " fill="none" id="EduMateStorage-backto-EduMateStorageManager" style="stroke:#FA9E0D;stroke-width:1.1;stroke-dasharray:7.0,7.0;"/><polygon fill="none" points="623.62,188.57,636.64,171.85,636.88,193.04,623.62,188.57" style="stroke:#FA9E0D;stroke-width:1.1;"/></g><!--link EduMateStorageManager to JsonSerializableEduMate--><g id="link_EduMateStorageManager_JsonSerializableEduMate"><path codeLine="45" d="M570.79,256.48 C519.01,271.8 431.44,297.7 377.11,313.77 " fill="none" id="EduMateStorageManager-to-JsonSerializableEduMate" style="stroke:#FA9E0D;stroke-width:1.1;stroke-dasharray:7.0,7.0;"/><polygon fill="#FA9E0D" points="372.43,315.15,382.1946,316.4353,377.225,313.733,379.9274,308.7633,372.43,315.15" style="stroke:#FA9E0D;stroke-width:1.1;"/></g><!--reverse link JsonAdaptedPerson to JsonSerializableEduMate--><g id="link_JsonAdaptedPerson_JsonSerializableEduMate"><path codeLine="46" d="M257.72,260.73 C274.85,276.9 300.41,301.02 315.81,315.55 " fill="none" id="JsonAdaptedPerson-backto-JsonSerializableEduMate" style="stroke:#FA9E0D;stroke-width:1.1;"/><polygon fill="#FA9E0D" points="254.23,257.43,258.0423,266.5111,257.871,260.8568,263.5253,260.6855,254.23,257.43" style="stroke:#FA9E0D;stroke-width:1.1;"/><text fill="#000000" font-family="sans-serif" font-size="13" lengthAdjust="spacing" textLength="6" x="250.8654" y="276.7006">*</text></g><!--reverse link JsonAdaptedUser to JsonSerializableEduMate--><g id="link_JsonAdaptedUser_JsonSerializableEduMate"><path codeLine="47" d="M108.77,168.71 C112.46,196.95 123.53,250.32 156,280 C171.59,294.25 219.14,306.86 260.45,315.58 " fill="none" id="JsonAdaptedUser-backto-JsonSerializableEduMate" style="stroke:#FA9E0D;stroke-width:1.1;"/><polygon fill="#FA9E0D" points="108.2,163.93,105.3104,173.3454,108.8008,168.8938,113.2525,172.3841,108.2,163.93" style="stroke:#FA9E0D;stroke-width:1.1;"/><text fill="#000000" font-family="sans-serif" font-size="13" lengthAdjust="spacing" textLength="8" x="98.9211" y="182.7417">1</text></g><!--reverse link JsonAdaptedGroupTag to JsonAdaptedPerson--><g id="link_JsonAdaptedGroupTag_JsonAdaptedPerson"><path codeLine="48" d="M271.28,168.21 C263.55,186.45 251.86,214.02 245.18,229.79 " fill="none" id="JsonAdaptedGroupTag-backto-JsonAdaptedPerson" style="stroke:#FA9E0D;stroke-width:1.1;"/><polygon fill="#FA9E0D" points="273.15,163.8,265.9458,170.5156,271.1925,168.4009,273.3072,173.6476,273.15,163.8" style="stroke:#FA9E0D;stroke-width:1.1;"/><text fill="#000000" font-family="sans-serif" font-size="13" lengthAdjust="spacing" textLength="6" x="264.6941" y="182.728">*</text></g><!--reverse link JsonAdaptedModuleTag to JsonAdaptedPerson--><g id="link_JsonAdaptedModuleTag_JsonAdaptedPerson"><path codeLine="49" d="M434.79,164.75 C389.43,182.74 313.59,212.82 271.16,229.64 " fill="none" id="JsonAdaptedModuleTag-backto-JsonAdaptedPerson" style="stroke:#FA9E0D;stroke-width:1.1;"/><polygon fill="#FA9E0D" points="439.3,162.97,429.4596,162.5621,434.6508,164.8097,432.4032,170.0009,439.3,162.97" style="stroke:#FA9E0D;stroke-width:1.1;"/><text fill="#000000" font-family="sans-serif" font-size="13" lengthAdjust="spacing" textLength="6" x="422.0656" y="182.728">*</text></g><!--link JsonAdaptedUser to JsonAdaptedPerson--><g id="link_JsonAdaptedUser_JsonAdaptedPerson"><path codeLine="50" d="M124.94,162.41 C145.38,176.55 179.28,200 205,217.79 " fill="none" id="JsonAdaptedUser-to-JsonAdaptedPerson" style="stroke:#FA9E0D;stroke-width:1.1;"/><polygon fill="none" points="208.64,211.79,221.1,228.93,200.67,223.31,208.64,211.79" style="stroke:#FA9E0D;stroke-width:1.1;"/></g><!--link JsonSerializableEduMate to JsonAdaptedParticipants--><g id="link_JsonSerializableEduMate_JsonAdaptedParticipants"><path codeLine="51" d="M245.78,329 C236.17,329 226.56,329 216.95,329 " fill="none" id="JsonSerializableEduMate-to-JsonAdaptedParticipants" style="stroke:#FA9E0D;stroke-width:1.1;"/><polygon fill="#FA9E0D" points="212.15,329,221.15,333,217.15,329,221.15,325,212.15,329" style="stroke:#FA9E0D;stroke-width:1.1;"/><text fill="#000000" font-family="sans-serif" font-size="13" lengthAdjust="spacing" textLength="8" x="218.5349" y="325.8867">1</text></g><!--link JsonSerializableEduMate to JsonAdaptedRecommendation--><g id="link_JsonSerializableEduMate_JsonAdaptedRecommendation"><path codeLine="52" d="M329.74,342.39 C330.56,356.29 331.92,378.99 332.87,395.1 " fill="none" id="JsonSerializableEduMate-to-JsonAdaptedRecommendation" style="stroke:#FA9E0D;stroke-width:1.1;"/><polygon fill="#FA9E0D" points="333.17,400.04,336.6222,390.816,332.8697,395.049,328.6367,391.2965,333.17,400.04" style="stroke:#FA9E0D;stroke-width:1.1;"/><text fill="#000000" font-family="sans-serif" font-size="13" lengthAdjust="spacing" textLength="6" x="325.8341" y="391.1716">*</text></g><!--link JsonSerializableEduMate to JsonAdaptedMeetUp--><g id="link_JsonSerializableEduMate_JsonAdaptedMeetUp"><path codeLine="53" d="M299.49,342.39 C263.6,357.47 203.05,382.9 164.61,399.05 " fill="none" id="JsonSerializableEduMate-to-JsonAdaptedMeetUp" style="stroke:#FA9E0D;stroke-width:1.1;"/><polygon fill="#FA9E0D" points="160.03,400.97,169.8764,401.19,164.6433,399.0419,166.7914,393.8087,160.03,400.97" style="stroke:#FA9E0D;stroke-width:1.1;"/><text fill="#000000" font-family="sans-serif" font-size="13" lengthAdjust="spacing" textLength="6" x="162.7827" y="391.1716">*</text></g><!--link JsonAdaptedGroupTag to JsonAdaptedTag--><g id="link_JsonAdaptedGroupTag_JsonAdaptedTag"><path codeLine="55" d="M295.18,162.41 C313.27,176.27 343.02,199.09 366.05,216.74 " fill="none" id="JsonAdaptedGroupTag-to-JsonAdaptedTag" style="stroke:#FA9E0D;stroke-width:1.1;stroke-dasharray:7.0,7.0;"/><polygon fill="none" points="370.26,211.14,381.87,228.87,361.74,222.25,370.26,211.14" style="stroke:#FA9E0D;stroke-width:1.1;"/></g><!--link JsonAdaptedModuleTag to JsonAdaptedTag--><g id="link_JsonAdaptedModuleTag_JsonAdaptedTag"><path codeLine="56" d="M462.15,162.41 C451.92,175.31 435.54,195.95 422.02,212.98 " fill="none" id="JsonAdaptedModuleTag-to-JsonAdaptedTag" style="stroke:#FA9E0D;stroke-width:1.1;stroke-dasharray:7.0,7.0;"/><polygon fill="none" points="427.54,217.29,409.63,228.6,416.58,208.59,427.54,217.29" style="stroke:#FA9E0D;stroke-width:1.1;"/></g><!--link JsonAdaptedModuleTag to JsonAdaptedLesson--><g id="link_JsonAdaptedModuleTag_JsonAdaptedLesson"><path codeLine="58" d="M475.05,162.38 C485.5,204.82 519.91,344.6 532.41,395.36 " fill="none" id="JsonAdaptedModuleTag-to-JsonAdaptedLesson" style="stroke:#FA9E0D;stroke-width:1.1;"/><polygon fill="#FA9E0D" points="533.6,400.18,535.3246,390.4833,532.4008,395.3259,527.5581,392.4021,533.6,400.18" style="stroke:#FA9E0D;stroke-width:1.1;"/><text fill="#000000" font-family="sans-serif" font-size="13" lengthAdjust="spacing" textLength="6" x="525.6573" y="391.3097">*</text></g><!--link JsonAdaptedMeetUp to JsonAdaptedRecommendation--><!--reverse link JsonAdaptedParticipants to JsonAdaptedMeetUp--><!--reverse link JsonAdaptedParticipants to JsonAdaptedMeetUp--><g id="link_JsonAdaptedParticipants_JsonAdaptedMeetUp"><path codeLine="72" d="M140.39,348.41 C143.63,364.53 143.14,387.51 138.93,401.55 " fill="none" id="JsonAdaptedParticipants-backto-JsonAdaptedMeetUp-1" style="stroke:#FA9E0D;stroke-width:1.1;"/><polygon fill="#FA9E0D" points="139.27,343.86,137.5454,353.5567,140.4692,348.7141,145.3119,351.6379,139.27,343.86" style="stroke:#FA9E0D;stroke-width:1.1;"/><text fill="#000000" font-family="sans-serif" font-size="13" lengthAdjust="spacing" textLength="8" x="133.0893" y="362.7006">1</text></g><!--link JsonAdaptedRecommendation to JsonAdaptedLocation--><g id="link_JsonAdaptedRecommendation_JsonAdaptedLocation"><path codeLine="63" d="M347.87,428.39 C364.25,443.04 391.57,467.44 409.68,483.63 " fill="none" id="JsonAdaptedRecommendation-to-JsonAdaptedLocation" style="stroke:#FA9E0D;stroke-width:1.1;"/><polygon fill="#FA9E0D" points="412.94,486.55,408.8899,477.5724,409.2101,483.2202,403.5623,483.5403,412.94,486.55" style="stroke:#FA9E0D;stroke-width:1.1;"/><text fill="#000000" font-family="sans-serif" font-size="13" lengthAdjust="spacing" textLength="8" x="399.2342" y="477.1716">1</text></g><!--link JsonAdaptedRecommendation to JsonAdaptedTimePeriod--><g id="link_JsonAdaptedRecommendation_JsonAdaptedTimePeriod"><path codeLine="64" d="M320.13,428.39 C303.75,443.04 276.43,467.44 258.32,483.63 " fill="none" id="JsonAdaptedRecommendation-to-JsonAdaptedTimePeriod" style="stroke:#FA9E0D;stroke-width:1.1;"/><polygon fill="#FA9E0D" points="255.06,486.55,264.4377,483.5403,258.7899,483.2202,259.1101,477.5724,255.06,486.55" style="stroke:#FA9E0D;stroke-width:1.1;"/><text fill="#000000" font-family="sans-serif" font-size="13" lengthAdjust="spacing" textLength="8" x="249.7158" y="477.1716">1</text></g><!--link JsonAdaptedLesson to JsonAdaptedLocation--><g id="link_JsonAdaptedLesson_JsonAdaptedLocation"><path codeLine="66" d="M520.92,428.39 C501.92,443.04 470.25,467.44 449.25,483.63 " fill="none" id="JsonAdaptedLesson-to-JsonAdaptedLocation" style="stroke:#FA9E0D;stroke-width:1.1;"/><polygon fill="#FA9E0D" points="445.35,486.63,454.9176,484.2931,449.3067,483.5732,450.0267,477.9623,445.35,486.63" style="stroke:#FA9E0D;stroke-width:1.1;"/><text fill="#000000" font-family="sans-serif" font-size="13" lengthAdjust="spacing" textLength="8" x="440.7822" y="477.1716">1</text></g><!--link JsonAdaptedLesson to JsonAdaptedTimePeriod--><g id="link_JsonAdaptedLesson_JsonAdaptedTimePeriod"><path codeLine="67" d="M492.86,428.48 C438.6,443.83 346.76,469.8 289.97,485.87 " fill="none" id="JsonAdaptedLesson-to-JsonAdaptedTimePeriod" style="stroke:#FA9E0D;stroke-width:1.1;"/><polygon fill="#FA9E0D" points="285.36,487.17,295.1088,488.5705,290.1714,485.8096,292.9322,480.8722,285.36,487.17" style="stroke:#FA9E0D;stroke-width:1.1;"/><text fill="#000000" font-family="sans-serif" font-size="13" lengthAdjust="spacing" textLength="8" x="291.1119" y="477.213">1</text></g><!--link JsonAdaptedMeetUp to JsonAdaptedLocation--><g id="link_JsonAdaptedMeetUp_JsonAdaptedLocation"><path codeLine="69" d="M173.44,428.48 C228.06,443.83 320.52,469.8 377.7,485.87 " fill="none" id="JsonAdaptedMeetUp-to-JsonAdaptedLocation" style="stroke:#FA9E0D;stroke-width:1.1;"/><polygon fill="#FA9E0D" points="382.35,487.17,374.7729,480.8781,377.5376,485.8134,372.6023,488.578,382.35,487.17" style="stroke:#FA9E0D;stroke-width:1.1;"/><text fill="#000000" font-family="sans-serif" font-size="13" lengthAdjust="spacing" textLength="8" x="357.4238" y="477.213">1</text></g><!--link JsonAdaptedMeetUp to JsonAdaptedTimePeriod--><g id="link_JsonAdaptedMeetUp_JsonAdaptedTimePeriod"><path codeLine="70" d="M145.38,428.39 C164.73,443.04 196.98,467.44 218.37,483.63 " fill="none" id="JsonAdaptedMeetUp-to-JsonAdaptedTimePeriod" style="stroke:#FA9E0D;stroke-width:1.1;"/><polygon fill="#FA9E0D" points="222.35,486.64,217.6041,478.01,218.3689,483.6149,212.764,484.3798,222.35,486.64" style="stroke:#FA9E0D;stroke-width:1.1;"/><text fill="#000000" font-family="sans-serif" font-size="13" lengthAdjust="spacing" textLength="8" x="207.7534" y="477.1716">1</text></g><!--reverse link JsonAdaptedPerson to JsonAdaptedParticipants--><g id="link_JsonAdaptedPerson_JsonAdaptedParticipants"><path codeLine="73" d="M218.44,260.32 C197.08,276.48 164.82,300.89 145.45,315.55 " fill="none" id="JsonAdaptedPerson-backto-JsonAdaptedParticipants" style="stroke:#FA9E0D;stroke-width:1.1;"/><polygon fill="#FA9E0D" points="222.41,257.31,212.8189,259.5484,218.422,260.326,217.6445,265.9291,222.41,257.31" style="stroke:#FA9E0D;stroke-width:1.1;"/><text fill="#000000" font-family="sans-serif" font-size="13" lengthAdjust="spacing" textLength="6" x="210.4736" y="276.7006">*</text></g><!--SRC=[dLJRZjem47ttLxZfMwL4olig4aktz0BBYilJjbgvyG0MYHtPZghU_hq6d934zWBb0SZCEMV6upDvmtXUr1ImqZyBIAgwB93QCruHIKfCf1G_LZkMxpaeXTCa7IR7eX0IBrVpnMZoy3AUJ-UB3YGlY5Bt9DzlfQWvzO5HPT9a2tYfXJpy_Zw7ehK2-IHXevfiX6UZJuydwilzQFnbifYl7zyRqlXG2aTtTunha1kIGvPzvQr0ooSA3uEM-ra91u_-ee1oLz3-JotKFiu8Dz-oSvm7Mi-8XlyzZALtA_T3bjSFDcsS3xa4oKZ1Vf7l1LXi9pkYfD90dq2Q1pT-c90RNP6jHu98pN9M4QwLcrr0BieIE2MQ-GhD0FIwSkDJaGSOArQ2QPi9wb4Jj2x0s-R4UBFoPgR6zAPGwu6FZ5BWyrehPZRcxOVZ1_MZIPAT_O3wTu2Jkah-TFA3T5nNSOQZD78j6aGE7D00KnmNiD6ngHRICX39jhiZPgZYsuMcUqVFwxS6FL0EOCtGGiuCn9iHl8iyhht0IIF7qOw6Nx_rofNui-q61N5y6FiDdP-kocc-jsD1ijlOOFjkODgzH9wfc7li7sfmy7OQNg0VwUd0hYLociBny-wuZD-QQRr-uW3vk3XPSCeeA7fgjdz1xUlg9bRdLOQSarzR9emEo3U3k4u-ZBuWR-TxoScU-AjB_my0]--></g></svg>