<?xml version="1.0" encoding="UTF-8" standalone="no"?><svg xmlns="http://www.w3.org/2000/svg" xmlns:xlink="http://www.w3.org/1999/xlink" contentStyleType="text/css" height="576px" preserveAspectRatio="none" style="width:1077px;height:576px;background:#FFFFFF;" version="1.1" viewBox="0 0 1077 576" width="1077px" zoomAndPan="magnify"><defs/><g><!--cluster Storage--><g id="cluster_Storage"><rect fill="none" height="563" rx="2.5" ry="2.5" style="stroke:#000000;stroke-width:1.5;" width="1064" x="7" y="7"/><text fill="#000000" font-family="sans-serif" font-size="14" font-weight="bold" lengthAdjust="spacing" textLength="54" x="512" y="22.5352">Storage</text></g><!--cluster UserPrefs Storage--><g id="cluster_UserPrefs Storage"><rect fill="#F1F3F1" height="187" rx="2.5" ry="2.5" style="stroke:#000000;stroke-width:1.5;" width="182" x="865" y="93"/><text fill="#000000" font-family="sans-serif" font-size="14" font-weight="bold" lengthAdjust="spacing" textLength="128" x="892" y="108.5352">UserPrefs Storage</text></g><!--cluster EduMate Storage--><g id="cluster_EduMate Storage"><rect fill="#F1F3F1" height="453" rx="2.5" ry="2.5" style="stroke:#000000;stroke-width:1.5;" width="686" x="31" y="93"/><text fill="#000000" font-family="sans-serif" font-size="14" font-weight="bold" lengthAdjust="spacing" textLength="120" x="314" y="108.5352">EduMate Storage</text></g><!--class Storage1--><g id="elem_Storage1"><rect codeLine="13" fill="#FA9E0D" height="42.1973" id="Storage1" rx="2.5" ry="2.5" style="stroke:#FFFFFF;stroke-width:1.0;" width="77" x="751.5" y="128"/><text fill="#FFFFFF" font-family="Arial" font-size="14" lengthAdjust="spacing" textLength="71" x="754.5" y="146.1318">«interface»</text><text fill="#FFFFFF" font-family="Arial" font-size="14" lengthAdjust="spacing" textLength="50" x="765" y="162.2305">Storage</text></g><!--class StorageManager--><g id="elem_StorageManager"><rect codeLine="14" fill="#FA9E0D" height="26.0986" id="StorageManager" rx="2.5" ry="2.5" style="stroke:#FFFFFF;stroke-width:1.0;" width="113" x="733.5" y="238"/><text fill="#FFFFFF" font-family="Arial" font-size="14" lengthAdjust="spacing" textLength="107" x="736.5" y="256.1318">StorageManager</text></g><!--class HiddenOutside--><g id="elem_HiddenOutside"><rect codeLine="33" fill="#FFFFFF" height="26.0986" id="HiddenOutside" rx="2.5" ry="2.5" style="stroke:#FFFFFF;stroke-width:1.0;" width="100" x="740" y="42"/><text fill="#FFFFFF" font-family="Arial" font-size="14" lengthAdjust="spacing" textLength="94" x="743" y="60.1318">HiddenOutside</text></g><!--class UserPrefsStorage--><g id="elem_UserPrefsStorage"><rect codeLine="9" fill="#FA9E0D" height="42.1973" id="UserPrefsStorage" rx="2.5" ry="2.5" style="stroke:#FFFFFF;stroke-width:1.0;" width="119" x="881.5" y="128"/><text fill="#FFFFFF" font-family="Arial" font-size="14" lengthAdjust="spacing" textLength="71" x="905.5" y="146.1318">«interface»</text><text fill="#FFFFFF" font-family="Arial" font-size="14" lengthAdjust="spacing" textLength="113" x="884.5" y="162.2305">UserPrefsStorage</text></g><!--class JsonUserPrefsStorage--><g id="elem_JsonUserPrefsStorage"><rect codeLine="10" fill="#FA9E0D" height="26.0986" id="JsonUserPrefsStorage" rx="2.5" ry="2.5" style="stroke:#FFFFFF;stroke-width:1.0;" width="149" x="881.5" y="238"/><text fill="#FFFFFF" font-family="Arial" font-size="14" lengthAdjust="spacing" textLength="143" x="884.5" y="256.1318">JsonUserPrefsStorage</text></g><!--class EduMateStorage--><g id="elem_EduMateStorage"><rect codeLine="17" fill="#FA9E0D" height="42.1973" id="EduMateStorage" rx="2.5" ry="2.5" style="stroke:#FFFFFF;stroke-width:1.0;" width="113" x="587.5" y="128"/><text fill="#FFFFFF" font-family="Arial" font-size="14" lengthAdjust="spacing" textLength="71" x="608.5" y="146.1318">«interface»</text><text fill="#FFFFFF" font-family="Arial" font-size="14" lengthAdjust="spacing" textLength="107" x="590.5" y="162.2305">EduMateStorage</text></g><!--class EduMateStorageManager--><g id="elem_EduMateStorageManager"><rect codeLine="18" fill="#FA9E0D" height="26.0986" id="EduMateStorageManager" rx="2.5" ry="2.5" style="stroke:#FFFFFF;stroke-width:1.0;" width="170" x="528" y="238"/><text fill="#FFFFFF" font-family="Arial" font-size="14" lengthAdjust="spacing" textLength="164" x="531" y="256.1318">EduMateStorageManager</text></g><!--class JsonSerializableEduMate--><g id="elem_JsonSerializableEduMate"><rect codeLine="19" fill="#FA9E0D" height="26.0986" id="JsonSerializableEduMate" rx="2.5" ry="2.5" style="stroke:#FFFFFF;stroke-width:1.0;" width="166" x="246" y="332"/><text fill="#FFFFFF" font-family="Arial" font-size="14" lengthAdjust="spacing" textLength="160" x="249" y="350.1318">JsonSerializableEduMate</text></g><!--class JsonAdaptedPerson--><g id="elem_JsonAdaptedPerson"><rect codeLine="20" fill="#FA9E0D" height="26.0986" id="JsonAdaptedPerson" rx="2.5" ry="2.5" style="stroke:#FFFFFF;stroke-width:1.0;" width="134" x="173" y="238"/><text fill="#FFFFFF" font-family="Arial" font-size="14" lengthAdjust="spacing" textLength="128" x="176" y="256.1318">JsonAdaptedPerson</text></g><!--class JsonAdaptedUser--><g id="elem_JsonAdaptedUser"><rect codeLine="21" fill="#FA9E0D" height="26.0986" id="JsonAdaptedUser" rx="2.5" ry="2.5" style="stroke:#FFFFFF;stroke-width:1.0;" width="119" x="47.5" y="136"/><text fill="#FFFFFF" font-family="Arial" font-size="14" lengthAdjust="spacing" textLength="113" x="50.5" y="154.1318">JsonAdaptedUser</text></g><!--class JsonAdaptedTag--><g id="elem_JsonAdaptedTag"><rect codeLine="22" fill="#FA9E0D" height="42.1973" id="JsonAdaptedTag" rx="2.5" ry="2.5" style="stroke:#FFFFFF;stroke-width:1.0;" width="114" x="342" y="230"/><text fill="#FFFFFF" font-family="Arial" font-size="14" lengthAdjust="spacing" textLength="61" x="368.5" y="248.1318">{abstract}</text><text fill="#FFFFFF" font-family="Arial" font-size="14" lengthAdjust="spacing" textLength="108" x="345" y="264.2305">JsonAdaptedTag</text></g><!--class JsonAdaptedParticipants--><g id="elem_JsonAdaptedParticipants"><rect codeLine="23" fill="#FA9E0D" height="26.0986" id="JsonAdaptedParticipants" rx="2.5" ry="2.5" style="stroke:#FFFFFF;stroke-width:1.0;" width="163" x="47.5" y="332"/><text fill="#FFFFFF" font-family="Arial" font-size="14" lengthAdjust="spacing" textLength="157" x="50.5" y="350.1318">JsonAdaptedParticipants</text></g><!--class JsonAdaptedRecommendation--><g id="elem_JsonAdaptedRecommendation"><rect codeLine="24" fill="#FA9E0D" height="26.0986" id="JsonAdaptedRecommendation" rx="2.5" ry="2.5" style="stroke:#FFFFFF;stroke-width:1.0;" width="201" x="233.5" y="418"/><text fill="#FFFFFF" font-family="Arial" font-size="14" lengthAdjust="spacing" textLength="195" x="236.5" y="436.1318">JsonAdaptedRecommendation</text></g><!--class JsonAdaptedMeetUp--><g id="elem_JsonAdaptedMeetUp"><rect codeLine="25" fill="#FA9E0D" height="26.0986" id="JsonAdaptedMeetUp" rx="2.5" ry="2.5" style="stroke:#FFFFFF;stroke-width:1.0;" width="139" x="59.5" y="418"/><text fill="#FFFFFF" font-family="Arial" font-size="14" lengthAdjust="spacing" textLength="133" x="62.5" y="436.1318">JsonAdaptedMeetUp</text></g><!--class JsonAdaptedLocation--><g id="elem_JsonAdaptedLocation"><rect codeLine="26" fill="#FA9E0D" height="26.0986" id="JsonAdaptedLocation" rx="2.5" ry="2.5" style="stroke:#FFFFFF;stroke-width:1.0;" width="143" x="356.5" y="504"/><text fill="#FFFFFF" font-family="Arial" font-size="14" lengthAdjust="spacing" textLength="137" x="359.5" y="522.1318">JsonAdaptedLocation</text></g><!--class JsonAdaptedTimePeriod--><g id="elem_JsonAdaptedTimePeriod"><rect codeLine="27" fill="#FA9E0D" height="26.0986" id="JsonAdaptedTimePeriod" rx="2.5" ry="2.5" style="stroke:#FFFFFF;stroke-width:1.0;" width="162" x="159" y="504"/><text fill="#FFFFFF" font-family="Arial" font-size="14" lengthAdjust="spacing" textLength="156" x="162" y="522.1318">JsonAdaptedTimePeriod</text></g><!--class JsonAdaptedModuleTag--><g id="elem_JsonAdaptedModuleTag"><rect codeLine="28" fill="#FA9E0D" height="26.0986" id="JsonAdaptedModuleTag" rx="2.5" ry="2.5" style="stroke:#FFFFFF;stroke-width:1.0;" width="161" x="391.5" y="136"/><text fill="#FFFFFF" font-family="Arial" font-size="14" lengthAdjust="spacing" textLength="155" x="394.5" y="154.1318">JsonAdaptedModuleTag</text></g><!--class JsonAdaptedGroupTag--><g id="elem_JsonAdaptedGroupTag"><rect codeLine="29" fill="#FA9E0D" height="26.0986" id="JsonAdaptedGroupTag" rx="2.5" ry="2.5" style="stroke:#FFFFFF;stroke-width:1.0;" width="154" x="202" y="136"/><text fill="#FFFFFF" font-family="Arial" font-size="14" lengthAdjust="spacing" textLength="148" x="205" y="154.1318">JsonAdaptedGroupTag</text></g><!--class JsonAdaptedLesson--><g id="elem_JsonAdaptedLesson"><rect codeLine="30" fill="#FA9E0D" height="26.0986" id="JsonAdaptedLesson" rx="2.5" ry="2.5" style="stroke:#FFFFFF;stroke-width:1.0;" width="135" x="469.5" y="418"/><text fill="#FFFFFF" font-family="Arial" font-size="14" lengthAdjust="spacing" textLength="129" x="472.5" y="436.1318">JsonAdaptedLesson</text></g><!--link HiddenOutside to Storage1--><g id="link_HiddenOutside_Storage1"><path codeLine="34" d="M790,68.41 C790,81.95 790,104.03 790,121.5 " fill="none" id="HiddenOutside-to-Storage1" style="stroke:#FA9E0D;stroke-width:1.1;stroke-dasharray:7.0,7.0;"/><polygon fill="#FA9E0D" points="790,126.2,794,117.2,790,121.2,786,117.2,790,126.2" style="stroke:#FA9E0D;stroke-width:1.1;"/></g><!--reverse link Storage1 to StorageManager--><g id="link_Storage1_StorageManager"><path codeLine="36" d="M790,191.72 C790,208.32 790,226.16 790,237.67 " fill="none" id="Storage1-backto-StorageManager" style="stroke:#FA9E0D;stroke-width:1.1;stroke-dasharray:7.0,7.0;"/><polygon fill="none" points="783,191.75,790,171.75,797,191.75,783,191.75" style="stroke:#FA9E0D;stroke-width:1.1;"/></g><!--reverse link UserPrefsStorage to StorageManager--><g id="link_UserPrefsStorage_StorageManager"><path codeLine="37" d="M904.94,173.88 C874.6,193.98 832.44,221.89 808.52,237.73 " fill="none" id="UserPrefsStorage-backto-StorageManager" style="stroke:#FA9E0D;stroke-width:1.1;"/><polygon fill="#FA9E0D" points="908.82,171.31,899.1088,172.951,904.6532,174.0736,903.5305,179.6179,908.82,171.31" style="stroke:#FA9E0D;stroke-width:1.1;"/><text fill="#000000" font-family="sans-serif" font-size="13" lengthAdjust="spacing" textLength="8" x="892.6953" y="190.852">1</text></g><!--reverse link EduMateStorage to StorageManager--><g id="link_EduMateStorage_StorageManager"><path codeLine="38" d="M679.23,174.13 C708.54,194.21 749.06,221.96 772.09,237.73 " fill="none" id="EduMateStorage-backto-StorageManager" style="stroke:#FA9E0D;stroke-width:1.1;"/><polygon fill="#FA9E0D" points="675.15,171.33,680.3138,179.7166,679.2748,174.156,684.8354,173.1169,675.15,171.33" style="stroke:#FA9E0D;stroke-width:1.1;"/><text fill="#000000" font-family="sans-serif" font-size="13" lengthAdjust="spacing" textLength="8" x="672.8606" y="190.852">1</text></g><!--reverse link UserPrefsStorage to Storage1--><g id="link_UserPrefsStorage_Storage1"><path codeLine="40" d="M859.86,149 C849.55,149 839.24,149 828.93,149 " fill="none" id="UserPrefsStorage-backto-Storage1" style="stroke:#FA9E0D;stroke-width:1.1;"/><polygon fill="none" points="859.51,142,879.51,149,859.51,156,859.51,142" style="stroke:#FA9E0D;stroke-width:1.1;"/></g><!--link Storage1 to EduMateStorage--><g id="link_Storage1_EduMateStorage"><path codeLine="41" d="M751.3,149 C741.56,149 731.82,149 722.07,149 " fill="none" id="Storage1-to-EduMateStorage" style="stroke:#FA9E0D;stroke-width:1.1;"/><polygon fill="none" points="722.26,156,702.26,149,722.26,142,722.26,156" style="stroke:#FA9E0D;stroke-width:1.1;"/></g><!--reverse link UserPrefsStorage to JsonUserPrefsStorage--><g id="link_UserPrefsStorage_JsonUserPrefsStorage"><path codeLine="43" d="M947.22,191.44 C949.72,208.11 952.41,226.1 954.15,237.67 " fill="none" id="UserPrefsStorage-backto-JsonUserPrefsStorage" style="stroke:#FA9E0D;stroke-width:1.1;stroke-dasharray:7.0,7.0;"/><polygon fill="none" points="940.3,192.55,944.26,171.73,954.15,190.47,940.3,192.55" style="stroke:#FA9E0D;stroke-width:1.1;"/></g><!--reverse link EduMateStorage to EduMateStorageManager--><g id="link_EduMateStorage_EduMateStorageManager"><path codeLine="44" d="M631.42,190.59 C626.18,207.5 620.47,225.9 616.82,237.67 " fill="none" id="EduMateStorage-backto-EduMateStorageManager" style="stroke:#FA9E0D;stroke-width:1.1;stroke-dasharray:7.0,7.0;"/><polygon fill="none" points="624.67,188.71,637.28,171.68,638.04,192.86,624.67,188.71" style="stroke:#FA9E0D;stroke-width:1.1;"/></g><!--link EduMateStorageManager to JsonSerializableEduMate--><g id="link_EduMateStorageManager_JsonSerializableEduMate"><path codeLine="45" d="M574.7,264.41 C522.25,281.4 428.32,311.83 373.03,329.74 " fill="none" id="EduMateStorageManager-to-JsonSerializableEduMate" style="stroke:#FA9E0D;stroke-width:1.1;stroke-dasharray:7.0,7.0;"/><polygon fill="#FA9E0D" points="368.59,331.18,378.385,332.2083,373.3461,329.6375,375.917,324.5986,368.59,331.18" style="stroke:#FA9E0D;stroke-width:1.1;"/></g><!--reverse link JsonAdaptedPerson to JsonSerializableEduMate--><g id="link_JsonAdaptedPerson_JsonSerializableEduMate"><path codeLine="46" d="M256.25,268.8 C273.86,287 301.54,315.61 317.19,331.79 " fill="none" id="JsonAdaptedPerson-backto-JsonSerializableEduMate" style="stroke:#FA9E0D;stroke-width:1.1;"/><polygon fill="#FA9E0D" points="253.06,265.5,256.4468,274.7482,256.5381,269.0921,262.1942,269.1833,253.06,265.5" style="stroke:#FA9E0D;stroke-width:1.1;"/><text fill="#000000" font-family="sans-serif" font-size="13" lengthAdjust="spacing" textLength="6" x="249.3188" y="284.728">*</text></g><!--reverse link JsonAdaptedUser to JsonSerializableEduMate--><g id="link_JsonAdaptedUser_JsonSerializableEduMate"><path codeLine="47" d="M108.43,168.39 C111.7,197.74 122.28,255.21 156,288 C180.11,311.44 214.1,325.07 245.57,332.99 " fill="none" id="JsonAdaptedUser-backto-JsonSerializableEduMate" style="stroke:#FA9E0D;stroke-width:1.1;"/><polygon fill="#FA9E0D" points="107.96,163.74,104.8807,173.0951,108.4603,168.7149,112.8406,172.2945,107.96,163.74" style="stroke:#FA9E0D;stroke-width:1.1;"/><text fill="#000000" font-family="sans-serif" font-size="13" lengthAdjust="spacing" textLength="8" x="98.5938" y="182.7421">1</text></g><!--reverse link JsonAdaptedGroupTag to JsonAdaptedPerson--><g id="link_JsonAdaptedGroupTag_JsonAdaptedPerson"><path codeLine="48" d="M271.94,168.1 C264.09,188.22 251.63,220.19 244.82,237.64 " fill="none" id="JsonAdaptedGroupTag-backto-JsonAdaptedPerson" style="stroke:#FA9E0D;stroke-width:1.1;"/><polygon fill="#FA9E0D" points="273.67,163.67,266.6574,170.5855,271.8426,168.3241,274.104,173.5093,273.67,163.67" style="stroke:#FA9E0D;stroke-width:1.1;"/><text fill="#000000" font-family="sans-serif" font-size="13" lengthAdjust="spacing" textLength="6" x="255.7289" y="182.7835">*</text></g><!--reverse link JsonAdaptedModuleTag to JsonAdaptedPerson--><g id="link_JsonAdaptedModuleTag_JsonAdaptedPerson"><path codeLine="49" d="M437.12,165.03 C391.28,184.79 311.58,219.15 268.91,237.54 " fill="none" id="JsonAdaptedModuleTag-backto-JsonAdaptedPerson" style="stroke:#FA9E0D;stroke-width:1.1;"/><polygon fill="#FA9E0D" points="441.7,163.06,431.8517,162.9545,437.1095,165.0416,435.0223,170.2994,441.7,163.06" style="stroke:#FA9E0D;stroke-width:1.1;"/><text fill="#000000" font-family="sans-serif" font-size="13" lengthAdjust="spacing" textLength="6" x="425.3232" y="182.7964">*</text></g><!--link JsonAdaptedUser to JsonAdaptedPerson--><g id="link_JsonAdaptedUser_JsonAdaptedPerson"><path codeLine="50" d="M123.58,162.46 C144.3,178.04 180.26,205.08 206.74,225 " fill="none" id="JsonAdaptedUser-to-JsonAdaptedPerson" style="stroke:#FA9E0D;stroke-width:1.1;"/><polygon fill="none" points="210.64,219.17,222.42,236.78,202.23,230.36,210.64,219.17" style="stroke:#FA9E0D;stroke-width:1.1;"/></g><!--link JsonSerializableEduMate to JsonAdaptedParticipants--><g id="link_JsonSerializableEduMate_JsonAdaptedParticipants"><path codeLine="51" d="M245.78,345 C236.17,345 226.56,345 216.95,345 " fill="none" id="JsonSerializableEduMate-to-JsonAdaptedParticipants" style="stroke:#FA9E0D;stroke-width:1.1;"/><polygon fill="#FA9E0D" points="212.15,345,221.15,349,217.15,345,221.15,341,212.15,345" style="stroke:#FA9E0D;stroke-width:1.1;"/><text fill="#000000" font-family="sans-serif" font-size="13" lengthAdjust="spacing" textLength="8" x="218.5349" y="341.8867">1</text></g><!--link JsonSerializableEduMate to JsonAdaptedRecommendation--><g id="link_JsonSerializableEduMate_JsonAdaptedRecommendation"><path codeLine="52" d="M329.74,358.39 C330.56,372.29 331.92,394.99 332.87,411.1 " fill="none" id="JsonSerializableEduMate-to-JsonAdaptedRecommendation" style="stroke:#FA9E0D;stroke-width:1.1;"/><polygon fill="#FA9E0D" points="333.17,416.04,336.6222,406.816,332.8697,411.049,328.6367,407.2965,333.17,416.04" style="stroke:#FA9E0D;stroke-width:1.1;"/><text fill="#000000" font-family="sans-serif" font-size="13" lengthAdjust="spacing" textLength="6" x="321.0716" y="407.1716">*</text></g><!--link JsonSerializableEduMate to JsonAdaptedMeetUp--><g id="link_JsonSerializableEduMate_JsonAdaptedMeetUp"><path codeLine="53" d="M299.49,358.39 C263.6,373.47 203.05,398.9 164.61,415.05 " fill="none" id="JsonSerializableEduMate-to-JsonAdaptedMeetUp" style="stroke:#FA9E0D;stroke-width:1.1;"/><polygon fill="#FA9E0D" points="160.03,416.97,169.8764,417.19,164.6433,415.0419,166.7914,409.8087,160.03,416.97" style="stroke:#FA9E0D;stroke-width:1.1;"/><text fill="#000000" font-family="sans-serif" font-size="13" lengthAdjust="spacing" textLength="6" x="162.7827" y="407.1716">*</text></g><!--link JsonAdaptedGroupTag to JsonAdaptedTag--><g id="link_JsonAdaptedGroupTag_JsonAdaptedTag"><path codeLine="55" d="M293.71,162.26 C309.69,175.58 335.92,197.43 358.2,216 " fill="none" id="JsonAdaptedGroupTag-to-JsonAdaptedTag" style="stroke:#FA9E0D;stroke-width:1.1;"/><polygon fill="none" points="362.54,210.51,373.43,228.69,353.58,221.26,362.54,210.51" style="stroke:#FA9E0D;stroke-width:1.1;"/></g><!--link JsonAdaptedModuleTag to JsonAdaptedTag--><g id="link_JsonAdaptedModuleTag_JsonAdaptedTag"><path codeLine="56" d="M463.05,162.26 C453.95,174.73 439.39,194.67 426.45,212.4 " fill="none" id="JsonAdaptedModuleTag-to-JsonAdaptedTag" style="stroke:#FA9E0D;stroke-width:1.1;"/><polygon fill="none" points="432.19,216.41,414.74,228.44,420.88,208.15,432.19,216.41" style="stroke:#FA9E0D;stroke-width:1.1;"/></g><!--link JsonAdaptedModuleTag to JsonAdaptedLesson--><g id="link_JsonAdaptedModuleTag_JsonAdaptedLesson"><path codeLine="58" d="M474.88,162.39 C485.2,206.85 520.39,358.47 532.71,411.5 " fill="none" id="JsonAdaptedModuleTag-to-JsonAdaptedLesson" style="stroke:#FA9E0D;stroke-width:1.1;"/><polygon fill="#FA9E0D" points="533.81,416.28,535.6755,406.6094,532.6815,411.409,527.882,408.415,533.81,416.28" style="stroke:#FA9E0D;stroke-width:1.1;"/><text fill="#000000" font-family="sans-serif" font-size="13" lengthAdjust="spacing" textLength="6" x="521.073" y="407.1898">*</text></g><!--link JsonAdaptedMeetUp to JsonAdaptedRecommendation--><!--reverse link JsonAdaptedParticipants to JsonAdaptedMeetUp--><!--reverse link JsonAdaptedParticipants to JsonAdaptedMeetUp--><g id="link_JsonAdaptedParticipants_JsonAdaptedMeetUp"><path codeLine="72" d="M140.39,364.41 C143.63,380.53 143.14,403.51 138.93,417.55 " fill="none" id="JsonAdaptedParticipants-backto-JsonAdaptedMeetUp-1" style="stroke:#FA9E0D;stroke-width:1.1;"/><polygon fill="#FA9E0D" points="139.27,359.86,137.5454,369.5567,140.4692,364.7141,145.3119,367.6379,139.27,359.86" style="stroke:#FA9E0D;stroke-width:1.1;"/><text fill="#000000" font-family="sans-serif" font-size="13" lengthAdjust="spacing" textLength="8" x="133.0893" y="378.7006">1</text></g><!--link JsonAdaptedRecommendation to JsonAdaptedLocation--><g id="link_JsonAdaptedRecommendation_JsonAdaptedLocation"><path codeLine="63" d="M347.87,444.39 C364.25,459.04 391.57,483.44 409.68,499.63 " fill="none" id="JsonAdaptedRecommendation-to-JsonAdaptedLocation" style="stroke:#FA9E0D;stroke-width:1.1;"/><polygon fill="#FA9E0D" points="412.94,502.55,408.8899,493.5724,409.2101,499.2202,403.5623,499.5403,412.94,502.55" style="stroke:#FA9E0D;stroke-width:1.1;"/><text fill="#000000" font-family="sans-serif" font-size="13" lengthAdjust="spacing" textLength="8" x="399.2342" y="493.1716">1</text></g><!--link JsonAdaptedRecommendation to JsonAdaptedTimePeriod--><g id="link_JsonAdaptedRecommendation_JsonAdaptedTimePeriod"><path codeLine="64" d="M320.13,444.39 C303.75,459.04 276.43,483.44 258.32,499.63 " fill="none" id="JsonAdaptedRecommendation-to-JsonAdaptedTimePeriod" style="stroke:#FA9E0D;stroke-width:1.1;"/><polygon fill="#FA9E0D" points="255.06,502.55,264.4377,499.5403,258.7899,499.2202,259.1101,493.5724,255.06,502.55" style="stroke:#FA9E0D;stroke-width:1.1;"/><text fill="#000000" font-family="sans-serif" font-size="13" lengthAdjust="spacing" textLength="8" x="249.7158" y="493.1716">1</text></g><!--link JsonAdaptedLesson to JsonAdaptedLocation--><g id="link_JsonAdaptedLesson_JsonAdaptedLocation"><path codeLine="66" d="M520.92,444.39 C501.92,459.04 470.25,483.44 449.25,499.63 " fill="none" id="JsonAdaptedLesson-to-JsonAdaptedLocation" style="stroke:#FA9E0D;stroke-width:1.1;"/><polygon fill="#FA9E0D" points="445.35,502.63,454.9176,500.2931,449.3067,499.5732,450.0267,493.9623,445.35,502.63" style="stroke:#FA9E0D;stroke-width:1.1;"/><text fill="#000000" font-family="sans-serif" font-size="13" lengthAdjust="spacing" textLength="8" x="440.7822" y="493.1716">1</text></g><!--link JsonAdaptedLesson to JsonAdaptedTimePeriod--><g id="link_JsonAdaptedLesson_JsonAdaptedTimePeriod"><path codeLine="67" d="M492.86,444.48 C438.6,459.83 346.76,485.8 289.97,501.87 " fill="none" id="JsonAdaptedLesson-to-JsonAdaptedTimePeriod" style="stroke:#FA9E0D;stroke-width:1.1;"/><polygon fill="#FA9E0D" points="285.36,503.17,295.1088,504.5705,290.1714,501.8096,292.9322,496.8722,285.36,503.17" style="stroke:#FA9E0D;stroke-width:1.1;"/><text fill="#000000" font-family="sans-serif" font-size="13" lengthAdjust="spacing" textLength="8" x="291.1119" y="493.213">1</text></g><!--link JsonAdaptedMeetUp to JsonAdaptedLocation--><g id="link_JsonAdaptedMeetUp_JsonAdaptedLocation"><path codeLine="69" d="M173.44,444.48 C228.06,459.83 320.52,485.8 377.7,501.87 " fill="none" id="JsonAdaptedMeetUp-to-JsonAdaptedLocation" style="stroke:#FA9E0D;stroke-width:1.1;"/><polygon fill="#FA9E0D" points="382.35,503.17,374.7729,496.8781,377.5376,501.8134,372.6023,504.578,382.35,503.17" style="stroke:#FA9E0D;stroke-width:1.1;"/><text fill="#000000" font-family="sans-serif" font-size="13" lengthAdjust="spacing" textLength="8" x="357.4238" y="493.213">1</text></g><!--link JsonAdaptedMeetUp to JsonAdaptedTimePeriod--><g id="link_JsonAdaptedMeetUp_JsonAdaptedTimePeriod"><path codeLine="70" d="M145.38,444.39 C164.73,459.04 196.98,483.44 218.37,499.63 " fill="none" id="JsonAdaptedMeetUp-to-JsonAdaptedTimePeriod" style="stroke:#FA9E0D;stroke-width:1.1;"/><polygon fill="#FA9E0D" points="222.35,502.64,217.6041,494.01,218.3689,499.6149,212.764,500.3798,222.35,502.64" style="stroke:#FA9E0D;stroke-width:1.1;"/><text fill="#000000" font-family="sans-serif" font-size="13" lengthAdjust="spacing" textLength="8" x="207.7534" y="493.1716">1</text></g><!--reverse link JsonAdaptedPerson to JsonAdaptedParticipants--><g id="link_JsonAdaptedPerson_JsonAdaptedParticipants"><path codeLine="73" d="M220.29,268.34 C198.35,286.52 163.42,315.47 143.73,331.79 " fill="none" id="JsonAdaptedPerson-backto-JsonAdaptedParticipants" style="stroke:#FA9E0D;stroke-width:1.1;"/><polygon fill="#FA9E0D" points="223.86,265.37,214.3784,268.0345,220.0107,268.5611,219.4841,274.1933,223.86,265.37" style="stroke:#FA9E0D;stroke-width:1.1;"/><text fill="#000000" font-family="sans-serif" font-size="13" lengthAdjust="spacing" textLength="6" x="212.4036" y="284.728">*</text></g><!--SRC=[dLJBRjim4BphArZr5a02T0y4E6xgFkmuyEEK504Zhct24YcG58esJR-zj2pAaaZQINsmhTsPuUvoLXyeo_AA09BgLmvnMHLv8FUKbLZW0c4X-C_LZcPx1bAY94w6oJ7FkK3BrNmncjm-ZUVJ-Q83oN8ivGtEzbl1AqPSuA3KQRm5j5HS77vVJg5mBK7S2zX8amtHRFJrxaXzkXcDlqyMy_NT9qqQ7uv2uVKrPGh41cUGfe-i5MZvMA9XiE5-azp21w-1HxahsFnF6cZpECDCVujEExUacc45_zjCG- -Ut0yrl7xGb75gSWc2ufp-niyvDDXETaHmgO3SWz0FTlmm8LFV2twMIk1ClJwo3cI5jtLn_P3Z22mKpMY9cP9sTW4PBmfW12lgAcG6eDQb7P_opCDOqG9qMvGJXnedLGxECYVQkwKpCzLBeGzgFVA54W9iNYb9zKPz_5n_WduqZjEJNuB-7Q6uAkC_dVmW7LLbbA8m2MqBUv43XnXWWg8SDYhIf_cqD4JGxQx635LSksAgj_ISVZJeWR87guVcSwudRaPm5JfSVO6JX9RZBGs3_Nk5KEYqYvVIB-dalC6PA3fC_Xt57s_Bgh-tPbvoqqjuPWNFSWTD7PSpSCp5QclGUZiF9z27T5JVR6TWbOMYXrszap_CnCxtx27N-vDw9nruHO_bzY-fVMkzYzLvemLMvsyzne_so9j1l4tUZxuWtyptafiTyREx_my0]--></g></svg>
