<?xml version="1.0" encoding="us-ascii" standalone="no"?><svg xmlns="http://www.w3.org/2000/svg" xmlns:xlink="http://www.w3.org/1999/xlink" contentStyleType="text/css" height="510px" preserveAspectRatio="none" style="width:536px;height:510px;background:#FFFFFF;" version="1.1" viewBox="0 0 536 510" width="536px" zoomAndPan="magnify"><defs/><g><ellipse cx="243.625" cy="20" fill="#222222" rx="10" ry="10" style="stroke:#222222;stroke-width:1.0;"/><rect fill="#F1F1F1" height="34.1328" rx="12.5" ry="12.5" style="stroke:#181818;stroke-width:0.5;" width="187" x="150.125" y="50"/><text fill="#000000" font-family="sans-serif" font-size="12" lengthAdjust="spacing" textLength="167" x="160.125" y="71.6016">User executes TabCommand</text><rect fill="#F1F1F1" height="48.2656" rx="12.5" ry="12.5" style="stroke:#181818;stroke-width:0.5;" width="370" x="58.625" y="104.1328"/><text fill="#000000" font-family="sans-serif" font-size="12" lengthAdjust="spacing" textLength="350" x="68.625" y="125.7344">TabCommandParser extracts the relevant zero-based index</text><text fill="#000000" font-family="sans-serif" font-size="12" lengthAdjust="spacing" textLength="298" x="94.625" y="139.8672">from the supplied Target Tab name from TabEnum</text><polygon fill="#F1F1F1" points="243.625,172.3984,243.625,172.3984,255.625,184.3984,243.625,196.3984,243.625,196.3984,231.625,184.3984,243.625,172.3984" style="stroke:#181818;stroke-width:0.5;"/><text fill="#000000" font-family="sans-serif" font-size="11" lengthAdjust="spacing" textLength="133" x="98.625" y="182.0781">[Invalid Index Argument]</text><text fill="#000000" font-family="sans-serif" font-size="11" lengthAdjust="spacing" textLength="29" x="255.625" y="182.0781">[else]</text><rect fill="#F1F1F1" height="48.2656" rx="12.5" ry="12.5" style="stroke:#181818;stroke-width:0.5;" width="195" x="11" y="206.3984"/><text fill="#000000" font-family="sans-serif" font-size="12" lengthAdjust="spacing" textLength="130" x="43.5" y="228">Display error message</text><text fill="#000000" font-family="sans-serif" font-size="12" lengthAdjust="spacing" textLength="175" x="21" y="242.1328">on invalid command argument</text><ellipse cx="108.5" cy="299.7969" fill="none" rx="11" ry="11" style="stroke:#222222;stroke-width:1.0;"/><ellipse cx="108.5" cy="299.7969" fill="#222222" rx="6" ry="6" style="stroke:#111111;stroke-width:1.0;"/><rect fill="#F1F1F1" height="34.1328" rx="12.5" ry="12.5" style="stroke:#181818;stroke-width:0.5;" width="149" x="304.25" y="206.3984"/><text fill="#000000" font-family="sans-serif" font-size="12" lengthAdjust="spacing" textLength="129" x="314.25" y="228">Get zero-based index</text><rect fill="#F1F1F1" height="34.1328" rx="12.5" ry="12.5" style="stroke:#181818;stroke-width:0.5;" width="260" x="248.75" y="274.6641"/><text fill="#000000" font-family="sans-serif" font-size="12" lengthAdjust="spacing" textLength="240" x="258.75" y="296.2656">Update ObservableTabIndex to the index</text><rect fill="#F1F1F1" height="34.1328" rx="12.5" ry="12.5" style="stroke:#181818;stroke-width:0.5;" width="217" x="270.25" y="330.7969"/><text fill="#000000" font-family="sans-serif" font-size="12" lengthAdjust="spacing" textLength="197" x="280.25" y="352.3984">Listener in Ui observes the change</text><polygon fill="#F1F1F1" points="378.75,389.6602,378.75,389.6602,390.75,401.6602,378.75,413.6602,378.75,413.6602,366.75,401.6602,378.75,389.6602" style="stroke:#181818;stroke-width:0.5;"/><text fill="#000000" font-family="sans-serif" font-size="11" lengthAdjust="spacing" textLength="74" x="239.75" y="386.3848">[No change in</text><text fill="#000000" font-family="sans-serif" font-size="11" lengthAdjust="spacing" textLength="115" x="251.75" y="399.3398">ObservableTabIndex]</text><text fill="#000000" font-family="sans-serif" font-size="11" lengthAdjust="spacing" textLength="29" x="390.75" y="399.3398">[else]</text><rect fill="#F1F1F1" height="34.1328" rx="12.5" ry="12.5" style="stroke:#181818;stroke-width:0.5;" width="131" x="236" y="423.6602"/><text fill="#000000" font-family="sans-serif" font-size="12" lengthAdjust="spacing" textLength="111" x="246" y="445.2617">Same Tab is shown</text><ellipse cx="301.5" cy="488.793" fill="none" rx="11" ry="11" style="stroke:#222222;stroke-width:1.0;"/><ellipse cx="301.5" cy="488.793" fill="#222222" rx="6" ry="6" style="stroke:#111111;stroke-width:1.0;"/><rect fill="#F1F1F1" height="34.1328" rx="12.5" ry="12.5" style="stroke:#181818;stroke-width:0.5;" width="138" x="387" y="423.6602"/><text fill="#000000" font-family="sans-serif" font-size="12" lengthAdjust="spacing" textLength="118" x="397" y="445.2617">Target Tab is shown</text><ellipse cx="456" cy="488.793" fill="none" rx="11" ry="11" style="stroke:#222222;stroke-width:1.0;"/><ellipse cx="456" cy="488.793" fill="#222222" rx="6" ry="6" style="stroke:#111111;stroke-width:1.0;"/><line style="stroke:#181818;stroke-width:1.0;" x1="243.625" x2="243.625" y1="30" y2="50"/><polygon fill="#181818" points="239.625,40,243.625,50,247.625,40,243.625,44" style="stroke:#181818;stroke-width:1.0;"/><line style="stroke:#181818;stroke-width:1.0;" x1="243.625" x2="243.625" y1="84.1328" y2="104.1328"/><polygon fill="#181818" points="239.625,94.1328,243.625,104.1328,247.625,94.1328,243.625,98.1328" style="stroke:#181818;stroke-width:1.0;"/><line style="stroke:#181818;stroke-width:1.0;" x1="108.5" x2="108.5" y1="254.6641" y2="288.7969"/><polygon fill="#181818" points="104.5,278.7969,108.5,288.7969,112.5,278.7969,108.5,282.7969" style="stroke:#181818;stroke-width:1.0;"/><line style="stroke:#181818;stroke-width:1.0;" x1="378.75" x2="378.75" y1="240.5313" y2="274.6641"/><polygon fill="#181818" points="374.75,264.6641,378.75,274.6641,382.75,264.6641,378.75,268.6641" style="stroke:#181818;stroke-width:1.0;"/><line style="stroke:#181818;stroke-width:1.0;" x1="378.75" x2="378.75" y1="308.7969" y2="330.7969"/><polygon fill="#181818" points="374.75,320.7969,378.75,330.7969,382.75,320.7969,378.75,324.7969" style="stroke:#181818;stroke-width:1.0;"/><line style="stroke:#181818;stroke-width:1.0;" x1="301.5" x2="301.5" y1="457.793" y2="477.793"/><polygon fill="#181818" points="297.5,467.793,301.5,477.793,305.5,467.793,301.5,471.793" style="stroke:#181818;stroke-width:1.0;"/><line style="stroke:#181818;stroke-width:1.0;" x1="456" x2="456" y1="457.793" y2="477.793"/><polygon fill="#181818" points="452,467.793,456,477.793,460,467.793,456,471.793" style="stroke:#181818;stroke-width:1.0;"/><line style="stroke:#181818;stroke-width:1.0;" x1="366.75" x2="301.5" y1="401.6602" y2="401.6602"/><line style="stroke:#181818;stroke-width:1.0;" x1="301.5" x2="301.5" y1="401.6602" y2="423.6602"/><polygon fill="#181818" points="297.5,413.6602,301.5,423.6602,305.5,413.6602,301.5,417.6602" style="stroke:#181818;stroke-width:1.0;"/><line style="stroke:#181818;stroke-width:1.0;" x1="390.75" x2="456" y1="401.6602" y2="401.6602"/><line style="stroke:#181818;stroke-width:1.0;" x1="456" x2="456" y1="401.6602" y2="423.6602"/><polygon fill="#181818" points="452,413.6602,456,423.6602,460,413.6602,456,417.6602" style="stroke:#181818;stroke-width:1.0;"/><line style="stroke:#181818;stroke-width:1.0;" x1="378.75" x2="378.75" y1="364.9297" y2="389.6602"/><polygon fill="#181818" points="374.75,379.6602,378.75,389.6602,382.75,379.6602,378.75,383.6602" style="stroke:#181818;stroke-width:1.0;"/><line style="stroke:#181818;stroke-width:1.0;" x1="231.625" x2="108.5" y1="184.3984" y2="184.3984"/><line style="stroke:#181818;stroke-width:1.0;" x1="108.5" x2="108.5" y1="184.3984" y2="206.3984"/><polygon fill="#181818" points="104.5,196.3984,108.5,206.3984,112.5,196.3984,108.5,200.3984" style="stroke:#181818;stroke-width:1.0;"/><line style="stroke:#181818;stroke-width:1.0;" x1="255.625" x2="378.75" y1="184.3984" y2="184.3984"/><line style="stroke:#181818;stroke-width:1.0;" x1="378.75" x2="378.75" y1="184.3984" y2="206.3984"/><polygon fill="#181818" points="374.75,196.3984,378.75,206.3984,382.75,196.3984,378.75,200.3984" style="stroke:#181818;stroke-width:1.0;"/><line style="stroke:#181818;stroke-width:1.0;" x1="243.625" x2="243.625" y1="152.3984" y2="172.3984"/><polygon fill="#181818" points="239.625,162.3984,243.625,172.3984,247.625,162.3984,243.625,166.3984" style="stroke:#181818;stroke-width:1.0;"/><!--SRC=[RL9DJyCm3BtdLvWJsu7zWEs40A59291W9yJ1RKndAN6gs1qRlvuq7LyQlRJ9Uyz-p-uPIni6Jw1s2BJeXnYSKyDiRhbHoa1xQWSZXMTihbACA7xbbZ-7HymJpJAsfc1RWao1TYW67vJJHODA7bWyxTrRJh5ITEZxmEN-6ND7DbO7mKXG6ULq8qDSENV-L0nIbJHa27eGmptuL1n9ibedPOC-OClILMARnBDn4aY3AVigT-UUCHO4tgco2TW09yEMXr8_exJRObIDq2-SupUOpKTSOFQobXq6zh0USy1bxeP8Ogzp1-LPNhEMcWUWd5E6IAhOKOMA2pvAssbYW4VngXBKKkyeA9Kcu-khv2sTpczIB3UzHoDuQChaTzW4AlEQV5cgUNwJxxZaaR8Y5jWmf2gYANUxHUbe8lv9Uv-EsAYgy6cpez7Qv6bStRX3Lj1jUfVLDrRpZH-d6Qlqrm_ml_WJ]--></g></svg>
