<?xml version="1.0" encoding="UTF-8" standalone="no"?><svg xmlns="http://www.w3.org/2000/svg" xmlns:xlink="http://www.w3.org/1999/xlink" contentStyleType="text/css" height="474px" preserveAspectRatio="none" style="width:882px;height:474px;background:#FFFFFF;" version="1.1" viewBox="0 0 882 474" width="882px" zoomAndPan="magnify"><defs/><g><ellipse cx="444.25" cy="20" fill="#222222" rx="10" ry="10" style="stroke:#222222;stroke-width:1.0;"/><rect fill="#F1F1F1" height="34.1328" rx="12.5" ry="12.5" style="stroke:#181818;stroke-width:0.5;" width="180" x="354.25" y="50"/><text fill="#000000" font-family="sans-serif" font-size="12" lengthAdjust="spacing" textLength="160" x="364.25" y="71.6016">User enters a tag command</text><polygon fill="#F1F1F1" points="63.5,104.1328,63.5,104.1328,75.5,116.1328,63.5,128.1328,63.5,128.1328,51.5,116.1328,63.5,104.1328" style="stroke:#181818;stroke-width:0.5;"/><text fill="#000000" font-family="sans-serif" font-size="11" lengthAdjust="spacing" textLength="105" x="67.5" y="138.7676">[No tags are added]</text><rect fill="#F1F1F1" height="34.1328" rx="12.5" ry="12.5" style="stroke:#181818;stroke-width:0.5;" width="105" x="11" y="160.2676"/><text fill="#000000" font-family="sans-serif" font-size="12" lengthAdjust="spacing" textLength="85" x="21" y="181.8691">Error: No Tags</text><polygon fill="#F1F1F1" points="239.5,104.1328,239.5,104.1328,251.5,116.1328,239.5,128.1328,239.5,128.1328,227.5,116.1328,239.5,104.1328" style="stroke:#181818;stroke-width:0.5;"/><text fill="#000000" font-family="sans-serif" font-size="11" lengthAdjust="spacing" textLength="192" x="243.5" y="138.7676">[Group and Module Tags are added]</text><text fill="#000000" font-family="sans-serif" font-size="11" lengthAdjust="spacing" textLength="3" x="251.5" y="113.8125"> </text><rect fill="#F1F1F1" height="34.1328" rx="12.5" ry="12.5" style="stroke:#181818;stroke-width:0.5;" width="114" x="182.5" y="160.2676"/><text fill="#000000" font-family="sans-serif" font-size="12" lengthAdjust="spacing" textLength="94" x="192.5" y="181.8691">Error: Both Tags</text><polygon fill="#F1F1F1" points="557,167.5513,557,167.5513,569,179.5513,557,191.5513,557,191.5513,545,179.5513,557,167.5513" style="stroke:#181818;stroke-width:0.5;"/><text fill="#000000" font-family="sans-serif" font-size="11" lengthAdjust="spacing" textLength="70" x="561" y="202.186">[Tag Module]</text><rect fill="#F1F1F1" height="34.1328" rx="12.5" ry="12.5" style="stroke:#181818;stroke-width:0.5;" width="175" x="469.5" y="223.686"/><text fill="#000000" font-family="sans-serif" font-size="12" lengthAdjust="spacing" textLength="155" x="479.5" y="245.2876">Find clashes with timetable</text><polygon fill="#F1F1F1" points="557,283.8628,557,283.8628,569,295.8628,557,307.8628,557,307.8628,545,295.8628,557,283.8628" style="stroke:#181818;stroke-width:0.5;"/><text fill="#000000" font-family="sans-serif" font-size="11" lengthAdjust="spacing" textLength="50" x="495" y="293.5425">[Clashes]</text><text fill="#000000" font-family="sans-serif" font-size="11" lengthAdjust="spacing" textLength="3" x="569" y="293.5425"> </text><rect fill="#F1F1F1" height="34.1328" rx="12.5" ry="12.5" style="stroke:#181818;stroke-width:0.5;" width="88" x="461.5" y="317.8628"/><text fill="#000000" font-family="sans-serif" font-size="12" lengthAdjust="spacing" textLength="68" x="471.5" y="339.4644">Error: Clash</text><rect fill="#F1F1F1" height="34.1328" rx="12.5" ry="12.5" style="stroke:#181818;stroke-width:0.5;" width="78" x="569.5" y="317.8628"/><text fill="#000000" font-family="sans-serif" font-size="12" lengthAdjust="spacing" textLength="58" x="579.5" y="339.4644">Adds tags</text><polygon fill="#F1F1F1" points="557,357.9956,569,369.9956,557,381.9956,545,369.9956,557,357.9956" style="stroke:#181818;stroke-width:0.5;"/><polygon fill="#F1F1F1" points="710.5,167.5513,710.5,167.5513,722.5,179.5513,710.5,191.5513,710.5,191.5513,698.5,179.5513,710.5,167.5513" style="stroke:#181818;stroke-width:0.5;"/><text fill="#000000" font-family="sans-serif" font-size="11" lengthAdjust="spacing" textLength="65" x="714.5" y="202.186">[Tag Group]</text><text fill="#000000" font-family="sans-serif" font-size="11" lengthAdjust="spacing" textLength="3" x="722.5" y="177.231"> </text><rect fill="#F1F1F1" height="34.1328" rx="12.5" ry="12.5" style="stroke:#181818;stroke-width:0.5;" width="78" x="671.5" y="223.686"/><text fill="#000000" font-family="sans-serif" font-size="12" lengthAdjust="spacing" textLength="58" x="681.5" y="245.2876">Adds tags</text><rect fill="#F1F1F1" height="34.1328" rx="12.5" ry="12.5" style="stroke:#181818;stroke-width:0.5;" width="82" x="789.5" y="277.8188"/><text fill="#000000" font-family="sans-serif" font-size="12" lengthAdjust="spacing" textLength="62" x="799.5" y="299.4204">Do nothing</text><ellipse cx="444.25" cy="452.9956" fill="none" rx="11" ry="11" style="stroke:#222222;stroke-width:1.0;"/><ellipse cx="444.25" cy="452.9956" fill="#222222" rx="6" ry="6" style="stroke:#111111;stroke-width:1.0;"/><line style="stroke:#181818;stroke-width:1.0;" x1="444.25" x2="444.25" y1="30" y2="50"/><polygon fill="#181818" points="440.25,40,444.25,50,448.25,40,444.25,44" style="stroke:#181818;stroke-width:1.0;"/><line style="stroke:#181818;stroke-width:1.0;" x1="545" x2="505.5" y1="295.8628" y2="295.8628"/><line style="stroke:#181818;stroke-width:1.0;" x1="505.5" x2="505.5" y1="295.8628" y2="317.8628"/><polygon fill="#181818" points="501.5,307.8628,505.5,317.8628,509.5,307.8628,505.5,311.8628" style="stroke:#181818;stroke-width:1.0;"/><line style="stroke:#181818;stroke-width:1.0;" x1="569" x2="608.5" y1="295.8628" y2="295.8628"/><line style="stroke:#181818;stroke-width:1.0;" x1="608.5" x2="608.5" y1="295.8628" y2="317.8628"/><polygon fill="#181818" points="604.5,307.8628,608.5,317.8628,612.5,307.8628,608.5,311.8628" style="stroke:#181818;stroke-width:1.0;"/><line style="stroke:#181818;stroke-width:1.0;" x1="505.5" x2="505.5" y1="351.9956" y2="369.9956"/><line style="stroke:#181818;stroke-width:1.0;" x1="505.5" x2="545" y1="369.9956" y2="369.9956"/><polygon fill="#181818" points="535,365.9956,545,369.9956,535,373.9956,539,369.9956" style="stroke:#181818;stroke-width:1.0;"/><line style="stroke:#181818;stroke-width:1.0;" x1="608.5" x2="608.5" y1="351.9956" y2="369.9956"/><line style="stroke:#181818;stroke-width:1.0;" x1="608.5" x2="569" y1="369.9956" y2="369.9956"/><polygon fill="#181818" points="579,365.9956,569,369.9956,579,373.9956,575,369.9956" style="stroke:#181818;stroke-width:1.0;"/><line style="stroke:#181818;stroke-width:1.0;" x1="557" x2="557" y1="257.8188" y2="283.8628"/><polygon fill="#181818" points="553,273.8628,557,283.8628,561,273.8628,557,277.8628" style="stroke:#181818;stroke-width:1.0;"/><line style="stroke:#181818;stroke-width:1.0;" x1="557" x2="557" y1="191.5513" y2="223.686"/><polygon fill="#181818" points="553,213.686,557,223.686,561,213.686,557,217.686" style="stroke:#181818;stroke-width:1.0;"/><line style="stroke:#181818;stroke-width:1.0;" x1="557" x2="557" y1="381.9956" y2="401.9956"/><polygon fill="#181818" points="553,391.9956,557,401.9956,561,391.9956,557,395.9956" style="stroke:#181818;stroke-width:1.0;"/><line style="stroke:#181818;stroke-width:1.0;" x1="710.5" x2="710.5" y1="191.5513" y2="223.686"/><polygon fill="#181818" points="706.5,213.686,710.5,223.686,714.5,213.686,710.5,217.686" style="stroke:#181818;stroke-width:1.0;"/><line style="stroke:#181818;stroke-width:1.0;" x1="710.5" x2="710.5" y1="257.8188" y2="401.9956"/><polygon fill="#181818" points="706.5,391.9956,710.5,401.9956,714.5,391.9956,710.5,395.9956" style="stroke:#181818;stroke-width:1.0;"/><line style="stroke:#181818;stroke-width:1.0;" x1="569" x2="698.5" y1="179.5513" y2="179.5513"/><polygon fill="#181818" points="688.5,175.5513,698.5,179.5513,688.5,183.5513,692.5,179.5513" style="stroke:#181818;stroke-width:1.0;"/><line style="stroke:#181818;stroke-width:1.0;" x1="251.5" x2="557" y1="116.1328" y2="116.1328"/><line style="stroke:#181818;stroke-width:1.0;" x1="557" x2="557" y1="116.1328" y2="167.5513"/><polygon fill="#181818" points="553,157.5513,557,167.5513,561,157.5513,557,161.5513" style="stroke:#181818;stroke-width:1.0;"/><line style="stroke:#181818;stroke-width:1.0;" x1="722.5" x2="830.5" y1="179.5513" y2="179.5513"/><line style="stroke:#181818;stroke-width:1.0;" x1="830.5" x2="830.5" y1="179.5513" y2="277.8188"/><polygon fill="#181818" points="826.5,267.8188,830.5,277.8188,834.5,267.8188,830.5,271.8188" style="stroke:#181818;stroke-width:1.0;"/><line style="stroke:#181818;stroke-width:1.0;" x1="830.5" x2="830.5" y1="311.9517" y2="401.9956"/><polygon fill="#181818" points="826.5,391.9956,830.5,401.9956,834.5,391.9956,830.5,395.9956" style="stroke:#181818;stroke-width:1.0;"/><line style="stroke:#181818;stroke-width:1.0;" x1="557" x2="830.5" y1="401.9956" y2="401.9956"/><line style="stroke:#181818;stroke-width:1.0;" x1="63.5" x2="63.5" y1="128.1328" y2="160.2676"/><polygon fill="#181818" points="59.5,150.2676,63.5,160.2676,67.5,150.2676,63.5,154.2676" style="stroke:#181818;stroke-width:1.0;"/><line style="stroke:#181818;stroke-width:1.0;" x1="63.5" x2="63.5" y1="194.4004" y2="421.9956"/><polygon fill="#181818" points="59.5,411.9956,63.5,421.9956,67.5,411.9956,63.5,415.9956" style="stroke:#181818;stroke-width:1.0;"/><line style="stroke:#181818;stroke-width:1.0;" x1="239.5" x2="239.5" y1="128.1328" y2="160.2676"/><polygon fill="#181818" points="235.5,150.2676,239.5,160.2676,243.5,150.2676,239.5,154.2676" style="stroke:#181818;stroke-width:1.0;"/><line style="stroke:#181818;stroke-width:1.0;" x1="239.5" x2="239.5" y1="194.4004" y2="421.9956"/><polygon fill="#181818" points="235.5,411.9956,239.5,421.9956,243.5,411.9956,239.5,415.9956" style="stroke:#181818;stroke-width:1.0;"/><line style="stroke:#181818;stroke-width:1.0;" x1="75.5" x2="227.5" y1="116.1328" y2="116.1328"/><polygon fill="#181818" points="217.5,112.1328,227.5,116.1328,217.5,120.1328,221.5,116.1328" style="stroke:#181818;stroke-width:1.0;"/><line style="stroke:#181818;stroke-width:1.0;" x1="444.25" x2="444.25" y1="84.1328" y2="89.1328"/><line style="stroke:#181818;stroke-width:1.0;" x1="444.25" x2="63.5" y1="89.1328" y2="89.1328"/><line style="stroke:#181818;stroke-width:1.0;" x1="63.5" x2="63.5" y1="89.1328" y2="104.1328"/><polygon fill="#181818" points="59.5,94.1328,63.5,104.1328,67.5,94.1328,63.5,98.1328" style="stroke:#181818;stroke-width:1.0;"/><line style="stroke:#181818;stroke-width:1.0;" x1="661.5" x2="661.5" y1="401.9956" y2="421.9956"/><polygon fill="#181818" points="657.5,411.9956,661.5,421.9956,665.5,411.9956,661.5,415.9956" style="stroke:#181818;stroke-width:1.0;"/><line style="stroke:#181818;stroke-width:1.0;" x1="63.5" x2="661.5" y1="421.9956" y2="421.9956"/><line style="stroke:#181818;stroke-width:1.0;" x1="444.25" x2="444.25" y1="421.9956" y2="441.9956"/><polygon fill="#181818" points="440.25,431.9956,444.25,441.9956,448.25,431.9956,444.25,435.9956" style="stroke:#181818;stroke-width:1.0;"/><!--SRC=[TP2xKWCn34LxVuKwaWAsTofUeI9Lg1WA4Ikxdl5Znz8Elu_YBC4R1XTkxhd7icu6aP5jruq1aqmnt1rox0u1cM-TnxvWD8O5YnZxnbI0ab1XG13iGTc8oMsCyKTOhK46Ih1wt-LJgb0XGEV8VQmDwB7FfUHYGVEzvbgZmBIelfGyZQ1EUCrk2bJ1VqKFMOPMfQAQBvIQpxAvNGrRhs-S_ZaGmvTNZ_X8Wf-1DXTguNaymusa7QMclyrscWjwxnpNpJHSSlveVXf_vgxhQCU-Kbm_Ovyo95sAJ_qCLF_vPidZDm00]--></g></svg>
