<?xml version="1.0" encoding="UTF-8" standalone="no"?><svg xmlns="http://www.w3.org/2000/svg" xmlns:xlink="http://www.w3.org/1999/xlink" contentStyleType="text/css" height="474px" preserveAspectRatio="none" style="width:733px;height:474px;background:#FFFFFF;" version="1.1" viewBox="0 0 733 474" width="733px" zoomAndPan="magnify"><defs/><g><ellipse cx="369.75" cy="20" fill="#222222" rx="10" ry="10" style="stroke:#222222;stroke-width:1.0;"/><rect fill="#F1F1F1" height="34.1328" rx="12.5" ry="12.5" style="stroke:#181818;stroke-width:0.5;" width="180" x="279.75" y="50"/><text fill="#000000" font-family="sans-serif" font-size="12" lengthAdjust="spacing" textLength="160" x="289.75" y="71.6016">User enters a tag command</text><polygon fill="#F1F1F1" points="63.5,104.1328,63.5,104.1328,75.5,116.1328,63.5,128.1328,63.5,128.1328,51.5,116.1328,63.5,104.1328" style="stroke:#181818;stroke-width:0.5;"/><text fill="#000000" font-family="sans-serif" font-size="11" lengthAdjust="spacing" textLength="76" x="67.5" y="138.7676">[None tagged]</text><rect fill="#F1F1F1" height="34.1328" rx="12.5" ry="12.5" style="stroke:#181818;stroke-width:0.5;" width="105" x="11" y="160.2676"/><text fill="#000000" font-family="sans-serif" font-size="12" lengthAdjust="spacing" textLength="85" x="21" y="181.8691">Error: No Tags</text><polygon fill="#F1F1F1" points="210.5,104.1328,210.5,104.1328,222.5,116.1328,210.5,128.1328,210.5,128.1328,198.5,116.1328,210.5,104.1328" style="stroke:#181818;stroke-width:0.5;"/><text fill="#000000" font-family="sans-serif" font-size="11" lengthAdjust="spacing" textLength="72" x="214.5" y="138.7676">[Both tagged]</text><text fill="#000000" font-family="sans-serif" font-size="11" lengthAdjust="spacing" textLength="3" x="222.5" y="113.8125"> </text><rect fill="#F1F1F1" height="34.1328" rx="12.5" ry="12.5" style="stroke:#181818;stroke-width:0.5;" width="114" x="153.5" y="160.2676"/><text fill="#000000" font-family="sans-serif" font-size="12" lengthAdjust="spacing" textLength="94" x="163.5" y="181.8691">Error: Both Tags</text><polygon fill="#F1F1F1" points="408,167.5513,408,167.5513,420,179.5513,408,191.5513,408,191.5513,396,179.5513,408,167.5513" style="stroke:#181818;stroke-width:0.5;"/><text fill="#000000" font-family="sans-serif" font-size="11" lengthAdjust="spacing" textLength="70" x="412" y="202.186">[Tag Module]</text><rect fill="#F1F1F1" height="34.1328" rx="12.5" ry="12.5" style="stroke:#181818;stroke-width:0.5;" width="175" x="320.5" y="223.686"/><text fill="#000000" font-family="sans-serif" font-size="12" lengthAdjust="spacing" textLength="155" x="330.5" y="245.2876">Find clashes with timetable</text><polygon fill="#F1F1F1" points="408,283.8628,408,283.8628,420,295.8628,408,307.8628,408,307.8628,396,295.8628,408,283.8628" style="stroke:#181818;stroke-width:0.5;"/><text fill="#000000" font-family="sans-serif" font-size="11" lengthAdjust="spacing" textLength="50" x="346" y="293.5425">[Clashes]</text><text fill="#000000" font-family="sans-serif" font-size="11" lengthAdjust="spacing" textLength="3" x="420" y="293.5425"> </text><rect fill="#F1F1F1" height="34.1328" rx="12.5" ry="12.5" style="stroke:#181818;stroke-width:0.5;" width="88" x="312.5" y="317.8628"/><text fill="#000000" font-family="sans-serif" font-size="12" lengthAdjust="spacing" textLength="68" x="322.5" y="339.4644">Error: Clash</text><rect fill="#F1F1F1" height="34.1328" rx="12.5" ry="12.5" style="stroke:#181818;stroke-width:0.5;" width="78" x="420.5" y="317.8628"/><text fill="#000000" font-family="sans-serif" font-size="12" lengthAdjust="spacing" textLength="58" x="430.5" y="339.4644">Adds tags</text><polygon fill="#F1F1F1" points="408,357.9956,420,369.9956,408,381.9956,396,369.9956,408,357.9956" style="stroke:#181818;stroke-width:0.5;"/><polygon fill="#F1F1F1" points="561.5,167.5513,561.5,167.5513,573.5,179.5513,561.5,191.5513,561.5,191.5513,549.5,179.5513,561.5,167.5513" style="stroke:#181818;stroke-width:0.5;"/><text fill="#000000" font-family="sans-serif" font-size="11" lengthAdjust="spacing" textLength="65" x="565.5" y="202.186">[Tag Group]</text><text fill="#000000" font-family="sans-serif" font-size="11" lengthAdjust="spacing" textLength="3" x="573.5" y="177.231"> </text><rect fill="#F1F1F1" height="34.1328" rx="12.5" ry="12.5" style="stroke:#181818;stroke-width:0.5;" width="78" x="522.5" y="223.686"/><text fill="#000000" font-family="sans-serif" font-size="12" lengthAdjust="spacing" textLength="58" x="532.5" y="245.2876">Adds tags</text><rect fill="#F1F1F1" height="34.1328" rx="12.5" ry="12.5" style="stroke:#181818;stroke-width:0.5;" width="82" x="640.5" y="277.8188"/><text fill="#000000" font-family="sans-serif" font-size="12" lengthAdjust="spacing" textLength="62" x="650.5" y="299.4204">Do nothing</text><ellipse cx="369.75" cy="452.9956" fill="none" rx="11" ry="11" style="stroke:#222222;stroke-width:1.0;"/><ellipse cx="369.75" cy="452.9956" fill="#222222" rx="6" ry="6" style="stroke:#111111;stroke-width:1.0;"/><line style="stroke:#181818;stroke-width:1.0;" x1="369.75" x2="369.75" y1="30" y2="50"/><polygon fill="#181818" points="365.75,40,369.75,50,373.75,40,369.75,44" style="stroke:#181818;stroke-width:1.0;"/><line style="stroke:#181818;stroke-width:1.0;" x1="396" x2="356.5" y1="295.8628" y2="295.8628"/><line style="stroke:#181818;stroke-width:1.0;" x1="356.5" x2="356.5" y1="295.8628" y2="317.8628"/><polygon fill="#181818" points="352.5,307.8628,356.5,317.8628,360.5,307.8628,356.5,311.8628" style="stroke:#181818;stroke-width:1.0;"/><line style="stroke:#181818;stroke-width:1.0;" x1="420" x2="459.5" y1="295.8628" y2="295.8628"/><line style="stroke:#181818;stroke-width:1.0;" x1="459.5" x2="459.5" y1="295.8628" y2="317.8628"/><polygon fill="#181818" points="455.5,307.8628,459.5,317.8628,463.5,307.8628,459.5,311.8628" style="stroke:#181818;stroke-width:1.0;"/><line style="stroke:#181818;stroke-width:1.0;" x1="356.5" x2="356.5" y1="351.9956" y2="369.9956"/><line style="stroke:#181818;stroke-width:1.0;" x1="356.5" x2="396" y1="369.9956" y2="369.9956"/><polygon fill="#181818" points="386,365.9956,396,369.9956,386,373.9956,390,369.9956" style="stroke:#181818;stroke-width:1.0;"/><line style="stroke:#181818;stroke-width:1.0;" x1="459.5" x2="459.5" y1="351.9956" y2="369.9956"/><line style="stroke:#181818;stroke-width:1.0;" x1="459.5" x2="420" y1="369.9956" y2="369.9956"/><polygon fill="#181818" points="430,365.9956,420,369.9956,430,373.9956,426,369.9956" style="stroke:#181818;stroke-width:1.0;"/><line style="stroke:#181818;stroke-width:1.0;" x1="408" x2="408" y1="257.8188" y2="283.8628"/><polygon fill="#181818" points="404,273.8628,408,283.8628,412,273.8628,408,277.8628" style="stroke:#181818;stroke-width:1.0;"/><line style="stroke:#181818;stroke-width:1.0;" x1="408" x2="408" y1="191.5513" y2="223.686"/><polygon fill="#181818" points="404,213.686,408,223.686,412,213.686,408,217.686" style="stroke:#181818;stroke-width:1.0;"/><line style="stroke:#181818;stroke-width:1.0;" x1="408" x2="408" y1="381.9956" y2="401.9956"/><polygon fill="#181818" points="404,391.9956,408,401.9956,412,391.9956,408,395.9956" style="stroke:#181818;stroke-width:1.0;"/><line style="stroke:#181818;stroke-width:1.0;" x1="561.5" x2="561.5" y1="191.5513" y2="223.686"/><polygon fill="#181818" points="557.5,213.686,561.5,223.686,565.5,213.686,561.5,217.686" style="stroke:#181818;stroke-width:1.0;"/><line style="stroke:#181818;stroke-width:1.0;" x1="561.5" x2="561.5" y1="257.8188" y2="401.9956"/><polygon fill="#181818" points="557.5,391.9956,561.5,401.9956,565.5,391.9956,561.5,395.9956" style="stroke:#181818;stroke-width:1.0;"/><line style="stroke:#181818;stroke-width:1.0;" x1="420" x2="549.5" y1="179.5513" y2="179.5513"/><polygon fill="#181818" points="539.5,175.5513,549.5,179.5513,539.5,183.5513,543.5,179.5513" style="stroke:#181818;stroke-width:1.0;"/><line style="stroke:#181818;stroke-width:1.0;" x1="222.5" x2="408" y1="116.1328" y2="116.1328"/><line style="stroke:#181818;stroke-width:1.0;" x1="408" x2="408" y1="116.1328" y2="167.5513"/><polygon fill="#181818" points="404,157.5513,408,167.5513,412,157.5513,408,161.5513" style="stroke:#181818;stroke-width:1.0;"/><line style="stroke:#181818;stroke-width:1.0;" x1="573.5" x2="681.5" y1="179.5513" y2="179.5513"/><line style="stroke:#181818;stroke-width:1.0;" x1="681.5" x2="681.5" y1="179.5513" y2="277.8188"/><polygon fill="#181818" points="677.5,267.8188,681.5,277.8188,685.5,267.8188,681.5,271.8188" style="stroke:#181818;stroke-width:1.0;"/><line style="stroke:#181818;stroke-width:1.0;" x1="681.5" x2="681.5" y1="311.9517" y2="401.9956"/><polygon fill="#181818" points="677.5,391.9956,681.5,401.9956,685.5,391.9956,681.5,395.9956" style="stroke:#181818;stroke-width:1.0;"/><line style="stroke:#181818;stroke-width:1.0;" x1="408" x2="681.5" y1="401.9956" y2="401.9956"/><line style="stroke:#181818;stroke-width:1.0;" x1="63.5" x2="63.5" y1="128.1328" y2="160.2676"/><polygon fill="#181818" points="59.5,150.2676,63.5,160.2676,67.5,150.2676,63.5,154.2676" style="stroke:#181818;stroke-width:1.0;"/><line style="stroke:#181818;stroke-width:1.0;" x1="63.5" x2="63.5" y1="194.4004" y2="421.9956"/><polygon fill="#181818" points="59.5,411.9956,63.5,421.9956,67.5,411.9956,63.5,415.9956" style="stroke:#181818;stroke-width:1.0;"/><line style="stroke:#181818;stroke-width:1.0;" x1="210.5" x2="210.5" y1="128.1328" y2="160.2676"/><polygon fill="#181818" points="206.5,150.2676,210.5,160.2676,214.5,150.2676,210.5,154.2676" style="stroke:#181818;stroke-width:1.0;"/><line style="stroke:#181818;stroke-width:1.0;" x1="210.5" x2="210.5" y1="194.4004" y2="421.9956"/><polygon fill="#181818" points="206.5,411.9956,210.5,421.9956,214.5,411.9956,210.5,415.9956" style="stroke:#181818;stroke-width:1.0;"/><line style="stroke:#181818;stroke-width:1.0;" x1="75.5" x2="198.5" y1="116.1328" y2="116.1328"/><polygon fill="#181818" points="188.5,112.1328,198.5,116.1328,188.5,120.1328,192.5,116.1328" style="stroke:#181818;stroke-width:1.0;"/><line style="stroke:#181818;stroke-width:1.0;" x1="369.75" x2="369.75" y1="84.1328" y2="89.1328"/><line style="stroke:#181818;stroke-width:1.0;" x1="369.75" x2="63.5" y1="89.1328" y2="89.1328"/><line style="stroke:#181818;stroke-width:1.0;" x1="63.5" x2="63.5" y1="89.1328" y2="104.1328"/><polygon fill="#181818" points="59.5,94.1328,63.5,104.1328,67.5,94.1328,63.5,98.1328" style="stroke:#181818;stroke-width:1.0;"/><line style="stroke:#181818;stroke-width:1.0;" x1="512.5" x2="512.5" y1="401.9956" y2="421.9956"/><polygon fill="#181818" points="508.5,411.9956,512.5,421.9956,516.5,411.9956,512.5,415.9956" style="stroke:#181818;stroke-width:1.0;"/><line style="stroke:#181818;stroke-width:1.0;" x1="63.5" x2="512.5" y1="421.9956" y2="421.9956"/><line style="stroke:#181818;stroke-width:1.0;" x1="369.75" x2="369.75" y1="421.9956" y2="441.9956"/><polygon fill="#181818" points="365.75,431.9956,369.75,441.9956,373.75,431.9956,369.75,435.9956" style="stroke:#181818;stroke-width:1.0;"/><!--SRC=[RP0xSm8n38Hx_mfrWIAvtbJaMOKgL0o5WeNFCtxSMBhXx-CpXFX8NBZP_LOhFVGY0-kk6pn66OD_EgJG7JmoFng7DcDGYWMpABrboa1HA3CW25eete3Hh9HoHrWiGNgAiDXjKgH9jsJsImNbwRUSKzQmIV25bWj0dca6FIVf_uUgqc05gleCBpfy9ZDwkj8ruTr50zCsFJ6St3J11HByzhIwkMOvBnTp4z9MgUelsRQvMTV6yBG8Dxvet57z47zwV-Gq3ctjkuZxCVerGIn7ST5U3JN_yhEauGm0]--></g></svg>
