<?xml version="1.0" encoding="us-ascii" standalone="no"?>
<svg xmlns="http://www.w3.org/2000/svg" contentStyleType="text/css" height="327px" preserveAspectRatio="none"
     style="width:540px;height:327px;background:#FFFFFF;" version="1.1" viewBox="0 0 540 327" width="540px"
     zoomAndPan="magnify">
    <defs/>
    <g><!--class Item-->
        <g id="elem_Item">
            <rect codeLine="9" fill="#9D0012" height="41.2813" id="Item" rx="2.5" ry="2.5"
                  style="stroke:#181818;stroke-width:0.0;" width="67" x="343" y="7"/>
            <text fill="#FFFFFF" font-family="Arial" font-size="14" font-style="italic" lengthAdjust="spacing"
                  textLength="61" x="346" y="24.6738">{abstract}
            </text>
            <text fill="#FFFFFF" font-family="Arial" font-size="14" font-style="italic" lengthAdjust="spacing"
                  textLength="27" x="363" y="40.3145">Item
            </text>
        </g><!--class Name-->
        <g id="elem_Name">
            <rect codeLine="10" fill="#9D0012" height="41.2813" id="Name" rx="2.5" ry="2.5"
                  style="stroke:#181818;stroke-width:0.0;" width="67" x="223" y="280"/>
            <text fill="#FFFFFF" font-family="Arial" font-size="14" font-style="italic" lengthAdjust="spacing"
                  textLength="61" x="226" y="297.6738">{abstract}
            </text>
            <text fill="#FFFFFF" font-family="Arial" font-size="14" font-style="italic" lengthAdjust="spacing"
                  textLength="37" x="238" y="313.3145">Name
            </text>
        </g><!--class Deadline-->
        <g id="elem_Deadline">
            <rect codeLine="11" fill="#9D0012" height="41.2813" id="Deadline" rx="2.5" ry="2.5"
                  style="stroke:#181818;stroke-width:0.0;" width="67" x="453" y="280"/>
            <text fill="#FFFFFF" font-family="Arial" font-size="14" font-style="italic" lengthAdjust="spacing"
                  textLength="61" x="456" y="297.6738">{abstract}
            </text>
            <text fill="#FFFFFF" font-family="Arial" font-size="14" font-style="italic" lengthAdjust="spacing"
                  textLength="56" x="458.5" y="313.3145">Deadline
            </text>
        </g><!--class Status-->
        <g id="elem_Status">
            <rect codeLine="12" fill="#9D0012" height="41.2813" id="Status" rx="2.5" ry="2.5"
                  style="stroke:#181818;stroke-width:0.0;" width="67" x="333" y="280"/>
            <text fill="#FFFFFF" font-family="Arial" font-size="14" font-style="italic" lengthAdjust="spacing"
                  textLength="61" x="336" y="297.6738">{abstract}
            </text>
            <text fill="#FFFFFF" font-family="Arial" font-size="14" font-style="italic" lengthAdjust="spacing"
                  textLength="40" x="346.5" y="313.3145">Status
            </text>
        </g><!--class UniqueItemList-->
        <g id="elem_UniqueItemList">
            <rect codeLine="13" fill="#9D0012" height="25.6406" id="UniqueItemList" rx="2.5" ry="2.5"
                  style="stroke:#181818;stroke-width:0.0;" width="127" x="181" y="14.5"/>
            <text fill="#FFFFFF" font-family="Arial" font-size="14" lengthAdjust="spacing" textLength="117" x="184"
                  y="32.1738">UniqueItemList&lt;T&gt;
            </text>
        </g><!--class ItemList-->
        <g id="elem_ItemList">
            <rect codeLine="14" fill="#9D0012" height="25.6406" id="ItemList" rx="2.5" ry="2.5"
                  style="stroke:#181818;stroke-width:0.0;" width="139" x="7" y="14.5"/>
            <text fill="#FFFFFF" font-family="Arial" font-size="14" lengthAdjust="spacing" textLength="48" x="10"
                  y="32.1738">ItemList
            </text>
            <rect fill="#FFFFFF" height="17.9609" style="stroke:#181818;stroke-width:1.0;stroke-dasharray:2.0,2.0;"
                  width="83" x="66" y="11.5"/>
            <text fill="#000000" font-family="sans-serif" font-size="12" font-style="italic" lengthAdjust="spacing"
                  textLength="81" x="67" y="25.4492">T extends Item
            </text>
        </g><!--class Task-->
        <g id="elem_Task">
            <rect codeLine="16" fill="#9D0012" height="25.6406" id="Task" rx="2.5" ry="2.5"
                  style="stroke:#181818;stroke-width:0.0;" width="50" x="341.5" y="108"/>
            <text fill="#FFFFFF" font-family="Arial" font-size="14" lengthAdjust="spacing" textLength="31" x="351"
                  y="125.6738">Task
            </text>
        </g><!--class TaskName-->
        <g id="elem_TaskName">
            <rect codeLine="17" fill="#9D0012" height="25.6406" id="TaskName" rx="2.5" ry="2.5"
                  style="stroke:#181818;stroke-width:0.0;" width="73" x="220" y="194"/>
            <text fill="#FFFFFF" font-family="Arial" font-size="14" lengthAdjust="spacing" textLength="67" x="223"
                  y="211.6738">TaskName
            </text>
        </g><!--class TaskStatus-->
        <g id="elem_TaskStatus">
            <rect codeLine="18" fill="#9D0012" height="25.6406" id="TaskStatus" rx="2.5" ry="2.5"
                  style="stroke:#181818;stroke-width:0.0;" width="77" x="328" y="194"/>
            <text fill="#FFFFFF" font-family="Arial" font-size="14" lengthAdjust="spacing" textLength="71" x="331"
                  y="211.6738">TaskStatus
            </text>
        </g><!--class TaskDeadline-->
        <g id="elem_TaskDeadline">
            <rect codeLine="19" fill="#9D0012" height="25.6406" id="TaskDeadline" rx="2.5" ry="2.5"
                  style="stroke:#181818;stroke-width:0.0;" width="93" x="440" y="194"/>
            <text fill="#FFFFFF" font-family="Arial" font-size="14" lengthAdjust="spacing" textLength="87" x="443"
                  y="211.6738">TaskDeadline
            </text>
        </g><!--class TaskList-->
        <g id="elem_TaskList">
            <rect codeLine="20" fill="#9D0012" height="25.6406" id="TaskList" rx="2.5" ry="2.5"
                  style="stroke:#181818;stroke-width:0.0;" width="59" x="73" y="108"/>
            <text fill="#FFFFFF" font-family="Arial" font-size="14" lengthAdjust="spacing" textLength="53" x="76"
                  y="125.6738">TaskList
            </text>
        </g><!--class UniqueTaskList-->
        <g id="elem_UniqueTaskList">
            <rect codeLine="21" fill="#9D0012" height="25.6406" id="UniqueTaskList" rx="2.5" ry="2.5"
                  style="stroke:#181818;stroke-width:0.0;" width="103" x="193" y="108"/>
            <text fill="#FFFFFF" font-family="Arial" font-size="14" lengthAdjust="spacing" textLength="97" x="196"
                  y="125.6738">UniqueTaskList
            </text>
        </g><!--reverse link ItemList to TaskList-->
        <g id="link_ItemList_TaskList">
            <path d="M85.84,61.36 C90.39,77.39 95.6,95.73 98.97,107.56 " fill="none" id="ItemList-backto-TaskList"
                  style="stroke:#9D0012;stroke-width:1.1;"/>
            <polygon fill="none" points="79.15,63.45,80.42,42.3,92.62,59.62,79.15,63.45"
                     style="stroke:#9D0012;stroke-width:1.1;"/>
        </g><!--reverse link UniqueItemList to UniqueTaskList-->
        <g id="link_UniqueItemList_UniqueTaskList">
            <path d="M244.5,62.19 C244.5,78.03 244.5,95.93 244.5,107.56 " fill="none"
                  id="UniqueItemList-backto-UniqueTaskList" style="stroke:#9D0012;stroke-width:1.1;"/>
            <polygon fill="none" points="237.5,62.35,244.5,42.35,251.5,62.35,237.5,62.35"
                     style="stroke:#9D0012;stroke-width:1.1;"/>
        </g><!--link ItemList to UniqueItemList-->
        <g id="link_ItemList_UniqueItemList">
            <path codeLine="23" d="M160.67,27.5 C162.67,27.5 164.67,27.5 166.67,27.5 " fill="none"
                  id="ItemList-UniqueItemList" style="stroke:#9D0012;stroke-width:1.1;"/>
            <polygon fill="#9D0012" points="147.9,27.5,153.9,31.5,159.9,27.5,153.9,23.5,147.9,27.5"
                     style="stroke:#9D0012;stroke-width:1.1;"/>
            <polygon fill="#9D0012" points="179.37,27.5,170.37,23.5,174.37,27.5,170.37,31.5,179.37,27.5"
                     style="stroke:#9D0012;stroke-width:1.1;"/>
            <line style="stroke:#9D0012;stroke-width:1.1;" x1="174.37" x2="166.37" y1="27.5" y2="27.5"/>
            <text fill="#000000" font-family="sans-serif" font-size="13" lengthAdjust="spacing" textLength="7"
                  x="166.1193" y="23.5831">1
            </text>
        </g><!--link UniqueItemList to Item-->
        <g id="link_UniqueItemList_Item">
            <path codeLine="24" d="M308.44,27.5 C317.73,27.5 327.02,27.5 336.3,27.5 " fill="none"
                  id="UniqueItemList-to-Item" style="stroke:#9D0012;stroke-width:1.1;"/>
            <polygon fill="#9D0012" points="341.22,27.5,332.22,23.5,336.22,27.5,332.22,31.5,341.22,27.5"
                     style="stroke:#9D0012;stroke-width:1.1;"/>
            <text fill="#000000" font-family="sans-serif" font-size="13" lengthAdjust="spacing" textLength="5"
                  x="329.7959" y="22.67">*
            </text>
        </g><!--link TaskList to UniqueTaskList-->
        <g id="link_TaskList_UniqueTaskList">
            <path codeLine="26" d="M146.61,121 C157.21,121 167.8,121 178.4,121 " fill="none"
                  id="TaskList-UniqueTaskList" style="stroke:#9D0012;stroke-width:1.1;"/>
            <polygon fill="#9D0012" points="133.97,121,139.97,125,145.97,121,139.97,117,133.97,121"
                     style="stroke:#9D0012;stroke-width:1.1;"/>
            <polygon fill="#9D0012" points="191.34,121,182.34,117,186.34,121,182.34,125,191.34,121"
                     style="stroke:#9D0012;stroke-width:1.1;"/>
            <line style="stroke:#9D0012;stroke-width:1.1;" x1="186.34" x2="178.34" y1="121" y2="121"/>
            <text fill="#000000" font-family="sans-serif" font-size="13" lengthAdjust="spacing" textLength="7"
                  x="174.1705" y="116.9298">1
            </text>
        </g><!--link UniqueTaskList to Task-->
        <g id="link_UniqueTaskList_Task">
            <path codeLine="27" d="M296.45,121 C309.22,121 322,121 334.78,121 " fill="none" id="UniqueTaskList-to-Task"
                  style="stroke:#9D0012;stroke-width:1.1;"/>
            <polygon fill="#9D0012" points="339.54,121,330.54,117,334.54,121,330.54,125,339.54,121"
                     style="stroke:#9D0012;stroke-width:1.1;"/>
            <text fill="#000000" font-family="sans-serif" font-size="13" lengthAdjust="spacing" textLength="5"
                  x="328.5384" y="115.8313">*
            </text>
        </g><!--link Task to TaskName-->
        <g id="link_Task_TaskName">
            <path codeLine="28" d="M338.95,143.04 C322.18,155.84 300.84,172.14 284.07,184.95 " fill="none"
                  id="Task-TaskName" style="stroke:#9D0012;stroke-width:1.1;"/>
            <polygon fill="#9D0012"
                     points="349.07,135.31,341.8741,135.778,339.5385,142.6004,346.7344,142.1324,349.07,135.31"
                     style="stroke:#9D0012;stroke-width:1.1;"/>
            <polygon fill="#9D0012" points="274,192.64,283.5808,190.3578,277.9741,189.6058,278.7261,183.9992,274,192.64"
                     style="stroke:#9D0012;stroke-width:1.1;"/>
            <line style="stroke:#9D0012;stroke-width:1.1;" x1="277.9741" x2="284.33" y1="189.6058" y2="184.745"/>
            <text fill="#000000" font-family="sans-serif" font-size="13" lengthAdjust="spacing" textLength="7"
                  x="270.52" y="182.6042">1
            </text>
        </g><!--link Task to TaskDeadline-->
        <g id="link_Task_TaskDeadline">
            <path codeLine="29" d="M395.92,142.59 C414.44,155.56 438.27,172.24 456.84,185.24 " fill="none"
                  id="Task-TaskDeadline" style="stroke:#9D0012;stroke-width:1.1;"/>
            <polygon fill="#9D0012"
                     points="385.45,135.26,388.0728,141.9772,395.282,142.1398,392.6593,135.4225,385.45,135.26"
                     style="stroke:#9D0012;stroke-width:1.1;"/>
            <polygon fill="#9D0012"
                     points="467.48,192.69,462.3992,184.2528,463.3833,189.8234,457.8127,190.8075,467.48,192.69"
                     style="stroke:#9D0012;stroke-width:1.1;"/>
            <line style="stroke:#9D0012;stroke-width:1.1;" x1="463.3833" x2="456.83" y1="189.8234" y2="185.23"/>
            <text fill="#000000" font-family="sans-serif" font-size="13" lengthAdjust="spacing" textLength="7"
                  x="453.873" y="182.6042">1
            </text>
        </g><!--link Task to TaskStatus-->
        <g id="link_Task_TaskStatus">
            <path codeLine="30" d="M366.5,148.58 C366.5,158.34 366.5,169.39 366.5,179.17 " fill="none"
                  id="Task-TaskStatus" style="stroke:#9D0012;stroke-width:1.1;"/>
            <polygon fill="#9D0012" points="366.5,135.91,362.5,141.91,366.5,147.91,370.5,141.91,366.5,135.91"
                     style="stroke:#9D0012;stroke-width:1.1;"/>
            <polygon fill="#9D0012" points="366.5,192.04,370.5,183.04,366.5,187.04,362.5,183.04,366.5,192.04"
                     style="stroke:#9D0012;stroke-width:1.1;"/>
            <line style="stroke:#9D0012;stroke-width:1.1;" x1="366.5" x2="366.5" y1="187.04" y2="179.04"/>
            <text fill="#000000" font-family="sans-serif" font-size="13" lengthAdjust="spacing" textLength="7"
                  x="353.4719" y="182.6042">1
            </text>
        </g><!--reverse link Item to Task-->
        <g id="link_Item_Task">
            <path codeLine="31" d="M372.01,69.58 C370.49,83.45 368.91,97.91 367.84,107.76 " fill="none"
                  id="Item-backto-Task" style="stroke:#9D0012;stroke-width:1.1;"/>
            <polygon fill="none" points="365.03,68.98,374.17,49.86,378.95,70.5,365.03,68.98"
                     style="stroke:#9D0012;stroke-width:1.1;"/>
        </g><!--link TaskName to Name-->
        <g id="link_TaskName_Name">
            <path codeLine="33" d="M256.5,220.34 C256.5,230.15 256.5,244.46 256.5,258.23 " fill="none"
                  id="TaskName-to-Name" style="stroke:#9D0012;stroke-width:1.1;"/>
            <polygon fill="none" points="263.5,258.15,256.5,278.15,249.5,258.15,263.5,258.15"
                     style="stroke:#9D0012;stroke-width:1.1;"/>
        </g><!--link TaskDeadline to Deadline-->
        <g id="link_TaskDeadline_Deadline">
            <path codeLine="34" d="M486.5,220.34 C486.5,230.15 486.5,244.46 486.5,258.23 " fill="none"
                  id="TaskDeadline-to-Deadline" style="stroke:#9D0012;stroke-width:1.1;"/>
            <polygon fill="none" points="493.5,258.15,486.5,278.15,479.5,258.15,493.5,258.15"
                     style="stroke:#9D0012;stroke-width:1.1;"/>
        </g><!--link TaskStatus to Status-->
        <g id="link_TaskStatus_Status">
            <path codeLine="35" d="M366.5,220.34 C366.5,230.15 366.5,244.46 366.5,258.23 " fill="none"
                  id="TaskStatus-to-Status" style="stroke:#9D0012;stroke-width:1.1;"/>
            <polygon fill="none" points="373.5,258.15,366.5,278.15,359.5,258.15,373.5,258.15"
                     style="stroke:#9D0012;stroke-width:1.1;"/>
        </g><!--SRC=[VP71QiCm38RlVWejnq8AkO_2bkvGo5ROijjWg8vfJH8xinMsiUtTLzj9cgIGIv1-VVebEJTIyQej15ZwhiIwQUkAsLAg1WtMWCRep_maUQc4jP2iatanrPKsyBZVFcJlwJxRFuy0Ng6rzyZBez6jAfPGHpGxTH964Yek866CT0EauQ29T0s5D8AJr8gnkuCbWvmWTGCW-i5E-7jJEn9r16Z11Ola4zR2aovO9BS2YqggGFV9OiSB8RNMyo5a7VIgv4Sht6wPj7IRRy13Kxc3BnI8BnAg2DA6TVKSRJaA_HcNT3BN2SFY5ycvJxn7qyDALzHiKzP7i8fZSxucYUR8D0LFhQBmVzZWtxT3D9lCPelq_Vvwzt6jOV3m2jVoSFou1D7ufNmbRdytezMS6yJnMHjyUwSWJto3KIXqfly0]-->
    </g>
</svg>
