<?xml version="1.0" encoding="UTF-8" standalone="no"?><svg xmlns="http://www.w3.org/2000/svg" xmlns:xlink="http://www.w3.org/1999/xlink" contentStyleType="text/css" height="329px" preserveAspectRatio="none" style="width:595px;height:329px;background:#FFFFFF;" version="1.1" viewBox="0 0 595 329" width="595px" zoomAndPan="magnify"><defs/><g><!--MD5=[44a1b4afaef76c16e6c9ec4990ad0c8d]
class Item--><g id="elem_Item"><rect codeLine="9" fill="#9D0012" height="42.1973" id="Item" rx="2.5" ry="2.5" style="stroke:#181818;stroke-width:0.0;" width="67" x="343" y="7"/><text fill="#FFFFFF" font-family="Arial" font-size="14" font-style="italic" lengthAdjust="spacing" textLength="61" x="346" y="25.1318">{abstract}</text><text fill="#FFFFFF" font-family="Arial" font-size="14" font-style="italic" lengthAdjust="spacing" textLength="27" x="363" y="41.2305">Item</text></g><!--MD5=[53f6a92bd21ca2f2960392a061f3a1c6]
class Name--><g id="elem_Name"><rect codeLine="10" fill="#9D0012" height="42.1973" id="Name" rx="2.5" ry="2.5" style="stroke:#181818;stroke-width:0.0;" width="67" x="278" y="281"/><text fill="#FFFFFF" font-family="Arial" font-size="14" font-style="italic" lengthAdjust="spacing" textLength="61" x="281" y="299.1318">{abstract}</text><text fill="#FFFFFF" font-family="Arial" font-size="14" font-style="italic" lengthAdjust="spacing" textLength="37" x="293" y="315.2305">Name</text></g><!--MD5=[007886e900a243ece686dc981ec5213f]
class Deadline--><g id="elem_Deadline"><rect codeLine="11" fill="#9D0012" height="42.1973" id="Deadline" rx="2.5" ry="2.5" style="stroke:#181818;stroke-width:0.0;" width="67" x="508" y="281"/><text fill="#FFFFFF" font-family="Arial" font-size="14" font-style="italic" lengthAdjust="spacing" textLength="61" x="511" y="299.1318">{abstract}</text><text fill="#FFFFFF" font-family="Arial" font-size="14" font-style="italic" lengthAdjust="spacing" textLength="56" x="513.5" y="315.2305">Deadline</text></g><!--MD5=[e3d83ec5fd90ea9f3f2bfe265cb53458]
class Status--><g id="elem_Status"><rect codeLine="12" fill="#9D0012" height="42.1973" id="Status" rx="2.5" ry="2.5" style="stroke:#181818;stroke-width:0.0;" width="67" x="388" y="281"/><text fill="#FFFFFF" font-family="Arial" font-size="14" font-style="italic" lengthAdjust="spacing" textLength="61" x="391" y="299.1318">{abstract}</text><text fill="#FFFFFF" font-family="Arial" font-size="14" font-style="italic" lengthAdjust="spacing" textLength="40" x="401.5" y="315.2305">Status</text></g><!--MD5=[0413c2967cbcbb9b55cfe9d1f30bae3b]
class UniqueItemList--><g id="elem_UniqueItemList"><rect codeLine="13" fill="#9D0012" height="26.0986" id="UniqueItemList" rx="2.5" ry="2.5" style="stroke:#181818;stroke-width:0.0;" width="127" x="181" y="15"/><text fill="#FFFFFF" font-family="Arial" font-size="14" lengthAdjust="spacing" textLength="117" x="184" y="33.1318">UniqueItemList&lt;T&gt;</text></g><!--MD5=[a7724e71618d3dacaca1ec2d24889dc2]
class ItemList--><g id="elem_ItemList"><rect codeLine="14" fill="#9D0012" height="26.0986" id="ItemList" rx="2.5" ry="2.5" style="stroke:#181818;stroke-width:0.0;" width="139" x="7" y="15"/><text fill="#FFFFFF" font-family="Arial" font-size="14" lengthAdjust="spacing" textLength="48" x="10" y="33.1318">ItemList</text><rect fill="#FFFFFF" height="17.0938" style="stroke:#181818;stroke-width:1.0;stroke-dasharray:2.0,2.0;" width="83" x="66" y="12"/><text fill="#000000" font-family="sans-serif" font-size="12" font-style="italic" lengthAdjust="spacing" textLength="81" x="67" y="25.457">T extends Item</text></g><!--MD5=[38cbc5fc88b06498bbb77355b03ca902]
class LocalDateTime--><g id="elem_LocalDateTime"><rect codeLine="16" fill="#9D0012" height="26.0986" id="LocalDateTime" rx="2.5" ry="2.5" style="stroke:#181818;stroke-width:0.0;" width="101" x="139" y="195"/><text fill="#FFFFFF" font-family="Arial" font-size="14" lengthAdjust="spacing" textLength="95" x="142" y="213.1318">LocalDateTime</text></g><!--MD5=[b34797a66dc35cbf1d65f7e3ca75530e]
class Task--><g id="elem_Task"><rect codeLine="17" fill="#9D0012" height="26.0986" id="Task" rx="2.5" ry="2.5" style="stroke:#181818;stroke-width:0.0;" width="50" x="341.5" y="109"/><text fill="#FFFFFF" font-family="Arial" font-size="14" lengthAdjust="spacing" textLength="31" x="351" y="127.1318">Task</text></g><!--MD5=[cfa77d5c669501401925471e6c9e1da2]
class TaskName--><g id="elem_TaskName"><rect codeLine="18" fill="#9D0012" height="26.0986" id="TaskName" rx="2.5" ry="2.5" style="stroke:#181818;stroke-width:0.0;" width="73" x="275" y="195"/><text fill="#FFFFFF" font-family="Arial" font-size="14" lengthAdjust="spacing" textLength="67" x="278" y="213.1318">TaskName</text></g><!--MD5=[007b513da6771087a86fbb3bd355c48d]
class TaskStatus--><g id="elem_TaskStatus"><rect codeLine="19" fill="#9D0012" height="26.0986" id="TaskStatus" rx="2.5" ry="2.5" style="stroke:#181818;stroke-width:0.0;" width="77" x="383" y="195"/><text fill="#FFFFFF" font-family="Arial" font-size="14" lengthAdjust="spacing" textLength="71" x="386" y="213.1318">TaskStatus</text></g><!--MD5=[a502ac6dd9067578fee93a0ea367e575]
class TaskDeadline--><g id="elem_TaskDeadline"><rect codeLine="20" fill="#9D0012" height="26.0986" id="TaskDeadline" rx="2.5" ry="2.5" style="stroke:#181818;stroke-width:0.0;" width="93" x="495" y="195"/><text fill="#FFFFFF" font-family="Arial" font-size="14" lengthAdjust="spacing" textLength="87" x="498" y="213.1318">TaskDeadline</text></g><!--MD5=[cf2635f8a68afd84898027166f4516bc]
class TaskList--><g id="elem_TaskList"><rect codeLine="21" fill="#9D0012" height="26.0986" id="TaskList" rx="2.5" ry="2.5" style="stroke:#181818;stroke-width:0.0;" width="59" x="73" y="109"/><text fill="#FFFFFF" font-family="Arial" font-size="14" lengthAdjust="spacing" textLength="53" x="76" y="127.1318">TaskList</text></g><!--MD5=[75b6c2ed89a40aea61dd9d2f01a6d908]
class UniqueTaskList--><g id="elem_UniqueTaskList"><rect codeLine="22" fill="#9D0012" height="26.0986" id="UniqueTaskList" rx="2.5" ry="2.5" style="stroke:#181818;stroke-width:0.0;" width="103" x="193" y="109"/><text fill="#FFFFFF" font-family="Arial" font-size="14" lengthAdjust="spacing" textLength="97" x="196" y="127.1318">UniqueTaskList</text></g><!--MD5=[34e8c164b1866cd7ba27496f84f7211e]
reverse link ItemList to TaskList--><g id="link_ItemList_TaskList"><path d="M85.4,60.48 C90.11,77.18 95.64,96.71 99.1,108.97 " fill="none" id="ItemList-backto-TaskList" style="stroke:#9D0012;stroke-width:1.1;"/><polygon fill="none" points="78.6,62.18,79.9,41.03,92.07,58.37,78.6,62.18" style="stroke:#9D0012;stroke-width:1.1;"/></g><!--MD5=[737be0e4e92cd33054fb52d50c544ec4]
reverse link UniqueItemList to UniqueTaskList--><g id="link_UniqueItemList_UniqueTaskList"><path d="M244.5,61.05 C244.5,77.61 244.5,96.85 244.5,108.97 " fill="none" id="UniqueItemList-backto-UniqueTaskList" style="stroke:#9D0012;stroke-width:1.1;"/><polygon fill="none" points="237.5,61.03,244.5,41.03,251.5,61.03,237.5,61.03" style="stroke:#9D0012;stroke-width:1.1;"/></g><!--MD5=[4e7777d310d747d2c1947315482d4a2c]
link ItemList to UniqueItemList--><g id="link_ItemList_UniqueItemList"><path codeLine="24" d="M158.06,28 C158.06,28 164.87,28 167.65,28 " fill="none" id="ItemList-UniqueItemList" style="stroke:#9D0012;stroke-width:1.1;"/><polygon fill="#9D0012" points="180.67,28,171.67,24,175.67,28,171.67,32,180.67,28" style="stroke:#9D0012;stroke-width:1.1;"/><line style="stroke:#9D0012;stroke-width:1.1;" x1="175.67" x2="167.67" y1="28" y2="28"/><polygon fill="#9D0012" points="146.06,28,152.06,32,158.06,28,152.06,24,146.06,28" style="stroke:#9D0012;stroke-width:1.1;"/><text fill="#000000" font-family="sans-serif" font-size="13" lengthAdjust="spacing" textLength="7" x="165.885" y="24.5847">1</text></g><!--MD5=[be517f24292d6b5fd6945ff9c04a4f08]
link UniqueItemList to Item--><g id="link_UniqueItemList_Item"><path codeLine="25" d="M308.18,28 C318.03,28 327.88,28 337.72,28 " fill="none" id="UniqueItemList-to-Item" style="stroke:#9D0012;stroke-width:1.1;"/><polygon fill="#9D0012" points="342.87,28,333.87,24,337.87,28,333.87,32,342.87,28" style="stroke:#9D0012;stroke-width:1.1;"/><text fill="#000000" font-family="sans-serif" font-size="13" lengthAdjust="spacing" textLength="5" x="329.9666" y="23.762">*</text></g><!--MD5=[089d5f13e08a1ea034356ea8ddaf0f26]
link TaskList to UniqueTaskList--><g id="link_TaskList_UniqueTaskList"><path codeLine="27" d="M144.18,122 C144.18,122 168.09,122 179.42,122 " fill="none" id="TaskList-UniqueTaskList" style="stroke:#9D0012;stroke-width:1.1;"/><polygon fill="#9D0012" points="192.73,122,183.73,118,187.73,122,183.73,126,192.73,122" style="stroke:#9D0012;stroke-width:1.1;"/><line style="stroke:#9D0012;stroke-width:1.1;" x1="187.73" x2="179.73" y1="122" y2="122"/><polygon fill="#9D0012" points="132.18,122,138.18,126,144.18,122,138.18,118,132.18,122" style="stroke:#9D0012;stroke-width:1.1;"/><text fill="#000000" font-family="sans-serif" font-size="13" lengthAdjust="spacing" textLength="7" x="174.0343" y="118.4371">1</text></g><!--MD5=[c5cd6db58ce454a0eebfbb460c781f70]
link UniqueTaskList to Task--><g id="link_UniqueTaskList_Task"><path codeLine="28" d="M296.45,122 C309.65,122 322.86,122 336.06,122 " fill="none" id="UniqueTaskList-to-Task" style="stroke:#9D0012;stroke-width:1.1;"/><polygon fill="#9D0012" points="341.32,122,332.32,118,336.32,122,332.32,126,341.32,122" style="stroke:#9D0012;stroke-width:1.1;"/><text fill="#000000" font-family="sans-serif" font-size="13" lengthAdjust="spacing" textLength="5" x="328.535" y="117.2807">*</text></g><!--MD5=[550af48e5ae98225f600f8d903c1e369]
link Task to TaskName--><g id="link_Task_TaskName"><path codeLine="29" d="M352.0551,145.085 C352.0551,145.085 334.37,172.06 326.67,183.83 " fill="none" id="Task-TaskName" style="stroke:#9D0012;stroke-width:1.1;"/><polygon fill="#9D0012" points="319.37,194.99,327.6452,189.6495,322.1079,190.8062,320.9512,185.2689,319.37,194.99" style="stroke:#9D0012;stroke-width:1.1;"/><line style="stroke:#9D0012;stroke-width:1.1;" x1="322.1079" x2="326.485" y1="190.8062" y2="184.11"/><polygon fill="#9D0012" points="358.62,135.04,351.9892,137.8742,352.0551,145.085,358.6859,142.2508,358.62,135.04" style="stroke:#9D0012;stroke-width:1.1;"/><text fill="#000000" font-family="sans-serif" font-size="13" lengthAdjust="spacing" textLength="7" x="314.0907" y="184.2622">1</text></g><!--MD5=[f5aeb8700a5faf75bd8a4f726f95a914]
link Task to TaskDeadline--><g id="link_Task_TaskDeadline"><path codeLine="30" d="M402.3862,140.2371 C402.3862,140.2371 474.72,174.95 504.5,189.24 " fill="none" id="Task-TaskDeadline" style="stroke:#9D0012;stroke-width:1.1;"/><polygon fill="#9D0012" points="516.47,194.99,510.0902,187.4868,511.9632,192.8246,506.6255,194.6976,516.47,194.99" style="stroke:#9D0012;stroke-width:1.1;"/><line style="stroke:#9D0012;stroke-width:1.1;" x1="511.9632" x2="504.75" y1="192.8246" y2="189.36"/><polygon fill="#9D0012" points="391.57,135.04,395.2458,141.2439,402.3862,140.2371,398.7105,134.0331,391.57,135.04" style="stroke:#9D0012;stroke-width:1.1;"/><text fill="#000000" font-family="sans-serif" font-size="13" lengthAdjust="spacing" textLength="7" x="502.9353" y="184.0613">1</text></g><!--MD5=[e7470f68175942cba5d83e095e35829d]
link Task to TaskStatus--><g id="link_Task_TaskStatus"><path codeLine="31" d="M380.9449,145.085 C380.9449,145.085 398.63,172.06 406.33,183.83 " fill="none" id="Task-TaskStatus" style="stroke:#9D0012;stroke-width:1.1;"/><polygon fill="#9D0012" points="413.63,194.99,412.0488,185.2689,410.8921,190.8062,405.3548,189.6495,413.63,194.99" style="stroke:#9D0012;stroke-width:1.1;"/><line style="stroke:#9D0012;stroke-width:1.1;" x1="410.8921" x2="406.515" y1="190.8062" y2="184.11"/><polygon fill="#9D0012" points="374.38,135.04,374.3141,142.2508,380.9449,145.085,381.0108,137.8742,374.38,135.04" style="stroke:#9D0012;stroke-width:1.1;"/><text fill="#000000" font-family="sans-serif" font-size="13" lengthAdjust="spacing" textLength="7" x="397.3656" y="184.2622">1</text></g><!--MD5=[0089e16a4d94df37c8ada2207a2d81d2]
link Task to LocalDateTime--><g id="link_Task_LocalDateTime"><path codeLine="32" d="M330.3035,140.1946 C330.3035,140.1946 257.04,174.95 226.92,189.24 " fill="none" id="Task-LocalDateTime" style="stroke:#9D0012;stroke-width:1.1;"/><polygon fill="#9D0012" points="214.81,194.99,224.6558,194.746,219.3273,192.8467,221.2266,187.5182,214.81,194.99" style="stroke:#9D0012;stroke-width:1.1;"/><line style="stroke:#9D0012;stroke-width:1.1;" x1="219.3273" x2="226.56" y1="192.8467" y2="189.41"/><polygon fill="#9D0012" points="341.14,135.04,334.0035,134.0051,330.3035,140.1946,337.4399,141.2295,341.14,135.04" style="stroke:#9D0012;stroke-width:1.1;"/><text fill="#000000" font-family="sans-serif" font-size="13" lengthAdjust="spacing" textLength="73" x="137.4039" y="184.2622">timeAdded 1</text></g><!--MD5=[d716af0bb16c5d8d17310f6d7d9ed31b]
reverse link Item to Task--><g id="link_Item_Task"><path codeLine="33" d="M372.1,69.46 C370.55,83.73 368.92,98.71 367.82,108.82 " fill="none" id="Item-backto-Task" style="stroke:#9D0012;stroke-width:1.1;"/><polygon fill="none" points="365.16,68.54,374.28,49.42,379.08,70.06,365.16,68.54" style="stroke:#9D0012;stroke-width:1.1;"/></g><!--MD5=[c87c46b74994448f8cb86bd7c8db957a]
link TaskName to Name--><g id="link_TaskName_Name"><path codeLine="35" d="M311.5,221.03 C311.5,231.18 311.5,246.32 311.5,260.7 " fill="none" id="TaskName-to-Name" style="stroke:#9D0012;stroke-width:1.1;"/><polygon fill="none" points="318.5,260.88,311.5,280.88,304.5,260.88,318.5,260.88" style="stroke:#9D0012;stroke-width:1.1;"/></g><!--MD5=[fb5085bca9d9a34e0bede80da882c548]
link TaskDeadline to Deadline--><g id="link_TaskDeadline_Deadline"><path codeLine="36" d="M541.5,221.03 C541.5,231.18 541.5,246.32 541.5,260.7 " fill="none" id="TaskDeadline-to-Deadline" style="stroke:#9D0012;stroke-width:1.1;"/><polygon fill="none" points="548.5,260.88,541.5,280.88,534.5,260.88,548.5,260.88" style="stroke:#9D0012;stroke-width:1.1;"/></g><!--MD5=[79643553a087d0cd8bb61bffc090d809]
link TaskStatus to Status--><g id="link_TaskStatus_Status"><path codeLine="37" d="M421.5,221.03 C421.5,231.18 421.5,246.32 421.5,260.7 " fill="none" id="TaskStatus-to-Status" style="stroke:#9D0012;stroke-width:1.1;"/><polygon fill="none" points="428.5,260.88,421.5,280.88,414.5,260.88,428.5,260.88" style="stroke:#9D0012;stroke-width:1.1;"/></g><!--MD5=[24f7db9ee1064f346bd8239ad48ea73f]
@startuml
!include style.puml
skinparam arrowThickness 1.1
skinparam arrowColor MODEL_COLOR
skinparam classBackgroundColor MODEL_COLOR
skinparam groupInheritance 1

top to bottom direction

Abstract Class "{abstract}\nItem" as Item
Abstract Class "{abstract}\nName" as Name
Abstract Class "{abstract}\nDeadline" as Deadline
Abstract Class "{abstract}\nStatus" as Status
Class "UniqueItemList<T> " as UniqueItemList
Class ItemList<T extends Item>

Class LocalDateTime
Class Task
Class TaskName
Class TaskStatus
Class TaskDeadline
Class TaskList extends ItemList
Class UniqueTaskList extends UniqueItemList

ItemList *- -r> "1" UniqueItemList
UniqueItemList -r> "*" Item

TaskList *- -r> "1 " UniqueTaskList
UniqueTaskList -r> "*" Task
Task *- -> "1" TaskName
Task *- -> "            1" TaskDeadline
Task *- -> "1 " TaskStatus
Task *- -> "timeAdded 1" LocalDateTime
Task -u|> Item

TaskName - -|> Name
TaskDeadline - -|> Deadline
TaskStatus - -|> Status

@enduml

@startuml









skinparam BackgroundColor #FFFFFFF

skinparam Shadowing false

skinparam Class {
    FontColor #FFFFFF
    BorderThickness 0
    FontName Arial
}

skinparam Actor {
    BorderColor #000000
    Color #000000
    FontName Arial
}

skinparam Sequence {
    MessageAlign center
    BoxFontSize 15
    BoxPadding 0
    BoxFontColor #FFFFFF
    FontName Arial
}

skinparam Participant {
    FontColor #FFFFFFF
    Padding 20
}

skinparam MinClassWidth 50
skinparam ParticipantPadding 10
skinparam Shadowing false
skinparam DefaultTextAlignment center
skinparam packageStyle Rectangle

hide footbox
hide members
hide circle
skinparam arrowThickness 1.1
skinparam arrowColor #9D0012
skinparam classBackgroundColor #9D0012
skinparam groupInheritance 1

top to bottom direction

Abstract Class "{abstract}\nItem" as Item
Abstract Class "{abstract}\nName" as Name
Abstract Class "{abstract}\nDeadline" as Deadline
Abstract Class "{abstract}\nStatus" as Status
Class "UniqueItemList<T> " as UniqueItemList
Class ItemList<T extends Item>

Class LocalDateTime
Class Task
Class TaskName
Class TaskStatus
Class TaskDeadline
Class TaskList extends ItemList
Class UniqueTaskList extends UniqueItemList

ItemList *- -r> "1" UniqueItemList
UniqueItemList -r> "*" Item

TaskList *- -r> "1 " UniqueTaskList
UniqueTaskList -r> "*" Task
Task *- -> "1" TaskName
Task *- -> "            1" TaskDeadline
Task *- -> "1 " TaskStatus
Task *- -> "timeAdded 1" LocalDateTime
Task -u|> Item

TaskName - -|> Name
TaskDeadline - -|> Deadline
TaskStatus - -|> Status

@enduml

PlantUML version 1.2022.12(Mon Oct 24 02:12:26 SGT 2022)
(GPL source distribution)
Java Runtime: OpenJDK Runtime Environment
JVM: OpenJDK 64-Bit Server VM
Default Encoding: Cp1252
Language: en
Country: SG
--></g></svg>
