<?xml version="1.0" encoding="us-ascii" standalone="no"?><svg xmlns="http://www.w3.org/2000/svg" xmlns:xlink="http://www.w3.org/1999/xlink" contentStyleType="text/css" height="640px" preserveAspectRatio="none" style="width:954px;height:640px;background:#FFFFFF;" version="1.1" viewBox="0 0 954 640" width="954px" zoomAndPan="magnify"><defs/><g><!--cluster UI--><g id="cluster_UI"><rect fill="#83E769" height="576" rx="2.5" ry="2.5" style="stroke:#181818;stroke-width:1.0;" width="661" x="7" y="58"/><text fill="#000000" font-family="sans-serif" font-size="14" font-weight="bold" lengthAdjust="spacing" textLength="15" x="330" y="73.5352">UI</text></g><!--cluster Model--><g id="cluster_Model"><rect fill="#F97181" height="93" rx="2.5" ry="2.5" style="stroke:#181818;stroke-width:1.0;" width="201" x="700" y="541"/><text fill="#000000" font-family="sans-serif" font-size="14" font-weight="bold" lengthAdjust="spacing" textLength="44" x="778.5" y="556.5352">Model</text></g><!--cluster Logic--><g id="cluster_Logic"><rect fill="#C8C8FA" height="93" rx="2.5" ry="2.5" style="stroke:#181818;stroke-width:1.0;" width="201" x="700" y="159"/><text fill="#000000" font-family="sans-serif" font-size="14" font-weight="bold" lengthAdjust="spacing" textLength="38" x="781.5" y="174.5352">Logic</text></g><!--class Ui--><g id="elem_Ui"><rect codeLine="7" fill="#1D8900" height="42.1973" id="Ui" rx="2.5" ry="2.5" style="stroke:#181818;stroke-width:0.0;" width="77" x="430.5" y="93"/><text fill="#FFFFFF" font-family="Arial" font-size="14" lengthAdjust="spacing" textLength="71" x="433.5" y="111.1318">&#171;interface&#187;</text><text fill="#FFFFFF" font-family="Arial" font-size="14" lengthAdjust="spacing" textLength="13" x="462.5" y="127.2305">Ui</text></g><!--class UiPart--><g id="elem_UiPart"><rect codeLine="8" fill="#1D8900" height="42.1973" id="UiPart" rx="2.5" ry="2.5" style="stroke:#181818;stroke-width:0.0;" width="67" x="362.5" y="576"/><text fill="#FFFFFF" font-family="Arial" font-size="14" lengthAdjust="spacing" textLength="61" x="365.5" y="594.1318">{abstract}</text><text fill="#FFFFFF" font-family="Arial" font-size="14" lengthAdjust="spacing" textLength="39" x="376.5" y="610.2305">UiPart</text></g><!--class UiManager--><g id="elem_UiManager"><rect codeLine="9" fill="#1D8900" height="26.0986" id="UiManager" rx="2.5" ry="2.5" style="stroke:#181818;stroke-width:0.0;" width="76" x="543" y="101"/><text fill="#FFFFFF" font-family="Arial" font-size="14" lengthAdjust="spacing" textLength="70" x="546" y="119.1318">UiManager</text></g><!--class MainWindow--><g id="elem_MainWindow"><rect codeLine="10" fill="#1D8900" height="26.0986" id="MainWindow" rx="2.5" ry="2.5" style="stroke:#181818;stroke-width:0.0;" width="87" x="504.5" y="202"/><text fill="#FFFFFF" font-family="Arial" font-size="14" lengthAdjust="spacing" textLength="81" x="507.5" y="220.1318">MainWindow</text></g><!--class HelpWindow--><g id="elem_HelpWindow"><rect codeLine="11" fill="#1D8900" height="26.0986" id="HelpWindow" rx="2.5" ry="2.5" style="stroke:#181818;stroke-width:0.0;" width="85" x="23.5" y="288"/><text fill="#FFFFFF" font-family="Arial" font-size="14" lengthAdjust="spacing" textLength="79" x="26.5" y="306.1318">HelpWindow</text></g><!--class ResultDisplay--><g id="elem_ResultDisplay"><rect codeLine="12" fill="#1D8900" height="26.0986" id="ResultDisplay" rx="2.5" ry="2.5" style="stroke:#181818;stroke-width:0.0;" width="92" x="289" y="288"/><text fill="#FFFFFF" font-family="Arial" font-size="14" lengthAdjust="spacing" textLength="86" x="292" y="306.1318">ResultDisplay</text></g><!--class TabPanel--><g id="elem_TabPanel"><rect codeLine="13" fill="#1D8900" height="26.0986" id="TabPanel" rx="2.5" ry="2.5" style="stroke:#181818;stroke-width:0.0;" width="67" x="584.5" y="288"/><text fill="#FFFFFF" font-family="Arial" font-size="14" lengthAdjust="spacing" textLength="61" x="587.5" y="306.1318">TabPanel</text></g><!--class XYZListPanel--><g id="elem_XYZListPanel"><rect codeLine="14" fill="#1D8900" height="26.0986" id="XYZListPanel" rx="2.5" ry="2.5" style="stroke:#181818;stroke-width:0.0;" width="91" x="560.5" y="381.5"/><text fill="#FFFFFF" font-family="Arial" font-size="14" lengthAdjust="spacing" textLength="85" x="563.5" y="399.6318">XYZListPanel</text></g><!--class XYZCard--><g id="elem_XYZCard"><rect codeLine="15" fill="#1D8900" height="26.0986" id="XYZCard" rx="2.5" ry="2.5" style="stroke:#181818;stroke-width:0.0;" width="64" x="579" y="482.5"/><text fill="#FFFFFF" font-family="Arial" font-size="14" lengthAdjust="spacing" textLength="58" x="582" y="500.6318">XYZCard</text></g><!--class HomeView--><g id="elem_HomeView"><rect codeLine="16" fill="#1D8900" height="26.0986" id="HomeView" rx="2.5" ry="2.5" style="stroke:#181818;stroke-width:0.0;" width="74" x="451" y="381.5"/><text fill="#FFFFFF" font-family="Arial" font-size="14" lengthAdjust="spacing" textLength="68" x="454" y="399.6318">HomeView</text></g><!--class FinanceCard--><g id="elem_FinanceCard"><rect codeLine="17" fill="#1D8900" height="26.0986" id="FinanceCard" rx="2.5" ry="2.5" style="stroke:#181818;stroke-width:0.0;" width="88" x="451" y="482.5"/><text fill="#FFFFFF" font-family="Arial" font-size="14" lengthAdjust="spacing" textLength="82" x="454" y="500.6318">FinanceCard</text></g><!--class StatusBarFooter--><g id="elem_StatusBarFooter"><rect codeLine="18" fill="#1D8900" height="26.0986" id="StatusBarFooter" rx="2.5" ry="2.5" style="stroke:#181818;stroke-width:0.0;" width="110" x="144" y="288"/><text fill="#FFFFFF" font-family="Arial" font-size="14" lengthAdjust="spacing" textLength="104" x="147" y="306.1318">StatusBarFooter</text></g><!--class CommandBox--><g id="elem_CommandBox"><rect codeLine="19" fill="#1D8900" height="26.0986" id="CommandBox" rx="2.5" ry="2.5" style="stroke:#181818;stroke-width:0.0;" width="96" x="416" y="288"/><text fill="#FFFFFF" font-family="Arial" font-size="14" lengthAdjust="spacing" textLength="90" x="419" y="306.1318">CommandBox</text></g><!--class HiddenModel--><g id="elem_HiddenModel"><rect codeLine="23" fill="#F97181" height="26.0986" id="HiddenModel" rx="2.5" ry="2.5" style="stroke:#181818;stroke-width:0.0;" width="134" x="743" y="584"/><text fill="#FFFFFF" font-family="Arial" font-size="14" lengthAdjust="spacing" textLength="128" x="746" y="602.1318">&#160;&#160;&#160;&#160;&#160;&#160;&#160;&#160;&#160;&#160;&#160;&#160;&#160;&#160;&#160;&#160;&#160;&#160;&#160;&#160;&#160;&#160;&#160;&#160;&#160;&#160;&#160;&#160;&#160;&#160;&#160;&#160;</text></g><!--class HiddenLogic--><g id="elem_HiddenLogic"><rect codeLine="27" fill="#C8C8FA" height="26.0986" id="HiddenLogic" rx="2.5" ry="2.5" style="stroke:#181818;stroke-width:0.0;" width="134" x="743" y="202"/><text fill="#FFFFFF" font-family="Arial" font-size="14" lengthAdjust="spacing" textLength="128" x="746" y="220.1318">&#160;&#160;&#160;&#160;&#160;&#160;&#160;&#160;&#160;&#160;&#160;&#160;&#160;&#160;&#160;&#160;&#160;&#160;&#160;&#160;&#160;&#160;&#160;&#160;&#160;&#160;&#160;&#160;&#160;&#160;&#160;&#160;</text></g><!--class HiddenOutside--><g id="elem_HiddenOutside"><rect codeLine="30" fill="#FFFFFF" height="26.0986" id="HiddenOutside" rx="2.5" ry="2.5" style="stroke:#181818;stroke-width:0.0;" width="100" x="419" y="7"/><text fill="#FFFFFF" font-family="Arial" font-size="14" lengthAdjust="spacing" textLength="94" x="422" y="25.1318">HiddenOutside</text></g><g id="elem_GMN49"><path d="M686.5,374 L686.5,390.5 L651.74,394.5 L686.5,398.5 L686.5,414.6211 A0,0 0 0 0 686.5,414.6211 L947.5,414.6211 A0,0 0 0 0 947.5,414.6211 L947.5,384 L937.5,374 L686.5,374 A0,0 0 0 0 686.5,374 " fill="#FEFFDD" style="stroke:#181818;stroke-width:0.5;"/><path d="M937.5,374 L937.5,384 L947.5,384 L937.5,374 " fill="#FEFFDD" style="stroke:#181818;stroke-width:0.5;"/><text fill="#000000" font-family="sans-serif" font-size="13" lengthAdjust="spacing" textLength="184" x="718.5" y="391.5684">XYZListPanel = TaskListView,</text><text fill="#000000" font-family="sans-serif" font-size="13" lengthAdjust="spacing" textLength="236" x="696.5" y="406.8789">OrderListView, MenuItemListView etc.</text></g><g id="elem_GMN52"><path d="M684.5,475 L684.5,491.5 L643.12,495.5 L684.5,499.5 L684.5,515.6211 A0,0 0 0 0 684.5,515.6211 L915.5,515.6211 A0,0 0 0 0 915.5,515.6211 L915.5,485 L905.5,475 L684.5,475 A0,0 0 0 0 684.5,475 " fill="#FEFFDD" style="stroke:#181818;stroke-width:0.5;"/><path d="M905.5,475 L905.5,485 L915.5,485 L905.5,475 " fill="#FEFFDD" style="stroke:#181818;stroke-width:0.5;"/><text fill="#000000" font-family="sans-serif" font-size="13" lengthAdjust="spacing" textLength="206" x="690.5" y="492.5684">XYZCard = TaskCard, OrderCard,</text><text fill="#000000" font-family="sans-serif" font-size="13" lengthAdjust="spacing" textLength="118" x="738.5" y="507.8789">MenuItemCard etc.</text></g><!--link HiddenOutside to Ui--><g id="link_HiddenOutside_Ui"><path codeLine="31" d="M469,33.03 C469,46.8 469,69.75 469,87.54 " fill="none" id="HiddenOutside-to-Ui" style="stroke:#0E4100;stroke-width:1.1;stroke-dasharray:7.0,7.0;"/><polygon fill="#0E4100" points="469,92.88,473,83.88,469,87.88,465,83.88,469,92.88" style="stroke:#0E4100;stroke-width:1.1;"/></g><!--reverse link Ui to UiManager--><g id="link_Ui_UiManager"><path codeLine="33" d="M528.07,114 C532.96,114 537.86,114 542.76,114 " fill="none" id="Ui-backto-UiManager" style="stroke:#0E4100;stroke-width:1.1;stroke-dasharray:7.0,7.0;"/><polygon fill="none" points="527.94,121,507.94,114,527.94,107,527.94,121" style="stroke:#0E4100;stroke-width:1.1;"/></g><!--link UiManager to MainWindow--><g id="link_UiManager_MainWindow"><path codeLine="34" d="M576.95,127.14 C571.11,144.66 560.3,177.09 553.67,196.99 " fill="none" id="UiManager-to-MainWindow" style="stroke:#0E4100;stroke-width:1.1;"/><polygon fill="#0E4100" points="552.08,201.76,558.7274,194.4928,553.6654,197.018,551.1402,191.9561,552.08,201.76" style="stroke:#0E4100;stroke-width:1.1;"/><text fill="#000000" font-family="sans-serif" font-size="13" lengthAdjust="spacing" textLength="8" x="544.1115" y="191.2037">1</text></g><!--link MainWindow to CommandBox--><g id="link_MainWindow_CommandBox"><path codeLine="35" d="M526.33,237.67 C513.69,250.31 497.82,266.18 485.26,278.74 " fill="none" id="MainWindow-CommandBox" style="stroke:#0E4100;stroke-width:1.1;"/><polygon fill="#0E4100" points="535.96,228.04,528.8889,229.4542,527.4747,236.5253,534.5458,235.1111,535.96,228.04" style="stroke:#0E4100;stroke-width:1.1;"/><polygon fill="#0E4100" points="476.01,287.99,485.2024,284.4545,479.5455,284.4545,479.5455,278.7976,476.01,287.99" style="stroke:#0E4100;stroke-width:1.1;"/><line style="stroke:#0E4100;stroke-width:1.1;" x1="479.5455" x2="485.205" y1="284.4545" y2="278.795"/><text fill="#000000" font-family="sans-serif" font-size="13" lengthAdjust="spacing" textLength="8" x="471.3141" y="277.1417">1</text></g><!--link MainWindow to ResultDisplay--><g id="link_MainWindow_ResultDisplay"><path codeLine="36" d="M505.34,232.82 C468.3,247.43 414.94,268.47 377.85,283.1 " fill="none" id="MainWindow-ResultDisplay" style="stroke:#0E4100;stroke-width:1.1;"/><polygon fill="#0E4100" points="517.48,228.04,510.4309,226.5199,506.3166,232.4421,513.3657,233.9622,517.48,228.04" style="stroke:#0E4100;stroke-width:1.1;"/><polygon fill="#0E4100" points="365.46,287.99,375.2997,288.4157,370.1126,286.1587,372.3695,280.9716,365.46,287.99" style="stroke:#0E4100;stroke-width:1.1;"/><line style="stroke:#0E4100;stroke-width:1.1;" x1="370.1126" x2="377.555" y1="286.1587" y2="283.22"/><text fill="#000000" font-family="sans-serif" font-size="13" lengthAdjust="spacing" textLength="8" x="368.3747" y="277.1417">1</text></g><!--link MainWindow to TabPanel--><g id="link_MainWindow_TabPanel"><path codeLine="37" d="M566.44,238.13 C576.62,250.35 589.24,265.48 599.44,277.72 " fill="none" id="MainWindow-TabPanel" style="stroke:#0E4100;stroke-width:1.1;"/><polygon fill="#0E4100" points="558.03,228.04,558.7952,235.2104,565.7083,237.2619,564.9431,230.0915,558.03,228.04" style="stroke:#0E4100;stroke-width:1.1;"/><polygon fill="#0E4100" points="607.99,287.99,605.3052,278.5141,604.7907,284.1475,599.1573,283.633,607.99,287.99" style="stroke:#0E4100;stroke-width:1.1;"/><line style="stroke:#0E4100;stroke-width:1.1;" x1="604.7907" x2="599.665" y1="284.1475" y2="278"/><text fill="#000000" font-family="sans-serif" font-size="13" lengthAdjust="spacing" textLength="8" x="594.2109" y="277.1417">1</text></g><!--link MainWindow to StatusBarFooter--><g id="link_MainWindow_StatusBarFooter"><path codeLine="38" d="M491.31,229.64 C428.39,244.79 327.11,269.16 261.82,284.88 " fill="none" id="MainWindow-StatusBarFooter" style="stroke:#0E4100;stroke-width:1.1;"/><polygon fill="#0E4100" points="504.15,226.55,497.3806,224.065,492.4831,229.358,499.2526,231.8429,504.15,226.55" style="stroke:#0E4100;stroke-width:1.1;"/><polygon fill="#0E4100" points="248.86,288,258.5461,289.783,253.7212,286.83,256.6742,282.0051,248.86,288" style="stroke:#0E4100;stroke-width:1.1;"/><line style="stroke:#0E4100;stroke-width:1.1;" x1="253.7212" x2="261.495" y1="286.83" y2="284.955"/><text fill="#000000" font-family="sans-serif" font-size="13" lengthAdjust="spacing" textLength="8" x="259.7773" y="277.1558">1</text></g><!--link MainWindow to HelpWindow--><g id="link_MainWindow_HelpWindow"><path codeLine="39" d="M504.3,223.11 C427.75,235.64 264.47,262.73 127,288 C122.63,288.8 118.1,289.66 113.56,290.53 " fill="none" id="MainWindow-to-HelpWindow" style="stroke:#0E4100;stroke-width:1.1;"/><polygon fill="#0E4100" points="108.64,291.47,118.2387,293.6756,113.5478,290.5141,116.7093,285.8232,108.64,291.47" style="stroke:#0E4100;stroke-width:1.1;"/><text fill="#000000" font-family="sans-serif" font-size="13" lengthAdjust="spacing" textLength="24" x="111.9396" y="285.2485">0..1</text></g><!--link TabPanel to HomeView--><g id="link_TabPanel_HomeView"><path codeLine="41" d="M600.74,314.15 C577.23,330.69 535.17,360.3 509.6,378.3 " fill="none" id="TabPanel-to-HomeView" style="stroke:#0E4100;stroke-width:1.1;"/><polygon fill="#0E4100" points="505.33,381.3,514.9934,379.3976,509.4208,378.425,510.3934,372.8524,505.33,381.3" style="stroke:#0E4100;stroke-width:1.1;"/><text fill="#000000" font-family="sans-serif" font-size="13" lengthAdjust="spacing" textLength="8" x="502.5787" y="370.7595">1</text></g><!--link TabPanel to XYZListPanel--><g id="link_TabPanel_XYZListPanel"><path codeLine="42" d="M616.38,314.34 C614.29,330.25 610.65,358.03 608.28,376.09 " fill="none" id="TabPanel-to-XYZListPanel" style="stroke:#0E4100;stroke-width:1.1;"/><polygon fill="#0E4100" points="607.59,381.36,612.738,372.9637,608.2471,376.4034,604.8074,371.9124,607.59,381.36" style="stroke:#0E4100;stroke-width:1.1;"/><text fill="#000000" font-family="sans-serif" font-size="13" lengthAdjust="spacing" textLength="6" x="601.0348" y="370.8431">*</text></g><!--link XYZListPanel to XYZCard--><g id="link_XYZListPanel_XYZCard"><path codeLine="44" d="M606.61,407.64 C607.49,425.08 609.12,457.32 610.13,477.24 " fill="none" id="XYZListPanel-to-XYZCard" style="stroke:#0E4100;stroke-width:1.1;"/><polygon fill="#0E4100" points="610.38,482.26,613.9125,473.0664,610.1232,477.2666,605.923,473.4773,610.38,482.26" style="stroke:#0E4100;stroke-width:1.1;"/><text fill="#000000" font-family="sans-serif" font-size="13" lengthAdjust="spacing" textLength="6" x="602.9546" y="471.7037">*</text></g><!--link HomeView to XYZListPanel--><g id="link_HomeView_XYZListPanel"><path codeLine="46" d="M525.34,402.94 C535.26,404.14 545.19,404.52 555.12,404.07 " fill="none" id="HomeView-to-XYZListPanel" style="stroke:#0E4100;stroke-width:1.1;"/><polygon fill="#0E4100" points="560.31,403.75,551.086,400.2978,555.319,404.0503,551.5665,408.2833,560.31,403.75" style="stroke:#0E4100;stroke-width:1.1;"/><text fill="#000000" font-family="sans-serif" font-size="13" lengthAdjust="spacing" textLength="6" x="546.55" y="401.6142">*</text></g><!--link HomeView to XYZListPanel--><!--link HomeView to FinanceCard--><g id="link_HomeView_FinanceCard"><path codeLine="47" d="M488.86,407.64 C490.09,425.08 492.37,457.32 493.78,477.24 " fill="none" id="HomeView-to-FinanceCard" style="stroke:#0E4100;stroke-width:1.1;"/><polygon fill="#0E4100" points="494.13,482.26,497.4767,472.9972,493.7727,477.2728,489.4972,473.5688,494.13,482.26" style="stroke:#0E4100;stroke-width:1.1;"/><text fill="#000000" font-family="sans-serif" font-size="13" lengthAdjust="spacing" textLength="8" x="484.2124" y="471.7037">1</text></g><!--link ResultDisplay to UiPart--><g id="link_ResultDisplay_UiPart"><path codeLine="49" d="M336.21,314.21 C339.64,347.14 350.37,440.39 369,516 C372.32,529.47 376.88,543.92 381.3,556.78 " fill="none" id="ResultDisplay-to-UiPart" style="stroke:#0E4100;stroke-width:1.1;"/><polygon fill="none" points="387.99,554.7,388.16,575.89,374.82,559.44,387.99,554.7" style="stroke:#0E4100;stroke-width:1.1;"/></g><!--link CommandBox to UiPart--><g id="link_CommandBox_UiPart"><path codeLine="50" d="M450,314.16 C435.98,327.31 415.2,349.68 406,374 C383.24,434.18 385.89,510.16 390.5,555.82 " fill="none" id="CommandBox-to-UiPart" style="stroke:#0E4100;stroke-width:1.1;"/><polygon fill="none" points="397.48,555.19,392.86,575.87,383.57,556.83,397.48,555.19" style="stroke:#0E4100;stroke-width:1.1;"/></g><!--link StatusBarFooter to UiPart--><g id="link_StatusBarFooter_UiPart"><path codeLine="51" d="M207.21,314.26 C235.1,355.88 326.9,492.88 371.39,559.28 " fill="none" id="StatusBarFooter-to-UiPart" style="stroke:#0E4100;stroke-width:1.1;"/><polygon fill="none" points="377.28,555.49,382.6,576,365.65,563.28,377.28,555.49" style="stroke:#0E4100;stroke-width:1.1;"/></g><!--link HelpWindow to UiPart--><g id="link_HelpWindow_UiPart"><path codeLine="52" d="M79.76,314.26 C127.28,356.59 285.54,497.59 358.54,562.62 " fill="none" id="HelpWindow-to-UiPart" style="stroke:#0E4100;stroke-width:1.1;"/><polygon fill="none" points="363.27,557.47,373.55,576,353.96,567.92,363.27,557.47" style="stroke:#0E4100;stroke-width:1.1;"/></g><!--link XYZCard to UiPart--><g id="link_XYZCard_UiPart"><path codeLine="53" d="M585.07,508.5 C551.29,524.14 491.44,551.83 448.11,571.89 " fill="none" id="XYZCard-to-UiPart" style="stroke:#0E4100;stroke-width:1.1;"/><polygon fill="none" points="450.89,578.31,429.8,580.36,445.01,565.6,450.89,578.31" style="stroke:#0E4100;stroke-width:1.1;"/></g><!--link FinanceCard to UiPart--><g id="link_FinanceCard_UiPart"><path codeLine="54" d="M482.86,508.7 C469.87,521.76 448.68,543.06 430.48,561.35 " fill="none" id="FinanceCard-to-UiPart" style="stroke:#0E4100;stroke-width:1.1;"/><polygon fill="none" points="435.21,566.52,416.14,575.76,425.28,556.64,435.21,566.52" style="stroke:#0E4100;stroke-width:1.1;"/></g><!--reverse link UiPart to MainWindow--><g id="link_UiPart_MainWindow"><path codeLine="55" d="M410.68,556.32 C421.61,500.73 432.43,403.17 452,374 C480.03,332.22 519.72,355.61 548,314 C566.09,287.39 567.39,247.71 559.85,228.01 " fill="none" id="UiPart-backto-MainWindow" style="stroke:#0E4100;stroke-width:1.1;"/><polygon fill="none" points="417.48,557.99,406.3,575.99,403.82,554.94,417.48,557.99" style="stroke:#0E4100;stroke-width:1.1;"/></g><!--link MainWindow to UiPart--><!--link XYZCard to Model--><g id="link_XYZCard_Model"><path codeLine="57" d="M643.02,508.39 C651.8,512.7 660.87,518.21 668,525 C680.71,537.095 690.4925,554.13 697.2013,568.4825 C698.0398,570.2766 698.8304,572.0287 699.5727,573.7241 C699.6654,573.936 699.7575,574.147 699.8487,574.3571 C699.8944,574.4622 699.9398,574.567 699.9851,574.6716 " fill="none" id="XYZCard-to-Model" style="stroke:#0E4100;stroke-width:1.1;stroke-dasharray:7.0,7.0;"/><polygon fill="#0E4100" points="699.9851,574.6716,700.0821,564.8232,697.9995,570.0828,692.74,568.0001,699.9851,574.6716" style="stroke:#0E4100;stroke-width:1.1;"/></g><!--link FinanceCard to Model--><g id="link_FinanceCard_Model"><path codeLine="58" d="M531.54,508.56 C541.34,511.4 552,514.14 562,516 C585.24,520.32 648.11,512.22 668,525 C682.76,534.485 692.605,551.44 698.8338,566.4025 C699.223,567.3377 699.5982,568.265 699.9596,569.1823 " fill="none" id="FinanceCard-to-Model" style="stroke:#0E4100;stroke-width:1.1;stroke-dasharray:7.0,7.0;"/><polygon fill="#0E4100" points="699.9596,569.1823,700.3824,559.3425,698.1269,564.5303,692.9392,562.2748,699.9596,569.1823" style="stroke:#0E4100;stroke-width:1.1;"/></g><!--link UiManager to Logic--><g id="link_UiManager_Logic"><path codeLine="60" d="M619.11,120.84 C635.53,124.88 654.11,131.66 668,143 C681.59,154.095 691.4,171.1 697.9025,185.6862 C698.3089,186.5979 698.7024,187.5001 699.0831,188.3908 C699.2734,188.8361 699.4606,189.2786 699.6445,189.718 C699.7365,189.9377 699.8277,190.1566 699.918,190.3747 " fill="none" id="UiManager-to-Logic" style="stroke:#0E4100;stroke-width:1.1;"/><polygon fill="#0E4100" points="699.918,190.3747,700.1675,180.529,698.0037,185.7556,692.777,183.5919,699.918,190.3747" style="stroke:#0E4100;stroke-width:1.1;"/></g><!--reverse link Logic to MainWindow--><g id="link_Logic_MainWindow"><path codeLine="61" d="M699.8602,215 C699.7094,215 699.5586,215 699.4078,215 C699.1063,215 698.8047,215 698.5031,215 C697.9,215 697.2969,215 696.6937,215 C695.4875,215 694.2813,215 693.075,215 C688.25,215 683.425,215 678.6,215 C668.95,215 659.3,215 649.65,215 C630.35,215 611.05,215 591.75,215 " fill="none" id="Logic-backto-MainWindow" style="stroke:#0E4100;stroke-width:1.1;"/><polygon fill="#0E4100" points="699.8602,215,690.8602,211,694.8602,215,690.8602,219,699.8602,215" style="stroke:#0E4100;stroke-width:1.1;"/></g><!--link CommandBox to TabPanel--><!--link ResultDisplay to CommandBox--><!--link StatusBarFooter to ResultDisplay--><!--link HelpWindow to StatusBarFooter--><!--SRC=[fLFBRjim4BppArZt5iH23VGKk3v4gHi3DXIuTXz9Ye2HQ9imHHeaXJH8y-ybAL7YoZ5wg4xax6YMkplxZecSLmN5sZnpcXogaYEzP-9052anKKe-hNOitmkgDHubetumbLmgl9uzfDayMpwiFaQ4d1EjBqc-tofPYG9I4JhO2DbIY-3nU4bpGyIMqyaaKXlX5vGw5JmOZvamL6r8RYdtOiq6c6YyPY7-GXwrKIGthovuGvHf2ExOaDPiGOHDgPhxWZ3ndOb2FZN0DUK702ofhhYvOlh0oNE3hSZZ3H6KDzSVFs_dJ9iUb19L155Pqc-C1iaf4qJaD29yDSHKjb5gAgLf7vVAiYIYk9I_qMlNh8KiAE_rQv5TVPw_qJByZyytw9eL1HMrB1IAqyxbbkMzjFFioopzlxIrB1HoQPl6UKvM6SsiGTzF_OSWcYGJPmBKZXOdd6vCyiV37JgqCnN32HwC1l7OkoC-2nJFYRh_5iTHe3TEiLgtd2Bqfn_nXexo8KaiAt8c2fAWgDPbnz6p0JGfYczzclSb2cgdHOuPzX6njn7eZwt5ZwJUnhQv0Evr0iIw-W7SF1XWqIC07ZVMUIGAjJhEJduNW4g7nevIRBipjd1lucFr48WwTRVptlrL_zaRYh0rOn_1SWDY5-26FrbFwRsxEzLpV2zmfWggEcH1HJKpj0m8fYPFZXEusYx2eP5rn_DQhpvQzI3dQLugCbceoTSShqqyP4Y2YzEp2QJsb-F88f0URqayaC3gHluN]--></g></svg>
