<?xml version="1.0" encoding="us-ascii" standalone="no"?>
<svg xmlns="http://www.w3.org/2000/svg" contentStyleType="text/css" height="640px" preserveAspectRatio="none"
     style="width:954px;height:640px;background:#FFFFFF;" version="1.1" viewBox="0 0 954 640" width="954px"
     zoomAndPan="magnify">
    <defs/>
    <g><!--cluster UI-->
        <g id="cluster_UI">
            <rect fill="none" height="576" rx="2.5" ry="2.5" style="stroke:#181818;stroke-width:1.0;" width="661" x="7"
                  y="58"/>
            <text fill="#000000" font-family="sans-serif" font-size="14" font-weight="bold" lengthAdjust="spacing"
                  textLength="15" x="330" y="73.5352">UI
            </text>
        </g><!--cluster Model-->
        <g id="cluster_Model">
            <rect fill="none" height="93" rx="2.5" ry="2.5" style="stroke:#181818;stroke-width:1.0;" width="157" x="700"
                  y="541"/>
            <text fill="#000000" font-family="sans-serif" font-size="14" font-weight="bold" lengthAdjust="spacing"
                  textLength="44" x="756.5" y="556.5352">Model
            </text>
        </g><!--cluster Logic-->
        <g id="cluster_Logic">
            <rect fill="none" height="93" rx="2.5" ry="2.5" style="stroke:#181818;stroke-width:1.0;" width="153" x="700"
                  y="159"/>
            <text fill="#000000" font-family="sans-serif" font-size="14" font-weight="bold" lengthAdjust="spacing"
                  textLength="38" x="757.5" y="174.5352">Logic
            </text>
        </g><!--class Ui-->
        <g id="elem_Ui">
            <rect codeLine="7" fill="#1D8900" height="42.1973" id="Ui" rx="2.5" ry="2.5"
                  style="stroke:#FFFFFF;stroke-width:1.0;" width="77" x="430.5" y="93"/>
            <text fill="#FFFFFF" font-family="Arial" font-size="14" lengthAdjust="spacing" textLength="71" x="433.5"
                  y="111.1318">&#171;interface&#187;
            </text>
            <text fill="#FFFFFF" font-family="Arial" font-size="14" lengthAdjust="spacing" textLength="13" x="462.5"
                  y="127.2305">Ui
            </text>
        </g><!--class UiPart-->
        <g id="elem_UiPart">
            <rect codeLine="8" fill="#1D8900" height="42.1973" id="UiPart" rx="2.5" ry="2.5"
                  style="stroke:#FFFFFF;stroke-width:1.0;" width="67" x="368.5" y="576"/>
            <text fill="#FFFFFF" font-family="Arial" font-size="14" lengthAdjust="spacing" textLength="61" x="371.5"
                  y="594.1318">{abstract}
            </text>
            <text fill="#FFFFFF" font-family="Arial" font-size="14" lengthAdjust="spacing" textLength="39" x="382.5"
                  y="610.2305">UiPart
            </text>
        </g><!--class UiManager-->
        <g id="elem_UiManager">
            <rect codeLine="9" fill="#1D8900" height="26.0986" id="UiManager" rx="2.5" ry="2.5"
                  style="stroke:#FFFFFF;stroke-width:1.0;" width="76" x="543" y="101"/>
            <text fill="#FFFFFF" font-family="Arial" font-size="14" lengthAdjust="spacing" textLength="70" x="546"
                  y="119.1318">UiManager
            </text>
        </g><!--class MainWindow-->
        <g id="elem_MainWindow">
            <rect codeLine="10" fill="#1D8900" height="26.0986" id="MainWindow" rx="2.5" ry="2.5"
                  style="stroke:#FFFFFF;stroke-width:1.0;" width="87" x="504.5" y="202"/>
            <text fill="#FFFFFF" font-family="Arial" font-size="14" lengthAdjust="spacing" textLength="81" x="507.5"
                  y="220.1318">MainWindow
            </text>
        </g><!--class HelpWindow-->
        <g id="elem_HelpWindow">
            <rect codeLine="11" fill="#1D8900" height="26.0986" id="HelpWindow" rx="2.5" ry="2.5"
                  style="stroke:#FFFFFF;stroke-width:1.0;" width="85" x="23.5" y="288"/>
            <text fill="#FFFFFF" font-family="Arial" font-size="14" lengthAdjust="spacing" textLength="79" x="26.5"
                  y="306.1318">HelpWindow
            </text>
        </g><!--class ResultDisplay-->
        <g id="elem_ResultDisplay">
            <rect codeLine="12" fill="#1D8900" height="26.0986" id="ResultDisplay" rx="2.5" ry="2.5"
                  style="stroke:#FFFFFF;stroke-width:1.0;" width="92" x="289" y="288"/>
            <text fill="#FFFFFF" font-family="Arial" font-size="14" lengthAdjust="spacing" textLength="86" x="292"
                  y="306.1318">ResultDisplay
            </text>
        </g><!--class TabPanel-->
        <g id="elem_TabPanel">
            <rect codeLine="13" fill="#1D8900" height="26.0986" id="TabPanel" rx="2.5" ry="2.5"
                  style="stroke:#FFFFFF;stroke-width:1.0;" width="67" x="584.5" y="288"/>
            <text fill="#FFFFFF" font-family="Arial" font-size="14" lengthAdjust="spacing" textLength="61" x="587.5"
                  y="306.1318">TabPanel
            </text>
        </g><!--class XYZListView-->
        <g id="elem_XYZListView">
            <rect codeLine="14" fill="#1D8900" height="26.0986" id="XYZListView" rx="2.5" ry="2.5"
                  style="stroke:#FFFFFF;stroke-width:1.0;" width="85" x="566.5" y="381.5"/>
            <text fill="#FFFFFF" font-family="Arial" font-size="14" lengthAdjust="spacing" textLength="79" x="569.5"
                  y="399.6318">XYZListView
            </text>
        </g><!--class XYZCard-->
        <g id="elem_XYZCard">
            <rect codeLine="15" fill="#1D8900" height="26.0986" id="XYZCard" rx="2.5" ry="2.5"
                  style="stroke:#FFFFFF;stroke-width:1.0;" width="64" x="580" y="482.5"/>
            <text fill="#FFFFFF" font-family="Arial" font-size="14" lengthAdjust="spacing" textLength="58" x="583"
                  y="500.6318">XYZCard
            </text>
        </g><!--class HomeView-->
        <g id="elem_HomeView">
            <rect codeLine="16" fill="#1D8900" height="26.0986" id="HomeView" rx="2.5" ry="2.5"
                  style="stroke:#FFFFFF;stroke-width:1.0;" width="74" x="457" y="381.5"/>
            <text fill="#FFFFFF" font-family="Arial" font-size="14" lengthAdjust="spacing" textLength="68" x="460"
                  y="399.6318">HomeView
            </text>
        </g><!--class FinanceCard-->
        <g id="elem_FinanceCard">
            <rect codeLine="17" fill="#1D8900" height="26.0986" id="FinanceCard" rx="2.5" ry="2.5"
                  style="stroke:#FFFFFF;stroke-width:1.0;" width="88" x="457" y="482.5"/>
            <text fill="#FFFFFF" font-family="Arial" font-size="14" lengthAdjust="spacing" textLength="82" x="460"
                  y="500.6318">FinanceCard
            </text>
        </g><!--class StatusBarFooter-->
        <g id="elem_StatusBarFooter">
            <rect codeLine="18" fill="#1D8900" height="26.0986" id="StatusBarFooter" rx="2.5" ry="2.5"
                  style="stroke:#FFFFFF;stroke-width:1.0;" width="110" x="144" y="288"/>
            <text fill="#FFFFFF" font-family="Arial" font-size="14" lengthAdjust="spacing" textLength="104" x="147"
                  y="306.1318">StatusBarFooter
            </text>
        </g><!--class CommandBox-->
        <g id="elem_CommandBox">
            <rect codeLine="19" fill="#1D8900" height="26.0986" id="CommandBox" rx="2.5" ry="2.5"
                  style="stroke:#FFFFFF;stroke-width:1.0;" width="96" x="416" y="288"/>
            <text fill="#FFFFFF" font-family="Arial" font-size="14" lengthAdjust="spacing" textLength="90" x="419"
                  y="306.1318">CommandBox
            </text>
        </g><!--class HiddenModel-->
        <g id="elem_HiddenModel">
            <rect codeLine="23" fill="#FFFFFF" height="26.0986" id="HiddenModel" rx="2.5" ry="2.5"
                  style="stroke:#FFFFFF;stroke-width:1.0;" width="90" x="743" y="584"/>
            <text fill="#FFFFFF" font-family="Arial" font-size="14" lengthAdjust="spacing" textLength="84" x="746"
                  y="602.1318">HiddenModel
            </text>
        </g><!--class HiddenLogic-->
        <g id="elem_HiddenLogic">
            <rect codeLine="27" fill="#FFFFFF" height="26.0986" id="HiddenLogic" rx="2.5" ry="2.5"
                  style="stroke:#FFFFFF;stroke-width:1.0;" width="85" x="743.5" y="202"/>
            <text fill="#FFFFFF" font-family="Arial" font-size="14" lengthAdjust="spacing" textLength="79" x="746.5"
                  y="220.1318">HiddenLogic
            </text>
        </g><!--class HiddenOutside-->
        <g id="elem_HiddenOutside">
            <rect codeLine="30" fill="#FFFFFF" height="26.0986" id="HiddenOutside" rx="2.5" ry="2.5"
                  style="stroke:#FFFFFF;stroke-width:1.0;" width="100" x="419" y="7"/>
            <text fill="#FFFFFF" font-family="Arial" font-size="14" lengthAdjust="spacing" textLength="94" x="422"
                  y="25.1318">HiddenOutside
            </text>
        </g>
        <g id="elem_GMN49">
            <path d="M686.5,374 L686.5,390.5 L651.66,394.5 L686.5,398.5 L686.5,414.6211 A0,0 0 0 0 686.5,414.6211 L947.5,414.6211 A0,0 0 0 0 947.5,414.6211 L947.5,384 L937.5,374 L686.5,374 A0,0 0 0 0 686.5,374 "
                  fill="#FEFFDD" style="stroke:#181818;stroke-width:0.5;"/>
            <path d="M937.5,374 L937.5,384 L947.5,384 L937.5,374 " fill="#FEFFDD"
                  style="stroke:#181818;stroke-width:0.5;"/>
            <text fill="#000000" font-family="sans-serif" font-size="13" lengthAdjust="spacing" textLength="180"
                  x="720.5" y="391.5684">XYZListView = TaskListView,
            </text>
            <text fill="#000000" font-family="sans-serif" font-size="13" lengthAdjust="spacing" textLength="236"
                  x="696.5" y="406.8789">OrderListView, MenuItemListView etc.
            </text>
        </g>
        <g id="elem_GMN52">
            <path d="M684.5,475 L684.5,491.5 L644.31,495.5 L684.5,499.5 L684.5,515.6211 A0,0 0 0 0 684.5,515.6211 L915.5,515.6211 A0,0 0 0 0 915.5,515.6211 L915.5,485 L905.5,475 L684.5,475 A0,0 0 0 0 684.5,475 "
                  fill="#FEFFDD" style="stroke:#181818;stroke-width:0.5;"/>
            <path d="M905.5,475 L905.5,485 L915.5,485 L905.5,475 " fill="#FEFFDD"
                  style="stroke:#181818;stroke-width:0.5;"/>
            <text fill="#000000" font-family="sans-serif" font-size="13" lengthAdjust="spacing" textLength="206"
                  x="690.5" y="492.5684">XYZCard = TaskCard, OrderCard,
            </text>
            <text fill="#000000" font-family="sans-serif" font-size="13" lengthAdjust="spacing" textLength="118"
                  x="738.5" y="507.8789">MenuItemCard etc.
            </text>
        </g><!--link HiddenOutside to Ui-->
        <g id="link_HiddenOutside_Ui">
            <path codeLine="31" d="M469,33.03 C469,46.8 469,69.75 469,87.54 " fill="none" id="HiddenOutside-to-Ui"
                  style="stroke:#0E4100;stroke-width:1.1;stroke-dasharray:7.0,7.0;"/>
            <polygon fill="#0E4100" points="469,92.88,473,83.88,469,87.88,465,83.88,469,92.88"
                     style="stroke:#0E4100;stroke-width:1.1;"/>
        </g><!--reverse link Ui to UiManager-->
        <g id="link_Ui_UiManager">
            <path codeLine="33" d="M528.07,114 C532.96,114 537.86,114 542.76,114 " fill="none" id="Ui-backto-UiManager"
                  style="stroke:#0E4100;stroke-width:1.1;stroke-dasharray:7.0,7.0;"/>
            <polygon fill="none" points="527.94,121,507.94,114,527.94,107,527.94,121"
                     style="stroke:#0E4100;stroke-width:1.1;"/>
        </g><!--link UiManager to MainWindow-->
        <g id="link_UiManager_MainWindow">
            <path codeLine="34" d="M576.95,127.14 C571.11,144.66 560.3,177.09 553.67,196.99 " fill="none"
                  id="UiManager-to-MainWindow" style="stroke:#0E4100;stroke-width:1.1;"/>
            <polygon fill="#0E4100"
                     points="552.08,201.76,558.7274,194.4928,553.6654,197.018,551.1402,191.9561,552.08,201.76"
                     style="stroke:#0E4100;stroke-width:1.1;"/>
            <text fill="#000000" font-family="sans-serif" font-size="13" lengthAdjust="spacing" textLength="8"
                  x="544.1115" y="191.2037">1
            </text>
        </g><!--link MainWindow to CommandBox-->
        <g id="link_MainWindow_CommandBox">
            <path codeLine="35" d="M526.33,237.67 C513.69,250.31 497.82,266.18 485.26,278.74 " fill="none"
                  id="MainWindow-CommandBox" style="stroke:#0E4100;stroke-width:1.1;"/>
            <polygon fill="#0E4100"
                     points="535.96,228.04,528.8889,229.4542,527.4747,236.5253,534.5458,235.1111,535.96,228.04"
                     style="stroke:#0E4100;stroke-width:1.1;"/>
            <polygon fill="#0E4100"
                     points="476.01,287.99,485.2024,284.4545,479.5455,284.4545,479.5455,278.7976,476.01,287.99"
                     style="stroke:#0E4100;stroke-width:1.1;"/>
            <line style="stroke:#0E4100;stroke-width:1.1;" x1="479.5455" x2="485.205" y1="284.4545" y2="278.795"/>
            <text fill="#000000" font-family="sans-serif" font-size="13" lengthAdjust="spacing" textLength="8"
                  x="471.3141" y="277.1417">1
            </text>
        </g><!--link MainWindow to ResultDisplay-->
        <g id="link_MainWindow_ResultDisplay">
            <path codeLine="36" d="M505.34,232.82 C468.3,247.43 414.94,268.47 377.85,283.1 " fill="none"
                  id="MainWindow-ResultDisplay" style="stroke:#0E4100;stroke-width:1.1;"/>
            <polygon fill="#0E4100"
                     points="517.48,228.04,510.4309,226.5199,506.3166,232.4421,513.3657,233.9622,517.48,228.04"
                     style="stroke:#0E4100;stroke-width:1.1;"/>
            <polygon fill="#0E4100"
                     points="365.46,287.99,375.2997,288.4157,370.1126,286.1587,372.3695,280.9716,365.46,287.99"
                     style="stroke:#0E4100;stroke-width:1.1;"/>
            <line style="stroke:#0E4100;stroke-width:1.1;" x1="370.1126" x2="377.555" y1="286.1587" y2="283.22"/>
            <text fill="#000000" font-family="sans-serif" font-size="13" lengthAdjust="spacing" textLength="8"
                  x="368.3747" y="277.1417">1
            </text>
        </g><!--link MainWindow to TabPanel-->
        <g id="link_MainWindow_TabPanel">
            <path codeLine="37" d="M566.44,238.13 C576.62,250.35 589.24,265.48 599.44,277.72 " fill="none"
                  id="MainWindow-TabPanel" style="stroke:#0E4100;stroke-width:1.1;"/>
            <polygon fill="#0E4100"
                     points="558.03,228.04,558.7952,235.2104,565.7083,237.2619,564.9431,230.0915,558.03,228.04"
                     style="stroke:#0E4100;stroke-width:1.1;"/>
            <polygon fill="#0E4100"
                     points="607.99,287.99,605.3052,278.5141,604.7907,284.1475,599.1573,283.633,607.99,287.99"
                     style="stroke:#0E4100;stroke-width:1.1;"/>
            <line style="stroke:#0E4100;stroke-width:1.1;" x1="604.7907" x2="599.665" y1="284.1475" y2="278"/>
            <text fill="#000000" font-family="sans-serif" font-size="13" lengthAdjust="spacing" textLength="8"
                  x="594.2109" y="277.1417">1
            </text>
        </g><!--link MainWindow to StatusBarFooter-->
        <g id="link_MainWindow_StatusBarFooter">
            <path codeLine="38" d="M491.31,229.64 C428.39,244.79 327.11,269.16 261.82,284.88 " fill="none"
                  id="MainWindow-StatusBarFooter" style="stroke:#0E4100;stroke-width:1.1;"/>
            <polygon fill="#0E4100"
                     points="504.15,226.55,497.3806,224.065,492.4831,229.358,499.2526,231.8429,504.15,226.55"
                     style="stroke:#0E4100;stroke-width:1.1;"/>
            <polygon fill="#0E4100" points="248.86,288,258.5461,289.783,253.7212,286.83,256.6742,282.0051,248.86,288"
                     style="stroke:#0E4100;stroke-width:1.1;"/>
            <line style="stroke:#0E4100;stroke-width:1.1;" x1="253.7212" x2="261.495" y1="286.83" y2="284.955"/>
            <text fill="#000000" font-family="sans-serif" font-size="13" lengthAdjust="spacing" textLength="8"
                  x="259.7773" y="277.1558">1
            </text>
        </g><!--link MainWindow to HelpWindow-->
        <g id="link_MainWindow_HelpWindow">
            <path codeLine="39"
                  d="M504.3,223.11 C427.75,235.64 264.47,262.73 127,288 C122.63,288.8 118.1,289.66 113.56,290.53 "
                  fill="none" id="MainWindow-to-HelpWindow" style="stroke:#0E4100;stroke-width:1.1;"/>
            <polygon fill="#0E4100"
                     points="108.64,291.47,118.2387,293.6756,113.5478,290.5141,116.7093,285.8232,108.64,291.47"
                     style="stroke:#0E4100;stroke-width:1.1;"/>
            <text fill="#000000" font-family="sans-serif" font-size="13" lengthAdjust="spacing" textLength="24"
                  x="111.9396" y="285.2485">0..1
            </text>
        </g><!--link TabPanel to HomeView-->
        <g id="link_TabPanel_HomeView">
            <path codeLine="41" d="M601.53,314.15 C579.11,330.69 538.99,360.3 514.6,378.3 " fill="none"
                  id="TabPanel-to-HomeView" style="stroke:#0E4100;stroke-width:1.1;"/>
            <polygon fill="#0E4100"
                     points="510.53,381.3,520.1473,379.1768,514.5538,378.3321,515.3986,372.7386,510.53,381.3"
                     style="stroke:#0E4100;stroke-width:1.1;"/>
            <text fill="#000000" font-family="sans-serif" font-size="13" lengthAdjust="spacing" textLength="8"
                  x="507.4637" y="370.7595">1
            </text>
        </g><!--link TabPanel to XYZListView-->
        <g id="link_TabPanel_XYZListView">
            <path codeLine="42" d="M616.79,314.34 C615.22,330.25 612.49,358.03 610.71,376.09 " fill="none"
                  id="TabPanel-to-XYZListView" style="stroke:#0E4100;stroke-width:1.1;"/>
            <polygon fill="#0E4100"
                     points="610.19,381.36,615.0438,372.7903,610.6748,376.3836,607.0815,372.0146,610.19,381.36"
                     style="stroke:#0E4100;stroke-width:1.1;"/>
            <text fill="#000000" font-family="sans-serif" font-size="13" lengthAdjust="spacing" textLength="8"
                  x="601.0836" y="370.8431">1
            </text>
        </g><!--link XYZListView to XYZCard-->
        <g id="link_XYZListView_XYZCard">
            <path codeLine="44" d="M609.37,407.64 C609.9,425.08 610.87,457.32 611.48,477.24 " fill="none"
                  id="XYZListView-to-XYZCard" style="stroke:#0E4100;stroke-width:1.1;"/>
            <polygon fill="#0E4100"
                     points="611.63,482.26,615.3453,473.1388,611.4729,477.2625,607.3493,473.3901,611.63,482.26"
                     style="stroke:#0E4100;stroke-width:1.1;"/>
            <text fill="#000000" font-family="sans-serif" font-size="13" lengthAdjust="spacing" textLength="6"
                  x="604.3031" y="471.7037">*
            </text>
        </g><!--link HomeView to XYZCard-->
        <g id="link_HomeView_XYZCard">
            <path codeLine="46" d="M508.47,407.64 C529.88,425.6 569.99,459.25 593.5,478.98 " fill="none"
                  id="HomeView-to-XYZCard" style="stroke:#0E4100;stroke-width:1.1;"/>
            <polygon fill="#0E4100"
                     points="597.41,482.26,593.0891,473.4096,593.5806,479.045,587.9452,479.5366,597.41,482.26"
                     style="stroke:#0E4100;stroke-width:1.1;"/>
            <text fill="#000000" font-family="sans-serif" font-size="13" lengthAdjust="spacing" textLength="6"
                  x="584.4839" y="471.7037">*
            </text>
        </g><!--link HomeView to FinanceCard-->
        <g id="link_HomeView_FinanceCard">
            <path codeLine="47" d="M494.86,407.64 C496.09,425.08 498.37,457.32 499.78,477.24 " fill="none"
                  id="HomeView-to-FinanceCard" style="stroke:#0E4100;stroke-width:1.1;"/>
            <polygon fill="#0E4100"
                     points="500.13,482.26,503.4767,472.9972,499.7727,477.2728,495.4972,473.5688,500.13,482.26"
                     style="stroke:#0E4100;stroke-width:1.1;"/>
            <text fill="#000000" font-family="sans-serif" font-size="13" lengthAdjust="spacing" textLength="8"
                  x="490.2124" y="471.7037">1
            </text>
        </g><!--link ResultDisplay to UiPart-->
        <g id="link_ResultDisplay_UiPart">
            <path codeLine="49" d="M337.79,314.26 C347.14,355.26 377.57,488.81 392.94,556.25 " fill="none"
                  id="ResultDisplay-to-UiPart" style="stroke:#0E4100;stroke-width:1.1;"/>
            <polygon fill="none" points="399.82,554.94,397.44,576,386.17,558.05,399.82,554.94"
                     style="stroke:#0E4100;stroke-width:1.1;"/>
        </g><!--link CommandBox to UiPart-->
        <g id="link_CommandBox_UiPart">
            <path codeLine="50"
                  d="M451.44,314.45 C438.86,327.84 420.22,350.41 412,374 C390.83,434.76 393,510.57 397.08,556.03 "
                  fill="none" id="CommandBox-to-UiPart" style="stroke:#0E4100;stroke-width:1.1;"/>
            <polygon fill="none" points="404.05,555.37,399.18,575.99,390.13,556.83,404.05,555.37"
                     style="stroke:#0E4100;stroke-width:1.1;"/>
        </g><!--link StatusBarFooter to UiPart-->
        <g id="link_StatusBarFooter_UiPart">
            <path codeLine="51" d="M207.46,314.26 C236.2,355.88 330.8,492.88 376.65,559.28 " fill="none"
                  id="StatusBarFooter-to-UiPart" style="stroke:#0E4100;stroke-width:1.1;"/>
            <polygon fill="none" points="382.58,555.56,388.19,576,371.06,563.52,382.58,555.56"
                     style="stroke:#0E4100;stroke-width:1.1;"/>
        </g><!--link HelpWindow to UiPart-->
        <g id="link_HelpWindow_UiPart">
            <path codeLine="52" d="M80.01,314.26 C128.39,356.59 289.54,497.59 363.85,562.62 " fill="none"
                  id="HelpWindow-to-UiPart" style="stroke:#0E4100;stroke-width:1.1;"/>
            <polygon fill="none" points="368.7,557.56,379.14,576,359.48,568.1,368.7,557.56"
                     style="stroke:#0E4100;stroke-width:1.1;"/>
        </g><!--link XYZCard to UiPart-->
        <g id="link_XYZCard_UiPart">
            <path codeLine="53" d="M586.67,508.5 C553.94,524.01 496.15,551.39 453.91,571.4 " fill="none"
                  id="XYZCard-to-UiPart" style="stroke:#0E4100;stroke-width:1.1;"/>
            <polygon fill="none" points="456.82,577.77,435.75,580.01,450.82,565.12,456.82,577.77"
                     style="stroke:#0E4100;stroke-width:1.1;"/>
        </g><!--link FinanceCard to UiPart-->
        <g id="link_FinanceCard_UiPart">
            <path codeLine="54" d="M488.86,508.7 C475.87,521.76 454.68,543.06 436.48,561.35 " fill="none"
                  id="FinanceCard-to-UiPart" style="stroke:#0E4100;stroke-width:1.1;"/>
            <polygon fill="none" points="441.21,566.52,422.14,575.76,431.28,556.64,441.21,566.52"
                     style="stroke:#0E4100;stroke-width:1.1;"/>
        </g><!--reverse link UiPart to MainWindow-->
        <g id="link_UiPart_MainWindow">
            <path codeLine="55"
                  d="M416.88,555.99 C427.93,500.42 438.91,403.38 458,374 C484.19,333.69 521.57,354.15 548,314 C565.6,287.27 567.16,247.99 559.88,228.26 "
                  fill="none" id="UiPart-backto-MainWindow" style="stroke:#0E4100;stroke-width:1.1;"/>
            <polygon fill="none" points="423.67,557.69,412.46,575.67,410.01,554.63,423.67,557.69"
                     style="stroke:#0E4100;stroke-width:1.1;"/>
        </g><!--link MainWindow to UiPart--><!--link XYZCard to Model-->
        <g id="link_XYZCard_Model">
            <path codeLine="57"
                  d="M643.74,508.63 C652.29,512.91 661.07,518.36 668,525 C680.665,537.14 690.445,554.1775 697.1637,568.52 C698.0036,570.3128 698.7956,572.0635 699.5394,573.7573 C699.6324,573.969 699.7246,574.1798 699.8161,574.3897 C699.8619,574.4947 699.9074,574.5994 699.9528,574.7039 "
                  fill="none" id="XYZCard-to-Model" style="stroke:#0E4100;stroke-width:1.1;stroke-dasharray:7.0,7.0;"/>
            <polygon fill="#0E4100"
                     points="699.9528,574.7039,700.0382,564.8554,697.9618,570.1174,692.6998,568.041,699.9528,574.7039"
                     style="stroke:#0E4100;stroke-width:1.1;"/>
        </g><!--link FinanceCard to Model-->
        <g id="link_FinanceCard_Model">
            <path codeLine="58"
                  d="M534.76,508.59 C543.83,511.43 553.7,514.16 563,516 C585.97,520.54 648.3,512.33 668,525 C682.755,534.49 692.6,551.445 698.83,566.4063 C699.2194,567.3413 699.5946,568.2686 699.9561,569.1858 "
                  fill="none" id="FinanceCard-to-Model"
                  style="stroke:#0E4100;stroke-width:1.1;stroke-dasharray:7.0,7.0;"/>
            <polygon fill="#0E4100"
                     points="699.9561,569.1858,700.3778,559.346,698.1229,564.534,692.9349,562.2791,699.9561,569.1858"
                     style="stroke:#0E4100;stroke-width:1.1;"/>
        </g><!--link UiManager to Logic-->
        <g id="link_UiManager_Logic">
            <path codeLine="60"
                  d="M619.11,120.84 C635.53,124.88 654.11,131.66 668,143 C681.59,154.095 691.4,171.1 697.9025,185.6862 C698.3089,186.5979 698.7024,187.5001 699.0831,188.3908 C699.2734,188.8361 699.4606,189.2786 699.6445,189.718 C699.7365,189.9377 699.8277,190.1566 699.918,190.3747 "
                  fill="none" id="UiManager-to-Logic" style="stroke:#0E4100;stroke-width:1.1;"/>
            <polygon fill="#0E4100"
                     points="699.918,190.3747,700.1675,180.529,698.0037,185.7556,692.777,183.5919,699.918,190.3747"
                     style="stroke:#0E4100;stroke-width:1.1;"/>
        </g><!--reverse link Logic to MainWindow-->
        <g id="link_Logic_MainWindow">
            <path codeLine="61"
                  d="M699.8602,215 C699.7094,215 699.5586,215 699.4078,215 C699.1063,215 698.8047,215 698.5031,215 C697.9,215 697.2969,215 696.6937,215 C695.4875,215 694.2813,215 693.075,215 C688.25,215 683.425,215 678.6,215 C668.95,215 659.3,215 649.65,215 C630.35,215 611.05,215 591.75,215 "
                  fill="none" id="Logic-backto-MainWindow" style="stroke:#0E4100;stroke-width:1.1;"/>
            <polygon fill="#0E4100" points="699.8602,215,690.8602,211,694.8602,215,690.8602,219,699.8602,215"
                     style="stroke:#0E4100;stroke-width:1.1;"/>
        </g><!--link HomeView to XYZListView--><!--link CommandBox to TabPanel--><!--link ResultDisplay to CommandBox--><!--link StatusBarFooter to ResultDisplay--><!--link HelpWindow to StatusBarFooter--><!--SRC=[VLDTR-8m47pFh_3btgeI7T8zLHmFJOLQ2KJ5mNssghQ92HQEZMn7NDNhVp_7YPDreCUJFJCxP7V77vZ8U9LJeiqBfycXAdcazqmSG459G2bvNEzOjXTKQp9EnaCobLmgihbxIfVpvUff_Ha9CWvQNqEsBvIiH1vAe-XW6IYeHSXaigAP0L5mEfs-HcbTIEB9X0b3rHOoYpw83Oi9QB9Xdd-5PsqKPEQj9kz1cLPG7rlHXYr0s7zHxNq1J7nd8fV75hYb_100AwehRcwOFd1uQR4rFD-3eBoz_lZvQywq-SReiKTIKBdtb2L5v8m941b5Wgy6J6L7esPIckxRKbcM8F9h-ITwwyUpa3dbuOI87z4jotCg6iN7cVlXqhaiMFRVqaQ1IZ6vh8ncDXgU3j4acTQxYBe9auJJhKd-EhX7HtQqOZGbyJZ6q- -FvC9Bd0PDuPocbeGhUa_LBUqzmN0BI3Ug9P-InAfGG29l6JJLRViiYxCIeKilkeYx-4JUwonxIbf_7Aue68njmksYUGtTL0DuC8A0wniFuFPh0WnzH83ZYTRXG5JdK-V89JXmwL4S9SMAdR6DkzYUkdi2JUhtpeNsiQaCjo5ioyGHH6unTOKlv8jDajxxwoLv46IfSgfwP455TMTesPLGaoMdzdLZL_xGsjR7oyQlELftR-TapWf5opVa6iQF1Myu58NFPP2HK3fy4YVv2ENuRU1jU5M_xty0]-->
    </g>
</svg>
