<?xml version="1.0" encoding="us-ascii" standalone="no"?>
<svg xmlns:xlink="http://www.w3.org/1999/xlink" xmlns="http://www.w3.org/2000/svg" contentStyleType="text/css"
     height="396px" preserveAspectRatio="none" style="width:702px;height:396px;background:#FFFFFF;" version="1.1"
     viewBox="0 0 702 396" width="702px" zoomAndPan="magnify">
    <defs/>
    <g><!--cluster UI-->
        <g id="cluster_UI">
            <rect fill="#E6F5EC" height="351" rx="2.5" ry="2.5" style="stroke:#181818;stroke-width:1.0;" width="604"
                  x="14" y="39"/>
            <text fill="#000000" font-family="sans-serif" font-size="14" font-weight="bold" lengthAdjust="spacing"
                  textLength="15" x="308.5" y="54.5352">UI
            </text>
        </g><!--entity Model-->
        <g id="elem_Model">
            <rect fill="#FBEAE7" height="36.4883" rx="2.5" ry="2.5" style="stroke:#181818;stroke-width:0.5;" width="70"
                  x="626" y="343"/>
            <text fill="#000000" font-family="sans-serif" font-size="14" lengthAdjust="spacing" textLength="42" x="640"
                  y="366.5352">Model
            </text>
        </g><!--entity Logic-->
        <g id="elem_Logic">
            <rect fill="#E6EFF9" height="36.4883" rx="2.5" ry="2.5" style="stroke:#181818;stroke-width:0.5;" width="70"
                  x="626" y="144"/>
            <text fill="#000000" font-family="sans-serif" font-size="14" lengthAdjust="spacing" textLength="36" x="643"
                  y="167.5352">Logic
            </text>
        </g><!--class HiddenOutside-->
        <g id="elem_HiddenOutside">
            <rect codeLine="26" fill="#FFFFFF" height="26.0986" id="HiddenOutside" rx="2.5" ry="2.5"
                  style="stroke:#FFFFFF;stroke-width:1.0;" width="100" x="316" y="4"/>
            <text fill="#FFFFFF" font-family="Arial" font-size="14" lengthAdjust="spacing" textLength="94" x="319"
                  y="22.1318">HiddenOutside
            </text>
        </g><!--class Ui-->
        <g id="elem_Ui">
            <rect codeLine="8" fill="#009645" height="42.1973" id="Ui" rx="2.5" ry="2.5"
                  style="stroke:#FFFFFF;stroke-width:1.0;" width="77" x="327.5" y="66"/>
            <text fill="#FFFFFF" font-family="Arial" font-size="14" lengthAdjust="spacing" textLength="71" x="330.5"
                  y="84.1318">&#171;interface&#187;
            </text>
            <text fill="#FFFFFF" font-family="Arial" font-size="14" lengthAdjust="spacing" textLength="13" x="359.5"
                  y="100.2305">Ui
            </text>
        </g><!--class UiPart-->
        <g id="elem_UiPart">
            <rect codeLine="9" fill="#009645" height="42.1973" id="UiPart" rx="2.5" ry="2.5"
                  style="stroke:#FFFFFF;stroke-width:1.0;" width="67" x="317.5" y="340"/>
            <text fill="#FFFFFF" font-family="Arial" font-size="14" lengthAdjust="spacing" textLength="61" x="320.5"
                  y="358.1318">{abstract}
            </text>
            <text fill="#FFFFFF" font-family="Arial" font-size="14" lengthAdjust="spacing" textLength="39" x="331.5"
                  y="374.2305">UiPart
            </text>
        </g><!--class UiManager-->
        <g id="elem_UiManager">
            <rect codeLine="10" fill="#009645" height="26.0986" id="UiManager" rx="2.5" ry="2.5"
                  style="stroke:#FFFFFF;stroke-width:1.0;" width="76" x="423" y="74"/>
            <text fill="#FFFFFF" font-family="Arial" font-size="14" lengthAdjust="spacing" textLength="70" x="426"
                  y="92.1318">UiManager
            </text>
        </g><!--class MainWindow-->
        <g id="elem_MainWindow">
            <rect codeLine="11" fill="#009645" height="26.0986" id="MainWindow" rx="2.5" ry="2.5"
                  style="stroke:#FFFFFF;stroke-width:1.0;" width="87" x="307.5" y="149"/>
            <text fill="#FFFFFF" font-family="Arial" font-size="14" lengthAdjust="spacing" textLength="81" x="310.5"
                  y="167.1318">MainWindow
            </text>
        </g><!--class HelpWindow-->
        <g id="elem_HelpWindow">
            <rect codeLine="12" fill="#009645" height="26.0986" id="HelpWindow" rx="2.5" ry="2.5"
                  style="stroke:#FFFFFF;stroke-width:1.0;" width="85" x="246.5" y="216"/>
            <text fill="#FFFFFF" font-family="Arial" font-size="14" lengthAdjust="spacing" textLength="79" x="249.5"
                  y="234.1318">HelpWindow
            </text>
        </g><!--class ResultDisplay-->
        <g id="elem_ResultDisplay">
            <rect codeLine="13" fill="#009645" height="26.0986" id="ResultDisplay" rx="2.5" ry="2.5"
                  style="stroke:#FFFFFF;stroke-width:1.0;" width="92" x="22" y="216"/>
            <text fill="#FFFFFF" font-family="Arial" font-size="14" lengthAdjust="spacing" textLength="86" x="25"
                  y="234.1318">ResultDisplay
            </text>
        </g><!--class PersonListPanel-->
        <g id="elem_PersonListPanel">
            <rect codeLine="14" fill="#009645" height="26.0986" id="PersonListPanel" rx="2.5" ry="2.5"
                  style="stroke:#FFFFFF;stroke-width:1.0;" width="109" x="500.5" y="216"/>
            <text fill="#FFFFFF" font-family="Arial" font-size="14" lengthAdjust="spacing" textLength="103" x="503.5"
                  y="234.1318">PersonListPanel
            </text>
        </g><!--class PersonCard-->
        <g id="elem_PersonCard">
            <rect codeLine="15" fill="#009645" height="26.0986" id="PersonCard" rx="2.5" ry="2.5"
                  style="stroke:#FFFFFF;stroke-width:1.0;" width="82" x="514" y="278"/>
            <text fill="#FFFFFF" font-family="Arial" font-size="14" lengthAdjust="spacing" textLength="76" x="517"
                  y="296.1318">PersonCard
            </text>
        </g><!--class UserProfilePanel-->
        <g id="elem_UserProfilePanel">
            <rect codeLine="16" fill="#009645" height="26.0986" id="UserProfilePanel" rx="2.5" ry="2.5"
                  style="stroke:#FFFFFF;stroke-width:1.0;" width="112" x="370" y="216"/>
            <text fill="#FFFFFF" font-family="Arial" font-size="14" lengthAdjust="spacing" textLength="106" x="373"
                  y="234.1318">UserProfilePanel
            </text>
        </g><!--class CommandBox-->
        <g id="elem_CommandBox">
            <rect codeLine="17" fill="#009645" height="26.0986" id="CommandBox" rx="2.5" ry="2.5"
                  style="stroke:#FFFFFF;stroke-width:1.0;" width="96" x="132" y="216"/>
            <text fill="#FFFFFF" font-family="Arial" font-size="14" lengthAdjust="spacing" textLength="90" x="135"
                  y="234.1318">CommandBox
            </text>
        </g>
        <path d="M366,30.157 C366,40.0894 366,54.3347 366,65.9512 " fill="none"
              style="stroke:#006930;stroke-width:1.1;stroke-dasharray:7.0,7.0;"/>
        <polygon fill="#006930" points="366,65.9512,370,56.9512,366,60.9512,362,56.9512,366,65.9512"
                 style="stroke:#006930;stroke-width:1.0;"/>
        <path d="M404.5938,87 C410.6163,87 416.6388,87 422.6614,87 " fill="none"
              style="stroke:#006930;stroke-width:1.1;stroke-dasharray:7.0,7.0;"/>
        <polygon fill="#FFFFFF" points="404.5938,87,420.5938,93,420.5938,81,404.5938,87"
                 style="stroke:#006930;stroke-width:1.0;"/>
        <path d="M442.8357,100.0545 C422.4545,113.5802 389.5835,135.3946 369.1912,148.9276 " fill="none"
              style="stroke:#006930;stroke-width:1.1;"/>
        <polygon fill="#006930"
                 points="369.1912,148.9276,378.902,147.2839,373.3573,146.1629,374.4784,140.6182,369.1912,148.9276"
                 style="stroke:#006930;stroke-width:1.0;"/>
        <text fill="#000000" font-family="sans-serif" font-size="13" lengthAdjust="spacing" textLength="8" x="360.1912"
              y="145.496">1
        </text>
        <path d="M365.1069,175.226 C378.5157,186.847 398.5685,204.226 411.9563,215.8288 " fill="none"
              style="stroke:#006930;stroke-width:1.1;"/>
        <polygon fill="#006930"
                 points="365.1069,175.226,367.0213,182.1783,374.1752,183.0852,372.2608,176.1328,365.1069,175.226"
                 style="stroke:#006930;stroke-width:1.0;"/>
        <polygon fill="#006930"
                 points="411.9563,215.8288,407.7749,206.9117,408.1779,212.5542,402.5354,212.9572,411.9563,215.8288"
                 style="stroke:#006930;stroke-width:1.0;"/>
        <text fill="#000000" font-family="sans-serif" font-size="13" lengthAdjust="spacing" textLength="8" x="402.9563"
              y="212.3972">1
        </text>
        <path d="M319.237,175.0737 C288.5227,186.7487 242.2496,204.3379 211.5929,215.991 " fill="none"
              style="stroke:#006930;stroke-width:1.1;"/>
        <polygon fill="#006930"
                 points="319.237,175.0737,312.2072,173.4666,308.02,179.3374,315.0497,180.9445,319.237,175.0737"
                 style="stroke:#006930;stroke-width:1.0;"/>
        <polygon fill="#006930"
                 points="211.5929,215.991,221.4269,216.5322,216.2667,214.2144,218.5844,209.0542,211.5929,215.991"
                 style="stroke:#006930;stroke-width:1.0;"/>
        <text fill="#000000" font-family="sans-serif" font-size="13" lengthAdjust="spacing" textLength="8" x="202.5929"
              y="212.5593">1
        </text>
        <path d="M307.4015,173.0138 C255.1508,185.0148 167.967,205.0394 114.4729,217.326 " fill="none"
              style="stroke:#006930;stroke-width:1.1;"/>
        <polygon fill="#006930"
                 points="307.4015,173.0138,300.6583,170.4584,295.706,175.7,302.4491,178.2554,307.4015,173.0138"
                 style="stroke:#006930;stroke-width:1.0;"/>
        <polygon fill="#006930"
                 points="114.4729,217.326,124.1399,219.2098,119.346,216.2067,122.3491,211.4128,114.4729,217.326"
                 style="stroke:#006930;stroke-width:1.0;"/>
        <text fill="#000000" font-family="sans-serif" font-size="13" lengthAdjust="spacing" textLength="8" x="115.4729"
              y="213.8944">1
        </text>
        <path d="M388.8927,175.0737 C425.5343,186.7487 480.7373,204.3379 517.3102,215.991 " fill="none"
              style="stroke:#006930;stroke-width:1.1;"/>
        <polygon fill="#006930"
                 points="388.8927,175.0737,393.3952,180.7064,400.3264,178.7167,395.8239,173.084,388.8927,175.0737"
                 style="stroke:#006930;stroke-width:1.0;"/>
        <polygon fill="#006930"
                 points="517.3102,215.991,509.9493,209.4475,512.5462,214.473,507.5206,217.0699,517.3102,215.991"
                 style="stroke:#006930;stroke-width:1.0;"/>
        <text fill="#000000" font-family="sans-serif" font-size="13" lengthAdjust="spacing" textLength="8" x="508.3102"
              y="212.5593">1
        </text>
        <path d="M339.3383,175.226 C328.2537,186.847 311.6767,204.226 300.6094,215.8288 " fill="none"
              style="stroke:#006930;stroke-width:1.1;"/>
        <polygon fill="#006930"
                 points="300.6094,215.8288,309.7158,212.0772,304.0605,212.2108,303.9269,206.5555,300.6094,215.8288"
                 style="stroke:#006930;stroke-width:1.0;"/>
        <text fill="#000000" font-family="sans-serif" font-size="13" lengthAdjust="spacing" textLength="24" x="275.6094"
              y="212.3972">0..1
        </text>
        <path d="M555,242.1419 C555,252.5516 555,267.4717 555,277.8762 " fill="none"
              style="stroke:#006930;stroke-width:1.1;"/>
        <polygon fill="#006930" points="555,277.8762,559,268.8762,555,272.8762,551,268.8762,555,277.8762"
                 style="stroke:#006930;stroke-width:1.0;"/>
        <text fill="#000000" font-family="sans-serif" font-size="13" lengthAdjust="spacing" textLength="6" x="548"
              y="274.4445">*
        </text>
        <path d="M347.5501,175.0267 C343.4462,207.8572 343.1699,299.2696 346.7212,339.9886 " fill="none"
              style="stroke:#006930;stroke-width:1.1;"/>
        <polygon fill="#FFFFFF" points="346.7212,339.9886,351.3083,323.5278,339.3537,324.5704,346.7212,339.9886"
                 style="stroke:#006930;stroke-width:1.0;"/>
        <path d="M94.3698,242.1133 C145.9632,265.8135 260.1812,318.2811 317.2192,344.4823 " fill="none"
              style="stroke:#006930;stroke-width:1.1;"/>
        <polygon fill="#FFFFFF" points="317.2192,344.4823,305.1844,332.3512,300.1753,343.2557,317.2192,344.4823"
                 style="stroke:#006930;stroke-width:1.0;"/>
        <path d="M196.0873,242.2301 C225.6022,264.6684 288.6621,312.6086 324.5603,339.8996 " fill="none"
              style="stroke:#006930;stroke-width:1.1;"/>
        <polygon fill="#FFFFFF" points="324.5603,339.8996,315.4544,325.44,308.1919,334.9929,324.5603,339.8996"
                 style="stroke:#006930;stroke-width:1.0;"/>
        <path d="M535.8082,242.2301 C500.5973,264.6684 425.368,312.6086 382.5421,339.8996 " fill="none"
              style="stroke:#006930;stroke-width:1.1;"/>
        <polygon fill="#FFFFFF" points="382.5421,339.8996,399.2597,336.361,392.8108,326.2412,382.5421,339.8996"
                 style="stroke:#006930;stroke-width:1.0;"/>
        <path d="M518.9985,304.0005 C481.0232,316.6589 421.6586,336.4471 384.6114,348.7962 " fill="none"
              style="stroke:#006930;stroke-width:1.1;"/>
        <polygon fill="#FFFFFF" points="384.6114,348.7962,401.6877,349.4286,397.893,338.0444,384.6114,348.7962"
                 style="stroke:#006930;stroke-width:1.0;"/>
        <path d="M418.8087,242.4649 C405.8297,264.9619 378.3828,312.5365 362.6789,339.7566 " fill="none"
              style="stroke:#006930;stroke-width:1.1;"/>
        <polygon fill="#FFFFFF" points="362.6789,339.7566,375.8715,328.896,365.4773,322.8993,362.6789,339.7566"
                 style="stroke:#006930;stroke-width:1.0;"/>
        <path d="M294.9448,242.4649 C305.6741,264.9619 328.3636,312.5365 341.3455,339.7566 " fill="none"
              style="stroke:#006930;stroke-width:1.1;"/>
        <polygon fill="#FFFFFF" points="341.3455,339.7566,339.8735,322.7321,329.0423,327.8978,341.3455,339.7566"
                 style="stroke:#006930;stroke-width:1.0;"/>
        <path d="M573.9507,304.157 C590.7436,314.9299 615.4454,330.7763 634.2496,342.8394 " fill="none"
              style="stroke:#006930;stroke-width:1.1;stroke-dasharray:7.0,7.0;"/>
        <polygon fill="#006930"
                 points="634.2496,342.8394,628.8342,334.613,630.0411,340.1396,624.5145,341.3465,634.2496,342.8394"
                 style="stroke:#006930;stroke-width:1.0;"/>
        <path d="M498.3836,100.1033 C531.2045,110.9425 580.1087,127.6119 622,144 C623.2381,144.4844 624.495,144.9847 625.7617,145.4962 "
              fill="none" style="stroke:#006930;stroke-width:1.1;"/>
        <polygon fill="#006930"
                 points="625.7617,145.4962,618.9145,138.4171,621.1255,143.6239,615.9187,145.835,625.7617,145.4962"
                 style="stroke:#006930;stroke-width:1.0;"/>
        <path d="M394.5938,162 C471.6885,162 548.7833,162 625.8781,162 " fill="none"
              style="stroke:#006930;stroke-width:1.1;"/>
        <polygon fill="#006930" points="625.8781,162,616.8781,158,620.8781,162,616.8781,166,625.8781,162"
                 style="stroke:#006930;stroke-width:1.0;"/><!--SRC=[TL9TRvim57ttht3PMwMWvJsAr92jgqf6X8Rsi4tL7TmGAyP6jb5NTVtlCuWCNzBmPCuzz-kSUzCQg1lW4bvqvxXjq842TYDKARiAkNKl4kEsQoIp9w5QCD1mC4O_VpkAygJGMhwCb_DWegKsl7XuIh8qov-sT_bZG2abMBk1ybGRtQcAaXbhVGHgz0XVhN8i_KIrnFLwghUvInxlywpukkMlBEchyMYr4igXEK3fgJzL8I8EbXVY77-5tzOPADrR7zo3SIEXVuwaGkpyzZMQyNy7GdqNgjBF8_05PKk076qdtLROrYiuOdiqLgjKMBS7XPAW2PZgtCoYsHjz4193NgAR1bIrqN_OswJ5JbSePtBiiksdz3r5WhnKrwASvQNP_KDo9MzSKrGLggnpLlWR-F1v-1X5utZTgyl-QyPZYGSN_ntW2LruiTHYpQDb5EevFVbjIBbGvJtYm0o4kbQCkdEDDVShu2rwoiSuzgp0UZRBc7QyZKAVQQL1cE7O69cBXAQb27pHy2BMDoJmN4WId9QXWmMrUd-7gmkzDA8-Eh_eS5PaFHgv7FZ7SRYUN_sDB48nmr4eAJ0ub8MIgCMNIr_jIzqvqoOn_W40]-->
    </g>
</svg>
