<?xml version="1.0" encoding="UTF-8" standalone="no"?><svg xmlns="http://www.w3.org/2000/svg" xmlns:xlink="http://www.w3.org/1999/xlink" contentStyleType="text/css" height="322px" preserveAspectRatio="none" style="width:469px;height:322px;background:#FFFFFF;" version="1.1" viewBox="0 0 469 322" width="469px" zoomAndPan="magnify"><defs/><g><!--cluster UI--><g id="cluster_UI"><rect fill="#E6F5EC" height="247" rx="2.5" ry="2.5" style="stroke:#181818;stroke-width:1.0;" width="456" x="7" y="5"/><text fill="#000000" font-family="sans-serif" font-size="14" font-weight="bold" lengthAdjust="spacing" textLength="15" x="227.5" y="20.5352">UI</text></g><!--class MainWindow--><g id="elem_MainWindow"><rect codeLine="8" fill="#009645" height="26.0986" id="MainWindow" rx="2.5" ry="2.5" style="stroke:#FFFFFF;stroke-width:1.0;" width="87" x="161.5" y="94"/><text fill="#FFFFFF" font-family="Arial" font-size="14" lengthAdjust="spacing" textLength="81" x="164.5" y="112.1318">MainWindow</text></g><!--class ResultDisplay--><g id="elem_ResultDisplay"><rect codeLine="9" fill="#009645" height="26.0986" id="ResultDisplay" rx="2.5" ry="2.5" style="stroke:#FFFFFF;stroke-width:1.0;" width="92" x="363" y="32"/><text fill="#FFFFFF" font-family="Arial" font-size="14" lengthAdjust="spacing" textLength="86" x="366" y="50.1318">ResultDisplay</text></g><!--class CommandBox--><g id="elem_CommandBox"><rect codeLine="10" fill="#009645" height="26.0986" id="CommandBox" rx="2.5" ry="2.5" style="stroke:#FFFFFF;stroke-width:1.0;" width="96" x="249" y="32"/><text fill="#FFFFFF" font-family="Arial" font-size="14" lengthAdjust="spacing" textLength="90" x="252" y="50.1318">CommandBox</text></g><!--class HelpWindow--><g id="elem_HelpWindow"><rect codeLine="11" fill="#009645" height="26.0986" id="HelpWindow" rx="2.5" ry="2.5" style="stroke:#FFFFFF;stroke-width:1.0;" width="85" x="145.5" y="32"/><text fill="#FFFFFF" font-family="Arial" font-size="14" lengthAdjust="spacing" textLength="79" x="148.5" y="50.1318">HelpWindow</text></g><!--class UserProfilePanel--><g id="elem_UserProfilePanel"><rect codeLine="12" fill="#009645" height="26.0986" id="UserProfilePanel" rx="2.5" ry="2.5" style="stroke:#FFFFFF;stroke-width:1.0;" width="112" x="15" y="32"/><text fill="#FFFFFF" font-family="Arial" font-size="14" lengthAdjust="spacing" textLength="106" x="18" y="50.1318">UserProfilePanel</text></g><!--class PersonListPanel--><g id="elem_PersonListPanel"><rect codeLine="13" fill="#009645" height="26.0986" id="PersonListPanel" rx="2.5" ry="2.5" style="stroke:#FFFFFF;stroke-width:1.0;" width="109" x="29.5" y="156"/><text fill="#FFFFFF" font-family="Arial" font-size="14" lengthAdjust="spacing" textLength="103" x="32.5" y="174.1318">PersonListPanel</text></g><!--class MeetListPanel--><g id="elem_MeetListPanel"><rect codeLine="14" fill="#009645" height="26.0986" id="MeetListPanel" rx="2.5" ry="2.5" style="stroke:#FFFFFF;stroke-width:1.0;" width="96" x="157" y="156"/><text fill="#FFFFFF" font-family="Arial" font-size="14" lengthAdjust="spacing" textLength="90" x="160" y="174.1318">MeetListPanel</text></g><!--class ScheduledMeetsListPanel--><g id="elem_ScheduledMeetsListPanel"><rect codeLine="15" fill="#009645" height="26.0986" id="ScheduledMeetsListPanel" rx="2.5" ry="2.5" style="stroke:#FFFFFF;stroke-width:1.0;" width="170" x="271" y="156"/><text fill="#FFFFFF" font-family="Arial" font-size="14" lengthAdjust="spacing" textLength="164" x="274" y="174.1318">ScheduledMeetsListPanel</text></g><!--class PersonCard--><g id="elem_PersonCard"><rect codeLine="16" fill="#009645" height="26.0986" id="PersonCard" rx="2.5" ry="2.5" style="stroke:#FFFFFF;stroke-width:1.0;" width="82" x="56" y="218"/><text fill="#FFFFFF" font-family="Arial" font-size="14" lengthAdjust="spacing" textLength="76" x="59" y="236.1318">PersonCard</text></g><!--class MeetCard--><g id="elem_MeetCard"><rect codeLine="17" fill="#009645" height="26.0986" id="MeetCard" rx="2.5" ry="2.5" style="stroke:#FFFFFF;stroke-width:1.0;" width="69" x="170.5" y="218"/><text fill="#FFFFFF" font-family="Arial" font-size="14" lengthAdjust="spacing" textLength="63" x="173.5" y="236.1318">MeetCard</text></g><!--class ScheduledMeetsCard--><g id="elem_ScheduledMeetsCard"><rect codeLine="18" fill="#009645" height="26.0986" id="ScheduledMeetsCard" rx="2.5" ry="2.5" style="stroke:#FFFFFF;stroke-width:1.0;" width="143" x="270.5" y="218"/><text fill="#FFFFFF" font-family="Arial" font-size="14" lengthAdjust="spacing" textLength="137" x="273.5" y="236.1318">ScheduledMeetsCard</text></g><!--entity Model--><g id="elem_Model"><rect fill="#FBEAE7" height="36.4883" rx="2.5" ry="2.5" style="stroke:#181818;stroke-width:0.5;" width="70" x="170" y="280"/><text fill="#000000" font-family="sans-serif" font-size="14" lengthAdjust="spacing" textLength="42" x="184" y="303.5352">Model</text></g><path d="M191.4402,58.1419 C194.3896,68.5516 198.617,83.4717 201.5649,93.8762 " fill="none" style="stroke:#006930;stroke-width:1.1;"/><polygon fill="#006930" points="191.4402,58.1419,190.0451,67.8914,192.8032,62.9525,197.7421,65.7106,191.4402,58.1419" style="stroke:#006930;stroke-width:1.0;"/><polygon fill="#006930" points="201.5649,93.8762,203.7778,87.013,198.2937,82.3306,196.0808,89.1938,201.5649,93.8762" style="stroke:#006930;stroke-width:1.0;"/><text fill="#000000" font-family="sans-serif" font-size="13" lengthAdjust="spacing" textLength="24" x="166.4402" y="71.7103">0..1</text><path d="M278.3824,58.1419 C262.4208,68.5516 239.5435,83.4717 223.5899,93.8762 " fill="none" style="stroke:#006930;stroke-width:1.1;"/><polygon fill="#006930" points="278.3824,58.1419,268.6589,59.7079,274.1944,60.8732,273.029,66.4087,278.3824,58.1419" style="stroke:#006930;stroke-width:1.0;"/><polygon fill="#006930" points="223.5899,93.8762,230.8006,93.949,233.6412,87.3209,226.4305,87.2481,223.5899,93.8762" style="stroke:#006930;stroke-width:1.0;"/><text fill="#000000" font-family="sans-serif" font-size="13" lengthAdjust="spacing" textLength="8" x="269.3824" y="71.7103">1</text><path d="M367.7176,58.1419 C332.208,68.5859 281.2625,83.5699 245.8724,93.9787 " fill="none" style="stroke:#006930;stroke-width:1.1;"/><polygon fill="#006930" points="367.7176,58.1419,357.9546,56.8439,362.9207,59.5527,360.2119,64.5189,367.7176,58.1419" style="stroke:#006930;stroke-width:1.0;"/><polygon fill="#006930" points="245.8724,93.9787,252.7573,96.1232,257.3848,90.5927,250.5,88.4482,245.8724,93.9787" style="stroke:#006930;stroke-width:1.0;"/><text fill="#000000" font-family="sans-serif" font-size="13" lengthAdjust="spacing" textLength="8" x="358.7176" y="71.7103">1</text><path d="M98.1169,58.1419 C121.3653,68.5516 154.6867,83.4717 177.9234,93.8762 " fill="none" style="stroke:#006930;stroke-width:1.1;"/><polygon fill="#006930" points="98.1169,58.1419,104.6964,65.4706,102.6803,60.1852,107.9657,58.1691,98.1169,58.1419" style="stroke:#006930;stroke-width:1.0;"/><polygon fill="#006930" points="177.9234,93.8762,174.082,87.7734,166.9712,88.9722,170.8127,95.0749,177.9234,93.8762" style="stroke:#006930;stroke-width:1.0;"/><text fill="#000000" font-family="sans-serif" font-size="13" lengthAdjust="spacing" textLength="8" x="89.1169" y="71.7103">1</text><path d="M180.5138,120.1419 C159.5209,130.5516 129.4322,145.4717 108.4497,155.8762 " fill="none" style="stroke:#006930;stroke-width:1.1;"/><polygon fill="#006930" points="180.5138,120.1419,173.3614,119.2238,169.763,125.4729,176.9154,126.391,180.5138,120.1419" style="stroke:#006930;stroke-width:1.0;"/><polygon fill="#006930" points="108.4497,155.8762,118.2899,155.4615,112.9293,153.6549,114.7359,148.2943,108.4497,155.8762" style="stroke:#006930;stroke-width:1.0;"/><text fill="#000000" font-family="sans-serif" font-size="13" lengthAdjust="spacing" textLength="8" x="99.4497" y="152.4445">1</text><path d="M205,120.1419 C205,130.5516 205,145.4717 205,155.8762 " fill="none" style="stroke:#006930;stroke-width:1.1;"/><polygon fill="#006930" points="205,120.1419,201,126.1419,205,132.1419,209,126.1419,205,120.1419" style="stroke:#006930;stroke-width:1.0;"/><polygon fill="#006930" points="205,155.8762,209,146.8762,205,150.8762,201,146.8762,205,155.8762" style="stroke:#006930;stroke-width:1.0;"/><text fill="#000000" font-family="sans-serif" font-size="13" lengthAdjust="spacing" textLength="8" x="196" y="152.4445">1</text><path d="M235.5571,120.1419 C261.8411,130.5859 299.5508,145.5699 325.7464,155.9787 " fill="none" style="stroke:#006930;stroke-width:1.1;"/><polygon fill="#006930" points="235.5571,120.1419,239.656,126.0748,246.709,124.5731,242.6101,118.6402,235.5571,120.1419" style="stroke:#006930;stroke-width:1.0;"/><polygon fill="#006930" points="325.7464,155.9787,318.8595,148.938,321.0998,154.1324,315.9054,156.3726,325.7464,155.9787" style="stroke:#006930;stroke-width:1.0;"/><text fill="#000000" font-family="sans-serif" font-size="13" lengthAdjust="spacing" textLength="8" x="316.7464" y="152.5471">1</text><path d="M86.6307,182.1419 C88.8862,192.5516 92.1189,207.4717 94.3732,217.8762 " fill="none" style="stroke:#006930;stroke-width:1.1;"/><polygon fill="#006930" points="94.3732,217.8762,96.3767,208.2332,93.3144,212.9895,88.5581,209.9273,94.3732,217.8762" style="stroke:#006930;stroke-width:1.0;"/><text fill="#000000" font-family="sans-serif" font-size="13" lengthAdjust="spacing" textLength="6" x="87.3732" y="214.4445">*</text><path d="M205,182.1419 C205,192.5516 205,207.4717 205,217.8762 " fill="none" style="stroke:#006930;stroke-width:1.1;"/><polygon fill="#006930" points="205,217.8762,209,208.8762,205,212.8762,201,208.8762,205,217.8762" style="stroke:#006930;stroke-width:1.0;"/><text fill="#000000" font-family="sans-serif" font-size="13" lengthAdjust="spacing" textLength="6" x="198" y="214.4445">*</text><path d="M353.1669,182.1419 C350.738,192.5516 347.2566,207.4717 344.8289,217.8762 " fill="none" style="stroke:#006930;stroke-width:1.1;"/><polygon fill="#006930" points="344.8289,217.8762,350.7693,210.0205,345.965,213.007,342.9786,208.2027,344.8289,217.8762" style="stroke:#006930;stroke-width:1.0;"/><text fill="#000000" font-family="sans-serif" font-size="13" lengthAdjust="spacing" textLength="6" x="337.8289" y="214.4445">*</text><path d="M117.0609,244.0737 C133.7753,254.1333 157.7851,268.5836 176.4951,279.8443 " fill="none" style="stroke:#006930;stroke-width:1.1;stroke-dasharray:7.0,7.0;"/><polygon fill="#006930" points="176.4951,279.8443,170.8467,271.7762,172.2112,277.266,166.7214,278.6305,176.4951,279.8443" style="stroke:#006930;stroke-width:1.0;"/><path d="M205,244.226 C205,254.2289 205,268.4979 205,279.6772 " fill="none" style="stroke:#006930;stroke-width:1.1;stroke-dasharray:7.0,7.0;"/><polygon fill="#006930" points="205,279.6772,209,270.6772,205,274.6772,201,270.6772,205,279.6772" style="stroke:#006930;stroke-width:1.0;"/><path d="M316.5524,244.0737 C295.0403,254.2801 264.0017,269.0065 240.1238,280.3354 " fill="none" style="stroke:#006930;stroke-width:1.1;stroke-dasharray:7.0,7.0;"/><polygon fill="#006930" points="240.1238,280.3354,249.9697,280.0914,244.6412,278.1921,246.5404,272.8637,240.1238,280.3354" style="stroke:#006930;stroke-width:1.0;"/><!--SRC=[TP5HRu8m58NV-oiw7qqayzsGA2pReWp3PlPeRkWTDfQsQI7EBFllGsNI8ZvopdTEwBaFsa1H0XLmL7L5ROaLI20FNEQYPaXjTHGOwBeKnEwvr62Wf62CEdpiUBwNQ2sT1jE-6IcX3DsyRgDqbMRRU9uj7IGNOEq2ydrXL2sP3nEY6mSAR1GwcsMODtzK20p3hcynZvRFMRfvY-aFYKvjD04kFxbawj0A6TfQL36tkdbRgqMgB46oXVfkXHSKsajjB9grKLzSu1eaYbPUex5AhhYjN3L1hFhQUxv3LWja9zFstKjF18Ov5SwddpuRlzqWYM8eUfiaQVoq6fgboNMRqF6arfEGZXw3O3fodpt0D80pr33WhplCt6pfOItKNtQ8yNSU8kwjJdhrz1mOZzn3UErNu7gOEzLNSE1af6kdGH1UxaR-6ntfDkkOVm00]--></g></svg>
