<?xml version="1.0" encoding="UTF-8" standalone="no"?><svg xmlns="http://www.w3.org/2000/svg" xmlns:xlink="http://www.w3.org/1999/xlink" contentStyleType="text/css" height="329px" preserveAspectRatio="none" style="width:563px;height:329px;background:#FFFFFF;" version="1.1" viewBox="0 0 563 329" width="563px" zoomAndPan="magnify"><defs/><g><!--MD5=[44a1b4afaef76c16e6c9ec4990ad0c8d]
class Item--><g id="elem_Item"><rect codeLine="9" fill="#9D0012" height="42.1973" id="Item" rx="2.5" ry="2.5" style="stroke:#181818;stroke-width:0.0;" width="67" x="355" y="7"/><text fill="#FFFFFF" font-family="Arial" font-size="14" font-style="italic" lengthAdjust="spacing" textLength="61" x="358" y="25.1318">{abstract}</text><text fill="#FFFFFF" font-family="Arial" font-size="14" font-style="italic" lengthAdjust="spacing" textLength="28" x="374.5" y="41.2305">Item</text></g><!--MD5=[53f6a92bd21ca2f2960392a061f3a1c6]
class Name--><g id="elem_Name"><rect codeLine="10" fill="#9D0012" height="42.1973" id="Name" rx="2.5" ry="2.5" style="stroke:#181818;stroke-width:0.0;" width="67" x="487" y="281"/><text fill="#FFFFFF" font-family="Arial" font-size="14" font-style="italic" lengthAdjust="spacing" textLength="61" x="490" y="299.1318">{abstract}</text><text fill="#FFFFFF" font-family="Arial" font-size="14" font-style="italic" lengthAdjust="spacing" textLength="38" x="501.5" y="315.2305">Name</text></g><!--MD5=[0413c2967cbcbb9b55cfe9d1f30bae3b]
class UniqueItemList--><g id="elem_UniqueItemList"><rect codeLine="11" fill="#9D0012" height="26.0986" id="UniqueItemList" rx="2.5" ry="2.5" style="stroke:#181818;stroke-width:0.0;" width="130" x="189.5" y="15"/><text fill="#FFFFFF" font-family="Arial" font-size="14" lengthAdjust="spacing" textLength="120" x="192.5" y="33.1318">UniqueItemList&lt;T&gt;</text></g><!--MD5=[a7724e71618d3dacaca1ec2d24889dc2]
class ItemList--><g id="elem_ItemList"><rect codeLine="12" fill="#9D0012" height="26.0986" id="ItemList" rx="2.5" ry="2.5" style="stroke:#181818;stroke-width:0.0;" width="147" x="7" y="15"/><text fill="#FFFFFF" font-family="Arial" font-size="14" lengthAdjust="spacing" textLength="50" x="10" y="33.1318">ItemList</text><rect fill="#FFFFFF" height="16.1328" style="stroke:#181818;stroke-width:1.0;stroke-dasharray:2.0,2.0;" width="89" x="68" y="12"/><text fill="#000000" font-family="sans-serif" font-size="12" font-style="italic" lengthAdjust="spacing" textLength="87" x="69" y="24.6016">T extends Item</text></g><!--MD5=[27eb0c30e65d8b262e52e99e862b6c6e]
class MenuItem--><g id="elem_MenuItem"><rect codeLine="15" fill="#9D0012" height="26.0986" id="MenuItem" rx="2.5" ry="2.5" style="stroke:#181818;stroke-width:0.0;" width="70" x="353.5" y="109"/><text fill="#FFFFFF" font-family="Arial" font-size="14" lengthAdjust="spacing" textLength="64" x="356.5" y="127.1318">MenuItem</text></g><!--MD5=[f2b754cb406138a691b0a92760c16c3d]
class ItemPrice--><g id="elem_ItemPrice"><rect codeLine="16" fill="#9D0012" height="26.0986" id="ItemPrice" rx="2.5" ry="2.5" style="stroke:#181818;stroke-width:0.0;" width="66" x="240.5" y="289"/><text fill="#FFFFFF" font-family="Arial" font-size="14" lengthAdjust="spacing" textLength="60" x="243.5" y="307.1318">ItemPrice</text></g><!--MD5=[b69496c65f41c32e01d9c6b8a041c2c4]
class ItemCost--><g id="elem_ItemCost"><rect codeLine="17" fill="#9D0012" height="26.0986" id="ItemCost" rx="2.5" ry="2.5" style="stroke:#181818;stroke-width:0.0;" width="63" x="373" y="289"/><text fill="#FFFFFF" font-family="Arial" font-size="14" lengthAdjust="spacing" textLength="57" x="376" y="307.1318">ItemCost</text></g><!--MD5=[5c2f687bfb1bffdc24db74a639703f1f]
class ItemName--><g id="elem_ItemName"><rect codeLine="18" fill="#9D0012" height="26.0986" id="ItemName" rx="2.5" ry="2.5" style="stroke:#181818;stroke-width:0.0;" width="72" x="484.5" y="195"/><text fill="#FFFFFF" font-family="Arial" font-size="14" lengthAdjust="spacing" textLength="66" x="487.5" y="213.1318">ItemName</text></g><!--MD5=[f0268dd29ee89052933f031546cb1cab]
class Menu--><g id="elem_Menu"><rect codeLine="19" fill="#9D0012" height="26.0986" id="Menu" rx="2.5" ry="2.5" style="stroke:#181818;stroke-width:0.0;" width="50" x="75.5" y="109"/><text fill="#FFFFFF" font-family="Arial" font-size="14" lengthAdjust="spacing" textLength="36" x="82.5" y="127.1318">Menu</text></g><!--MD5=[cb138f61d904eca326558c805b3e3197]
class UniqueMenuItemList--><g id="elem_UniqueMenuItemList"><rect codeLine="20" fill="#9D0012" height="26.0986" id="UniqueMenuItemList" rx="2.5" ry="2.5" style="stroke:#181818;stroke-width:0.0;" width="137" x="181" y="109"/><text fill="#FFFFFF" font-family="Arial" font-size="14" lengthAdjust="spacing" textLength="131" x="184" y="127.1318">UniqueMenuItemList</text></g><!--MD5=[169e249786b12d4cb6fbbbd9573003c8]
class ItemProfit--><g id="elem_ItemProfit"><rect fill="#9D0012" height="26.0986" id="ItemProfit" rx="2.5" ry="2.5" style="stroke:#181818;stroke-width:0.0;" width="67" x="311" y="195"/><text fill="#FFFFFF" font-family="Arial" font-size="14" lengthAdjust="spacing" textLength="61" x="314" y="213.1318">ItemProfit</text></g><!--MD5=[6507b60a4344792f1097f877aaeafac1]
reverse link ItemList to Menu--><g id="link_ItemList_Menu"><path d="M87.71,62.17 C91.24,78.39 95.27,96.93 97.85,108.79 " fill="none" id="ItemList-backto-Menu" style="stroke:#9D0012;stroke-width:1.1;"/><polygon fill="none" points="80.93,63.92,83.52,42.89,94.61,60.94,80.93,63.92" style="stroke:#9D0012;stroke-width:1.1;"/></g><!--MD5=[609090082eea7186b225aa8a6a41ea26]
reverse link UniqueItemList to UniqueMenuItemList--><g id="link_UniqueItemList_UniqueMenuItemList"><path d="M252.67,62.73 C251.79,78.82 250.8,97.07 250.16,108.79 " fill="none" id="UniqueItemList-backto-UniqueMenuItemList" style="stroke:#9D0012;stroke-width:1.1;"/><polygon fill="none" points="245.67,62.51,253.74,42.92,259.65,63.27,245.67,62.51" style="stroke:#9D0012;stroke-width:1.1;"/></g><!--MD5=[4e7777d310d747d2c1947315482d4a2c]
link ItemList to UniqueItemList--><g id="link_ItemList_UniqueItemList"><path codeLine="22" d="M167.76,28 C167.76,28 172.72,28 174.74,28 " fill="none" id="ItemList-UniqueItemList" style="stroke:#9D0012;stroke-width:1.1;"/><polygon fill="#9D0012" points="187.59,28,178.59,24,182.59,28,178.59,32,187.59,28" style="stroke:#9D0012;stroke-width:1.1;"/><line style="stroke:#9D0012;stroke-width:1.1;" x1="182.59" x2="174.59" y1="28" y2="28"/><polygon fill="#9D0012" points="155.76,28,161.76,32,167.76,28,161.76,24,155.76,28" style="stroke:#9D0012;stroke-width:1.1;"/><text fill="#000000" font-family="sans-serif" font-size="13" lengthAdjust="spacing" textLength="8" x="173.5094" y="24.7596">1</text></g><!--MD5=[be517f24292d6b5fd6945ff9c04a4f08]
link UniqueItemList to Item--><g id="link_UniqueItemList_Item"><path codeLine="23" d="M319.93,28 C329.45,28 338.97,28 348.49,28 " fill="none" id="UniqueItemList-to-Item" style="stroke:#9D0012;stroke-width:1.1;"/><polygon fill="#9D0012" points="353.24,28,344.24,24,348.24,28,344.24,32,353.24,28" style="stroke:#9D0012;stroke-width:1.1;"/><text fill="#000000" font-family="sans-serif" font-size="13" lengthAdjust="spacing" textLength="6" x="341.1703" y="24.0332">*</text></g><!--MD5=[379cad8fe7fdefbfd53eed3f6bbb5751]
link Menu to UniqueMenuItemList--><g id="link_Menu_UniqueMenuItemList"><path codeLine="25" d="M139.33,122 C139.33,122 157.69,122 166.52,122 " fill="none" id="Menu-UniqueMenuItemList" style="stroke:#9D0012;stroke-width:1.1;"/><polygon fill="#9D0012" points="179.38,122,170.38,118,174.38,122,170.38,126,179.38,122" style="stroke:#9D0012;stroke-width:1.1;"/><line style="stroke:#9D0012;stroke-width:1.1;" x1="174.38" x2="166.38" y1="122" y2="122"/><polygon fill="#9D0012" points="127.33,122,133.33,126,139.33,122,133.33,118,127.33,122" style="stroke:#9D0012;stroke-width:1.1;"/><text fill="#000000" font-family="sans-serif" font-size="13" lengthAdjust="spacing" textLength="8" x="161.2069" y="118.8058">1</text></g><!--MD5=[410582d0ebd18a798591fcc3a7dd4758]
link UniqueMenuItemList to MenuItem--><g id="link_UniqueMenuItemList_MenuItem"><path codeLine="26" d="M318.46,122 C327.96,122 337.46,122 346.96,122 " fill="none" id="UniqueMenuItemList-to-MenuItem" style="stroke:#9D0012;stroke-width:1.1;"/><polygon fill="#9D0012" points="351.69,122,342.69,118,346.69,122,342.69,126,351.69,122" style="stroke:#9D0012;stroke-width:1.1;"/><text fill="#000000" font-family="sans-serif" font-size="13" lengthAdjust="spacing" textLength="6" x="339.3006" y="118.0433">*</text></g><!--MD5=[5007d20cad0ceb89f48512510ac8cc3c]
link MenuItem to ItemName--><g id="link_MenuItem_ItemName"><path codeLine="27" d="M419.3783,142.6457 C419.3783,142.6457 468.12,173.67 488.92,186.91 " fill="none" id="MenuItem-ItemName" style="stroke:#9D0012;stroke-width:1.1;"/><polygon fill="#9D0012" points="499.67,193.74,494.219,185.5371,495.4499,191.0585,489.9286,192.2893,499.67,193.74" style="stroke:#9D0012;stroke-width:1.1;"/><line style="stroke:#9D0012;stroke-width:1.1;" x1="495.4499" x2="488.7" y1="191.0585" y2="186.76"/><polygon fill="#9D0012" points="409.25,136.21,412.1689,142.8039,419.3783,142.6457,416.4594,136.0517,409.25,136.21" style="stroke:#9D0012;stroke-width:1.1;"/><text fill="#000000" font-family="sans-serif" font-size="13" lengthAdjust="spacing" textLength="8" x="483.9578" y="184.1716">1</text></g><!--MD5=[f372eb7725cabbeda6c252bc733ff022]
link MenuItem to ItemPrice--><g id="link_MenuItem_ItemPrice"><path codeLine="28" d="M351.5637,142.0504 C351.5637,142.0504 307.33,172.67 293.5,195 C278.67,218.96 274.36,251.38 273.33,274.03 " fill="none" id="MenuItem-ItemPrice" style="stroke:#9D0012;stroke-width:1.1;"/><polygon fill="#9D0012" points="273.09,287.03,277.2574,278.1063,273.1834,282.0309,269.2588,277.9569,273.09,287.03" style="stroke:#9D0012;stroke-width:1.1;"/><line style="stroke:#9D0012;stroke-width:1.1;" x1="273.1834" x2="273.33" y1="282.0309" y2="274.025"/><polygon fill="#9D0012" points="361.95,136.04,354.7534,135.5831,351.5637,142.0504,358.7603,142.5073,361.95,136.04" style="stroke:#9D0012;stroke-width:1.1;"/><text fill="#000000" font-family="sans-serif" font-size="13" lengthAdjust="spacing" textLength="8" x="258.6047" y="278.1578">1</text></g><!--MD5=[76f8c93340352728a69c78a2ebb3345b]
link MenuItem to ItemCost--><g id="link_MenuItem_ItemCost"><path codeLine="29" d="M391.1106,148.9298 C391.1106,148.9298 394.13,179.99 395.5,195 C397.96,221.97 400.55,252.82 402.32,274.25 " fill="none" id="MenuItem-ItemCost" style="stroke:#9D0012;stroke-width:1.1;"/><polygon fill="#9D0012" points="403.37,287.08,406.6249,277.7845,402.9634,282.0966,398.6514,278.4351,403.37,287.08" style="stroke:#9D0012;stroke-width:1.1;"/><line style="stroke:#9D0012;stroke-width:1.1;" x1="402.9634" x2="402.305" y1="282.0966" y2="274.13"/><polygon fill="#9D0012" points="389.91,136.99,386.5304,143.3601,391.1106,148.9298,394.4902,142.5597,389.91,136.99" style="stroke:#9D0012;stroke-width:1.1;"/><text fill="#000000" font-family="sans-serif" font-size="13" lengthAdjust="spacing" textLength="8" x="388.8313" y="278.2268">1</text></g><!--MD5=[05efcbb34af1c5d1c19394681411c6fa]
link MenuItem to ItemProfit--><g id="link_MenuItem_ItemProfit"><path codeLine="30" d="M375.7439,147.371 C375.7439,147.371 363.26,171.19 357.68,181.84 " fill="none" id="MenuItem-ItemProfit" style="stroke:#9D0012;stroke-width:1.1;"/><polygon fill="#9D0012" points="351.72,193.21,359.4383,187.0921,354.0392,188.7804,352.3509,183.3814,351.72,193.21" style="stroke:#9D0012;stroke-width:1.1;"/><line style="stroke:#9D0012;stroke-width:1.1;" x1="354.0392" x2="357.75" y1="188.7804" y2="181.7"/><polygon fill="#9D0012" points="381.31,136.74,374.9833,140.2001,375.7439,147.371,382.0706,143.9109,381.31,136.74" style="stroke:#9D0012;stroke-width:1.1;"/><text fill="#000000" font-family="sans-serif" font-size="13" lengthAdjust="spacing" textLength="8" x="339.2182" y="184.1716">1</text></g><!--MD5=[c99db0a5dcdb061892b1582b15bca1ae]
link ItemProfit to ItemPrice--><g id="link_ItemProfit_ItemPrice"><path codeLine="31" d="M334.92,221.41 C322.47,237.55 300.65,265.82 286.65,283.96 " fill="none" id="ItemProfit-to-ItemPrice" style="stroke:#9D0012;stroke-width:1.1;"/><polygon fill="#9D0012" points="283.85,287.59,292.5177,282.9133,286.9068,283.6333,286.1869,278.0224,283.85,287.59" style="stroke:#9D0012;stroke-width:1.1;"/><text fill="#000000" font-family="sans-serif" font-size="13" lengthAdjust="spacing" textLength="8" x="288.9916" y="278.2455">1</text></g><!--MD5=[1e6451bda8a983f1a53521c3749249df]
link ItemProfit to ItemCost--><g id="link_ItemProfit_ItemCost"><path codeLine="32" d="M352.59,221.41 C363.03,237.41 381.24,265.34 393.08,283.49 " fill="none" id="ItemProfit-to-ItemCost" style="stroke:#9D0012;stroke-width:1.1;"/><polygon fill="#9D0012" points="395.71,287.52,394.1461,277.7961,392.9795,283.3314,387.4443,282.1649,395.71,287.52" style="stroke:#9D0012;stroke-width:1.1;"/><text fill="#000000" font-family="sans-serif" font-size="13" lengthAdjust="spacing" textLength="8" x="379.0433" y="278.2455">1</text></g><!--MD5=[d4e0402bab5270c61b711b3d4f545b8c]
reverse link Item to MenuItem--><g id="link_Item_MenuItem"><path codeLine="36" d="M388.5,70.59 C388.5,84.38 388.5,98.71 388.5,108.55 " fill="none" id="Item-backto-MenuItem" style="stroke:#9D0012;stroke-width:1.1;"/><polygon fill="none" points="381.5,70.93,388.5,50.93,395.5,70.93,381.5,70.93" style="stroke:#9D0012;stroke-width:1.1;"/></g><!--MD5=[3b071cdf177de05bcb07dfe6af0e434e]
link ItemName to Name--><g id="link_ItemName_Name"><path codeLine="38" d="M520.5,221.41 C520.5,231.21 520.5,245.48 520.5,259.24 " fill="none" id="ItemName-to-Name" style="stroke:#9D0012;stroke-width:1.1;"/><polygon fill="none" points="527.5,259.2,520.5,279.2,513.5,259.2,527.5,259.2" style="stroke:#9D0012;stroke-width:1.1;"/></g><!--MD5=[9cfe3733bb5b6753367c4ec50f9a2d35]
@startuml
!include style.puml
skinparam arrowThickness 1.1
skinparam arrowColor MODEL_COLOR
skinparam classBackgroundColor MODEL_COLOR
skinparam groupInheritance 1

top to bottom direction

Abstract Class "{abstract}\nItem" as Item
Abstract Class "{abstract}\nName" as Name
Class "UniqueItemList<T> " as UniqueItemList
Class ItemList<T extends Item>


Class MenuItem
Class ItemPrice
Class ItemCost
Class ItemName
Class Menu extends ItemList
Class UniqueMenuItemList extends UniqueItemList

ItemList *- -r> "1" UniqueItemList
UniqueItemList -r>"*" Item

Menu *- -r> "1 " UniqueMenuItemList
UniqueMenuItemList -r>"*" MenuItem
MenuItem *- -> "1" ItemName
MenuItem *- -> "1 " ItemPrice
MenuItem *- -> "1 " ItemCost
MenuItem *- -> "1 " ItemProfit
ItemProfit - -> "1 " ItemPrice
ItemProfit - -> "1 " ItemCost



MenuItem -u|> Item

ItemName - -|> Name

@enduml

@startuml









skinparam BackgroundColor #FFFFFFF

skinparam Shadowing false

skinparam Class {
    FontColor #FFFFFF
    BorderThickness 0
    FontName Arial
}

skinparam Actor {
    BorderColor #000000
    Color #000000
    FontName Arial
}

skinparam Sequence {
    MessageAlign center
    BoxFontSize 15
    BoxPadding 0
    BoxFontColor #FFFFFF
    FontName Arial
}

skinparam Participant {
    FontColor #FFFFFFF
    Padding 20
}

skinparam MinClassWidth 50
skinparam ParticipantPadding 10
skinparam Shadowing false
skinparam DefaultTextAlignment center
skinparam packageStyle Rectangle

hide footbox
hide members
hide circle
skinparam arrowThickness 1.1
skinparam arrowColor #9D0012
skinparam classBackgroundColor #9D0012
skinparam groupInheritance 1

top to bottom direction

Abstract Class "{abstract}\nItem" as Item
Abstract Class "{abstract}\nName" as Name
Class "UniqueItemList<T> " as UniqueItemList
Class ItemList<T extends Item>


Class MenuItem
Class ItemPrice
Class ItemCost
Class ItemName
Class Menu extends ItemList
Class UniqueMenuItemList extends UniqueItemList

ItemList *- -r> "1" UniqueItemList
UniqueItemList -r>"*" Item

Menu *- -r> "1 " UniqueMenuItemList
UniqueMenuItemList -r>"*" MenuItem
MenuItem *- -> "1" ItemName
MenuItem *- -> "1 " ItemPrice
MenuItem *- -> "1 " ItemCost
MenuItem *- -> "1 " ItemProfit
ItemProfit - -> "1 " ItemPrice
ItemProfit - -> "1 " ItemCost



MenuItem -u|> Item

ItemName - -|> Name

@enduml

PlantUML version 1.2022.12(Mon Oct 24 02:12:26 SGT 2022)
(GPL source distribution)
Java Runtime: OpenJDK Runtime Environment
JVM: OpenJDK 64-Bit Server VM
Default Encoding: UTF-8
Language: en
Country: US
--></g></svg>